<svg id="img15" xmlns="http://www.w3.org/2000/svg" xmlns:xlink="http://www.w3.org/1999/xlink" width="152.225" height="140" viewBox="0 0 152.225 140">
  <defs>
    <clipPath id="clip-path">
      <rect id="Rectángulo_403428" data-name="Rectángulo 403428" width="152.225" height="140" fill="none"/>
    </clipPath>
    <clipPath id="clip-path-2">
      <rect id="Rectángulo_403427" data-name="Rectángulo 403427" width="152.225" height="139.998" fill="none"/>
    </clipPath>
    <clipPath id="clip-path-3">
      <rect id="Rectángulo_403419" data-name="Rectángulo 403419" width="11.889" height="15.346" fill="none"/>
    </clipPath>
    <clipPath id="clip-path-4">
      <path id="Trazado_913148" data-name="Trazado 913148" d="M50.009,14.548c3.283-1.9,5.943-.363,5.943,3.427a13.134,13.134,0,0,1-5.94,10.294c-3.283,1.9-5.949.354-5.949-3.433a13.144,13.144,0,0,1,5.946-10.288" transform="translate(-44.063 -13.734)" fill="none"/>
    </clipPath>
    <radialGradient id="radial-gradient" cx="0.5" cy="0.5" r="0.22" gradientTransform="matrix(-1.175, -0.894, 2.35, -0.447, -33.15, -5.525)" gradientUnits="objectBoundingBox">
      <stop offset="0" stop-color="#2d5800"/>
      <stop offset="0.237" stop-color="#2d5800"/>
      <stop offset="0.366" stop-color="#224300"/>
      <stop offset="0.624" stop-color="#0f1e00"/>
      <stop offset="0.834" stop-color="#040800"/>
      <stop offset="0.968"/>
      <stop offset="1"/>
    </radialGradient>
    <clipPath id="clip-path-5">
      <rect id="Rectángulo_403420" data-name="Rectángulo 403420" width="2.542" height="3.283" fill="none"/>
    </clipPath>
    <clipPath id="clip-path-6">
      <path id="Trazado_913150" data-name="Trazado 913150" d="M46.828,15.833c.7-.407,1.269-.072,1.269.733a2.8,2.8,0,0,1-1.269,2.2c-.708.407-1.272.085-1.272-.733a2.793,2.793,0,0,1,1.272-2.2" transform="translate(-45.556 -15.66)" fill="none"/>
    </clipPath>
    <radialGradient id="radial-gradient-2" cx="0.5" cy="0.5" r="0.219" gradientTransform="matrix(-1.177, -0.894, 2.353, -0.447, -154.871, -30.181)" gradientUnits="objectBoundingBox">
      <stop offset="0" stop-color="#81ff00"/>
      <stop offset="0.22" stop-color="#81ff00"/>
      <stop offset="0.305" stop-color="#6ed900"/>
      <stop offset="0.49" stop-color="#478d00"/>
      <stop offset="0.656" stop-color="#285000"/>
      <stop offset="0.796" stop-color="#122400"/>
      <stop offset="0.904" stop-color="#050900"/>
      <stop offset="0.968"/>
      <stop offset="1"/>
    </radialGradient>
    <clipPath id="clip-path-7">
      <rect id="Rectángulo_403421" data-name="Rectángulo 403421" width="11.885" height="15.348" fill="none"/>
    </clipPath>
    <clipPath id="clip-path-8">
      <path id="Trazado_913154" data-name="Trazado 913154" d="M49.176,15.028c3.286-1.9,5.943-.363,5.943,3.424a13.131,13.131,0,0,1-5.943,10.3c-3.28,1.9-5.943.357-5.943-3.437a13.125,13.125,0,0,1,5.943-10.285" transform="translate(-43.233 -14.214)" fill="none"/>
    </clipPath>
    <radialGradient id="radial-gradient-3" cy="0.5" r="0.22" gradientTransform="matrix(-1.175, -0.894, 2.351, -0.447, -32.572, -5.401)" xlink:href="#radial-gradient"/>
    <clipPath id="clip-path-9">
      <rect id="Rectángulo_403422" data-name="Rectángulo 403422" width="2.545" height="3.285" fill="none"/>
    </clipPath>
    <clipPath id="clip-path-10">
      <path id="Trazado_913156" data-name="Trazado 913156" d="M46,16.31c.7-.4,1.272-.072,1.272.739A2.788,2.788,0,0,1,46,19.246c-.7.41-1.272.088-1.272-.73A2.821,2.821,0,0,1,46,16.31" transform="translate(-44.724 -16.139)" fill="none"/>
    </clipPath>
    <radialGradient id="radial-gradient-4" cy="0.5" r="0.22" gradientTransform="matrix(-1.175, -0.894, 2.35, -0.447, -151.856, -29.534)" xlink:href="#radial-gradient-2"/>
    <clipPath id="clip-path-11">
      <rect id="Rectángulo_403423" data-name="Rectángulo 403423" width="11.888" height="15.349" fill="none"/>
    </clipPath>
    <clipPath id="clip-path-12">
      <path id="Trazado_913160" data-name="Trazado 913160" d="M48.349,15.507c3.28-1.9,5.943-.367,5.943,3.424a13.159,13.159,0,0,1-5.943,10.3c-3.286,1.892-5.946.36-5.946-3.433a13.123,13.123,0,0,1,5.946-10.291" transform="translate(-42.403 -14.693)" fill="none"/>
    </clipPath>
    <radialGradient id="radial-gradient-5" cy="0.5" r="0.22" gradientTransform="matrix(-1.175, -0.894, 2.35, -0.447, -31.971, -5.272)" xlink:href="#radial-gradient"/>
    <clipPath id="clip-path-14">
      <path id="Trazado_913162" data-name="Trazado 913162" d="M45.167,16.8c.7-.414,1.272-.072,1.272.73a2.815,2.815,0,0,1-1.272,2.205c-.7.4-1.272.081-1.272-.733a2.806,2.806,0,0,1,1.272-2.2" transform="translate(-43.895 -16.619)" fill="none"/>
    </clipPath>
    <radialGradient id="radial-gradient-6" cy="0.5" r="0.219" gradientTransform="matrix(-1.176, -0.894, 2.352, -0.447, -149.154, -28.956)" xlink:href="#radial-gradient-2"/>
    <clipPath id="clip-path-15">
      <rect id="Rectángulo_403425" data-name="Rectángulo 403425" width="11.886" height="15.349" fill="none"/>
    </clipPath>
    <clipPath id="clip-path-16">
      <path id="Trazado_913166" data-name="Trazado 913166" d="M47.518,15.984c3.28-1.892,5.94-.363,5.94,3.427a13.13,13.13,0,0,1-5.94,10.294c-3.289,1.9-5.946.36-5.946-3.43a13.125,13.125,0,0,1,5.946-10.291" transform="translate(-41.572 -15.173)" fill="none"/>
    </clipPath>
    <radialGradient id="radial-gradient-7" cy="0.5" r="0.22" gradientTransform="matrix(-1.175, -0.894, 2.351, -0.447, -31.393, -5.149)" xlink:href="#radial-gradient"/>
    <clipPath id="clip-path-17">
      <rect id="Rectángulo_403426" data-name="Rectángulo 403426" width="2.543" height="3.285" fill="none"/>
    </clipPath>
    <clipPath id="clip-path-18">
      <path id="Trazado_913168" data-name="Trazado 913168" d="M44.338,17.273c.7-.407,1.269-.078,1.269.73a2.807,2.807,0,0,1-1.269,2.205c-.7.4-1.275.085-1.275-.736a2.8,2.8,0,0,1,1.275-2.2" transform="translate(-43.063 -17.098)" fill="none"/>
    </clipPath>
    <radialGradient id="radial-gradient-8" cy="0.5" r="0.219" gradientTransform="matrix(-1.175, -0.894, 2.35, -0.447, -146.338, -28.35)" xlink:href="#radial-gradient-2"/>
  </defs>
  <g id="Grupo_1102043" data-name="Grupo 1102043" clip-path="url(#clip-path)">
    <path id="Trazado_913084" data-name="Trazado 913084" d="M0,66.928l73.306,42.223V56.684L0,14.464Z" transform="translate(0 30.848)" fill="#181c1e"/>
    <path id="Trazado_913085" data-name="Trazado 913085" d="M78.917,0,0,45.312l73.3,42.22,78.92-45.312Z" transform="translate(0.002)" fill="#262d30"/>
    <path id="Trazado_913086" data-name="Trazado 913086" d="M23.4,58.791v52.467l78.92-45.312V13.476Z" transform="translate(49.906 28.741)" fill="#22292b"/>
    <path id="Trazado_913087" data-name="Trazado 913087" d="M24.36,68.362V79.02l72.9-41.856V26.509Z" transform="translate(51.954 56.537)" fill="#181c1e"/>
    <path id="Trazado_913088" data-name="Trazado 913088" d="M62.168,63.378,1.988,29.328V34.04l60.18,34.037Z" transform="translate(4.24 62.549)" fill="#181c1e"/>
    <path id="Trazado_913089" data-name="Trazado 913089" d="M62.168,60.83,1.988,26.793v4.7l60.18,34.04Z" transform="translate(4.24 57.143)" fill="#181c1e"/>
    <path id="Trazado_913090" data-name="Trazado 913090" d="M62.168,58.292,1.988,24.252v4.7l60.18,34.037Z" transform="translate(4.24 51.723)" fill="#181c1e"/>
    <path id="Trazado_913091" data-name="Trazado 913091" d="M47.84,34.26,24.4,47.8V38.874L47.84,25.338Z" transform="translate(52.034 54.038)" fill="#181c1e"/>
    <path id="Trazado_913092" data-name="Trazado 913092" d="M36.064,29.955l-11.35,6.557v-2.1l11.35-6.56Z" transform="translate(52.708 59.41)" fill="#dcf4f4"/>
    <path id="Trazado_913093" data-name="Trazado 913093" d="M34.764,32.48,28.7,35.985V30.033l6.068-3.5Z" transform="translate(61.2 56.589)" fill="#979797"/>
    <path id="Trazado_913094" data-name="Trazado 913094" d="M33.337,31.24l-4.37,2.525V29.479l4.37-2.525Z" transform="translate(61.779 57.486)" fill="#181c1e"/>
    <path id="Trazado_913095" data-name="Trazado 913095" d="M30.986,26.988v5.946l1.679-.968V26.02Z" transform="translate(66.085 55.493)" fill="#e86c5d"/>
    <path id="Trazado_913096" data-name="Trazado 913096" d="M36.064,31.178l-11.35,6.557v-2.09l11.35-6.557Z" transform="translate(52.708 62.039)" fill="#dcf4f4"/>
    <path id="Trazado_913097" data-name="Trazado 913097" d="M55.677,29.74,32.226,43.28V34.358L55.677,20.815Z" transform="translate(68.729 44.393)" fill="#181c1e"/>
    <path id="Trazado_913098" data-name="Trazado 913098" d="M43.893,25.432l-11.35,6.551v-2.09l11.35-6.554Z" transform="translate(69.405 49.776)" fill="#dcf4f4"/>
    <path id="Trazado_913099" data-name="Trazado 913099" d="M42.593,27.964l-6.068,3.5V25.518l6.068-3.506Z" transform="translate(77.898 46.946)" fill="#979797"/>
    <path id="Trazado_913100" data-name="Trazado 913100" d="M41.169,26.719,36.8,29.244V24.962l4.373-2.528Z" transform="translate(78.475 47.845)" fill="#181c1e"/>
    <path id="Trazado_913101" data-name="Trazado 913101" d="M38.815,22.47v5.946l1.679-.968V21.5Z" transform="translate(82.782 45.851)" fill="#e86c5d"/>
    <path id="Trazado_913102" data-name="Trazado 913102" d="M43.893,26.662l-11.35,6.557v-2.1l11.35-6.551Z" transform="translate(69.405 52.4)" fill="#dcf4f4"/>
    <path id="Trazado_913103" data-name="Trazado 913103" d="M63.6,25.166,40.147,38.705V29.783L63.6,16.244Z" transform="translate(85.622 34.644)" fill="#181c1e"/>
    <path id="Trazado_913104" data-name="Trazado 913104" d="M51.811,20.857,40.464,27.414V25.321l11.347-6.557Z" transform="translate(86.298 40.02)" fill="#dcf4f4"/>
    <path id="Trazado_913105" data-name="Trazado 913105" d="M50.514,23.387l-6.068,3.5V20.94l6.068-3.5Z" transform="translate(94.791 37.197)" fill="#979797"/>
    <path id="Trazado_913106" data-name="Trazado 913106" d="M49.086,22.144l-4.37,2.528V20.383l4.37-2.522Z" transform="translate(95.368 38.094)" fill="#181c1e"/>
    <path id="Trazado_913107" data-name="Trazado 913107" d="M46.737,17.893v5.955l1.679-.971V16.925Z" transform="translate(99.677 36.097)" fill="#e86c5d"/>
    <path id="Trazado_913108" data-name="Trazado 913108" d="M51.811,22.089,40.464,28.646V26.553L51.811,20Z" transform="translate(86.298 42.646)" fill="#dcf4f4"/>
    <path id="Trazado_913109" data-name="Trazado 913109" d="M47.84,37.523,24.4,51.06V42.138L47.84,28.6Z" transform="translate(52.034 60.999)" fill="#181c1e"/>
    <path id="Trazado_913110" data-name="Trazado 913110" d="M36.064,33.212l-11.35,6.557v-2.09l11.35-6.557Z" transform="translate(52.708 66.375)" fill="#dcf4f4"/>
    <path id="Trazado_913111" data-name="Trazado 913111" d="M34.764,35.74,28.7,39.249V33.3l6.068-3.5Z" transform="translate(61.2 63.55)" fill="#979797"/>
    <path id="Trazado_913112" data-name="Trazado 913112" d="M33.337,34.5l-4.37,2.528V32.743l4.37-2.525Z" transform="translate(61.779 64.447)" fill="#181c1e"/>
    <path id="Trazado_913113" data-name="Trazado 913113" d="M30.986,30.249V36.2l1.679-.968V29.284Z" transform="translate(66.085 62.455)" fill="#e86c5d"/>
    <path id="Trazado_913114" data-name="Trazado 913114" d="M36.064,34.448,24.714,41V38.909l11.35-6.557Z" transform="translate(52.708 68.999)" fill="#dcf4f4"/>
    <path id="Trazado_913115" data-name="Trazado 913115" d="M55.677,33,32.226,46.542V37.617L55.677,24.081Z" transform="translate(68.729 51.358)" fill="#181c1e"/>
    <path id="Trazado_913116" data-name="Trazado 913116" d="M43.893,28.7l-11.35,6.551v-2.1L43.893,26.6Z" transform="translate(69.405 56.736)" fill="#dcf4f4"/>
    <path id="Trazado_913117" data-name="Trazado 913117" d="M42.593,31.222l-6.068,3.5V28.778l6.068-3.5Z" transform="translate(77.898 53.913)" fill="#979797"/>
    <path id="Trazado_913118" data-name="Trazado 913118" d="M41.169,29.989,36.8,32.511V28.226L41.169,25.7Z" transform="translate(78.475 54.806)" fill="#181c1e"/>
    <path id="Trazado_913119" data-name="Trazado 913119" d="M38.815,25.731v5.952l1.679-.971V24.763Z" transform="translate(82.782 52.813)" fill="#e86c5d"/>
    <path id="Trazado_913120" data-name="Trazado 913120" d="M43.893,29.924l-11.35,6.554v-2.1l11.35-6.547Z" transform="translate(69.405 59.362)" fill="#dcf4f4"/>
    <path id="Trazado_913121" data-name="Trazado 913121" d="M63.6,28.43,40.147,41.972V33.047L63.6,19.507Z" transform="translate(85.622 41.604)" fill="#181c1e"/>
    <path id="Trazado_913122" data-name="Trazado 913122" d="M51.811,24.122l-11.347,6.56v-2.1l11.347-6.551Z" transform="translate(86.298 46.982)" fill="#dcf4f4"/>
    <path id="Trazado_913123" data-name="Trazado 913123" d="M50.514,26.654l-6.068,3.5V24.2l6.068-3.5Z" transform="translate(94.791 44.157)" fill="#979797"/>
    <path id="Trazado_913124" data-name="Trazado 913124" d="M49.086,25.407l-4.37,2.525V23.646l4.37-2.519Z" transform="translate(95.368 45.059)" fill="#181c1e"/>
    <path id="Trazado_913125" data-name="Trazado 913125" d="M46.737,21.161v5.946l1.679-.968V20.19Z" transform="translate(99.677 43.06)" fill="#e86c5d"/>
    <path id="Trazado_913126" data-name="Trazado 913126" d="M51.811,25.353,40.464,31.91v-2.1l11.347-6.554Z" transform="translate(86.298 49.609)" fill="#dcf4f4"/>
    <path id="Trazado_913127" data-name="Trazado 913127" d="M47.84,40.773,24.4,54.31V45.388L47.84,31.848Z" transform="translate(52.034 67.924)" fill="#181c1e"/>
    <path id="Trazado_913128" data-name="Trazado 913128" d="M36.064,36.461l-11.35,6.554V40.922l11.35-6.551Z" transform="translate(52.708 73.304)" fill="#dcf4f4"/>
    <path id="Trazado_913129" data-name="Trazado 913129" d="M34.764,38.992l-6.068,3.5V36.543l6.068-3.5Z" transform="translate(61.2 70.479)" fill="#979797"/>
    <path id="Trazado_913130" data-name="Trazado 913130" d="M33.337,37.755l-4.37,2.525V35.991l4.37-2.525Z" transform="translate(61.779 71.374)" fill="#181c1e"/>
    <path id="Trazado_913131" data-name="Trazado 913131" d="M30.986,33.505v5.943l1.679-.968V32.531Z" transform="translate(66.085 69.38)" fill="#e86c5d"/>
    <path id="Trazado_913132" data-name="Trazado 913132" d="M36.064,37.691l-11.35,6.554V42.152L36.064,35.6Z" transform="translate(52.708 75.928)" fill="#dcf4f4"/>
    <path id="Trazado_913133" data-name="Trazado 913133" d="M55.677,36.249,32.226,49.788V40.866L55.677,27.33Z" transform="translate(68.729 58.287)" fill="#181c1e"/>
    <path id="Trazado_913134" data-name="Trazado 913134" d="M43.893,31.942,32.543,38.5V36.406l11.35-6.557Z" transform="translate(69.405 63.661)" fill="#dcf4f4"/>
    <path id="Trazado_913135" data-name="Trazado 913135" d="M42.593,34.477l-6.068,3.5V32.027l6.068-3.5Z" transform="translate(77.898 60.836)" fill="#979797"/>
    <path id="Trazado_913136" data-name="Trazado 913136" d="M41.169,33.23,36.8,35.755V31.472l4.373-2.525Z" transform="translate(78.475 61.737)" fill="#181c1e"/>
    <path id="Trazado_913137" data-name="Trazado 913137" d="M38.815,28.982v5.943l1.679-.965V28.011Z" transform="translate(82.782 59.74)" fill="#e86c5d"/>
    <path id="Trazado_913138" data-name="Trazado 913138" d="M43.893,33.171l-11.35,6.557v-2.1l11.35-6.551Z" transform="translate(69.405 66.287)" fill="#dcf4f4"/>
    <path id="Trazado_913139" data-name="Trazado 913139" d="M63.6,31.675,40.147,45.215V36.293L63.6,22.757Z" transform="translate(85.622 48.534)" fill="#181c1e"/>
    <path id="Trazado_913140" data-name="Trazado 913140" d="M51.811,27.368,40.464,33.925v-2.1l11.347-6.551Z" transform="translate(86.298 53.912)" fill="#dcf4f4"/>
    <path id="Trazado_913141" data-name="Trazado 913141" d="M50.514,29.9l-6.068,3.5V27.455l6.068-3.5Z" transform="translate(94.791 51.084)" fill="#979797"/>
    <path id="Trazado_913142" data-name="Trazado 913142" d="M49.086,28.662l-4.37,2.525V26.9l4.37-2.528Z" transform="translate(95.368 51.981)" fill="#181c1e"/>
    <path id="Trazado_913143" data-name="Trazado 913143" d="M46.737,24.409v5.946l1.679-.968V23.438Z" transform="translate(99.677 49.987)" fill="#e86c5d"/>
    <path id="Trazado_913144" data-name="Trazado 913144" d="M51.811,28.6,40.464,35.155v-2.1l11.347-6.551Z" transform="translate(86.298 56.536)" fill="#dcf4f4"/>
    <g id="Grupo_1102042" data-name="Grupo 1102042" transform="translate(0 0.002)">
      <g id="Grupo_1102041" data-name="Grupo 1102041" clip-path="url(#clip-path-2)">
        <path id="Trazado_913145" data-name="Trazado 913145" d="M46.578,15.934c.495-.288.905-.056.905.526a2.008,2.008,0,0,1-.905,1.569c-.5.288-.905.053-.905-.523a2.012,2.012,0,0,1,.905-1.573" transform="translate(97.408 33.718)" fill="#040216"/>
        <path id="Trazado_913146" data-name="Trazado 913146" d="M46.438,15.993c.382-.222.692-.047.692.4a1.546,1.546,0,0,1-.692,1.209c-.388.219-.7.038-.7-.407a1.53,1.53,0,0,1,.7-1.2" transform="translate(97.549 33.903)" fill="#5fba00"/>
        <g id="Grupo_1102005" data-name="Grupo 1102005" transform="translate(138.039 43.025)" style="mix-blend-mode: color-dodge;isolation: isolate">
          <g id="Grupo_1102004" data-name="Grupo 1102004">
            <g id="Grupo_1102003" data-name="Grupo 1102003" clip-path="url(#clip-path-3)">
              <g id="Grupo_1102002" data-name="Grupo 1102002" transform="translate(-0.001 -0.002)">
                <g id="Grupo_1102001" data-name="Grupo 1102001" clip-path="url(#clip-path-4)">
                  <path id="Trazado_913147" data-name="Trazado 913147" d="M55.952,35.577V11.2L44.063,18.062V42.441Z" transform="translate(-44.063 -19.144)" fill="url(#radial-gradient)"/>
                </g>
              </g>
            </g>
          </g>
        </g>
        <g id="Grupo_1102010" data-name="Grupo 1102010" transform="translate(142.713 49.058)" style="mix-blend-mode: color-dodge;isolation: isolate">
          <g id="Grupo_1102009" data-name="Grupo 1102009">
            <g id="Grupo_1102008" data-name="Grupo 1102008" clip-path="url(#clip-path-5)">
              <g id="Grupo_1102007" data-name="Grupo 1102007" transform="translate(0.001 -0.003)">
                <g id="Grupo_1102006" data-name="Grupo 1102006" clip-path="url(#clip-path-6)">
                  <path id="Trazado_913149" data-name="Trazado 913149" d="M48.1,20.334V15.117l-2.541,1.467V21.8Z" transform="translate(-45.556 -16.816)" fill="url(#radial-gradient-2)"/>
                </g>
              </g>
            </g>
          </g>
        </g>
        <path id="Trazado_913151" data-name="Trazado 913151" d="M45.744,16.416c.5-.294.905-.056.905.52a1.991,1.991,0,0,1-.905,1.569c-.495.288-.9.053-.9-.523a2,2,0,0,1,.9-1.566" transform="translate(95.636 34.74)" fill="#040216"/>
        <path id="Trazado_913152" data-name="Trazado 913152" d="M45.6,16.471c.382-.219.7-.044.7.4a1.536,1.536,0,0,1-.7,1.2c-.376.229-.692.044-.692-.4a1.557,1.557,0,0,1,.692-1.2" transform="translate(95.779 34.926)" fill="#5fba00"/>
        <g id="Grupo_1102015" data-name="Grupo 1102015" transform="translate(135.438 44.529)" style="mix-blend-mode: color-dodge;isolation: isolate">
          <g id="Grupo_1102014" data-name="Grupo 1102014">
            <g id="Grupo_1102013" data-name="Grupo 1102013" clip-path="url(#clip-path-7)">
              <g id="Grupo_1102012" data-name="Grupo 1102012" transform="translate(-0.001 -0.001)">
                <g id="Grupo_1102011" data-name="Grupo 1102011" clip-path="url(#clip-path-8)">
                  <path id="Trazado_913153" data-name="Trazado 913153" d="M55.119,36.055V11.678L43.233,18.54V42.918Z" transform="translate(-43.233 -19.623)" fill="url(#radial-gradient-3)"/>
                </g>
              </g>
            </g>
          </g>
        </g>
        <g id="Grupo_1102020" data-name="Grupo 1102020" transform="translate(140.107 50.561)" style="mix-blend-mode: color-dodge;isolation: isolate">
          <g id="Grupo_1102019" data-name="Grupo 1102019">
            <g id="Grupo_1102018" data-name="Grupo 1102018" clip-path="url(#clip-path-9)">
              <g id="Grupo_1102017" data-name="Grupo 1102017" transform="translate(0.001 -0.002)">
                <g id="Grupo_1102016" data-name="Grupo 1102016" clip-path="url(#clip-path-10)">
                  <path id="Trazado_913155" data-name="Trazado 913155" d="M47.268,20.813V15.6l-2.544,1.469v5.215Z" transform="translate(-44.724 -17.295)" fill="url(#radial-gradient-4)"/>
                </g>
              </g>
            </g>
          </g>
        </g>
        <path id="Trazado_913157" data-name="Trazado 913157" d="M44.919,16.894c.5-.291.905-.056.905.523a2.015,2.015,0,0,1-.905,1.573c-.5.288-.908.05-.908-.526a2,2,0,0,1,.908-1.569" transform="translate(93.863 35.762)" fill="#040216"/>
        <path id="Trazado_913158" data-name="Trazado 913158" d="M44.774,16.95c.379-.216.7-.044.7.4a1.562,1.562,0,0,1-.7,1.212c-.385.219-.7.034-.7-.407a1.525,1.525,0,0,1,.7-1.2" transform="translate(94.008 35.951)" fill="#5fba00"/>
        <g id="Grupo_1102025" data-name="Grupo 1102025" transform="translate(132.838 46.03)" style="mix-blend-mode: color-dodge;isolation: isolate">
          <g id="Grupo_1102024" data-name="Grupo 1102024">
            <g id="Grupo_1102023" data-name="Grupo 1102023" clip-path="url(#clip-path-11)">
              <g id="Grupo_1102022" data-name="Grupo 1102022" transform="translate(-0.001 -0.002)">
                <g id="Grupo_1102021" data-name="Grupo 1102021" clip-path="url(#clip-path-12)">
                  <path id="Trazado_913159" data-name="Trazado 913159" d="M54.292,36.533V12.157L42.4,19.022V43.4Z" transform="translate(-42.403 -20.102)" fill="url(#radial-gradient-5)"/>
                </g>
              </g>
            </g>
          </g>
        </g>
        <g id="Grupo_1102030" data-name="Grupo 1102030" transform="translate(137.509 52.063)" style="mix-blend-mode: color-dodge;isolation: isolate">
          <g id="Grupo_1102029" data-name="Grupo 1102029">
            <g id="Grupo_1102028" data-name="Grupo 1102028" clip-path="url(#clip-path-9)">
              <g id="Grupo_1102027" data-name="Grupo 1102027" transform="translate(0.002 -0.003)">
                <g id="Grupo_1102026" data-name="Grupo 1102026" clip-path="url(#clip-path-14)">
                  <path id="Trazado_913161" data-name="Trazado 913161" d="M46.439,21.3V16.075l-2.544,1.469v5.222Z" transform="translate(-43.895 -17.779)" fill="url(#radial-gradient-6)"/>
                </g>
              </g>
            </g>
          </g>
        </g>
        <path id="Trazado_913163" data-name="Trazado 913163" d="M44.084,17.371c.5-.285.905-.056.905.529a2,2,0,0,1-.905,1.563c-.5.291-.9.053-.9-.523a2,2,0,0,1,.9-1.569" transform="translate(92.095 36.786)" fill="#040216"/>
        <path id="Trazado_913164" data-name="Trazado 913164" d="M43.944,17.43c.385-.219.7-.041.7.4a1.545,1.545,0,0,1-.7,1.209c-.385.219-.7.038-.7-.407a1.509,1.509,0,0,1,.7-1.2" transform="translate(92.236 36.972)" fill="#5fba00"/>
        <g id="Grupo_1102035" data-name="Grupo 1102035" transform="translate(130.234 47.533)" style="mix-blend-mode: color-dodge;isolation: isolate">
          <g id="Grupo_1102034" data-name="Grupo 1102034">
            <g id="Grupo_1102033" data-name="Grupo 1102033" clip-path="url(#clip-path-15)">
              <g id="Grupo_1102032" data-name="Grupo 1102032" transform="translate(-0.001 -0.001)">
                <g id="Grupo_1102031" data-name="Grupo 1102031" clip-path="url(#clip-path-16)">
                  <path id="Trazado_913165" data-name="Trazado 913165" d="M53.458,37.015V12.638L41.572,19.5V43.878Z" transform="translate(-41.572 -20.58)" fill="url(#radial-gradient-7)"/>
                </g>
              </g>
            </g>
          </g>
        </g>
        <g id="Grupo_1102040" data-name="Grupo 1102040" transform="translate(134.906 53.564)" style="mix-blend-mode: color-dodge;isolation: isolate">
          <g id="Grupo_1102039" data-name="Grupo 1102039">
            <g id="Grupo_1102038" data-name="Grupo 1102038" clip-path="url(#clip-path-17)">
              <g id="Grupo_1102037" data-name="Grupo 1102037" transform="translate(-0.001 -0.002)">
                <g id="Grupo_1102036" data-name="Grupo 1102036" clip-path="url(#clip-path-18)">
                  <path id="Trazado_913167" data-name="Trazado 913167" d="M45.607,21.771V16.556l-2.544,1.469V23.24Z" transform="translate(-43.063 -18.255)" fill="url(#radial-gradient-8)"/>
                </g>
              </g>
            </g>
          </g>
        </g>
      </g>
    </g>
  </g>
</svg>
