<svg xmlns="http://www.w3.org/2000/svg" xmlns:xlink="http://www.w3.org/1999/xlink" width="190" height="115" viewBox="0 0 190 115">
  <defs>
    <clipPath id="clip-path">
      <rect id="Rectángulo_401573" data-name="Rectángulo 401573" width="28.836" height="111" fill="none"/>
    </clipPath>
    <clipPath id="clip-path-2">
      <rect id="Rectángulo_401572" data-name="Rectángulo 401572" width="72.283" height="262.133" fill="none"/>
    </clipPath>
    <clipPath id="clip-path-3">
      <rect id="Rectángulo_403255" data-name="Rectángulo 403255" width="71" height="71" transform="translate(254.051 423)" fill="#fff" stroke="#707070" stroke-width="1"/>
    </clipPath>
  </defs>
  <g id="img1" transform="translate(-180.051 -401)">
    <g id="Grupo_1103061" data-name="Grupo 1103061">
      <g id="Grupo_1101503" data-name="Grupo 1101503" transform="translate(180.051 401.333)">
        <g id="Grupo_1099687" data-name="Grupo 1099687" clip-path="url(#clip-path)">
          <g id="Grupo_1099686" data-name="Grupo 1099686" transform="translate(-6.669 -55.037)" opacity="0.45" style="mix-blend-mode: multiply;isolation: isolate">
            <g id="Grupo_1099685" data-name="Grupo 1099685">
              <g id="Grupo_1099684" data-name="Grupo 1099684" clip-path="url(#clip-path-2)">
                <path id="Trazado_873516" data-name="Trazado 873516" d="M-.222,17.8,89.855-5.386,88.78.455-1.3,23.64Z" transform="matrix(0.898, -0.44, 0.44, 0.898, -7.635, 207.677)" fill="#2d0464"/>
                <path id="Trazado_873517" data-name="Trazado 873517" d="M-.222,17.8,89.855-5.386,88.78.455-1.3,23.64Z" transform="matrix(0.898, -0.44, 0.44, 0.898, -7.635, 191.348)" fill="#2d0464"/>
                <path id="Trazado_873518" data-name="Trazado 873518" d="M-.222,17.8,89.855-5.386,88.78.455-1.3,23.64Z" transform="matrix(0.898, -0.44, 0.44, 0.898, -7.635, 175.019)" fill="#2d0464"/>
                <path id="Trazado_873519" data-name="Trazado 873519" d="M-.222,17.8,89.855-5.386,88.78.455-1.3,23.64Z" transform="matrix(0.898, -0.44, 0.44, 0.898, -7.635, 158.69)" fill="#2d0464"/>
                <path id="Trazado_873520" data-name="Trazado 873520" d="M-.222,17.8,89.855-5.386,88.78.455-1.3,23.64Z" transform="matrix(0.898, -0.44, 0.44, 0.898, -7.635, 142.36)" fill="#2d0464"/>
                <path id="Trazado_873521" data-name="Trazado 873521" d="M-.222,17.8,89.855-5.386,88.78.455-1.3,23.64Z" transform="matrix(0.898, -0.44, 0.44, 0.898, -7.635, 126.031)" fill="#2d0464"/>
                <path id="Trazado_873522" data-name="Trazado 873522" d="M-.222,17.8,89.855-5.386,88.78.455-1.3,23.64Z" transform="matrix(0.898, -0.44, 0.44, 0.898, -7.635, 109.702)" fill="#2d0464"/>
                <path id="Trazado_873523" data-name="Trazado 873523" d="M-.222,17.8,89.855-5.386,88.78.455-1.3,23.64Z" transform="matrix(0.898, -0.44, 0.44, 0.898, -7.635, 93.373)" fill="#2d0464"/>
                <path id="Trazado_873524" data-name="Trazado 873524" d="M-.222,17.8,89.855-5.386,88.78.455-1.3,23.64Z" transform="matrix(0.898, -0.44, 0.44, 0.898, -7.635, 77.044)" fill="#2d0464"/>
                <path id="Trazado_873525" data-name="Trazado 873525" d="M-.222,17.8,89.855-5.386,88.78.455-1.3,23.64Z" transform="matrix(0.898, -0.44, 0.44, 0.898, -7.635, 60.715)" fill="#2d0464"/>
                <path id="Trazado_873526" data-name="Trazado 873526" d="M-.222,17.8,89.855-5.386,88.78.455-1.3,23.64Z" transform="translate(-7.635 44.385) rotate(-26.114)" fill="#2d0464"/>
              </g>
            </g>
          </g>
        </g>
        <rect id="Rectángulo_401574" data-name="Rectángulo 401574" width="161" height="115" transform="translate(29 -0.333)" fill="#efe8f7"/>
      </g>
    </g>
    <g id="Enmascarar_grupo_1098759" data-name="Enmascarar grupo 1098759" clip-path="url(#clip-path-3)">
      <g id="cable-de-red" transform="translate(254.477 423.426)">
        <g id="Grupo_1103051" data-name="Grupo 1103051">
          <g id="Grupo_1103050" data-name="Grupo 1103050">
            <path id="Trazado_919920" data-name="Trazado 919920" d="M26.057,56.6l-11.82,11.82a.411.411,0,0,0,.291.7h2.886l3.353-.751a.411.411,0,0,0,.291-.12l8.3-8.352Z" fill="#5b5b72"/>
            <path id="Trazado_919921" data-name="Trazado 919921" d="M17.414,69.121l9.612-9.613,1.758.411.181,1.528L21.413,69a.41.41,0,0,1-.291.12Z" fill="#6b6b82"/>
          </g>
          <path id="Trazado_919922" data-name="Trazado 919922" d="M44.092,13.549l11.82-11.82a.411.411,0,0,0-.291-.7H52.735l-3.353.751a.411.411,0,0,0-.291.12l-8.3,8.352Z" fill="#6b6b82"/>
          <path id="Trazado_919923" data-name="Trazado 919923" d="M45.661,13.179,43.122,10.64,40.769,8.516a1.209,1.209,0,0,0-1.71,0l-2.023,1.856,2.541,3.814,4.03,2.757,2.054-2.054A1.21,1.21,0,0,0,45.661,13.179Z" fill="#67c4f9"/>
          <path id="Trazado_919924" data-name="Trazado 919924" d="M52.735,1.028,43.123,10.64l-1.758-.411L41.183,8.7l7.553-7.553a.41.41,0,0,1,.291-.12Z" fill="#5b5b72"/>
          <path id="Trazado_919925" data-name="Trazado 919925" d="M43.123,10.64,40.213,13.55l-1.7-.681-1.7-2.713L38.873,8.1a1.209,1.209,0,0,1,1.711,0Z" fill="#43b0fc"/>
          <path id="Trazado_919926" data-name="Trazado 919926" d="M43.607,16.943l-3.394-3.394-3.446-2.909a1.371,1.371,0,0,0-1.939,0l-1.594,1.746,3.444,4.7,4.991,3.736,1.939-1.939A1.371,1.371,0,0,0,43.607,16.943Z" fill="#85d1ff"/>
          <path id="Trazado_919927" data-name="Trazado 919927" d="M40.213,13.55,37.3,16.458l-3.094-1.62-1.27-2.744,1.94-1.94a1.371,1.371,0,0,1,1.939,0Z" fill="#67c4f9"/>
          <path id="Trazado_919928" data-name="Trazado 919928" d="M41.668,22.761l-1.94,1.94L33.69,20.007,31.778,16.75l-2.251-2.657,1.641-1.669a1.372,1.372,0,0,1,1.94,0l3.087,3.009.923.838,4.551,4.551A1.372,1.372,0,0,1,41.668,22.761Z" fill="#67c4f9"/>
          <path id="Trazado_919929" data-name="Trazado 919929" d="M39.729,24.7l-9.7-9.7L27.013,16.21a9.6,9.6,0,0,0-3.222,2.125l-2,2,5.152,7.038L34.4,32.941l2-2a9.6,9.6,0,0,0,2.125-3.222Z" fill="#85d1ff"/>
          <path id="Trazado_919930" data-name="Trazado 919930" d="M37.272,16.425a3.66,3.66,0,0,0-5.175,0l-.322.322-2.2-.854-.514-1.859L31,12.094a1.372,1.372,0,0,1,1.94,0Z" fill="#43b0fc"/>
          <path id="Trazado_919931" data-name="Trazado 919931" d="M34.4,32.941,21.79,20.336l-2.909,2.909,5.052,7.138,7.554,5.467Z" fill="#67c4f9"/>
          <path id="Trazado_919932" data-name="Trazado 919932" d="M31.487,35.85,18.882,23.244l-8.726,8.726,4.529,7.107,8.076,5.5Z" fill="#85d1ff"/>
          <path id="Trazado_919933" data-name="Trazado 919933" d="M24.7,34.881l-5.819-5.819a.411.411,0,0,0-.581,0L15.973,31.39a.411.411,0,0,0,0,.581l5.819,5.819a.411.411,0,0,0,.581,0L24.7,35.463A.411.411,0,0,0,24.7,34.881Z" fill="#67c4f9"/>
          <path id="Trazado_919934" data-name="Trazado 919934" d="M22.761,44.577,10.155,31.971,2.4,39.728c-.535.535-.326,1.109.209,1.644l.568,1.072,9.889,9.889a1.371,1.371,0,0,0,1.939,0Z" fill="#f2fbff"/>
          <path id="Trazado_919935" data-name="Trazado 919935" d="M31.778,16.75,28.5,18.061a8.23,8.23,0,0,0-2.761,1.821l-2.2,2.2-2.3-.414-.414-2.3,2-2a9.594,9.594,0,0,1,3.222-2.124l3.018-1.208Z" fill="#67c4f9"/>
          <path id="Trazado_919936" data-name="Trazado 919936" d="M23.537,22.082l-2.909,2.909-2.4-.315-.315-2.4,2.909-2.909Z" fill="#43b0fc"/>
          <path id="Trazado_919937" data-name="Trazado 919937" d="M20.628,24.991,11.9,33.717l-2.483-.233L9.186,31l8.726-8.726Z" fill="#67c4f9"/>
          <path id="Trazado_919938" data-name="Trazado 919938" d="M11.9,33.717,3.175,42.444,1.429,40.7a1.371,1.371,0,0,1,0-1.94L9.186,31Z" fill="#e6f5ff"/>
          <path id="Trazado_919939" data-name="Trazado 919939" d="M29.565,62.047l-2.539-2.539L24.9,57.155a1.209,1.209,0,0,1,0-1.71l1.856-2.023,3.814,2.541,2.757,4.03-2.054,2.054A1.209,1.209,0,0,1,29.565,62.047Z" fill="#67c4f9"/>
          <path id="Trazado_919940" data-name="Trazado 919940" d="M27.027,59.509,29.936,56.6l-.681-1.7-2.713-1.7L24.488,55.26a1.209,1.209,0,0,0,0,1.711Z" fill="#43b0fc"/>
          <path id="Trazado_919941" data-name="Trazado 919941" d="M33.329,59.993,29.936,56.6l-2.909-3.446a1.371,1.371,0,0,1,0-1.939l1.746-1.594,4.7,3.444,3.736,4.991-1.939,1.939A1.371,1.371,0,0,1,33.329,59.993Z" fill="#85d1ff"/>
          <path id="Trazado_919942" data-name="Trazado 919942" d="M29.936,56.6l2.908-2.908L31.224,50.6l-2.744-1.27-1.94,1.94a1.371,1.371,0,0,0,0,1.939Z" fill="#67c4f9"/>
          <path id="Trazado_919943" data-name="Trazado 919943" d="M39.147,58.055l1.94-1.94-4.694-6.039-3.257-1.912-2.657-2.251L28.81,47.554a1.372,1.372,0,0,0,0,1.94l3.009,3.087.838.923,4.551,4.551A1.372,1.372,0,0,0,39.147,58.055Z" fill="#67c4f9"/>
          <path id="Trazado_919944" data-name="Trazado 919944" d="M41.086,56.115l-9.7-9.7L32.6,43.4a9.6,9.6,0,0,1,2.125-3.222l2-2,7.038,5.152,5.567,7.454-2,2A9.6,9.6,0,0,1,44.1,54.908Z" fill="#85d1ff"/>
          <path id="Trazado_919945" data-name="Trazado 919945" d="M32.811,53.658a3.66,3.66,0,0,1,0-5.175l.322-.322-.854-2.2-1.859-.514-1.94,1.94a1.372,1.372,0,0,0,0,1.94Z" fill="#43b0fc"/>
          <path id="Trazado_919946" data-name="Trazado 919946" d="M49.328,50.782,36.722,38.177l2.909-2.909,7.138,5.052,5.467,7.554Z" fill="#67c4f9"/>
          <path id="Trazado_919947" data-name="Trazado 919947" d="M52.237,47.873,39.631,35.268l8.726-8.726,7.107,4.529,5.5,8.076Z" fill="#85d1ff"/>
          <path id="Trazado_919948" data-name="Trazado 919948" d="M51.268,41.087l-5.819-5.819a.411.411,0,0,1,0-.581l2.328-2.328a.411.411,0,0,1,.581,0l5.819,5.819a.411.411,0,0,1,0,.581l-2.328,2.328A.411.411,0,0,1,51.268,41.087Z" fill="#67c4f9"/>
          <path id="Trazado_919949" data-name="Trazado 919949" d="M60.963,39.147,48.357,26.541l7.757-7.757c.535-.535,1.109-.326,1.644.209l1.072.568,9.889,9.889a1.371,1.371,0,0,1,0,1.939Z" fill="#f2fbff"/>
          <path id="Trazado_919950" data-name="Trazado 919950" d="M33.136,48.164l1.312-3.28a8.23,8.23,0,0,1,1.821-2.761l2.2-2.2-.414-2.3-2.3-.414-2,2a9.594,9.594,0,0,0-2.124,3.222L30.42,45.448Z" fill="#67c4f9"/>
          <path id="Trazado_919951" data-name="Trazado 919951" d="M38.468,39.924l2.909-2.909-.315-2.4-2.4-.315-2.909,2.909Z" fill="#43b0fc"/>
          <path id="Trazado_919952" data-name="Trazado 919952" d="M41.377,37.014,50.1,28.288l-.233-2.483-2.483-.233L38.662,34.3Z" fill="#67c4f9"/>
          <path id="Trazado_919953" data-name="Trazado 919953" d="M50.1,28.288l8.727-8.727-1.746-1.746a1.371,1.371,0,0,0-1.94,0l-7.757,7.757Z" fill="#e6f5ff"/>
        </g>
        <g id="Grupo_1103060" data-name="Grupo 1103060">
          <g id="Grupo_1103055" data-name="Grupo 1103055">
            <g id="Grupo_1103053" data-name="Grupo 1103053">
              <path id="Trazado_919954" data-name="Trazado 919954" d="M62.364,23.095l-5.28-5.28a1.371,1.371,0,0,0-1.939,0l-7.757,7.757L60.963,39.147,68.72,31.39a1.371,1.371,0,0,0,0-1.939l-2.963-2.963" fill="none" stroke="#000" stroke-linecap="round" stroke-linejoin="round" stroke-miterlimit="10" stroke-width="2.055"/>
              <path id="Trazado_919955" data-name="Trazado 919955" d="M41.077,31.883,38.662,34.3,52.236,47.873l8.726-8.726" fill="none" stroke="#000" stroke-linecap="round" stroke-linejoin="round" stroke-miterlimit="10" stroke-width="2.055"/>
              <line id="Línea_702" data-name="Línea 702" x1="2.941" y2="2.941" transform="translate(44.447 25.572)" fill="none" stroke="#000" stroke-linecap="round" stroke-linejoin="round" stroke-miterlimit="10" stroke-width="2.055"/>
              <path id="Trazado_919956" data-name="Trazado 919956" d="M38.662,34.3l-2.909,2.909L49.328,50.782l2.909-2.909" fill="none" stroke="#000" stroke-linecap="round" stroke-linejoin="round" stroke-miterlimit="10" stroke-width="2.055"/>
              <path id="Trazado_919957" data-name="Trazado 919957" d="M35.753,37.207l-2,2a9.6,9.6,0,0,0-2.125,3.222L30.42,45.449,41.086,56.115,44.1,54.907a9.6,9.6,0,0,0,3.222-2.125l2-2" fill="none" stroke="#000" stroke-linecap="round" stroke-linejoin="round" stroke-miterlimit="10" stroke-width="2.055"/>
              <rect id="Rectángulo_404069" data-name="Rectángulo 404069" width="10.97" height="4.114" transform="translate(52.236 42.056) rotate(-135)" fill="none" stroke="#000" stroke-linecap="round" stroke-linejoin="round" stroke-miterlimit="10" stroke-width="2.055"/>
              <g id="Grupo_1103052" data-name="Grupo 1103052">
                <line id="Línea_703" data-name="Línea 703" x1="2.909" y2="2.909" transform="translate(61.157 30.614)" fill="none" stroke="#000" stroke-linecap="round" stroke-linejoin="round" stroke-miterlimit="10" stroke-width="2.055"/>
                <line id="Línea_704" data-name="Línea 704" x1="2.909" y2="2.909" transform="translate(58.442 27.899)" fill="none" stroke="#000" stroke-linecap="round" stroke-linejoin="round" stroke-miterlimit="10" stroke-width="2.055"/>
                <line id="Línea_705" data-name="Línea 705" x1="2.909" y2="2.909" transform="translate(55.727 25.184)" fill="none" stroke="#000" stroke-linecap="round" stroke-linejoin="round" stroke-miterlimit="10" stroke-width="2.055"/>
                <line id="Línea_706" data-name="Línea 706" x1="2.909" y2="2.909" transform="translate(53.012 22.47)" fill="none" stroke="#000" stroke-linecap="round" stroke-linejoin="round" stroke-miterlimit="10" stroke-width="2.055"/>
              </g>
            </g>
            <path id="Trazado_919958" data-name="Trazado 919958" d="M30.42,45.449l-1.939,1.939a1.371,1.371,0,0,0,0,1.939l8.726,8.726a1.371,1.371,0,0,0,1.939,0l1.939-1.939" fill="none" stroke="#000" stroke-linecap="round" stroke-linejoin="round" stroke-miterlimit="10" stroke-width="2.055"/>
            <path id="Trazado_919959" data-name="Trazado 919959" d="M28.459,49.35l-1.917,1.917a1.371,1.371,0,0,0,0,1.939l6.787,6.787a1.371,1.371,0,0,0,1.939,0l1.9-1.9" fill="none" stroke="#000" stroke-linecap="round" stroke-linejoin="round" stroke-miterlimit="10" stroke-width="2.055"/>
            <path id="Trazado_919960" data-name="Trazado 919960" d="M26.47,53.277,24.488,55.26a1.209,1.209,0,0,0,0,1.71l5.077,5.077a1.209,1.209,0,0,0,1.71,0l2.008-2.008" fill="none" stroke="#000" stroke-linecap="round" stroke-linejoin="round" stroke-miterlimit="10" stroke-width="2.055"/>
            <g id="Grupo_1103054" data-name="Grupo 1103054">
              <line id="Línea_707" data-name="Línea 707" x1="11.503" y2="11.503" transform="translate(13.535 57.618)" fill="none" stroke="#000" stroke-linecap="round" stroke-linejoin="round" stroke-miterlimit="10" stroke-width="2.055"/>
              <line id="Línea_708" data-name="Línea 708" y1="7.642" x2="7.643" transform="translate(21.292 61.479)" fill="none" stroke="#000" stroke-linecap="round" stroke-linejoin="round" stroke-miterlimit="10" stroke-width="2.055"/>
            </g>
          </g>
          <g id="Grupo_1103059" data-name="Grupo 1103059">
            <g id="Grupo_1103057" data-name="Grupo 1103057">
              <path id="Trazado_919961" data-name="Trazado 919961" d="M12.48,34.3,9.186,31,1.429,38.759a1.371,1.371,0,0,0,0,1.939L13.065,52.333a1.371,1.371,0,0,0,1.939,0l7.757-7.757-6.9-6.9" fill="none" stroke="#000" stroke-linecap="round" stroke-linejoin="round" stroke-miterlimit="10" stroke-width="2.055"/>
              <path id="Trazado_919962" data-name="Trazado 919962" d="M22.76,44.577l8.726-8.726L17.912,22.276,9.186,31" fill="none" stroke="#000" stroke-linecap="round" stroke-linejoin="round" stroke-miterlimit="10" stroke-width="2.055"/>
              <path id="Trazado_919963" data-name="Trazado 919963" d="M28.065,26.61l-7.243-7.243-2.909,2.909" fill="none" stroke="#000" stroke-linecap="round" stroke-linejoin="round" stroke-miterlimit="10" stroke-width="2.055"/>
              <path id="Trazado_919964" data-name="Trazado 919964" d="M31.487,35.85,34.4,32.941,31.434,29.98" fill="none" stroke="#000" stroke-linecap="round" stroke-linejoin="round" stroke-miterlimit="10" stroke-width="2.055"/>
              <path id="Trazado_919965" data-name="Trazado 919965" d="M34.4,32.941l2-2a9.6,9.6,0,0,0,2.125-3.222L39.728,24.7,29.063,14.034l-3.019,1.207a9.6,9.6,0,0,0-3.222,2.125l-2,2" fill="none" stroke="#000" stroke-linecap="round" stroke-linejoin="round" stroke-miterlimit="10" stroke-width="2.055"/>
              <rect id="Rectángulo_404070" data-name="Rectángulo 404070" width="10.97" height="4.114" transform="translate(17.913 28.093) rotate(45)" fill="none" stroke="#000" stroke-linecap="round" stroke-linejoin="round" stroke-miterlimit="10" stroke-width="2.055"/>
              <g id="Grupo_1103056" data-name="Grupo 1103056">
                <line id="Línea_709" data-name="Línea 709" y1="2.909" x2="2.909" transform="translate(6.083 36.626)" fill="none" stroke="#000" stroke-linecap="round" stroke-linejoin="round" stroke-miterlimit="10" stroke-width="2.055"/>
                <line id="Línea_710" data-name="Línea 710" y1="2.909" x2="2.909" transform="translate(8.798 39.341)" fill="none" stroke="#000" stroke-linecap="round" stroke-linejoin="round" stroke-miterlimit="10" stroke-width="2.055"/>
                <line id="Línea_711" data-name="Línea 711" y1="2.909" x2="2.909" transform="translate(11.513 42.056)" fill="none" stroke="#000" stroke-linecap="round" stroke-linejoin="round" stroke-miterlimit="10" stroke-width="2.055"/>
                <line id="Línea_712" data-name="Línea 712" y1="2.909" x2="2.909" transform="translate(14.228 44.77)" fill="none" stroke="#000" stroke-linecap="round" stroke-linejoin="round" stroke-miterlimit="10" stroke-width="2.055"/>
              </g>
            </g>
            <path id="Trazado_919966" data-name="Trazado 919966" d="M39.728,24.7l1.939-1.939a1.371,1.371,0,0,0,0-1.939l-8.726-8.726a1.371,1.371,0,0,0-1.939,0l-1.939,1.939" fill="none" stroke="#000" stroke-linecap="round" stroke-linejoin="round" stroke-miterlimit="10" stroke-width="2.055"/>
            <path id="Trazado_919967" data-name="Trazado 919967" d="M41.759,20.73l1.848-1.848a1.371,1.371,0,0,0,0-1.939L36.82,10.156a1.371,1.371,0,0,0-1.939,0l-1.865,1.865" fill="none" stroke="#000" stroke-linecap="round" stroke-linejoin="round" stroke-miterlimit="10" stroke-width="2.055"/>
            <path id="Trazado_919968" data-name="Trazado 919968" d="M43.693,16.857l1.968-1.968a1.209,1.209,0,0,0,0-1.71L40.584,8.1a1.209,1.209,0,0,0-1.71,0L36.9,10.078" fill="none" stroke="#000" stroke-linecap="round" stroke-linejoin="round" stroke-miterlimit="10" stroke-width="2.055"/>
            <g id="Grupo_1103058" data-name="Grupo 1103058">
              <line id="Línea_713" data-name="Línea 713" y1="11.489" x2="11.489" transform="translate(45.125 1.028)" fill="none" stroke="#000" stroke-linecap="round" stroke-linejoin="round" stroke-miterlimit="10" stroke-width="2.055"/>
              <line id="Línea_714" data-name="Línea 714" x1="7.616" y2="7.616" transform="translate(41.24 1.028)" fill="none" stroke="#000" stroke-linecap="round" stroke-linejoin="round" stroke-miterlimit="10" stroke-width="2.055"/>
            </g>
          </g>
        </g>
      </g>
    </g>
  </g>
</svg>
