<svg xmlns="http://www.w3.org/2000/svg" width="161.949" height="76" viewBox="0 0 161.949 76">
  <g id="img11" transform="translate(-16 219.734) rotate(-90)">
    <circle id="Elipse_11566" data-name="Elipse 11566" cx="38" cy="38" r="38" transform="translate(143.734 78)" fill="#3d5966"/>
    <path id="Trazado_920806" data-name="Trazado 920806" d="M176,209.775h16.195v64.181H176Z" transform="translate(-21.257 -128.396)" fill="#349438"/>
    <circle id="Elipse_11567" data-name="Elipse 11567" cx="8" cy="8" r="8" transform="translate(154.734 73)" fill="#4caf50"/>
    <path id="Trazado_920807" data-name="Trazado 920807" d="M0,0H16.195V64.78H0Z" transform="translate(208.726 145.559) rotate(180)" fill="#bf2913"/>
    <circle id="Elipse_11568" data-name="Elipse 11568" cx="8" cy="8" r="8" transform="translate(192.734 73)" fill="#e64f39"/>
    <path id="Trazado_920808" data-name="Trazado 920808" d="M200,144h37.788V249.267H200Z" transform="translate(-37.16 -84.814)" fill="#7496a6"/>
    <circle id="Elipse_11569" data-name="Elipse 11569" cx="19" cy="19" r="19" transform="translate(162.734 40)" fill="#dedde2"/>
    <path id="Trazado_920809" data-name="Trazado 920809" d="M240,40V75.089a5.4,5.4,0,0,0,10.8,0V40Z" transform="translate(-63.664 -15.903)" fill="#f5be41"/>
    <ellipse id="Elipse_11570" data-name="Elipse 11570" cx="5" cy="6" rx="5" ry="6" transform="translate(176.734 18)" fill="#f5d07d"/>
    <path id="Trazado_920810" data-name="Trazado 920810" d="M232,336h16.195v53.983H232Z" transform="translate(-58.363 -212.034)" fill="#e6ad2c"/>
    <path id="Trazado_920811" data-name="Trazado 920811" d="M312,256h16.195v80.975H312Z" transform="translate(-111.372 -159.025)" fill="#258adb"/>
    <path id="Trazado_920812" data-name="Trazado 920812" d="M0,0H16.195V80.975H0Z" transform="translate(162.84 177.949) rotate(180)" fill="#258adb"/>
    <circle id="Elipse_11571" data-name="Elipse 11571" cx="8" cy="8" r="8" transform="translate(200.734 89)" fill="#42a5f5"/>
    <circle id="Elipse_11572" data-name="Elipse 11572" cx="8" cy="8" r="8" transform="translate(173.734 116)" fill="#f5be41"/>
    <circle id="Elipse_11573" data-name="Elipse 11573" cx="8" cy="8" r="8" transform="translate(146.734 89)" fill="#42a5f5"/>
    <path id="Trazado_920813" data-name="Trazado 920813" d="M280,304h16.195v64.181H280Z" transform="translate(-90.168 -190.83)" fill="#349438"/>
    <circle id="Elipse_11574" data-name="Elipse 11574" cx="8" cy="8" r="8" transform="translate(189.734 105)" fill="#4caf50"/>
    <path id="Trazado_920814" data-name="Trazado 920814" d="M0,0H16.195V64.78H0Z" transform="translate(173.637 177.949) rotate(180)" fill="#bf2913"/>
    <circle id="Elipse_11575" data-name="Elipse 11575" cx="8" cy="8" r="8" transform="translate(157.734 105)" fill="#e64f39"/>
    <path id="Trazado_920815" data-name="Trazado 920815" d="M181.788,349.788A37.788,37.788,0,0,1,144,312v62.081h75.576V312A37.788,37.788,0,0,1,181.788,349.788Z" transform="translate(-0.054 -196.131)" fill="#3d5966"/>
    <path id="Trazado_920816" data-name="Trazado 920816" d="M144,96.975v80.975h5.4V138.012a37.768,37.768,0,0,0,64.78,0v39.937h5.4V96.975a10.811,10.811,0,0,0-9.59-10.727,10.789,10.789,0,0,0-6.605-15.922V59.186a21.74,21.74,0,0,0-13.5-20.017V24.1a8.1,8.1,0,1,0-16.195,0V39.169a21.74,21.74,0,0,0-13.5,20.017V70.325a10.789,10.789,0,0,0-6.605,15.922A10.811,10.811,0,0,0,144,96.975Zm5.4,9.346a10.727,10.727,0,0,0,5.4,1.451,10.84,10.84,0,0,0,1.515-.108,10.729,10.729,0,0,0-1.515,5.507v23.28a32.2,32.2,0,0,1-5.4-17.882Zm43.078,16.131a10.763,10.763,0,0,0,10.9.064v20.174a32.421,32.421,0,0,1-10.8,6.418V123.966A10.839,10.839,0,0,0,192.476,122.451Zm10.9-9.282a5.4,5.4,0,1,1-5.4-5.4A5.4,5.4,0,0,1,203.381,113.17Zm-21.593,5.4a5.4,5.4,0,1,1-5.4,5.4A5.4,5.4,0,0,1,181.788,118.568Zm-21.593,3.948a10.758,10.758,0,0,0,10.8,0v26.591a32.42,32.42,0,0,1-10.8-6.418Zm5.4-3.948a5.4,5.4,0,1,1,5.4-5.4A5.4,5.4,0,0,1,165.593,118.568Zm10.8,31.937V133.312a10.758,10.758,0,0,0,10.8,0v17.195a32.431,32.431,0,0,1-10.8,0Zm32.39-14.055V113.768h-.018c.011-.2.018-.4.018-.6a10.729,10.729,0,0,0-1.515-5.507,10.839,10.839,0,0,0,1.515.108,10.727,10.727,0,0,0,5.4-1.452v12.249A32.2,32.2,0,0,1,208.78,136.45Zm5.4-39.475a5.4,5.4,0,1,1-5.4-5.4A5.4,5.4,0,0,1,214.178,96.975Zm-8.1-16.195a5.4,5.4,0,0,1-2.7,4.668V76.112A5.4,5.4,0,0,1,206.081,80.78ZM179.089,31.731a8.079,8.079,0,0,0,5.4,0V59.186a2.7,2.7,0,1,1-5.4,0Zm2.7-10.332a2.7,2.7,0,1,1-2.7,2.7A2.7,2.7,0,0,1,181.788,21.4Zm-8.1,23.767V59.186a8.1,8.1,0,1,0,16.195,0V45.165a16.195,16.195,0,1,1-16.195,0Zm8.1,35.614a21.544,21.544,0,0,0,16.2-7.336l0,28.929a10.787,10.787,0,0,0-10.688,12.312,10.766,10.766,0,0,0-11.013,0,10.787,10.787,0,0,0-10.688-12.312V73.446A21.543,21.543,0,0,0,181.788,80.78Zm-21.593-4.668v9.336a5.386,5.386,0,0,1,0-9.336Zm-5.4,15.464a5.4,5.4,0,1,1-5.4,5.4A5.4,5.4,0,0,1,154.8,91.576Z" transform="translate(-0.054)"/>
  </g>
</svg>
