<svg xmlns="http://www.w3.org/2000/svg" width="72.615" height="72.615" viewBox="0 0 72.615 72.615">
  <g id="img18" transform="translate(0)">
    <path id="Trazado_913257" data-name="Trazado 913257" d="M389.028,66.953V54h-7.942v7.079Zm0,0" transform="translate(-327.038 -46.341)" fill="#b3b6c3"/>
    <path id="Trazado_913258" data-name="Trazado 913258" d="M44,453.957h60.135v6.814H44Zm0,0" transform="translate(-37.76 -389.574)" fill="#b3b6c3"/>
    <path id="Trazado_913259" data-name="Trazado 913259" d="M76,92.856V127.03h51.058V92.856L101.529,73Zm0,0" transform="translate(-65.221 -62.647)" fill="#edf2fa"/>
    <path id="Trazado_913260" data-name="Trazado 913260" d="M427.418,340.286a1.419,1.419,0,1,1,1-.415A1.43,1.43,0,0,1,427.418,340.286Zm0,0" transform="translate(-365.582 -289.59)"/>
    <path id="Trazado_913261" data-name="Trazado 913261" d="M15.028,42.044,44.889,18.936l29.853,23.1L79.779,37,44.889,10,10,37Zm0,0" transform="translate(-8.582 -8.582)" fill="#ff5d5d"/>
    <path id="Trazado_913262" data-name="Trazado 913262" d="M61.835,45.024a1.418,1.418,0,0,0,1.418-1.418V33l2.038,1.578a1.419,1.419,0,0,0,1.871-.119L72.2,29.421a1.418,1.418,0,0,0-.135-2.124l-8.656-6.7V7.659a1.418,1.418,0,0,0-1.418-1.418H54.047a1.418,1.418,0,0,0-1.418,1.418v4.6L37.175.3a1.42,1.42,0,0,0-1.736,0L.549,27.3a1.418,1.418,0,0,0-.136,2.123L5.44,34.464a1.419,1.419,0,0,0,1.873.121L9.36,33V62.966H6.239a1.418,1.418,0,0,0-1.418,1.418V71.2a1.418,1.418,0,0,0,1.418,1.418H66.374A1.418,1.418,0,0,0,67.792,71.2V64.384a1.418,1.418,0,0,0-1.418-1.418h-3.12V54.951a1.418,1.418,0,1,0-2.837,0v8.014H12.2V30.805L36.307,12.147,60.417,30.805v12.8a1.418,1.418,0,0,0,1.418,1.418Zm0,20.779h3.12V69.78H7.658V65.8ZM55.465,9.078h5.106V18.4l-5.106-3.951Zm-20.027.155L6.566,31.576l-3.009-3.02L36.307,3.212,69.055,28.555,66.04,31.57,37.175,9.232a1.42,1.42,0,0,0-1.736,0Zm0,0" transform="translate(0.001 -0.001)" fill="#12263f"/>
    <g id="Grupo_1102054" data-name="Grupo 1102054" transform="translate(16.91 28.863)">
      <path id="Trazado_913263" data-name="Trazado 913263" d="M155.187,216.028a2.828,2.828,0,0,1-2.006-.831,20.608,20.608,0,0,0-29.111,0,2.836,2.836,0,0,1-4.012-4.011,26.287,26.287,0,0,1,37.134,0,2.837,2.837,0,0,1-2.006,4.842Zm0,0" transform="translate(-119.227 -203.508)" fill="#72d8ff"/>
      <path id="Trazado_913264" data-name="Trazado 913264" d="M198.1,297.193a2.828,2.828,0,0,1-2.006-.831,8.578,8.578,0,0,0-12.118,0,2.837,2.837,0,0,1-4.012-4.012,14.259,14.259,0,0,1,20.142,0,2.837,2.837,0,0,1-2.006,4.843Zm0,0" transform="translate(-170.636 -276.177)" fill="#72d8ff"/>
      <path id="Trazado_913265" data-name="Trazado 913265" d="M241.8,373.286a2.837,2.837,0,1,1-2.837-2.837A2.836,2.836,0,0,1,241.8,373.286Zm0,0" transform="translate(-219.546 -346.772)" fill="#72d8ff"/>
    </g>
    <path id="Trazado_913266" data-name="Trazado 913266" d="M146.619,208.869a4.227,4.227,0,0,1-3.009-1.246,19.188,19.188,0,0,0-27.105,0,4.255,4.255,0,1,1-6.017-6.018,27.708,27.708,0,0,1,39.14,0,4.255,4.255,0,0,1-3.008,7.264Zm-16.562-9.686a21.935,21.935,0,0,1,15.558,6.434,1.418,1.418,0,0,0,2.006-2.006,24.867,24.867,0,0,0-35.128,0,1.418,1.418,0,0,0,2.006,2.006,21.938,21.938,0,0,1,15.559-6.434Zm0,0" transform="translate(-93.75 -166.067)" fill="#12263f"/>
    <path id="Trazado_913267" data-name="Trazado 913267" d="M189.53,290.034a4.227,4.227,0,0,1-3.009-1.247,7.161,7.161,0,0,0-10.113,0,4.255,4.255,0,1,1-6.018-6.017,15.679,15.679,0,0,1,22.148,0,4.255,4.255,0,0,1-3.008,7.264Zm-8.065-6.173a9.918,9.918,0,0,1,7.062,2.921,1.419,1.419,0,0,0,2.006-2.006,12.839,12.839,0,0,0-18.136,0,1.418,1.418,0,1,0,2.006,2.006A9.922,9.922,0,0,1,181.465,283.86Zm0,0" transform="translate(-145.157 -238.736)" fill="#12263f"/>
    <path id="Trazado_913268" data-name="Trazado 913268" d="M230.38,368.959a4.255,4.255,0,1,1,4.255-4.255A4.26,4.26,0,0,1,230.38,368.959Zm0-5.673A1.418,1.418,0,1,0,231.8,364.7,1.42,1.42,0,0,0,230.38,363.286Zm0,0" transform="translate(-194.054 -309.328)" fill="#12263f"/>
  </g>
</svg>
