<svg id="img17" xmlns="http://www.w3.org/2000/svg" width="72.616" height="54.462" viewBox="0 0 72.616 54.462">
  <path id="Trazado_913249" data-name="Trazado 913249" d="M48.363,78.608c1.135.993-.567,2.411-1.418,1.56a15.023,15.023,0,0,0-21.274-.142c-.993.993-2.411-.567-1.418-1.56A17.165,17.165,0,0,1,48.363,78.608Zm15.743,34.464H57.3a1.064,1.064,0,1,1,0-2.127h6.808A1.064,1.064,0,0,1,64.106,113.072Zm-19.856-.851H28.365a.969.969,0,0,1-.993-.993v-3.546H2.127v4.255a4.3,4.3,0,0,0,4.255,4.4H66.233a4.392,4.392,0,0,0,4.255-4.4v-4.255h-25.1v3.546A1.2,1.2,0,0,1,44.25,112.221Zm17.587-6.666V74.07H53.469a19.813,19.813,0,1,1-37.017,9.786A20.936,20.936,0,0,1,19,74.07H10.779v31.486ZM29.5,107.683v2.553H43.257v-2.553Zm36.733,10.779H6.382A6.478,6.478,0,0,1,0,111.938v-5.389a.969.969,0,0,1,.993-.993H4.4V68.822a1.1,1.1,0,0,1,.993-1.135H24.82a19.738,19.738,0,0,1,22.976,0H67.084a1.1,1.1,0,0,1,1.135.993v36.875h3.4a.969.969,0,0,1,.993.993v5.389A6.572,6.572,0,0,1,66.233,118.462ZM6.524,105.556H8.651V73.077a1.1,1.1,0,0,1,.993-1.135H20.423c.567-.709,1.276-1.418,1.844-2.127H6.524Zm57.44,0h2.127V69.815H50.207a9.063,9.063,0,0,1,1.844,2.127H62.971a.969.969,0,0,1,.993.993Zm-45.385-21.7A17.728,17.728,0,1,0,36.308,66.127,17.735,17.735,0,0,0,18.579,83.856Zm17.728-3.262a10.557,10.557,0,0,0-7.233,2.837,1,1,0,1,1-1.418-1.418,12.285,12.285,0,0,1,17.3.142c.993.993-.567,2.269-1.418,1.418A10.079,10.079,0,0,0,36.308,80.594Zm0,4.822a5.354,5.354,0,0,0-3.829,1.418,1,1,0,1,1-1.418-1.418,7.362,7.362,0,0,1,10.353,0c.993.993-.425,2.553-1.418,1.56A5.15,5.15,0,0,0,36.308,85.416Zm0,10.637a3.617,3.617,0,1,1,0-7.233,3.617,3.617,0,0,1,0,7.233Zm0-5.106a1.574,1.574,0,0,0-1.56,1.56,1.458,1.458,0,0,0,1.56,1.418,1.553,1.553,0,0,0,1.56-1.418A1.574,1.574,0,0,0,36.308,90.947Z" transform="translate(0 -64)" fill="#12263f" fill-rule="evenodd"/>
  <path id="Trazado_913250" data-name="Trazado 913250" d="M136.673,91.339a17.165,17.165,0,0,1,24.111.142c1.135.993-.567,2.411-1.418,1.56a15.023,15.023,0,0,0-21.274-.142C137.1,93.892,135.68,92.332,136.673,91.339Zm3.4,3.546a12.285,12.285,0,0,1,17.3.142c.993.993-.567,2.269-1.418,1.418a10.079,10.079,0,0,0-7.233-2.978A10.557,10.557,0,0,0,141.5,96.3,1,1,0,1,1,140.077,94.885Zm8.651,19.572A17.728,17.728,0,1,0,131,96.728,17.735,17.735,0,0,0,148.728,114.457Zm-5.248-16.168a7.362,7.362,0,0,1,10.353,0c.993.993-.425,2.553-1.418,1.56a5.15,5.15,0,0,0-3.687-1.56,5.354,5.354,0,0,0-3.829,1.418A1,1,0,1,1,143.481,98.289Zm1.56,7.091a3.755,3.755,0,0,1,3.688-3.688,3.617,3.617,0,0,1,0,7.233A3.731,3.731,0,0,1,145.041,105.38Z" transform="translate(-112.421 -76.873)" fill="#7ed63f" fill-rule="evenodd"/>
  <path id="Trazado_913251" data-name="Trazado 913251" d="M248.12,255.56a1.56,1.56,0,1,0-3.12,0,1.458,1.458,0,0,0,1.56,1.418A1.553,1.553,0,0,0,248.12,255.56Z" transform="translate(-210.252 -227.053)" fill="#ffe600" fill-rule="evenodd"/>
  <path id="Trazado_913252" data-name="Trazado 913252" d="M118.69,135a19.813,19.813,0,1,1-37.017,9.786A20.936,20.936,0,0,1,84.226,135H76v31.486h51.058V135Z" transform="translate(-65.221 -124.93)" fill="#d9f2f2" fill-rule="evenodd"/>
  <path id="Trazado_913253" data-name="Trazado 913253" d="M221.757,372H208v2.553h13.757Z" transform="translate(-178.5 -328.317)" fill="#f1f1f1" fill-rule="evenodd"/>
  <g id="Grupo_1102053" data-name="Grupo 1102053" transform="translate(2.127 5.815)">
    <path id="Trazado_913254" data-name="Trazado 913254" d="M58.257,372v3.546a1.2,1.2,0,0,1-1.135.993H41.238a.969.969,0,0,1-.993-.993V372H15v4.255a4.3,4.3,0,0,0,4.255,4.4H79.106a4.392,4.392,0,0,0,4.255-4.4V372Zm11.913,5.389h6.808a1.064,1.064,0,1,0,0-2.127H70.171A1.064,1.064,0,1,0,70.171,377.389Z" transform="translate(-15 -334.132)" fill="#99a4ac" fill-rule="evenodd"/>
    <path id="Trazado_913255" data-name="Trazado 913255" d="M367.757,108.12v32.62h2.127V105H354a9.064,9.064,0,0,1,1.844,2.127h10.921A.969.969,0,0,1,367.757,108.12Z" transform="translate(-305.921 -105)" fill="#99a4ac" fill-rule="evenodd"/>
    <path id="Trazado_913256" data-name="Trazado 913256" d="M48.127,140.741V108.262a1.1,1.1,0,0,1,.993-1.135H59.9c.567-.709,1.276-1.418,1.844-2.127H46v35.741Z" transform="translate(-41.603 -105)" fill="#99a4ac" fill-rule="evenodd"/>
  </g>
</svg>
