<svg xmlns="http://www.w3.org/2000/svg" xmlns:xlink="http://www.w3.org/1999/xlink" width="71" height="71" viewBox="0 0 71 71">
  <defs>
    <clipPath id="clip-path">
      <rect id="Rectángulo_403472" data-name="Rectángulo 403472" width="71" height="71" transform="translate(-9199 -1308)" fill="#fff" stroke="#707070" stroke-width="1"/>
    </clipPath>
  </defs>
  <g id="img31" transform="translate(9199 1308)" clip-path="url(#clip-path)">
    <g id="evaluacion-comparativa" transform="translate(-9199.138 -1308.138)">
      <g id="Grupo_1103736" data-name="Grupo 1103736">
        <g id="Grupo_1103734" data-name="Grupo 1103734">
          <path id="Trazado_923633" data-name="Trazado 923633" d="M14.77,49.082l-2.385-2.548L17.2,41.714l2.555,2.378Z" fill="#8d9ca8" fill-rule="evenodd"/>
          <circle id="Elipse_11584" data-name="Elipse 11584" cx="14.608" cy="14.608" r="14.608" transform="translate(13.129 19.04)" fill="#64b5f6"/>
          <path id="Trazado_923634" data-name="Trazado 923634" d="M27.737,22.781A10.866,10.866,0,1,0,38.6,33.648,10.866,10.866,0,0,0,27.737,22.781Z" fill="#e6f8ff" fill-rule="evenodd"/>
          <path id="Trazado_923635" data-name="Trazado 923635" d="M13.006,45.207l3.172,3.172a.843.843,0,0,1,0,1.191L6.515,59.232A3.085,3.085,0,0,1,2.153,54.87l9.663-9.663A.843.843,0,0,1,13.006,45.207Z" fill="#c97629" fill-rule="evenodd"/>
          <path id="Trazado_923636" data-name="Trazado 923636" d="M16.178,49.569l-2.214,2.214L9.6,47.421l2.214-2.214a.843.843,0,0,1,1.19,0l3.172,3.172A.843.843,0,0,1,16.178,49.569Z" fill="#da8c36" fill-rule="evenodd"/>
        </g>
        <g id="Grupo_1103735" data-name="Grupo 1103735">
          <path id="Trazado_923637" data-name="Trazado 923637" d="M24.888,42.49h5.7a.837.837,0,0,1,.835.835V54.489a.837.837,0,0,1-.835.835h-5.7a.837.837,0,0,1-.835-.835V43.325A.837.837,0,0,1,24.888,42.49Z" fill="#fc685b" fill-rule="evenodd"/>
          <path id="Trazado_923638" data-name="Trazado 923638" d="M37.755,28.266h5.7a.837.837,0,0,1,.835.835V54.49a.837.837,0,0,1-.835.835h-5.7a.837.837,0,0,1-.835-.835V29.1A.837.837,0,0,1,37.755,28.266Z" fill="#72d561" fill-rule="evenodd"/>
          <path id="Trazado_923639" data-name="Trazado 923639" d="M50.622,34.383h5.7a.837.837,0,0,1,.835.835V54.49a.837.837,0,0,1-.835.835h-5.7a.837.837,0,0,1-.835-.835V35.218A.837.837,0,0,1,50.622,34.383Z" fill="#ffda2d" fill-rule="evenodd"/>
          <path id="Trazado_923640" data-name="Trazado 923640" d="M63.49,22.5h5.7a.837.837,0,0,1,.835.835V54.489a.837.837,0,0,1-.835.835h-5.7a.837.837,0,0,1-.835-.835V23.338a.837.837,0,0,1,.835-.835Z" fill="#64b5f6" fill-rule="evenodd"/>
          <path id="Trazado_923641" data-name="Trazado 923641" d="M66.338,16.178a2.517,2.517,0,1,0-2.517-2.517A2.522,2.522,0,0,0,66.338,16.178Z" fill="#64b5f6" fill-rule="evenodd"/>
          <path id="Trazado_923642" data-name="Trazado 923642" d="M53.471,28.058a2.517,2.517,0,1,0-2.517-2.517,2.522,2.522,0,0,0,2.517,2.517Z" fill="#ffda2d" fill-rule="evenodd"/>
          <path id="Trazado_923643" data-name="Trazado 923643" d="M40.6,19.436a2.517,2.517,0,1,0-2.517-2.517A2.522,2.522,0,0,0,40.6,19.436Z" fill="#72d561" fill-rule="evenodd"/>
          <path id="Trazado_923644" data-name="Trazado 923644" d="M27.737,36.165a2.517,2.517,0,1,0-2.517-2.517A2.522,2.522,0,0,0,27.737,36.165Z" fill="#ffda2d" fill-rule="evenodd"/>
        </g>
      </g>
      <path id="Trazado_923645" data-name="Trazado 923645" d="M68.911,54.21H63.77V23.616h5.141Zm1.114-32.822H62.656A1.113,1.113,0,0,0,61.542,22.5V55.323a1.113,1.113,0,0,0,1.114,1.114h7.368a1.114,1.114,0,0,0,1.114-1.114V22.5A1.114,1.114,0,0,0,70.024,21.388ZM43.176,54.21H38.035V29.379h5.141Zm-10.64-7.945V44.624A12.054,12.054,0,0,0,35.807,42.5v1.967a13.339,13.339,0,0,1-3.271,1.8ZM30.309,54.21H25.168V43.6h5.141ZM14.244,33.646a13.493,13.493,0,0,0,8.7,12.615V44.624A11.979,11.979,0,1,1,34.125,23.516l.938-1.22a13.514,13.514,0,0,0-20.819,11.35Zm1.582,12.8-.892-.892,1.249-1.249q.428.464.891.893Zm-1.862,3.757L11.177,47.42l1.235-1.234L15.2,48.973ZM5.729,58.444l6.662-6.662L9.6,49,2.941,55.656a1.971,1.971,0,1,0,2.787,2.788ZM40.605,15.513a1.4,1.4,0,1,1-1.4,1.4A1.406,1.406,0,0,1,40.605,15.513ZM54.877,25.54a1.4,1.4,0,1,1-1.405-1.4A1.406,1.406,0,0,1,54.877,25.54ZM66.34,12.256a1.4,1.4,0,1,1-1.4,1.4A1.406,1.406,0,0,1,66.34,12.256Zm-37.2,21.391a1.4,1.4,0,1,1-1.4-1.4A1.406,1.406,0,0,1,29.143,33.646Zm3.345,8.518a1.113,1.113,0,0,0-1.065-.79H24.054a1.112,1.112,0,0,0-1.065.791,9.751,9.751,0,1,1,9.77-16.874l-3.8,4.937a3.64,3.64,0,1,0,1.764,1.359l3.8-4.939a9.719,9.719,0,0,1,1.286,1.528c0,.03,0,.059,0,.089V39.123a9.841,9.841,0,0,1-3.32,3.042Zm7.085-15.014H37.8a11.991,11.991,0,0,0-1.913-2.278l.937-1.219a13.452,13.452,0,0,1,2.744,3.5Zm4.717,0H42.057A15.664,15.664,0,0,0,38.182,21.9l1.2-1.56a3.623,3.623,0,0,0,3.473-.571l7.128,4.777a3.632,3.632,0,1,0,6.784-.526l7.792-7.193a3.63,3.63,0,1,0-1.512-1.636l-7.79,7.193a3.62,3.62,0,0,0-4.031.314L44.1,17.916a3.631,3.631,0,1,0-7.123-1,3.608,3.608,0,0,0,.643,2.059l-1.2,1.562A15.72,15.72,0,0,0,14.787,42.557L13.36,43.984l-.16-.16a1.114,1.114,0,0,0-1.576,0L1.366,54.081A4.2,4.2,0,0,0,7.3,60.019L17.561,49.761a1.112,1.112,0,0,0,0-1.575l-.16-.161L18.826,46.6A15.619,15.619,0,0,0,22.94,48.62v6.7a1.113,1.113,0,0,0,1.114,1.114h7.369a1.113,1.113,0,0,0,1.114-1.114v-6.7a15.5,15.5,0,0,0,3.271-1.479v8.18a1.113,1.113,0,0,0,1.114,1.114H44.29A1.113,1.113,0,0,0,45.4,55.323V28.265a1.114,1.114,0,0,0-1.113-1.114ZM56.043,54.21H50.9V35.5h5.141Zm1.114-20.941a1.113,1.113,0,0,1,1.114,1.114V55.323a1.113,1.113,0,0,1-1.114,1.114H49.789a1.113,1.113,0,0,1-1.114-1.114V34.382a1.113,1.113,0,0,1,1.114-1.114Z" fill-rule="evenodd"/>
    </g>
  </g>
</svg>
