<svg xmlns="http://www.w3.org/2000/svg" width="74" height="74" viewBox="0 0 74 74">
  <g id="img34" transform="translate(-356.051 -3302)">
    <circle id="Elipse_11521" data-name="Elipse 11521" cx="37" cy="37" r="37" transform="translate(356.051 3302)" fill="#b0dcad"/>
    <g id="mecanico" transform="translate(339.311 3308)">
      <path id="Trazado_913390" data-name="Trazado 913390" d="M130.137,87.1h-19.46a1.418,1.418,0,0,1-1.416-1.416V84.646a1.418,1.418,0,0,1,1.416-1.416h19.46a1.418,1.418,0,0,1,1.416,1.416v1.039A1.419,1.419,0,0,1,130.137,87.1Zm-19.46-2.712a.256.256,0,0,0-.256.256v1.039a.256.256,0,0,0,.256.256h19.46a.256.256,0,0,0,.256-.256V84.646a.256.256,0,0,0-.256-.256Z" transform="translate(-69.411 -69.155)" fill="#692cb7"/>
      <path id="Trazado_913391" data-name="Trazado 913391" d="M240.59,220.883a.58.58,0,0,1-.58-.58V216.36a.58.58,0,1,1,1.16,0V220.3A.58.58,0,0,1,240.59,220.883Z" transform="translate(-184.993 -186.328)" fill="#692cb7"/>
      <path id="Trazado_913392" data-name="Trazado 913392" d="M161.25,220.874a.58.58,0,0,1-.58-.58V216.35a.58.58,0,1,1,1.16,0v3.944A.58.58,0,0,1,161.25,220.874Z" transform="translate(-114.857 -186.319)" fill="#692cb7"/>
      <g id="Grupo_1102177" data-name="Grupo 1102177" transform="translate(30.74 35.621)">
        <path id="Trazado_913393" data-name="Trazado 913393" d="M73.089,289.382H31.32a.58.58,0,0,1-.58-.58v-9.879a8.213,8.213,0,0,1,5.51-7.751l6.26-2.18a.58.58,0,1,1,.382,1.1l-6.26,2.18a7.051,7.051,0,0,0-4.731,6.655v9.3H73.09a.58.58,0,1,1,0,1.16Z" transform="translate(-30.74 -268.959)" fill="#692cb7"/>
        <path id="Trazado_913394" data-name="Trazado 913394" d="M280.267,273.066a.576.576,0,0,1-.311-.09,7.122,7.122,0,0,0-1.472-.712l-6.261-2.181a.58.58,0,1,1,.382-1.1l6.261,2.18a8.256,8.256,0,0,1,1.713.829.581.581,0,0,1-.312,1.071Z" transform="translate(-243.865 -268.954)" fill="#692cb7"/>
      </g>
      <path id="Trazado_913395" data-name="Trazado 913395" d="M165.857,263.786a.58.58,0,0,1-.546-.385l-4.6-12.86a.58.58,0,1,1,1.092-.391l4.6,12.86a.58.58,0,0,1-.35.741A.547.547,0,0,1,165.857,263.786Z" transform="translate(-114.862 -216.371)" fill="#692cb7"/>
      <path id="Trazado_913396" data-name="Trazado 913396" d="M200.925,263.8a.57.57,0,0,1-.195-.034.58.58,0,0,1-.35-.741l4.6-12.86a.58.58,0,0,1,1.092.391l-4.6,12.86A.581.581,0,0,1,200.925,263.8Z" transform="translate(-149.93 -216.38)" fill="#692cb7"/>
      <path id="Trazado_913397" data-name="Trazado 913397" d="M190.076,63.927a.58.58,0,0,1-.58-.58V61.24H187.38v2.107a.58.58,0,0,1-1.16,0V60.66a.58.58,0,0,1,.58-.58h3.276a.58.58,0,0,1,.58.58v2.687A.58.58,0,0,1,190.076,63.927Z" transform="translate(-137.443 -48.69)" fill="#692cb7"/>
      <path id="Trazado_913398" data-name="Trazado 913398" d="M137.194,121.814a8.955,8.955,0,0,1-8.944-8.944v-5.68a.58.58,0,1,1,1.16,0v5.68a7.784,7.784,0,1,0,15.568,0v-5.68a.58.58,0,0,1,1.16,0v5.68A8.955,8.955,0,0,1,137.194,121.814Z" transform="translate(-86.198 -89.822)" fill="#692cb7"/>
      <path id="Trazado_913399" data-name="Trazado 913399" d="M161.26,24.775a.58.58,0,0,1-.58-.58V16.37a.58.58,0,0,1,1.16,0v7.825A.58.58,0,0,1,161.26,24.775Z" transform="translate(-114.866 -9.538)" fill="#692cb7"/>
      <path id="Trazado_913400" data-name="Trazado 913400" d="M240.59,24.784a.58.58,0,0,1-.58-.58V16.38a.58.58,0,0,1,1.16,0V24.2A.58.58,0,0,1,240.59,24.784Z" transform="translate(-184.993 -9.547)" fill="#692cb7"/>
      <path id="Trazado_913401" data-name="Trazado 913401" d="M140.851,15.235a.58.58,0,0,1-.58-.58,8.5,8.5,0,1,0-16.991,0,.58.58,0,1,1-1.16,0,9.655,9.655,0,1,1,19.311,0A.58.58,0,0,1,140.851,15.235Z" transform="translate(-80.779 0)" fill="#692cb7"/>
      <path id="Trazado_913402" data-name="Trazado 913402" d="M129.412,253.157a.58.58,0,0,1-.3-1.077l3.694-2.226a.58.58,0,1,1,.6.993l-3.694,2.226A.569.569,0,0,1,129.412,253.157Z" transform="translate(-86.711 -216.375)" fill="#692cb7"/>
      <path id="Trazado_913403" data-name="Trazado 913403" d="M244.273,253.157a.576.576,0,0,1-.3-.083l-3.693-2.226a.58.58,0,0,1,.6-.993l3.693,2.226a.58.58,0,0,1-.3,1.077Z" transform="translate(-184.984 -216.375)" fill="#692cb7"/>
      <path id="Trazado_913404" data-name="Trazado 913404" d="M129.42,277.521a.579.579,0,0,1-.58-.58V269.53a.58.58,0,0,1,1.16,0v6.427l5.1-2.819a.58.58,0,0,1,.56,1.016l-5.963,3.294A.559.559,0,0,1,129.42,277.521Z" transform="translate(-86.719 -233.329)" fill="#692cb7"/>
      <path id="Trazado_913405" data-name="Trazado 913405" d="M226.981,277.53a.588.588,0,0,1-.281-.072l-5.963-3.293a.58.58,0,0,1,.56-1.016l5.1,2.819V269.54a.58.58,0,0,1,1.16,0v7.411a.577.577,0,0,1-.579.579Z" transform="translate(-167.691 -233.338)" fill="#692cb7"/>
      <path id="Trazado_913406" data-name="Trazado 913406" d="M200.92,370.409a.58.58,0,0,1-.58-.58V361.2a.58.58,0,1,1,1.16,0v8.629A.58.58,0,0,1,200.92,370.409Z" transform="translate(-149.925 -314.365)" fill="#692cb7"/>
      <path id="Trazado_913407" data-name="Trazado 913407" d="M262.366,378.77H259.33a.58.58,0,0,1,0-1.16h3.036a.58.58,0,1,1,0,1.16Z" transform="translate(-201.559 -329.384)" fill="#692cb7"/>
      <path id="Trazado_913408" data-name="Trazado 913408" d="M119.366,378.77H116.33a.58.58,0,1,1,0-1.16h3.036a.58.58,0,1,1,0,1.16Z" transform="translate(-75.148 -329.384)" fill="#692cb7"/>
      <g id="Grupo_1102178" data-name="Grupo 1102178" transform="translate(36.359 47.31)">
        <path id="Trazado_913409" data-name="Trazado 913409" d="M79.76,378.444a.58.58,0,0,1-.58-.58V370.29a.58.58,0,1,1,1.16,0v7.574A.58.58,0,0,1,79.76,378.444Z" transform="translate(-79.18 -369.71)" fill="#692cb7"/>
        <path id="Trazado_913410" data-name="Trazado 913410" d="M322.09,378.444a.58.58,0,0,1-.58-.58V370.29a.58.58,0,1,1,1.16,0v7.574A.58.58,0,0,1,322.09,378.444Z" transform="translate(-293.398 -369.71)" fill="#692cb7"/>
      </g>
      <g id="Grupo_1102179" data-name="Grupo 1102179" transform="translate(66.562 34.486)">
        <path id="Trazado_913411" data-name="Trazado 913411" d="M346.057,280.729a.58.58,0,0,1-.58-.58V267.282a.578.578,0,0,1,.29-.5l1.853-1.07v-4l-1.651-.954v2.036a.577.577,0,0,1-.236.466l-1.234.912a.581.581,0,0,1-.689,0l-1.234-.912a.579.579,0,0,1-.236-.466v-2.036l-1.65.954v4l1.852,1.07a.578.578,0,0,1,.29.5v12.865a.58.58,0,1,1-1.16,0V267.616l-1.852-1.07a.578.578,0,0,1-.29-.5v-4.671a.578.578,0,0,1,.29-.5l2.8-1.62a.58.58,0,0,1,.876.5V262.5l.654.484.654-.484v-2.748a.58.58,0,0,1,.87-.5l2.811,1.623a.578.578,0,0,1,.29.5v4.671a.578.578,0,0,1-.29.5l-1.853,1.07v12.532A.58.58,0,0,1,346.057,280.729Z" transform="translate(-339.53 -259.171)" fill="#692cb7"/>
      </g>
      <g id="Grupo_1102182" data-name="Grupo 1102182" transform="translate(39.85 16.788)">
        <g id="Grupo_1102180" data-name="Grupo 1102180" transform="translate(0)">
          <path id="Trazado_913412" data-name="Trazado 913412" d="M112.052,112.22h-.474a2.377,2.377,0,0,1-2.307-2.435v-.741a2.362,2.362,0,0,1,2.248-2.434.58.58,0,0,1,.03,1.16,1.226,1.226,0,0,0-1.118,1.274v.741a1.218,1.218,0,0,0,1.147,1.275h.474a.58.58,0,0,1,0,1.16Z" transform="translate(-109.27 -106.609)" fill="#692cb7"/>
        </g>
        <g id="Grupo_1102181" data-name="Grupo 1102181" transform="translate(18.93 0.001)">
          <path id="Trazado_913413" data-name="Trazado 913413" d="M273.5,112.227h-.473a.58.58,0,1,1,0-1.16h.473a1.218,1.218,0,0,0,1.147-1.275v-.741a1.226,1.226,0,0,0-1.118-1.274.58.58,0,1,1,.032-1.159,2.363,2.363,0,0,1,2.246,2.434v.741A2.376,2.376,0,0,1,273.5,112.227Z" transform="translate(-272.45 -106.617)" fill="#692cb7"/>
        </g>
      </g>
      <path id="Trazado_913414" data-name="Trazado 913414" d="M178.975,292.761a11.206,11.206,0,0,1-3.041-.389.58.58,0,1,1,.321-1.115,10.945,10.945,0,0,0,5.44,0,.58.58,0,1,1,.321,1.115A11.221,11.221,0,0,1,178.975,292.761Z" transform="translate(-127.98 -253.029)" fill="#692cb7"/>
    </g>
  </g>
</svg>
