<svg xmlns="http://www.w3.org/2000/svg" xmlns:xlink="http://www.w3.org/1999/xlink" width="71" height="71" viewBox="0 0 71 71">
  <defs>
    <clipPath id="clip-path">
      <rect id="Rectángulo_403482" data-name="Rectángulo 403482" width="71" height="71" transform="translate(328.051 12036.125)" fill="#fff" stroke="#707070" stroke-width="1"/>
    </clipPath>
  </defs>
  <g id="img37" transform="translate(-328.051 -12036.125)" clip-path="url(#clip-path)">
    <g id="perdida" transform="translate(328.239 12035.986)">
      <g id="Grupo_1103727" data-name="Grupo 1103727">
        <g id="Grupo_1103724" data-name="Grupo 1103724">
          <path id="Trazado_923586" data-name="Trazado 923586" d="M64.674,7.391a2.842,2.842,0,0,1,2.837,2.837v56.96a2.842,2.842,0,0,1-2.837,2.837H17a2.842,2.842,0,0,1-2.837-2.837V10.228A2.842,2.842,0,0,1,17,7.391Z" fill="#da8c36" fill-rule="evenodd"/>
          <path id="Trazado_923587" data-name="Trazado 923587" d="M18.788,12.014V65.4H56.1l6.79-6.79v-46.6Z" fill="#eff4f7" fill-rule="evenodd"/>
          <path id="Trazado_923588" data-name="Trazado 923588" d="M56.1,58.612V65.4l6.79-6.79Z" fill="#e2e3e3" fill-rule="evenodd"/>
          <path id="Trazado_923589" data-name="Trazado 923589" d="M31.019,7.391h7.113l-2.83-4a1.353,1.353,0,0,1,1.106-2.137h8.861A1.353,1.353,0,0,1,46.375,3.39l-2.83,4h7.112a.555.555,0,0,1,.544.674l-.962,4.451a1.656,1.656,0,0,1-1.633,1.318H33.069a1.656,1.656,0,0,1-1.633-1.318l-.962-4.451a.555.555,0,0,1,.544-.674Z" fill="#8d9ca8" fill-rule="evenodd"/>
        </g>
        <path id="Trazado_923590" data-name="Trazado 923590" d="M55.641,31.36h2.042a.554.554,0,0,1,.439.894L53.991,37.6a.555.555,0,0,1-.878,0l-4.132-5.347a.554.554,0,0,1,.439-.894h2.042V17.438a.729.729,0,0,1,.727-.727h2.725a.729.729,0,0,1,.727.727Z" fill="#fc685b" fill-rule="evenodd"/>
        <path id="Trazado_923591" data-name="Trazado 923591" d="M42.787,25.165h2.042a.554.554,0,0,1,.439.894l-4.132,5.347a.555.555,0,0,1-.878,0l-4.132-5.347a.554.554,0,0,1,.439-.894h2.042V17.438a.728.728,0,0,1,.727-.727H42.06a.729.729,0,0,1,.727.727Z" fill="#fc685b" fill-rule="evenodd"/>
        <g id="Grupo_1103725" data-name="Grupo 1103725">
          <path id="Trazado_923592" data-name="Trazado 923592" d="M57.538,45.194H53.365a.7.7,0,0,0-.7.7v8.123a.7.7,0,0,0,.7.7h4.172a.7.7,0,0,0,.7-.7V45.9A.7.7,0,0,0,57.538,45.194Z" fill="#fc685b" fill-rule="evenodd"/>
          <path id="Trazado_923593" data-name="Trazado 923593" d="M47.8,40.087H43.623a.7.7,0,0,0-.7.7v13.23a.7.7,0,0,0,.7.7H47.8a.7.7,0,0,0,.7-.7V40.79A.7.7,0,0,0,47.8,40.087Z" fill="#ffda2d" fill-rule="evenodd"/>
          <path id="Trazado_923594" data-name="Trazado 923594" d="M38.053,34.98H33.88a.7.7,0,0,0-.7.7V54.021a.7.7,0,0,0,.7.7h4.172a.7.7,0,0,0,.7-.7V35.683a.7.7,0,0,0-.7-.7Z" fill="#72d561" fill-rule="evenodd"/>
          <path id="Trazado_923595" data-name="Trazado 923595" d="M28.31,29.873H24.138a.7.7,0,0,0-.7.7V54.021a.7.7,0,0,0,.7.7H28.31a.7.7,0,0,0,.7-.7V30.576a.7.7,0,0,0-.7-.7Z" fill="#64b5f6" fill-rule="evenodd"/>
        </g>
        <g id="Grupo_1103726" data-name="Grupo 1103726">
          <ellipse id="Elipse_11580" data-name="Elipse 11580" cx="14.042" cy="14.042" rx="14.042" ry="14.042" transform="matrix(0.991, -0.135, 0.135, 0.991, 1.999, 16.498)" fill="#ffda2d"/>
          <circle id="Elipse_11581" data-name="Elipse 11581" cx="10.734" cy="10.734" r="10.734" transform="translate(7.073 17.777)" fill="#fdb800"/>
        </g>
      </g>
      <path id="Trazado_923596" data-name="Trazado 923596" d="M17.807,36.006a1.115,1.115,0,0,1-1.114-1.114v-.863A3.363,3.363,0,0,1,14.638,32.7a1.114,1.114,0,1,1,1.806-1.3,1.127,1.127,0,0,0,.909.469h.7a1.122,1.122,0,1,0,0-2.243h-.5a3.349,3.349,0,0,1-.865-6.584v-.909a1.114,1.114,0,0,1,2.228,0v.862a3.371,3.371,0,0,1,2.055,1.325,1.114,1.114,0,0,1-1.806,1.306,1.125,1.125,0,0,0-.909-.469h-.7a1.121,1.121,0,1,0,0,2.243h.5a3.349,3.349,0,0,1,.865,6.585v.909a1.114,1.114,0,0,1-1.113,1.114Zm-9.62-7.494a9.62,9.62,0,1,0,9.62-9.621A9.631,9.631,0,0,0,8.187,28.511Zm21.468,0A11.847,11.847,0,1,0,17.807,40.359,11.861,11.861,0,0,0,29.654,28.511ZM40.7,30.153,37.7,26.278h.9a1.115,1.115,0,0,0,1.114-1.114V17.825h1.95v7.339a1.114,1.114,0,0,0,1.114,1.114h.9Zm1.32,1.935,4.132-5.347a1.669,1.669,0,0,0-1.32-2.69H43.9V17.439a1.842,1.842,0,0,0-1.84-1.84H39.335a1.842,1.842,0,0,0-1.84,1.84v6.613h-.928a1.668,1.668,0,0,0-1.321,2.69l4.131,5.347a1.671,1.671,0,0,0,2.642,0Zm10.558-.727V17.825h1.951V31.361a1.115,1.115,0,0,0,1.114,1.114h.9l-2.993,3.873-2.995-3.873h.905a1.115,1.115,0,0,0,1.114-1.114ZM50.348,17.439V30.247H49.42a1.668,1.668,0,0,0-1.32,2.688l4.131,5.347a1.668,1.668,0,0,0,2.641,0L59,32.936a1.668,1.668,0,0,0-1.32-2.688h-.928V17.439a1.843,1.843,0,0,0-1.842-1.84H52.189a1.843,1.843,0,0,0-1.841,1.84ZM47.384,53.611H44.034V41.2h3.351ZM48.5,38.974H42.92a1.114,1.114,0,0,0-1.114,1.114V54.724a1.114,1.114,0,0,0,1.114,1.114H48.5a1.113,1.113,0,0,0,1.114-1.114V40.087A1.114,1.114,0,0,0,48.5,38.974Zm8.628,14.637H53.776v-7.3h3.351Zm1.114-9.529H52.662a1.113,1.113,0,0,0-1.114,1.114v9.529a1.113,1.113,0,0,0,1.114,1.114h5.578a1.113,1.113,0,0,0,1.114-1.114V45.195A1.113,1.113,0,0,0,58.241,44.081Zm-20.6,9.529H34.292V36.094h3.351Zm1.114-19.743H33.177a1.113,1.113,0,0,0-1.114,1.114V54.724a1.114,1.114,0,0,0,1.114,1.114h5.578a1.113,1.113,0,0,0,1.114-1.114V34.981A1.113,1.113,0,0,0,38.756,33.867ZM66.4,67.188V10.228A1.725,1.725,0,0,0,64.674,8.5H52.246l-.518,2.4H62.889A1.114,1.114,0,0,1,64,12.014v46.6a1.116,1.116,0,0,1-.328.788l-6.789,6.79a1.115,1.115,0,0,1-.788.326H18.787A1.114,1.114,0,0,1,17.673,65.4V43.664a15.32,15.32,0,0,1-2.395-.21V67.188A1.725,1.725,0,0,0,17,68.912H64.674A1.725,1.725,0,0,0,66.4,67.188ZM4.881,28.511A12.926,12.926,0,1,0,17.807,15.586,12.941,12.941,0,0,0,4.881,28.511Zm10.4-18.283A1.725,1.725,0,0,1,17,8.5H29.43l.517,2.4H18.787a1.114,1.114,0,0,0-1.114,1.114v1.345a15.072,15.072,0,0,0-2.395.211ZM38.131,8.5a1.113,1.113,0,0,0,.909-1.757l-2.829-4a.239.239,0,0,1,.2-.38h8.861a.239.239,0,0,1,.2.38l-2.829,4A1.113,1.113,0,0,0,43.545,8.5h6.422l-.816,3.775a.541.541,0,0,1-.544.44H33.069a.54.54,0,0,1-.544-.44L31.709,8.5ZM24.549,42.079A15.2,15.2,0,0,0,27.9,39.8V53.61H24.549ZM60.2,59.727l-2.988,2.988V59.727ZM61.775,57.5V13.128H51.217a2.761,2.761,0,0,1-2.61,1.82H33.069a2.763,2.763,0,0,1-2.611-1.82H19.9V13.5A15.145,15.145,0,0,1,30.128,37.324v17.4a1.114,1.114,0,0,1-1.114,1.114H23.435a1.114,1.114,0,0,1-1.114-1.114V42.979a15.169,15.169,0,0,1-2.421.542V64.289H54.984V58.612A1.113,1.113,0,0,1,56.1,57.5Zm2.9-51.221H45.7l1.587-2.244A2.467,2.467,0,0,0,45.268.139H36.407a2.467,2.467,0,0,0-2.014,3.894L35.98,6.278H17a3.955,3.955,0,0,0-3.951,3.951v3.894a15.154,15.154,0,0,0,0,28.777V67.188A3.955,3.955,0,0,0,17,71.139H64.674a3.955,3.955,0,0,0,3.951-3.951V10.228a3.955,3.955,0,0,0-3.951-3.951Z" fill-rule="evenodd"/>
    </g>
  </g>
</svg>
