<svg xmlns="http://www.w3.org/2000/svg" xmlns:xlink="http://www.w3.org/1999/xlink" width="71" height="71" viewBox="0 0 71 71">
  <defs>
    <clipPath id="clip-path">
      <rect id="Rectángulo_403470" data-name="Rectángulo 403470" width="71" height="71" transform="translate(328.051 10300)" fill="#fff" stroke="#707070" stroke-width="1"/>
    </clipPath>
  </defs>
  <g id="img32" transform="translate(-328.051 -10300)" clip-path="url(#clip-path)">
    <g id="lan2" transform="translate(328.051 10300)">
      <g id="Grupo_1103721" data-name="Grupo 1103721">
        <path id="Trazado_923571" data-name="Trazado 923571" d="M30.251,1.41H2.446a.909.909,0,0,0-.9.914v19.21a.91.91,0,0,0,.9.914H30.251a.91.91,0,0,0,.9-.914V2.324a.909.909,0,0,0-.9-.914Z" fill="#bfdbff"/>
        <path id="Trazado_923572" data-name="Trazado 923572" d="M30.251,1.41H2.446a.879.879,0,0,0-.9.851V16.669H31.156V2.261a.879.879,0,0,0-.9-.851Z" fill="#ffe6b4"/>
        <path id="Trazado_923573" data-name="Trazado 923573" d="M13.249,23.282l-2.287,4.962H21.735l-2.287-4.962Z" fill="#bfdbff"/>
        <path id="Trazado_923574" data-name="Trazado 923574" d="M68.554,1.41H40.749a.909.909,0,0,0-.9.914v19.21a.91.91,0,0,0,.9.914H68.554a.91.91,0,0,0,.9-.914V2.324a.909.909,0,0,0-.9-.914Z" fill="#bfdbff"/>
        <path id="Trazado_923575" data-name="Trazado 923575" d="M68.554,1.41H40.749a.879.879,0,0,0-.9.851V16.669H69.459V2.261a.879.879,0,0,0-.9-.851Z" fill="#7dd9c2"/>
        <path id="Trazado_923576" data-name="Trazado 923576" d="M51.552,23.282l-2.287,4.962H60.038l-2.287-4.962Z" fill="#bfdbff"/>
        <path id="Trazado_923577" data-name="Trazado 923577" d="M40.368,69.59H25.793a4.058,4.058,0,0,1-4.058-4.058v-.016a4.058,4.058,0,0,1,4.058-4.058H40.368a4.058,4.058,0,0,1,4.058,4.058v.016A4.058,4.058,0,0,1,40.368,69.59Z" fill="#80b6ff"/>
        <path id="Trazado_923578" data-name="Trazado 923578" d="M31.733,9.551h7.742v5.705H31.733Z" fill="#ff7d97"/>
      </g>
      <g id="Grupo_1103722" data-name="Grupo 1103722">
        <circle id="Elipse_11576" data-name="Elipse 11576" cx="1.387" cy="1.387" r="1.387" transform="matrix(1, -0.026, 0.026, 1, 34.07, 30.379)"/>
        <circle id="Elipse_11577" data-name="Elipse 11577" cx="1.39" cy="1.39" r="1.39" transform="matrix(0.54, -0.842, 0.842, 0.54, 33.989, 65.943)"/>
        <circle id="Elipse_11578" data-name="Elipse 11578" cx="1.39" cy="1.39" r="1.39" transform="matrix(0.54, -0.842, 0.842, 0.54, 29.82, 65.945)"/>
        <circle id="Elipse_11579" data-name="Elipse 11579" cx="1.39" cy="1.39" r="1.39" transform="matrix(0.54, -0.842, 0.842, 0.54, 38.158, 65.943)"/>
        <path id="Trazado_923579" data-name="Trazado 923579" d="M21.4,38.945a1.385,1.385,0,0,0,.982-.407A18.86,18.86,0,0,1,29.75,33.96a1.389,1.389,0,1,0-.889-2.633,21.621,21.621,0,0,0-8.44,5.245,1.389,1.389,0,0,0,.983,2.372Z"/>
        <path id="Trazado_923580" data-name="Trazado 923580" d="M42.15,31.085a1.389,1.389,0,0,0-.792,2.664,19.087,19.087,0,0,1,8.031,4.788,1.389,1.389,0,0,0,1.965-1.965,21.873,21.873,0,0,0-9.2-5.487Z"/>
        <path id="Trazado_923581" data-name="Trazado 923581" d="M24.713,40.864a1.389,1.389,0,1,0,1.965,1.965,13.04,13.04,0,0,1,18.42,0,1.389,1.389,0,1,0,1.965-1.965,15.822,15.822,0,0,0-22.35,0Z"/>
        <path id="Trazado_923582" data-name="Trazado 923582" d="M43.211,46.68a1.389,1.389,0,0,0,0-1.965,10.368,10.368,0,0,0-14.647,0A1.389,1.389,0,1,0,30.53,46.68a7.586,7.586,0,0,1,10.717,0,1.389,1.389,0,0,0,1.965,0Z"/>
        <path id="Trazado_923583" data-name="Trazado 923583" d="M31.285,49.3a1.389,1.389,0,0,0,1.965,1.965,3.734,3.734,0,0,1,5.275,0A1.389,1.389,0,0,0,40.49,49.3a6.516,6.516,0,0,0-9.2,0Z"/>
        <path id="Trazado_923584" data-name="Trazado 923584" d="M40.36,60.069H37.277V54.363a1.389,1.389,0,1,0-2.779,0v5.707H25.8a5.455,5.455,0,1,0,0,10.91H40.36a5.455,5.455,0,0,0,0-10.91Zm0,8.131H25.8a2.676,2.676,0,0,1,0-5.352H40.36a2.676,2.676,0,0,1,0,5.352Z"/>
        <path id="Trazado_923585" data-name="Trazado 923585" d="M68.7.021H40.607a2.306,2.306,0,0,0-2.3,2.3v5.84H32.7V2.324a2.306,2.306,0,0,0-2.3-2.3H2.3A2.306,2.306,0,0,0,0,2.324v19.21a2.306,2.306,0,0,0,2.3,2.3h8.949L9.675,27.721a1.39,1.39,0,0,0,1.287,1.912H21.735a1.39,1.39,0,0,0,1.287-1.912l-1.578-3.883h8.949a2.306,2.306,0,0,0,2.3-2.3V16.519H38.3v5.015a2.306,2.306,0,0,0,2.3,2.3h8.949l-1.578,3.883a1.39,1.39,0,0,0,1.287,1.912H60.039a1.39,1.39,0,0,0,1.287-1.912l-1.578-3.883H68.7a2.306,2.306,0,0,0,2.3-2.3V2.324a2.306,2.306,0,0,0-2.3-2.3ZM13.026,26.854l1.226-3.017h4.194l1.226,3.017Zm16.892-5.8H2.779v-3H29.918Zm0-5.779H2.779V2.8H29.918ZM32.7,13.746V10.938H38.3v2.808ZM51.329,26.854l1.226-3.017h4.194l1.226,3.017Zm16.892-5.8H41.082v-3H68.221v3Zm0-5.779H41.082V2.8H68.221V15.28Z"/>
      </g>
    </g>
  </g>
</svg>
