<svg id="img6" xmlns="http://www.w3.org/2000/svg" xmlns:xlink="http://www.w3.org/1999/xlink" width="198.672" height="196.345" viewBox="0 0 198.672 196.345">
  <defs>
    <clipPath id="clip-path">
      <rect id="Rectángulo_404173" data-name="Rectángulo 404173" width="198.672" height="196.345" fill="none"/>
    </clipPath>
    <clipPath id="clip-path-3">
      <rect id="Rectángulo_404158" data-name="Rectángulo 404158" width="45.397" height="119.256" fill="none"/>
    </clipPath>
  </defs>
  <g id="Grupo_1103124" data-name="Grupo 1103124" clip-path="url(#clip-path)">
    <g id="Grupo_1103123" data-name="Grupo 1103123">
      <g id="Grupo_1103122" data-name="Grupo 1103122" clip-path="url(#clip-path)">
        <path id="Trazado_920529" data-name="Trazado 920529" d="M69.884,770.151c0,3.259,31.091,5.9,69.444,5.9s69.444-2.642,69.444-5.9-31.091-5.9-69.444-5.9-69.444,2.642-69.444,5.9" transform="translate(-53.009 -579.707)" fill="#c3aae2" style="mix-blend-mode: multiply;isolation: isolate"/>
        <rect id="Rectángulo_404135" data-name="Rectángulo 404135" width="81.858" height="186.946" transform="translate(57.45)" fill="#6a6a6a"/>
        <path id="Trazado_920530" data-name="Trazado 920530" d="M319.775,0V186.946H237.917l79.479-2.157Z" transform="translate(-180.467)" fill="#4e4f56"/>
        <rect id="Rectángulo_404136" data-name="Rectángulo 404136" width="60.483" height="164.454" transform="translate(68.5 11.431)" fill="#0d232b"/>
        <rect id="Rectángulo_404137" data-name="Rectángulo 404137" width="11.073" height="3.441" transform="translate(68.5 31.342)" fill="#2d1e66"/>
        <rect id="Rectángulo_404138" data-name="Rectángulo 404138" width="11.431" height="3.441" transform="translate(117.553 31.342)" fill="#2d1e66"/>
        <rect id="Rectángulo_404139" data-name="Rectángulo 404139" width="11.431" height="3.442" transform="translate(117.553 55.187)" fill="#2d1e66"/>
        <rect id="Rectángulo_404140" data-name="Rectángulo 404140" width="11.431" height="3.442" transform="translate(117.553 79.031)" fill="#2d1e66"/>
        <rect id="Rectángulo_404141" data-name="Rectángulo 404141" width="11.431" height="3.441" transform="translate(117.553 102.876)" fill="#2d1e66"/>
        <rect id="Rectángulo_404142" data-name="Rectángulo 404142" width="11.073" height="3.442" transform="translate(117.911 126.72)" fill="#2d1e66"/>
        <rect id="Rectángulo_404143" data-name="Rectángulo 404143" width="11.073" height="3.441" transform="translate(117.911 150.565)" fill="#2d1e66"/>
        <rect id="Rectángulo_404144" data-name="Rectángulo 404144" width="11.073" height="3.442" transform="translate(68.5 55.187)" fill="#2d1e66"/>
        <rect id="Rectángulo_404145" data-name="Rectángulo 404145" width="11.073" height="3.442" transform="translate(68.5 79.031)" fill="#2d1e66"/>
        <rect id="Rectángulo_404146" data-name="Rectángulo 404146" width="11.073" height="3.441" transform="translate(68.5 102.876)" fill="#2d1e66"/>
        <rect id="Rectángulo_404147" data-name="Rectángulo 404147" width="11.431" height="3.442" transform="translate(68.501 126.72)" fill="#2d1e66"/>
        <rect id="Rectángulo_404148" data-name="Rectángulo 404148" width="11.431" height="3.441" transform="translate(68.501 150.565)" fill="#2d1e66"/>
        <rect id="Rectángulo_404149" data-name="Rectángulo 404149" width="60.483" height="13.274" transform="translate(68.5 162.61)" fill="#6265a8"/>
        <path id="Trazado_920531" data-name="Trazado 920531" d="M301.791,684.486a1.905,1.905,0,1,1-1.905-1.905,1.905,1.905,0,0,1,1.905,1.905" transform="translate(-226.028 -517.758)" fill="#2d1e66"/>
        <path id="Trazado_920532" data-name="Trazado 920532" d="M323.679,684.486a1.905,1.905,0,1,1-1.905-1.905,1.906,1.906,0,0,1,1.905,1.905" transform="translate(-242.63 -517.758)" fill="#2d1e66"/>
        <path id="Trazado_920533" data-name="Trazado 920533" d="M345.565,684.486a1.905,1.905,0,1,1-1.905-1.905,1.905,1.905,0,0,1,1.905,1.905" transform="translate(-259.232 -517.758)" fill="#2d1e66"/>
        <path id="Trazado_920534" data-name="Trazado 920534" d="M367.452,684.486a1.905,1.905,0,1,1-1.9-1.905,1.905,1.905,0,0,1,1.9,1.905" transform="translate(-275.834 -517.758)" fill="#2d1e66"/>
        <path id="Trazado_920535" data-name="Trazado 920535" d="M389.341,684.486a1.905,1.905,0,1,1-1.905-1.905,1.905,1.905,0,0,1,1.905,1.905" transform="translate(-292.437 -517.758)" fill="#2d1e66"/>
        <path id="Trazado_920536" data-name="Trazado 920536" d="M411.227,684.486a1.905,1.905,0,1,1-1.905-1.905,1.905,1.905,0,0,1,1.905,1.905" transform="translate(-309.038 -517.758)" fill="#2d1e66"/>
        <path id="Trazado_920537" data-name="Trazado 920537" d="M433.115,684.486a1.9,1.9,0,1,1-1.9-1.905,1.905,1.905,0,0,1,1.9,1.905" transform="translate(-325.641 -517.758)" fill="#2d1e66"/>
        <path id="Trazado_920538" data-name="Trazado 920538" d="M455,684.486a1.9,1.9,0,1,1-1.905-1.905A1.905,1.905,0,0,1,455,684.486" transform="translate(-342.244 -517.758)" fill="#2d1e66"/>
        <path id="Trazado_920539" data-name="Trazado 920539" d="M476.889,684.486a1.905,1.905,0,1,1-1.905-1.905,1.905,1.905,0,0,1,1.905,1.905" transform="translate(-358.845 -517.758)" fill="#2d1e66"/>
        <path id="Trazado_920540" data-name="Trazado 920540" d="M498.777,684.486a1.905,1.905,0,1,1-1.905-1.905,1.905,1.905,0,0,1,1.905,1.905" transform="translate(-375.448 -517.758)" fill="#2d1e66"/>
        <path id="Trazado_920541" data-name="Trazado 920541" d="M301.791,704.846a1.905,1.905,0,1,1-1.905-1.905,1.905,1.905,0,0,1,1.905,1.905" transform="translate(-226.028 -533.202)" fill="#2d1e66"/>
        <path id="Trazado_920542" data-name="Trazado 920542" d="M323.679,704.846a1.905,1.905,0,1,1-1.905-1.905,1.905,1.905,0,0,1,1.905,1.905" transform="translate(-242.63 -533.202)" fill="#2d1e66"/>
        <path id="Trazado_920543" data-name="Trazado 920543" d="M345.565,704.846a1.905,1.905,0,1,1-1.905-1.905,1.905,1.905,0,0,1,1.905,1.905" transform="translate(-259.232 -533.202)" fill="#2d1e66"/>
        <path id="Trazado_920544" data-name="Trazado 920544" d="M367.452,704.846a1.905,1.905,0,1,1-1.9-1.905,1.9,1.9,0,0,1,1.9,1.905" transform="translate(-275.834 -533.202)" fill="#2d1e66"/>
        <path id="Trazado_920545" data-name="Trazado 920545" d="M389.341,704.846a1.905,1.905,0,1,1-1.905-1.905,1.905,1.905,0,0,1,1.905,1.905" transform="translate(-292.437 -533.202)" fill="#2d1e66"/>
        <path id="Trazado_920546" data-name="Trazado 920546" d="M411.227,704.846a1.905,1.905,0,1,1-1.905-1.905,1.905,1.905,0,0,1,1.905,1.905" transform="translate(-309.038 -533.202)" fill="#2d1e66"/>
        <path id="Trazado_920547" data-name="Trazado 920547" d="M433.115,704.846a1.9,1.9,0,1,1-1.9-1.905,1.9,1.9,0,0,1,1.9,1.905" transform="translate(-325.641 -533.202)" fill="#2d1e66"/>
        <path id="Trazado_920548" data-name="Trazado 920548" d="M455,704.846a1.9,1.9,0,1,1-1.905-1.905A1.905,1.905,0,0,1,455,704.846" transform="translate(-342.244 -533.202)" fill="#2d1e66"/>
        <path id="Trazado_920549" data-name="Trazado 920549" d="M476.889,704.846a1.905,1.905,0,1,1-1.905-1.905,1.905,1.905,0,0,1,1.905,1.905" transform="translate(-358.845 -533.202)" fill="#2d1e66"/>
        <path id="Trazado_920550" data-name="Trazado 920550" d="M498.777,704.846a1.905,1.905,0,1,1-1.905-1.905,1.905,1.905,0,0,1,1.905,1.905" transform="translate(-375.448 -533.202)" fill="#2d1e66"/>
        <rect id="Rectángulo_404150" data-name="Rectángulo 404150" width="57.399" height="8.358" transform="translate(69.679 14.626)" fill="#a4d6c9"/>
        <rect id="Rectángulo_404151" data-name="Rectángulo 404151" width="57.399" height="8.358" transform="translate(69.679 22.984)" fill="#a4d6c9"/>
        <rect id="Rectángulo_404152" data-name="Rectángulo 404152" width="18.437" height="3.687" transform="translate(71.646 16.593)" fill="#2d1e66"/>
        <rect id="Rectángulo_404153" data-name="Rectángulo 404153" width="18.437" height="3.687" transform="translate(71.646 25.32)" fill="#2d1e66"/>
        <path id="Trazado_920551" data-name="Trazado 920551" d="M418.383,98.7a.584.584,0,1,1-.584-.584.584.584,0,0,1,.584.584" transform="translate(-316.471 -74.421)" fill="#2d1e66"/>
        <path id="Trazado_920552" data-name="Trazado 920552" d="M427.036,98.7a.584.584,0,1,1-.584-.584.584.584,0,0,1,.584.584" transform="translate(-323.034 -74.421)" fill="#2d1e66"/>
        <path id="Trazado_920553" data-name="Trazado 920553" d="M435.69,98.7a.584.584,0,1,1-.584-.584.584.584,0,0,1,.584.584" transform="translate(-329.598 -74.421)" fill="#2d1e66"/>
        <path id="Trazado_920554" data-name="Trazado 920554" d="M444.343,98.7a.584.584,0,1,1-.584-.584.584.584,0,0,1,.584.584" transform="translate(-336.162 -74.421)" fill="#2d1e66"/>
        <path id="Trazado_920555" data-name="Trazado 920555" d="M453,98.7a.584.584,0,1,1-.584-.584A.584.584,0,0,1,453,98.7" transform="translate(-342.725 -74.421)" fill="#2d1e66"/>
        <path id="Trazado_920556" data-name="Trazado 920556" d="M461.649,98.7a.584.584,0,1,1-.584-.584.584.584,0,0,1,.584.584" transform="translate(-349.289 -74.421)" fill="#2d1e66"/>
        <path id="Trazado_920557" data-name="Trazado 920557" d="M470.3,98.7a.584.584,0,1,1-.584-.584.584.584,0,0,1,.584.584" transform="translate(-355.853 -74.421)" fill="#2d1e66"/>
        <path id="Trazado_920558" data-name="Trazado 920558" d="M478.956,98.7a.584.584,0,1,1-.584-.584.584.584,0,0,1,.584.584" transform="translate(-362.417 -74.421)" fill="#2d1e66"/>
        <path id="Trazado_920559" data-name="Trazado 920559" d="M487.608,98.7a.584.584,0,1,1-.584-.584.584.584,0,0,1,.584.584" transform="translate(-368.98 -74.421)" fill="#2d1e66"/>
        <path id="Trazado_920560" data-name="Trazado 920560" d="M418.383,105.44a.584.584,0,1,1-.584-.584.584.584,0,0,1,.584.584" transform="translate(-316.471 -79.536)" fill="#2d1e66"/>
        <path id="Trazado_920561" data-name="Trazado 920561" d="M427.036,105.44a.584.584,0,1,1-.584-.584.584.584,0,0,1,.584.584" transform="translate(-323.034 -79.536)" fill="#2d1e66"/>
        <path id="Trazado_920562" data-name="Trazado 920562" d="M435.69,105.44a.584.584,0,1,1-.584-.584.584.584,0,0,1,.584.584" transform="translate(-329.598 -79.536)" fill="#2d1e66"/>
        <path id="Trazado_920563" data-name="Trazado 920563" d="M444.343,105.44a.584.584,0,1,1-.584-.584.584.584,0,0,1,.584.584" transform="translate(-336.162 -79.536)" fill="#2d1e66"/>
        <path id="Trazado_920564" data-name="Trazado 920564" d="M453,105.44a.584.584,0,1,1-.584-.584.584.584,0,0,1,.584.584" transform="translate(-342.725 -79.536)" fill="#2d1e66"/>
        <path id="Trazado_920565" data-name="Trazado 920565" d="M461.649,105.44a.584.584,0,1,1-.584-.584.584.584,0,0,1,.584.584" transform="translate(-349.289 -79.536)" fill="#2d1e66"/>
        <path id="Trazado_920566" data-name="Trazado 920566" d="M470.3,105.44a.584.584,0,1,1-.584-.584.584.584,0,0,1,.584.584" transform="translate(-355.853 -79.536)" fill="#2d1e66"/>
        <path id="Trazado_920567" data-name="Trazado 920567" d="M478.956,105.44a.584.584,0,1,1-.584-.584.584.584,0,0,1,.584.584" transform="translate(-362.417 -79.536)" fill="#2d1e66"/>
        <path id="Trazado_920568" data-name="Trazado 920568" d="M487.608,105.44a.584.584,0,1,1-.584-.584.584.584,0,0,1,.584.584" transform="translate(-368.98 -79.536)" fill="#2d1e66"/>
        <path id="Trazado_920569" data-name="Trazado 920569" d="M418.383,112.185a.584.584,0,1,1-.584-.584.584.584,0,0,1,.584.584" transform="translate(-316.471 -84.653)" fill="#2d1e66"/>
        <path id="Trazado_920570" data-name="Trazado 920570" d="M427.036,112.185a.584.584,0,1,1-.584-.584.584.584,0,0,1,.584.584" transform="translate(-323.034 -84.653)" fill="#2d1e66"/>
        <path id="Trazado_920571" data-name="Trazado 920571" d="M435.69,112.185a.584.584,0,1,1-.584-.584.584.584,0,0,1,.584.584" transform="translate(-329.598 -84.653)" fill="#2d1e66"/>
        <path id="Trazado_920572" data-name="Trazado 920572" d="M444.343,112.185a.584.584,0,1,1-.584-.584.584.584,0,0,1,.584.584" transform="translate(-336.162 -84.653)" fill="#2d1e66"/>
        <path id="Trazado_920573" data-name="Trazado 920573" d="M453,112.185a.584.584,0,1,1-.584-.584.584.584,0,0,1,.584.584" transform="translate(-342.725 -84.653)" fill="#2d1e66"/>
        <path id="Trazado_920574" data-name="Trazado 920574" d="M461.649,112.185a.584.584,0,1,1-.584-.584.584.584,0,0,1,.584.584" transform="translate(-349.289 -84.653)" fill="#2d1e66"/>
        <path id="Trazado_920575" data-name="Trazado 920575" d="M470.3,112.185a.584.584,0,1,1-.584-.584.584.584,0,0,1,.584.584" transform="translate(-355.853 -84.653)" fill="#2d1e66"/>
        <path id="Trazado_920576" data-name="Trazado 920576" d="M478.956,112.185a.584.584,0,1,1-.584-.584.584.584,0,0,1,.584.584" transform="translate(-362.417 -84.653)" fill="#2d1e66"/>
        <path id="Trazado_920577" data-name="Trazado 920577" d="M487.608,112.185a.584.584,0,1,1-.584-.584.584.584,0,0,1,.584.584" transform="translate(-368.98 -84.653)" fill="#2d1e66"/>
        <path id="Trazado_920578" data-name="Trazado 920578" d="M418.383,118.929a.584.584,0,1,1-.584-.584.584.584,0,0,1,.584.584" transform="translate(-316.471 -89.768)" fill="#2d1e66"/>
        <path id="Trazado_920579" data-name="Trazado 920579" d="M427.036,118.929a.584.584,0,1,1-.584-.584.584.584,0,0,1,.584.584" transform="translate(-323.034 -89.768)" fill="#2d1e66"/>
        <path id="Trazado_920580" data-name="Trazado 920580" d="M435.69,118.929a.584.584,0,1,1-.584-.584.584.584,0,0,1,.584.584" transform="translate(-329.598 -89.768)" fill="#2d1e66"/>
        <path id="Trazado_920581" data-name="Trazado 920581" d="M444.343,118.929a.584.584,0,1,1-.584-.584.584.584,0,0,1,.584.584" transform="translate(-336.162 -89.768)" fill="#2d1e66"/>
        <path id="Trazado_920582" data-name="Trazado 920582" d="M453,118.929a.584.584,0,1,1-.584-.584.584.584,0,0,1,.584.584" transform="translate(-342.725 -89.768)" fill="#2d1e66"/>
        <path id="Trazado_920583" data-name="Trazado 920583" d="M461.649,118.929a.584.584,0,1,1-.584-.584.584.584,0,0,1,.584.584" transform="translate(-349.289 -89.768)" fill="#2d1e66"/>
        <path id="Trazado_920584" data-name="Trazado 920584" d="M470.3,118.929a.584.584,0,1,1-.584-.584.584.584,0,0,1,.584.584" transform="translate(-355.853 -89.768)" fill="#2d1e66"/>
        <path id="Trazado_920585" data-name="Trazado 920585" d="M478.956,118.929a.584.584,0,1,1-.584-.584.584.584,0,0,1,.584.584" transform="translate(-362.417 -89.768)" fill="#2d1e66"/>
        <path id="Trazado_920586" data-name="Trazado 920586" d="M487.608,118.929a.584.584,0,1,1-.584-.584.584.584,0,0,1,.584.584" transform="translate(-368.98 -89.768)" fill="#2d1e66"/>
        <path id="Trazado_920587" data-name="Trazado 920587" d="M418.383,65.929a.584.584,0,1,1-.584-.584.584.584,0,0,1,.584.584" transform="translate(-316.471 -49.566)" fill="#2d1e66"/>
        <path id="Trazado_920588" data-name="Trazado 920588" d="M427.036,65.929a.584.584,0,1,1-.584-.584.584.584,0,0,1,.584.584" transform="translate(-323.034 -49.566)" fill="#2d1e66"/>
        <path id="Trazado_920589" data-name="Trazado 920589" d="M435.69,65.929a.584.584,0,1,1-.584-.584.584.584,0,0,1,.584.584" transform="translate(-329.598 -49.566)" fill="#2d1e66"/>
        <path id="Trazado_920590" data-name="Trazado 920590" d="M444.343,65.929a.584.584,0,1,1-.584-.584.584.584,0,0,1,.584.584" transform="translate(-336.162 -49.566)" fill="#2d1e66"/>
        <path id="Trazado_920591" data-name="Trazado 920591" d="M453,65.929a.584.584,0,1,1-.584-.584.584.584,0,0,1,.584.584" transform="translate(-342.725 -49.566)" fill="#2d1e66"/>
        <path id="Trazado_920592" data-name="Trazado 920592" d="M461.649,65.929a.584.584,0,1,1-.584-.584.584.584,0,0,1,.584.584" transform="translate(-349.289 -49.566)" fill="#2d1e66"/>
        <path id="Trazado_920593" data-name="Trazado 920593" d="M470.3,65.929a.584.584,0,1,1-.584-.584.584.584,0,0,1,.584.584" transform="translate(-355.853 -49.566)" fill="#2d1e66"/>
        <path id="Trazado_920594" data-name="Trazado 920594" d="M478.956,65.929a.584.584,0,1,1-.584-.584.584.584,0,0,1,.584.584" transform="translate(-362.417 -49.566)" fill="#2d1e66"/>
        <path id="Trazado_920595" data-name="Trazado 920595" d="M487.608,65.929a.584.584,0,1,1-.584-.584.584.584,0,0,1,.584.584" transform="translate(-368.98 -49.566)" fill="#2d1e66"/>
        <path id="Trazado_920596" data-name="Trazado 920596" d="M418.383,72.673a.584.584,0,1,1-.584-.584.584.584,0,0,1,.584.584" transform="translate(-316.471 -54.682)" fill="#2d1e66"/>
        <path id="Trazado_920597" data-name="Trazado 920597" d="M427.036,72.673a.584.584,0,1,1-.584-.584.584.584,0,0,1,.584.584" transform="translate(-323.034 -54.682)" fill="#2d1e66"/>
        <path id="Trazado_920598" data-name="Trazado 920598" d="M435.69,72.673a.584.584,0,1,1-.584-.584.584.584,0,0,1,.584.584" transform="translate(-329.598 -54.682)" fill="#2d1e66"/>
        <path id="Trazado_920599" data-name="Trazado 920599" d="M444.343,72.673a.584.584,0,1,1-.584-.584.584.584,0,0,1,.584.584" transform="translate(-336.162 -54.682)" fill="#2d1e66"/>
        <path id="Trazado_920600" data-name="Trazado 920600" d="M453,72.673a.584.584,0,1,1-.584-.584.584.584,0,0,1,.584.584" transform="translate(-342.725 -54.682)" fill="#2d1e66"/>
        <path id="Trazado_920601" data-name="Trazado 920601" d="M461.649,72.673a.584.584,0,1,1-.584-.584.584.584,0,0,1,.584.584" transform="translate(-349.289 -54.682)" fill="#2d1e66"/>
        <path id="Trazado_920602" data-name="Trazado 920602" d="M470.3,72.673a.584.584,0,1,1-.584-.584.584.584,0,0,1,.584.584" transform="translate(-355.853 -54.682)" fill="#2d1e66"/>
        <path id="Trazado_920603" data-name="Trazado 920603" d="M478.956,72.673a.584.584,0,1,1-.584-.584.584.584,0,0,1,.584.584" transform="translate(-362.417 -54.682)" fill="#2d1e66"/>
        <path id="Trazado_920604" data-name="Trazado 920604" d="M487.608,72.673a.584.584,0,1,1-.584-.584.584.584,0,0,1,.584.584" transform="translate(-368.98 -54.682)" fill="#2d1e66"/>
        <path id="Trazado_920605" data-name="Trazado 920605" d="M418.383,79.417a.584.584,0,1,1-.584-.584.584.584,0,0,1,.584.584" transform="translate(-316.471 -59.797)" fill="#2d1e66"/>
        <path id="Trazado_920606" data-name="Trazado 920606" d="M427.036,79.417a.584.584,0,1,1-.584-.584.584.584,0,0,1,.584.584" transform="translate(-323.034 -59.797)" fill="#2d1e66"/>
        <path id="Trazado_920607" data-name="Trazado 920607" d="M435.69,79.417a.584.584,0,1,1-.584-.584.584.584,0,0,1,.584.584" transform="translate(-329.598 -59.797)" fill="#2d1e66"/>
        <path id="Trazado_920608" data-name="Trazado 920608" d="M444.343,79.417a.584.584,0,1,1-.584-.584.584.584,0,0,1,.584.584" transform="translate(-336.162 -59.797)" fill="#2d1e66"/>
        <path id="Trazado_920609" data-name="Trazado 920609" d="M453,79.417a.584.584,0,1,1-.584-.584.584.584,0,0,1,.584.584" transform="translate(-342.725 -59.797)" fill="#2d1e66"/>
        <path id="Trazado_920610" data-name="Trazado 920610" d="M461.649,79.417a.584.584,0,1,1-.584-.584.584.584,0,0,1,.584.584" transform="translate(-349.289 -59.797)" fill="#2d1e66"/>
        <path id="Trazado_920611" data-name="Trazado 920611" d="M470.3,79.417a.584.584,0,1,1-.584-.584.584.584,0,0,1,.584.584" transform="translate(-355.853 -59.797)" fill="#2d1e66"/>
        <path id="Trazado_920612" data-name="Trazado 920612" d="M478.956,79.417a.584.584,0,1,1-.584-.584.584.584,0,0,1,.584.584" transform="translate(-362.417 -59.797)" fill="#2d1e66"/>
        <path id="Trazado_920613" data-name="Trazado 920613" d="M487.608,79.417a.584.584,0,1,1-.584-.584.584.584,0,0,1,.584.584" transform="translate(-368.98 -59.797)" fill="#2d1e66"/>
        <path id="Trazado_920614" data-name="Trazado 920614" d="M418.383,86.161a.584.584,0,1,1-.584-.584.584.584,0,0,1,.584.584" transform="translate(-316.471 -64.913)" fill="#2d1e66"/>
        <path id="Trazado_920615" data-name="Trazado 920615" d="M427.036,86.161a.584.584,0,1,1-.584-.584.584.584,0,0,1,.584.584" transform="translate(-323.034 -64.913)" fill="#2d1e66"/>
        <path id="Trazado_920616" data-name="Trazado 920616" d="M435.69,86.161a.584.584,0,1,1-.584-.584.584.584,0,0,1,.584.584" transform="translate(-329.598 -64.913)" fill="#2d1e66"/>
        <path id="Trazado_920617" data-name="Trazado 920617" d="M444.343,86.161a.584.584,0,1,1-.584-.584.584.584,0,0,1,.584.584" transform="translate(-336.162 -64.913)" fill="#2d1e66"/>
        <path id="Trazado_920618" data-name="Trazado 920618" d="M453,86.161a.584.584,0,1,1-.584-.584.584.584,0,0,1,.584.584" transform="translate(-342.725 -64.913)" fill="#2d1e66"/>
        <path id="Trazado_920619" data-name="Trazado 920619" d="M461.649,86.161a.584.584,0,1,1-.584-.584.584.584,0,0,1,.584.584" transform="translate(-349.289 -64.913)" fill="#2d1e66"/>
        <path id="Trazado_920620" data-name="Trazado 920620" d="M470.3,86.161a.584.584,0,1,1-.584-.584.584.584,0,0,1,.584.584" transform="translate(-355.853 -64.913)" fill="#2d1e66"/>
        <path id="Trazado_920621" data-name="Trazado 920621" d="M478.956,86.161a.584.584,0,1,1-.584-.584.584.584,0,0,1,.584.584" transform="translate(-362.417 -64.913)" fill="#2d1e66"/>
        <path id="Trazado_920622" data-name="Trazado 920622" d="M487.608,86.161a.584.584,0,1,1-.584-.584.584.584,0,0,1,.584.584" transform="translate(-368.98 -64.913)" fill="#2d1e66"/>
        <rect id="Rectángulo_404154" data-name="Rectángulo 404154" width="11.754" height="1.628" transform="translate(72.245 17.407)" fill="lime"/>
        <rect id="Rectángulo_404155" data-name="Rectángulo 404155" width="11.754" height="1.629" transform="translate(72.245 26.349)" fill="lime"/>
        <path id="Trazado_920623" data-name="Trazado 920623" d="M288.564,68.93h57.4V60.573l-.661,7.206Z" transform="translate(-218.884 -45.946)" fill="#381a3f"/>
        <rect id="Rectángulo_404156" data-name="Rectángulo 404156" width="59.364" height="186.946" transform="translate(139.308)" fill="#797a7f"/>
        <rect id="Rectángulo_404157" data-name="Rectángulo 404157" width="45.397" height="164.822" transform="translate(146.291 11.062)" fill="#535660"/>
        <g id="Grupo_1103121" data-name="Grupo 1103121" transform="translate(146.291 46.896)" opacity="0.41">
          <g id="Grupo_1103120" data-name="Grupo 1103120">
            <g id="Grupo_1103119" data-name="Grupo 1103119" clip-path="url(#clip-path-3)">
              <path id="Trazado_920624" data-name="Trazado 920624" d="M651.235,194.212l-45.4,57.571V270.84l45.4-57.571Z" transform="translate(-605.838 -194.212)" fill="#7e8599"/>
              <path id="Trazado_920625" data-name="Trazado 920625" d="M651.235,406.128l-45.4,50.446v17.639l45.4-50.446Z" transform="translate(-605.838 -354.957)" fill="#7e8599"/>
            </g>
          </g>
        </g>
        <path id="Trazado_920626" data-name="Trazado 920626" d="M303.15,297.659l-.736-.045c.013-.21.968-14.457,6.563-26.191-7.572-5.91-12.31-14.16-11.555-20.967a21.167,21.167,0,0,1,6.888-13.147c-7.009-8.982,4.823-23.52,4.948-23.672l.569.47c-.121.146-11.534,14.173-4.971,22.7,10.357-9.246,24.8-9.4,24.279-3.967-.521,5.4-16.889,13.355-24.351,5.034a20.444,20.444,0,0,0-6.629,12.662c-.724,6.532,3.842,14.468,11.151,20.21,2.611-5.259,6.185-9.939,11.065-12.509,16.238-8.551,36.718,1.526,20.3,15.845-8.979,7.828-21.609,4.908-31.1-2.211-5.459,11.546-6.4,25.579-6.415,25.786m6.74-26.461c9.194,6.938,21.544,9.957,30.291,2.33,15.772-13.753-4.1-22.732-19.467-14.637-4.773,2.514-8.269,7.123-10.824,12.307m-4.564-33.822c8.16,9.13,28.047-2.882,21.941-6.518-3.014-1.794-9.255-.99-15.176,1.956a31.158,31.158,0,0,0-6.765,4.562" transform="translate(-225.544 -162.051)" fill="red"/>
        <path id="Trazado_920627" data-name="Trazado 920627" d="M353.431,292.5l-.7-.24c.148-.43,12.133-35.437,11.618-52.94-5.818,6.285-19.086,12.9-27.955,9.862-2.581-.885-4.014-2.3-4.259-4.21-.72-5.6,9.024-13.305,11.673-15.061,5.3-3.51,12.97-5.247,18.628.411,1.453,1.453,2.236,3.959,2.522,7.156a15.572,15.572,0,0,0,3.548-8.815c.988-18.3-15.788-23.344-15.957-23.393l.2-.708c.176.05,17.51,5.247,16.491,24.141a16.606,16.606,0,0,1-4.208,9.845c.931,17.335-10.991,52.173-11.606,53.953m-9.212-61.975c-5.334,3.536-17.495,14.562-7.583,17.959,8.564,2.936,21.984-3.662,27.668-10.213-.207-3.362-.938-5.978-2.386-7.427-4.989-4.988-11.834-4.206-17.7-.318" transform="translate(-251.908 -155.161)" fill="#39b54a"/>
        <path id="Trazado_920628" data-name="Trazado 920628" d="M202.036,292.956c-.41-.16-41.177-16.265-49.741-37.309-4.589-11.275,1.625-20.638,12.429-24.949,3.275-15.027,25.031-23.591,25.269-23.683l.265.688c-.23.09-21.176,8.336-24.705,22.679,6.868-2.5,14.162-2.2,17.57,1.2,5.932,5.931-5.184,13.994-13.036,11.891-5.136-1.376-6.406-6.7-5.529-11.921-10.015,4.215-15.956,13.062-11.58,23.813,8.447,20.753,48.919,36.741,49.326,36.9ZM165.365,231.23c-.959,4.938-.011,10.215,4.912,11.533,6.976,1.872,17.7-5.282,12.324-10.657-3.3-3.3-10.505-3.467-17.236-.876" transform="translate(-114.361 -157.027)" fill="#39b54a"/>
        <path id="Trazado_920629" data-name="Trazado 920629" d="M407.526,306.363l-.676-.3c.126-.287,12.557-28.908,10.142-45.683a22.215,22.215,0,0,0-1.619-5.776c-8.909,5.293-25.982-.088-23.119-6.631,3.268-7.474,17.634-6.314,23.432,5.55,3.623-2.545,4.926-6.865,3.769-12.566-4.549-22.4-33.721-19.462-34.013-19.429l-.081-.733c.3-.032,30.134-3.048,34.817,20.015,1.52,7.487-1.248,11.384-4.175,13.391a22.948,22.948,0,0,1,1.72,6.073c2.444,16.983-10.07,45.8-10.2,46.084m-14.6-58.091c-2.421,5.541,13.342,10.7,21.893,5.8q.121-.07.24-.141c-5.457-11.294-19.088-12.623-22.133-5.662" transform="translate(-292.309 -167.372)" fill="red"/>
        <rect id="Rectángulo_404159" data-name="Rectángulo 404159" width="57.399" height="8.358" transform="translate(69.679 38.471)" fill="#a4d6c9"/>
        <rect id="Rectángulo_404160" data-name="Rectángulo 404160" width="57.399" height="8.358" transform="translate(69.679 46.829)" fill="#a4d6c9"/>
        <rect id="Rectángulo_404161" data-name="Rectángulo 404161" width="18.437" height="3.687" transform="translate(71.646 40.437)" fill="#2d1e66"/>
        <rect id="Rectángulo_404162" data-name="Rectángulo 404162" width="18.437" height="3.687" transform="translate(71.646 49.164)" fill="#2d1e66"/>
        <path id="Trazado_920630" data-name="Trazado 920630" d="M418.383,197.443a.584.584,0,1,1-.584-.584.584.584,0,0,1,.584.584" transform="translate(-316.471 -149.324)" fill="#2d1e66"/>
        <path id="Trazado_920631" data-name="Trazado 920631" d="M427.036,197.443a.584.584,0,1,1-.584-.584.584.584,0,0,1,.584.584" transform="translate(-323.034 -149.324)" fill="#2d1e66"/>
        <path id="Trazado_920632" data-name="Trazado 920632" d="M435.69,197.443a.584.584,0,1,1-.584-.584.584.584,0,0,1,.584.584" transform="translate(-329.598 -149.324)" fill="#2d1e66"/>
        <path id="Trazado_920633" data-name="Trazado 920633" d="M444.343,197.443a.584.584,0,1,1-.584-.584.584.584,0,0,1,.584.584" transform="translate(-336.162 -149.324)" fill="#2d1e66"/>
        <path id="Trazado_920634" data-name="Trazado 920634" d="M453,197.443a.584.584,0,1,1-.584-.584.584.584,0,0,1,.584.584" transform="translate(-342.725 -149.324)" fill="#2d1e66"/>
        <path id="Trazado_920635" data-name="Trazado 920635" d="M461.649,197.443a.584.584,0,1,1-.584-.584.584.584,0,0,1,.584.584" transform="translate(-349.289 -149.324)" fill="#2d1e66"/>
        <path id="Trazado_920636" data-name="Trazado 920636" d="M470.3,197.443a.584.584,0,1,1-.584-.584.584.584,0,0,1,.584.584" transform="translate(-355.853 -149.324)" fill="#2d1e66"/>
        <path id="Trazado_920637" data-name="Trazado 920637" d="M478.956,197.443a.584.584,0,1,1-.584-.584.584.584,0,0,1,.584.584" transform="translate(-362.417 -149.324)" fill="#2d1e66"/>
        <path id="Trazado_920638" data-name="Trazado 920638" d="M487.608,197.443a.584.584,0,1,1-.584-.584.584.584,0,0,1,.584.584" transform="translate(-368.98 -149.324)" fill="#2d1e66"/>
        <path id="Trazado_920639" data-name="Trazado 920639" d="M418.383,204.188a.584.584,0,1,1-.584-.584.584.584,0,0,1,.584.584" transform="translate(-316.471 -154.44)" fill="#2d1e66"/>
        <path id="Trazado_920640" data-name="Trazado 920640" d="M427.036,204.188a.584.584,0,1,1-.584-.584.584.584,0,0,1,.584.584" transform="translate(-323.034 -154.44)" fill="#2d1e66"/>
        <path id="Trazado_920641" data-name="Trazado 920641" d="M435.69,204.188a.584.584,0,1,1-.584-.584.584.584,0,0,1,.584.584" transform="translate(-329.598 -154.44)" fill="#2d1e66"/>
        <path id="Trazado_920642" data-name="Trazado 920642" d="M444.343,204.188a.584.584,0,1,1-.584-.584.584.584,0,0,1,.584.584" transform="translate(-336.162 -154.44)" fill="#2d1e66"/>
        <path id="Trazado_920643" data-name="Trazado 920643" d="M453,204.188a.584.584,0,1,1-.584-.584.584.584,0,0,1,.584.584" transform="translate(-342.725 -154.44)" fill="#2d1e66"/>
        <path id="Trazado_920644" data-name="Trazado 920644" d="M461.649,204.188a.584.584,0,1,1-.584-.584.584.584,0,0,1,.584.584" transform="translate(-349.289 -154.44)" fill="#2d1e66"/>
        <path id="Trazado_920645" data-name="Trazado 920645" d="M470.3,204.188a.584.584,0,1,1-.584-.584.584.584,0,0,1,.584.584" transform="translate(-355.853 -154.44)" fill="#2d1e66"/>
        <path id="Trazado_920646" data-name="Trazado 920646" d="M478.956,204.188a.584.584,0,1,1-.584-.584.584.584,0,0,1,.584.584" transform="translate(-362.417 -154.44)" fill="#2d1e66"/>
        <path id="Trazado_920647" data-name="Trazado 920647" d="M487.608,204.188a.584.584,0,1,1-.584-.584.584.584,0,0,1,.584.584" transform="translate(-368.98 -154.44)" fill="#2d1e66"/>
        <path id="Trazado_920648" data-name="Trazado 920648" d="M418.383,210.933a.584.584,0,1,1-.584-.584.584.584,0,0,1,.584.584" transform="translate(-316.471 -159.556)" fill="#2d1e66"/>
        <path id="Trazado_920649" data-name="Trazado 920649" d="M427.036,210.933a.584.584,0,1,1-.584-.584.584.584,0,0,1,.584.584" transform="translate(-323.034 -159.556)" fill="#2d1e66"/>
        <path id="Trazado_920650" data-name="Trazado 920650" d="M435.69,210.933a.584.584,0,1,1-.584-.584.584.584,0,0,1,.584.584" transform="translate(-329.598 -159.556)" fill="#2d1e66"/>
        <path id="Trazado_920651" data-name="Trazado 920651" d="M444.343,210.933a.584.584,0,1,1-.584-.584.584.584,0,0,1,.584.584" transform="translate(-336.162 -159.556)" fill="#2d1e66"/>
        <path id="Trazado_920652" data-name="Trazado 920652" d="M453,210.933a.584.584,0,1,1-.584-.584.584.584,0,0,1,.584.584" transform="translate(-342.725 -159.556)" fill="#2d1e66"/>
        <path id="Trazado_920653" data-name="Trazado 920653" d="M461.649,210.933a.584.584,0,1,1-.584-.584.584.584,0,0,1,.584.584" transform="translate(-349.289 -159.556)" fill="#2d1e66"/>
        <path id="Trazado_920654" data-name="Trazado 920654" d="M470.3,210.933a.584.584,0,1,1-.584-.584.584.584,0,0,1,.584.584" transform="translate(-355.853 -159.556)" fill="#2d1e66"/>
        <path id="Trazado_920655" data-name="Trazado 920655" d="M478.956,210.933a.584.584,0,1,1-.584-.584.584.584,0,0,1,.584.584" transform="translate(-362.417 -159.556)" fill="#2d1e66"/>
        <path id="Trazado_920656" data-name="Trazado 920656" d="M487.608,210.933a.584.584,0,1,1-.584-.584.584.584,0,0,1,.584.584" transform="translate(-368.98 -159.556)" fill="#2d1e66"/>
        <path id="Trazado_920657" data-name="Trazado 920657" d="M418.383,217.677a.584.584,0,1,1-.584-.584.584.584,0,0,1,.584.584" transform="translate(-316.471 -164.672)" fill="#2d1e66"/>
        <path id="Trazado_920658" data-name="Trazado 920658" d="M427.036,217.677a.584.584,0,1,1-.584-.584.584.584,0,0,1,.584.584" transform="translate(-323.034 -164.672)" fill="#2d1e66"/>
        <path id="Trazado_920659" data-name="Trazado 920659" d="M435.69,217.677a.584.584,0,1,1-.584-.584.584.584,0,0,1,.584.584" transform="translate(-329.598 -164.672)" fill="#2d1e66"/>
        <path id="Trazado_920660" data-name="Trazado 920660" d="M444.343,217.677a.584.584,0,1,1-.584-.584.584.584,0,0,1,.584.584" transform="translate(-336.162 -164.672)" fill="#2d1e66"/>
        <path id="Trazado_920661" data-name="Trazado 920661" d="M453,217.677a.584.584,0,1,1-.584-.584.584.584,0,0,1,.584.584" transform="translate(-342.725 -164.672)" fill="#2d1e66"/>
        <path id="Trazado_920662" data-name="Trazado 920662" d="M461.649,217.677a.584.584,0,1,1-.584-.584.584.584,0,0,1,.584.584" transform="translate(-349.289 -164.672)" fill="#2d1e66"/>
        <path id="Trazado_920663" data-name="Trazado 920663" d="M470.3,217.677a.584.584,0,1,1-.584-.584.584.584,0,0,1,.584.584" transform="translate(-355.853 -164.672)" fill="#2d1e66"/>
        <path id="Trazado_920664" data-name="Trazado 920664" d="M478.956,217.677a.584.584,0,1,1-.584-.584.584.584,0,0,1,.584.584" transform="translate(-362.417 -164.672)" fill="#2d1e66"/>
        <path id="Trazado_920665" data-name="Trazado 920665" d="M487.608,217.677a.584.584,0,1,1-.584-.584.584.584,0,0,1,.584.584" transform="translate(-368.98 -164.672)" fill="#2d1e66"/>
        <path id="Trazado_920666" data-name="Trazado 920666" d="M418.383,164.677a.584.584,0,1,1-.584-.584.584.584,0,0,1,.584.584" transform="translate(-316.471 -124.47)" fill="#2d1e66"/>
        <path id="Trazado_920667" data-name="Trazado 920667" d="M427.036,164.677a.584.584,0,1,1-.584-.584.584.584,0,0,1,.584.584" transform="translate(-323.034 -124.47)" fill="#2d1e66"/>
        <path id="Trazado_920668" data-name="Trazado 920668" d="M435.69,164.677a.584.584,0,1,1-.584-.584.584.584,0,0,1,.584.584" transform="translate(-329.598 -124.47)" fill="#2d1e66"/>
        <path id="Trazado_920669" data-name="Trazado 920669" d="M444.343,164.677a.584.584,0,1,1-.584-.584.584.584,0,0,1,.584.584" transform="translate(-336.162 -124.47)" fill="#2d1e66"/>
        <path id="Trazado_920670" data-name="Trazado 920670" d="M453,164.677a.584.584,0,1,1-.584-.584.584.584,0,0,1,.584.584" transform="translate(-342.725 -124.47)" fill="#2d1e66"/>
        <path id="Trazado_920671" data-name="Trazado 920671" d="M461.649,164.677a.584.584,0,1,1-.584-.584.584.584,0,0,1,.584.584" transform="translate(-349.289 -124.47)" fill="#2d1e66"/>
        <path id="Trazado_920672" data-name="Trazado 920672" d="M470.3,164.677a.584.584,0,1,1-.584-.584.584.584,0,0,1,.584.584" transform="translate(-355.853 -124.47)" fill="#2d1e66"/>
        <path id="Trazado_920673" data-name="Trazado 920673" d="M478.956,164.677a.584.584,0,1,1-.584-.584.584.584,0,0,1,.584.584" transform="translate(-362.417 -124.47)" fill="#2d1e66"/>
        <path id="Trazado_920674" data-name="Trazado 920674" d="M487.608,164.677a.584.584,0,1,1-.584-.584.584.584,0,0,1,.584.584" transform="translate(-368.98 -124.47)" fill="#2d1e66"/>
        <path id="Trazado_920675" data-name="Trazado 920675" d="M418.383,171.42a.584.584,0,1,1-.584-.584.584.584,0,0,1,.584.584" transform="translate(-316.471 -129.584)" fill="#2d1e66"/>
        <path id="Trazado_920676" data-name="Trazado 920676" d="M427.036,171.42a.584.584,0,1,1-.584-.584.584.584,0,0,1,.584.584" transform="translate(-323.034 -129.584)" fill="#2d1e66"/>
        <path id="Trazado_920677" data-name="Trazado 920677" d="M435.69,171.42a.584.584,0,1,1-.584-.584.584.584,0,0,1,.584.584" transform="translate(-329.598 -129.584)" fill="#2d1e66"/>
        <path id="Trazado_920678" data-name="Trazado 920678" d="M444.343,171.42a.584.584,0,1,1-.584-.584.584.584,0,0,1,.584.584" transform="translate(-336.162 -129.584)" fill="#2d1e66"/>
        <path id="Trazado_920679" data-name="Trazado 920679" d="M453,171.42a.584.584,0,1,1-.584-.584.584.584,0,0,1,.584.584" transform="translate(-342.725 -129.584)" fill="#2d1e66"/>
        <path id="Trazado_920680" data-name="Trazado 920680" d="M461.649,171.42a.584.584,0,1,1-.584-.584.584.584,0,0,1,.584.584" transform="translate(-349.289 -129.584)" fill="#2d1e66"/>
        <path id="Trazado_920681" data-name="Trazado 920681" d="M470.3,171.42a.584.584,0,1,1-.584-.584.584.584,0,0,1,.584.584" transform="translate(-355.853 -129.584)" fill="#2d1e66"/>
        <path id="Trazado_920682" data-name="Trazado 920682" d="M478.956,171.42a.584.584,0,1,1-.584-.584.584.584,0,0,1,.584.584" transform="translate(-362.417 -129.584)" fill="#2d1e66"/>
        <path id="Trazado_920683" data-name="Trazado 920683" d="M487.608,171.42a.584.584,0,1,1-.584-.584.584.584,0,0,1,.584.584" transform="translate(-368.98 -129.584)" fill="#2d1e66"/>
        <path id="Trazado_920684" data-name="Trazado 920684" d="M418.383,178.165a.584.584,0,1,1-.584-.584.584.584,0,0,1,.584.584" transform="translate(-316.471 -134.701)" fill="#2d1e66"/>
        <path id="Trazado_920685" data-name="Trazado 920685" d="M427.036,178.165a.584.584,0,1,1-.584-.584.584.584,0,0,1,.584.584" transform="translate(-323.034 -134.701)" fill="#2d1e66"/>
        <path id="Trazado_920686" data-name="Trazado 920686" d="M435.69,178.165a.584.584,0,1,1-.584-.584.584.584,0,0,1,.584.584" transform="translate(-329.598 -134.701)" fill="#2d1e66"/>
        <path id="Trazado_920687" data-name="Trazado 920687" d="M444.343,178.165a.584.584,0,1,1-.584-.584.584.584,0,0,1,.584.584" transform="translate(-336.162 -134.701)" fill="#2d1e66"/>
        <path id="Trazado_920688" data-name="Trazado 920688" d="M453,178.165a.584.584,0,1,1-.584-.584.584.584,0,0,1,.584.584" transform="translate(-342.725 -134.701)" fill="#2d1e66"/>
        <path id="Trazado_920689" data-name="Trazado 920689" d="M461.649,178.165a.584.584,0,1,1-.584-.584.584.584,0,0,1,.584.584" transform="translate(-349.289 -134.701)" fill="#2d1e66"/>
        <path id="Trazado_920690" data-name="Trazado 920690" d="M470.3,178.165a.584.584,0,1,1-.584-.584.584.584,0,0,1,.584.584" transform="translate(-355.853 -134.701)" fill="#2d1e66"/>
        <path id="Trazado_920691" data-name="Trazado 920691" d="M478.956,178.165a.584.584,0,1,1-.584-.584.584.584,0,0,1,.584.584" transform="translate(-362.417 -134.701)" fill="#2d1e66"/>
        <path id="Trazado_920692" data-name="Trazado 920692" d="M487.608,178.165a.584.584,0,1,1-.584-.584.584.584,0,0,1,.584.584" transform="translate(-368.98 -134.701)" fill="#2d1e66"/>
        <path id="Trazado_920693" data-name="Trazado 920693" d="M418.383,184.909a.584.584,0,1,1-.584-.584.584.584,0,0,1,.584.584" transform="translate(-316.471 -139.816)" fill="#2d1e66"/>
        <path id="Trazado_920694" data-name="Trazado 920694" d="M427.036,184.909a.584.584,0,1,1-.584-.584.584.584,0,0,1,.584.584" transform="translate(-323.034 -139.816)" fill="#2d1e66"/>
        <path id="Trazado_920695" data-name="Trazado 920695" d="M435.69,184.909a.584.584,0,1,1-.584-.584.584.584,0,0,1,.584.584" transform="translate(-329.598 -139.816)" fill="#2d1e66"/>
        <path id="Trazado_920696" data-name="Trazado 920696" d="M444.343,184.909a.584.584,0,1,1-.584-.584.584.584,0,0,1,.584.584" transform="translate(-336.162 -139.816)" fill="#2d1e66"/>
        <path id="Trazado_920697" data-name="Trazado 920697" d="M453,184.909a.584.584,0,1,1-.584-.584.584.584,0,0,1,.584.584" transform="translate(-342.725 -139.816)" fill="#2d1e66"/>
        <path id="Trazado_920698" data-name="Trazado 920698" d="M461.649,184.909a.584.584,0,1,1-.584-.584.584.584,0,0,1,.584.584" transform="translate(-349.289 -139.816)" fill="#2d1e66"/>
        <path id="Trazado_920699" data-name="Trazado 920699" d="M470.3,184.909a.584.584,0,1,1-.584-.584.584.584,0,0,1,.584.584" transform="translate(-355.853 -139.816)" fill="#2d1e66"/>
        <path id="Trazado_920700" data-name="Trazado 920700" d="M478.956,184.909a.584.584,0,1,1-.584-.584.584.584,0,0,1,.584.584" transform="translate(-362.417 -139.816)" fill="#2d1e66"/>
        <path id="Trazado_920701" data-name="Trazado 920701" d="M487.608,184.909a.584.584,0,1,1-.584-.584.584.584,0,0,1,.584.584" transform="translate(-368.98 -139.816)" fill="#2d1e66"/>
        <rect id="Rectángulo_404163" data-name="Rectángulo 404163" width="11.754" height="1.629" transform="translate(72.245 41.252)" fill="lime"/>
        <rect id="Rectángulo_404164" data-name="Rectángulo 404164" width="11.754" height="1.628" transform="translate(72.245 50.194)" fill="lime"/>
        <path id="Trazado_920702" data-name="Trazado 920702" d="M288.564,167.678h57.4v-8.358l-.661,7.206Z" transform="translate(-218.884 -120.85)" fill="#381a3f"/>
        <rect id="Rectángulo_404165" data-name="Rectángulo 404165" width="57.399" height="8.358" transform="translate(70.109 133.849)" fill="#a4d6c9"/>
        <rect id="Rectángulo_404166" data-name="Rectángulo 404166" width="57.399" height="8.358" transform="translate(70.109 142.207)" fill="#a4d6c9"/>
        <rect id="Rectángulo_404167" data-name="Rectángulo 404167" width="18.437" height="3.687" transform="translate(72.076 135.816)" fill="#2d1e66"/>
        <rect id="Rectángulo_404168" data-name="Rectángulo 404168" width="18.437" height="3.687" transform="translate(72.076 144.542)" fill="#2d1e66"/>
        <path id="Trazado_920703" data-name="Trazado 920703" d="M420.165,592.435a.584.584,0,1,1-.584-.584.584.584,0,0,1,.584.584" transform="translate(-317.822 -448.937)" fill="#2d1e66"/>
        <path id="Trazado_920704" data-name="Trazado 920704" d="M428.818,592.435a.584.584,0,1,1-.584-.584.584.584,0,0,1,.584.584" transform="translate(-324.386 -448.937)" fill="#2d1e66"/>
        <path id="Trazado_920705" data-name="Trazado 920705" d="M437.472,592.435a.584.584,0,1,1-.584-.584.584.584,0,0,1,.584.584" transform="translate(-330.95 -448.937)" fill="#2d1e66"/>
        <path id="Trazado_920706" data-name="Trazado 920706" d="M446.124,592.435a.584.584,0,1,1-.584-.584.584.584,0,0,1,.584.584" transform="translate(-337.513 -448.937)" fill="#2d1e66"/>
        <path id="Trazado_920707" data-name="Trazado 920707" d="M454.777,592.435a.584.584,0,1,1-.584-.584.584.584,0,0,1,.584.584" transform="translate(-344.076 -448.937)" fill="#2d1e66"/>
        <path id="Trazado_920708" data-name="Trazado 920708" d="M463.431,592.435a.584.584,0,1,1-.584-.584.584.584,0,0,1,.584.584" transform="translate(-350.641 -448.937)" fill="#2d1e66"/>
        <path id="Trazado_920709" data-name="Trazado 920709" d="M472.083,592.435a.584.584,0,1,1-.584-.584.584.584,0,0,1,.584.584" transform="translate(-357.204 -448.937)" fill="#2d1e66"/>
        <path id="Trazado_920710" data-name="Trazado 920710" d="M480.737,592.435a.584.584,0,1,1-.584-.584.584.584,0,0,1,.584.584" transform="translate(-363.768 -448.937)" fill="#2d1e66"/>
        <path id="Trazado_920711" data-name="Trazado 920711" d="M489.39,592.435a.584.584,0,1,1-.584-.584.584.584,0,0,1,.584.584" transform="translate(-370.331 -448.937)" fill="#2d1e66"/>
        <path id="Trazado_920712" data-name="Trazado 920712" d="M420.165,599.179a.584.584,0,1,1-.584-.584.584.584,0,0,1,.584.584" transform="translate(-317.822 -454.052)" fill="#2d1e66"/>
        <path id="Trazado_920713" data-name="Trazado 920713" d="M428.818,599.179a.584.584,0,1,1-.584-.584.584.584,0,0,1,.584.584" transform="translate(-324.386 -454.052)" fill="#2d1e66"/>
        <path id="Trazado_920714" data-name="Trazado 920714" d="M437.472,599.179a.584.584,0,1,1-.584-.584.584.584,0,0,1,.584.584" transform="translate(-330.95 -454.052)" fill="#2d1e66"/>
        <path id="Trazado_920715" data-name="Trazado 920715" d="M446.124,599.179a.584.584,0,1,1-.584-.584.584.584,0,0,1,.584.584" transform="translate(-337.513 -454.052)" fill="#2d1e66"/>
        <path id="Trazado_920716" data-name="Trazado 920716" d="M454.777,599.179a.584.584,0,1,1-.584-.584.584.584,0,0,1,.584.584" transform="translate(-344.076 -454.052)" fill="#2d1e66"/>
        <path id="Trazado_920717" data-name="Trazado 920717" d="M463.431,599.179a.584.584,0,1,1-.584-.584.584.584,0,0,1,.584.584" transform="translate(-350.641 -454.052)" fill="#2d1e66"/>
        <path id="Trazado_920718" data-name="Trazado 920718" d="M472.083,599.179a.584.584,0,1,1-.584-.584.584.584,0,0,1,.584.584" transform="translate(-357.204 -454.052)" fill="#2d1e66"/>
        <path id="Trazado_920719" data-name="Trazado 920719" d="M480.737,599.179a.584.584,0,1,1-.584-.584.584.584,0,0,1,.584.584" transform="translate(-363.768 -454.052)" fill="#2d1e66"/>
        <path id="Trazado_920720" data-name="Trazado 920720" d="M489.39,599.179a.584.584,0,1,1-.584-.584.584.584,0,0,1,.584.584" transform="translate(-370.331 -454.052)" fill="#2d1e66"/>
        <path id="Trazado_920721" data-name="Trazado 920721" d="M420.165,605.923a.584.584,0,1,1-.584-.584.584.584,0,0,1,.584.584" transform="translate(-317.822 -459.168)" fill="#2d1e66"/>
        <path id="Trazado_920722" data-name="Trazado 920722" d="M428.818,605.923a.584.584,0,1,1-.584-.584.584.584,0,0,1,.584.584" transform="translate(-324.386 -459.168)" fill="#2d1e66"/>
        <path id="Trazado_920723" data-name="Trazado 920723" d="M437.472,605.923a.584.584,0,1,1-.584-.584.584.584,0,0,1,.584.584" transform="translate(-330.95 -459.168)" fill="#2d1e66"/>
        <path id="Trazado_920724" data-name="Trazado 920724" d="M446.124,605.923a.584.584,0,1,1-.584-.584.584.584,0,0,1,.584.584" transform="translate(-337.513 -459.168)" fill="#2d1e66"/>
        <path id="Trazado_920725" data-name="Trazado 920725" d="M454.777,605.923a.584.584,0,1,1-.584-.584.584.584,0,0,1,.584.584" transform="translate(-344.076 -459.168)" fill="#2d1e66"/>
        <path id="Trazado_920726" data-name="Trazado 920726" d="M463.431,605.923a.584.584,0,1,1-.584-.584.584.584,0,0,1,.584.584" transform="translate(-350.641 -459.168)" fill="#2d1e66"/>
        <path id="Trazado_920727" data-name="Trazado 920727" d="M472.083,605.923a.584.584,0,1,1-.584-.584.584.584,0,0,1,.584.584" transform="translate(-357.204 -459.168)" fill="#2d1e66"/>
        <path id="Trazado_920728" data-name="Trazado 920728" d="M480.737,605.923a.584.584,0,1,1-.584-.584.584.584,0,0,1,.584.584" transform="translate(-363.768 -459.168)" fill="#2d1e66"/>
        <path id="Trazado_920729" data-name="Trazado 920729" d="M489.39,605.923a.584.584,0,1,1-.584-.584.584.584,0,0,1,.584.584" transform="translate(-370.331 -459.168)" fill="#2d1e66"/>
        <path id="Trazado_920730" data-name="Trazado 920730" d="M420.165,612.667a.584.584,0,1,1-.584-.584.584.584,0,0,1,.584.584" transform="translate(-317.822 -464.284)" fill="#2d1e66"/>
        <path id="Trazado_920731" data-name="Trazado 920731" d="M428.818,612.667a.584.584,0,1,1-.584-.584.584.584,0,0,1,.584.584" transform="translate(-324.386 -464.284)" fill="#2d1e66"/>
        <path id="Trazado_920732" data-name="Trazado 920732" d="M437.472,612.667a.584.584,0,1,1-.584-.584.584.584,0,0,1,.584.584" transform="translate(-330.95 -464.284)" fill="#2d1e66"/>
        <path id="Trazado_920733" data-name="Trazado 920733" d="M446.124,612.667a.584.584,0,1,1-.584-.584.584.584,0,0,1,.584.584" transform="translate(-337.513 -464.284)" fill="#2d1e66"/>
        <path id="Trazado_920734" data-name="Trazado 920734" d="M454.777,612.667a.584.584,0,1,1-.584-.584.584.584,0,0,1,.584.584" transform="translate(-344.076 -464.284)" fill="#2d1e66"/>
        <path id="Trazado_920735" data-name="Trazado 920735" d="M463.431,612.667a.584.584,0,1,1-.584-.584.584.584,0,0,1,.584.584" transform="translate(-350.641 -464.284)" fill="#2d1e66"/>
        <path id="Trazado_920736" data-name="Trazado 920736" d="M472.083,612.667a.584.584,0,1,1-.584-.584.584.584,0,0,1,.584.584" transform="translate(-357.204 -464.284)" fill="#2d1e66"/>
        <path id="Trazado_920737" data-name="Trazado 920737" d="M480.737,612.667a.584.584,0,1,1-.584-.584.584.584,0,0,1,.584.584" transform="translate(-363.768 -464.284)" fill="#2d1e66"/>
        <path id="Trazado_920738" data-name="Trazado 920738" d="M489.39,612.667a.584.584,0,1,1-.584-.584.584.584,0,0,1,.584.584" transform="translate(-370.331 -464.284)" fill="#2d1e66"/>
        <path id="Trazado_920739" data-name="Trazado 920739" d="M420.165,559.667a.584.584,0,1,1-.584-.584.584.584,0,0,1,.584.584" transform="translate(-317.822 -424.081)" fill="#2d1e66"/>
        <path id="Trazado_920740" data-name="Trazado 920740" d="M428.818,559.667a.584.584,0,1,1-.584-.584.584.584,0,0,1,.584.584" transform="translate(-324.386 -424.081)" fill="#2d1e66"/>
        <path id="Trazado_920741" data-name="Trazado 920741" d="M437.472,559.667a.584.584,0,1,1-.584-.584.584.584,0,0,1,.584.584" transform="translate(-330.95 -424.081)" fill="#2d1e66"/>
        <path id="Trazado_920742" data-name="Trazado 920742" d="M446.124,559.667a.584.584,0,1,1-.584-.584.584.584,0,0,1,.584.584" transform="translate(-337.513 -424.081)" fill="#2d1e66"/>
        <path id="Trazado_920743" data-name="Trazado 920743" d="M454.777,559.667a.584.584,0,1,1-.584-.584.584.584,0,0,1,.584.584" transform="translate(-344.076 -424.081)" fill="#2d1e66"/>
        <path id="Trazado_920744" data-name="Trazado 920744" d="M463.431,559.667a.584.584,0,1,1-.584-.584.584.584,0,0,1,.584.584" transform="translate(-350.641 -424.081)" fill="#2d1e66"/>
        <path id="Trazado_920745" data-name="Trazado 920745" d="M472.083,559.667a.584.584,0,1,1-.584-.584.584.584,0,0,1,.584.584" transform="translate(-357.204 -424.081)" fill="#2d1e66"/>
        <path id="Trazado_920746" data-name="Trazado 920746" d="M480.737,559.667a.584.584,0,1,1-.584-.584.584.584,0,0,1,.584.584" transform="translate(-363.768 -424.081)" fill="#2d1e66"/>
        <path id="Trazado_920747" data-name="Trazado 920747" d="M489.39,559.667a.584.584,0,1,1-.584-.584.584.584,0,0,1,.584.584" transform="translate(-370.331 -424.081)" fill="#2d1e66"/>
        <path id="Trazado_920748" data-name="Trazado 920748" d="M420.165,566.411a.584.584,0,1,1-.584-.584.584.584,0,0,1,.584.584" transform="translate(-317.822 -429.197)" fill="#2d1e66"/>
        <path id="Trazado_920749" data-name="Trazado 920749" d="M428.818,566.411a.584.584,0,1,1-.584-.584.584.584,0,0,1,.584.584" transform="translate(-324.386 -429.197)" fill="#2d1e66"/>
        <path id="Trazado_920750" data-name="Trazado 920750" d="M437.472,566.411a.584.584,0,1,1-.584-.584.584.584,0,0,1,.584.584" transform="translate(-330.95 -429.197)" fill="#2d1e66"/>
        <path id="Trazado_920751" data-name="Trazado 920751" d="M446.124,566.411a.584.584,0,1,1-.584-.584.584.584,0,0,1,.584.584" transform="translate(-337.513 -429.197)" fill="#2d1e66"/>
        <path id="Trazado_920752" data-name="Trazado 920752" d="M454.777,566.411a.584.584,0,1,1-.584-.584.584.584,0,0,1,.584.584" transform="translate(-344.076 -429.197)" fill="#2d1e66"/>
        <path id="Trazado_920753" data-name="Trazado 920753" d="M463.431,566.411a.584.584,0,1,1-.584-.584.584.584,0,0,1,.584.584" transform="translate(-350.641 -429.197)" fill="#2d1e66"/>
        <path id="Trazado_920754" data-name="Trazado 920754" d="M472.083,566.411a.584.584,0,1,1-.584-.584.584.584,0,0,1,.584.584" transform="translate(-357.204 -429.197)" fill="#2d1e66"/>
        <path id="Trazado_920755" data-name="Trazado 920755" d="M480.737,566.411a.584.584,0,1,1-.584-.584.584.584,0,0,1,.584.584" transform="translate(-363.768 -429.197)" fill="#2d1e66"/>
        <path id="Trazado_920756" data-name="Trazado 920756" d="M489.39,566.411a.584.584,0,1,1-.584-.584.584.584,0,0,1,.584.584" transform="translate(-370.331 -429.197)" fill="#2d1e66"/>
        <path id="Trazado_920757" data-name="Trazado 920757" d="M420.165,573.155a.584.584,0,1,1-.584-.584.584.584,0,0,1,.584.584" transform="translate(-317.822 -434.313)" fill="#2d1e66"/>
        <path id="Trazado_920758" data-name="Trazado 920758" d="M428.818,573.155a.584.584,0,1,1-.584-.584.584.584,0,0,1,.584.584" transform="translate(-324.386 -434.313)" fill="#2d1e66"/>
        <path id="Trazado_920759" data-name="Trazado 920759" d="M437.472,573.155a.584.584,0,1,1-.584-.584.584.584,0,0,1,.584.584" transform="translate(-330.95 -434.313)" fill="#2d1e66"/>
        <path id="Trazado_920760" data-name="Trazado 920760" d="M446.124,573.155a.584.584,0,1,1-.584-.584.584.584,0,0,1,.584.584" transform="translate(-337.513 -434.313)" fill="#2d1e66"/>
        <path id="Trazado_920761" data-name="Trazado 920761" d="M454.777,573.155a.584.584,0,1,1-.584-.584.584.584,0,0,1,.584.584" transform="translate(-344.076 -434.313)" fill="#2d1e66"/>
        <path id="Trazado_920762" data-name="Trazado 920762" d="M463.431,573.155a.584.584,0,1,1-.584-.584.584.584,0,0,1,.584.584" transform="translate(-350.641 -434.313)" fill="#2d1e66"/>
        <path id="Trazado_920763" data-name="Trazado 920763" d="M472.083,573.155a.584.584,0,1,1-.584-.584.584.584,0,0,1,.584.584" transform="translate(-357.204 -434.313)" fill="#2d1e66"/>
        <path id="Trazado_920764" data-name="Trazado 920764" d="M480.737,573.155a.584.584,0,1,1-.584-.584.584.584,0,0,1,.584.584" transform="translate(-363.768 -434.313)" fill="#2d1e66"/>
        <path id="Trazado_920765" data-name="Trazado 920765" d="M489.39,573.155a.584.584,0,1,1-.584-.584.584.584,0,0,1,.584.584" transform="translate(-370.331 -434.313)" fill="#2d1e66"/>
        <path id="Trazado_920766" data-name="Trazado 920766" d="M420.165,579.9a.584.584,0,1,1-.584-.584.584.584,0,0,1,.584.584" transform="translate(-317.822 -439.429)" fill="#2d1e66"/>
        <path id="Trazado_920767" data-name="Trazado 920767" d="M428.818,579.9a.584.584,0,1,1-.584-.584.584.584,0,0,1,.584.584" transform="translate(-324.386 -439.429)" fill="#2d1e66"/>
        <path id="Trazado_920768" data-name="Trazado 920768" d="M437.472,579.9a.584.584,0,1,1-.584-.584.584.584,0,0,1,.584.584" transform="translate(-330.95 -439.429)" fill="#2d1e66"/>
        <path id="Trazado_920769" data-name="Trazado 920769" d="M446.124,579.9a.584.584,0,1,1-.584-.584.584.584,0,0,1,.584.584" transform="translate(-337.513 -439.429)" fill="#2d1e66"/>
        <path id="Trazado_920770" data-name="Trazado 920770" d="M454.777,579.9a.584.584,0,1,1-.584-.584.584.584,0,0,1,.584.584" transform="translate(-344.076 -439.429)" fill="#2d1e66"/>
        <path id="Trazado_920771" data-name="Trazado 920771" d="M463.431,579.9a.584.584,0,1,1-.584-.584.584.584,0,0,1,.584.584" transform="translate(-350.641 -439.429)" fill="#2d1e66"/>
        <path id="Trazado_920772" data-name="Trazado 920772" d="M472.083,579.9a.584.584,0,1,1-.584-.584.584.584,0,0,1,.584.584" transform="translate(-357.204 -439.429)" fill="#2d1e66"/>
        <path id="Trazado_920773" data-name="Trazado 920773" d="M480.737,579.9a.584.584,0,1,1-.584-.584.584.584,0,0,1,.584.584" transform="translate(-363.768 -439.429)" fill="#2d1e66"/>
        <path id="Trazado_920774" data-name="Trazado 920774" d="M489.39,579.9a.584.584,0,1,1-.584-.584.584.584,0,0,1,.584.584" transform="translate(-370.331 -439.429)" fill="#2d1e66"/>
        <rect id="Rectángulo_404169" data-name="Rectángulo 404169" width="11.754" height="1.628" transform="translate(72.675 136.63)" fill="lime"/>
        <rect id="Rectángulo_404170" data-name="Rectángulo 404170" width="11.754" height="1.628" transform="translate(72.675 145.572)" fill="lime"/>
        <path id="Trazado_920775" data-name="Trazado 920775" d="M290.345,562.669h57.4v-8.358l-.661,7.205Z" transform="translate(-220.235 -420.462)" fill="#381a3f"/>
        <path id="Trazado_920776" data-name="Trazado 920776" d="M116.268,475.763s7.525,55.168,9.082,61.024l.152,3.734,10.1-.427a2.23,2.23,0,0,0-1.8-1.171,9.7,9.7,0,0,1-4.909-2.078c-.828-.9-2.662-77.505-2.662-77.505l-12.542.53Z" transform="translate(-86.234 -348.423)" fill="#0c0c0d"/>
        <path id="Trazado_920777" data-name="Trazado 920777" d="M98.333,464.376l-1.393,8.962s-12.079,48.738-10.779,65.536c0,0,1.264,1.944,5.484,2.948.227.054.7,1.288.7,1.288H81.234l.476-3.412s-1.983-57.259-2.255-63.925a94.372,94.372,0,0,1,1.13-15.417l18.255-.772Z" transform="translate(-60.243 -348.609)" fill="#2a417f"/>
        <path id="Trazado_920778" data-name="Trazado 920778" d="M147.312,285.232s8.547,5.408,7.71,6.244c-.545.546-3.172,5.475-4.431,6.661a39.462,39.462,0,0,1-3.224,2.669c-.214,0-2.288,3.36-1.859,3.36s1.859-2.359,1.859-2.359-1.465,3.146-.965,3.146,1.34-2.878,1.573-2.645-1.644,3.5-.965,3.5,1.215-2.109,1.484-1.841.391.532.624.3c.107-.107.154-.022.466-.64a12.846,12.846,0,0,1,1.963-2.52c.834-.834,7.191-7.792,8.085-10.294s-12.989-19.322-16.564-21.11,3.826,15.152,4.245,15.526" transform="translate(-107.784 -204.48)" fill="#fc7575"/>
        <path id="Trazado_920779" data-name="Trazado 920779" d="M146.356,284.024l7.8,7.5,4.063-7.006s-9.685-14.943-14.6-14.943c-.787,0,2.732,14.451,2.732,14.451" transform="translate(-108.856 -204.479)" fill="#5975d1"/>
        <path id="Trazado_920780" data-name="Trazado 920780" d="M151.072,288.557c-1.142-8.075-2.9-14.84-4.978-18.084a4.887,4.887,0,0,0-2.471-.9c-.786,0,2.733,14.451,2.733,14.451Z" transform="translate(-108.855 -204.48)" fill="#5994b3"/>
        <path id="Trazado_920781" data-name="Trazado 920781" d="M94.275,300.281c-.668-16.391-3.767-32.57-7.579-34.486-2.212,0-2.767-.02-5,0-3.33.034-8.381,1.863-10.773,11.022-2.177,8.333-.4,33.314.483,45.551,9.392-.4,16.25-.988,25.364-1.373.025-2.867-2.287-15.564-2.5-20.717" transform="translate(-53.009 -201.608)" fill="#5994b3"/>
        <path id="Trazado_920782" data-name="Trazado 920782" d="M151.627,198.814a2.874,2.874,0,0,0-1.169-.428l.247-.425s.915.371.922.853" transform="translate(-114.127 -150.159)" fill="#2846a6"/>
        <path id="Trazado_920783" data-name="Trazado 920783" d="M158.28,392.861c-.214,0-2.637,3.879-2.208,3.879s2.076-2.474,2.076-2.474-1.683,3.261-1.183,3.261,1.633-2.878,1.865-2.645-1.937,3.5-1.258,3.5,1.313-2.011,1.581-1.743.294.434.526.2c.12-.12.482-1.12.858-1.842l-.438-3.383a6.686,6.686,0,0,1-1.821,1.244" transform="translate(-118.347 -297.053)" fill="#fc7575"/>
        <path id="Trazado_920784" data-name="Trazado 920784" d="M167.564,408.6s-1.133,2.2-.876,2.458,1.876-2.563,1.738-2.7-.862.244-.862.244" transform="translate(-126.409 -309.728)" fill="#fc7575"/>
        <path id="Trazado_920785" data-name="Trazado 920785" d="M118.907,228.547l-.664,7.984a2.8,2.8,0,0,1-2.658,2.807c-.344-.013-.705-.041-1.069-.091A3.523,3.523,0,0,1,111.3,235.3c.431-2.8,1.441-7.456,1.384-9.906-.093-4.009,6.188,1.105,6.219,3.15" transform="translate(-84.396 -169.838)" fill="#fc7575"/>
        <path id="Trazado_920786" data-name="Trazado 920786" d="M116.185,225.4c-.093-4.009,6.188,1.105,6.219,3.151l-.388,4.668a15.421,15.421,0,0,1-3.194-.824c-1.669-.663-1.807-2.744-2.8-3.316a1.079,1.079,0,0,1-.155-.112,23.108,23.108,0,0,0,.313-3.566" transform="translate(-87.892 -169.838)" fill="#fd5e5a"/>
        <path id="Trazado_920787" data-name="Trazado 920787" d="M154.351,187.965c-1.78,1.156-5.274,2.844-6.608,1.211,1.195,1.873,5.068.569,7.083-.4Z" transform="translate(-112.068 -142.577)" fill="#5c2c55"/>
        <path id="Trazado_920788" data-name="Trazado 920788" d="M150.371,206.691s2.186-1.665,1.835-.229-1.412,4.526-2.593,3.331.758-3.1.758-3.1" transform="translate(-113.197 -156.165)" fill="#fd5e5a"/>
        <path id="Trazado_920789" data-name="Trazado 920789" d="M111.03,180.754c.3.291,3.579.008,4.7,3.36s.008,11.08-2.048,13.18-4.461.836-6.363-2.622-5.565-7.885-2.973-11.244c1.377-1.784,6.68-2.674,6.68-2.674" transform="translate(-78.472 -137.107)" fill="#fc7575"/>
        <path id="Trazado_920790" data-name="Trazado 920790" d="M126.209,226.946s-.938,2.263.033,3.2-2.744,1.346-4,1.031a13.953,13.953,0,0,1-3.358-.99c-1.04-.829-.97-8.351-.236-6.541s2.45,4.967,3.151,4.956,1.6.156,2.317.145,2.09-1.807,2.09-1.807" transform="translate(-89.584 -169.433)" fill="#5c2c55"/>
        <path id="Trazado_920791" data-name="Trazado 920791" d="M110.263,166.341c.325,1.768,2.137,4.175,6.33,1.452s3.308-6.079,3.308-6.079-2.1,2.81-3.425,2.238-.417-3.894-.417-3.894-4.777-.282-5.671-.269-1.762,2.8-1.762,2.8.593-1.25-4.125-1.592-1.851,6.616-2.351,9.047,2.768,6.668,2.789,8.086a3.729,3.729,0,0,1-.74,2.316s1.018.221,1.874-2.274-.833-6.131-.862-8.022a4.146,4.146,0,0,1,1.991-3.863c.71-.54,2.736-1.72,3.061.048" transform="translate(-77.172 -121.205)" fill="#5c2c55"/>
        <path id="Trazado_920792" data-name="Trazado 920792" d="M108.463,206.4s1.771,3.124.548,2.9-3.652-1.813-3.156-4.067,2.609,1.17,2.609,1.17" transform="translate(-80.244 -155.088)" fill="#fc7575"/>
        <path id="Trazado_920793" data-name="Trazado 920793" d="M111.9,210.258s-1.079-.987-1.429-.63c-.815.833,1.936,3.134,1.927,2.509a7.926,7.926,0,0,0-.5-1.879" transform="translate(-83.683 -158.95)" fill="#fd5e5a"/>
        <path id="Trazado_920794" data-name="Trazado 920794" d="M134.555,206.414c.007.482.3.868.657.862s.637-.4.63-.882-.3-.868-.657-.862-.637.4-.63.882" transform="translate(-102.064 -155.903)" fill="#2846a6"/>
        <path id="Trazado_920795" data-name="Trazado 920795" d="M150.082,206.179c.007.481.3.867.657.862s.637-.4.63-.882-.3-.868-.657-.862-.637.4-.63.882" transform="translate(-113.841 -155.725)" fill="#2846a6"/>
        <path id="Trazado_920796" data-name="Trazado 920796" d="M132.663,196.672l.2.554a1.539,1.539,0,0,0-1.595.488s.607-1.159,1.39-1.041" transform="translate(-99.575 -149.175)" fill="#2846a6"/>
        <path id="Trazado_920797" data-name="Trazado 920797" d="M149.07,203.525l.023,1.5a1.216,1.216,0,0,0,1.191,1.238l2.012-.03a1.217,1.217,0,0,0,1.154-1.274l-.022-1.5a1.216,1.216,0,0,0-1.192-1.238l-2.012.03a1.216,1.216,0,0,0-1.153,1.274m.541-.008a.656.656,0,0,1,.621-.686l2.012-.03a.656.656,0,0,1,.642.667l.022,1.5a.656.656,0,0,1-.621.686l-2.012.03a.656.656,0,0,1-.642-.667Z" transform="translate(-113.074 -153.39)" fill="#0f1d5b"/>
        <path id="Trazado_920798" data-name="Trazado 920798" d="M122.868,203.726l.023,1.534a1.328,1.328,0,0,0,1.386,1.265l2.343-.035a1.328,1.328,0,0,0,1.346-1.307l-.023-1.533a1.328,1.328,0,0,0-1.386-1.266l-2.343.035a1.328,1.328,0,0,0-1.347,1.307m.63-.009a.716.716,0,0,1,.725-.7l2.343-.035a.716.716,0,0,1,.746.681l.023,1.533a.716.716,0,0,1-.725.7l-2.344.035a.716.716,0,0,1-.746-.681Z" transform="translate(-93.199 -153.514)" fill="#0f1d5b"/>
        <path id="Trazado_920799" data-name="Trazado 920799" d="M143.851,209.663a11.287,11.287,0,0,0-.318-6.286c-.057-.188-.36-.108-.3.081a13.57,13.57,0,0,1,.388,5.859c-.927-.124-1.273-.351-1.327-.1s.356.166,1.561.442" transform="translate(-107.928 -154.186)" fill="#2846a6"/>
        <rect id="Rectángulo_404171" data-name="Rectángulo 404171" width="1.627" height="0.544" transform="matrix(1, -0.015, 0.015, 1, 34.601, 50.214)" fill="#0f1d5b"/>
        <path id="Trazado_920800" data-name="Trazado 920800" d="M132.641,148.757a4.105,4.105,0,0,0-3.486,1.872,4.58,4.58,0,0,0-.4,2.741l.174.883.31-.054a8.056,8.056,0,0,1-.02-1.706,2.954,2.954,0,0,1,3.437-2.673Z" transform="translate(-97.631 -112.837)" fill="#5c2c55"/>
        <path id="Trazado_920801" data-name="Trazado 920801" d="M140.589,233.041c0,.508-.242.92-.54.92s-.541-.412-.541-.92.242-.92.541-.92.54.412.54.92" transform="translate(-105.821 -176.071)" fill="#2846a6"/>
        <path id="Trazado_920802" data-name="Trazado 920802" d="M23.787,220.112S8.7,219.9,8.7,218.628s14.21-6.268,14.99-6.972,1.413-.067,3.049-1.544a18.043,18.043,0,0,0,2.12-.671c.669-.3.037-.739-.707-.739s-1.487.168-1.822.168.26-1.544.26-2.148,1.19-2.417,2.268-2.417,2.045-.4,1.785-.637-4.313.268-4.425.369-2.454,4.263-3.458,5.169-21.727,3.279-22.719,8.6,15.022,13.489,18.1,13.042,8.721-10.56,5.647-10.739" transform="translate(0 -154.44)" fill="#ff8d8d"/>
        <path id="Trazado_920803" data-name="Trazado 920803" d="M26.938,275.765l3.61-7.221c-.525-.066-1-.139-1.4-.219l-3.993,6.289c.578.4,1.175.781,1.78,1.151" transform="translate(-19.083 -203.533)" fill="#fd5e5a"/>
        <path id="Trazado_920804" data-name="Trazado 920804" d="M26.948,265.787l-5.208,9.619s10.831,2.858,12.906,2.858,6.6-6.268,6.826-8.757S41.3,266.7,41.3,266.7Z" transform="translate(-16.49 -201.608)" fill="#59d5b3"/>
        <path id="Trazado_920805" data-name="Trazado 920805" d="M57.963,266.55c-.078,0-8.073-.838-14.654-.774,3.092.426,8.35.938,14.13,1.259a7.956,7.956,0,0,1,.094,2.158c-.046,1.955-2.149,5.128-3.3,6.7,1.483-1.465,3.844-4.634,3.943-6.653.04-.433.07-.869.067-1.315a4.8,4.8,0,0,0-.28-1.377" transform="translate(-32.851 -201.597)" fill="#59f6d1"/>
      </g>
    </g>
  </g>
</svg>
