<svg xmlns="http://www.w3.org/2000/svg" xmlns:xlink="http://www.w3.org/1999/xlink" width="47" height="47" viewBox="0 0 47 47">
  <defs>
    <clipPath id="clip-path">
      <rect id="Rectángulo_403394" data-name="Rectángulo 403394" width="47" height="47" transform="translate(209.051 2385)" fill="#fac22d" stroke="#707070" stroke-width="1"/>
    </clipPath>
  </defs>
  <g id="img8" transform="translate(-209.051 -2385)" clip-path="url(#clip-path)">
    <g id="cable2" transform="translate(208.096 2384.141)">
      <path id="Trazado_913008" data-name="Trazado 913008" d="M17.762,28.01l4.682-4.683a.573.573,0,1,0-.811-.811L16.951,27.2a.573.573,0,1,0,.811.811Z" fill="#fac22d"/>
      <path id="Trazado_913009" data-name="Trazado 913009" d="M23.886,21.885l.423-.423a.573.573,0,0,0-.811-.811l-.423.423a.573.573,0,1,0,.811.811Z" fill="#fac22d"/>
      <path id="Trazado_913010" data-name="Trazado 913010" d="M8.93,47.692a.576.576,0,0,0,.67.1.559.559,0,0,0,.143-.106l3.249-3.249a.573.573,0,0,0-.811-.811L9.335,46.476,2.378,39.518,24.129,17.766l6.958,6.958L15.559,40.253a.573.573,0,1,0,.811.811L32.3,25.13a.573.573,0,0,0,0-.811l-.061-.061,2.211-2.211a.573.573,0,0,0,0-.811l-.209-.209.675-.675a5.487,5.487,0,0,1,7.752,0l1.568,1.568a.573.573,0,0,0,.811,0l.752-.752,1.138,1.138a.573.573,0,1,0,.811-.811l-1.138-1.138.6-.6a.573.573,0,0,0,0-.811l-1.568-1.568a9.678,9.678,0,0,0-8.577-2.676L43.2,8.574a.573.573,0,0,0,0-.811l-.649-.648,2.68-2.68a.573.573,0,1,0-.811-.811L41.738,6.3l-.7-.7a.573.573,0,0,0-.811,0l-6.054,6.054a9.835,9.835,0,0,0,.131-1.6,9.617,9.617,0,0,0-2.832-6.846L29.9,1.645a.573.573,0,0,0-.811,0l-.6.6L27.281,1.028a.573.573,0,0,0-.811.811l1.215,1.215-.752.752a.573.573,0,0,0,0,.811L28.5,6.183a5.487,5.487,0,0,1,0,7.752l-.675.675-.209-.209a.576.576,0,0,0-.67-.1.56.56,0,0,0-.143.106L24.6,16.611l-.059-.059a.558.558,0,0,0-.143-.106.576.576,0,0,0-.67.1L1.162,39.112a.573.573,0,0,0,0,.811Zm35.9-29.5,1.162,1.162-.462.462a.538.538,0,0,0-.271.271l-.617.617-1.162-1.162a6.635,6.635,0,0,0-9.373,0l-.675.675-1.349-1.349.675-.675a8.545,8.545,0,0,1,12.071,0Zm-4.2-11.373.7.7.648.648-7.291,7.291a9.637,9.637,0,0,0-2.742,1.923l-.675.675-.478-.478.675-.675a9.653,9.653,0,0,0,2.018-2.943Zm-11.32,7.926a6.634,6.634,0,0,0,0-9.373L28.149,4.21,29.5,2.861,30.66,4.023a8.546,8.546,0,0,1,0,12.071l-.675.675L28.636,15.42Zm-2.1.871,6.026,6.026-1.805,1.805-6.026-6.026Z" fill="#fac22d"/>
    </g>
  </g>
</svg>
