<svg xmlns="http://www.w3.org/2000/svg" xmlns:xlink="http://www.w3.org/1999/xlink" width="190" height="139.001" viewBox="0 0 190 139.001">
  <defs>
    <clipPath id="clip-path">
      <rect id="Rectángulo_401573" data-name="Rectángulo 401573" width="28.836" height="134.999" fill="none"/>
    </clipPath>
    <clipPath id="clip-path-2">
      <rect id="Rectángulo_401572" data-name="Rectángulo 401572" width="72.283" height="318.81" fill="none"/>
    </clipPath>
    <clipPath id="clip-path-3">
      <rect id="Rectángulo_401571" data-name="Rectángulo 401571" width="101" height="101" transform="translate(239 865)" fill="#fff" stroke="#707070" stroke-width="1"/>
    </clipPath>
  </defs>
  <g id="img2" transform="translate(-180 -846)">
    <g id="Grupo_1099688" data-name="Grupo 1099688" transform="translate(0 20.001)">
      <g id="Grupo_1099687" data-name="Grupo 1099687" transform="translate(180 825.999)" clip-path="url(#clip-path)">
        <g id="Grupo_1099686" data-name="Grupo 1099686" transform="translate(-6.669 -66.937)" opacity="0.45" style="mix-blend-mode: multiply;isolation: isolate">
          <g id="Grupo_1099685" data-name="Grupo 1099685">
            <g id="Grupo_1099684" data-name="Grupo 1099684" clip-path="url(#clip-path-2)">
              <path id="Trazado_873516" data-name="Trazado 873516" d="M-.523,28.587,95.308-6.337,93.689.614-2.142,35.538Z" transform="matrix(0.898, -0.44, 0.44, 0.898, -12.113, 246.237)" fill="#2d0464"/>
              <path id="Trazado_873517" data-name="Trazado 873517" d="M-.523,28.587,95.308-6.337,93.689.614-2.142,35.538Z" transform="matrix(0.898, -0.44, 0.44, 0.898, -12.113, 226.377)" fill="#2d0464"/>
              <path id="Trazado_873518" data-name="Trazado 873518" d="M-.523,28.587,95.308-6.337,93.689.614-2.142,35.538Z" transform="matrix(0.898, -0.44, 0.44, 0.898, -12.113, 206.517)" fill="#2d0464"/>
              <path id="Trazado_873519" data-name="Trazado 873519" d="M-.523,28.587,95.308-6.337,93.689.614-2.142,35.538Z" transform="matrix(0.898, -0.44, 0.44, 0.898, -12.113, 186.658)" fill="#2d0464"/>
              <path id="Trazado_873520" data-name="Trazado 873520" d="M-.523,28.587,95.308-6.337,93.689.614-2.142,35.538Z" transform="matrix(0.898, -0.44, 0.44, 0.898, -12.113, 166.798)" fill="#2d0464"/>
              <path id="Trazado_873521" data-name="Trazado 873521" d="M-.523,28.587,95.308-6.337,93.689.614-2.142,35.538Z" transform="matrix(0.898, -0.44, 0.44, 0.898, -12.113, 146.938)" fill="#2d0464"/>
              <path id="Trazado_873522" data-name="Trazado 873522" d="M-.523,28.587,95.308-6.337,93.689.614-2.142,35.538Z" transform="matrix(0.898, -0.44, 0.44, 0.898, -12.113, 127.078)" fill="#2d0464"/>
              <path id="Trazado_873523" data-name="Trazado 873523" d="M-.523,28.587,95.308-6.337,93.689.614-2.142,35.538Z" transform="matrix(0.898, -0.44, 0.44, 0.898, -12.113, 107.219)" fill="#2d0464"/>
              <path id="Trazado_873524" data-name="Trazado 873524" d="M-.523,28.587,95.308-6.337,93.689.614-2.142,35.538Z" transform="matrix(0.898, -0.44, 0.44, 0.898, -12.113, 87.359)" fill="#2d0464"/>
              <path id="Trazado_873525" data-name="Trazado 873525" d="M-.523,28.587,95.308-6.337,93.689.614-2.142,35.538Z" transform="matrix(0.898, -0.44, 0.44, 0.898, -12.113, 67.499)" fill="#2d0464"/>
              <path id="Trazado_873526" data-name="Trazado 873526" d="M-.523,28.587,95.308-6.337,93.689.614-2.142,35.538Z" transform="translate(-12.113 47.64) rotate(-26.114)" fill="#2d0464"/>
            </g>
          </g>
        </g>
      </g>
      <rect id="Rectángulo_401574" data-name="Rectángulo 401574" width="161" height="139" transform="translate(209 826)" fill="#efe8f7"/>
    </g>
    <g id="Enmascarar_grupo_1098758" data-name="Enmascarar grupo 1098758" clip-path="url(#clip-path-3)">
      <g id="cable3" transform="translate(237.371 863.371)">
        <g id="Grupo_1103049" data-name="Grupo 1103049">
          <g id="Grupo_1103043" data-name="Grupo 1103043">
            <path id="Trazado_919888" data-name="Trazado 919888" d="M49.278,28.552h5.7V86.506h-5.7Z" fill="#9facba" fill-rule="evenodd"/>
            <path id="Trazado_919889" data-name="Trazado 919889" d="M46.97,15.715H57.287v13.14H46.97Z" fill="#eceff1" fill-rule="evenodd"/>
            <path id="Trazado_919890" data-name="Trazado 919890" d="M59.017,32.391a17.222,17.222,0,0,1-13.777,0V20.224H59.017V32.391Z" fill="#8ac9fe" fill-rule="evenodd"/>
            <path id="Trazado_919891" data-name="Trazado 919891" d="M59.017,32.391A16.787,16.787,0,0,1,51.11,33.8a16.111,16.111,0,0,0,5.87-1.409V20.224h2.036Z" fill="#60b7ff" fill-rule="evenodd"/>
            <circle id="Elipse_11565" data-name="Elipse 11565" cx="2.366" cy="2.366" r="2.366" transform="translate(49.762 24.66)" fill="#eceff1"/>
            <path id="Trazado_919892" data-name="Trazado 919892" d="M52.128,24.66a2.367,2.367,0,0,1,.622.083,2.367,2.367,0,0,0,0,4.567,2.366,2.366,0,1,1-.622-4.649Z" fill="#d1d1d6" fill-rule="evenodd"/>
          </g>
          <g id="Grupo_1103044" data-name="Grupo 1103044">
            <path id="Trazado_919893" data-name="Trazado 919893" d="M60.787,85.494V47.2a8.872,8.872,0,0,1,6.172-8.5l10.212-3.347,1.76,5.412L68.718,44.113a3.166,3.166,0,0,0-2.23,3.092V85.494Z" fill="#9facba" fill-rule="evenodd"/>
            <path id="Trazado_919894" data-name="Trazado 919894" d="M74.5,31.864H87.637V42.182H74.5Z" transform="translate(-6.819 22.24) rotate(-15.009)" fill="#eceff1" fill-rule="evenodd"/>
            <path id="Trazado_919895" data-name="Trazado 919895" d="M73.079,46.287A17.221,17.221,0,0,1,69.513,32.98l11.752-3.149,3.566,13.307Z" fill="#8ac9fe" fill-rule="evenodd"/>
            <path id="Trazado_919896" data-name="Trazado 919896" d="M73.078,46.287a16.788,16.788,0,0,1-3.407-7.272,16.107,16.107,0,0,0,2.88,5.306L84.3,41.172l.527,1.967Z" fill="#60b7ff" fill-rule="evenodd"/>
            <path id="Trazado_919897" data-name="Trazado 919897" d="M78.763,37.633a2.366,2.366,0,1,1-2.9-1.673A2.366,2.366,0,0,1,78.763,37.633Z" fill="#eceff1" fill-rule="evenodd"/>
            <path id="Trazado_919898" data-name="Trazado 919898" d="M78.763,37.633a2.374,2.374,0,0,1,.081.622,2.367,2.367,0,0,0-4.411,1.182,2.366,2.366,0,1,1,4.33-1.8Z" fill="#d1d1d6" fill-rule="evenodd"/>
          </g>
          <g id="Grupo_1103045" data-name="Grupo 1103045">
            <path id="Trazado_919899" data-name="Trazado 919899" d="M72.3,82.505V68.623a8.872,8.872,0,0,1,6.172-8.5l10.212-3.347,1.76,5.412L80.227,65.531A3.166,3.166,0,0,0,78,68.623V82.505Z" fill="#9facba" fill-rule="evenodd"/>
            <path id="Trazado_919900" data-name="Trazado 919900" d="M86.758,53.368H99.9V63.686H86.758Z" transform="translate(-11.966 26.147) rotate(-15.009)" fill="#eceff1" fill-rule="evenodd"/>
            <path id="Trazado_919901" data-name="Trazado 919901" d="M85.339,67.789a17.221,17.221,0,0,1-3.566-13.307l11.752-3.149L97.091,64.64Z" fill="#8ac9fe" fill-rule="evenodd"/>
            <path id="Trazado_919902" data-name="Trazado 919902" d="M85.339,67.789a16.788,16.788,0,0,1-3.407-7.272,16.107,16.107,0,0,0,2.88,5.305l11.752-3.149.527,1.967Z" fill="#60b7ff" fill-rule="evenodd"/>
            <path id="Trazado_919903" data-name="Trazado 919903" d="M91.024,59.134a2.366,2.366,0,1,1-2.9-1.673,2.366,2.366,0,0,1,2.9,1.673Z" fill="#eceff1" fill-rule="evenodd"/>
            <path id="Trazado_919904" data-name="Trazado 919904" d="M91.024,59.134a2.373,2.373,0,0,1,.081.622,2.367,2.367,0,0,0-4.411,1.182,2.366,2.366,0,1,1,4.33-1.8Z" fill="#d1d1d6" fill-rule="evenodd"/>
          </g>
          <g id="Grupo_1103046" data-name="Grupo 1103046">
            <path id="Trazado_919905" data-name="Trazado 919905" d="M37.769,85.494V47.2a3.166,3.166,0,0,0-2.23-3.092L25.327,40.765l1.76-5.412L37.3,38.7a8.872,8.872,0,0,1,6.172,8.5V85.494Z" fill="#9facba" fill-rule="evenodd"/>
            <path id="Trazado_919906" data-name="Trazado 919906" d="M18.044,30.452H28.362V43.594H18.044Z" transform="translate(-18.561 49.847) rotate(-74.991)" fill="#eceff1" fill-rule="evenodd"/>
            <path id="Trazado_919907" data-name="Trazado 919907" d="M31.179,46.287A17.221,17.221,0,0,0,34.744,32.98L22.992,29.831,19.427,43.138Z" fill="#8ac9fe" fill-rule="evenodd"/>
            <path id="Trazado_919908" data-name="Trazado 919908" d="M31.179,46.287a16.788,16.788,0,0,0,3.407-7.272,16.107,16.107,0,0,1-2.88,5.306L19.953,41.171l-.527,1.967Z" fill="#60b7ff" fill-rule="evenodd"/>
            <path id="Trazado_919909" data-name="Trazado 919909" d="M25.494,37.633a2.366,2.366,0,1,0,2.9-1.673,2.366,2.366,0,0,0-2.9,1.673Z" fill="#eceff1" fill-rule="evenodd"/>
            <path id="Trazado_919910" data-name="Trazado 919910" d="M25.494,37.633a2.373,2.373,0,0,0-.081.622,2.367,2.367,0,0,1,4.411,1.182,2.366,2.366,0,1,0-4.33-1.8Z" fill="#d1d1d6" fill-rule="evenodd"/>
          </g>
          <g id="Grupo_1103047" data-name="Grupo 1103047">
            <path id="Trazado_919911" data-name="Trazado 919911" d="M26.26,82.505V68.623a3.166,3.166,0,0,0-2.23-3.092L13.818,62.184l1.76-5.412L25.79,60.119a8.872,8.872,0,0,1,6.172,8.5V82.505Z" fill="#9facba" fill-rule="evenodd"/>
            <path id="Trazado_919912" data-name="Trazado 919912" d="M5.782,51.956H16.1V65.1H5.782Z" transform="translate(-48.418 53.94) rotate(-74.991)" fill="#eceff1" fill-rule="evenodd"/>
            <path id="Trazado_919913" data-name="Trazado 919913" d="M18.918,67.789a17.221,17.221,0,0,0,3.566-13.307L10.731,51.333,7.166,64.64Z" fill="#8ac9fe" fill-rule="evenodd"/>
            <path id="Trazado_919914" data-name="Trazado 919914" d="M18.918,67.789a16.788,16.788,0,0,0,3.407-7.272,16.107,16.107,0,0,1-2.88,5.306L7.693,62.673,7.166,64.64Z" fill="#60b7ff" fill-rule="evenodd"/>
            <path id="Trazado_919915" data-name="Trazado 919915" d="M13.233,59.134a2.366,2.366,0,1,0,2.9-1.673,2.366,2.366,0,0,0-2.9,1.673Z" fill="#eceff1" fill-rule="evenodd"/>
            <path id="Trazado_919916" data-name="Trazado 919916" d="M13.233,59.134a2.373,2.373,0,0,0-.081.622,2.367,2.367,0,0,1,4.411,1.182,2.366,2.366,0,1,0-4.33-1.8Z" fill="#d1d1d6" fill-rule="evenodd"/>
          </g>
          <g id="Grupo_1103048" data-name="Grupo 1103048">
            <path id="Trazado_919917" data-name="Trazado 919917" d="M10.117,81.212H94.141a1.225,1.225,0,0,1,1.222,1.222V87.32a1.225,1.225,0,0,1-1.222,1.222H10.117A1.225,1.225,0,0,1,8.895,87.32V82.433a1.225,1.225,0,0,1,1.222-1.222Z" fill="#837683" fill-rule="evenodd"/>
            <path id="Trazado_919918" data-name="Trazado 919918" d="M93.326,81.212h.815a1.225,1.225,0,0,1,1.222,1.222V87.32a1.225,1.225,0,0,1-1.222,1.222H10.117A1.225,1.225,0,0,1,8.895,87.32v-.815H92.1a1.225,1.225,0,0,0,1.222-1.222V81.212Z" fill="#685e68" fill-rule="evenodd"/>
          </g>
        </g>
        <path id="Trazado_919919" data-name="Trazado 919919" d="M88.738,60.484a.737.737,0,1,1,.738-.738A.738.738,0,0,1,88.738,60.484Zm0-4.731a3.994,3.994,0,1,0,4,3.993A4,4,0,0,0,88.738,55.753ZM97.8,60.973,97.3,59.139l1.21-.324L99,60.65ZM85.967,65.934,95.1,63.488,92.374,53.328l-9.129,2.447A15.994,15.994,0,0,0,85.967,65.934ZM79.72,63.983a4.808,4.808,0,0,0-3.352,4.641V78.4H73.925V68.624a7.214,7.214,0,0,1,5.05-6.955l1.441-.474a20.156,20.156,0,0,0,.684,2.338ZM93.734,86.912H10.523v-5.25H93.734Zm-69.2-22.929-1.381-.451a20.155,20.155,0,0,0,.684-2.338l1.441.472a7.218,7.218,0,0,1,5.05,6.957V78.4H27.89V68.624a4.809,4.809,0,0,0-3.352-4.641ZM18.29,65.934,9.161,63.488l2.723-10.161,9.128,2.447a15.987,15.987,0,0,1-2.723,10.16ZM5.254,60.65l.491-1.835,1.21.324-.493,1.834Zm3.034-6.494L7.8,55.992l-1.21-.324.493-1.834ZM36.047,42.564l-.738-.24A19.758,19.758,0,0,0,36.03,40l.762.251a7.217,7.217,0,0,1,5.05,6.955V78.4H39.4V47.2a4.81,4.81,0,0,0-3.351-4.641Zm-5.495,1.87-9.13-2.448,2.723-10.159,9.13,2.445a16.024,16.024,0,0,1-2.723,10.161ZM17.514,39.15,18,37.312l1.21.324-.493,1.836Zm3.036-6.5-.494,1.837-1.207-.324.491-1.837Zm30.357,2.761q.61.04,1.221.041c.407,0,.815-.014,1.222-.041V78.4H50.907ZM46.869,21.853h10.52v9.453a16.013,16.013,0,0,1-10.52,0ZM48.6,17.345h1.9v1.25H48.6Zm7.058,1.25h-1.9v-1.25h1.9ZM62.416,47.2a7.219,7.219,0,0,1,5.05-6.955L68.228,40a19.926,19.926,0,0,0,.721,2.326l-.737.24A4.809,4.809,0,0,0,64.86,47.2v31.2H62.416Zm8.567-12.932,9.131-2.445,2.722,10.159-9.13,2.448a16.014,16.014,0,0,1-2.723-10.161Zm13.935-1.943.491,1.837-1.208.324-.494-1.837Zm.619,7.143-.494-1.836,1.208-.324.493,1.837Zm11.64,14.36.494,1.834-1.21.324-.491-1.835Zm5.4,7.548L99.9,51.416a1.626,1.626,0,0,0-1.994-1.153l-2.781.746-.026-.1a1.631,1.631,0,0,0-2-1.15L81.352,52.908A1.629,1.629,0,0,0,80.17,54.2a16.55,16.55,0,0,0-.214,3.721l-2,.654a10.558,10.558,0,0,0-7.294,10.052V78.4H68.117V47.2a1.538,1.538,0,0,1,1.108-1.543l1.15-.379a15.992,15.992,0,0,0,1.456,2.052,1.63,1.63,0,0,0,1.247.583,1.54,1.54,0,0,0,.421-.057l11.753-3.148a1.629,1.629,0,0,0,1.151-2l-.025-.1,2.782-.746a1.629,1.629,0,0,0,1.153-2l-2.672-9.966a1.63,1.63,0,0,0-2-1.15l-2.782.746-.024-.1a1.632,1.632,0,0,0-2-1.153L69.09,31.407A1.626,1.626,0,0,0,67.909,32.7a16.683,16.683,0,0,0-.194,4.042l-1.264.416A10.558,10.558,0,0,0,59.158,47.2V78.4H56.608V34.936a16.432,16.432,0,0,0,3.1-1.069,1.631,1.631,0,0,0,.94-1.477V20.224a1.629,1.629,0,0,0-1.628-1.629h-.1V15.716a1.628,1.628,0,0,0-1.628-1.628H46.971a1.628,1.628,0,0,0-1.629,1.628v2.879h-.1a1.629,1.629,0,0,0-1.629,1.629V32.391a1.631,1.631,0,0,0,.941,1.477,16.4,16.4,0,0,0,3.1,1.069V78.4H45.1V47.2a10.564,10.564,0,0,0-7.294-10.053l-1.264-.413a16.631,16.631,0,0,0-.194-4.042,1.626,1.626,0,0,0-1.181-1.289l-11.754-3.15a1.632,1.632,0,0,0-2,1.153l-.025.1-2.781-.746a1.628,1.628,0,0,0-2,1.15l-2.671,9.966a1.63,1.63,0,0,0,1.152,2l2.781.746-.026.1a1.631,1.631,0,0,0,1.152,2L30.756,47.86a1.562,1.562,0,0,0,.422.057,1.627,1.627,0,0,0,1.248-.583,16.115,16.115,0,0,0,1.456-2.05l1.15.377A1.538,1.538,0,0,1,36.14,47.2V78.4H33.59V68.624A10.558,10.558,0,0,0,26.3,58.572l-2-.654a16.444,16.444,0,0,0-.212-3.721,1.629,1.629,0,0,0-1.181-1.289L11.153,49.761a1.63,1.63,0,0,0-2,1.15l-.027.1-2.781-.745a1.627,1.627,0,0,0-1.994,1.153L1.684,61.381a1.631,1.631,0,0,0,1.152,2l2.781.746-.026.1a1.63,1.63,0,0,0,1.152,2L18.5,69.363a1.627,1.627,0,0,0,1.67-.527,15.9,15.9,0,0,0,1.617-2.327l1.741.57a1.54,1.54,0,0,1,1.108,1.545v9.781H8.895a1.63,1.63,0,0,0-1.629,1.628v8.508A1.629,1.629,0,0,0,8.895,90.17H95.362a1.629,1.629,0,0,0,1.629-1.628V80.034a1.63,1.63,0,0,0-1.629-1.628H79.626V68.624a1.541,1.541,0,0,1,1.108-1.545l1.739-.57a15.99,15.99,0,0,0,1.619,2.327,1.627,1.627,0,0,0,1.248.583,1.645,1.645,0,0,0,.422-.056l11.752-3.149a1.629,1.629,0,0,0,1.152-2l-.026-.1,2.781-.746a1.631,1.631,0,0,0,1.152-2ZM75.742,38.245a.737.737,0,1,0,.737-.737A.737.737,0,0,0,75.742,38.245Zm4.732,0a4,4,0,1,0-3.995,4A4,4,0,0,0,80.474,38.245ZM15.519,60.484a.738.738,0,1,0-.737-.738A.738.738,0,0,0,15.519,60.484Zm0-4.733a4,4,0,1,0,3.995,3.995A4,4,0,0,0,15.519,55.751ZM27.779,38.982a.737.737,0,1,0-.737-.737A.737.737,0,0,0,27.779,38.982Zm0-4.732a4,4,0,1,0,3.995,3.995A4,4,0,0,0,27.779,34.25Zm24.349-6.488a.736.736,0,1,0-.737-.737A.737.737,0,0,0,52.128,27.762Zm4-.737a4,4,0,1,0-4,3.995A4,4,0,0,0,56.124,27.025Z" fill-rule="evenodd"/>
      </g>
    </g>
  </g>
</svg>
