<svg xmlns="http://www.w3.org/2000/svg" xmlns:xlink="http://www.w3.org/1999/xlink" width="295" height="254.315" viewBox="0 0 295 254.315">
  <defs>
    <clipPath id="clip-path">
      <rect id="Rectángulo_404527" data-name="Rectángulo 404527" width="243" height="234.008" fill="none"/>
    </clipPath>
  </defs>
  <g id="img17" transform="translate(-600 -2724.735)">
    <rect id="Rectángulo_402941" data-name="Rectángulo 402941" width="295" height="163" rx="10" transform="translate(600 2816.05)" fill="#d7eed6"/>
    <g id="Grupo_1103750" data-name="Grupo 1103750" transform="translate(623.051 2724.735)">
      <rect id="Rectángulo_404445" data-name="Rectángulo 404445" width="100.798" height="19.85" transform="translate(131.947 129.682)" fill="#365268"/>
      <g id="Grupo_1103749" data-name="Grupo 1103749">
        <g id="Grupo_1103748" data-name="Grupo 1103748" clip-path="url(#clip-path)">
          <path id="Trazado_923809" data-name="Trazado 923809" d="M424.993,266.507a2.593,2.593,0,1,0,2.593-2.593,2.593,2.593,0,0,0-2.593,2.593" transform="translate(-204.353 -126.9)" fill="#4c9fd8"/>
          <path id="Trazado_923810" data-name="Trazado 923810" d="M388.524,266.507a2.593,2.593,0,1,0,2.593-2.593,2.593,2.593,0,0,0-2.593,2.593" transform="translate(-186.818 -126.9)" fill="#4c9fd8"/>
          <rect id="Rectángulo_404446" data-name="Rectángulo 404446" width="7.332" height="1.647" transform="translate(210.1 138.783)" fill="#4c9fd8"/>
          <rect id="Rectángulo_404447" data-name="Rectángulo 404447" width="7.332" height="1.647" transform="translate(179.294 138.783)" fill="#4c9fd8"/>
          <rect id="Rectángulo_404448" data-name="Rectángulo 404448" width="5.186" height="5.186" transform="translate(189.833 137.014)" fill="#4c9fd8"/>
          <rect id="Rectángulo_404449" data-name="Rectángulo 404449" width="5.186" height="5.186" transform="translate(170.9 137.014)" fill="#4c9fd8"/>
          <path id="Trazado_923811" data-name="Trazado 923811" d="M303.686,266.507a2.593,2.593,0,1,0,2.593-2.593,2.593,2.593,0,0,0-2.593,2.593" transform="translate(-146.024 -126.9)" fill="#4c9fd8"/>
          <path id="Trazado_923812" data-name="Trazado 923812" d="M267.218,266.507a2.593,2.593,0,1,0,2.593-2.593,2.593,2.593,0,0,0-2.593,2.593" transform="translate(-128.489 -126.9)" fill="#4c9fd8"/>
          <rect id="Rectángulo_404450" data-name="Rectángulo 404450" width="7.332" height="1.647" transform="translate(147.122 138.783)" fill="#4c9fd8"/>
          <rect id="Rectángulo_404451" data-name="Rectángulo 404451" width="100.798" height="19.85" transform="translate(131.947 149.532)" fill="#426f8e"/>
          <path id="Trazado_923813" data-name="Trazado 923813" d="M425.1,304.742a2.593,2.593,0,1,0,2.593-2.593,2.593,2.593,0,0,0-2.593,2.593" transform="translate(-204.406 -145.285)" fill="#4c9fd8"/>
          <path id="Trazado_923814" data-name="Trazado 923814" d="M388.634,304.742a2.593,2.593,0,1,0,2.593-2.593,2.593,2.593,0,0,0-2.593,2.593" transform="translate(-186.87 -145.285)" fill="#4c9fd8"/>
          <rect id="Rectángulo_404452" data-name="Rectángulo 404452" width="7.332" height="1.647" transform="translate(210.157 158.634)" fill="#4c9fd8"/>
          <rect id="Rectángulo_404453" data-name="Rectángulo 404453" width="7.332" height="1.647" transform="translate(179.294 158.634)" fill="#4c9fd8"/>
          <rect id="Rectángulo_404454" data-name="Rectángulo 404454" width="5.186" height="5.186" transform="translate(189.833 156.864)" fill="#4c9fd8"/>
          <rect id="Rectángulo_404455" data-name="Rectángulo 404455" width="5.186" height="5.186" transform="translate(170.9 156.864)" fill="#4c9fd8"/>
          <path id="Trazado_923815" data-name="Trazado 923815" d="M303.577,304.742a2.593,2.593,0,1,0,2.593-2.593,2.593,2.593,0,0,0-2.593,2.593" transform="translate(-145.972 -145.285)" fill="#4c9fd8"/>
          <path id="Trazado_923816" data-name="Trazado 923816" d="M267.108,304.742a2.593,2.593,0,1,0,2.593-2.593,2.593,2.593,0,0,0-2.593,2.593" transform="translate(-128.436 -145.285)" fill="#4c9fd8"/>
          <rect id="Rectángulo_404456" data-name="Rectángulo 404456" width="7.332" height="1.647" transform="translate(147.066 158.634)" fill="#4c9fd8"/>
          <rect id="Rectángulo_404457" data-name="Rectángulo 404457" width="100.798" height="19.85" transform="translate(131.947 109.832)" fill="#426f8e"/>
          <rect id="Rectángulo_404458" data-name="Rectángulo 404458" width="3.156" height="3.156" transform="translate(222.809 121.365)" fill="#4c9fd8"/>
          <rect id="Rectángulo_404459" data-name="Rectángulo 404459" width="3.156" height="3.156" transform="translate(217.265 121.365)" fill="#4c9fd8"/>
          <rect id="Rectángulo_404460" data-name="Rectángulo 404460" width="3.156" height="3.156" transform="translate(211.722 121.365)" fill="#4c9fd8"/>
          <path id="Trazado_923817" data-name="Trazado 923817" d="M409.76,221.5h10.354a1.945,1.945,0,1,1,0,3.89H409.76a1.945,1.945,0,0,1,0-3.89" transform="translate(-196.093 -106.504)" fill="#2d3e4f"/>
          <rect id="Rectángulo_404461" data-name="Rectángulo 404461" width="3.156" height="3.156" transform="translate(198.478 121.365)" fill="#4c9fd8"/>
          <rect id="Rectángulo_404462" data-name="Rectángulo 404462" width="3.156" height="3.156" transform="translate(192.934 121.365)" fill="#4c9fd8"/>
          <rect id="Rectángulo_404463" data-name="Rectángulo 404463" width="3.156" height="3.156" transform="translate(187.39 121.365)" fill="#4c9fd8"/>
          <path id="Trazado_923818" data-name="Trazado 923818" d="M362.893,221.5h10.354a1.945,1.945,0,1,1,0,3.89H362.893a1.945,1.945,0,0,1,0-3.89" transform="translate(-173.558 -106.504)" fill="#2d3e4f"/>
          <rect id="Rectángulo_404464" data-name="Rectángulo 404464" width="3.156" height="3.156" transform="translate(174.146 121.365)" fill="#4c9fd8"/>
          <rect id="Rectángulo_404465" data-name="Rectángulo 404465" width="3.156" height="3.156" transform="translate(168.602 121.365)" fill="#4c9fd8"/>
          <rect id="Rectángulo_404466" data-name="Rectángulo 404466" width="3.156" height="3.156" transform="translate(163.059 121.365)" fill="#4c9fd8"/>
          <path id="Trazado_923819" data-name="Trazado 923819" d="M316.026,221.5H326.38a1.945,1.945,0,1,1,0,3.89H316.026a1.945,1.945,0,0,1,0-3.89" transform="translate(-151.022 -106.504)" fill="#2d3e4f"/>
          <rect id="Rectángulo_404467" data-name="Rectángulo 404467" width="3.156" height="3.156" transform="translate(149.815 121.365)" fill="#4c9fd8"/>
          <rect id="Rectángulo_404468" data-name="Rectángulo 404468" width="3.156" height="3.156" transform="translate(144.271 121.365)" fill="#4c9fd8"/>
          <rect id="Rectángulo_404469" data-name="Rectángulo 404469" width="3.156" height="3.156" transform="translate(138.727 121.365)" fill="#4c9fd8"/>
          <path id="Trazado_923820" data-name="Trazado 923820" d="M269.159,221.5h10.354a1.945,1.945,0,1,1,0,3.89H269.159a1.945,1.945,0,0,1,0-3.89" transform="translate(-128.487 -106.504)" fill="#2d3e4f"/>
          <rect id="Rectángulo_404470" data-name="Rectángulo 404470" width="100.798" height="19.85" transform="translate(131.947 30.431)" fill="#426f8e"/>
          <rect id="Rectángulo_404471" data-name="Rectángulo 404471" width="5.186" height="5.186" transform="translate(220.776 37.763)" fill="#4c9fd8"/>
          <rect id="Rectángulo_404472" data-name="Rectángulo 404472" width="5.186" height="5.186" transform="translate(210.118 37.763)" fill="#4c9fd8"/>
          <rect id="Rectángulo_404473" data-name="Rectángulo 404473" width="5.186" height="5.186" transform="translate(199.46 37.763)" fill="#4c9fd8"/>
          <rect id="Rectángulo_404474" data-name="Rectángulo 404474" width="5.186" height="5.186" transform="translate(188.802 37.763)" fill="#4c9fd8"/>
          <rect id="Rectángulo_404475" data-name="Rectángulo 404475" width="5.186" height="5.186" transform="translate(149.432 37.763)" fill="#4c9fd8"/>
          <rect id="Rectángulo_404476" data-name="Rectángulo 404476" width="5.186" height="5.186" transform="translate(138.774 37.763)" fill="#4c9fd8"/>
          <path id="Trazado_923821" data-name="Trazado 923821" d="M318.716,77.924h9.058a2.593,2.593,0,1,0,0-5.186h-9.058a2.593,2.593,0,1,0,0,5.186" transform="translate(-152.004 -34.975)" fill="#2d3e4f"/>
          <path id="Trazado_923822" data-name="Trazado 923822" d="M375.743,242.676q-.663,0-1.336-.049c-4.945-.358-9.312-2.71-11.127-5.991a.393.393,0,1,1,.687-.381c1.69,3.055,5.81,5.249,10.5,5.588a14.814,14.814,0,0,0,13.179-5.635.393.393,0,0,1,.626.475,15.408,15.408,0,0,1-12.525,5.992" transform="translate(-174.655 -113.504)" fill="#fff"/>
          <path id="Trazado_923823" data-name="Trazado 923823" d="M298.037,244.032c-2.978,0-5.643-2.768-7.163-7.465a.393.393,0,0,1,.748-.242c1.443,4.459,3.895,7.043,6.608,6.917,2.673-.127,4.981-2.828,5.878-6.881a.393.393,0,1,1,.767.17c-.977,4.409-3.571,7.351-6.608,7.5-.076,0-.153.005-.229.005" transform="translate(-139.854 -113.504)" fill="#fff"/>
          <path id="Trazado_923824" data-name="Trazado 923824" d="M349.457,241.39c-3.61,0-7.185-1.41-11.576-4.628a.393.393,0,1,1,.465-.633c9.29,6.808,14.662,5.126,23.907-.026a.393.393,0,1,1,.383.686c-5.188,2.891-9.2,4.6-13.178,4.6" transform="translate(-162.389 -113.503)" fill="#fff"/>
          <rect id="Rectángulo_404477" data-name="Rectángulo 404477" width="100.798" height="19.85" transform="translate(131.947 89.981)" fill="#365268"/>
          <rect id="Rectángulo_404478" data-name="Rectángulo 404478" width="5.186" height="5.186" transform="translate(152.981 97.448)" fill="#4c9fd8"/>
          <rect id="Rectángulo_404479" data-name="Rectángulo 404479" width="5.186" height="5.186" transform="translate(145.858 97.448)" fill="#4c9fd8"/>
          <rect id="Rectángulo_404480" data-name="Rectángulo 404480" width="5.186" height="5.186" transform="translate(138.736 97.448)" fill="#4c9fd8"/>
          <path id="Trazado_923825" data-name="Trazado 923825" d="M324.3,184.431h51.244a4.291,4.291,0,1,1,0,8.582H324.3a4.291,4.291,0,0,1,0-8.582" transform="translate(-153.875 -88.682)" fill="#4c9fd8"/>
          <rect id="Rectángulo_404481" data-name="Rectángulo 404481" width="23.718" height="3.243" transform="translate(170.309 98.419)" fill="#2d3e4f"/>
          <path id="Trazado_923826" data-name="Trazado 923826" d="M420.984,190.3a2.593,2.593,0,1,1,2.593,2.593,2.593,2.593,0,0,1-2.593-2.593" transform="translate(-202.426 -90.254)" fill="#3c86af"/>
          <path id="Trazado_923827" data-name="Trazado 923827" d="M411.133,191.918a.841.841,0,1,1,.841.841.841.841,0,0,1-.841-.841" transform="translate(-197.689 -91.877)" fill="#fff"/>
          <path id="Trazado_923828" data-name="Trazado 923828" d="M399.334,191.195a1.622,1.622,0,1,1,1.622,1.622,1.622,1.622,0,0,1-1.622-1.622" transform="translate(-192.015 -91.154)" fill="#3c86af"/>
          <path id="Trazado_923829" data-name="Trazado 923829" d="M389.038,191.195a1.622,1.622,0,1,1,1.622,1.622,1.622,1.622,0,0,1-1.622-1.622" transform="translate(-187.065 -91.154)" fill="#3c86af"/>
          <path id="Trazado_923830" data-name="Trazado 923830" d="M378.742,191.195a1.622,1.622,0,1,1,1.622,1.622,1.622,1.622,0,0,1-1.622-1.622" transform="translate(-182.114 -91.154)" fill="#3c86af"/>
          <path id="Trazado_923831" data-name="Trazado 923831" d="M280.568,215.628a.393.393,0,0,1-.309-.634c4.768-6.119,9.642-13.6,9.642-22.661a.393.393,0,0,1,.785,0c0,9.3-4.957,16.919-9.807,23.144a.393.393,0,0,1-.31.151" transform="translate(-134.719 -92.293)" fill="#ffc07b"/>
          <path id="Trazado_923832" data-name="Trazado 923832" d="M322.228,218.162a44.383,44.383,0,0,1-14.23-2.6c-13.093-4.572-21.444-13.416-22.341-23.657a.392.392,0,0,1,.357-.425.4.4,0,0,1,.426.357c.868,9.924,9.024,18.516,21.816,22.984,9.793,3.42,20.039,3.385,23.325-.077a.393.393,0,1,1,.569.54c-1.819,1.916-5.442,2.88-9.923,2.88" transform="translate(-137.355 -92.07)" fill="#ffc07b"/>
          <rect id="Rectángulo_404482" data-name="Rectángulo 404482" width="100.798" height="19.85" transform="translate(131.947 169.382)" fill="#365268"/>
          <rect id="Rectángulo_404483" data-name="Rectángulo 404483" width="3.156" height="3.156" transform="translate(222.809 174.543)" fill="#4c9fd8"/>
          <rect id="Rectángulo_404484" data-name="Rectángulo 404484" width="3.156" height="3.156" transform="translate(217.265 174.543)" fill="#4c9fd8"/>
          <rect id="Rectángulo_404485" data-name="Rectángulo 404485" width="3.156" height="3.156" transform="translate(211.722 174.543)" fill="#4c9fd8"/>
          <path id="Trazado_923833" data-name="Trazado 923833" d="M409.76,350.954h10.354a1.945,1.945,0,0,0,0-3.89H409.76a1.945,1.945,0,0,0,0,3.89" transform="translate(-196.093 -166.882)" fill="#2d3e4f"/>
          <rect id="Rectángulo_404486" data-name="Rectángulo 404486" width="3.156" height="3.156" transform="translate(198.478 174.543)" fill="#4c9fd8"/>
          <rect id="Rectángulo_404487" data-name="Rectángulo 404487" width="3.156" height="3.156" transform="translate(192.934 174.543)" fill="#4c9fd8"/>
          <rect id="Rectángulo_404488" data-name="Rectángulo 404488" width="3.156" height="3.156" transform="translate(187.39 174.543)" fill="#4c9fd8"/>
          <path id="Trazado_923834" data-name="Trazado 923834" d="M362.893,350.954h10.354a1.945,1.945,0,1,0,0-3.89H362.893a1.945,1.945,0,0,0,0,3.89" transform="translate(-173.558 -166.882)" fill="#2d3e4f"/>
          <rect id="Rectángulo_404489" data-name="Rectángulo 404489" width="3.156" height="3.156" transform="translate(174.146 174.543)" fill="#4c9fd8"/>
          <rect id="Rectángulo_404490" data-name="Rectángulo 404490" width="3.156" height="3.156" transform="translate(168.602 174.543)" fill="#4c9fd8"/>
          <rect id="Rectángulo_404491" data-name="Rectángulo 404491" width="3.156" height="3.156" transform="translate(163.059 174.543)" fill="#4c9fd8"/>
          <path id="Trazado_923835" data-name="Trazado 923835" d="M316.026,350.954H326.38a1.945,1.945,0,0,0,0-3.89H316.026a1.945,1.945,0,0,0,0,3.89" transform="translate(-151.022 -166.882)" fill="#2d3e4f"/>
          <rect id="Rectángulo_404492" data-name="Rectángulo 404492" width="3.156" height="3.156" transform="translate(149.815 174.543)" fill="#4c9fd8"/>
          <rect id="Rectángulo_404493" data-name="Rectángulo 404493" width="3.156" height="3.156" transform="translate(144.271 174.543)" fill="#4c9fd8"/>
          <rect id="Rectángulo_404494" data-name="Rectángulo 404494" width="3.156" height="3.156" transform="translate(138.727 174.543)" fill="#4c9fd8"/>
          <path id="Trazado_923836" data-name="Trazado 923836" d="M269.159,350.954h10.354a1.945,1.945,0,1,0,0-3.89H269.159a1.945,1.945,0,0,0,0,3.89" transform="translate(-128.487 -166.882)" fill="#2d3e4f"/>
          <path id="Trazado_923837" data-name="Trazado 923837" d="M374.807,344.626c-4.071,0-7.813-1.823-11.46-5.469a.393.393,0,1,1,.555-.556c6.951,6.951,14.3,6.94,23.822-.039a.393.393,0,1,1,.464.634c-4.94,3.62-9.325,5.43-13.381,5.43" transform="translate(-174.656 -162.757)" fill="#fff"/>
          <rect id="Rectángulo_404495" data-name="Rectángulo 404495" width="100.798" height="19.85" transform="translate(131.947 50.281)" fill="#365268"/>
          <path id="Trazado_923838" data-name="Trazado 923838" d="M434.812,116.781a.393.393,0,0,1-.393-.392V104.9a.393.393,0,0,1,.786,0v11.486a.393.393,0,0,1-.393.392" transform="translate(-208.886 -50.252)" fill="#ffc07b"/>
          <path id="Trazado_923839" data-name="Trazado 923839" d="M426.269,116.781a.393.393,0,0,1-.393-.392V104.9a.393.393,0,0,1,.786,0v11.486a.393.393,0,0,1-.393.392" transform="translate(-204.778 -50.252)" fill="#ffc07b"/>
          <path id="Trazado_923840" data-name="Trazado 923840" d="M417.726,116.781a.393.393,0,0,1-.393-.392V104.9a.393.393,0,1,1,.786,0v11.486a.393.393,0,0,1-.393.392" transform="translate(-200.67 -50.252)" fill="#ffc07b"/>
          <path id="Trazado_923841" data-name="Trazado 923841" d="M409.182,116.781a.393.393,0,0,1-.393-.392V104.9a.393.393,0,0,1,.786,0v11.486a.393.393,0,0,1-.393.392" transform="translate(-196.562 -50.252)" fill="#ffc07b"/>
          <path id="Trazado_923842" data-name="Trazado 923842" d="M400.639,116.781a.393.393,0,0,1-.393-.392V104.9a.393.393,0,0,1,.786,0v11.486a.393.393,0,0,1-.393.392" transform="translate(-192.454 -50.252)" fill="#ffc07b"/>
          <path id="Trazado_923843" data-name="Trazado 923843" d="M392.1,116.781a.393.393,0,0,1-.393-.392V104.9a.393.393,0,0,1,.786,0v11.486a.393.393,0,0,1-.393.392" transform="translate(-188.346 -50.252)" fill="#ffc07b"/>
          <path id="Trazado_923844" data-name="Trazado 923844" d="M383.553,116.781a.393.393,0,0,1-.393-.392V104.9a.393.393,0,0,1,.786,0v11.486a.393.393,0,0,1-.393.392" transform="translate(-184.238 -50.252)" fill="#ffc07b"/>
          <path id="Trazado_923845" data-name="Trazado 923845" d="M353.319,115.135a1.29,1.29,0,1,1,1.29,1.29,1.29,1.29,0,0,1-1.29-1.29" transform="translate(-169.89 -54.741)" fill="#fff"/>
          <path id="Trazado_923846" data-name="Trazado 923846" d="M340.666,115.135a1.29,1.29,0,1,1,1.29,1.29,1.29,1.29,0,0,1-1.29-1.29" transform="translate(-163.805 -54.741)" fill="#fff"/>
          <path id="Trazado_923847" data-name="Trazado 923847" d="M328.013,115.135a1.29,1.29,0,1,1,1.29,1.29,1.29,1.29,0,0,1-1.29-1.29" transform="translate(-157.721 -54.741)" fill="#fff"/>
          <path id="Trazado_923848" data-name="Trazado 923848" d="M315.359,115.135a1.29,1.29,0,1,1,1.29,1.29,1.29,1.29,0,0,1-1.29-1.29" transform="translate(-151.637 -54.741)" fill="#fff"/>
          <path id="Trazado_923849" data-name="Trazado 923849" d="M283.795,116.781a.393.393,0,0,1-.393-.392V104.9a.393.393,0,0,1,.786,0v11.486a.393.393,0,0,1-.393.392" transform="translate(-136.271 -50.252)" fill="#ffc07b"/>
          <path id="Trazado_923850" data-name="Trazado 923850" d="M275.252,116.781a.393.393,0,0,1-.393-.392V104.9a.393.393,0,0,1,.786,0v11.486a.393.393,0,0,1-.393.392" transform="translate(-132.163 -50.252)" fill="#ffc07b"/>
          <path id="Trazado_923851" data-name="Trazado 923851" d="M266.709,116.781a.393.393,0,0,1-.393-.392V104.9a.393.393,0,0,1,.786,0v11.486a.393.393,0,0,1-.393.392" transform="translate(-128.055 -50.252)" fill="#ffc07b"/>
          <path id="Trazado_923852" data-name="Trazado 923852" d="M300.976,89.97c-11.344,0-23.162-5.953-29.322-12.329a.392.392,0,1,1,.564-.546c6.819,7.057,20.7,13.587,33,11.789a21.014,21.014,0,0,0,16.4-11.7.393.393,0,0,1,.7.361,22.036,22.036,0,0,1-16.985,12.113,30.061,30.061,0,0,1-4.351.309" transform="translate(-130.568 -37.013)" fill="#ffc07b"/>
          <path id="Trazado_923853" data-name="Trazado 923853" d="M316.134,87.7c-10.02,0-18.478-3.54-23.971-10.075a.393.393,0,0,1,.6-.506c5.68,6.758,14.647,10.226,25.257,9.753,10.2-.45,20.582-4.631,24.148-9.725a.393.393,0,0,1,.644.45c-3.693,5.276-14.336,9.6-24.758,10.06q-.969.043-1.922.043" transform="translate(-140.44 -37.013)" fill="#fff"/>
          <path id="Trazado_923854" data-name="Trazado 923854" d="M331.771,274.83a49.177,49.177,0,0,1-23.645-5.942.393.393,0,0,1,.382-.687c15.5,8.628,35.419,6.948,43.6.043a.393.393,0,0,1,.507.6c-4.424,3.733-12.184,5.985-20.844,5.985" transform="translate(-148.062 -128.938)" fill="#fff"/>
          <path id="Trazado_923855" data-name="Trazado 923855" d="M391.513,288.788a.393.393,0,0,1-.18-.742c10.759-5.516,17.149-11.756,20.109-19.639a.393.393,0,0,1,.735.276c-3.033,8.077-9.543,14.451-20.486,20.061a.389.389,0,0,1-.179.044" transform="translate(-188.066 -128.938)" fill="#fff"/>
          <path id="Trazado_923856" data-name="Trazado 923856" d="M352.75,288.788c-5.856,0-18.6-11.117-19.325-20.212a.393.393,0,0,1,.361-.423.4.4,0,0,1,.422.36c.305,3.839,3.086,8.69,7.438,12.977,3.954,3.894,8.416,6.511,11.1,6.511a.393.393,0,1,1,0,.786" transform="translate(-160.323 -128.938)" fill="#ffc07b"/>
          <rect id="Rectángulo_404496" data-name="Rectángulo 404496" width="10.245" height="228.933" transform="translate(232.746)" fill="#2d3e4f"/>
          <rect id="Rectángulo_404497" data-name="Rectángulo 404497" width="10.245" height="228.933" transform="translate(121.725)" fill="#2d3e4f"/>
          <rect id="Rectángulo_404498" data-name="Rectángulo 404498" width="100.798" height="19.85" transform="translate(131.947 70.131)" fill="#426f8e"/>
          <rect id="Rectángulo_404499" data-name="Rectángulo 404499" width="34.978" height="6.438" transform="translate(183.324 76.667)" fill="#2d3e4f"/>
          <path id="Trazado_923857" data-name="Trazado 923857" d="M428.615,150.893a3.219,3.219,0,1,1,3.219,3.219,3.219,3.219,0,0,1-3.219-3.219" transform="translate(-206.095 -71.007)" fill="#2d3e4f"/>
          <path id="Trazado_923858" data-name="Trazado 923858" d="M311.432,152.68a1.29,1.29,0,1,1,1.29,1.29,1.29,1.29,0,0,1-1.29-1.29" transform="translate(-149.749 -72.794)" fill="#4c9fd8"/>
          <path id="Trazado_923859" data-name="Trazado 923859" d="M298.779,152.68a1.29,1.29,0,1,1,1.29,1.29,1.29,1.29,0,0,1-1.29-1.29" transform="translate(-143.665 -72.794)" fill="#fff"/>
          <path id="Trazado_923860" data-name="Trazado 923860" d="M286.125,152.68a1.29,1.29,0,1,1,1.29,1.29,1.29,1.29,0,0,1-1.29-1.29" transform="translate(-137.58 -72.794)" fill="#4c9fd8"/>
          <path id="Trazado_923861" data-name="Trazado 923861" d="M273.472,152.68a1.29,1.29,0,1,1,1.29,1.29,1.29,1.29,0,0,1-1.29-1.29" transform="translate(-131.496 -72.794)" fill="#fff"/>
          <path id="Trazado_923862" data-name="Trazado 923862" d="M234.378,440.656v5.134h1.552l1.381-5.134Z" transform="translate(-112.698 -211.885)" fill="#365268"/>
          <path id="Trazado_923863" data-name="Trazado 923863" d="M465.346,440.663V445.8h-1.557l-1.376-5.135Z" transform="translate(-222.346 -211.888)" fill="#365268"/>
          <rect id="Rectángulo_404500" data-name="Rectángulo 404500" width="100.798" height="30.426" transform="translate(131.949 193.08)" fill="#365268"/>
          <path id="Trazado_923864" data-name="Trazado 923864" d="M350.449,413.877H264.6a4.271,4.271,0,1,1,0-8.541h85.845a4.271,4.271,0,1,1,0,8.541" transform="translate(-125.178 -194.901)" fill="#4c9fd8"/>
          <rect id="Rectángulo_404501" data-name="Rectángulo 404501" width="31.911" height="4.285" transform="translate(139.188 212.563)" fill="#426f8e"/>
          <rect id="Rectángulo_404502" data-name="Rectángulo 404502" width="4.285" height="4.285" transform="translate(220.669 212.563)" fill="#426f8e"/>
          <rect id="Rectángulo_404503" data-name="Rectángulo 404503" width="4.285" height="4.285" transform="translate(213.678 212.563)" fill="#426f8e"/>
          <rect id="Rectángulo_404504" data-name="Rectángulo 404504" width="4.285" height="4.285" transform="translate(206.686 212.563)" fill="#426f8e"/>
          <path id="Trazado_923865" data-name="Trazado 923865" d="M334.476,412.62a1.017,1.017,0,1,1-1.018-1.018,1.018,1.018,0,0,1,1.018,1.018" transform="translate(-159.851 -197.914)" fill="#fff"/>
          <path id="Trazado_923866" data-name="Trazado 923866" d="M343.232,412.62a1.017,1.017,0,1,1-1.018-1.018,1.018,1.018,0,0,1,1.018,1.018" transform="translate(-164.061 -197.914)" fill="#fff"/>
          <path id="Trazado_923867" data-name="Trazado 923867" d="M351.987,412.62a1.017,1.017,0,1,1-1.018-1.018,1.018,1.018,0,0,1,1.018,1.018" transform="translate(-168.271 -197.914)" fill="#fff"/>
          <rect id="Rectángulo_404505" data-name="Rectángulo 404505" width="19.039" height="4.285" transform="translate(185.484 212.563)" fill="#2d3e4f"/>
          <path id="Trazado_923868" data-name="Trazado 923868" d="M356.914,413.749a.393.393,0,0,1-.393-.393v-4.285a.393.393,0,0,1,.786,0v4.285a.393.393,0,0,1-.393.393" transform="translate(-171.429 -196.508)" fill="#ffc07b"/>
          <path id="Trazado_923869" data-name="Trazado 923869" d="M360.388,413.749a.393.393,0,0,1-.393-.393v-4.285a.393.393,0,1,1,.786,0v4.285a.393.393,0,0,1-.393.393" transform="translate(-173.1 -196.508)" fill="#ffc07b"/>
          <path id="Trazado_923870" data-name="Trazado 923870" d="M363.864,413.749a.393.393,0,0,1-.393-.393v-4.285a.393.393,0,1,1,.786,0v4.285a.393.393,0,0,1-.393.393" transform="translate(-174.771 -196.508)" fill="#ffc07b"/>
          <path id="Trazado_923871" data-name="Trazado 923871" d="M367.339,413.749a.393.393,0,0,1-.393-.393v-4.285a.393.393,0,0,1,.786,0v4.285a.393.393,0,0,1-.393.393" transform="translate(-176.442 -196.508)" fill="#ffc07b"/>
          <path id="Trazado_923872" data-name="Trazado 923872" d="M350.449,391.072H264.6a4.271,4.271,0,0,1,0-8.541h85.845a4.271,4.271,0,1,1,0,8.541" transform="translate(-125.178 -183.936)" fill="#4c9fd8"/>
          <rect id="Rectángulo_404506" data-name="Rectángulo 404506" width="31.911" height="4.285" transform="translate(139.188 200.723)" fill="#426f8e"/>
          <rect id="Rectángulo_404507" data-name="Rectángulo 404507" width="4.285" height="4.285" transform="translate(220.669 200.723)" fill="#426f8e"/>
          <rect id="Rectángulo_404508" data-name="Rectángulo 404508" width="4.285" height="4.285" transform="translate(213.678 200.723)" fill="#426f8e"/>
          <rect id="Rectángulo_404509" data-name="Rectángulo 404509" width="4.285" height="4.285" transform="translate(206.686 200.723)" fill="#426f8e"/>
          <path id="Trazado_923873" data-name="Trazado 923873" d="M334.476,389.815a1.017,1.017,0,1,1-1.018-1.018,1.018,1.018,0,0,1,1.018,1.018" transform="translate(-159.851 -186.949)" fill="#fff"/>
          <path id="Trazado_923874" data-name="Trazado 923874" d="M343.232,389.815a1.017,1.017,0,1,1-1.018-1.018,1.018,1.018,0,0,1,1.018,1.018" transform="translate(-164.061 -186.949)" fill="#fff"/>
          <path id="Trazado_923875" data-name="Trazado 923875" d="M351.987,389.815a1.017,1.017,0,1,1-1.018-1.018,1.018,1.018,0,0,1,1.018,1.018" transform="translate(-168.271 -186.949)" fill="#fff"/>
          <rect id="Rectángulo_404510" data-name="Rectángulo 404510" width="19.039" height="4.285" transform="translate(185.484 200.723)" fill="#2d3e4f"/>
          <path id="Trazado_923876" data-name="Trazado 923876" d="M356.914,390.944a.393.393,0,0,1-.393-.393v-4.285a.393.393,0,1,1,.786,0v4.285a.393.393,0,0,1-.393.393" transform="translate(-171.429 -185.543)" fill="#ffc07b"/>
          <path id="Trazado_923877" data-name="Trazado 923877" d="M360.388,390.944a.393.393,0,0,1-.393-.393v-4.285a.393.393,0,1,1,.786,0v4.285a.393.393,0,0,1-.393.393" transform="translate(-173.1 -185.543)" fill="#ffc07b"/>
          <path id="Trazado_923878" data-name="Trazado 923878" d="M363.864,390.944a.393.393,0,0,1-.393-.393v-4.285a.393.393,0,1,1,.786,0v4.285a.393.393,0,0,1-.393.393" transform="translate(-174.771 -185.543)" fill="#ffc07b"/>
          <path id="Trazado_923879" data-name="Trazado 923879" d="M370.868,390.944a.393.393,0,0,1-.393-.393v-4.285a.393.393,0,1,1,.786,0v4.285a.393.393,0,0,1-.393.393" transform="translate(-178.139 -185.543)" fill="#ffc07b"/>
          <path id="Trazado_923880" data-name="Trazado 923880" d="M367.339,390.944a.393.393,0,0,1-.393-.393v-4.285a.393.393,0,0,1,.786,0v4.285a.393.393,0,0,1-.393.393" transform="translate(-176.442 -185.543)" fill="#ffc07b"/>
          <rect id="Rectángulo_404511" data-name="Rectángulo 404511" width="100.798" height="30.426" transform="translate(131.966 0.001)" fill="#365268"/>
          <path id="Trazado_923881" data-name="Trazado 923881" d="M350.481,41.022H264.636a4.271,4.271,0,1,1,0-8.541h85.845a4.271,4.271,0,1,1,0,8.541" transform="translate(-125.194 -15.618)" fill="#4c9fd8"/>
          <rect id="Rectángulo_404512" data-name="Rectángulo 404512" width="31.911" height="4.285" transform="translate(139.205 18.991)" fill="#426f8e"/>
          <rect id="Rectángulo_404513" data-name="Rectángulo 404513" width="4.285" height="4.285" transform="translate(220.685 18.991)" fill="#426f8e"/>
          <rect id="Rectángulo_404514" data-name="Rectángulo 404514" width="4.285" height="4.285" transform="translate(213.694 18.991)" fill="#426f8e"/>
          <rect id="Rectángulo_404515" data-name="Rectángulo 404515" width="4.285" height="4.285" transform="translate(206.703 18.991)" fill="#426f8e"/>
          <path id="Trazado_923882" data-name="Trazado 923882" d="M334.508,39.764a1.017,1.017,0,1,1-1.018-1.018,1.018,1.018,0,0,1,1.018,1.018" transform="translate(-159.866 -18.631)" fill="#fff"/>
          <path id="Trazado_923883" data-name="Trazado 923883" d="M343.264,39.764a1.017,1.017,0,1,1-1.018-1.018,1.018,1.018,0,0,1,1.018,1.018" transform="translate(-164.076 -18.631)" fill="#fff"/>
          <path id="Trazado_923884" data-name="Trazado 923884" d="M352.02,39.764A1.017,1.017,0,1,1,351,38.746a1.018,1.018,0,0,1,1.018,1.018" transform="translate(-168.286 -18.631)" fill="#fff"/>
          <rect id="Rectángulo_404516" data-name="Rectángulo 404516" width="19.039" height="4.285" transform="translate(185.501 18.991)" fill="#2d3e4f"/>
          <path id="Trazado_923885" data-name="Trazado 923885" d="M356.946,40.893a.393.393,0,0,1-.393-.392V36.215a.393.393,0,0,1,.786,0V40.5a.393.393,0,0,1-.393.392" transform="translate(-171.445 -17.225)" fill="#ffc07b"/>
          <path id="Trazado_923886" data-name="Trazado 923886" d="M360.421,40.893a.393.393,0,0,1-.393-.392V36.215a.393.393,0,0,1,.786,0V40.5a.393.393,0,0,1-.393.392" transform="translate(-173.116 -17.225)" fill="#ffc07b"/>
          <path id="Trazado_923887" data-name="Trazado 923887" d="M350.481,18.216H264.636a4.271,4.271,0,1,1,0-8.541h85.845a4.271,4.271,0,1,1,0,8.541" transform="translate(-125.194 -4.652)" fill="#4c9fd8"/>
          <rect id="Rectángulo_404517" data-name="Rectángulo 404517" width="31.911" height="4.285" transform="translate(139.205 7.151)" fill="#426f8e"/>
          <rect id="Rectángulo_404518" data-name="Rectángulo 404518" width="4.285" height="4.285" transform="translate(220.685 7.151)" fill="#426f8e"/>
          <rect id="Rectángulo_404519" data-name="Rectángulo 404519" width="4.285" height="4.285" transform="translate(213.694 7.151)" fill="#426f8e"/>
          <rect id="Rectángulo_404520" data-name="Rectángulo 404520" width="4.285" height="4.285" transform="translate(206.703 7.151)" fill="#426f8e"/>
          <path id="Trazado_923888" data-name="Trazado 923888" d="M334.508,16.959a1.017,1.017,0,1,1-1.018-1.018,1.018,1.018,0,0,1,1.018,1.018" transform="translate(-159.866 -7.665)" fill="#fff"/>
          <path id="Trazado_923889" data-name="Trazado 923889" d="M343.264,16.959a1.017,1.017,0,1,1-1.018-1.018,1.018,1.018,0,0,1,1.018,1.018" transform="translate(-164.076 -7.665)" fill="#fff"/>
          <path id="Trazado_923890" data-name="Trazado 923890" d="M352.02,16.959A1.017,1.017,0,1,1,351,15.941a1.018,1.018,0,0,1,1.018,1.018" transform="translate(-168.286 -7.665)" fill="#fff"/>
          <rect id="Rectángulo_404521" data-name="Rectángulo 404521" width="19.039" height="4.285" transform="translate(185.501 7.151)" fill="#2d3e4f"/>
          <path id="Trazado_923891" data-name="Trazado 923891" d="M356.946,18.088a.393.393,0,0,1-.393-.392V13.41a.393.393,0,0,1,.786,0V17.7a.393.393,0,0,1-.393.392" transform="translate(-171.445 -6.26)" fill="#ffc07b"/>
          <path id="Trazado_923892" data-name="Trazado 923892" d="M360.421,18.088a.393.393,0,0,1-.393-.392V13.41a.393.393,0,0,1,.786,0V17.7a.393.393,0,0,1-.393.392" transform="translate(-173.116 -6.26)" fill="#ffc07b"/>
          <path id="Trazado_923893" data-name="Trazado 923893" d="M363.9,18.088a.393.393,0,0,1-.393-.392V13.41a.393.393,0,0,1,.786,0V17.7a.393.393,0,0,1-.393.392" transform="translate(-174.786 -6.26)" fill="#ffc07b"/>
          <path id="Trazado_923894" data-name="Trazado 923894" d="M367.372,18.088a.393.393,0,0,1-.393-.392V13.41a.393.393,0,0,1,.786,0V17.7a.393.393,0,0,1-.393.392" transform="translate(-176.458 -6.26)" fill="#ffc07b"/>
          <path id="Trazado_923895" data-name="Trazado 923895" d="M370.547,18.088a.393.393,0,0,1-.393-.392V13.41a.393.393,0,0,1,.786,0V17.7a.393.393,0,0,1-.393.392" transform="translate(-177.985 -6.26)" fill="#ffc07b"/>
          <path id="Trazado_923896" data-name="Trazado 923896" d="M373.48,18.088a.393.393,0,0,1-.393-.392V13.41a.393.393,0,0,1,.786,0V17.7a.393.393,0,0,1-.393.392" transform="translate(-179.395 -6.26)" fill="#ffc07b"/>
          <rect id="Rectángulo_404522" data-name="Rectángulo 404522" width="100.798" height="3.834" transform="translate(131.949 189.246)" fill="#2d3e4f"/>
          <rect id="Rectángulo_404523" data-name="Rectángulo 404523" width="100.798" height="5.626" transform="translate(131.949 223.279)" fill="#2d3e4f"/>
          <path id="Trazado_923897" data-name="Trazado 923897" d="M135.248,251.557h41.168l8.355-28.326a2.565,2.565,0,0,0-2.46-3.29H146.491a2.564,2.564,0,0,0-2.46,1.839Z" transform="translate(-65.033 -105.756)" fill="#2f81b7"/>
          <path id="Trazado_923898" data-name="Trazado 923898" d="M140.5,251.431h36.726l8.319-28.2H148.815Z" transform="translate(-67.556 -107.336)" fill="#365268"/>
          <rect id="Rectángulo_404524" data-name="Rectángulo 404524" width="54.631" height="2.388" transform="translate(56.824 143.412)" fill="#6892af"/>
          <rect id="Rectángulo_404525" data-name="Rectángulo 404525" width="17.486" height="2.388" transform="translate(94.14 143.412)" fill="#517693"/>
          <path id="Trazado_923899" data-name="Trazado 923899" d="M191.747,230.8h-29a.262.262,0,0,1,0-.524h29a.262.262,0,0,1,0,.524" transform="translate(-78.13 -110.728)" fill="#fff"/>
          <path id="Trazado_923900" data-name="Trazado 923900" d="M188.79,238.69h-29a.262.262,0,0,1,0-.524h29a.262.262,0,0,1,0,.524" transform="translate(-76.708 -114.52)" fill="#fff"/>
          <path id="Trazado_923901" data-name="Trazado 923901" d="M185.833,246.576h-29a.262.262,0,0,1,0-.524h29a.262.262,0,0,1,0,.524" transform="translate(-75.286 -118.311)" fill="#fff"/>
          <path id="Trazado_923902" data-name="Trazado 923902" d="M153.876,254.468a.265.265,0,0,1-.186-.078.3.3,0,0,1-.058-.083.369.369,0,0,1-.021-.1.263.263,0,0,1,.078-.182.266.266,0,0,1,.369,0,.245.245,0,0,1,.077.182.247.247,0,0,1-.021.1.216.216,0,0,1-.057.083.241.241,0,0,1-.083.057.338.338,0,0,1-.1.021" transform="translate(-73.862 -122.108)" fill="#fff"/>
          <path id="Trazado_923903" data-name="Trazado 923903" d="M166.8,254.2a.26.26,0,0,1,.519,0,.26.26,0,1,1-.519,0m-3.364,0a.261.261,0,0,1,.265-.26.257.257,0,0,1,.26.26.261.261,0,0,1-.26.265.266.266,0,0,1-.265-.265m-3.359,0a.261.261,0,0,1,.265-.26.257.257,0,0,1,.26.26.261.261,0,0,1-.26.265.266.266,0,0,1-.265-.265" transform="translate(-76.973 -122.104)" fill="#fff"/>
          <path id="Trazado_923904" data-name="Trazado 923904" d="M179.761,254.466a.3.3,0,0,1-.1-.021.239.239,0,0,1-.084-.057.23.23,0,0,1-.057-.083.24.24,0,0,1-.021-.1.243.243,0,0,1,.078-.182.186.186,0,0,1,.084-.057.26.26,0,0,1,.2,0,.233.233,0,0,1,.088.057.265.265,0,0,1,.078.182.351.351,0,0,1-.021.1.472.472,0,0,1-.058.083.318.318,0,0,1-.088.057.31.31,0,0,1-.1.021" transform="translate(-86.311 -122.105)" fill="#fff"/>
          <path id="Trazado_923905" data-name="Trazado 923905" d="M240.823,302.248a44.123,44.123,0,0,1-6.769-.548c-8.687-1.343-11.673-7.7-14.308-13.309-2.515-5.354-4.677-9.986-11.08-9.738a.393.393,0,1,1-.03-.785c6.912-.258,9.3,4.816,11.821,10.189,2.676,5.7,5.443,11.588,13.716,12.868,10.362,1.6,16.83-.673,20.432-2.864a15.181,15.181,0,0,0,5.384-5.179.393.393,0,0,1,.7.36c-.053.1-4.841,9-19.863,9.006" transform="translate(-100.138 -133.605)" fill="#ffc07b"/>
          <path id="Trazado_923906" data-name="Trazado 923906" d="M239.567,294.381a20.383,20.383,0,0,1-3.125-.248c-8.567-1.324-12.209-6.789-15.422-11.609-3.14-4.712-5.858-8.782-12.355-8.538a.393.393,0,1,1-.029-.785c6.944-.258,9.9,4.182,13.038,8.887,3.275,4.915,6.662,10,14.887,11.269a16.055,16.055,0,0,0,12.583-2.943c8.862-6.688,10.84-21.767,10.859-21.918a.393.393,0,0,1,.78.1,47.92,47.92,0,0,1-2.113,8.6c-1.492,4.329-4.274,10.246-9.052,13.852a16.3,16.3,0,0,1-10.051,3.34" transform="translate(-100.138 -128.938)" fill="#ffc07b"/>
          <path id="Trazado_923907" data-name="Trazado 923907" d="M107.428,195.388l7.593,6.425,1.986-8.064L115,182.01l-8.9,2.681Z" transform="translate(-51.019 -87.518)" fill="#efbd9c"/>
          <path id="Trazado_923908" data-name="Trazado 923908" d="M102.222,169.775c.909,5.315,7.085,9.286,11.1,8.6s4.351-5.772,3.441-11.087-4.893-9.018-8.917-8.38c-5.643.894-6.534,5.552-5.625,10.868" transform="translate(-49.005 -76.374)" fill="#efbd9c"/>
          <path id="Trazado_923909" data-name="Trazado 923909" d="M96.859,163.7c-.769-4.927,3.082-7.65,4.735-7.515,1.778.146,2.076-1.118,3.9-1.6,1.629-.433,2.991.214,4.576-.1a3.165,3.165,0,0,1,3.822,1.766c.751,1.859-.608,3.365-.317,4.779.3,1.469-1.661,2.3-1.694,2.641-.069.713,1.153,2.722,1.109,3.074s-.272.608-.532.568a5.515,5.515,0,0,1-1.107-.661,2.636,2.636,0,0,0-.387,3.278c.719,1.268-1.461,4.43-2.548,5.058-.943.545-4.649.873-6.227,1.08-1.121.147-4.426-6.591-5.328-12.366" transform="translate(-46.525 -74.237)" fill="#2d1c12"/>
          <path id="Trazado_923910" data-name="Trazado 923910" d="M122.035,179.244c-.418-1.239-.181-2.437.529-2.677s1.625.571,2.043,1.809.182,2.437-.529,2.677-1.625-.571-2.043-1.809" transform="translate(-58.58 -84.88)" fill="#efbb95"/>
          <rect id="Rectángulo_404526" data-name="Rectángulo 404526" width="4.607" height="0.262" transform="translate(63.761 91.583) rotate(-8.211)" fill="#fff"/>
          <path id="Trazado_923911" data-name="Trazado 923911" d="M130.526,175.712l-.04-.259c.308-.049.434-.593.313-1.354a1.805,1.805,0,0,0-.543-1.168.251.251,0,0,0-.211-.043l-.07-.253a.515.515,0,0,1,.423.076,2.017,2.017,0,0,1,.659,1.347c.15.944-.053,1.578-.531,1.654" transform="translate(-62.497 -83.002)" fill="#2d1c12"/>
          <path id="Trazado_923912" data-name="Trazado 923912" d="M11.607,424.891l1.554-6.361L34.374,420.6l-11.616,6.211Z" transform="translate(-5.581 -201.246)" fill="#efbd9c"/>
          <path id="Trazado_923913" data-name="Trazado 923913" d="M7.862,424.4c-1.564,1.132-2.4,3.812-3.594,5.617a14.162,14.162,0,0,1-2.448,2.927,1.111,1.111,0,0,1-1.8-1.044l2.551-15.084a1.11,1.11,0,0,1,1.33-.9l5.381,1.17A8.076,8.076,0,0,0,7.862,424.4" transform="translate(0 -199.975)" fill="#d6e8ed"/>
          <path id="Trazado_923914" data-name="Trazado 923914" d="M176.529,429.22l-6.2-.171-1.393-12.371,6.382.382Z" transform="translate(-81.232 -200.355)" fill="#efbd9c"/>
          <path id="Trazado_923915" data-name="Trazado 923915" d="M177.658,437.963c1.369,1.361,4.149,1.751,6.124,2.639a14.161,14.161,0,0,1,3.284,1.943,1.111,1.111,0,0,1-.739,1.948l-15.3-.082a1.11,1.11,0,0,1-1.1-1.168l.286-5.5a8.074,8.074,0,0,0,7.446.218" transform="translate(-81.707 -210.485)" fill="#d6e8ed"/>
          <path id="Trazado_923916" data-name="Trazado 923916" d="M22.616,371.918l33.028,1.638s-5.382-24.581-6.095-32.841a149.563,149.563,0,0,1-.292-17.567l22.134,3.838c.6,6.548.484,17.958.484,17.958s.938,40.009-8.1,43.079-42-6.544-42-6.544Z" transform="translate(-10.468 -155.382)" fill="#276c93"/>
          <path id="Trazado_923917" data-name="Trazado 923917" d="M51.955,393.975a82.409,82.409,0,0,1-11.569-.988c-9.042-1.314-17.539-3.522-17.623-3.544l.066-.252c.241.063,17.434,4.506,29.138,4.507,4.672,0,8.468-.708,9.965-2.684,6.767-8.934-2.465-41.84-2.559-42.171l.25-.071a173.3,173.3,0,0,1,3.854,17.749c1.989,12.558,1.54,20.851-1.338,24.65-1.415,1.867-4.827,2.8-10.183,2.8" transform="translate(-10.945 -167.704)" fill="#3b8596"/>
          <path id="Trazado_923918" data-name="Trazado 923918" d="M103.758,323.553c.234.072,18.92-2.687,23,2.368,6.817,8.44,5.2,53.582,5.2,53.582a11.53,11.53,0,0,1-9.667.8l-5.34-39.606S92.9,347.1,83.8,342.779c-7.354-3.493-10.237-11.075-9.256-18.752Z" transform="translate(-35.754 -155.247)" fill="#2f81b7"/>
          <path id="Trazado_923919" data-name="Trazado 923919" d="M133.873,382.016l-.26,0c.233-15.146-2.883-42.36-7.162-47.3-2.17-2.5-7.284-1.076-13.209.576-5.821,1.623-12.42,3.464-17.737,1.944-9.671-2.763-8.137-11.646-8.121-11.736l.255.048a10.869,10.869,0,0,0,.388,4.705c.721,2.294,2.615,5.323,7.549,6.734,5.246,1.5,11.808-.331,17.6-1.945,6.009-1.676,11.2-3.122,13.474-.5,4.316,4.979,7.459,32.288,7.226,47.472" transform="translate(-41.971 -156.513)" fill="#4e9aaf"/>
          <path id="Trazado_923920" data-name="Trazado 923920" d="M114.386,233.259l5.817,16.195,9.723-1.876s-23.3-3.589-25.947-10.818c-2.243-6.128-14.126-16.9-14.126-16.9l8.024.219Z" transform="translate(-43.205 -105.715)" fill="#dd7c62"/>
          <path id="Trazado_923921" data-name="Trazado 923921" d="M108.931,265.191c1.522-2.368-.707-36.532-.395-42.3.27-5,2.426-10.891-.451-14.364-1.324-1.6-4.247-2.9-7.446-3.152a69.718,69.718,0,0,0-9.382.216c-2.673.274-7.866,2.513-9.9,4.712s-4.165,7.551-4.688,14.3c-.64,8.255-1.015,15.516-1.5,20.638-.561,5.987-2.987,20.862-1.935,22.318,1.1,1.522,8.573,3.757,17.337,1.691,8.966-2.114,16.829-1.691,18.351-4.059" transform="translate(-35.093 -98.717)" fill="#ef8e70"/>
          <path id="Trazado_923922" data-name="Trazado 923922" d="M138.171,231.277l-3.7-3.065,4.166,15.805c-.212-3.739-.577-10.735-.52-11.821.016-.3.033-.6.052-.92" transform="translate(-64.66 -109.733)" fill="#dd7c62"/>
          <path id="Trazado_923923" data-name="Trazado 923923" d="M133.932,264.082l-4.176-15.289-4.606-5.479s-1.338,17.294,3.4,24.793C131.354,272.55,134,271.8,134,271.8Z" transform="translate(-60.093 -116.994)" fill="#dd7c62"/>
          <path id="Trazado_923924" data-name="Trazado 923924" d="M180.513,271.638c-.146-.608-.367-1.256-.493-1.763a5.24,5.24,0,0,0-4.663-3.071c-1.82.227-8.643,3.867-8.643,3.867l1.005.967Z" transform="translate(-80.163 -128.281)" fill="#efbd9c"/>
          <path id="Trazado_923925" data-name="Trazado 923925" d="M125.312,227.243s.272,19.37,5.088,25.334c5.728,7.094,21.979-7.252,21.979-7.252.163-2.935-1.591-4.829-4.208-6.255L138.049,241.8s-.093-19.7-1.418-24.494a17.135,17.135,0,0,0-4.229-7.414Z" transform="translate(-60.255 -100.924)" fill="#ef8e70"/>
          <path id="Trazado_923926" data-name="Trazado 923926" d="M106.345,204.267l.818-1.062a17.526,17.526,0,0,1,5.223-.9,19.344,19.344,0,0,1,4.553.668l.465,1.058a63.455,63.455,0,0,0-11.06.236" transform="translate(-51.135 -97.274)" fill="#ffddd4"/>
          <path id="Trazado_923927" data-name="Trazado 923927" d="M172.006,278.079a.331.331,0,1,1-.411-.224.331.331,0,0,1,.411.224" transform="translate(-82.396 -133.597)" fill="#fff"/>
          <path id="Trazado_923928" data-name="Trazado 923928" d="M174.491,276.713a.331.331,0,1,1-.411-.224.331.331,0,0,1,.411.224" transform="translate(-83.591 -132.941)" fill="#fff"/>
        </g>
      </g>
    </g>
  </g>
</svg>
