<svg id="img13" xmlns="http://www.w3.org/2000/svg" xmlns:xlink="http://www.w3.org/1999/xlink" width="403.051" height="531.461" viewBox="0 0 403.051 531.461">
  <defs>
    <clipPath id="clip-path">
      <rect id="Rectángulo_403842" data-name="Rectángulo 403842" width="403.051" height="531.461" fill="none"/>
    </clipPath>
    <clipPath id="clip-path-2">
      <rect id="Rectángulo_403841" data-name="Rectángulo 403841" width="403.051" height="531.462" fill="none"/>
    </clipPath>
    <clipPath id="clip-path-3">
      <rect id="Rectángulo_403839" data-name="Rectángulo 403839" width="8.619" height="8.619" fill="none"/>
    </clipPath>
  </defs>
  <g id="Grupo_1102727" data-name="Grupo 1102727" clip-path="url(#clip-path)">
    <g id="Grupo_1102726" data-name="Grupo 1102726" transform="translate(0 -0.002)">
      <g id="Grupo_1102725" data-name="Grupo 1102725" clip-path="url(#clip-path-2)">
        <path id="Trazado_919417" data-name="Trazado 919417" d="M66.563,130.046C68.734,126.428,111.569,4.874,127.04.655s225.029,12.658,240.5,26.722-7.032,140.643-1.407,147.675,40.787,25.316,36.567,77.354S366.133,433.835,281.747,466.183s-232.061-25.316-241.906-43.6-56.257-218-33.754-251.751,47.819-19.69,60.477-40.786" transform="translate(0 0.004)" fill="#ebf6ea"/>
        <path id="Trazado_919418" data-name="Trazado 919418" d="M611.145,1246.413c0,2.583-34.413,2.827-76.866,2.827s-76.87-.244-76.87-2.827,34.828-3.132,77.282-3.132,76.455.549,76.455,3.132" transform="translate(-265.292 -721.088)" fill="#847895"/>
        <path id="Trazado_919419" data-name="Trazado 919419" d="M780.714,1182.663s-.946,23.8-1.361,29.255c-.055.722-6.094.514-6.349-.131-.793-2.011-5.433-29.123-5.433-29.123Z" transform="translate(-445.183 -685.93)" fill="#9aacae"/>
        <path id="Trazado_919420" data-name="Trazado 919420" d="M471.894,543.048H609.233c4.258-.055,1.475-451.721-.983-452.786C602.624,86.042,559.176,79.9,550.737,79.9c-4.417.308-82.362,10.036-82.362,10.036Z" transform="translate(-271.652 -46.339)" fill="#9aacae"/>
        <path id="Trazado_919421" data-name="Trazado 919421" d="M682.9,1182.663s.946,23.8,1.361,29.255c.055.722,6.094.514,6.349-.131.793-2.011,5.433-29.123,5.433-29.123Z" transform="translate(-396.074 -685.93)" fill="#9aacae"/>
        <path id="Trazado_919422" data-name="Trazado 919422" d="M472.3,1182.663s.946,23.8,1.361,29.255c.055.722,6.094.514,6.349-.131.793-2.011,5.433-29.123,5.433-29.123Z" transform="translate(-273.929 -685.93)" fill="#c8d2d3"/>
        <path id="Trazado_919423" data-name="Trazado 919423" d="M645.759,1182.663s-.946,23.8-1.361,29.255c-.055.722-6.094.514-6.349-.131-.793-2.011-5.433-29.123-5.433-29.123Z" transform="translate(-366.911 -685.93)" fill="#c8d2d3"/>
        <path id="Trazado_919424" data-name="Trazado 919424" d="M464.087,89.977c-.01,1.557,3.519,453.113,3.519,453.113h80.409V79.929c-22.547,2.2-83.917,8.49-83.927,10.048" transform="translate(-269.165 -46.356)" fill="#c8d2d3"/>
        <path id="Trazado_919425" data-name="Trazado 919425" d="M480.447,543.5s64.026,0,65.418-2.784-1.392-431.483-2.088-434.963-65.418,2.784-66.81,6.263,3.48,431.484,3.48,431.484" transform="translate(-276.491 -60.745)" fill="#292931"/>
        <path id="Trazado_919426" data-name="Trazado 919426" d="M551.233,603.568c-.67-2.627-2.862-4.244-5.308-5.126-.351-.126-.7-.236-1.061-.336.015-.016.033-.029.048-.046a5.165,5.165,0,0,0,1.465-2.953,4.849,4.849,0,0,0-1.215-3.589,9.844,9.844,0,0,0-1.8-1.645c.281-1.178.526-2.361.732-3.536a52.5,52.5,0,0,0-1.094-23.081c-1.9-6.821-5.474-13.649-11.945-17.1a16.817,16.817,0,0,0-4.789-1.705c.3-1.092.6-2.186.85-3.291a49.608,49.608,0,0,0,1.059-7.68c.346-5.312.079-10.651-.066-15.967-.147-5.363-.26-10.934-2.735-15.825-.267-.527-1.059-.063-.793.463,2.2,4.347,2.437,9.309,2.574,14.086.147,5.122.394,10.263.2,15.386a53.883,53.883,0,0,1-.814,7.795c-.308,1.653-.749,3.271-1.19,4.89-.321-.041-.644-.071-.968-.091a37.879,37.879,0,0,0,1.237-4.4,49.983,49.983,0,0,0,.071-19.444,69.548,69.548,0,0,0-7.753-21.1c-.287-.517-1.08-.054-.793.463,6.5,11.713,10.359,25.72,7.739,39.1a40.992,40.992,0,0,1-1.434,5.351,14.165,14.165,0,0,0-2.2.167,17.3,17.3,0,0,0-8.4,4.1,24.774,24.774,0,0,0-3.429,3.6q-.259-.239-.517-.48c-4.469-4.209-5.721-10.4-7.085-16.157a169.39,169.39,0,0,1-3.226-18.147c-.675-5.431-1.116-10.885-1.4-16.349.536-1.383,1.113-2.751,1.748-4.1a54.1,54.1,0,0,1,6.5-10.585,48.127,48.127,0,0,1,9.132-8.712c3.476-2.574,7.158-4.961,10.108-8.162a8.238,8.238,0,0,0,1.6-2.252,5.879,5.879,0,0,0,.225-3.209,7.613,7.613,0,0,1,1.389-5.714,7.226,7.226,0,0,1,2.174-1.909.459.459,0,0,0-.464-.793,8.305,8.305,0,0,0-3.548,4.122,8.068,8.068,0,0,0-.574,2.7c-.042,1.154.332,2.294.218,3.446a5.515,5.515,0,0,1-1.754,3.056,31.084,31.084,0,0,1-2.413,2.31c-1.76,1.523-3.654,2.88-5.539,4.241a56.933,56.933,0,0,0-9.736,8.473,52.787,52.787,0,0,0-7.086,10.462q-1.14,2.192-2.09,4.461c-.265-5.9-.356-11.8-.346-17.7.021-12.311.743-24.635.54-36.944a95.316,95.316,0,0,0-1.857-17.571c-1.231-6.026-2.88-11.962-3.908-18.029-2.1-12.394-1.893-25.038-1.151-37.543,1.481-24.952,3.524-49.9,8.671-74.391,4.92-23.419,11.419-46.992,10.564-71.135q-.162-4.562-.693-9.1c-.067-.58-.986-.587-.918,0,2.838,24.55-3.038,48.807-8.254,72.629-2.615,11.941-4.941,23.91-6.413,36.051-1.5,12.384-2.386,24.835-3.291,37.274s-1.662,24.965-.554,37.419a128.11,128.11,0,0,0,2.879,17.414c1.424,6.183,2.969,12.344,3.574,18.675,1.173,12.275.14,24.772-.037,37.077-.133,9.3-.108,18.618.378,27.91a84.827,84.827,0,0,0-4.7,19.58,197.8,197.8,0,0,0-1.194,30.389,136.149,136.149,0,0,0,1.191,15.066,39.393,39.393,0,0,0,1.245,6.543c.1.314.215.63.339.942a3.739,3.739,0,0,0-1.205.441c-3.351,1.962-3.723,6.944-3.484,10.39a13.936,13.936,0,0,0,2.793,7.776,27.749,27.749,0,0,0-1.755,5.331,9.153,9.153,0,0,0,.556,6.035,6.882,6.882,0,0,0,3.658,3.161,4.48,4.48,0,0,0,4.306-.541,5.351,5.351,0,0,0,1.439-1.8c3.245,2.724,8.6,2.87,12.536,3.053a91.152,91.152,0,0,0,20.742-1.42c.564-.1,1.126-.225,1.688-.34a57.722,57.722,0,0,0,16.5-1.26.466.466,0,0,0,.321-.564m-5.852-9.735a3.643,3.643,0,0,1-.651,3.016,6.551,6.551,0,0,1-.892,1,23.828,23.828,0,0,0-3.02-.435c.021-.044.045-.087.065-.131a38.991,38.991,0,0,0,2.241-6.436,5.694,5.694,0,0,1,2.258,2.982m-37.011-.109q1.3-.641,2.607-1.269c.118.164.246.324.371.485-.972.239-1.952.5-2.917.8l-.06-.016m11.443-19.11a.466.466,0,0,0,0,.649l1.785,1.847a.464.464,0,0,0,.721-.093c.583-.986,1.176-2,1.74-3.037a6.705,6.705,0,0,1,1.2.145c.175.464.352.928.513,1.4.191.556,1.078.317.885-.244-.095-.276-.2-.548-.3-.822a7.483,7.483,0,0,1,1.733.942c2.617,1.922,3.615,5.389,4.138,8.435.126.736.237,1.492.316,2.255a27.985,27.985,0,0,0-4.123-.026c-5.718.386-11.087,2.416-16.256,4.815a25.023,25.023,0,0,1-2.247-2.234,22.38,22.38,0,0,1-.789-12.618c1.2-5.949,4.215-11.2,7.322-16.332a45.208,45.208,0,0,1,5.975,8.3q.991,1.771,1.81,3.621c-.233.489-.477.974-.729,1.452h0a5.747,5.747,0,0,0-3.693,1.552m3.159-.565c-.374.674-.758,1.336-1.139,1.984l-1.026-1.061a4.7,4.7,0,0,1,2.165-.922m1.564-.967c.059-.114.115-.23.173-.344.053.127.108.254.159.382-.11-.015-.221-.028-.332-.038M508.467,594.7q4.237,1.166,8.519,2.163a59.3,59.3,0,0,0-11.628,1.771c-1.4.359-2.777.778-4.141,1.243a8.986,8.986,0,0,1,2.93-3.177,17.581,17.581,0,0,1,4.32-2m11.744,3.007q-4.273.341-8.525.9-3.117.416-6.216.958a58.487,58.487,0,0,1,14.741-1.862m-7.39-2.8q-1.344-.342-2.681-.706,1.062-.292,2.134-.549a.464.464,0,0,0,.2-.767c-.234-.272-.454-.551-.664-.835l.2-.1a22.911,22.911,0,0,0,9.616,4.843c-.265-.007-.529-.01-.793-.013q-4.025-.862-8.015-1.875m.12-3.387a50.021,50.021,0,0,1,12.838-4.246,27.861,27.861,0,0,1,6.845-.27,13.3,13.3,0,0,1-.619,5.363,5.918,5.918,0,0,1-2.363,3.072,8.336,8.336,0,0,1-5.11.885,21.335,21.335,0,0,1-11.59-4.8m18.585,3.5c1.837-2.146,2.152-5.191,2.008-7.918a20.021,20.021,0,0,1,8.767,3.159c-.169.646-.346,1.29-.541,1.93a32.329,32.329,0,0,1-1.812,4.929c-.037.074-.078.147-.118.222-1.069-.063-2.141-.089-3.2-.113q-4.411-.1-8.821.05c-.213-.028-.426-.049-.639-.075a6.648,6.648,0,0,0,4.36-2.185m2.422,3.09c1.766.01,3.564,0,5.35.092a3.7,3.7,0,0,1-.677.714,2.631,2.631,0,0,1-1.065.491q-2.428-.752-4.914-1.292c.436,0,.871-.008,1.306-.005m6.407.163c.851.071,1.7.176,2.534.328a13.1,13.1,0,0,1-3.155,1.525c-.284-.1-.572-.188-.857-.283a4.96,4.96,0,0,0,1.478-1.569m-14.327-52.939a14.26,14.26,0,0,1,1.621.379c6.714,2.039,11.047,8.06,13.377,14.382a50.259,50.259,0,0,1,2.783,21.321,51.312,51.312,0,0,1-1.266,7.89c-.3-.19-.6-.37-.9-.542a19.967,19.967,0,0,0-4.13-1.761,23.319,23.319,0,0,0-4.047-.825,20.23,20.23,0,0,0-2.492-8.884,8.911,8.911,0,0,0-5.029-3.954q-.337-.861-.7-1.706a18.088,18.088,0,0,0,1.94-8.212c-.091-2.524-1.146-4.752-1.859-7.13a15.425,15.425,0,0,1-.116-7.633c.23-1.119.52-2.223.821-3.324m-.917-.139c-.148.549-.294,1.1-.431,1.652a20.6,20.6,0,0,0-.752,7.228c.274,2.435,1.4,4.6,1.99,6.956a14.715,14.715,0,0,1-1.188,9.483,45.83,45.83,0,0,0-5.162-8.532,34.856,34.856,0,0,0-2.66-3.044l.39-.643a77.372,77.372,0,0,0,6.763-13.174c.35.013.7.035,1.05.074m-13.945,6.2a19.385,19.385,0,0,1,7.278-5.327,13.912,13.912,0,0,1,4.681-.95q-.647,1.762-1.449,3.466a99.249,99.249,0,0,1-5.1,9.136l-.328.54c-1.963-1.942-4.066-3.7-6.136-5.581.341-.438.69-.869,1.057-1.284m-1.6,1.991c.9.762,1.82,1.5,2.714,2.258A45.415,45.415,0,0,1,515.8,559c-3.116,5.143-6.18,10.4-7.461,16.338a25.1,25.1,0,0,0-.027,11.264,26.4,26.4,0,0,1-4.486-16.983,31.553,31.553,0,0,1,5.746-16.228m-15.056,20.791c1.187.192,2.475.984,2.577,2.211a4.556,4.556,0,0,1-2.577-2.211m3.905,29.889c-1.881,3.036-5.8,1.65-7.393-.918-1.951-3.142-.439-7.241.9-10.473a9.293,9.293,0,0,0,1.846,1.443c2.862,1.7,7.036,2.026,9.552-.5a6.713,6.713,0,0,0,.888-7.958c-2.027-3.212-6.333-2.565-8.887-.384a14.161,14.161,0,0,0-3.5,5.285l-.161.373a10.236,10.236,0,0,1-1.155-1.963,15.125,15.125,0,0,1-1.182-6.039,14.832,14.832,0,0,1,.9-5.672,4.651,4.651,0,0,1,3.3-3.1,6.674,6.674,0,0,0,1.846,2.356,4.554,4.554,0,0,0,2.037.887.465.465,0,0,0,.564-.32c.352-2.323-1.8-3.805-3.915-3.853a24.885,24.885,0,0,1-1.311-5.643,125.511,125.511,0,0,1-1.4-14.943,209.017,209.017,0,0,1,.789-29.3,89.553,89.553,0,0,1,4.263-20.286c.124,2.045.263,4.088.439,6.13,1,11.687,2.611,23.837,6.432,34.976a19.673,19.673,0,0,0,3.377,6.354,21.506,21.506,0,0,0,2.231,2.253,32.371,32.371,0,0,0-5.588,13.634,28,28,0,0,0,3.878,20.143,25.289,25.289,0,0,0,1.982,2.58,16.472,16.472,0,0,0,1.317,2.55c-1.208.581-2.41,1.171-3.6,1.761a.46.46,0,0,0,.068.82,15.681,15.681,0,0,0-3.753,2,9.5,9.5,0,0,0-2.936,3.45c-.095.195-.18.393-.262.594q-.9.329-1.788.688c-.119.026-.238.049-.357.076a.4.4,0,0,0-.249.171q-1.384.577-2.738,1.224a.463.463,0,0,0,.11.839c1.2.2,2.4.368,3.6.524-.045.079-.085.159-.132.236m-6.1-12.339v0c1.363-3.284,3.546-7.367,7.647-7.405,2.962-.028,4.5,2.721,4.191,5.414a5.48,5.48,0,0,1-5.965,4.8,8.462,8.462,0,0,1-5.874-2.808m6.852,10.778a6.317,6.317,0,0,1-.5-.673c.269-.059.538-.112.808-.169-.1.282-.2.564-.308.842m-.894.378c-.535-.073-1.07-.157-1.6-.238.37-.165.74-.334,1.113-.491a7.347,7.347,0,0,0,.491.729m2.243-1.439A160.592,160.592,0,0,1,521.9,598.5c.7-.049,1.4-.086,2.1-.126q3.9.769,7.822,1.4,1.6.255,3.2.484a8.375,8.375,0,0,0,2.525.1c.225.071.448.146.671.219a99.776,99.776,0,0,1-19.932,3.093,104.652,104.652,0,0,1-18.376-.582c.217-.543.408-1.1.605-1.638m33.86,3.025c-.253-.017-.505-.027-.758-.047a.376.376,0,0,0-.417.275,89.139,89.139,0,0,1-8.935,1.27,90.517,90.517,0,0,1-10.129.34,50.94,50.94,0,0,1-8.945-.752,13.6,13.6,0,0,1-4.012-1.408,105.521,105.521,0,0,0,36.784-2.56c.578-.145,1.163-.312,1.744-.5q1.557.561,3.08,1.214c-2.769.855-5.575,1.584-8.412,2.171m3.514.141q3.193-.785,6.327-1.792c.34-.11.493-.664.11-.839-1.092-.5-2.2-.947-3.323-1.373a12.057,12.057,0,0,0,3.053-1.765c2.566.624,5.23,1.9,6.146,4.5a56.765,56.765,0,0,1-12.313,1.271" transform="translate(-283.26 -125.22)" fill="#060604"/>
        <path id="Trazado_919427" data-name="Trazado 919427" d="M559.276,492.347q0-4.428-.01-9.146c-10.216-.263-30.9-.732-41.976-.531l-.256-30.742H559.2q-.014-4.5-.029-9.135c-9.846-.233-29.394-.646-42.215-.585l-.318-38.184h42.385q-.02-4.536-.04-9.139c-10.01-.236-29.7-.65-42.426-.578l-.636-76.36h42.665q-.027-4.58-.053-9.15c-10.335-.243-30.179-.654-42.692-.563l-.194-23.221h42.742q-.029-4.56-.057-9.083c-8.518-.208-28.907-.666-42.765-.642l-.854-102.55h42.869c-.026-3.124-.053-6.968-.079-9.911-9.162-.221-29.434.142-42.871.189l-.436-52.227c-5.616.652-10.851,1.376-15.01,2.1l5.607,329.865c-.145.059-.2.122-.127.192a1.366,1.366,0,0,1,.133.167l1.765,103.833c3.4-.03,7.239-.073,11.266-.136l-.454-54.462ZM508.661,371.519l-2.56.076-.207-7,2.56-.053Zm-.21-11.247-2.56.076-.207-7,2.56-.052Zm-1.278-101.1-2.56.076-.207-7,2.56-.053Zm-2.6,11.2-.207-7,2.56-.053.207,6.981Zm2.4,10.8-2.56.076-.207-7,2.56-.053Zm-.139-33.125-2.56.076-.207-7,2.56-.052Zm-2.77-11.048-.208-7,2.56-.053.207,6.98Zm-.2-23.382-.207-7,2.56-.053.207,6.981Zm2.34-33.035-2.56.076-.207-7,2.56-.052Zm-5.179-63.281a9.5,9.5,0,0,1,2.539-.774l.207,6.98-2.56.076s-.287-6.1-.186-6.283m.558,11.628,2.56-.053.207,6.981-2.559.076Zm.854,10.986,2.56-.053.207,6.98-2.56.076Zm.333,10.987,2.56-.053.207,6.981-2.56.076Zm2.893,11.454.207,6.98-2.56.076-.207-7Zm-2.414,22.546,2.56-.053.207,6.98-2.56.076Zm2.893,10.674.207,6.98-2.56.076-.208-7Zm.059,22.753.207,6.98-2.56.076-.207-7Zm-2.406,67.531,2.56-.053.207,6.98-2.56.076Zm.457,11.247,2.56-.053.207,6.981-2.559.076Zm.21,11.247,2.56-.053.207,6.98-2.559.076Zm.21,11.246,2.56-.053.207,6.98-2.56.076Zm.21,11.247,2.56-.053.207,6.981-2.56.076Zm3.139,11.194.207,6.981-2.56.076-.207-7Zm-2.421,33.792,2.56-.053.207,6.981-2.559.076Zm3.14,11.194.207,6.98-2.56.076-.207-7Zm.087,11.247.207,6.98-2.559.076-.208-7Zm.087,11.246.207,6.98-2.56.076-.207-7Zm.087,11.247.207,6.98-2.56.076-.207-7Zm.394,18.7-2.56.076-.208-7,2.56-.053Zm-2.9,3.85,2.56-.053.207,6.981-2.559.076Zm.333,11.247,2.56-.053.207,6.98-2.56.076Zm.333,11.246,2.56-.052.207,6.98-2.56.076Zm.333,11.247,2.56-.053.207,6.981-2.56.076Zm.333,11.247,2.56-.053.207,6.981-2.56.076Zm.333,11.246,2.56-.052.207,6.98-2.56.076Zm.333,11.247,2.56-.053.207,6.98-2.56.076Zm.333,11.247,2.56-.053.207,6.981-2.56.076Zm.541,18.25-.207-7,2.56-.053.207,6.98Z" transform="translate(-289.519 -64.254)" fill="#45454d"/>
        <path id="Trazado_919428" data-name="Trazado 919428" d="M523.96,504.91a14.387,14.387,0,0,0-1-5.148,15.318,15.318,0,0,0-.645-1.423c-.234-.449-.52-.979-1.094-1.006a.828.828,0,0,0-.1,1.652c.05.113.093.226.128.3.137.278.266.559.381.847a13.734,13.734,0,0,1,.6,1.914,13,13,0,0,1,.339,2.7,1.641,1.641,0,0,0-.952.816c-.57,1.025-.274,2.3-.2,3.4a24.235,24.235,0,0,1-.08,4.106,25.745,25.745,0,0,1-.767,4.072,51.353,51.353,0,0,0,.066-7.057c-.073-1.193-.2-2.379-.36-3.563-.118-.874-1.445-.5-1.328.366a52.523,52.523,0,0,1-.447,15.719,41.724,41.724,0,0,1-3.285,5.587,53.019,53.019,0,0,1-5.355,6.493c-1.959,2.04-4.088,3.912-6,6a21.788,21.788,0,0,0-4.469,6.9,27.34,27.34,0,0,0-1.5,8.824c-.084,2.6-.07,5.338,2.262,6.984a20.067,20.067,0,0,0,3.447,1.628c.316.143.625.3.928.473-3.164,8.658-6.251,17.354-8.692,26.246a130.563,130.563,0,0,0-4.818,28.258,81.92,81.92,0,0,0,3.085,27.568q.513,1.7,1.115,3.363c.3.828,1.628.471,1.328-.366a77.52,77.52,0,0,1-4.246-27.665,121.813,121.813,0,0,1,4.19-28.264c2.455-9.477,5.7-18.724,9.051-27.914.057-.156.115-.312.172-.468.269.2.532.4.782.621,3.611,3.176,5.2,8.182,5.27,12.88.088,6.145-2.28,12.045-4.334,17.73a108.566,108.566,0,0,0-4.887,17.934,104.373,104.373,0,0,0,.08,36.959q.413,2.253.927,4.486c.2.864,1.526.5,1.328-.366a102.872,102.872,0,0,1-1.787-35.543,101.458,101.458,0,0,1,3.747-17.44c1.749-5.668,4.235-11.122,5.515-16.929,1.064-4.827,1.162-9.882-.7-14.533a16.565,16.565,0,0,0-3.513-5.52,13.408,13.408,0,0,0-1.932-1.62c3.239-8.81,6.632-17.578,9.6-26.483a104.247,104.247,0,0,0,4.066-15.571A29.112,29.112,0,0,0,522.71,507.9a3.738,3.738,0,0,1,.038-1.486.7.7,0,0,0,.507.162.714.714,0,0,0,1.182.48c.816-.748.335-1.7-.478-2.144m-8.711,30.783c-3.008,9.514-6.7,18.827-10.128,28.193l-.109.3c-.873-.453-1.793-.794-2.694-1.192a4.569,4.569,0,0,1-2.706-2.395,10.324,10.324,0,0,1-.343-3.925,26.784,26.784,0,0,1,1.415-8.6c1.909-5.156,6.474-8.582,10.159-12.419a52.209,52.209,0,0,0,6.8-8.677c-.669,2.945-1.493,5.857-2.4,8.719" transform="translate(-284.725 -288.445)" fill="#b6a7a7"/>
        <path id="Trazado_919429" data-name="Trazado 919429" d="M533.445,677.327c-3.145-3.363-8.285-3.7-11.793-6.574-3.731-3.055-5.295-7.865-5.952-12.484-.774-5.437-.364-10.966-.14-16.426l.862-20.983q.431-10.491.861-20.983c.27-6.563.449-13.273,2.594-19.55,1.917-5.609,5.475-10.437,8.029-15.746a28.228,28.228,0,0,0,2.625-16.687c-.917-6.537-3.182-12.8-3.646-19.417a48.891,48.891,0,0,1,5.823-26.831c.422-.779-.767-1.475-1.189-.695a50.879,50.879,0,0,0-5.774,18.146,56.2,56.2,0,0,0,1.489,19.713c1.61,6.9,3.419,13.912,1.181,20.891-1.927,6.008-5.851,11.1-8.467,16.793-2.812,6.122-3.546,12.759-3.87,19.417-.363,7.438-.619,14.884-.925,22.325l-.926,22.556c-.239,5.814-.692,11.686.1,17.478.647,4.752,2.2,9.685,5.843,13.009a19.855,19.855,0,0,0,5.939,3.461c2.28.951,4.935,1.835,6.577,3.791,2.124,2.531,1.3,6.235.646,9.171a36.478,36.478,0,0,1-3.458,9.283c-3.052,5.676-7.784,9.732-12.006,14.472a25.576,25.576,0,0,0-6.876,15.948c-.01.173-.013.346-.02.519a19.533,19.533,0,0,0-16.155,7.212,20.033,20.033,0,0,0-4.369,14.811,20.4,20.4,0,0,0,7.581,13.227,19.73,19.73,0,0,0,6.622,3.449.689.689,0,0,0,.366-1.328,19.057,19.057,0,0,1-11.544-9.953,17.867,17.867,0,0,1-.006-15.47,17.87,17.87,0,0,1,17.476-10.628,45.7,45.7,0,0,0,.743,7.905c.509,2.922,1.173,5.976,2.869,8.467,2.817,4.14,9.047,5.934,12.3,1.252,3.367-4.844.225-10.844-3.713-14.214a19.867,19.867,0,0,0-10.821-4.637,24.72,24.72,0,0,1,1.545-7.9c2.1-5.459,6.624-9.367,10.553-13.5a40.207,40.207,0,0,0,9.063-14.442,35.054,35.054,0,0,0,1.859-8.269,8.137,8.137,0,0,0-1.892-6.577m-8.374,69.549c-2.239,2.235-5.612,1.636-7.849-.282-2.34-2.006-3.272-5.137-3.88-8.048a45.46,45.46,0,0,1-1.051-9.178,19.306,19.306,0,0,1,8.177,2.993c4.3,2.833,9.336,9.789,4.6,14.516" transform="translate(-284.369 -290.347)" fill="#b6a7a7"/>
        <path id="Trazado_919430" data-name="Trazado 919430" d="M594.224,537.675c-1.593-.029-3.629-.065-5.9-.1,0-.114,0-.229-.009-.343A105.449,105.449,0,0,0,587.2,525.8h-.921a103.626,103.626,0,0,1,1.141,11.759c-9.835-.159-23.381-.336-24.981-.137-2.544.318-1.272,11.448-1.272,11.448l25.634.427c-.032.216-.06.433-.095.649a63.9,63.9,0,0,1-4.136,13.6,66.891,66.891,0,0,0-4.261,13.491,48.494,48.494,0,0,0-.293,14.639c-.125.054-.248.111-.365.17a.444.444,0,0,0-.227.4l.256,2.319-.037,0a.959.959,0,0,0-.659.327,1.126,1.126,0,0,0-.149.837,12.336,12.336,0,0,1,.3,3.374.541.541,0,0,0,.274.559.609.609,0,0,0,.11.241l.542.7c.129.168.245.331.479.335a3.773,3.773,0,0,0,.449-.046l1.8-.184c.341-.035.7-.106.8-.5a1.43,1.43,0,0,0-.031-.525q-.031-.222-.063-.445-.048-.345-.1-.69a.5.5,0,0,0,.031-.285l-.665-3.427c-.058-.3-.138-.585-.472-.664a1.164,1.164,0,0,0-.517.036l-.081-1.031a8.906,8.906,0,0,0-.1-1.095.753.753,0,0,0-.682-.626,47.053,47.053,0,0,1,.134-13.232,61.1,61.1,0,0,1,4.054-13.537,69.883,69.883,0,0,0,4.337-13.566c.11-.6.208-1.21.3-1.818l6.569.109q-.035-5.887-.07-11.747m-28.043,8.5a.918.918,0,1,1-1.836,0v-2.669a.918.918,0,1,1,1.836,0Zm5.7.121a.918.918,0,0,1-1.836,0v-2.548a.918.918,0,0,1,1.836,0Zm4.611-.121a.918.918,0,0,1-1.568.649.948.948,0,0,1-.269-.649v-2.184a.918.918,0,0,1,1.567-.649.946.946,0,0,1,.269.649Zm6.431.121a.918.918,0,0,1-1.836,0v-2.305a.918.918,0,0,1,1.836,0Zm-2.406,52.615v.008q.044.318.089.635c.012.085.023.169.036.254l-.247.025-.609.062-1.046.107-.433-.561a10.945,10.945,0,0,1,2.21-.531" transform="translate(-325.286 -304.957)" fill="#060604"/>
        <path id="Trazado_919431" data-name="Trazado 919431" d="M549.289,144.024c-8.316.5-63.5,3.9-63.5,5.661,0,1.908-.318,32.436.318,33.39.583.874,54.505-.386,63.574-.6-.141-15.944-.273-29.112-.389-38.446" transform="translate(-281.705 -83.531)" fill="#50504e"/>
        <path id="Trazado_919432" data-name="Trazado 919432" d="M550.515,289.9c-5.663-.052-61.621-.5-63.131,1.912-1.59,2.544.636,86.177.954,87.131.271.812,48.518,1.163,62.82,1.25-.209-32.783-.432-63.95-.644-90.293" transform="translate(-282.349 -168.096)" fill="#866d6d"/>
        <path id="Trazado_919433" data-name="Trazado 919433" d="M520.148,482.162c-.42-.7-6.014-.42-6.014-.42v.471a5.632,5.632,0,0,0-2.238.228c-.559.42-.839,2.657-.14,3.077a6.662,6.662,0,0,0,2.378.228v1.73l5.874.28s.559-4.9.14-5.595" transform="translate(-296.572 -279.372)" fill="#28333e"/>
        <path id="Trazado_919434" data-name="Trazado 919434" d="M552.448,482.162c-.42-.7-6.014-.42-6.014-.42v.471a5.633,5.633,0,0,0-2.238.228c-.559.42-.839,2.657-.14,3.077a6.662,6.662,0,0,0,2.378.228v1.73l5.874.28s.559-4.9.14-5.595" transform="translate(-315.306 -279.372)" fill="#28333e"/>
        <path id="Trazado_919435" data-name="Trazado 919435" d="M584.749,482.162c-.42-.7-6.014-.42-6.014-.42v.471a5.633,5.633,0,0,0-2.238.228c-.559.42-.839,2.657-.14,3.077a6.662,6.662,0,0,0,2.378.228v1.73l5.874.28s.559-4.9.14-5.595" transform="translate(-334.04 -279.372)" fill="#28333e"/>
        <path id="Trazado_919436" data-name="Trazado 919436" d="M617.049,482.162c-.42-.7-6.014-.42-6.014-.42v.471a5.633,5.633,0,0,0-2.238.228c-.559.42-.839,2.657-.14,3.077a6.662,6.662,0,0,0,2.378.228v1.73l5.874.28s.559-4.9.14-5.595" transform="translate(-352.774 -279.372)" fill="#28333e"/>
        <path id="Trazado_919437" data-name="Trazado 919437" d="M504.27,305.224s0,31.176.469,33.989S561,340.619,561,340.619l-.234-36.567Z" transform="translate(-292.471 -176.345)" fill="#282826"/>
        <path id="Trazado_919438" data-name="Trazado 919438" d="M555.646,329.379h-13.06v-4.727h13.025q-.006-.92-.013-1.836H542.586v-6.836h12.961q-.007-.921-.014-1.836H542.586v-7.306h12.891q-.007-.921-.014-1.836H542.586v-6.114a.918.918,0,0,0-1.836,0V305H524.537v-7.052a.919.919,0,0,0-1.836,0V305H509.535v-7.755a.918.918,0,0,0-1.836,0V305H495.211q0,.918-.008,1.836h12.5v7.306H495.2q0,.918.01,1.836H507.7v6.836H495.312q.023.919.054,1.836H507.7v4.727H495.563q.048.918.1,1.836H507.7v10.567a.918.918,0,0,0,1.836,0V331.215H522.7v7.755a.919.919,0,0,0,1.836,0v-7.755H540.75v7.755a.918.918,0,0,0,1.836,0v-7.755h13.073q-.006-.92-.013-1.836m-32.945,0H509.535v-4.727H522.7Zm0-6.564H509.535v-6.837H522.7Zm0-8.673H509.535v-7.306H522.7Zm18.05,15.236H524.537v-4.727H540.75Zm0-6.564H524.537v-6.837H540.75Zm0-8.673H524.537v-7.306H540.75Z" transform="translate(-287.208 -171.884)" fill="#866d6d"/>
        <path id="Trazado_919439" data-name="Trazado 919439" d="M508.814,405.61s-1.244,24.815,0,26.059,9.3,1.572,9.69.655.524-26.19-.131-26.975-9.428-1.048-9.559.261" transform="translate(-294.786 -234.716)" fill="#28333e"/>
        <path id="Trazado_919440" data-name="Trazado 919440" d="M545.645,408.381a1.414,1.414,0,0,0-1.019-.476,1.32,1.32,0,0,0-1,.478,1.473,1.473,0,0,0-.344.989,1.306,1.306,0,0,0,.425.928,1.593,1.593,0,0,0,.208.151c.017.018.031.039.049.056a1.271,1.271,0,0,0,1.786-.169,1.51,1.51,0,0,0-.1-1.957" transform="translate(-315.095 -236.579)" fill="#98c683"/>
        <path id="Trazado_919441" data-name="Trazado 919441" d="M545.936,422.6a1.138,1.138,0,0,0-.359-.968,1.255,1.255,0,0,0-1.9.4,1.519,1.519,0,0,0-.069,1.146,1.362,1.362,0,0,0,.716.851.79.79,0,0,0,.641.116,1.042,1.042,0,0,0,.545-.454c.038-.052.073-.107.108-.163l.019-.022a1.273,1.273,0,0,0,.31-.687.834.834,0,0,0-.011-.222" transform="translate(-315.24 -244.379)" fill="#ef4450"/>
        <path id="Trazado_919442" data-name="Trazado 919442" d="M545.693,435.711a1.186,1.186,0,0,0-.769-.334,1.28,1.28,0,0,0-.748.181,1.229,1.229,0,0,0-.531.695,1.492,1.492,0,0,0,.477,1.544.983.983,0,0,0,.329.188c.022.007.044.006.067.01.113.045,1.056-.134,1.226-.456a2.262,2.262,0,0,0,.27-.922,1.215,1.215,0,0,0-.321-.906" transform="translate(-315.275 -252.51)" fill="#ef4450"/>
        <path id="Trazado_919443" data-name="Trazado 919443" d="M545.715,452a1.163,1.163,0,0,0-1.6-.157,1.117,1.117,0,0,0-.341.822,2.024,2.024,0,0,0,.111.717,1.471,1.471,0,0,0,.17.331.99.99,0,0,0,.636.583,1.184,1.184,0,0,0,1.324-.914,1.5,1.5,0,0,0-.3-1.382" transform="translate(-315.381 -261.917)" fill="#98c683"/>
        <path id="Trazado_919444" data-name="Trazado 919444" d="M545.279,464.964a.944.944,0,0,0-.933-.554,1.136,1.136,0,0,0-.914.642,1.222,1.222,0,0,0-.108.62,1.133,1.133,0,0,0,.042.554,1.015,1.015,0,0,0,.924.7,1.127,1.127,0,0,0,.921-.748,1.717,1.717,0,0,0,.183-.631,1.18,1.18,0,0,0-.115-.583" transform="translate(-315.113 -269.348)" fill="#98c683"/>
        <path id="Trazado_919445" data-name="Trazado 919445" d="M498.747,332.628a3.362,3.362,0,0,0-4.248.831c-1.424,1.565-1.253,3.822-1.2,5.782.137,5.144-1.419,10.106-2.762,15.014-2.719,9.937-5.274,19.938-8.259,29.8a121.665,121.665,0,0,1-5.23,14.428,47.379,47.379,0,0,1-6.87,11.472c-2.842,3.347-6.578,6.459-11.047,7.159s-8.323-1.9-10.675-5.544c-3.186-4.936-3.784-10.7-3.253-16.424a70.561,70.561,0,0,0,2.829,10.662c1.339,3.743,3.531,7.922,7.546,9.286,4.991,1.7,11.813-3.788,13.765-8.125,0-.147,0-1.353-.073-2.56-1.619,3.6-8.541,10.608-12.809,9.512-3.839-.985-5.911-5.125-7.128-8.554a75.975,75.975,0,0,1-3.506-14.684c.32-1.761.713-3.5,1.136-5.177,1.17-4.65,2.624-9.225,3.9-13.846q2.078-7.521,3.88-15.115,1.8-7.523,3.452-15.083a25.752,25.752,0,0,0,2.28,1.78c1.973,1.363,4.312,1.836,6.46.562a8.561,8.561,0,0,0,3.7-5.655,26.923,26.923,0,0,0,.484-3.19l1.128-.534c.8-.379.1-1.567-.7-1.189-.466.221-1.4.46-1.667.92a1.9,1.9,0,0,0-.137.756c-.041.38-.083.759-.134,1.138a13.532,13.532,0,0,1-.935,3.7c-.838,1.885-2.705,3.733-4.936,3.442a6.817,6.817,0,0,1-3.128-1.541c-.721-.553-1.41-1.152-2.074-1.774,3.261-14.952,6.207-29.977,9.3-44.958q3.22-15.6,6.44-31.2c2.095-10.148,4.437-20.315,5.3-30.661q.311-3.74.321-7.493a.689.689,0,0,0-1.377,0c-.014,10.618-2.116,21.05-4.253,31.406q-3.257,15.784-6.516,31.568C464.3,305.258,461,322.026,457.37,338.716a46.379,46.379,0,0,1-4.406-5.277c-1.462-2.023-2.808-4.128-4.122-6.25-.714-1.153-1.418-2.313-2.088-3.493.813-7.239,1.789-14.46,2.754-21.68,1.2-9.013,2.113-18.1,5.46-26.629,1.612-4.108,3.572-8.066,5.377-12.09q2.692-6,4.825-12.231c.493-1.448.953-2.908,1.4-4.371,5.118-5.077,9.769-10.766,10.816-18.056a19.377,19.377,0,0,0,.192-3.463c-.032-.884-1.41-.888-1.377,0,.269,7.4-3.881,13.478-8.808,18.708a137.586,137.586,0,0,0,3.837-18.384q.219-1.588.4-3.181c.1-.879-1.276-.872-1.377,0a137.151,137.151,0,0,1-4.906,23.65c-1.3,1.288-2.625,2.524-3.9,3.718a66.328,66.328,0,0,0-10.226,11.225,48.1,48.1,0,0,0-5.916,12.805c-2.829,9.279-3.5,19.073-4.122,28.7-.357,5.483-.426,10.959,1.574,16.167A42.18,42.18,0,0,0,445.344,324c-.084.751-.168,1.5-.248,2.251a258.637,258.637,0,0,0-1.65,27.825q0,1.734.039,3.469a.755.755,0,0,0,.022.166c-.362,10.768-.588,21.593.863,32.3.021.155.046.31.068.465-1.01,5.487-1.279,11.093.37,16.427,1.19,3.85,3.382,7.609,6.792,9.884,3.5,2.336,7.727,2.226,11.478.549,8.241-3.684,12.951-12.722,16.228-20.64,3.911-9.446,6.366-19.434,9.058-29.274q2.075-7.583,4.15-15.167a71.73,71.73,0,0,0,1.767-7.556,45.662,45.662,0,0,0,.352-7.093,4.619,4.619,0,0,1,.927-3.258,1.967,1.967,0,0,1,2.492-.526c.747.481,1.439-.711.7-1.189M445.023,320.4a27.025,27.025,0,0,1-2.345-7.388,40.933,40.933,0,0,1-.25-8.339c.243-4.867.606-9.746,1.137-14.59a92.406,92.406,0,0,1,2.51-14.05,49.642,49.642,0,0,1,5.354-12.884,54.6,54.6,0,0,1,9.556-11.139c1.15-1.085,2.335-2.184,3.517-3.308-1.295,4.005-2.765,7.956-4.429,11.823-1.733,4.03-3.688,7.96-5.4,12a66.384,66.384,0,0,0-4.038,12.67c-.909,4.437-1.445,8.942-2.044,13.428-1.021,7.651-2.074,15.3-2.966,22.969-.2-.394-.407-.788-.6-1.189m-.377,54.215c-.109-5.928.065-11.857.268-17.782a.666.666,0,0,0-.062-.314,240.354,240.354,0,0,1,1.268-26.81q.181-1.858.381-3.713c1.253,2.1,2.555,4.179,3.924,6.206a51.376,51.376,0,0,0,6.585,8.17q-1.131,5.164-2.306,10.317c-2.315,10.082-5.026,20.029-7.858,29.976-.535,1.88-1.066,3.806-1.539,5.76-.4-3.934-.588-7.888-.661-11.81" transform="translate(-255.768 -128.56)" fill="#28333e"/>
        <path id="Trazado_919446" data-name="Trazado 919446" d="M557.245,337.311c-2.721,1.438-6.132.537-8.394-1.365a10.3,10.3,0,0,1-1.767-1.932,18.071,18.071,0,0,0,2.221-2.242,23.187,23.187,0,0,0,2.922-4.622,38.313,38.313,0,0,0,3.235-11.439c1.189-8.644.136-17.408-1.79-25.866-.61-2.678-1.316-5.337-2.077-7.987.018-.076.039-.152.057-.228a73.829,73.829,0,0,0,2.062-11.8,31.123,31.123,0,0,0-1.366-11.879,105.175,105.175,0,0,1-3.455-11.356,46.615,46.615,0,0,1-.8-11.86c.061-1.007.156-2.011.279-3.013.108-.877-1.27-.869-1.377,0a47.9,47.9,0,0,0,.074,12.254,59.17,59.17,0,0,0,3.1,11.825,46.059,46.059,0,0,1,1.738,5.79,27.4,27.4,0,0,1,.53,6.255,57.237,57.237,0,0,1-1.626,11.34c-4.11-13.711-9.319-27.222-9.888-41.631a61.233,61.233,0,0,1,.1-6.594c.06-.885-1.317-.881-1.377,0C538.464,248.2,545.1,264.5,549.852,280.74q.163.557.322,1.116c-1.78,7.241-4.075,14.348-5.727,21.622-1.728,7.611-2.762,15.556-1.48,23.322a20.58,20.58,0,0,0,2.317,6.952,17.981,17.981,0,0,0-3.351,2.947,9.3,9.3,0,0,0-1.7,4.957c-.2,2.067-.22,4.166-.241,6.241a123,123,0,0,0,.6,13.443,84.08,84.08,0,0,0,2.03,12.539c.29,1.132.643,2.229,1.036,3.305a22.134,22.134,0,0,0-5.382,8.744c-2.336-9.687-5.043-19.3-7.57-28.934-1.352-5.153-2.838-10.341-4.022-15.583a7.343,7.343,0,0,1,3.58-2.854c.83-.292.473-1.623-.366-1.328a8.479,8.479,0,0,0-3.586,2.472,77.994,77.994,0,0,1-1.845-14.479,52.6,52.6,0,0,1,2.021-15.629,91.874,91.874,0,0,1,5.858-14.052,64.612,64.612,0,0,0,5.138-14.121,63.065,63.065,0,0,0,1.309-14.748c-.231-10.085-2.387-20.031-4.906-29.761-.627-2.422-1.281-4.837-1.941-7.25a.689.689,0,0,0-1.328.366c5.038,18.421,10.413,38.724,3.71,57.443-1.667,4.658-4.047,9.01-6.076,13.511a57.41,57.41,0,0,0-4.384,13.9c-1.513,8.822-.5,17.6,1.393,26.237a17.2,17.2,0,0,0-1.814,4.1,49.38,49.38,0,0,0-1.323,6.158q-.713,4.135-1.277,8.294a227.329,227.329,0,0,0-2.15,31.783c.052,9.641,1.021,19.666,5.422,28.4,1.612,3.2,4.731,6.628,8.656,4.9,3.777-1.661,5.8-6.527,6.913-10.215.074-.244.133-.491.2-.737a7.252,7.252,0,0,0,7.422,1.809c2.705-1.006,4.3-3.631,5.131-6.267a24.59,24.59,0,0,0,.519-10.363,42.046,42.046,0,0,0-3.5-12.4c-1.392-3.039-2.977-5.925-4.193-9,.391-.327.8-.64,1.235-.935a13.271,13.271,0,0,1,4.435-1.963c.862-.2.5-1.533-.366-1.328a14.615,14.615,0,0,0-5.8,2.869c-.214-.613-.416-1.233-.591-1.867a79.373,79.373,0,0,1-2.273-13.733,123.058,123.058,0,0,1-.515-13.81,35.455,35.455,0,0,1,.418-6.465,7.915,7.915,0,0,1,3.385-4.8q.421-.322.831-.647a12.131,12.131,0,0,0,1.185,1.412,9.914,9.914,0,0,0,8.593,2.959,7.419,7.419,0,0,0,2.14-.761c.784-.414.089-1.6-.7-1.189m-19.167,77.741c-1.092,3.207-3.794,9.62-8.181,8.709-1.995-.414-3.344-2.322-4.265-3.993a36.382,36.382,0,0,1-2.633-6.3,60.5,60.5,0,0,1-2.617-14.023,176.024,176.024,0,0,1,.728-30.118q.745-7.884,2.026-15.7c.571-3.481,1.011-7.281,2.578-10.515q.181.774.37,1.546c2.481,10.113,5.251,20.161,7.892,30.233,1.182,4.506,2.488,9.041,3.552,13.621-.012.051-.026.1-.037.153a62.852,62.852,0,0,0-1.25,12.726c-.092,3.832.076,8.036,2.522,11.2l.011.014c-.2.827-.423,1.649-.7,2.458m1.095-4.372a9.408,9.408,0,0,1-.778-1.723c-1.263-3.814-.828-8.161-.6-12.106.093-1.59.245-3.22.49-4.846a69.259,69.259,0,0,1,1.341,10.4,38.613,38.613,0,0,1-.457,8.279m5.017-32.118c.957,2.371,2.1,4.658,3.254,6.986a42.128,42.128,0,0,1,3.925,11.93,26.111,26.111,0,0,1-.053,10.8c-.7,2.645-2.217,5.544-5.1,6.224a6.064,6.064,0,0,1-5.937-2.28c1.687-7.732.415-15.9-1.342-23.534a21.182,21.182,0,0,1,5.253-10.126m1.47-74.2c1.486-6.676,3.541-13.205,5.263-19.821a94.292,94.292,0,0,1,3.641,21.595c.252,7.746-.711,16.39-5.043,23.029a18.537,18.537,0,0,1-3.167,3.69,19.336,19.336,0,0,1-1.962-5.859c-1.376-7.488-.37-15.275,1.268-22.634" transform="translate(-300.838 -132.917)" fill="#28333e"/>
        <path id="Trazado_919447" data-name="Trazado 919447" d="M549.289,144.024c-8.316.5-63.5,3.9-63.5,5.661,0,1.908-.318,32.436.318,33.39.583.874,54.505-.386,63.574-.6-.141-15.944-.273-29.112-.389-38.446" transform="translate(-281.705 -83.531)" fill="#50504e"/>
        <path id="Trazado_919448" data-name="Trazado 919448" d="M512.3,172.67c0,8.135-3.584,14.729-8.005,14.729s-8-6.594-8-14.729,3.584-14.729,8-14.729,8.005,6.594,8.005,14.729" transform="translate(-287.845 -91.602)" fill="#282826"/>
        <path id="Trazado_919449" data-name="Trazado 919449" d="M565.071,171.064c0,8.37-3.688,15.156-8.237,15.156s-8.237-6.786-8.237-15.156,3.688-15.156,8.237-15.156,8.237,6.786,8.237,15.156" transform="translate(-318.18 -90.423)" fill="#282826"/>
        <path id="Trazado_919450" data-name="Trazado 919450" d="M618.379,155.952c-1.426-1.943-3.192-3.094-5.1-3.094-4.741,0-8.585,7.072-8.585,15.8s3.844,15.8,8.585,15.8c2.025,0,3.885-1.293,5.353-3.451-.088-9.624-.172-18.061-.25-25.048" transform="translate(-350.714 -88.654)" fill="#282826"/>
        <path id="Trazado_919451" data-name="Trazado 919451" d="M513.38,184a65.421,65.421,0,0,1-3.033-5.92c.173-.582.32-1.166.455-1.725a26.557,26.557,0,0,0,.2-11.512,18.474,18.474,0,0,0-.845-3.109l2.446-6.22c.216-.55-.671-.788-.885-.244l-2.1,5.352a5.015,5.015,0,0,0-.837-1.054,3.1,3.1,0,0,0-4.272-.185c-.413.423.235,1.072.649.649,1.1-1.128,2.794-.251,3.526.84a6.3,6.3,0,0,1,.486.887l-1.983,5.043a1.094,1.094,0,0,0-.391-.169,1.19,1.19,0,0,0-1.153.421c-.6-1.36-1.22-2.709-1.886-4.037-.116-.231-.239-.459-.358-.69.107-.353.213-.706.333-1.055.191-.561-.7-.8-.885-.244-.018.053-.033.108-.051.161-.2-.36-.393-.72-.6-1.076a13.5,13.5,0,0,1-1.426-3.029.459.459,0,0,0-.885.244,26.738,26.738,0,0,0,2.524,5.079,32.24,32.24,0,0,0-1.265,10.334,26.577,26.577,0,0,0,.75,5.592,10.534,10.534,0,0,0,.338,1.061l-1.952,4.963c-.216.55.671.789.885.244l1.6-4.067a5.093,5.093,0,0,0,1.63,1.775,3.279,3.279,0,0,0,4.354-.889,7.846,7.846,0,0,0,1.17-2.086c.819,1.746,1.7,3.464,2.671,5.128a.459.459,0,0,0,.793-.463m-3.74-20.954c.22.747.373,1.517.516,2.244A25.434,25.434,0,0,1,510.1,175.3c-.1.483-.211.977-.336,1.471-.6-1.354-1.172-2.718-1.741-4.085q.217-.982.34-1.982c.072-.585-.847-.58-.918,0-.018.147-.043.292-.065.438q-.237-.57-.475-1.138Zm-4.032,6.708c.019-.1.047-.192.068-.289.079.186.16.372.238.558l-.488,1.243a10.42,10.42,0,0,1,.182-1.512m.813,1.476q.321.771.641,1.542c-.111.461-.234.918-.379,1.369-.111.347-.336,1.117-.78.566a2.49,2.49,0,0,1-.371-1.216Zm-.018-3.651c.08-.053.273-.056.276-.026a.446.446,0,0,0,.106.259l-.391,1q-.154-.361-.308-.721a1.025,1.025,0,0,1,.318-.507m-3.639,10.457c-.032-.125-.064-.25-.093-.375a27.26,27.26,0,0,1-.612-4.919,31.415,31.415,0,0,1,.972-9.113c.681,1.365,1.317,2.752,1.928,4.15.047.106.09.213.136.32-.084.253-.154.511-.219.754a11.767,11.767,0,0,0-.341,1.962,11.438,11.438,0,0,0,.041,2.61l-1.753,4.457-.06.152m5.833,1.952c-.772,1.456-2.363,2.567-3.9,1.421a4.759,4.759,0,0,1-1.486-2.019l1.76-4.476a1.507,1.507,0,0,0,1.036.88,1.176,1.176,0,0,0,1.287-.679,5.508,5.508,0,0,0,.359-.935c.556,1.327,1.121,2.649,1.713,3.961a12.018,12.018,0,0,1-.77,1.847" transform="translate(-289.915 -89.875)" fill="#50504e"/>
        <path id="Trazado_919452" data-name="Trazado 919452" d="M566.332,154.81a.459.459,0,0,0-.885-.244,46.923,46.923,0,0,1-2.239,6.307,5.556,5.556,0,0,0-2.539-3.087c-.523-.273-.988.519-.463.793a5.221,5.221,0,0,1,2.444,3.573c-.578,1.291-1.184,2.57-1.8,3.846-.053.111-.1.223-.156.333-.282-.544-.7-.945-1.307-.659-.485.229-.144.9.322.828a.252.252,0,0,0,.037.033.685.685,0,0,1,.067.108,2.977,2.977,0,0,1,.151.318,4.7,4.7,0,0,1,.181.542q-.4.843-.781,1.689l-.066-.172a9.175,9.175,0,0,1,.208-1.759c.127-.576-.758-.822-.885-.244-.012.054-.019.109-.03.163q-1.04-2.707-2.079-5.413c-.07-.184-.136-.369-.205-.553a5.736,5.736,0,0,1,2.1-2.715c.491-.324.031-1.12-.463-.793a6.237,6.237,0,0,0-2.066,2.337c-.512-1.435-.98-2.884-1.365-4.362a.459.459,0,0,0-.885.244c.472,1.813,1.068,3.586,1.715,5.343a18.236,18.236,0,0,0-.841,4.69,23.585,23.585,0,0,0,1.557,10.558l.129.317c-.071.189-.147.375-.217.565-.852,2.331-1.706,4.662-2.783,6.9-.255.53.537,1,.793.464,1.051-2.187,1.893-4.457,2.728-6.731a4.375,4.375,0,0,0,2.191,2.4c1.5.557,2.471-.533,3.159-1.7l1.924,5c.21.546,1.1.309.885-.244q-1.121-2.914-2.247-5.827a20.429,20.429,0,0,0,1.687-9.409,32.818,32.818,0,0,0-.687-5.966c0-.014-.008-.028-.01-.042.137-.309.276-.617.408-.927a47.891,47.891,0,0,0,2.309-6.5m-6.006,14.421a5.131,5.131,0,0,1-.192,1.132c-.043.146-.094.289-.15.431-.058-.15-.115-.3-.173-.449.171-.372.34-.744.515-1.114m-3.647,6.327a22.757,22.757,0,0,1-1.315-8.407,21.9,21.9,0,0,1,.5-4.515c.512,1.342,1.042,2.678,1.557,4.017l.963,2.5a9.34,9.34,0,0,0,.036,1,5.455,5.455,0,0,0,.14.848q-.987,2.252-1.878,4.551m4.866,2.213c-.348.657-.815,1.712-1.628,1.872-1.394.275-2.252-1.632-2.751-2.844.509-1.38,1.027-2.757,1.6-4.111.1-.226.2-.45.294-.675a1.1,1.1,0,0,0,.543.355l.013,0,1.962,5.1.049.127c-.029.058-.054.117-.084.175m.851-1.958c-.073.209-.159.413-.242.619q-.864-2.241-1.727-4.482a3.278,3.278,0,0,0,.181-.315,5.869,5.869,0,0,0,.474-1.253,6.176,6.176,0,0,0,.055-2.72c-.006-.029-.013-.062-.021-.094.62-1.293,1.242-2.585,1.844-3.886.176,1.065.285,2.146.362,3.215a22.188,22.188,0,0,1-.927,8.917" transform="translate(-320.816 -89.456)" fill="#50504e"/>
        <path id="Trazado_919453" data-name="Trazado 919453" d="M623.169,179.99c-1.252-3.433-2.414-6.926-3.767-10.329a.909.909,0,0,0,.236-.272,3.266,3.266,0,0,0,.277-.951,2.742,2.742,0,0,0-.323-2.19c.006-.005.013-.007.019-.013a.464.464,0,0,0,0-.649,2.9,2.9,0,0,0-.265-.206c.547-1.8,1.075-3.6,1.545-5.418.048-.188.091-.378.134-.567.373.319,1.036-.106.711-.55-.15-.205-.305-.413-.467-.617a28.007,28.007,0,0,1,1.142-4.831c.211-.553-.676-.791-.885-.244a23.947,23.947,0,0,0-1.015,4.264,3.112,3.112,0,0,0-1.388-.751,2.666,2.666,0,0,0-2.65,1.079,9.393,9.393,0,0,0-1.424,2.205,30.462,30.462,0,0,1-1.787-5.378c-.126-.577-1.012-.333-.885.244a33.075,33.075,0,0,0,2.2,6.334,16.413,16.413,0,0,0-.7,2.94,30.168,30.168,0,0,0-.228,7.38,14.9,14.9,0,0,0,1.331,5.059l-.163.541-2.1,6.97a.459.459,0,0,0,.885.244q1.007-3.336,2.014-6.672a7.362,7.362,0,0,0,.5.651,3.417,3.417,0,0,0,3.2,1.255,3.261,3.261,0,0,0,2.072-1.807q.447,1.265.9,2.524c.2.551,1.088.313.885-.244m-4.554-12.236.285-.919a1.885,1.885,0,0,1,.118,1.415c-.02.1-.044.2-.068.294-.109-.265-.224-.528-.336-.791m-2.565-7.769c.433-.824,1.127-2.058,2.058-2.394a2.061,2.061,0,0,1,2.19.9c-.026.123-.051.245-.079.368-.472,2.031-1.119,4.02-1.722,6.015l-.086.287a1.061,1.061,0,0,0-.634.693c-.731-1.586-1.5-3.158-2.222-4.751a10.163,10.163,0,0,1,.5-1.118m-.66,15.182a14.828,14.828,0,0,1-.814-3.6,30.012,30.012,0,0,1,.04-6,20.2,20.2,0,0,1,.526-3.167c.688,1.481,1.408,2.948,2.079,4.432.089.2.172.4.259.595a5.017,5.017,0,0,0,.037.687l-2.128,7.049m5.533,1.441c-.383.787-.838,1.777-1.771,2.007a2.641,2.641,0,0,1-2.578-1.235,7.89,7.89,0,0,1-.605-.954l1.31-4.339q.385-1.277.784-2.553a1.066,1.066,0,0,0,.418.276c.888,2.22,1.692,4.479,2.489,6.737a.405.405,0,0,0-.047.061" transform="translate(-355.164 -88.646)" fill="#50504e"/>
        <path id="Trazado_919454" data-name="Trazado 919454" d="M595,221.913a1.519,1.519,0,0,0-.77-1.155,1.563,1.563,0,0,0-1.415-.055,1.456,1.456,0,0,0-.83,1.006,1.44,1.44,0,0,0,.376,1.277,1.235,1.235,0,0,0,.284.213,1.287,1.287,0,0,0,.62.3,1.47,1.47,0,0,0,1.315-.373,1.5,1.5,0,0,0,.42-1.209" transform="translate(-343.329 -127.921)" fill="#98c683"/>
        <path id="Trazado_919455" data-name="Trazado 919455" d="M538.5,224.385a1.25,1.25,0,0,0-1.027-.644,1.265,1.265,0,0,0-1.028.415,1.15,1.15,0,0,0-.231,1.035,1.118,1.118,0,0,0,.184.742,1.171,1.171,0,0,0,.566.44,1.214,1.214,0,0,0,.653.03,1.358,1.358,0,0,0,.969-.848,1.428,1.428,0,0,0-.086-1.17" transform="translate(-310.978 -129.764)" fill="#98c683"/>
        <path id="Trazado_919456" data-name="Trazado 919456" d="M494.7,225.543a1.288,1.288,0,0,0-1.109-1.048,1.03,1.03,0,0,0-.924.814,1.807,1.807,0,0,0-.066.3c-.005.007-.013.011-.018.019a1.07,1.07,0,0,0,.95,1.573,1.188,1.188,0,0,0,.677-.232,1.314,1.314,0,0,0,.478-.653,1.428,1.428,0,0,0,.012-.77" transform="translate(-285.614 -130.203)" fill="#98c683"/>
        <path id="Trazado_919457" data-name="Trazado 919457" d="M592.286,686.966c-7.543,5.392-34.734,24.878-35.281,25.973-.636,1.272,6.042,15.264,7.632,15.582,1.154.231,18.393-13.109,27.757-20.441q-.051-10.471-.107-21.115" transform="translate(-323.032 -398.431)" fill="#b6a7a7"/>
        <path id="Trazado_919458" data-name="Trazado 919458" d="M602.99,736.655l-27.755,20.686s8.9.954,10.494.318c1.023-.409,10.6-7.53,17.3-12.558q-.02-4.2-.041-8.446" transform="translate(-333.63 -427.25)" fill="#060604"/>
        <path id="Trazado_919459" data-name="Trazado 919459" d="M572.127,757.258q-2.423-5.118-4.7-10.3c-.237-.54-1.028-.073-.792.463q2.281,5.183,4.7,10.3c.252.534,1.044.068.793-.463" transform="translate(-328.614 -433.086)" fill="#3e4852"/>
        <path id="Trazado_919460" data-name="Trazado 919460" d="M575.568,754.245q-2.423-5.118-4.7-10.3c-.238-.539-1.029-.072-.793.464q2.282,5.182,4.7,10.3c.253.534,1.045.068.793-.464" transform="translate(-330.61 -431.338)" fill="#3e4852"/>
        <path id="Trazado_919461" data-name="Trazado 919461" d="M579.012,751.233q-2.423-5.118-4.7-10.3c-.238-.54-1.029-.073-.793.463q2.281,5.183,4.7,10.3c.253.534,1.045.068.793-.463" transform="translate(-332.607 -429.591)" fill="#3e4852"/>
        <path id="Trazado_919462" data-name="Trazado 919462" d="M591.492,743.056q-2.423-5.118-4.7-10.3c-.237-.54-1.029-.073-.793.463q2.281,5.183,4.7,10.3c.252.534,1.044.068.793-.463" transform="translate(-339.845 -424.849)" fill="#3e4852"/>
        <path id="Trazado_919463" data-name="Trazado 919463" d="M594.935,740.043q-2.423-5.118-4.7-10.3c-.238-.539-1.029-.073-.793.464q2.281,5.182,4.7,10.3c.253.534,1.045.068.793-.463" transform="translate(-341.842 -423.102)" fill="#3e4852"/>
        <path id="Trazado_919464" data-name="Trazado 919464" d="M598.378,737.031q-2.423-5.118-4.7-10.3c-.238-.539-1.029-.073-.793.464q2.281,5.182,4.7,10.3c.253.534,1.045.069.793-.463" transform="translate(-343.839 -421.354)" fill="#3e4852"/>
        <path id="Trazado_919465" data-name="Trazado 919465" d="M610.857,728.855q-2.423-5.118-4.7-10.3c-.237-.54-1.029-.073-.793.463q2.282,5.183,4.7,10.3c.253.534,1.045.068.793-.463" transform="translate(-351.077 -416.612)" fill="#3e4852"/>
        <path id="Trazado_919466" data-name="Trazado 919466" d="M614.3,725.842q-2.422-5.118-4.7-10.3c-.237-.54-1.029-.073-.793.463q2.281,5.182,4.7,10.3c.252.534,1.044.068.793-.464" transform="translate(-353.074 -414.865)" fill="#3e4852"/>
        <path id="Trazado_919467" data-name="Trazado 919467" d="M617.743,722.83q-2.423-5.118-4.7-10.3c-.237-.54-1.029-.073-.793.463q2.282,5.183,4.7,10.3c.253.534,1.045.068.793-.463" transform="translate(-355.07 -413.118)" fill="#3e4852"/>
        <path id="Trazado_919468" data-name="Trazado 919468" d="M592.541,778.133s4.759.414,5.587-.414,1.966-1.449.724-1.862a9.1,9.1,0,0,0-2.9-.31Z" transform="translate(-343.667 -449.8)" fill="#3e4852"/>
        <path id="Trazado_919469" data-name="Trazado 919469" d="M607.566,766.8s4.759.414,5.587-.414,1.966-1.449.724-1.862a9.1,9.1,0,0,0-2.9-.31Z" transform="translate(-352.382 -443.228)" fill="#ef4450"/>
        <path id="Trazado_919470" data-name="Trazado 919470" d="M623.674,755.743s4.759.414,5.587-.414,1.966-1.449.724-1.862a9.1,9.1,0,0,0-2.9-.31Z" transform="translate(-361.724 -436.814)" fill="#3e4852"/>
        <path id="Trazado_919471" data-name="Trazado 919471" d="M612.1,773.026a9.217,9.217,0,0,0-1.354-4.913,4.65,4.65,0,0,0-3.866-2.1c-.883.031-.887,1.409,0,1.377a3.435,3.435,0,0,1,3.04,2,10.171,10.171,0,0,1,.84,4.431,10.7,10.7,0,0,1-.541,4.619,10.581,10.581,0,0,1-2.422,3.386c-2.162,2.129-4.87,3.594-7.078,5.671a16.839,16.839,0,0,0-4.3,6.679,17.02,17.02,0,0,0-.608,9.093c.18.867,1.508.5,1.328-.366a15.652,15.652,0,0,1,.607-8.36,15.864,15.864,0,0,1,5-7c2.35-1.93,5.053-3.458,7.016-5.825a10.255,10.255,0,0,0,2.071-3.767,15.226,15.226,0,0,0,.263-4.925" transform="translate(-345.36 -444.275)" fill="#ef4450"/>
        <path id="Trazado_919472" data-name="Trazado 919472" d="M572.348,933.785q-1.777-15.956-4.66-31.765c-.237-1.295-.642-4.834-.89-6.127-.166-.869-1.494-.5-1.328.366,1.953,10.207,3.728,22.726,4.98,33.043q.469,3.864.871,7.735c.26,2.5.517,5,.537,7.514.035,4.373-.727,8.9-3.5,12.416a10.248,10.248,0,0,1-10.284,4.021c-4.3-.931-7.542-4.107-9.572-7.885a34.008,34.008,0,0,1-3.546-12.93,76.117,76.117,0,0,1,.212-13.81c.834-9.271,2.507-18.592,1.554-27.922q-.173-1.693-.462-3.372c-.15-.872-1.477-.5-1.328.366,1.644,9.59.015,19.335-.948,28.9-.933,9.269-1.347,19.138,2.539,27.846,1.809,4.053,4.755,7.671,8.927,9.412a11.462,11.462,0,0,0,11.67-1.448c7.941-6.243,6.2-17.6,5.229-26.365" transform="translate(-315.138 -518.841)" fill="#ef4450"/>
        <path id="Trazado_919473" data-name="Trazado 919473" d="M556.661,853.925c-16.6-.344-61.1-.21-61.362.583-.318.954-.318,18.126-.318,18.126s46.57,1.523,61.75,1.3c-.021-6.365-.044-13.309-.07-20.014" transform="translate(-287.084 -495.162)" fill="#3e4852"/>
        <path id="Trazado_919474" data-name="Trazado 919474" d="M506.361,861.446a.934.934,0,0,0-.918.918v5.358a.918.918,0,0,0,1.836,0v-5.358a.929.929,0,0,0-.918-.918" transform="translate(-293.151 -499.627)" fill="#28343a"/>
        <path id="Trazado_919475" data-name="Trazado 919475" d="M516.515,861.446a.934.934,0,0,0-.918.918v5.358a.918.918,0,0,0,1.836,0v-5.358a.929.929,0,0,0-.918-.918" transform="translate(-299.041 -499.627)" fill="#28343a"/>
        <path id="Trazado_919476" data-name="Trazado 919476" d="M526.669,861.446a.934.934,0,0,0-.918.918v5.358a.918.918,0,0,0,1.836,0v-5.358a.929.929,0,0,0-.918-.918" transform="translate(-304.93 -499.627)" fill="#28343a"/>
        <path id="Trazado_919477" data-name="Trazado 919477" d="M536.823,861.446a.934.934,0,0,0-.918.918v5.358a.918.918,0,0,0,1.836,0v-5.358a.929.929,0,0,0-.918-.918" transform="translate(-310.819 -499.627)" fill="#28343a"/>
        <path id="Trazado_919478" data-name="Trazado 919478" d="M546.977,861.446a.934.934,0,0,0-.918.918v5.358a.918.918,0,0,0,1.836,0v-5.358a.929.929,0,0,0-.918-.918" transform="translate(-316.708 -499.627)" fill="#28343a"/>
        <path id="Trazado_919479" data-name="Trazado 919479" d="M557.131,861.446a.934.934,0,0,0-.918.918v5.358a.918.918,0,0,0,1.836,0v-5.358a.929.929,0,0,0-.918-.918" transform="translate(-322.598 -499.627)" fill="#28343a"/>
        <path id="Trazado_919480" data-name="Trazado 919480" d="M567.286,861.446a.934.934,0,0,0-.919.918v5.358a.918.918,0,0,0,1.837,0v-5.358a.929.929,0,0,0-.918-.918" transform="translate(-328.487 -499.627)" fill="#28343a"/>
        <path id="Trazado_919481" data-name="Trazado 919481" d="M607.071,859.761c-4.785.066-24.595.354-24.882.642-.329.328-.438,5.577-.11,5.905.282.281,19.524.079,25.015-.191q-.011-3.153-.023-6.356" transform="translate(-337.484 -498.65)" fill="#28343a"/>
        <path id="Trazado_919482" data-name="Trazado 919482" d="M607.1,879.287c-4.73.065-24.624.354-24.913.643-.328.328-.437,5.577-.109,5.905.282.282,19.591.079,25.044-.193q-.01-3.151-.022-6.355" transform="translate(-337.485 -509.975)" fill="#28343a"/>
        <path id="Trazado_919483" data-name="Trazado 919483" d="M563.017,887.885a1.526,1.526,0,0,0-.342-.615,1.22,1.22,0,0,0-.371-.29,1.524,1.524,0,0,0-.686-.192,1.377,1.377,0,0,0-.486.049,1.5,1.5,0,0,0-.607.336,1.125,1.125,0,0,0-.281.378,1.476,1.476,0,0,0-.263.484.58.58,0,0,0-.016.07,2.681,2.681,0,0,0-.039.3,1.723,1.723,0,0,0,.039.374.661.661,0,0,0,.037.132,1.514,1.514,0,0,0,.161.338,1.536,1.536,0,0,0,.226.271,1.5,1.5,0,0,0,.313.223,1.557,1.557,0,0,0,.72.187,1.987,1.987,0,0,0,.374-.039.741.741,0,0,0,.148-.037,1.688,1.688,0,0,0,.621-.37,1.986,1.986,0,0,0,.227-.279.8.8,0,0,0,.073-.118,2.351,2.351,0,0,0,.137-.329,2.026,2.026,0,0,0,.062-.373,1.38,1.38,0,0,0-.048-.5" transform="translate(-324.749 -514.323)" fill="#ef4450"/>
        <path id="Trazado_919484" data-name="Trazado 919484" d="M545.673,886.468a1.6,1.6,0,0,0-1.088-.419,1.466,1.466,0,0,0-.268.008,2.26,2.26,0,0,0-.481.088,1.848,1.848,0,0,0-.8.5,1.958,1.958,0,0,0-.284.426,1.357,1.357,0,0,0-.226.52,1.54,1.54,0,0,0-.034.453,1.754,1.754,0,0,0,.179.647,1.607,1.607,0,0,0,1.565.836,1.789,1.789,0,0,0,.908-.311,2.045,2.045,0,0,0,.639-.717,1.765,1.765,0,0,0-.109-2.029" transform="translate(-314.636 -513.896)" fill="#28343a"/>
        <path id="Trazado_919485" data-name="Trazado 919485" d="M228.151,1251.073c0,2.006-17.714,2.689-85.257,4.25-62.067,1.434-83.281-.544-83.281-2.551s36.15-2.712,83.331-3.516c48.17-.821,85.206-.19,85.206,1.816" transform="translate(-34.575 -724.351)" fill="#847895"/>
        <path id="Trazado_919486" data-name="Trazado 919486" d="M92.487,1168.228c0,.7-5.157,13.361-4.923,16.643s4.923,10.783,5.157,12.658a8.449,8.449,0,0,1-.7,4.219c-.263.586-25.73.957-26.9-.449s5.817-28.148,8.864-37.993,18.507,4.922,18.507,4.922" transform="translate(-37.69 -672.74)" fill="#eb966b"/>
        <path id="Trazado_919487" data-name="Trazado 919487" d="M81.3,1209.087a12.426,12.426,0,0,0-10.644,4.279c-1.073,1.342-1.86,1.449-2.735.756-1.959,8.015-3.387,14.951-2.805,15.649,1.172,1.407,26.64,1.034,26.9.449a8.448,8.448,0,0,0,.7-4.219c-.234-1.875-4.923-9.376-5.157-12.658a7.523,7.523,0,0,0-6.264-4.257" transform="translate(-37.69 -701.213)" fill="#ef4450"/>
        <path id="Trazado_919488" data-name="Trazado 919488" d="M78.361,1253.913c-7.682.034-11.448-.586-13.242-1.1a4.735,4.735,0,0,0,0,2.36c1.172,1.407,26.64,1.035,26.9.449a9.18,9.18,0,0,0,.64-2.14c-2.119.169-6.377.392-14.3.427" transform="translate(-37.69 -726.618)" fill="#fff"/>
        <path id="Trazado_919489" data-name="Trazado 919489" d="M362.655,1165.279s-.567,11.2.425,13.188,17.017,11.912,20.562,13.756,6.1,1.418,6.807,2.836.347,3.025-.22,3.451-42.323,1.512-44.734.52-1.428-13.978-1.144-16.672-3.252-20.2-1.692-23.177,20.421,2.41,20,6.1" transform="translate(-198.508 -671.81)" fill="#eb966b"/>
        <path id="Trazado_919490" data-name="Trazado 919490" d="M385.925,1219.038c-3.545-1.844-19.57-11.77-20.562-13.756a3.183,3.183,0,0,1-.228-.731c-.371.122-4.466,1.525-5.361,4.21-.937,2.813-2.344,2.579-5.157,2.344a33.688,33.688,0,0,1-7.972-2.263,2.926,2.926,0,0,1-.011.331c-.284,2.694-1.267,15.679,1.144,16.672s44.167-.094,44.734-.52.929-2.033.22-3.451-3.261-.993-6.807-2.836" transform="translate(-200.789 -698.625)" fill="#ef4450"/>
        <path id="Trazado_919491" data-name="Trazado 919491" d="M393.221,1245.94c-8.28.2-29.095.825-30.146.562-1.25-.312-2.891-1.641-3.907-2.188-.841-.453-9.864-.935-12.8-1.1-.066,2.607.6,4.678,1.508,5.053,2.411.992,44.167-.094,44.734-.52a2.365,2.365,0,0,0,.611-1.813" transform="translate(-200.887 -721.052)" fill="#fff"/>
        <path id="Trazado_919492" data-name="Trazado 919492" d="M178.424,666.942c0,1.055,24.309,86.376,27.474,104.659s2.813,94.582,3.164,98.8-30.238,5.977-32.7,5.274-4.728-82.476-6.486-89.86-22.8-65.17-22.8-65.17-11.717,54.59-16.288,72.874-22.854,83.683-24.964,86.144c-1.2,1.4-10.636,2.2-18.759,1.236-6.193-.738-11.678-2.88-11.83-4.4-.352-3.516,16.525-88.605,18.635-97.747S105.98,671.786,107.659,663.27c.284-1.438,2.774-15.485,6.245-15.9,17.081-2.046,64.52,19.573,64.52,19.573" transform="translate(-43.631 -375.386)" fill="#963939"/>
        <path id="Trazado_919493" data-name="Trazado 919493" d="M346.345,1045.848q-.006-.688-.013-1.422a106.881,106.881,0,0,1-15.242,2.91c-2.072.252-4.148.452-6.227.62q-.735-18.415-1.47-36.83-.407-10.2-.814-20.406c-.07-1.75-.136-3.5-.209-5.249a13.277,13.277,0,0,0-.694-4.2,26.385,26.385,0,0,1-1.293-3.562,3.014,3.014,0,0,1-.038-1.417,1.988,1.988,0,0,1,1.181-1.2,1.613,1.613,0,0,0,.593-2.691c-.776-.872-1.938-1.263-2.4-2.405-.772-1.9.225-4.537,2.324-5.014.576-.131.332-1.016-.244-.885a4.74,4.74,0,0,0-2.656,6.788c.579.957,1.625,1.339,2.329,2.166.492.578.178.936-.407,1.248a3.246,3.246,0,0,0-1.3,1.055,3.731,3.731,0,0,0-.151,3.054c.348,1.218.934,2.35,1.336,3.549a17.4,17.4,0,0,1,.556,4.861q.837,20.979,1.674,41.958.384,9.624.768,19.248c-3.917.3-7.845.47-11.772.59q.057.7.114,1.366c2.271-.07,4.54-.156,6.808-.273q2.453-.127,4.9-.311.059,1.5.119,3c.024.589.942.592.918,0l-.123-3.067a130.548,130.548,0,0,0,15.81-2.147q2.829-.58,5.617-1.333" transform="translate(-181.059 -559.159)" fill="#6b211b"/>
        <path id="Trazado_919494" data-name="Trazado 919494" d="M84.643,1170.786a58.34,58.34,0,0,1-6.1-2.013q-.123.706-.239,1.371a61.156,61.156,0,0,0,30.417,3.44c.7-.1,1.4-.217,2.094-.341.152-.483.307-.979.467-1.493a59.68,59.68,0,0,1-26.64-.964" transform="translate(-45.416 -677.874)" fill="#6b211b"/>
        <path id="Trazado_919495" data-name="Trazado 919495" d="M179.677,674.166a30.774,30.774,0,0,1-10.94,23.1,28.942,28.942,0,0,1-6.234,4.014c-.8.381-.1,1.569.7,1.189a32.117,32.117,0,0,0,16.845-20.6,30.345,30.345,0,0,0,1.012-7.708.689.689,0,0,0-1.377,0" transform="translate(-94.045 -390.621)" fill="#6b211b"/>
        <path id="Trazado_919496" data-name="Trazado 919496" d="M290.642,850.868q-4.864-10.5-9.525-21.083c-3.122-7.091-13.072-34.016-16.053-41.167q-2.507-6.012-4.948-12.051c-.218-.541-1.107-.3-.885.244q4.338,10.727,8.88,21.371c3.057,7.161,13.082,34.1,16.279,41.2q2.7,5.991,5.461,11.951c.248.536,1.04.07.793-.463" transform="translate(-150.33 -450.222)" fill="#6b211b"/>
        <path id="Trazado_919497" data-name="Trazado 919497" d="M243.75,748.55q-3.374,12.854-6.414,25.793T231.6,800.3q-1.516,7.309-2.924,14.641c-.222,1.155,1.547,1.649,1.77.488q2.509-13.051,5.356-26.034t6.034-25.885q1.79-7.247,3.686-14.467a.919.919,0,0,0-1.771-.488" transform="translate(-132.618 -433.771)" fill="#ecf0f0"/>
        <path id="Trazado_919498" data-name="Trazado 919498" d="M89.269,516.226s3.772-1.722,12.067.48c8.862,2.352,18.881,13.505,35.289,15.225s25.5-1.406,26.13-3.282.625-7.97,1.719-8.126,4.376-3.126,3.282-6.251,3.259-2.278,3.438-10.7c.118-5.508.469-8.2,2.781-11.173,2.281-2.931,12.376-25.381,13.938-26.631s19.263,20.673,40.365,20.224c9.532-.2,14.924-6.876,18.05-9.533s5-9.22,1.875-16.408-10.431-26.332-20.158-35.473c-1.939-1.822-3.282-1.563-4.375-3.126s-4.845-5.938-6.564-5.157-10.981,12.022-10.981,12.022a51.094,51.094,0,0,0,3.661,5.754c1.72,2.187.524,2.421,1.3,3.828a7.978,7.978,0,0,1,.622,3.681s-7.968-9.97-12.031-13.251-18.986-8.5-18.986-8.5a11.106,11.106,0,0,0,1.249-4.784c.156-2.969-1.25-6.72-9.689-11.877s-26.365-1.948-29.334-1.011-3.054,3.42-3.282,4.688c-.225,1.252-3.824,2.515-3.907,5.469,0,0-27.547-2.115-32.86.073s-25.315,14.533-39.38,20.628c-14.738,6.387-20.159,15-20.94,21.253s3.282,13.6,5.782,20.472,10.783,21.409,14.689,23.284,7.5,1.406,9.377,3.125,2.657,3.594,3.906,3.75,4.366-1.252,7.023-4.69,3.541-5.523,3.854-7.086-3.076-6.017-3.232-8.2.137-3.053-2.051-7.273-6.139-11.7-6.451-14.041,27.738-9.142,28.832-9.142-1.407,16.057-2.969,20.12-3.281,2.813-3.281,6.719-.938,8.126-2.657,10.47-5.939,17.971-5.939,17.971-1.569,6.485-.162,6.485" transform="translate(-24.622 -232.171)" fill="#98c683"/>
        <path id="Trazado_919499" data-name="Trazado 919499" d="M301.423,419s-.776-4.791.2-6.944c1.075-2.365,5.611-3.393,18.125,1.647,8.469,3.411,8.034,7.233,7.309,8.322a27.343,27.343,0,0,1-2.431,3.3Z" transform="translate(-174.653 -237.854)" fill="#5f6e40"/>
        <path id="Trazado_919500" data-name="Trazado 919500" d="M280.875,441.068c-2.45-3.987-1.749-2.725-4.064-6.792a65.4,65.4,0,0,1-5.225-12.638c-.761-2.383-1.419-4.928-.651-7.394.264-.848-1.065-1.211-1.328-.366a11.87,11.87,0,0,0,.22,6.685c.06.221.129.439.193.659l-6.647-.98a.712.712,0,0,0-.847.481.694.694,0,0,0,.481.847l7.1,1.047a.919.919,0,0,0,.326-.014c.5,1.576,1.056,3.138,1.624,4.682a49.526,49.526,0,0,0,2.877,6.452c1.124,2.082,1.366,2.7,2.6,4.717,1.46,2.376.685.934,2.145,3.31.463.754,1.655.063,1.189-.7" transform="translate(-152.249 -239.764)" fill="#83b26b"/>
        <path id="Trazado_919501" data-name="Trazado 919501" d="M368.674,444.434a.7.7,0,0,0-.974,0l-3.271,3.975a.738.738,0,0,0-.195.07.822.822,0,0,0-.425.714.854.854,0,0,0,.407.725.687.687,0,0,0,.835-.108l3.622-4.4a.7.7,0,0,0,0-.974" transform="translate(-211.006 -257.65)" fill="#83b26b"/>
        <path id="Trazado_919502" data-name="Trazado 919502" d="M456.392,528.813a74.017,74.017,0,0,1-6.644-12.608c-.936-2.189-1.817-4.4-2.69-6.616a38.826,38.826,0,0,1-2.317-7.009,37.893,37.893,0,0,1-.311-8.367c.031-.883-1.34-1-1.373-.116a45.567,45.567,0,0,0,.161,7.679,31.209,31.209,0,0,0,2.137,7.24c1.414,3.6,2.833,7.2,4.449,10.709a14.335,14.335,0,0,0-.166,8.367.708.708,0,0,0,.8.55.694.694,0,0,0,.55-.8,13.108,13.108,0,0,1-.268-6.175c.14.286.276.573.419.857a63.622,63.622,0,0,0,4.2,7.18c.5.733,1.547-.162,1.052-.889" transform="translate(-256.921 -286.217)" fill="#83b26b"/>
        <path id="Trazado_919503" data-name="Trazado 919503" d="M199.3,519.951,183.4,524.333a.689.689,0,0,0,.366,1.328l15.895-4.381a.689.689,0,0,0-.366-1.328" transform="translate(-106.089 -301.548)" fill="#83b26b"/>
        <path id="Trazado_919504" data-name="Trazado 919504" d="M126.889,603.824a6.718,6.718,0,0,1-.421-1.322c-2.09,5.067-6.212,9.193-10.6,12.473a.46.46,0,0,0,.542.742c4.235-3.163,8.222-7.112,10.482-11.893" transform="translate(-67.094 -349.443)" fill="#83b26b"/>
        <path id="Trazado_919505" data-name="Trazado 919505" d="M458.248,452.884a17.68,17.68,0,0,1-7.641,10.89,14.55,14.55,0,0,1-5,1.932c-.58.107-.335.992.244.885,6.7-1.239,11.513-6.854,13.249-13.218a7.158,7.158,0,0,1-.855-.489" transform="translate(-258.257 -262.666)" fill="#83b26b"/>
        <path id="Trazado_919506" data-name="Trazado 919506" d="M394.394,530.914c-2.877,4.315-5.033,8.408-6.807,10.925-.727,1.032.662,1.628,1.373.686a100.6,100.6,0,0,0,6.578-10.582c.608-1.064-.687-1.716-1.144-1.029" transform="translate(-224.678 -307.759)" fill="#83b26b"/>
        <path id="Trazado_919507" data-name="Trazado 919507" d="M205.854,446.35a37.793,37.793,0,0,1,1.611,7.94c.053.583.972.589.918,0a40.468,40.468,0,0,0-12.87-25.834c-.436-.4-.885-.786-1.338-1.166q-.678.059-1.281.135a39.782,39.782,0,0,1,12.961,18.924" transform="translate(-111.876 -247.822)" fill="#83b26b"/>
        <path id="Trazado_919508" data-name="Trazado 919508" d="M408.912,488.945a41.488,41.488,0,0,0,2.9-22.826l-.079-.065a11.659,11.659,0,0,0-.979-.7,40.732,40.732,0,0,1-.388,16.277,39.258,39.258,0,0,1-2.252,6.849c-.234.536.557,1,.793.463" transform="translate(-236.68 -269.9)" fill="#83b26b"/>
        <path id="Trazado_919509" data-name="Trazado 919509" d="M246.06,663.883c-4.208.029-8.426.143-12.633.038a52.351,52.351,0,0,1-11.54-1.577,87.215,87.215,0,0,1-21.023-8.905c-3.765-2.108-7.446-4.358-11.12-6.619a.459.459,0,0,0-.491.776,185.706,185.706,0,0,0,20.268,11.289,61.709,61.709,0,0,0,22.078,5.883c4.8.259,9.629.065,14.429.032.589,0,.624-.922.032-.918" transform="translate(-109.642 -375.105)" fill="#83b26b"/>
        <path id="Trazado_919510" data-name="Trazado 919510" d="M117.855,539.371a71.123,71.123,0,0,1-5.482-13.083c-.259-.845-1.588-.484-1.328.366a73.019,73.019,0,0,0,5.621,13.412c.423.78,1.612.085,1.189-.7" transform="translate(-64.386 -304.961)" fill="#83b26b"/>
        <path id="Trazado_919511" data-name="Trazado 919511" d="M431.591,458.614s-1.428,2.26-.6,3.461c.564.819,2.279.31,2.279.31Z" transform="translate(-249.82 -265.989)" fill="#1a1a1a"/>
        <path id="Trazado_919512" data-name="Trazado 919512" d="M417.238,397.46a29.464,29.464,0,0,1-3.527-3.806,31.038,31.038,0,0,1-1.593-8.161c0-.084,0-.173-.008-.263a65.621,65.621,0,0,0-2.131-7.072c-.941-2.218-4.088-7.023-5.471-8.147s-6.932-2.151-7.205-1.894.072,1.64.072,1.64a12.69,12.69,0,0,0-3.449-.489,3.949,3.949,0,0,0-.85.162c-2.181-.79-4.481-1.328-5.189-.822-1.16.828-.3,2.282-.3,2.282-.945.443-1.051,2.9,1.147,4.063,1.607.848,7.336,2.55,6.369,6.073-.307,1.118-.921,2.728-2.24.014s-4.212-5.18-5.494-4.342-1.549,2.085.34,4.263a13.3,13.3,0,0,1,3.56,8.1c.33,2.67,9.232,9.61,9.232,9.61,1.354,1.122,7.025,11.208,7.025,11.208a26.589,26.589,0,0,0,6.7-4.414c4.634-4.7,4.385-6.934,3.007-8" transform="translate(-224.08 -213.48)" fill="#eb966b"/>
        <path id="Trazado_919513" data-name="Trazado 919513" d="M413.849,372.023c-.977-2.733-4.077-3.92-6.641-4.639a13.091,13.091,0,0,0-2.364-.514c-.669-.056-1.029.412-1.037,1.043a3.748,3.748,0,0,0,.038.583,28.321,28.321,0,0,0-3.817-.144c-.491-.006-1.345.181-1.554.709a1.543,1.543,0,0,0,.2,1.329,3.2,3.2,0,0,0,2.289,1.491c1.106.31,2.3.263,3.419.514a5.8,5.8,0,0,1,3.631,2.364c.3.51.906.177.61-.331a6.559,6.559,0,0,0-3.232-2.7,28.517,28.517,0,0,0-3.87-.658c-.614-.115-1.982-.506-2.121-1.288-.109-.609.658-.512.923-.548a27.936,27.936,0,0,1,3.416.175,2.248,2.248,0,0,1,.719.493,3.784,3.784,0,0,0,1.72.922c.817.255.993-.614.462-.8a3.7,3.7,0,0,1-1.5-.733,1.553,1.553,0,0,1-.37-.829c-.025-.145-.232-.732.586-.641a4.69,4.69,0,0,1,.479.1c.345.076.638.2,1.043.327A19.56,19.56,0,0,1,410.4,369.6a9.13,9.13,0,0,1,2.994,2.577c.361.467.657.4.458-.155" transform="translate(-231.065 -212.777)" fill="#e0855c"/>
        <path id="Trazado_919514" data-name="Trazado 919514" d="M411.2,405.411a20.83,20.83,0,0,0-2.683-1.991,7.8,7.8,0,0,0-3.354-1.328c-.366-.066-1.021-.1-.994.242.032.4.6.463.963.558a6.224,6.224,0,0,1,2.408,1.247,29.606,29.606,0,0,1,2.767,2.32.688.688,0,0,0,.893-1.048" transform="translate(-234.414 -233.182)" fill="#e0855c"/>
        <path id="Trazado_919515" data-name="Trazado 919515" d="M129.4,628.707s5.962-6.113,7.32-10.188c0,0,1.158,2.051,2.969,1.258s6.68-3.849,6.68-3.849l-.68,2.264a56.776,56.776,0,0,0,9.284.566,14.634,14.634,0,0,1,9.4,2.717c.814.535.042.948,1.966,1.514s1.8,2.172,1.325,2.544c-.963.748-3.518.924-6.348.47s-7.585-1.471-7.925-.339,6.227,2.264,9.51,2.6,5.611.816,5.346,2.406c-.2,1.2-1.352,1.6-5.088,1.378s-10.674-1.519-10.787-.5,1.883,1.878,5.063,2.355c2.354.353,3.467,1.457,3.127,2.7s-4.227.6-6.379.489-6.906-1.472-7.811-1.358a33.112,33.112,0,0,1-9.4-1.019c-3.283-1.019-7.573-6.015-7.573-6.015" transform="translate(-75.052 -357.23)" fill="#eb966b"/>
        <path id="Trazado_919516" data-name="Trazado 919516" d="M123.225,618.69c-1.991,2.212-4.184,4.22-6.353,6.253,1.019,1.215,1.683,2.245,2.6,2.358,1.25.156,4.366-1.253,7.022-4.691s3.541-5.523,3.854-7.086c.166-.832-.715-2.481-1.6-4.173a54.7,54.7,0,0,1-5.519,7.338" transform="translate(-67.785 -354.576)" fill="#98c683"/>
        <path id="Trazado_919517" data-name="Trazado 919517" d="M198.2,627.292a41.279,41.279,0,0,0-8.047-1.585c-.881-.056-1.052,1.31-.166,1.367a40.144,40.144,0,0,1,7.834.978c.359.1,2.037.588,2.19.213.127-.31-1.449-.876-1.811-.973" transform="translate(-109.85 -362.9)" fill="#e0855c"/>
        <path id="Trazado_919518" data-name="Trazado 919518" d="M328.542,406.137s-3.047,8.438-3.516,10.079S312.6,431.687,311.2,431.922s-9.611-20.159-9.376-22.034,2.11-.938,4.923-4.454a40.209,40.209,0,0,0,6.095-10.783c.7-2.344,15.705,11.486,15.705,11.486" transform="translate(-175.049 -228.737)" fill="#eb966b"/>
        <path id="Trazado_919519" data-name="Trazado 919519" d="M327.155,394.657a25.781,25.781,0,0,0-2.147,6.865,10.688,10.688,0,0,0,.773,6.212,13.286,13.286,0,0,0,3.547,4.286,16.481,16.481,0,0,0,4.98,2.726,11.192,11.192,0,0,0,4.4.658c.912-2.751,3.208-9.108,3.208-9.108s-11.337-10.45-14.76-11.638" transform="translate(-188.423 -228.895)" fill="#1a1a1a"/>
        <path id="Trazado_919520" data-name="Trazado 919520" d="M311.836,329.857c-1.055-2.461-2.11-1.641-4.454-2.578s-4.923-2.93-12.892-1.875-14.885,9.025-14.3,13.009c0,0-6.094-4.805-9.962,2.344-1.33,2.458-.94,6.025,4.1,7.97,1.767.682,1.162,3.381,2.158,3.7,2.073.663,3.828-.232,5.341-1.186a13.547,13.547,0,0,1-2.31,3.38.918.918,0,1,0,1.3,1.3,15.627,15.627,0,0,0,3.463-5.855c1.783.508,4.075,5.723,7.279,5.93,3.633.234,20.862-21.331,20.862-21.331a8.967,8.967,0,0,0-.586-4.805" transform="translate(-156.351 -188.554)" fill="#862a2e"/>
        <path id="Trazado_919521" data-name="Trazado 919521" d="M317.951,368.494s-10.89,2.006-13.565,2.579-3.057,3.63-3.057,3.63,9.362,9.171,11.941,8.024,4.681-14.233,4.681-14.233" transform="translate(-174.768 -213.721)" fill="#984a4d"/>
        <path id="Trazado_919522" data-name="Trazado 919522" d="M333.231,349.1c-.929-3.494-4.982-7.789-4.982-7.789-1.171,3.606-7.672,5.085-13.074,6.355a2.065,2.065,0,0,0-1.339,3,13.52,13.52,0,0,1,.94,1.966c.472,1.73-2.124,1.967-2.832,2.99s-.473,4.563-.473,4.563l-2.345-.347c-.047.1-.076.157-.076.157s-.921-2.282-2.3-3.036a4.737,4.737,0,0,0-7.238,4.012c0,7.879,8.476,7.281,8.476,7.281,3.2,9.063,10.677,12.385,19.651,10.631,2.914-.57,8.732-2.752,10.109-5.936,2.605-6.025-3.951-21.715-4.518-23.846" transform="translate(-173.714 -197.953)" fill="#eb966b"/>
        <path id="Trazado_919523" data-name="Trazado 919523" d="M357.5,384.806c-.008-.011-.013-.025-.024-.033a1.324,1.324,0,0,0-2.025.571v.011a2.243,2.243,0,0,0-.026.225,2.014,2.014,0,0,0,.021.637,1.751,1.751,0,0,0,.225.549,1.593,1.593,0,0,0,.977.829,1.1,1.1,0,0,0,1.35-.873,2.263,2.263,0,0,0-.5-1.915" transform="translate(-206.133 -223.012)" fill="#1a1a1a"/>
        <path id="Trazado_919524" data-name="Trazado 919524" d="M381.311,374.566c-.243-.369-1.058-.731-1.471-.263a1.466,1.466,0,0,0-.117,1.8,1.27,1.27,0,0,0,.769.726.714.714,0,0,0,.815-.144,1.457,1.457,0,0,0,.336-1.092,2.116,2.116,0,0,0-.332-1.026" transform="translate(-220.09 -216.961)" fill="#1a1a1a"/>
        <path id="Trazado_919525" data-name="Trazado 919525" d="M376.818,394.266a.768.768,0,0,0-.316-.412.7.7,0,0,0-.531-.069.738.738,0,0,0-.373.228c-.234.225-.45.475-.707.775a.727.727,0,0,0-.2.487.524.524,0,0,0,.059.265.517.517,0,0,0,.142.221.692.692,0,0,0,.487.2.837.837,0,0,0,.487-.2,5.93,5.93,0,0,0,.884-.966.742.742,0,0,0,.069-.53" transform="translate(-217.316 -228.374)" fill="#d65d5c"/>
        <path id="Trazado_919526" data-name="Trazado 919526" d="M345.287,391.074c-3.64,1.729-4,2.179-5.654,4.7s-3.309,5.8-5.59,5.1a8.641,8.641,0,0,1-6.071-5.1,49.119,49.119,0,0,1-3.376-10.729,9.9,9.9,0,0,0-2.269-.845c-.3.1-.119.611-.131.636-.024.5-.2,1.093.561,4.492.262,1.17,2.473,10.683,3.665,11.636,3.755,3,8.762,3.881,14.348,2.789,2.914-.57,8.732-2.752,10.109-5.936.875-2.025.714-5.144.094-8.472a15.435,15.435,0,0,0-5.687,1.732" transform="translate(-186.844 -222.824)" fill="#984a4d"/>
        <path id="Trazado_919527" data-name="Trazado 919527" d="M345.664,367.481a.928.928,0,0,0-1.3,0c-.6.756-1.28,1.448-1.94,2.156-.984,1.054-2.088,1.775-2.4,2.247a.73.73,0,0,0,.018.821c.241.374.9.155,1.359-.081a15.8,15.8,0,0,0,4.263-3.845.994.994,0,0,0,.269-.649.935.935,0,0,0-.269-.649" transform="translate(-197.141 -212.979)" fill="#862a2e"/>
        <path id="Trazado_919528" data-name="Trazado 919528" d="M374.391,355.721c-1.19-1.009-2-1.614-3.567-1.492a.918.918,0,1,0,0,1.836,9.172,9.172,0,0,1,1.241.071q.219.049.433.117c.066.021.133.043.2.067.037.013.444.2.488.227.14.076.618.407.648.433.366.31.726.43,1.081.045.313-.342-.13-.971-.521-1.3" transform="translate(-214.541 -205.439)" fill="#862a2e"/>
        <path id="Trazado_919529" data-name="Trazado 919529" d="M378.057,404.508s-2.344,1.289-2.578,3.282,3.164.938,4.219.352-2.11-1.992-1.641-3.633" transform="translate(-217.767 -234.609)" fill="#fff"/>
        <path id="Trazado_919530" data-name="Trazado 919530" d="M296.023,366.183c-1.157-1.906-1.613-5.011-1.754-7.364-.029-.494-.123-.987-.641-1.129a.925.925,0,0,0-1.129.641c-.412,2.709,1.176,6.364,2.6,8.716.612,1.009,1.537.15.922-.864" transform="translate(-169.608 -207.438)" fill="#fff"/>
        <g id="Grupo_1102721" data-name="Grupo 1102721" transform="translate(145.174 159.626)" opacity="0.38">
          <g id="Grupo_1102720" data-name="Grupo 1102720">
            <g id="Grupo_1102719" data-name="Grupo 1102719" clip-path="url(#clip-path-3)">
              <path id="Trazado_919531" data-name="Trazado 919531" d="M354.26,384.515a4.31,4.31,0,1,1-4.148-4.466,4.31,4.31,0,0,1,4.148,4.466" transform="translate(-345.644 -380.047)" fill="#fff"/>
            </g>
          </g>
        </g>
        <path id="Trazado_919532" data-name="Trazado 919532" d="M387.523,372.941l-3.281-.24c.1.306.208.62.314.941l2.967.217a.463.463,0,0,0,.459-.459.468.468,0,0,0-.459-.459" transform="translate(-222.856 -216.161)" fill="#efb44b"/>
        <g id="Grupo_1102724" data-name="Grupo 1102724" transform="translate(157.246 154.859)" opacity="0.38">
          <g id="Grupo_1102723" data-name="Grupo 1102723">
            <g id="Grupo_1102722" data-name="Grupo 1102722" clip-path="url(#clip-path-3)">
              <path id="Trazado_919533" data-name="Trazado 919533" d="M383,373.167a4.31,4.31,0,1,1-4.148-4.466A4.309,4.309,0,0,1,383,373.167" transform="translate(-374.386 -368.699)" fill="#fff"/>
            </g>
          </g>
        </g>
        <path id="Trazado_919534" data-name="Trazado 919534" d="M377.75,377.057c-.063,0-.126,0-.189,0a5,5,0,1,1,.189,0m-.006-8.619a3.623,3.623,0,1,0,.134,0l-.134,0" transform="translate(-216.189 -212.889)" fill="#efb44b"/>
        <path id="Trazado_919535" data-name="Trazado 919535" d="M368.2,380.184a3.233,3.233,0,0,0-4.166,2.059.459.459,0,0,0,.876.276,2.315,2.315,0,0,1,3.014-1.46.459.459,0,1,0,.277-.876" transform="translate(-211.119 -220.395)" fill="#efb44b"/>
        <path id="Trazado_919536" data-name="Trazado 919536" d="M331.575,387.1c-3.524-1.156-7.139-2.421-10.587-3.788.228.41.41.811.513,1.043,3.448,1.368,6.306,2.473,9.83,3.63.563.184.8-.7.244-.885" transform="translate(-186.17 -222.317)" fill="#efb44b"/>
        <path id="Trazado_919537" data-name="Trazado 919537" d="M349.118,388.593c-.062,0-.124,0-.187,0a5,5,0,1,1,.187,0m-.005-8.619a3.623,3.623,0,1,0,.136,0l-.136,0" transform="translate(-199.585 -219.58)" fill="#efb44b"/>
      </g>
    </g>
  </g>
</svg>
