<svg xmlns="http://www.w3.org/2000/svg" xmlns:xlink="http://www.w3.org/1999/xlink" width="85" height="85" viewBox="0 0 85 85">
  <defs>
    <clipPath id="clip-path">
      <rect id="Rectángulo_404444" data-name="Rectángulo 404444" width="85" height="85" transform="translate(1177.051 2393)" fill="#fff" stroke="#707070" stroke-width="1"/>
    </clipPath>
  </defs>
  <g id="img11" transform="translate(-1177.051 -2393)">
    <circle id="Elipse_11589" data-name="Elipse 11589" cx="42.5" cy="42.5" r="42.5" transform="translate(1177.051 2393)" fill="#b0dcad"/>
    <g id="Enmascarar_grupo_1098771" data-name="Enmascarar grupo 1098771" clip-path="url(#clip-path)">
      <g id="Network-Router-Laptop-Wifi-Internet" transform="translate(1174.217 2390.167)">
        <path id="Trazado_923748" data-name="Trazado 923748" d="M75.083,76.5,76.5,80.75H65.167l1.417-4.25Z" fill="#c6c5ca"/>
        <path id="Trazado_923749" data-name="Trazado 923749" d="M58.083,72.25h25.5l2.833,8.5H76.5L75.083,76.5h-8.5l-1.417,4.25H55.25Z" fill="#acabb1"/>
        <path id="Trazado_923750" data-name="Trazado 923750" d="M83.583,58.083V72.25h-25.5V58.083a2.842,2.842,0,0,1,2.833-2.833H80.75A2.842,2.842,0,0,1,83.583,58.083Z" fill="#5aaae7"/>
        <path id="Trazado_923751" data-name="Trazado 923751" d="M86.417,80.75V85A1.417,1.417,0,0,1,85,86.417H56.667A1.417,1.417,0,0,1,55.25,85V80.75Z" fill="#898890"/>
        <circle id="Elipse_11594" data-name="Elipse 11594" cx="2.833" cy="2.833" r="2.833" transform="translate(75.083 43.917)" fill="#ff9811"/>
        <circle id="Elipse_11595" data-name="Elipse 11595" cx="2.833" cy="2.833" r="2.833" transform="translate(65.167 32.583)" fill="#ff9811"/>
        <path id="Trazado_923752" data-name="Trazado 923752" d="M32.583,58.083V72.25H7.083V58.083A2.842,2.842,0,0,1,9.917,55.25H29.75a2.842,2.842,0,0,1,2.833,2.833Z" fill="#5aaae7"/>
        <path id="Trazado_923753" data-name="Trazado 923753" d="M7.083,72.25h25.5l2.833,8.5H25.5L24.083,76.5h-8.5l-1.417,4.25H4.25Z" fill="#acabb1"/>
        <path id="Trazado_923754" data-name="Trazado 923754" d="M24.083,76.5,25.5,80.75H14.167l1.417-4.25Z" fill="#c6c5ca"/>
        <path id="Trazado_923755" data-name="Trazado 923755" d="M35.417,80.75V85A1.417,1.417,0,0,1,34,86.417H5.667A1.417,1.417,0,0,1,4.25,85V80.75Z" fill="#898890"/>
        <circle id="Elipse_11596" data-name="Elipse 11596" cx="2.833" cy="2.833" r="2.833" transform="translate(9.917 43.917)" fill="#ff9811"/>
        <circle id="Elipse_11597" data-name="Elipse 11597" cx="2.833" cy="2.833" r="2.833" transform="translate(18.417 32.583)" fill="#ff9811"/>
        <circle id="Elipse_11598" data-name="Elipse 11598" cx="12.75" cy="12.75" r="12.75" transform="translate(32.583 32.583)" fill="#ffd422"/>
        <path id="Trazado_923756" data-name="Trazado 923756" d="M62.333,15.583H56.667l.354-2.833L57.927,5.5a1.417,1.417,0,0,1,1.4-1.247h.34a1.417,1.417,0,0,1,1.4,1.247l.907,7.253Z" fill="#898890"/>
        <path id="Trazado_923757" data-name="Trazado 923757" d="M34,15.583H28.333l.354-2.833L29.594,5.5A1.417,1.417,0,0,1,31,4.25h.34a1.417,1.417,0,0,1,1.4,1.247l.907,7.253Z" fill="#898890"/>
        <path id="Trazado_923758" data-name="Trazado 923758" d="M65.167,17v8.5a1.417,1.417,0,0,1-1.417,1.417H26.917A1.417,1.417,0,0,1,25.5,25.5V17a1.417,1.417,0,0,1,1.417-1.417H63.75A1.417,1.417,0,0,1,65.167,17Z" fill="#acabb1"/>
        <path id="Trazado_923759" data-name="Trazado 923759" d="M34,15.583H28.333l.354-2.833h4.958Z" fill="#787680"/>
        <path id="Trazado_923760" data-name="Trazado 923760" d="M62.333,15.583H56.667l.354-2.833h4.958Z" fill="#787680"/>
        <path id="Trazado_923761" data-name="Trazado 923761" d="M32.583,58.3V72.25H18.714A33.4,33.4,0,0,0,32.583,58.3Z" fill="#3d9ae2"/>
        <path id="Trazado_923762" data-name="Trazado 923762" d="M83.583,58.3V72.25H69.714A33.4,33.4,0,0,0,83.583,58.3Z" fill="#3d9ae2"/>
        <path id="Trazado_923763" data-name="Trazado 923763" d="M63.75,14.167h-.17l-1.1-8.854A2.833,2.833,0,0,0,59.67,2.833h-.34a2.833,2.833,0,0,0-2.8,2.479l-1.1,8.854H35.247l-1.1-8.854a2.833,2.833,0,0,0-2.805-2.479H31a2.833,2.833,0,0,0-2.8,2.479l-1.105,8.854h-.17A2.842,2.842,0,0,0,24.083,17v8.5a2.842,2.842,0,0,0,2.833,2.833H63.75A2.842,2.842,0,0,0,66.583,25.5V17A2.842,2.842,0,0,0,63.75,14.167Zm-4.42-8.5h.34l1.063,8.5H58.267ZM31,5.667h.34l1.062,8.5H29.934ZM63.75,25.5H26.917V17H63.75Z"/>
        <path id="Trazado_923764" data-name="Trazado 923764" d="M34,72.022V58.083a4.25,4.25,0,0,0-4.25-4.25H9.917a4.25,4.25,0,0,0-4.25,4.25V72.022L2.907,80.3a1.417,1.417,0,0,0-.074.448V85a2.833,2.833,0,0,0,2.833,2.833H34A2.833,2.833,0,0,0,36.833,85V80.75a1.417,1.417,0,0,0-.074-.448Zm-7.48,7.311-1.094-3.281a1.417,1.417,0,0,0-1.343-.969h-8.5a1.417,1.417,0,0,0-1.343.969l-1.094,3.281H6.215L8.1,73.667H31.562l1.89,5.667Zm-2.985,0h-7.4l.473-1.417h6.457ZM8.5,58.083a1.417,1.417,0,0,1,1.417-1.417H29.75a1.417,1.417,0,0,1,1.417,1.417v12.75H8.5ZM5.667,85V82.167H34V85Z"/>
        <path id="Trazado_923765" data-name="Trazado 923765" d="M18.417,62.333H21.25v2.833H18.417Z"/>
        <path id="Trazado_923766" data-name="Trazado 923766" d="M24.083,62.333h2.833v2.833H24.083Z"/>
        <path id="Trazado_923767" data-name="Trazado 923767" d="M12.75,62.333h2.833v2.833H12.75Z"/>
        <path id="Trazado_923768" data-name="Trazado 923768" d="M87.76,80.3,85,72.022V58.083a4.25,4.25,0,0,0-4.25-4.25H60.917a4.25,4.25,0,0,0-4.25,4.25V72.022l-2.76,8.28a1.417,1.417,0,0,0-.074.448V85a2.833,2.833,0,0,0,2.833,2.833H85A2.833,2.833,0,0,0,87.833,85V80.75a1.417,1.417,0,0,0-.074-.448Zm-10.24-.969-1.094-3.281a1.417,1.417,0,0,0-1.343-.969h-8.5a1.417,1.417,0,0,0-1.343.969l-1.094,3.281H57.215l1.89-5.667H82.562l1.89,5.667Zm-2.985,0h-7.4l.473-1.417h6.457ZM59.5,58.083a1.417,1.417,0,0,1,1.417-1.417H80.75a1.417,1.417,0,0,1,1.417,1.417v12.75H59.5ZM56.667,85V82.167H85V85Z"/>
        <path id="Trazado_923769" data-name="Trazado 923769" d="M69.417,62.333H72.25v2.833H69.417Z"/>
        <path id="Trazado_923770" data-name="Trazado 923770" d="M75.083,62.333h2.833v2.833H75.083Z"/>
        <path id="Trazado_923771" data-name="Trazado 923771" d="M63.75,62.333h2.833v2.833H63.75Z"/>
        <path id="Trazado_923772" data-name="Trazado 923772" d="M55.25,19.833h2.833v2.833H55.25Z"/>
        <path id="Trazado_923773" data-name="Trazado 923773" d="M49.583,19.833h2.833v2.833H49.583Z"/>
        <path id="Trazado_923774" data-name="Trazado 923774" d="M43.917,19.833H46.75v2.833H43.917Z"/>
        <path id="Trazado_923775" data-name="Trazado 923775" d="M32.583,19.833h2.833v2.833H32.583Z"/>
        <path id="Trazado_923776" data-name="Trazado 923776" d="M43.917,49.583H46.75v2.833H43.917Z"/>
        <path id="Trazado_923777" data-name="Trazado 923777" d="M40.325,45.991l2,2a4.355,4.355,0,0,1,6.009,0l2-2A7.083,7.083,0,0,0,40.325,45.991Z"/>
        <path id="Trazado_923778" data-name="Trazado 923778" d="M36.318,41.984l2,2a9.932,9.932,0,0,1,14.025,0l2-2a12.764,12.764,0,0,0-18.031,0Z"/>
        <path id="Trazado_923779" data-name="Trazado 923779" d="M59.5,45.333A14.167,14.167,0,1,0,45.333,59.5,14.167,14.167,0,0,0,59.5,45.333ZM45.333,56.667A11.333,11.333,0,1,1,56.667,45.333,11.333,11.333,0,0,1,45.333,56.667Z"/>
        <path id="Trazado_923780" data-name="Trazado 923780" d="M19.833,39.406v5.927h2.833V39.406a4.25,4.25,0,1,0-2.833,0ZM21.25,34a1.417,1.417,0,1,1-1.417,1.417A1.417,1.417,0,0,1,21.25,34Z"/>
        <path id="Trazado_923781" data-name="Trazado 923781" d="M19.833,48.167h2.833V51H19.833Z"/>
        <path id="Trazado_923782" data-name="Trazado 923782" d="M63.75,35.417a4.25,4.25,0,0,0,2.833,3.989v5.927h2.833V39.406a4.243,4.243,0,1,0-5.667-3.989ZM68,34a1.417,1.417,0,1,1-1.417,1.417A1.417,1.417,0,0,1,68,34Z"/>
        <path id="Trazado_923783" data-name="Trazado 923783" d="M66.583,48.167h2.833V51H66.583Z"/>
        <path id="Trazado_923784" data-name="Trazado 923784" d="M77.917,51a4.24,4.24,0,0,0,1.417-8.239V36.833H76.5v5.927A4.24,4.24,0,0,0,77.917,51Zm0-5.667A1.417,1.417,0,1,1,76.5,46.75,1.417,1.417,0,0,1,77.917,45.333Z"/>
        <path id="Trazado_923785" data-name="Trazado 923785" d="M76.5,31.167h2.833V34H76.5Z"/>
        <path id="Trazado_923786" data-name="Trazado 923786" d="M12.75,51a4.24,4.24,0,0,0,1.417-8.239V36.833H11.333v5.927A4.24,4.24,0,0,0,12.75,51Zm0-5.667a1.417,1.417,0,1,1-1.417,1.417A1.417,1.417,0,0,1,12.75,45.333Z"/>
        <path id="Trazado_923787" data-name="Trazado 923787" d="M11.333,31.167h2.833V34H11.333Z"/>
      </g>
    </g>
  </g>
</svg>
