<svg xmlns="http://www.w3.org/2000/svg" xmlns:xlink="http://www.w3.org/1999/xlink" width="295" height="229.948" viewBox="0 0 295 229.948">
  <defs>
    <clipPath id="clip-path">
      <rect id="Rectángulo_404613" data-name="Rectángulo 404613" width="239.624" height="211.814" fill="none"/>
    </clipPath>
  </defs>
  <g id="img18" transform="translate(-600 -2749.102)">
    <rect id="Rectángulo_402941" data-name="Rectángulo 402941" width="295" height="163" rx="10" transform="translate(600 2816.05)" fill="#d7eed6"/>
    <g id="Grupo_1103753" data-name="Grupo 1103753" transform="translate(635.927 2749.102)">
      <path id="Trazado_923929" data-name="Trazado 923929" d="M459.608,383.416l-4.449,4.119-7-7.832,5.857-4.448Z" transform="translate(-223.436 -187.089)" fill="#efbd9c"/>
      <path id="Trazado_923930" data-name="Trazado 923930" d="M429,402.52l-6.151-.164.39-9.6,6.86.486Z" transform="translate(-210.819 -195.812)" fill="#efbd9c"/>
      <g id="Grupo_1103752" data-name="Grupo 1103752">
        <g id="Grupo_1103751" data-name="Grupo 1103751" clip-path="url(#clip-path)">
          <path id="Trazado_923931" data-name="Trazado 923931" d="M437.156,235.03,416.33,240.2l2.416,8.372-.711,71.394c3.13,1.318,7.25,1.648,10.3-.329Z" transform="translate(-207.567 -117.178)" fill="#276c93"/>
          <path id="Trazado_923932" data-name="Trazado 923932" d="M409.821,281.9l-4.339-40.2-15.488.659s4.559,40.2,6.865,45.255,25.923,30.619,25.923,30.619c2.746-.439,5.931-3.048,6.481-5.574Z" transform="translate(-194.437 -120.501)" fill="#3482b5"/>
          <path id="Trazado_923933" data-name="Trazado 923933" d="M412.6,409.47c-1.34,1.3-4.03,1.638-5.948,2.471a13.67,13.67,0,0,0-3.2,1.834,1.073,1.073,0,0,0,.688,1.891l14.776.117A1.072,1.072,0,0,0,420,414.67l-.206-5.314a7.8,7.8,0,0,1-7.194.114" transform="translate(-200.956 -204.09)" fill="#d6e8ed"/>
          <path id="Trazado_923934" data-name="Trazado 923934" d="M455.337,393.251c-.151,1.858-1.947,3.89-2.839,5.781a13.639,13.639,0,0,0-1.191,3.487,1.073,1.073,0,0,0,1.765.967l11.18-9.662a1.072,1.072,0,0,0,.077-1.549l-3.661-3.858a7.8,7.8,0,0,1-5.33,4.833" transform="translate(-224.998 -193.651)" fill="#d6e8ed"/>
          <path id="Trazado_923935" data-name="Trazado 923935" d="M437.64,316.371c-5.124-6.048-19.682-25.843-22.32-32.38-1.947-4.824-3.252-15.471-4-23.553-.814-8.751-1.175-16.463-1.178-16.539l.251-.012c.015.307,1.458,30.825,5.164,40.01,2.63,6.516,17.163,26.273,22.279,32.312Z" transform="translate(-204.48 -121.593)" fill="#4e9aaf"/>
          <path id="Trazado_923936" data-name="Trazado 923936" d="M408.954,101.035l2.952,12.892-7.606-.192-2.194-8.8Z" transform="translate(-200.476 -50.373)" fill="#efbd9c"/>
          <path id="Trazado_923937" data-name="Trazado 923937" d="M403.29,110.719a15.392,15.392,0,0,0,3.461-2.241,31.228,31.228,0,0,0,2.49-3.058l-6.556,2.871Z" transform="translate(-200.764 -52.558)" fill="#d39e81"/>
          <path id="Trazado_923938" data-name="Trazado 923938" d="M391.735,82.408c-2.479-.184-2.392,3.392-2.224,4.984.174,1.65.587,3.254.664,4.115.112,1.241.662,6.476,3.619,7.172a7.439,7.439,0,0,0,5.688-1.511c2.075-1.489,4.871-3.97,4.665-6.878s-1.189-7.112-3.812-7.4Z" transform="translate(-194.16 -41.082)" fill="#efbd9c"/>
          <path id="Trazado_923939" data-name="Trazado 923939" d="M400.428,86.239a8.418,8.418,0,0,0,.467,3.1s3.658-7.322,3.262-9.675c-.387-2.3-.953-5.359-2.191-6.078s-1.638-2.07-2.441-2.475a4.3,4.3,0,0,0-2.507.129,4.946,4.946,0,0,0-3.733-1.122c-1.943.345-2.651,1.509-3.653,1.744-.9.21-2.842-.392-4.365,1.234a4.6,4.6,0,0,0-.475,5.018c.613,1.024,1.307,2.021,2.069,1.724s4.009-1.648,5.547-.275,4.337-.746,5.108-.164c.75.565.329,5.241.934,5.547a2.416,2.416,0,0,0,2.416-.164c.541-.559-.439,1.455-.439,1.455" transform="translate(-191.58 -34.932)" fill="#3a210f"/>
          <path id="Trazado_923940" data-name="Trazado 923940" d="M415.565,99.224c-.519,1.238-1.536,1.99-2.272,1.681s-.913-1.561-.394-2.8,1.163-2.118,1.9-1.809a2.343,2.343,0,0,1,.767,2.926" transform="translate(-205.708 -47.979)" fill="#efbd9c"/>
          <path id="Trazado_923941" data-name="Trazado 923941" d="M402.864,98.213c.022.4-.141.737-.363.749s-.42-.3-.441-.706.141-.737.364-.749.419.3.441.706" transform="translate(-200.452 -48.614)" fill="#3a210f"/>
          <path id="Trazado_923942" data-name="Trazado 923942" d="M393.745,98.213c.022.4-.141.737-.363.749s-.42-.3-.441-.706.141-.737.364-.749c.267-.014.419.306.441.706" transform="translate(-195.905 -48.614)" fill="#3a210f"/>
          <path id="Trazado_923943" data-name="Trazado 923943" d="M403.343,93.164c1.041.219,1.512.668,1.357,1.007s-.837.238-1.615.059-1.477-.528-1.414-.872.63-.411,1.671-.193" transform="translate(-200.257 -46.386)" fill="#3a210f"/>
          <path id="Trazado_923944" data-name="Trazado 923944" d="M390.638,93.122c1.043-.208,1.653.022,1.643.393s-.676.549-1.461.688-1.566.094-1.643-.248.418-.626,1.461-.833" transform="translate(-194.026 -46.388)" fill="#3a210f"/>
          <path id="Trazado_923945" data-name="Trazado 923945" d="M397.949,99.194c-.382,0-.741,0-.946-.236a.765.765,0,0,1-.127-.636c.078-.544.6-4.078.6-4.078l.25.037s-.52,3.533-.6,4.077a.55.55,0,0,0,.067.435c.129.148.433.148.755.148a.126.126,0,1,1,0,.253" transform="translate(-197.861 -46.987)" fill="#3a210f"/>
          <path id="Trazado_923946" data-name="Trazado 923946" d="M397.358,107.362a2.123,2.123,0,0,1-1.268-.374.126.126,0,1,1,.152-.2,2.046,2.046,0,0,0,2.248-.013.126.126,0,0,1,.185.172,1.933,1.933,0,0,1-1.317.417" transform="translate(-197.451 -53.213)" fill="#3a210f"/>
          <path id="Trazado_923947" data-name="Trazado 923947" d="M392.213,98.4a1.541,1.541,0,1,1,1.54-1.541,1.542,1.542,0,0,1-1.54,1.541m0-2.829a1.288,1.288,0,1,0,1.288,1.288,1.289,1.289,0,0,0-1.288-1.288" transform="translate(-194.776 -47.521)" fill="#fff"/>
          <path id="Trazado_923948" data-name="Trazado 923948" d="M401.332,98.4a1.541,1.541,0,1,1,1.54-1.541,1.543,1.543,0,0,1-1.54,1.541m0-2.829a1.288,1.288,0,1,0,1.288,1.288,1.289,1.289,0,0,0-1.288-1.288" transform="translate(-199.322 -47.521)" fill="#fff"/>
          <rect id="Rectángulo_404528" data-name="Rectángulo 404528" width="1.727" height="0.253" transform="translate(198.852 49.209)" fill="#fff"/>
          <rect id="Rectángulo_404529" data-name="Rectángulo 404529" width="5.599" height="0.253" transform="translate(203.382 49.212) rotate(-11.669)" fill="#fff"/>
          <path id="Trazado_923949" data-name="Trazado 923949" d="M383.868,152.257l2.253-6.889-3.913,6.992Z" transform="translate(-190.556 -72.475)" fill="#e1bec5"/>
          <path id="Trazado_923950" data-name="Trazado 923950" d="M366.921,120.619c-11.291,4.384-11.148,29.1-11.148,29.1l-16.916,11.2,3.895,2.358s16.887-4.032,20.1-10.293,4.037-21.254,4.037-21.254Z" transform="translate(-168.942 -60.136)" fill="#ef8e70"/>
          <path id="Trazado_923951" data-name="Trazado 923951" d="M386.792,164.027c2.416-4.816,3.465-14.568,3.826-18.94,0,0-1.688-4.625-2.777-.233-1.277,5.149-1.049,19.173-1.049,19.173" transform="translate(-192.833 -71.275)" fill="#dd7c62"/>
          <path id="Trazado_923952" data-name="Trazado 923952" d="M405.49,182.709a20.2,20.2,0,0,0,18.344-5.492s-1.29-22.782-4.778-37.566-5.136-23.123-9.515-24.406c-1.919-.562-5.508.063-5.508.063-1.391,1.742-3.533,4.313-5.194,5.209-1.938-.583-2.982-2.818-3.325-4.357,0,0-3.409,1.1-5.086,1.824-2.484,1.071-2.769,14.162-2.484,20.76.408,9.434-.509,19.663-.194,25.621s-.934,15.817-.934,15.817c1.529,2.6,10.435.988,18.673,2.526" transform="translate(-192.853 -57.34)" fill="#ef8e70"/>
          <path id="Trazado_923953" data-name="Trazado 923953" d="M399.2,197.376c-2.691,1.538-7.771,3.158-8.485,4.2s.6,1.071.6,1.071l6.728.494s1.153-1.483,2.966-3.35-1.813-2.416-1.813-2.416" transform="translate(-194.69 -98.405)" fill="#efbd9c"/>
          <path id="Trazado_923954" data-name="Trazado 923954" d="M415.127,187.637l-.252-.023c.016-.18,1.6-18.087-2.138-31.094-3.752-13.052-2.44-30.373-2.427-30.547l.252.02c-.013.173-1.321,17.449,2.418,30.457,3.752,13.053,2.163,31.007,2.146,31.187" transform="translate(-204.45 -62.806)" fill="#dd7c62"/>
          <path id="Trazado_923955" data-name="Trazado 923955" d="M431.689,165.64c-.2-1.865-1.248-5.644-1.5-7.476L422.289,140l1.394,15.07-16.336,13.369,2.5,6.079s11.933-2.512,16.67-5.437c3.528-2.178,5.169-3.439,5.169-3.439" transform="translate(-203.089 -69.799)" fill="#dd7c62"/>
          <path id="Trazado_923956" data-name="Trazado 923956" d="M418.745,120.09a199.115,199.115,0,0,1,6.219,23.185l-18.106,13.2c.3,1.776-.184,5.007,1.8,5.473,0,0,20.512-4.37,25-13.007,4.755-9.148-4.145-29.724-7.746-31.943-3.906-2.407-9.878-1.932-9.878-1.932Z" transform="translate(-202.845 -57.351)" fill="#ef8e70"/>
          <path id="Trazado_923957" data-name="Trazado 923957" d="M414.728,113.671l1.627.947-.968,4.923-1.1-1.538-3.495,1.847c1.483-.965,2.789-3.871,3.934-6.179" transform="translate(-204.807 -56.672)" fill="#ffddd4"/>
          <path id="Trazado_923958" data-name="Trazado 923958" d="M402.324,116.451l-1.648,1.071.906,4.476,1.621-1.263,2.547.5a9.3,9.3,0,0,1-3.426-4.785" transform="translate(-199.763 -58.058)" fill="#ffddd4"/>
          <path id="Trazado_923959" data-name="Trazado 923959" d="M420.784,142.362l5.176-.251.112,4.656-2.232,2.1-2.88-1.808Z" transform="translate(-209.788 -70.851)" fill="#f9b1a0"/>
          <path id="Trazado_923960" data-name="Trazado 923960" d="M425.96,142.11l-5.176.251.059,1.574,5.157-.178Z" transform="translate(-209.788 -70.851)" fill="#ffddd4"/>
          <path id="Trazado_923961" data-name="Trazado 923961" d="M412.818,204.767a.319.319,0,1,1-.35-.285.319.319,0,0,1,.35.285" transform="translate(-205.499 -101.947)" fill="#fff"/>
          <path id="Trazado_923962" data-name="Trazado 923962" d="M415.511,203.876a.319.319,0,1,1-.35-.285.319.319,0,0,1,.35.285" transform="translate(-206.841 -101.503)" fill="#fff"/>
          <path id="Trazado_923963" data-name="Trazado 923963" d="M230.111,411.832v4.9h-1.5l-2.032-5.712Z" transform="translate(-112.964 -204.922)" fill="#365268"/>
          <path id="Trazado_923964" data-name="Trazado 923964" d="M0,411.832v4.9H1.5l2.032-5.712Z" transform="translate(0 -204.922)" fill="#365268"/>
          <rect id="Rectángulo_404530" data-name="Rectángulo 404530" width="1.941" height="98.419" transform="translate(145.208 113.385)" fill="#405f60"/>
          <rect id="Rectángulo_404531" data-name="Rectángulo 404531" width="1.941" height="98.419" transform="translate(190.683 113.385)" fill="#405f60"/>
          <rect id="Rectángulo_404532" data-name="Rectángulo 404532" width="1.941" height="98.419" transform="translate(171.469 113.385)" fill="#405f60"/>
          <rect id="Rectángulo_404533" data-name="Rectángulo 404533" width="73.677" height="7.077" transform="translate(145.208 106.307)" fill="#7f8c8d"/>
          <rect id="Rectángulo_404534" data-name="Rectángulo 404534" width="46.445" height="7.077" transform="translate(145.208 106.307)" fill="#9ba9aa"/>
          <rect id="Rectángulo_404535" data-name="Rectángulo 404535" width="1.941" height="98.419" transform="translate(216.944 113.385)" fill="#405f60"/>
          <rect id="Rectángulo_404536" data-name="Rectángulo 404536" width="18.948" height="2.307" transform="translate(189.941 104.106)" fill="#2d3e4f"/>
          <path id="Trazado_923965" data-name="Trazado 923965" d="M342.3,181.854H302.535l-9.007-30.536H333.29Z" transform="translate(-146.342 -75.441)" fill="#426f8e"/>
          <path id="Trazado_923966" data-name="Trazado 923966" d="M339.889,177.88c1.2,1.9,1.159,4.074-.085,4.857s-3.221-.121-4.418-2.02-1.159-4.073.084-4.857,3.222.121,4.418,2.02" transform="translate(-166.776 -87.537)" fill="#fff"/>
          <rect id="Rectángulo_404537" data-name="Rectángulo 404537" width="97.357" height="27.887" transform="translate(9.875 42.057)" fill="#365268"/>
          <path id="Trazado_923967" data-name="Trazado 923967" d="M112.907,122.52H29.993a4.125,4.125,0,1,1,0-8.25h82.914a4.125,4.125,0,1,1,0,8.25" transform="translate(-12.897 -56.971)" fill="#4c9fd8"/>
          <rect id="Rectángulo_404538" data-name="Rectángulo 404538" width="30.821" height="4.138" transform="translate(16.867 59.355)" fill="#426f8e"/>
          <rect id="Rectángulo_404539" data-name="Rectángulo 404539" width="4.138" height="4.138" transform="translate(95.565 59.355)" fill="#426f8e"/>
          <rect id="Rectángulo_404540" data-name="Rectángulo 404540" width="4.138" height="4.138" transform="translate(88.813 59.355)" fill="#426f8e"/>
          <rect id="Rectángulo_404541" data-name="Rectángulo 404541" width="4.138" height="4.138" transform="translate(82.06 59.355)" fill="#426f8e"/>
          <path id="Trazado_923968" data-name="Trazado 923968" d="M99.941,121.519a.983.983,0,1,1-.983-.983.983.983,0,0,1,.983.983" transform="translate(-48.847 -60.095)" fill="#fff"/>
          <path id="Trazado_923969" data-name="Trazado 923969" d="M108.7,121.519a.983.983,0,1,1-.983-.983.983.983,0,0,1,.983.983" transform="translate(-53.212 -60.095)" fill="#fff"/>
          <path id="Trazado_923970" data-name="Trazado 923970" d="M117.452,121.519a.983.983,0,1,1-.983-.983.983.983,0,0,1,.983.983" transform="translate(-57.577 -60.095)" fill="#fff"/>
          <rect id="Rectángulo_404542" data-name="Rectángulo 404542" width="18.389" height="4.138" transform="translate(61.582 59.355)" fill="#2d3e4f"/>
          <path id="Trazado_923971" data-name="Trazado 923971" d="M122.435,122.51a.379.379,0,0,1-.379-.379v-4.139a.379.379,0,0,1,.758,0v4.139a.379.379,0,0,1-.379.379" transform="translate(-60.853 -58.638)" fill="#ffc07b"/>
          <path id="Trazado_923972" data-name="Trazado 923972" d="M125.91,122.51a.379.379,0,0,1-.379-.379v-4.139a.379.379,0,1,1,.758,0v4.139a.379.379,0,0,1-.379.379" transform="translate(-62.585 -58.638)" fill="#ffc07b"/>
          <path id="Trazado_923973" data-name="Trazado 923973" d="M112.907,99.715H29.993a4.125,4.125,0,0,1,0-8.25h82.914a4.125,4.125,0,0,1,0,8.25" transform="translate(-12.897 -45.601)" fill="#4c9fd8"/>
          <rect id="Rectángulo_404543" data-name="Rectángulo 404543" width="30.821" height="4.138" transform="translate(16.867 47.919)" fill="#426f8e"/>
          <rect id="Rectángulo_404544" data-name="Rectángulo 404544" width="4.138" height="4.138" transform="translate(95.565 47.919)" fill="#426f8e"/>
          <rect id="Rectángulo_404545" data-name="Rectángulo 404545" width="4.138" height="4.138" transform="translate(88.813 47.919)" fill="#426f8e"/>
          <rect id="Rectángulo_404546" data-name="Rectángulo 404546" width="4.138" height="4.138" transform="translate(82.06 47.919)" fill="#426f8e"/>
          <path id="Trazado_923974" data-name="Trazado 923974" d="M99.941,98.714a.983.983,0,1,1-.983-.983.983.983,0,0,1,.983.983" transform="translate(-48.847 -48.725)" fill="#fff"/>
          <path id="Trazado_923975" data-name="Trazado 923975" d="M108.7,98.714a.983.983,0,1,1-.983-.983.983.983,0,0,1,.983.983" transform="translate(-53.212 -48.725)" fill="#fff"/>
          <path id="Trazado_923976" data-name="Trazado 923976" d="M117.452,98.714a.983.983,0,1,1-.983-.983.983.983,0,0,1,.983.983" transform="translate(-57.577 -48.725)" fill="#fff"/>
          <rect id="Rectángulo_404547" data-name="Rectángulo 404547" width="18.389" height="4.138" transform="translate(61.582 47.919)" fill="#2d3e4f"/>
          <path id="Trazado_923977" data-name="Trazado 923977" d="M122.435,99.705a.379.379,0,0,1-.379-.379V95.187a.379.379,0,1,1,.758,0v4.139a.379.379,0,0,1-.379.379" transform="translate(-60.853 -47.268)" fill="#ffc07b"/>
          <path id="Trazado_923978" data-name="Trazado 923978" d="M125.91,99.705a.379.379,0,0,1-.379-.379V95.187a.379.379,0,1,1,.758,0v4.139a.379.379,0,0,1-.379.379" transform="translate(-62.585 -47.268)" fill="#ffc07b"/>
          <path id="Trazado_923979" data-name="Trazado 923979" d="M129.385,99.705a.379.379,0,0,1-.379-.379V95.187a.379.379,0,1,1,.758,0v4.139a.379.379,0,0,1-.379.379" transform="translate(-64.318 -47.268)" fill="#ffc07b"/>
          <path id="Trazado_923980" data-name="Trazado 923980" d="M132.861,99.705a.379.379,0,0,1-.379-.379V95.187a.379.379,0,1,1,.758,0v4.139a.379.379,0,0,1-.379.379" transform="translate(-66.051 -47.268)" fill="#ffc07b"/>
          <path id="Trazado_923981" data-name="Trazado 923981" d="M136.037,99.705a.379.379,0,0,1-.379-.379V95.187a.379.379,0,1,1,.758,0v4.139a.379.379,0,0,1-.379.379" transform="translate(-67.634 -47.268)" fill="#ffc07b"/>
          <path id="Trazado_923982" data-name="Trazado 923982" d="M138.969,99.705a.379.379,0,0,1-.379-.379V95.187a.379.379,0,1,1,.758,0v4.139a.379.379,0,0,1-.379.379" transform="translate(-69.096 -47.268)" fill="#ffc07b"/>
          <rect id="Rectángulo_404548" data-name="Rectángulo 404548" width="97.357" height="3.703" transform="translate(9.875 38.354)" fill="#2d3e4f"/>
          <rect id="Rectángulo_404549" data-name="Rectángulo 404549" width="97.357" height="3.703" transform="translate(9.875 69.944)" fill="#2d3e4f"/>
          <rect id="Rectángulo_404550" data-name="Rectángulo 404550" width="97.357" height="19.172" transform="translate(9.875 111.987)" fill="#426f8e"/>
          <path id="Trazado_923983" data-name="Trazado 923983" d="M190.531,239.959a2.5,2.5,0,1,0,2.5-2.5,2.5,2.5,0,0,0-2.5,2.5" transform="translate(-94.992 -118.386)" fill="#4c9fd8"/>
          <path id="Trazado_923984" data-name="Trazado 923984" d="M154.063,239.959a2.5,2.5,0,1,0,2.5-2.5,2.5,2.5,0,0,0-2.5,2.5" transform="translate(-76.81 -118.386)" fill="#4c9fd8"/>
          <rect id="Rectángulo_404551" data-name="Rectángulo 404551" width="7.082" height="1.591" transform="translate(85.359 120.777)" fill="#4c9fd8"/>
          <rect id="Rectángulo_404552" data-name="Rectángulo 404552" width="7.082" height="1.591" transform="translate(55.605 120.777)" fill="#4c9fd8"/>
          <rect id="Rectángulo_404553" data-name="Rectángulo 404553" width="5.009" height="5.009" transform="translate(65.784 119.068)" fill="#4c9fd8"/>
          <rect id="Rectángulo_404554" data-name="Rectángulo 404554" width="5.009" height="5.009" transform="translate(47.498 119.068)" fill="#4c9fd8"/>
          <path id="Trazado_923985" data-name="Trazado 923985" d="M69.224,239.959a2.5,2.5,0,1,0,2.5-2.5,2.5,2.5,0,0,0-2.5,2.5" transform="translate(-34.513 -118.386)" fill="#4c9fd8"/>
          <path id="Trazado_923986" data-name="Trazado 923986" d="M32.756,239.959a2.5,2.5,0,1,0,2.5-2.5,2.5,2.5,0,0,0-2.5,2.5" transform="translate(-16.331 -118.386)" fill="#4c9fd8"/>
          <rect id="Rectángulo_404555" data-name="Rectángulo 404555" width="7.082" height="1.591" transform="translate(24.532 120.777)" fill="#4c9fd8"/>
          <rect id="Rectángulo_404556" data-name="Rectángulo 404556" width="97.357" height="19.172" transform="translate(9.875 131.159)" fill="#365268"/>
          <path id="Trazado_923987" data-name="Trazado 923987" d="M190.531,278.194a2.5,2.5,0,1,0,2.5-2.5,2.5,2.5,0,0,0-2.5,2.5" transform="translate(-94.992 -137.449)" fill="#4c9fd8"/>
          <path id="Trazado_923988" data-name="Trazado 923988" d="M154.063,278.194a2.5,2.5,0,1,0,2.5-2.5,2.5,2.5,0,0,0-2.5,2.5" transform="translate(-76.81 -137.449)" fill="#4c9fd8"/>
          <rect id="Rectángulo_404557" data-name="Rectángulo 404557" width="7.082" height="1.591" transform="translate(85.359 139.95)" fill="#4c9fd8"/>
          <rect id="Rectángulo_404558" data-name="Rectángulo 404558" width="7.082" height="1.591" transform="translate(55.605 139.95)" fill="#4c9fd8"/>
          <rect id="Rectángulo_404559" data-name="Rectángulo 404559" width="5.009" height="5.009" transform="translate(65.784 138.241)" fill="#4c9fd8"/>
          <rect id="Rectángulo_404560" data-name="Rectángulo 404560" width="5.009" height="5.009" transform="translate(47.498 138.241)" fill="#4c9fd8"/>
          <path id="Trazado_923989" data-name="Trazado 923989" d="M69.224,278.194a2.5,2.5,0,1,0,2.5-2.5,2.5,2.5,0,0,0-2.5,2.5" transform="translate(-34.513 -137.449)" fill="#4c9fd8"/>
          <path id="Trazado_923990" data-name="Trazado 923990" d="M32.756,278.194a2.5,2.5,0,1,0,2.5-2.5,2.5,2.5,0,0,0-2.5,2.5" transform="translate(-16.331 -137.449)" fill="#4c9fd8"/>
          <rect id="Rectángulo_404561" data-name="Rectángulo 404561" width="7.082" height="1.591" transform="translate(24.532 139.95)" fill="#4c9fd8"/>
          <rect id="Rectángulo_404562" data-name="Rectángulo 404562" width="97.357" height="19.172" transform="translate(9.875 92.814)" fill="#365268"/>
          <rect id="Rectángulo_404563" data-name="Rectángulo 404563" width="3.049" height="3.049" transform="translate(97.635 103.953)" fill="#4c9fd8"/>
          <rect id="Rectángulo_404564" data-name="Rectángulo 404564" width="3.049" height="3.049" transform="translate(92.28 103.953)" fill="#4c9fd8"/>
          <rect id="Rectángulo_404565" data-name="Rectángulo 404565" width="3.049" height="3.049" transform="translate(86.925 103.953)" fill="#4c9fd8"/>
          <path id="Trazado_923991" data-name="Trazado 923991" d="M175.231,195.037h10a1.878,1.878,0,1,1,0,3.757h-10a1.878,1.878,0,1,1,0-3.757" transform="translate(-86.428 -97.239)" fill="#2d3e4f"/>
          <rect id="Rectángulo_404566" data-name="Rectángulo 404566" width="3.049" height="3.049" transform="translate(74.134 103.953)" fill="#4c9fd8"/>
          <rect id="Rectángulo_404567" data-name="Rectángulo 404567" width="3.049" height="3.049" transform="translate(68.779 103.953)" fill="#4c9fd8"/>
          <rect id="Rectángulo_404568" data-name="Rectángulo 404568" width="3.049" height="3.049" transform="translate(63.425 103.953)" fill="#4c9fd8"/>
          <path id="Trazado_923992" data-name="Trazado 923992" d="M128.364,195.037h10a1.878,1.878,0,1,1,0,3.757h-10a1.878,1.878,0,1,1,0-3.757" transform="translate(-63.061 -97.239)" fill="#2d3e4f"/>
          <rect id="Rectángulo_404569" data-name="Rectángulo 404569" width="3.049" height="3.049" transform="translate(50.633 103.953)" fill="#4c9fd8"/>
          <rect id="Rectángulo_404570" data-name="Rectángulo 404570" width="3.049" height="3.049" transform="translate(45.278 103.953)" fill="#4c9fd8"/>
          <rect id="Rectángulo_404571" data-name="Rectángulo 404571" width="3.049" height="3.049" transform="translate(39.924 103.953)" fill="#4c9fd8"/>
          <path id="Trazado_923993" data-name="Trazado 923993" d="M81.5,195.037h10a1.878,1.878,0,1,1,0,3.757h-10a1.878,1.878,0,0,1,0-3.757" transform="translate(-39.695 -97.239)" fill="#2d3e4f"/>
          <rect id="Rectángulo_404572" data-name="Rectángulo 404572" width="3.049" height="3.049" transform="translate(27.132 103.953)" fill="#4c9fd8"/>
          <rect id="Rectángulo_404573" data-name="Rectángulo 404573" width="3.049" height="3.049" transform="translate(21.777 103.953)" fill="#4c9fd8"/>
          <rect id="Rectángulo_404574" data-name="Rectángulo 404574" width="3.049" height="3.049" transform="translate(16.423 103.953)" fill="#4c9fd8"/>
          <path id="Trazado_923994" data-name="Trazado 923994" d="M34.63,195.037h10a1.878,1.878,0,1,1,0,3.757h-10a1.878,1.878,0,1,1,0-3.757" transform="translate(-16.329 -97.239)" fill="#2d3e4f"/>
          <rect id="Rectángulo_404575" data-name="Rectángulo 404575" width="97.357" height="19.172" transform="translate(9.875 0)" fill="#426f8e"/>
          <rect id="Rectángulo_404576" data-name="Rectángulo 404576" width="33.784" height="6.218" transform="translate(53.835 6.477)" fill="#2d3e4f"/>
          <path id="Trazado_923995" data-name="Trazado 923995" d="M188.179,16.027a3.109,3.109,0,1,1,3.109,3.109,3.109,3.109,0,0,1-3.109-3.109" transform="translate(-93.819 -6.44)" fill="#2d3e4f"/>
          <path id="Trazado_923996" data-name="Trazado 923996" d="M70.935,17.88a1.246,1.246,0,1,1,1.246,1.246,1.245,1.245,0,0,1-1.246-1.246" transform="translate(-35.366 -8.293)" fill="#4c9fd8"/>
          <path id="Trazado_923997" data-name="Trazado 923997" d="M58.282,17.88a1.246,1.246,0,1,1,1.246,1.246,1.245,1.245,0,0,1-1.246-1.246" transform="translate(-29.057 -8.293)" fill="#4c9fd8"/>
          <path id="Trazado_923998" data-name="Trazado 923998" d="M45.628,17.88a1.246,1.246,0,1,1,1.246,1.246,1.245,1.245,0,0,1-1.246-1.246" transform="translate(-22.748 -8.293)" fill="#4c9fd8"/>
          <path id="Trazado_923999" data-name="Trazado 923999" d="M32.975,17.88a1.246,1.246,0,1,1,1.246,1.246,1.245,1.245,0,0,1-1.246-1.246" transform="translate(-16.44 -8.293)" fill="#4c9fd8"/>
          <rect id="Rectángulo_404577" data-name="Rectángulo 404577" width="97.357" height="19.172" transform="translate(9.875 19.173)" fill="#365268"/>
          <rect id="Rectángulo_404578" data-name="Rectángulo 404578" width="5.009" height="5.009" transform="translate(95.62 26.255)" fill="#4c9fd8"/>
          <rect id="Rectángulo_404579" data-name="Rectángulo 404579" width="5.009" height="5.009" transform="translate(85.326 26.255)" fill="#4c9fd8"/>
          <rect id="Rectángulo_404580" data-name="Rectángulo 404580" width="5.009" height="5.009" transform="translate(75.031 26.255)" fill="#4c9fd8"/>
          <rect id="Rectángulo_404581" data-name="Rectángulo 404581" width="5.009" height="5.009" transform="translate(64.737 26.255)" fill="#4c9fd8"/>
          <rect id="Rectángulo_404582" data-name="Rectángulo 404582" width="5.009" height="5.009" transform="translate(26.68 26.255)" fill="#4c9fd8"/>
          <rect id="Rectángulo_404583" data-name="Rectángulo 404583" width="5.009" height="5.009" transform="translate(16.386 26.255)" fill="#4c9fd8"/>
          <path id="Trazado_924000" data-name="Trazado 924000" d="M84.166,57.368h8.749a2.5,2.5,0,0,0,0-5.009H84.166a2.5,2.5,0,1,0,0,5.009" transform="translate(-40.713 -26.104)" fill="#2d3e4f"/>
          <path id="Trazado_924001" data-name="Trazado 924001" d="M140.854,215.99q-.64,0-1.291-.047c-4.775-.345-8.993-2.616-10.747-5.786a.379.379,0,1,1,.664-.368c1.633,2.951,5.612,5.07,10.138,5.4a14.314,14.314,0,0,0,12.729-5.443.379.379,0,1,1,.6.459,14.881,14.881,0,0,1-12.1,5.788" transform="translate(-64.199 -104.496)" fill="#fff"/>
          <path id="Trazado_924002" data-name="Trazado 924002" d="M62.812,217.926h-.037c-3.1-.023-5.48-2.97-6.377-7.885a.379.379,0,1,1,.747-.136c.826,4.527,2.933,7.242,5.636,7.262h.031c2.865,0,5.545-3.05,6.38-7.268a.379.379,0,1,1,.744.147c-.92,4.646-3.846,7.879-7.123,7.879" transform="translate(-28.115 -104.496)" fill="#fff"/>
          <path id="Trazado_924003" data-name="Trazado 924003" d="M114.6,214.749c-3.487,0-6.94-1.362-11.182-4.469a.38.38,0,0,1,.449-.612c8.973,6.575,14.162,4.95,23.092-.026a.379.379,0,1,1,.369.663c-5.011,2.793-8.89,4.444-12.728,4.444" transform="translate(-51.481 -104.496)" fill="#fff"/>
          <rect id="Rectángulo_404584" data-name="Rectángulo 404584" width="97.357" height="19.172" transform="translate(9.875 73.641)" fill="#426f8e"/>
          <rect id="Rectángulo_404585" data-name="Rectángulo 404585" width="5.009" height="5.009" transform="translate(30.19 80.852)" fill="#4c9fd8"/>
          <rect id="Rectángulo_404586" data-name="Rectángulo 404586" width="5.009" height="5.009" transform="translate(23.311 80.852)" fill="#4c9fd8"/>
          <rect id="Rectángulo_404587" data-name="Rectángulo 404587" width="5.009" height="5.009" transform="translate(16.432 80.852)" fill="#4c9fd8"/>
          <path id="Trazado_924004" data-name="Trazado 924004" d="M83.633,157.972h52.535a4.145,4.145,0,0,1,0,8.289H83.633a4.145,4.145,0,0,1,0-8.289" transform="translate(-39.63 -78.759)" fill="#4c9fd8"/>
          <rect id="Rectángulo_404588" data-name="Rectángulo 404588" width="22.908" height="3.132" transform="translate(43.764 81.791)" fill="#2d3e4f"/>
          <path id="Trazado_924005" data-name="Trazado 924005" d="M180.185,163.747a2.5,2.5,0,1,1,2.5,2.5,2.5,2.5,0,0,1-2.5-2.5" transform="translate(-89.834 -80.39)" fill="#3c86af"/>
          <path id="Trazado_924006" data-name="Trazado 924006" d="M171.733,165.429a.812.812,0,1,1,.812.812.812.812,0,0,1-.812-.812" transform="translate(-85.62 -82.072)" fill="#fff"/>
          <path id="Trazado_924007" data-name="Trazado 924007" d="M159.934,164.679a1.566,1.566,0,1,1,1.566,1.566,1.566,1.566,0,0,1-1.566-1.566" transform="translate(-79.737 -81.322)" fill="#3c86af"/>
          <path id="Trazado_924008" data-name="Trazado 924008" d="M149.638,164.679a1.566,1.566,0,1,1,1.566,1.566,1.566,1.566,0,0,1-1.566-1.566" transform="translate(-74.604 -81.322)" fill="#3c86af"/>
          <path id="Trazado_924009" data-name="Trazado 924009" d="M139.342,164.679a1.566,1.566,0,1,1,1.566,1.566,1.566,1.566,0,0,1-1.566-1.566" transform="translate(-69.471 -81.322)" fill="#3c86af"/>
          <path id="Trazado_924010" data-name="Trazado 924010" d="M46.093,188.359a.374.374,0,0,1-.233-.08.378.378,0,0,1-.066-.532c4.6-5.91,9.312-13.133,9.312-21.887a.379.379,0,1,1,.758,0c0,8.984-4.788,16.341-9.473,22.353a.378.378,0,0,1-.3.146" transform="translate(-22.791 -82.503)" fill="#ffc07b"/>
          <path id="Trazado_924011" data-name="Trazado 924011" d="M86.115,191.072a43.661,43.661,0,0,1-14-2.559c-12.537-4.378-20.533-12.833-21.389-22.619a.379.379,0,0,1,.755-.066c.4,4.552,3.231,15.805,20.884,21.969,9.636,3.365,19.717,3.331,22.951-.077a.379.379,0,0,1,.551.522c-1.787,1.883-5.349,2.831-9.754,2.831" transform="translate(-25.291 -82.503)" fill="#ffc07b"/>
          <rect id="Rectángulo_404589" data-name="Rectángulo 404589" width="97.357" height="19.172" transform="translate(9.875 150.331)" fill="#426f8e"/>
          <rect id="Rectángulo_404590" data-name="Rectángulo 404590" width="3.049" height="3.049" transform="translate(97.635 155.316)" fill="#4c9fd8"/>
          <rect id="Rectángulo_404591" data-name="Rectángulo 404591" width="3.049" height="3.049" transform="translate(92.28 155.316)" fill="#4c9fd8"/>
          <rect id="Rectángulo_404592" data-name="Rectángulo 404592" width="3.049" height="3.049" transform="translate(86.925 155.316)" fill="#4c9fd8"/>
          <path id="Trazado_924012" data-name="Trazado 924012" d="M175.231,324.362h10a1.878,1.878,0,1,0,0-3.757h-10a1.878,1.878,0,1,0,0,3.757" transform="translate(-86.428 -159.842)" fill="#2d3e4f"/>
          <rect id="Rectángulo_404593" data-name="Rectángulo 404593" width="3.049" height="3.049" transform="translate(74.134 155.316)" fill="#4c9fd8"/>
          <rect id="Rectángulo_404594" data-name="Rectángulo 404594" width="3.049" height="3.049" transform="translate(68.779 155.316)" fill="#4c9fd8"/>
          <rect id="Rectángulo_404595" data-name="Rectángulo 404595" width="3.049" height="3.049" transform="translate(63.425 155.316)" fill="#4c9fd8"/>
          <path id="Trazado_924013" data-name="Trazado 924013" d="M128.364,324.362h10a1.878,1.878,0,0,0,0-3.757h-10a1.878,1.878,0,0,0,0,3.757" transform="translate(-63.061 -159.842)" fill="#2d3e4f"/>
          <rect id="Rectángulo_404596" data-name="Rectángulo 404596" width="3.049" height="3.049" transform="translate(50.633 155.316)" fill="#4c9fd8"/>
          <rect id="Rectángulo_404597" data-name="Rectángulo 404597" width="3.049" height="3.049" transform="translate(45.278 155.316)" fill="#4c9fd8"/>
          <rect id="Rectángulo_404598" data-name="Rectángulo 404598" width="3.049" height="3.049" transform="translate(39.924 155.316)" fill="#4c9fd8"/>
          <path id="Trazado_924014" data-name="Trazado 924014" d="M81.5,324.362h10a1.878,1.878,0,0,0,0-3.757h-10a1.878,1.878,0,0,0,0,3.757" transform="translate(-39.695 -159.842)" fill="#2d3e4f"/>
          <rect id="Rectángulo_404599" data-name="Rectángulo 404599" width="3.049" height="3.049" transform="translate(27.132 155.316)" fill="#4c9fd8"/>
          <rect id="Rectángulo_404600" data-name="Rectángulo 404600" width="3.049" height="3.049" transform="translate(21.777 155.316)" fill="#4c9fd8"/>
          <rect id="Rectángulo_404601" data-name="Rectángulo 404601" width="3.049" height="3.049" transform="translate(16.423 155.316)" fill="#4c9fd8"/>
          <path id="Trazado_924015" data-name="Trazado 924015" d="M34.63,324.362h10a1.878,1.878,0,0,0,0-3.757h-10a1.878,1.878,0,0,0,0,3.757" transform="translate(-16.329 -159.842)" fill="#2d3e4f"/>
          <path id="Trazado_924016" data-name="Trazado 924016" d="M139.949,317.957c-3.932,0-7.546-1.761-11.069-5.283a.379.379,0,1,1,.537-.536c6.714,6.714,13.811,6.7,23.008-.038a.379.379,0,0,1,.448.612c-4.772,3.5-9.006,5.245-12.924,5.245" transform="translate(-64.2 -155.565)" fill="#fff"/>
          <path id="Trazado_924017" data-name="Trazado 924017" d="M64.453,68.565c-11.079,0-22.326-5.5-27.951-11.325a.379.379,0,0,1,.546-.528c6.141,6.356,19.13,12.329,31.1,10.876,7.477-.907,13.323-4.642,16.907-10.8a.379.379,0,1,1,.656.381c-3.709,6.374-9.75,10.238-17.472,11.174a31.459,31.459,0,0,1-3.791.224" transform="translate(-18.146 -28.217)" fill="#ffc07b"/>
          <path id="Trazado_924018" data-name="Trazado 924018" d="M80.666,66.951c-9.663,0-17.827-3.419-23.131-9.731a.379.379,0,0,1,.581-.488c5.485,6.526,14.14,9.873,24.368,9.42,9.837-.434,19.852-4.473,23.3-9.394a.379.379,0,1,1,.621.435c-3.567,5.1-13.835,9.273-23.885,9.716q-.933.041-1.85.041" transform="translate(-28.641 -28.217)" fill="#fff"/>
          <path id="Trazado_924019" data-name="Trazado 924019" d="M99.362,248.165A43.97,43.97,0,0,1,77.928,242.4a.38.38,0,0,1,.369-.663c11.449,6.373,29.06,8.553,39.146.042a.38.38,0,0,1,.489.58c-4.035,3.4-10.254,5.508-17.064,5.774-.479.019-.983.029-1.507.029" transform="translate(-38.755 -120.499)" fill="#fff"/>
          <path id="Trazado_924020" data-name="Trazado 924020" d="M59.932,261.624a.376.376,0,0,1-.112-.017c-8.082-2.487-16.952-9.473-18.55-19.475a.379.379,0,1,1,.749-.119c1.546,9.68,10.166,16.452,18.024,18.87a.379.379,0,0,1-.111.742" transform="translate(-20.573 -120.499)" fill="#fff"/>
          <path id="Trazado_924021" data-name="Trazado 924021" d="M158.681,261.535a.379.379,0,0,1-.173-.717c9.5-4.871,15.352-10.928,18.405-19.059a.379.379,0,0,1,.71.267c-3.123,8.318-9.088,14.5-18.769,19.467a.377.377,0,0,1-.173.042" transform="translate(-78.923 -120.41)" fill="#fff"/>
          <path id="Trazado_924022" data-name="Trazado 924022" d="M117.628,261.623c-5.656,0-17.966-10.737-18.664-19.522a.379.379,0,1,1,.756-.06c.295,3.708,2.981,8.394,7.184,12.534,3.819,3.762,8.129,6.289,10.725,6.289a.379.379,0,0,1,0,.759" transform="translate(-49.339 -120.499)" fill="#ffc07b"/>
          <rect id="Rectángulo_404602" data-name="Rectángulo 404602" width="9.895" height="207.849" transform="translate(107.231)" fill="#2d3e4f"/>
          <rect id="Rectángulo_404603" data-name="Rectángulo 404603" width="9.895" height="207.849" transform="translate(0.002)" fill="#2d3e4f"/>
          <rect id="Rectángulo_404604" data-name="Rectángulo 404604" width="97.357" height="38.345" transform="translate(9.875 169.504)" fill="#365268"/>
          <path id="Trazado_924023" data-name="Trazado 924023" d="M167.888,355.61h-31.9a.8.8,0,0,1,0-1.591h31.9a.8.8,0,1,1,0,1.591" transform="translate(-67.4 -176.501)" fill="#658eaa"/>
          <path id="Trazado_924024" data-name="Trazado 924024" d="M167.888,363.877h-31.9a.8.8,0,1,1,0-1.591h31.9a.8.8,0,1,1,0,1.591" transform="translate(-67.4 -180.623)" fill="#658eaa"/>
          <path id="Trazado_924025" data-name="Trazado 924025" d="M167.888,372.144h-31.9a.8.8,0,1,1,0-1.591h31.9a.8.8,0,1,1,0,1.591" transform="translate(-67.4 -184.745)" fill="#658eaa"/>
          <path id="Trazado_924026" data-name="Trazado 924026" d="M167.888,380.411h-31.9a.8.8,0,1,1,0-1.591h31.9a.8.8,0,1,1,0,1.591" transform="translate(-67.4 -188.866)" fill="#658eaa"/>
          <path id="Trazado_924027" data-name="Trazado 924027" d="M167.888,388.678h-31.9a.8.8,0,0,1,0-1.591h31.9a.8.8,0,1,1,0,1.591" transform="translate(-67.4 -192.988)" fill="#658eaa"/>
          <path id="Trazado_924028" data-name="Trazado 924028" d="M167.888,396.944h-31.9a.8.8,0,1,1,0-1.591h31.9a.8.8,0,1,1,0,1.591" transform="translate(-67.4 -197.109)" fill="#658eaa"/>
          <rect id="Rectángulo_404605" data-name="Rectángulo 404605" width="27.87" height="6.218" transform="translate(16.49 177.385)" fill="#2d3e4f"/>
          <path id="Trazado_924029" data-name="Trazado 924029" d="M35.376,372.395a1.246,1.246,0,1,0-1.246,1.246,1.245,1.245,0,0,0,1.246-1.246" transform="translate(-16.395 -185.042)" fill="#fff"/>
          <path id="Trazado_924030" data-name="Trazado 924030" d="M48.029,372.395a1.246,1.246,0,1,0-1.246,1.246,1.245,1.245,0,0,0,1.246-1.246" transform="translate(-22.704 -185.042)" fill="#ef8e70"/>
          <path id="Trazado_924031" data-name="Trazado 924031" d="M60.682,372.395a1.246,1.246,0,1,0-1.246,1.246,1.245,1.245,0,0,0,1.246-1.246" transform="translate(-29.012 -185.042)" fill="#fff"/>
          <path id="Trazado_924032" data-name="Trazado 924032" d="M73.336,372.395a1.246,1.246,0,1,0-1.246,1.246,1.245,1.245,0,0,0,1.246-1.246" transform="translate(-35.321 -185.042)" fill="#ef8e70"/>
          <path id="Trazado_924033" data-name="Trazado 924033" d="M85.989,372.395a1.246,1.246,0,1,0-1.246,1.246,1.245,1.245,0,0,0,1.246-1.246" transform="translate(-41.629 -185.042)" fill="#4c9fd8"/>
          <rect id="Rectángulo_404606" data-name="Rectángulo 404606" width="5.009" height="5.009" transform="translate(57.39 177.385)" fill="#4c9fd8"/>
          <rect id="Rectángulo_404607" data-name="Rectángulo 404607" width="5.009" height="5.009" transform="translate(57.39 186.057)" fill="#4c9fd8"/>
          <rect id="Rectángulo_404608" data-name="Rectángulo 404608" width="5.009" height="5.009" transform="translate(57.39 194.697)" fill="#4c9fd8"/>
          <rect id="Rectángulo_404609" data-name="Rectángulo 404609" width="5.009" height="5.009" transform="translate(32.018 194.696)" fill="#4c9fd8"/>
          <rect id="Rectángulo_404610" data-name="Rectángulo 404610" width="5.009" height="5.009" transform="translate(39.776 194.696)" fill="#4c9fd8"/>
          <rect id="Rectángulo_404611" data-name="Rectángulo 404611" width="5.009" height="5.009" transform="translate(24.26 194.696)" fill="#4c9fd8"/>
          <rect id="Rectángulo_404612" data-name="Rectángulo 404612" width="5.009" height="5.009" transform="translate(16.502 194.696)" fill="#4c9fd8"/>
          <path id="Trazado_924034" data-name="Trazado 924034" d="M212.461,219.167c-10.431,0-15.374-8.923-15.423-9.013a.379.379,0,0,1,.667-.361c.047.086,4.786,8.615,14.755,8.615,4.961,0,9.623-1.854,14.558-3.816,5.154-2.049,10.483-4.168,16.4-4.168,6.472,0,7.86.043,8.873.075.556.017.989.031,2.111.031a.379.379,0,1,1,0,.759c-1.135,0-1.573-.014-2.135-.031-1.008-.031-2.389-.074-8.849-.074-5.774,0-11.035,2.092-16.122,4.115-5,1.99-9.732,3.87-14.838,3.87" transform="translate(-98.214 -104.496)" fill="#ffc07b"/>
          <path id="Trazado_924035" data-name="Trazado 924035" d="M237.11,189.295c-1.135,0-1.573-.014-2.135-.031-1.008-.031-2.389-.074-8.85-.074-3.364,0-20.968-.214-37.207-4.44-14.618-3.8-26.418-18.505-26.535-18.654a.379.379,0,0,1,.594-.471c.116.146,11.763,14.652,26.132,18.391,16.15,4.2,33.668,4.416,37.016,4.416,6.472,0,7.86.043,8.873.074.556.017.989.031,2.111.031a.379.379,0,0,1,0,.759" transform="translate(-80.917 -82.503)" fill="#ffc07b"/>
          <path id="Trazado_924036" data-name="Trazado 924036" d="M205.929,222.738c-5.452,0-10.481-3.419-13.74-6.287a42.605,42.605,0,0,1-5.8-6.255.379.379,0,0,1,.616-.443c.088.122,8.918,12.227,18.927,12.227,4.938,0,9.873-2.679,15.1-5.515,5.471-2.969,11.127-6.039,17.07-6.039,9.571,0,10.96.1,11.015.106a.379.379,0,0,1-.06.756c-.056,0-1.474-.1-10.955-.1-5.75,0-11.32,3.023-16.708,5.947-5.313,2.883-10.331,5.607-15.461,5.607" transform="translate(-92.89 -104.497)" fill="#ffc07b"/>
        </g>
      </g>
    </g>
  </g>
</svg>
