<svg xmlns="http://www.w3.org/2000/svg" xmlns:xlink="http://www.w3.org/1999/xlink" width="400.051" height="515" viewBox="0 0 400.051 515">
  <defs>
    <clipPath id="clip-path">
      <rect id="Rectángulo_405059" data-name="Rectángulo 405059" width="319.68" height="500.345" fill="none"/>
    </clipPath>
  </defs>
  <g id="img26" transform="translate(-1020 -7806)">
    <rect id="Rectángulo_405060" data-name="Rectángulo 405060" width="295" height="486" rx="20" transform="translate(1125.051 7835)" fill="#d7eed6"/>
    <g id="Grupo_1103802" data-name="Grupo 1103802" transform="translate(1020 7806)">
      <rect id="Rectángulo_404997" data-name="Rectángulo 404997" width="56.183" height="499.813" transform="translate(0 0.006)" fill="#78a8b3"/>
      <path id="Trazado_924597" data-name="Trazado 924597" d="M67.168,410.283H241.974v67.563H67.168Zm0-77.917H241.974v67.563H67.168Zm0-77.915H241.974v67.565H67.168Zm0-77.914H241.974V244.1H67.168Zm0-77.917H241.974v67.562H67.168Zm0-77.915H241.974V88.269H67.168ZM53.963,0V499.821H255.174V0Z" transform="translate(-10.982)" fill="#d8eef0"/>
      <rect id="Rectángulo_404998" data-name="Rectángulo 404998" width="174.806" height="67.564" transform="translate(56.186 20.705)" fill="#87b8c7"/>
      <g id="Grupo_1103801" data-name="Grupo 1103801">
        <g id="Grupo_1103800" data-name="Grupo 1103800" clip-path="url(#clip-path)">
          <path id="Trazado_924598" data-name="Trazado 924598" d="M203.2,88.989h57.539a2.559,2.559,0,0,0,2.559-2.558V36.263a2.559,2.559,0,0,0-2.559-2.56H203.2a2.559,2.559,0,0,0-2.559,2.56V86.431a2.557,2.557,0,0,0,2.556,2.558" transform="translate(-40.833 -6.859)"/>
          <path id="Trazado_924599" data-name="Trazado 924599" d="M82.583,88.989h5.891a.894.894,0,0,0,.9-.9V34.6a.9.9,0,0,0-.9-.9H82.583a.9.9,0,0,0-.9.894v53.5a.9.9,0,0,0,.9.9" transform="translate(-16.624 -6.859)" fill="#ff586a"/>
          <path id="Trazado_924600" data-name="Trazado 924600" d="M211.482,51.027H254.27a4.51,4.51,0,0,0,4.51-4.511V45.175a4.51,4.51,0,0,0-4.51-4.509H211.484a4.512,4.512,0,0,0-4.512,4.509v1.343a4.51,4.51,0,0,0,4.51,4.509" transform="translate(-42.122 -8.276)" fill="#fff"/>
          <path id="Trazado_924601" data-name="Trazado 924601" d="M211.482,51.027H254.27a4.51,4.51,0,0,0,4.51-4.511V45.175a4.51,4.51,0,0,0-4.51-4.509H211.484a4.512,4.512,0,0,0-4.512,4.509v1.343a4.51,4.51,0,0,0,4.51,4.509" transform="translate(-42.122 -8.276)" fill="#87b8c7"/>
          <rect id="Rectángulo_404999" data-name="Rectángulo 404999" width="29.939" height="3.636" transform="translate(175.786 35.752)"/>
          <rect id="Rectángulo_405000" data-name="Rectángulo 405000" width="23.019" height="11.865" transform="translate(129.623 31.361)"/>
          <rect id="Rectángulo_405001" data-name="Rectángulo 405001" width="23.019" height="11.865" transform="translate(96.388 31.361)"/>
          <rect id="Rectángulo_405002" data-name="Rectángulo 405002" width="33.817" height="11.866" transform="translate(80.268 50.734)"/>
          <rect id="Rectángulo_405003" data-name="Rectángulo 405003" width="28.666" height="4.359" transform="translate(82.844 54.486)" fill="#87b8c7"/>
          <rect id="Rectángulo_405004" data-name="Rectángulo 405004" width="33.817" height="11.864" transform="translate(80.268 68.906)"/>
          <rect id="Rectángulo_405005" data-name="Rectángulo 405005" width="28.666" height="4.36" transform="translate(82.844 72.656)" fill="#87b8c7"/>
          <path id="Trazado_924602" data-name="Trazado 924602" d="M211.485,72.268h42.786a4.51,4.51,0,0,0,4.509-4.51V66.414a4.508,4.508,0,0,0-4.509-4.507H211.485a4.509,4.509,0,0,0-4.512,4.509v1.341a4.513,4.513,0,0,0,4.512,4.51" transform="translate(-42.122 -12.599)" fill="#87b8c7"/>
          <path id="Trazado_924603" data-name="Trazado 924603" d="M211.485,93.505h42.786a4.51,4.51,0,0,0,4.509-4.51V87.653a4.509,4.509,0,0,0-4.509-4.51H211.485a4.512,4.512,0,0,0-4.512,4.51v1.341a4.512,4.512,0,0,0,4.512,4.51" transform="translate(-42.122 -16.921)" fill="#87b8c7"/>
          <rect id="Rectángulo_405006" data-name="Rectángulo 405006" width="29.939" height="3.636" transform="translate(175.786 52.67)"/>
          <rect id="Rectángulo_405007" data-name="Rectángulo 405007" width="29.939" height="3.636" transform="translate(175.786 69.585)"/>
          <path id="Trazado_924604" data-name="Trazado 924604" d="M188.8,71.355a3.657,3.657,0,1,0-3.655,3.818,3.739,3.739,0,0,0,3.655-3.818" transform="translate(-36.935 -13.745)" fill="#ff586a"/>
          <path id="Trazado_924605" data-name="Trazado 924605" d="M173.52,71.355a3.659,3.659,0,1,0-3.655,3.818,3.739,3.739,0,0,0,3.655-3.818" transform="translate(-33.826 -13.745)" fill="#fff"/>
          <path id="Trazado_924606" data-name="Trazado 924606" d="M158.242,71.355a3.657,3.657,0,1,0-3.653,3.818,3.738,3.738,0,0,0,3.653-3.818" transform="translate(-30.717 -13.745)" fill="#ff586a"/>
          <path id="Trazado_924607" data-name="Trazado 924607" d="M109.135,45.525a4.861,4.861,0,1,0-4.856,5.074,4.969,4.969,0,0,0,4.856-5.074" transform="translate(-20.234 -8.233)" fill="#fff"/>
          <path id="Trazado_924608" data-name="Trazado 924608" d="M188.8,89.739a3.657,3.657,0,1,0-3.655,3.819,3.739,3.739,0,0,0,3.655-3.819" transform="translate(-36.935 -17.486)" fill="#fff"/>
          <path id="Trazado_924609" data-name="Trazado 924609" d="M173.52,89.739a3.659,3.659,0,1,0-3.655,3.819,3.739,3.739,0,0,0,3.655-3.819" transform="translate(-33.826 -17.486)" fill="#ff586a"/>
          <path id="Trazado_924610" data-name="Trazado 924610" d="M158.242,89.739a3.657,3.657,0,1,0-3.653,3.819,3.739,3.739,0,0,0,3.653-3.819" transform="translate(-30.717 -17.486)" fill="#fff"/>
          <rect id="Rectángulo_405008" data-name="Rectángulo 405008" width="174.806" height="67.562" transform="translate(56.186 98.621)" fill="#87b8c7"/>
          <path id="Trazado_924611" data-name="Trazado 924611" d="M203.2,186.814h57.535a2.559,2.559,0,0,0,2.559-2.56V134.087a2.559,2.559,0,0,0-2.559-2.561H203.2a2.558,2.558,0,0,0-2.56,2.559v50.169a2.56,2.56,0,0,0,2.56,2.56" transform="translate(-40.833 -26.767)"/>
          <path id="Trazado_924612" data-name="Trazado 924612" d="M82.583,186.814h5.891a.894.894,0,0,0,.9-.9v-53.5a.9.9,0,0,0-.9-.9H82.583a.9.9,0,0,0-.9.9v53.5a.9.9,0,0,0,.9.9" transform="translate(-16.624 -26.767)" fill="#ff586a"/>
          <path id="Trazado_924613" data-name="Trazado 924613" d="M211.485,148.852h42.786a4.51,4.51,0,0,0,4.509-4.51V143a4.51,4.51,0,0,0-4.509-4.51H211.485a4.51,4.51,0,0,0-4.512,4.51v1.341a4.512,4.512,0,0,0,4.512,4.51" transform="translate(-42.122 -28.185)" fill="#fff"/>
          <path id="Trazado_924614" data-name="Trazado 924614" d="M211.485,148.852h42.786a4.51,4.51,0,0,0,4.509-4.51V143a4.51,4.51,0,0,0-4.509-4.51H211.485a4.51,4.51,0,0,0-4.512,4.51v1.341a4.512,4.512,0,0,0,4.512,4.51" transform="translate(-42.122 -28.185)" fill="#87b8c7"/>
          <rect id="Rectángulo_405009" data-name="Rectángulo 405009" width="29.939" height="3.636" transform="translate(175.786 113.668)"/>
          <rect id="Rectángulo_405010" data-name="Rectángulo 405010" width="23.019" height="11.868" transform="translate(129.623 109.275)"/>
          <rect id="Rectángulo_405011" data-name="Rectángulo 405011" width="23.019" height="11.868" transform="translate(96.388 109.275)"/>
          <rect id="Rectángulo_405012" data-name="Rectángulo 405012" width="33.817" height="11.866" transform="translate(80.268 128.649)"/>
          <rect id="Rectángulo_405013" data-name="Rectángulo 405013" width="28.666" height="4.359" transform="translate(82.844 132.403)" fill="#87b8c7"/>
          <rect id="Rectángulo_405014" data-name="Rectángulo 405014" width="33.817" height="11.866" transform="translate(80.268 146.819)"/>
          <rect id="Rectángulo_405015" data-name="Rectángulo 405015" width="28.666" height="4.358" transform="translate(82.844 150.573)" fill="#87b8c7"/>
          <path id="Trazado_924615" data-name="Trazado 924615" d="M211.482,170.09H254.27a4.509,4.509,0,0,0,4.51-4.508v-1.344a4.51,4.51,0,0,0-4.51-4.509H211.482a4.51,4.51,0,0,0-4.51,4.509v1.344a4.509,4.509,0,0,0,4.51,4.508" transform="translate(-42.122 -32.507)" fill="#87b8c7"/>
          <path id="Trazado_924616" data-name="Trazado 924616" d="M211.485,191.329h42.786a4.51,4.51,0,0,0,4.509-4.51v-1.343a4.509,4.509,0,0,0-4.509-4.509H211.485a4.512,4.512,0,0,0-4.512,4.51v1.341a4.51,4.51,0,0,0,4.512,4.51" transform="translate(-42.122 -36.83)" fill="#87b8c7"/>
          <rect id="Rectángulo_405016" data-name="Rectángulo 405016" width="29.939" height="3.636" transform="translate(175.786 130.585)"/>
          <rect id="Rectángulo_405017" data-name="Rectángulo 405017" width="29.939" height="3.636" transform="translate(175.786 147.501)"/>
          <path id="Trazado_924617" data-name="Trazado 924617" d="M188.8,169.179A3.657,3.657,0,1,0,185.141,173a3.74,3.74,0,0,0,3.655-3.819" transform="translate(-36.935 -33.653)" fill="#ff586a"/>
          <path id="Trazado_924618" data-name="Trazado 924618" d="M173.52,169.179A3.659,3.659,0,1,0,169.865,173a3.739,3.739,0,0,0,3.655-3.819" transform="translate(-33.826 -33.653)" fill="#fff"/>
          <path id="Trazado_924619" data-name="Trazado 924619" d="M158.242,169.179A3.657,3.657,0,1,0,154.589,173a3.739,3.739,0,0,0,3.653-3.819" transform="translate(-30.717 -33.653)" fill="#ff586a"/>
          <path id="Trazado_924620" data-name="Trazado 924620" d="M109.135,143.349a4.861,4.861,0,1,0-4.856,5.074,4.969,4.969,0,0,0,4.856-5.074" transform="translate(-20.234 -28.141)" fill="#fff"/>
          <path id="Trazado_924621" data-name="Trazado 924621" d="M188.8,187.563a3.657,3.657,0,1,0-3.655,3.818,3.739,3.739,0,0,0,3.655-3.818" transform="translate(-36.935 -37.395)" fill="#fff"/>
          <path id="Trazado_924622" data-name="Trazado 924622" d="M173.52,187.563a3.659,3.659,0,1,0-3.655,3.818,3.739,3.739,0,0,0,3.655-3.818" transform="translate(-33.826 -37.395)" fill="#ff586a"/>
          <path id="Trazado_924623" data-name="Trazado 924623" d="M158.242,187.563a3.657,3.657,0,1,0-3.653,3.818,3.738,3.738,0,0,0,3.653-3.818" transform="translate(-30.717 -37.395)" fill="#fff"/>
          <rect id="Rectángulo_405018" data-name="Rectángulo 405018" width="174.806" height="67.563" transform="translate(56.186 176.536)" fill="#87b8c7"/>
          <path id="Trazado_924624" data-name="Trazado 924624" d="M203.2,284.638h57.535a2.56,2.56,0,0,0,2.559-2.561V231.908a2.558,2.558,0,0,0-2.559-2.558H203.2a2.558,2.558,0,0,0-2.56,2.558v50.168a2.56,2.56,0,0,0,2.56,2.561" transform="translate(-40.833 -46.676)"/>
          <path id="Trazado_924625" data-name="Trazado 924625" d="M82.583,284.638h5.891a.9.9,0,0,0,.9-.9V230.245a.893.893,0,0,0-.9-.9H82.583a.9.9,0,0,0-.9.9V283.74a.9.9,0,0,0,.9.9" transform="translate(-16.624 -46.676)" fill="#ff586a"/>
          <path id="Trazado_924626" data-name="Trazado 924626" d="M211.482,246.675H254.27a4.51,4.51,0,0,0,4.51-4.51v-1.341a4.51,4.51,0,0,0-4.51-4.509H211.484a4.511,4.511,0,0,0-4.512,4.509v1.343a4.509,4.509,0,0,0,4.51,4.508" transform="translate(-42.122 -48.093)" fill="#fff"/>
          <path id="Trazado_924627" data-name="Trazado 924627" d="M211.482,246.675H254.27a4.51,4.51,0,0,0,4.51-4.51v-1.341a4.51,4.51,0,0,0-4.51-4.509H211.484a4.511,4.511,0,0,0-4.512,4.509v1.343a4.509,4.509,0,0,0,4.51,4.508" transform="translate(-42.122 -48.093)" fill="#87b8c7"/>
          <rect id="Rectángulo_405019" data-name="Rectángulo 405019" width="29.939" height="3.636" transform="translate(175.786 191.584)"/>
          <rect id="Rectángulo_405020" data-name="Rectángulo 405020" width="23.019" height="11.866" transform="translate(129.623 187.191)"/>
          <rect id="Rectángulo_405021" data-name="Rectángulo 405021" width="23.019" height="11.866" transform="translate(96.388 187.191)"/>
          <rect id="Rectángulo_405022" data-name="Rectángulo 405022" width="33.817" height="11.867" transform="translate(80.268 206.563)"/>
          <rect id="Rectángulo_405023" data-name="Rectángulo 405023" width="28.666" height="4.359" transform="translate(82.844 210.318)" fill="#87b8c7"/>
          <rect id="Rectángulo_405024" data-name="Rectángulo 405024" width="33.817" height="11.868" transform="translate(80.268 224.734)"/>
          <rect id="Rectángulo_405025" data-name="Rectángulo 405025" width="28.666" height="4.361" transform="translate(82.844 228.486)" fill="#87b8c7"/>
          <path id="Trazado_924628" data-name="Trazado 924628" d="M211.482,267.914H254.27a4.51,4.51,0,0,0,4.51-4.51v-1.341a4.51,4.51,0,0,0-4.51-4.509H211.484a4.51,4.51,0,0,0-4.512,4.51V263.4a4.509,4.509,0,0,0,4.51,4.509" transform="translate(-42.122 -52.416)" fill="#87b8c7"/>
          <path id="Trazado_924629" data-name="Trazado 924629" d="M211.485,289.152h42.786a4.508,4.508,0,0,0,4.509-4.509V283.3a4.51,4.51,0,0,0-4.509-4.511H211.485a4.511,4.511,0,0,0-4.512,4.511v1.341a4.511,4.511,0,0,0,4.512,4.509" transform="translate(-42.122 -56.738)" fill="#87b8c7"/>
          <rect id="Rectángulo_405026" data-name="Rectángulo 405026" width="29.939" height="3.636" transform="translate(175.786 208.5)"/>
          <rect id="Rectángulo_405027" data-name="Rectángulo 405027" width="29.939" height="3.636" transform="translate(175.786 225.415)"/>
          <path id="Trazado_924630" data-name="Trazado 924630" d="M188.8,267a3.657,3.657,0,1,0-3.655,3.818A3.74,3.74,0,0,0,188.8,267" transform="translate(-36.935 -53.562)" fill="#ff586a"/>
          <path id="Trazado_924631" data-name="Trazado 924631" d="M173.52,267a3.659,3.659,0,1,0-3.655,3.818A3.739,3.739,0,0,0,173.52,267" transform="translate(-33.826 -53.562)" fill="#fff"/>
          <path id="Trazado_924632" data-name="Trazado 924632" d="M158.242,267a3.657,3.657,0,1,0-3.653,3.818A3.739,3.739,0,0,0,158.242,267" transform="translate(-30.717 -53.562)" fill="#ff586a"/>
          <path id="Trazado_924633" data-name="Trazado 924633" d="M109.135,241.174a4.861,4.861,0,1,0-4.856,5.074,4.97,4.97,0,0,0,4.856-5.074" transform="translate(-20.234 -48.05)" fill="#fff"/>
          <path id="Trazado_924634" data-name="Trazado 924634" d="M188.8,285.388a3.657,3.657,0,1,0-3.655,3.818,3.738,3.738,0,0,0,3.655-3.818" transform="translate(-36.935 -57.303)" fill="#fff"/>
          <path id="Trazado_924635" data-name="Trazado 924635" d="M173.52,285.388a3.659,3.659,0,1,0-3.655,3.818,3.738,3.738,0,0,0,3.655-3.818" transform="translate(-33.826 -57.303)" fill="#ff586a"/>
          <path id="Trazado_924636" data-name="Trazado 924636" d="M158.242,285.388a3.657,3.657,0,1,0-3.653,3.818,3.737,3.737,0,0,0,3.653-3.818" transform="translate(-30.717 -57.303)" fill="#fff"/>
          <rect id="Rectángulo_405028" data-name="Rectángulo 405028" width="174.806" height="67.565" transform="translate(56.186 254.451)" fill="#87b8c7"/>
          <path id="Trazado_924637" data-name="Trazado 924637" d="M203.2,382.46h57.535a2.559,2.559,0,0,0,2.559-2.559V329.734a2.559,2.559,0,0,0-2.559-2.56H203.2a2.558,2.558,0,0,0-2.56,2.56V379.9a2.559,2.559,0,0,0,2.56,2.559" transform="translate(-40.833 -66.585)"/>
          <path id="Trazado_924638" data-name="Trazado 924638" d="M82.583,382.46h5.891a.893.893,0,0,0,.9-.9v-53.5a.893.893,0,0,0-.9-.9H82.583a.9.9,0,0,0-.9.9v53.5a.9.9,0,0,0,.9.9" transform="translate(-16.624 -66.585)" fill="#ff586a"/>
          <path id="Trazado_924639" data-name="Trazado 924639" d="M211.485,344.5h42.786a4.509,4.509,0,0,0,4.509-4.509v-1.345a4.509,4.509,0,0,0-4.509-4.509H211.485a4.51,4.51,0,0,0-4.512,4.509v1.345a4.512,4.512,0,0,0,4.512,4.509" transform="translate(-42.122 -68.001)" fill="#fff"/>
          <path id="Trazado_924640" data-name="Trazado 924640" d="M211.485,344.5h42.786a4.509,4.509,0,0,0,4.509-4.509v-1.345a4.509,4.509,0,0,0-4.509-4.509H211.485a4.51,4.51,0,0,0-4.512,4.509v1.345a4.512,4.512,0,0,0,4.512,4.509" transform="translate(-42.122 -68.001)" fill="#87b8c7"/>
          <rect id="Rectángulo_405029" data-name="Rectángulo 405029" width="29.939" height="3.636" transform="translate(175.786 269.498)"/>
          <rect id="Rectángulo_405030" data-name="Rectángulo 405030" width="23.019" height="11.866" transform="translate(129.623 265.108)"/>
          <rect id="Rectángulo_405031" data-name="Rectángulo 405031" width="23.019" height="11.866" transform="translate(96.388 265.108)"/>
          <rect id="Rectángulo_405032" data-name="Rectángulo 405032" width="33.817" height="11.866" transform="translate(80.268 284.48)"/>
          <rect id="Rectángulo_405033" data-name="Rectángulo 405033" width="28.666" height="4.358" transform="translate(82.844 288.234)" fill="#87b8c7"/>
          <rect id="Rectángulo_405034" data-name="Rectángulo 405034" width="33.817" height="11.866" transform="translate(80.268 302.65)"/>
          <rect id="Rectángulo_405035" data-name="Rectángulo 405035" width="28.666" height="4.358" transform="translate(82.844 306.403)" fill="#87b8c7"/>
          <path id="Trazado_924641" data-name="Trazado 924641" d="M211.485,365.736h42.786a4.509,4.509,0,0,0,4.509-4.509v-1.342a4.512,4.512,0,0,0-4.509-4.512H211.485a4.511,4.511,0,0,0-4.512,4.512v1.342a4.512,4.512,0,0,0,4.512,4.509" transform="translate(-42.122 -72.323)" fill="#87b8c7"/>
          <path id="Trazado_924642" data-name="Trazado 924642" d="M211.482,386.977H254.27a4.51,4.51,0,0,0,4.51-4.509v-1.345a4.511,4.511,0,0,0-4.51-4.509H211.484a4.512,4.512,0,0,0-4.512,4.512v1.342a4.51,4.51,0,0,0,4.51,4.509" transform="translate(-42.122 -76.646)" fill="#87b8c7"/>
          <rect id="Rectángulo_405036" data-name="Rectángulo 405036" width="29.939" height="3.636" transform="translate(175.786 286.414)"/>
          <rect id="Rectángulo_405037" data-name="Rectángulo 405037" width="29.939" height="3.636" transform="translate(175.786 303.332)"/>
          <path id="Trazado_924643" data-name="Trazado 924643" d="M188.8,364.825a3.657,3.657,0,1,0-3.655,3.82,3.74,3.74,0,0,0,3.655-3.82" transform="translate(-36.935 -73.47)" fill="#ff586a"/>
          <path id="Trazado_924644" data-name="Trazado 924644" d="M173.52,364.825a3.659,3.659,0,1,0-3.655,3.82,3.74,3.74,0,0,0,3.655-3.82" transform="translate(-33.826 -73.47)" fill="#fff"/>
          <path id="Trazado_924645" data-name="Trazado 924645" d="M158.242,364.825a3.657,3.657,0,1,0-3.653,3.82,3.74,3.74,0,0,0,3.653-3.82" transform="translate(-30.717 -73.47)" fill="#ff586a"/>
          <path id="Trazado_924646" data-name="Trazado 924646" d="M109.135,339a4.861,4.861,0,1,0-4.856,5.074A4.969,4.969,0,0,0,109.135,339" transform="translate(-20.234 -67.958)" fill="#fff"/>
          <path id="Trazado_924647" data-name="Trazado 924647" d="M188.8,383.21a3.657,3.657,0,1,0-3.655,3.818,3.74,3.74,0,0,0,3.655-3.818" transform="translate(-36.935 -77.212)" fill="#fff"/>
          <path id="Trazado_924648" data-name="Trazado 924648" d="M173.52,383.21a3.659,3.659,0,1,0-3.655,3.818,3.74,3.74,0,0,0,3.655-3.818" transform="translate(-33.826 -77.212)" fill="#ff586a"/>
          <path id="Trazado_924649" data-name="Trazado 924649" d="M158.242,383.21a3.657,3.657,0,1,0-3.653,3.818,3.739,3.739,0,0,0,3.653-3.818" transform="translate(-30.717 -77.212)" fill="#fff"/>
          <rect id="Rectángulo_405038" data-name="Rectángulo 405038" width="174.806" height="67.562" transform="translate(56.186 332.367)" fill="#87b8c7"/>
          <path id="Trazado_924650" data-name="Trazado 924650" d="M203.2,480.285h57.535a2.559,2.559,0,0,0,2.559-2.559V427.559A2.559,2.559,0,0,0,260.735,425H203.2a2.558,2.558,0,0,0-2.56,2.559v50.17a2.56,2.56,0,0,0,2.56,2.559" transform="translate(-40.833 -86.493)"/>
          <path id="Trazado_924651" data-name="Trazado 924651" d="M82.583,480.285h5.891a.9.9,0,0,0,.9-.894V425.9a.9.9,0,0,0-.9-.9H82.583a.9.9,0,0,0-.9.9v53.5a.9.9,0,0,0,.9.894" transform="translate(-16.624 -86.493)" fill="#ff586a"/>
          <path id="Trazado_924652" data-name="Trazado 924652" d="M211.482,442.324H254.27a4.513,4.513,0,0,0,4.51-4.512V436.47a4.51,4.51,0,0,0-4.51-4.509H211.484a4.511,4.511,0,0,0-4.512,4.509v1.345a4.51,4.51,0,0,0,4.51,4.509" transform="translate(-42.122 -87.91)" fill="#fff"/>
          <path id="Trazado_924653" data-name="Trazado 924653" d="M211.482,442.324H254.27a4.513,4.513,0,0,0,4.51-4.512V436.47a4.51,4.51,0,0,0-4.51-4.509H211.484a4.511,4.511,0,0,0-4.512,4.509v1.345a4.51,4.51,0,0,0,4.51,4.509" transform="translate(-42.122 -87.91)" fill="#87b8c7"/>
          <rect id="Rectángulo_405039" data-name="Rectángulo 405039" width="29.939" height="3.636" transform="translate(175.786 347.415)"/>
          <rect id="Rectángulo_405040" data-name="Rectángulo 405040" width="23.019" height="11.867" transform="translate(129.623 343.021)"/>
          <rect id="Rectángulo_405041" data-name="Rectángulo 405041" width="23.019" height="11.867" transform="translate(96.388 343.021)"/>
          <rect id="Rectángulo_405042" data-name="Rectángulo 405042" width="33.817" height="11.866" transform="translate(80.268 362.394)"/>
          <rect id="Rectángulo_405043" data-name="Rectángulo 405043" width="28.666" height="4.361" transform="translate(82.844 366.148)" fill="#87b8c7"/>
          <rect id="Rectángulo_405044" data-name="Rectángulo 405044" width="33.817" height="11.866" transform="translate(80.268 380.566)"/>
          <rect id="Rectángulo_405045" data-name="Rectángulo 405045" width="28.666" height="4.358" transform="translate(82.844 384.32)" fill="#87b8c7"/>
          <path id="Trazado_924654" data-name="Trazado 924654" d="M211.482,463.561H254.27a4.51,4.51,0,0,0,4.51-4.509V457.71a4.51,4.51,0,0,0-4.51-4.511H211.484a4.511,4.511,0,0,0-4.512,4.511v1.342a4.51,4.51,0,0,0,4.51,4.509" transform="translate(-42.122 -92.232)" fill="#87b8c7"/>
          <path id="Trazado_924655" data-name="Trazado 924655" d="M211.482,484.8H254.27a4.51,4.51,0,0,0,4.51-4.509v-1.342a4.51,4.51,0,0,0-4.51-4.509H211.484a4.511,4.511,0,0,0-4.512,4.509v1.342a4.51,4.51,0,0,0,4.51,4.509" transform="translate(-42.122 -96.555)" fill="#87b8c7"/>
          <rect id="Rectángulo_405046" data-name="Rectángulo 405046" width="29.939" height="3.637" transform="translate(175.786 364.329)"/>
          <rect id="Rectángulo_405047" data-name="Rectángulo 405047" width="29.939" height="3.634" transform="translate(175.786 381.248)"/>
          <path id="Trazado_924656" data-name="Trazado 924656" d="M188.8,462.65a3.657,3.657,0,1,0-3.655,3.818,3.74,3.74,0,0,0,3.655-3.818" transform="translate(-36.935 -93.379)" fill="#ff586a"/>
          <path id="Trazado_924657" data-name="Trazado 924657" d="M173.52,462.65a3.659,3.659,0,1,0-3.655,3.818,3.74,3.74,0,0,0,3.655-3.818" transform="translate(-33.826 -93.379)" fill="#fff"/>
          <path id="Trazado_924658" data-name="Trazado 924658" d="M158.242,462.65a3.657,3.657,0,1,0-3.653,3.818,3.74,3.74,0,0,0,3.653-3.818" transform="translate(-30.717 -93.379)" fill="#ff586a"/>
          <path id="Trazado_924659" data-name="Trazado 924659" d="M109.135,436.822a4.861,4.861,0,1,0-4.856,5.074,4.968,4.968,0,0,0,4.856-5.074" transform="translate(-20.234 -87.867)" fill="#fff"/>
          <path id="Trazado_924660" data-name="Trazado 924660" d="M188.8,481.035a3.657,3.657,0,1,0-3.655,3.818,3.739,3.739,0,0,0,3.655-3.818" transform="translate(-36.935 -97.12)" fill="#fff"/>
          <path id="Trazado_924661" data-name="Trazado 924661" d="M173.52,481.035a3.659,3.659,0,1,0-3.655,3.818,3.738,3.738,0,0,0,3.655-3.818" transform="translate(-33.826 -97.12)" fill="#ff586a"/>
          <path id="Trazado_924662" data-name="Trazado 924662" d="M158.242,481.035a3.657,3.657,0,1,0-3.653,3.818,3.738,3.738,0,0,0,3.653-3.818" transform="translate(-30.717 -97.12)" fill="#fff"/>
          <rect id="Rectángulo_405048" data-name="Rectángulo 405048" width="174.806" height="67.563" transform="translate(56.186 410.283)" fill="#87b8c7"/>
          <path id="Trazado_924663" data-name="Trazado 924663" d="M203.2,578.108h57.539a2.559,2.559,0,0,0,2.559-2.559V525.381a2.56,2.56,0,0,0-2.559-2.559H203.2a2.558,2.558,0,0,0-2.559,2.559v50.171a2.555,2.555,0,0,0,2.556,2.556" transform="translate(-40.833 -106.402)"/>
          <path id="Trazado_924664" data-name="Trazado 924664" d="M82.583,578.108h5.891a.893.893,0,0,0,.9-.9V523.72a.9.9,0,0,0-.9-.9H82.583a.9.9,0,0,0-.9.9v53.5a.9.9,0,0,0,.9.9" transform="translate(-16.624 -106.402)" fill="#ff586a"/>
          <path id="Trazado_924665" data-name="Trazado 924665" d="M211.482,540.146H254.27a4.511,4.511,0,0,0,4.51-4.51V534.3a4.511,4.511,0,0,0-4.51-4.512H211.484a4.511,4.511,0,0,0-4.512,4.512v1.341a4.511,4.511,0,0,0,4.51,4.51" transform="translate(-42.122 -107.818)" fill="#fff"/>
          <path id="Trazado_924666" data-name="Trazado 924666" d="M211.482,540.146H254.27a4.511,4.511,0,0,0,4.51-4.51V534.3a4.511,4.511,0,0,0-4.51-4.512H211.484a4.511,4.511,0,0,0-4.512,4.512v1.341a4.511,4.511,0,0,0,4.51,4.51" transform="translate(-42.122 -107.818)" fill="#87b8c7"/>
          <rect id="Rectángulo_405049" data-name="Rectángulo 405049" width="29.939" height="3.635" transform="translate(175.786 425.329)"/>
          <rect id="Rectángulo_405050" data-name="Rectángulo 405050" width="23.019" height="11.867" transform="translate(129.623 420.937)"/>
          <rect id="Rectángulo_405051" data-name="Rectángulo 405051" width="23.019" height="11.867" transform="translate(96.388 420.937)"/>
          <rect id="Rectángulo_405052" data-name="Rectángulo 405052" width="33.817" height="11.866" transform="translate(80.268 440.31)"/>
          <rect id="Rectángulo_405053" data-name="Rectángulo 405053" width="28.666" height="4.358" transform="translate(82.844 444.064)" fill="#87b8c7"/>
          <rect id="Rectángulo_405054" data-name="Rectángulo 405054" width="33.817" height="11.866" transform="translate(80.268 458.482)"/>
          <rect id="Rectángulo_405055" data-name="Rectángulo 405055" width="28.666" height="4.361" transform="translate(82.844 462.233)" fill="#87b8c7"/>
          <path id="Trazado_924667" data-name="Trazado 924667" d="M211.485,561.387h42.786a4.51,4.51,0,0,0,4.509-4.512v-1.341a4.509,4.509,0,0,0-4.509-4.509H211.485a4.51,4.51,0,0,0-4.512,4.509v1.341a4.513,4.513,0,0,0,4.512,4.512" transform="translate(-42.122 -112.141)" fill="#87b8c7"/>
          <path id="Trazado_924668" data-name="Trazado 924668" d="M211.485,582.624h42.786a4.509,4.509,0,0,0,4.509-4.509v-1.341a4.51,4.51,0,0,0-4.509-4.512H211.485a4.51,4.51,0,0,0-4.512,4.509v1.344a4.512,4.512,0,0,0,4.512,4.509" transform="translate(-42.122 -116.463)" fill="#87b8c7"/>
          <rect id="Rectángulo_405056" data-name="Rectángulo 405056" width="29.939" height="3.635" transform="translate(175.786 442.247)"/>
          <rect id="Rectángulo_405057" data-name="Rectángulo 405057" width="29.939" height="3.635" transform="translate(175.786 459.162)"/>
          <path id="Trazado_924669" data-name="Trazado 924669" d="M188.8,560.476a3.657,3.657,0,1,0-3.655,3.818,3.739,3.739,0,0,0,3.655-3.818" transform="translate(-36.935 -113.288)" fill="#ff586a"/>
          <path id="Trazado_924670" data-name="Trazado 924670" d="M173.52,560.476a3.659,3.659,0,1,0-3.655,3.818,3.738,3.738,0,0,0,3.655-3.818" transform="translate(-33.826 -113.288)" fill="#fff"/>
          <path id="Trazado_924671" data-name="Trazado 924671" d="M158.242,560.476a3.657,3.657,0,1,0-3.653,3.818,3.738,3.738,0,0,0,3.653-3.818" transform="translate(-30.717 -113.288)" fill="#ff586a"/>
          <path id="Trazado_924672" data-name="Trazado 924672" d="M109.135,534.647a4.861,4.861,0,1,0-4.856,5.07,4.97,4.97,0,0,0,4.856-5.07" transform="translate(-20.234 -107.776)" fill="#fff"/>
          <path id="Trazado_924673" data-name="Trazado 924673" d="M188.8,578.857a3.657,3.657,0,1,0-3.655,3.82,3.74,3.74,0,0,0,3.655-3.82" transform="translate(-36.935 -117.029)" fill="#fff"/>
          <path id="Trazado_924674" data-name="Trazado 924674" d="M173.52,578.857a3.659,3.659,0,1,0-3.655,3.82,3.74,3.74,0,0,0,3.655-3.82" transform="translate(-33.826 -117.029)" fill="#ff586a"/>
          <path id="Trazado_924675" data-name="Trazado 924675" d="M158.242,578.857a3.657,3.657,0,1,0-3.653,3.82,3.74,3.74,0,0,0,3.653-3.82" transform="translate(-30.717 -117.029)" fill="#fff"/>
          <path id="Trazado_924676" data-name="Trazado 924676" d="M139.422,589.654a3.893,3.893,0,0,1-.526-.037,3.741,3.741,0,0,1-3.184-4.221l19.694-139.682a3.738,3.738,0,1,1,7.4,1.04L143.117,586.436a3.738,3.738,0,0,1-3.695,3.219" transform="translate(-27.612 -90.054)" fill="#eeac96"/>
          <path id="Trazado_924677" data-name="Trazado 924677" d="M64.428,589.654a3.907,3.907,0,0,1-.527-.037,3.74,3.74,0,0,1-3.182-4.221L80.411,445.713a3.738,3.738,0,0,1,7.4,1.04L68.123,586.436a3.739,3.739,0,0,1-3.695,3.219" transform="translate(-12.35 -90.054)" fill="#eeac96"/>
          <path id="Trazado_924678" data-name="Trazado 924678" d="M131.376,556.627H78.849a3.739,3.739,0,0,1,0-7.477h52.527a3.739,3.739,0,0,1,0,7.477" transform="translate(-15.286 -111.76)" fill="#eeac96"/>
          <path id="Trazado_924679" data-name="Trazado 924679" d="M125.819,594.53H73.292a3.739,3.739,0,0,1,0-7.478h52.527a3.739,3.739,0,0,1,0,7.478" transform="translate(-14.155 -119.473)" fill="#eeac96"/>
          <path id="Trazado_924680" data-name="Trazado 924680" d="M136.162,522.566H83.64a3.738,3.738,0,1,1,0-7.475h52.521a3.738,3.738,0,1,1,0,7.475" transform="translate(-16.261 -104.828)" fill="#eeac96"/>
          <path id="Trazado_924681" data-name="Trazado 924681" d="M140.948,488.51H88.425a3.738,3.738,0,0,1,0-7.477h52.523a3.738,3.738,0,1,1,0,7.477" transform="translate(-17.235 -97.897)" fill="#eeac96"/>
          <path id="Trazado_924682" data-name="Trazado 924682" d="M145.732,454.449H93.21a3.738,3.738,0,1,1,0-7.475h52.522a3.738,3.738,0,1,1,0,7.475" transform="translate(-18.209 -90.966)" fill="#ba604a"/>
          <path id="Trazado_924683" data-name="Trazado 924683" d="M111.306,589.928a3.734,3.734,0,0,1-3.693-3.216L87.429,446.754a3.739,3.739,0,0,1,7.406-1.039l20.181,139.959a3.741,3.741,0,0,1-3.183,4.221,3.935,3.935,0,0,1-.526.034" transform="translate(-17.786 -90.054)" fill="#fed8c5"/>
          <path id="Trazado_924684" data-name="Trazado 924684" d="M186.3,589.928a3.737,3.737,0,0,1-3.695-3.216L162.427,446.754a3.737,3.737,0,1,1,7.4-1.039l20.184,139.959a3.743,3.743,0,0,1-3.184,4.221,3.915,3.915,0,0,1-.526.034" transform="translate(-33.049 -90.054)" fill="#fed8c5"/>
          <path id="Trazado_924685" data-name="Trazado 924685" d="M163,556.627H110.476a3.739,3.739,0,0,1,0-7.477H163a3.739,3.739,0,1,1,0,7.477" transform="translate(-21.722 -111.76)" fill="#fed8c5"/>
          <path id="Trazado_924686" data-name="Trazado 924686" d="M169.55,594.53H117.025a3.739,3.739,0,1,1,0-7.478H169.55a3.739,3.739,0,0,1,0,7.478" transform="translate(-23.055 -119.473)" fill="#fed8c5"/>
          <path id="Trazado_924687" data-name="Trazado 924687" d="M158.216,522.566H105.69a3.738,3.738,0,1,1,0-7.475h52.526a3.738,3.738,0,1,1,0,7.475" transform="translate(-20.749 -104.828)" fill="#fed8c5"/>
          <path id="Trazado_924688" data-name="Trazado 924688" d="M153.428,488.51H100.905a3.738,3.738,0,0,1,0-7.477h52.523a3.738,3.738,0,1,1,0,7.477" transform="translate(-19.775 -97.897)" fill="#fed8c5"/>
          <rect id="Rectángulo_405058" data-name="Rectángulo 405058" width="59.999" height="7.475" transform="translate(73.58 356.008)" fill="#d8d8fd"/>
          <path id="Trazado_924689" data-name="Trazado 924689" d="M151.328,456.571H79.594a7.024,7.024,0,0,1-7.026-7.022v-15a7.026,7.026,0,0,1,7.026-7.026h71.734a7.026,7.026,0,0,1,7.024,7.026v15a7.024,7.024,0,0,1-7.024,7.022" transform="translate(-14.769 -87.007)" fill="#eeac96"/>
          <path id="Trazado_924690" data-name="Trazado 924690" d="M160.574,456.571H88.842a7.024,7.024,0,0,1-7.027-7.024v-15a7.024,7.024,0,0,1,7.024-7.026h71.735a7.024,7.024,0,0,1,7.023,7.026v15a7.022,7.022,0,0,1-7.023,7.022" transform="translate(-16.651 -87.007)" fill="#fed8c5"/>
          <path id="Trazado_924691" data-name="Trazado 924691" d="M368.474,294.968a45.8,45.8,0,0,1-22.8-5.786c-11.7-6.7-19.933-18.841-24.471-36.08-4.413-16.764-6.956-29.2-8.814-38.279-4.028-19.689-5.109-24.98-15.348-30.032a.682.682,0,0,1,.6-1.223c10.836,5.349,12.052,11.292,16.079,30.984,1.854,9.062,4.394,21.477,8.8,38.2,4.44,16.865,12.452,28.721,23.817,35.235,15.758,9.037,32.681,4.472,32.852,4.427a.682.682,0,0,1,.367,1.313,46.1,46.1,0,0,1-11.085,1.237" transform="translate(-60.375 -37.345)"/>
          <path id="Trazado_924692" data-name="Trazado 924692" d="M276.369,270.92c-1.022-6.1-20.965-34.681-25.311-41.621-1.544-2.467-12.37,4.806-10.472,12.848,1.051,4.458,22.48,35.1,27.394,38.219,5.77,3.655,9.707-1.583,8.389-9.446" transform="translate(-48.917 -46.566)" fill="#fed8c5"/>
          <path id="Trazado_924693" data-name="Trazado 924693" d="M283.806,273.724c5.521-9.438,14.252-42.731,19.177-47.091s10.7-13.933,9.379-18.835c-1.349-5-4.986-3.493-8.746-.248-2.387,2.059-4.737,4.65-6.759,11.893-2.025,7.262-19.461,34.379-23.749,44.537-4.252,10.072,6.963,16.128,10.7,9.744" transform="translate(-55.389 -41.631)" fill="#fed8c5"/>
          <path id="Trazado_924694" data-name="Trazado 924694" d="M248.4,246.936c-1.392-6.2-4.166-10.539-1.819-16.511-4.291,2.748-7.273,6.72-6.016,12.051.945,4.016,17.735,28.552,25.378,36.421-1.436-1.732-15.695-23.733-17.543-31.961" transform="translate(-48.9 -46.895)" fill="#eeac96"/>
          <path id="Trazado_924695" data-name="Trazado 924695" d="M259.911,272.984S241.68,246.075,239.9,241.641s3.705-13.705,10.281-13.218a13.9,13.9,0,0,1,1.143,1.173c1.595,2.4,14.639,16.122,22.095,28.943,0,0-.805,8.111-13.505,14.444" transform="translate(-48.753 -46.484)" fill="#d7f4fc"/>
          <path id="Trazado_924696" data-name="Trazado 924696" d="M223.4,609.225c7.793-6.355,6.609-22.3,5.738-30.758l10.7.026s.734,15.731,4.687,24.451,1.093,8.85,1.093,8.85l-23.5,3.4s-6.507.389,1.286-5.966" transform="translate(-44.686 -117.726)" fill="#fed8c5"/>
          <path id="Trazado_924697" data-name="Trazado 924697" d="M221.612,614.613a15.9,15.9,0,0,0,4.855-7.909c.577-2.215,7.351-2.608,9.645.374a9.255,9.255,0,0,0,5.892-.535c.231.622.474,1.221.732,1.791,3.953,8.72,1.093,8.85,1.093,8.85l-16.393,6.277-16.668-.058a9.06,9.06,0,0,1,5.829-7.411c1.779-.747,3.133.158,5.015-1.377" transform="translate(-42.894 -123.114)"/>
          <path id="Trazado_924698" data-name="Trazado 924698" d="M137.008,383.786l-9.973,4.19c6.15,10.651,8.349,20.807-9.005,20.807-8,0-9.979,9.6-9.979,9.6h41.492s4.13-1.678-1.848-11.383a127.415,127.415,0,0,1-10.687-23.217" transform="translate(-21.99 -78.106)" fill="#fed8c5"/>
          <path id="Trazado_924699" data-name="Trazado 924699" d="M134.767,414.174c-2.608-2.42.284-7.022-3.4-7.23-.791,3.95-4.56,6.551-13.341,6.551-8,0-9.979,9.6-9.979,9.6h41.493s3.876-1.575-1.32-10.5c-4.348,0-9.519,5.224-13.457,1.575" transform="translate(-21.99 -82.819)"/>
          <path id="Trazado_924700" data-name="Trazado 924700" d="M214.009,303.216c-26.814-14.266-99.063-41.252-102.73-41.248-4.328.006-17.14,6.616-5.8,21.446,9.473,12.385,84.2,79.719,113,50.054,10.565-10.886,3.685-25.915-4.469-30.253" transform="translate(-20.537 -53.314)"/>
          <path id="Trazado_924701" data-name="Trazado 924701" d="M249.3,333.23c.6-16.012-4.738-29.729-6.721-33.538-3.252-6.254-15.034-12-22.326-3.423s-10.588,14.338-13.88,34.943.266,75.365-3.161,90.312,16.706,25.7,20.207,3.548,25.189-73.32,25.881-91.841" transform="translate(-41.278 -59.412)"/>
          <path id="Trazado_924702" data-name="Trazado 924702" d="M219.787,331.716c-48.63,24.1-118.165-54.848-121.5-58.072a39.538,39.538,0,0,0,6.663,12.146c9.473,12.385,72.228,69.393,105.294,55.321,3.706-1.578,8.682-7.2,9.546-9.4" transform="translate(-20.002 -55.69)"/>
          <path id="Trazado_924703" data-name="Trazado 924703" d="M205.29,472.309c-.543-4.28-1.184-7.3-2.057-11.527-3.72-17.99,19.245-10.8,20.368-6.07,1.408,5.93.727,9.449,6.714,29.638s5.54,32.314,5.2,43.476,2.346,25.244,2.346,25.244c-8.4,5.509-12.834,3.315-12.834,3.315s-5.9-21.7-11.352-38.932-7.116-35.132-8.383-45.144" transform="translate(-41.278 -91.423)"/>
          <path id="Trazado_924704" data-name="Trazado 924704" d="M95.579,268.734c-3.5,5.961,30.086,102.614,30.086,102.614,9.987,1.1,14.729-3.778,14.729-3.778s-7.733-28.925-8.179-47c-1.986-80.543-34.179-56.026-36.636-51.839" transform="translate(-19.4 -53.315)"/>
          <path id="Trazado_924705" data-name="Trazado 924705" d="M216.559,203.413s2.333,7.219,2.417,10.848a11.292,11.292,0,0,1-2.52,6.682s9.845,4.307,19.554,2.2c0,0-3.223-9.872-1.794-19.637s-17.656-.09-17.656-.09" transform="translate(-44.052 -40.528)" fill="#eeac96"/>
          <path id="Trazado_924706" data-name="Trazado 924706" d="M224.129,217.126c.659-4.6-.115-14.418-4.288-15.718,5.669-3.775,16.18-5.759,15.062,1.877-1.43,9.765,1.794,19.637,1.794,19.637a31.8,31.8,0,0,1-13.243-.268c.24-1.841.411-3.689.675-5.528" transform="translate(-44.741 -40.31)" fill="#fed8c5"/>
          <path id="Trazado_924707" data-name="Trazado 924707" d="M235.243,266.974c.229-4.485,1.564-8.693,4.639-24.3,1.2-6.087,2.771-10.88,1.1-13.46-1.9-2.937-6.951-3.368-11.042-3.224-5.673-.024-17.145.625-25.327.561-3.122-.151-7.14.285-7.927,1-3.79,3.407-3.051,10.428-3.614,14.125s-5.712,8.379-4.538,15.056a6.929,6.929,0,0,0,7.5,6.033,21.148,21.148,0,0,1,5.291,10.412c1.009,7.778-1.444,9.058-1.444,9.058,15.151,21.292,46.525,13.585,46.525,13.585s-11.84-15.394-11.164-28.843" transform="translate(-38.334 -45.987)" fill="#ff586a"/>
          <path id="Trazado_924708" data-name="Trazado 924708" d="M187.631,240.314c-3.1-1.841-40.043-24.736-43.516-29.4-4.076-5.48,2.573-11.2,10.31-9.284,7.418,1.836,35.513,16.059,42.482,24.2,7.5,8.762-2.6,18.451-9.276,14.486" transform="translate(-29.077 -40.957)" fill="#fed8c5"/>
          <path id="Trazado_924709" data-name="Trazado 924709" d="M166.5,205.374a49.691,49.691,0,0,0-13.265,12.989l43.013,28.13,6.264-9.919s1.771-6.413-5.7-12.878-25.962-15.008-30.31-18.322" transform="translate(-31.186 -41.796)" fill="#d7f4fc"/>
          <path id="Trazado_924710" data-name="Trazado 924710" d="M136.274,193.262c-4.953-9.747-11.7-43.5-16.355-48.141s-9.859-14.543-8.249-19.358c1.644-4.915,5.184-3.192,8.745.269,2.263,2.2,4.455,4.921,6.044,12.273,1.594,7.368,17.391,35.472,21.072,45.865,3.648,10.3-7.906,15.686-11.256,9.092" transform="translate(-22.666 -24.974)" fill="#fed8c5"/>
          <path id="Trazado_924711" data-name="Trazado 924711" d="M155.555,201.893s.033.862,1.293,1.184,1.326,3.727.28,5.357-5.395,5.006-5.395,5.006l-3.719-.4a8.74,8.74,0,0,1-3.658-3.959c-.95-2.506,5.825-8.142,5.825-8.142Z" transform="translate(-29.36 -40.893)" fill="#fed8c5"/>
          <path id="Trazado_924712" data-name="Trazado 924712" d="M225.046,151.075c-1.539,2.315-.407,7.525,6.638,11.587s7.5,11.563,10.527,6.459,2.88-5.746,1.654-11.047-15.437-12.08-18.819-7" transform="translate(-45.677 -30.38)"/>
          <path id="Trazado_924713" data-name="Trazado 924713" d="M219.7,150.552c.831,2.649-1.712,7.336-9.612,9.27s-10.433,9-11.911,3.258-1.16-6.323,1.5-11.071,18.2-7.283,20.025-1.458" transform="translate(-40.153 -29.953)"/>
          <path id="Trazado_924714" data-name="Trazado 924714" d="M235.035,164.312a57.973,57.973,0,0,1,4.116,11.186c1.161,5.261,5.224,11.427,2.155,18.774s-16.369,4.512-21.2-1.646-4.3-12.372-1.708-16.737,16.635-11.577,16.635-11.577" transform="translate(-44.052 -33.44)" fill="#fed8c5"/>
          <path id="Trazado_924715" data-name="Trazado 924715" d="M234.029,189.589c-.718-2.548-3.7-22.028-3.7-22.028-4.334,2.5-10.322,6.285-11.926,8.988-2.591,4.365-3.12,10.579,1.708,16.737,4.572,5.83,16.727,8.677,20.616,2.731a9.494,9.494,0,0,1-6.694-6.429" transform="translate(-44.051 -34.101)" fill="#eeac96"/>
          <path id="Trazado_924716" data-name="Trazado 924716" d="M220.753,153.117c18.5,5.708,10.587,24.116,10.587,24.116s-.258-11.026-5.831-9.244c-1.753.562-3.969,8.459-1.384,16.541,3.185,9.964,5.212,19.881-1.152,21.916-12.094,3.868-8.749,46.6-24.255,51.554-19.647-20.841-12.561-27.268-15.38-38.751-7.461-30.391,3.543-48.45,8.062-55.473s17.707-14.252,29.353-10.659" transform="translate(-36.798 -30.968)"/>
          <path id="Trazado_924717" data-name="Trazado 924717" d="M202.206,158.989s16.611-10.068,21.212-15.236c11.289-12.682,18.776-14.078,22.691-7.311,6.914,11.954-8.61,17.157-8.61,17.157s-6.9-10.445-35.293,5.39" transform="translate(-41.152 -26.952)" fill="#cf4755"/>
          <path id="Trazado_924718" data-name="Trazado 924718" d="M211.461,169.635a89.15,89.15,0,0,1-19.829,2.1s-9.754-21.884,10.917-30.968,35.251,5.86,32.331,13.954c0,0-2.726,8.536-23.418,14.917" transform="translate(-38.532 -28.07)" fill="#ff586a"/>
          <path id="Trazado_924719" data-name="Trazado 924719" d="M202.242,141.948a1.958,1.958,0,1,1,2.294,1.552,1.954,1.954,0,0,1-2.294-1.552" transform="translate(-41.152 -28.414)" fill="#cf4755"/>
        </g>
      </g>
    </g>
  </g>
</svg>
