<svg xmlns="http://www.w3.org/2000/svg" width="85.051" height="85" viewBox="0 0 85.051 85">
  <g id="img25" transform="translate(-180 -1268)">
    <circle id="Elipse_11561" data-name="Elipse 11561" cx="42.5" cy="42.5" r="42.5" transform="translate(180.051 1268)" fill="#b0dcad"/>
    <g id="router-de-wifi" transform="translate(180 1266.001)">
      <g id="Grupo_1102653" data-name="Grupo 1102653" transform="translate(1.162 6.162)">
        <path id="Trazado_918768" data-name="Trazado 918768" d="M1.75,79.63H84.426V99.8H1.75Z" transform="translate(-1.75 -31.233)" fill="#0d70b2"/>
        <path id="Trazado_918769" data-name="Trazado 918769" d="M58.388,100.572H11.162a1.162,1.162,0,1,1,0-2.324H58.388a1.162,1.162,0,1,1,0,2.324Z" transform="translate(-4.521 -37.488)" fill="#e1e4fb"/>
        <path id="Trazado_918770" data-name="Trazado 918770" d="M58.388,90.2H11.162a1.162,1.162,0,1,1,0-2.324H58.388a1.162,1.162,0,1,1,0,2.324Z" transform="translate(-4.521 -34.005)" fill="#e1e4fb"/>
        <path id="Trazado_918771" data-name="Trazado 918771" d="M15.486,117.471a3.736,3.736,0,0,1-3.736-3.736V110h7.471v3.736A3.736,3.736,0,0,1,15.486,117.471Z" transform="translate(-5.109 -41.436)" fill="#1689fc"/>
        <path id="Trazado_918772" data-name="Trazado 918772" d="M108.735,117.471a3.736,3.736,0,0,0,3.736-3.736V110H105v3.736a3.736,3.736,0,0,0,3.735,3.735Z" transform="translate(-36.436 -41.436)" fill="#1689fc"/>
        <path id="Trazado_918773" data-name="Trazado 918773" d="M108.724,55.147h-6.932l9.526-45.7a3.392,3.392,0,1,1,6.641,1.385Z" transform="translate(-35.358 -6.75)" fill="#c5c9f7"/>
        <path id="Trazado_918774" data-name="Trazado 918774" d="M11.061,55.147h6.932L8.468,9.451a3.392,3.392,0,1,0-6.641,1.385Z" transform="translate(-1.752 -6.75)" fill="#c5c9f7"/>
        <path id="Trazado_918775" data-name="Trazado 918775" d="M104.955,96.517H96.318a3.442,3.442,0,0,1,0-6.885h8.637a3.442,3.442,0,0,1,0,6.885Z" transform="translate(-32.362 -34.593)" fill="#fedb41"/>
        <g id="Grupo_1102652" data-name="Grupo 1102652" transform="translate(23.516 9.962)">
          <circle id="Elipse_11560" data-name="Elipse 11560" cx="3.65" cy="3.65" r="3.65" transform="translate(14.172 21.083)" fill="#00ddc1"/>
          <path id="Trazado_918776" data-name="Trazado 918776" d="M52.459,47.092a1.162,1.162,0,0,1-.821-1.984,11.436,11.436,0,0,1,16.173-.017,1.162,1.162,0,1,1-1.64,1.646,9.112,9.112,0,0,0-12.89.014A1.159,1.159,0,0,1,52.459,47.092Z" transform="translate(-41.911 -28.469)" fill="#00ddc1"/>
          <path id="Trazado_918777" data-name="Trazado 918777" d="M45.392,39.039a1.163,1.163,0,0,1-.821-1.984,18.066,18.066,0,0,1,25.561-.016,1.162,1.162,0,1,1-1.642,1.645,15.742,15.742,0,0,0-22.276.014,1.159,1.159,0,0,1-.822.341Z" transform="translate(-39.537 -25.11)" fill="#00ddc1"/>
          <path id="Trazado_918778" data-name="Trazado 918778" d="M38.324,30.987A1.163,1.163,0,0,1,37.5,29a24.7,24.7,0,0,1,34.947-.016,1.162,1.162,0,1,1-1.642,1.645,22.374,22.374,0,0,0-31.663.014A1.157,1.157,0,0,1,38.324,30.987Z" transform="translate(-37.162 -21.751)" fill="#00ddc1"/>
        </g>
      </g>
      <g id="Grupo_1102654" data-name="Grupo 1102654" transform="translate(0 4.999)">
        <path id="Trazado_918779" data-name="Trazado 918779" d="M83.838,53.4h-7.88L84.9,10.485a4.555,4.555,0,1,0-8.919-1.859L73.891,18.667a1.162,1.162,0,0,0,2.276.473L78.26,9.1a2.231,2.231,0,1,1,4.368.91L73.583,53.4H69.025l1.8-8.652a1.162,1.162,0,1,0-2.276-.474l-1.9,9.126h-48.3L9.016,8.625A4.555,4.555,0,1,0,.1,10.485L9.042,53.4H1.162A1.163,1.163,0,0,0,0,54.559V74.726a1.163,1.163,0,0,0,1.162,1.162H6.641v2.574a4.9,4.9,0,1,0,9.8,0V75.888h11.2a1.162,1.162,0,0,0,0-2.324H2.324V55.721H82.676V73.563H35.227a1.162,1.162,0,0,0,0,2.324H68.562v2.574a4.9,4.9,0,1,0,9.8,0V75.887h5.479A1.163,1.163,0,0,0,85,74.726V54.559A1.163,1.163,0,0,0,83.838,53.4ZM14.111,75.887v2.574a2.574,2.574,0,1,1-5.148,0V75.887ZM11.417,53.4,2.373,10.01A2.231,2.231,0,1,1,6.74,9.1l9.234,44.3ZM76.035,78.461a2.574,2.574,0,1,1-5.148,0V75.887h5.148Z" transform="translate(0 -4.999)"/>
        <path id="Trazado_918780" data-name="Trazado 918780" d="M11.162,100.572H58.388a1.162,1.162,0,1,0,0-2.324H11.162a1.162,1.162,0,1,0,0,2.324Z" transform="translate(-3.359 -36.325)"/>
        <path id="Trazado_918781" data-name="Trazado 918781" d="M11.162,90.2H58.388a1.162,1.162,0,1,0,0-2.324H11.162a1.162,1.162,0,0,0,0,2.324Z" transform="translate(-3.359 -32.842)"/>
        <path id="Trazado_918782" data-name="Trazado 918782" d="M107.14,47.34a1.221,1.221,0,0,0,.238.025,1.164,1.164,0,0,0,1.137-.926l1.328-6.375a1.162,1.162,0,1,0-2.276-.474l-1.328,6.375A1.163,1.163,0,0,0,107.14,47.34Z" transform="translate(-35.682 -16.308)"/>
        <path id="Trazado_918783" data-name="Trazado 918783" d="M104.367,97.089a4.6,4.6,0,1,0,0-9.209H95.73a4.6,4.6,0,0,0,0,9.209Zm-10.918-4.6a2.282,2.282,0,0,1,2.28-2.28h8.637a2.28,2.28,0,1,1,0,4.561H95.73A2.283,2.283,0,0,1,93.449,92.485Z" transform="translate(-30.612 -32.842)"/>
        <path id="Trazado_918784" data-name="Trazado 918784" d="M56.753,56.564a4.812,4.812,0,1,0,4.813-4.814,4.812,4.812,0,0,0-4.813,4.814Zm7.3,0a2.488,2.488,0,1,1-2.488-2.49,2.488,2.488,0,0,1,2.488,2.49Z" transform="translate(-19.065 -20.704)"/>
        <path id="Trazado_918785" data-name="Trazado 918785" d="M67.816,46.735a1.161,1.161,0,0,0,0-1.643,11.436,11.436,0,0,0-16.173.017,1.162,1.162,0,1,0,1.643,1.644,9.112,9.112,0,0,1,12.89-.014A1.161,1.161,0,0,0,67.816,46.735Z" transform="translate(-17.234 -17.345)"/>
        <path id="Trazado_918786" data-name="Trazado 918786" d="M70.134,38.683a1.163,1.163,0,0,0,0-1.644,18.066,18.066,0,0,0-25.561.016A1.162,1.162,0,0,0,46.216,38.7a15.742,15.742,0,0,1,22.276-.015A1.161,1.161,0,0,0,70.134,38.683Z" transform="translate(-14.859 -13.985)"/>
        <path id="Trazado_918787" data-name="Trazado 918787" d="M38.324,30.986a1.157,1.157,0,0,0,.821-.341,22.374,22.374,0,0,1,31.663-.015,1.162,1.162,0,1,0,1.64-1.645A24.7,24.7,0,0,0,37.5,29a1.163,1.163,0,0,0,.822,1.984Z" transform="translate(-12.484 -10.626)"/>
      </g>
    </g>
  </g>
</svg>
