<svg xmlns="http://www.w3.org/2000/svg" xmlns:xlink="http://www.w3.org/1999/xlink" width="85" height="85" viewBox="0 0 85 85">
  <defs>
    <clipPath id="clip-path">
      <rect id="Rectángulo_404995" data-name="Rectángulo 404995" width="85" height="85" transform="translate(757.051 5530)" fill="#fff" stroke="#707070" stroke-width="1"/>
    </clipPath>
  </defs>
  <g id="img28" transform="translate(-757.051 -5530)">
    <circle id="Elipse_11562" data-name="Elipse 11562" cx="42.5" cy="42.5" r="42.5" transform="translate(757.051 5530)" fill="#b0dcad"/>
    <g id="Enmascarar_grupo_1098773" data-name="Enmascarar grupo 1098773" clip-path="url(#clip-path)">
      <g id="seguro" transform="translate(757.051 5530)">
        <g id="Grupo_1103767" data-name="Grupo 1103767">
          <path id="Trazado_924566" data-name="Trazado 924566" d="M59.545,33.161H51.377V21.59a8.849,8.849,0,1,0-17.7,0V33.161H25.511V21.59a17.017,17.017,0,1,1,34.035,0V33.161Z" fill="#685e68"/>
          <path id="Trazado_924567" data-name="Trazado 924567" d="M45.029,4.753A17.045,17.045,0,0,0,30.5,21.589V33.161H25.51V21.589A17.037,17.037,0,0,1,42.527,4.572a17.328,17.328,0,0,1,2.5.181Z" fill="#554e56"/>
          <path id="Trazado_924568" data-name="Trazado 924568" d="M60.987,69.646H24.068A2.642,2.642,0,0,1,21.426,67v-34.2a2.642,2.642,0,0,1,2.642-2.642H60.987a2.642,2.642,0,0,1,2.642,2.642V67A2.642,2.642,0,0,1,60.987,69.646Z" fill="#fe646f"/>
          <path id="Trazado_924569" data-name="Trazado 924569" d="M46.77,59.941H38.286a.79.79,0,0,1-.786-.878l1.28-11.383a1,1,0,0,0-.157-.656,4.642,4.642,0,1,1,7.812,0,1.007,1.007,0,0,0-.158.657l1.28,11.383A.79.79,0,0,1,46.77,59.941Z" fill="#554e56"/>
          <path id="Trazado_924570" data-name="Trazado 924570" d="M29.056,69.646H24.069A2.642,2.642,0,0,1,21.426,67v-34.2a2.643,2.643,0,0,1,2.643-2.643h4.987a2.643,2.643,0,0,0-2.643,2.643V67A2.642,2.642,0,0,0,29.056,69.646Z" fill="#fd4755"/>
          <path id="Trazado_924571" data-name="Trazado 924571" d="M79.757,80.52H5.3A4.023,4.023,0,0,1,1.275,76.5v-17.7A4.023,4.023,0,0,1,5.3,54.77H79.757a4.023,4.023,0,0,1,4.023,4.023V76.5A4.023,4.023,0,0,1,79.757,80.52Z" fill="#a2f4c1"/>
          <path id="Trazado_924572" data-name="Trazado 924572" d="M10.285,80.52H5.3A4.023,4.023,0,0,1,1.274,76.5v-17.7A4.024,4.024,0,0,1,5.3,54.769h4.987a4.024,4.024,0,0,0-4.024,4.024V76.5A4.023,4.023,0,0,0,10.285,80.52Z" fill="#78d0b1"/>
        </g>
        <g id="Grupo_1103768" data-name="Grupo 1103768">
          <path id="Trazado_924573" data-name="Trazado 924573" d="M13.9,75.692a1.247,1.247,0,0,0,1.247-1.247V70.459L18.6,72.452a1.247,1.247,0,0,0,1.247-2.159L16.389,68.3l3.452-1.993A1.247,1.247,0,0,0,18.6,64.147L15.143,66.14V62.153a1.247,1.247,0,1,0-2.493,0V66.14L9.2,64.147A1.247,1.247,0,1,0,7.95,66.306L11.4,68.3,7.95,70.292A1.247,1.247,0,1,0,9.2,72.452l3.452-1.993v3.987A1.247,1.247,0,0,0,13.9,75.692Z"/>
          <path id="Trazado_924574" data-name="Trazado 924574" d="M45.633,72a1.246,1.246,0,0,0,1.7.456l3.452-1.993v3.987a1.247,1.247,0,1,0,2.493,0V70.459l3.452,1.993a1.247,1.247,0,0,0,1.247-2.159L54.528,68.3l3.452-1.993a1.247,1.247,0,0,0-1.247-2.159L53.281,66.14V62.153a1.247,1.247,0,1,0-2.493,0V66.14l-3.452-1.993a1.247,1.247,0,1,0-1.247,2.159L49.541,68.3l-3.452,1.993a1.247,1.247,0,0,0-.456,1.7Z"/>
          <path id="Trazado_924575" data-name="Trazado 924575" d="M26.563,72a1.246,1.246,0,0,0,1.7.456l3.452-1.993v3.987a1.247,1.247,0,0,0,2.493,0V70.459l3.452,1.993a1.247,1.247,0,1,0,1.247-2.159L35.459,68.3l3.452-1.993a1.247,1.247,0,1,0-1.247-2.159l-3.452,1.993V62.154a1.247,1.247,0,0,0-2.493,0v3.987l-3.452-1.993a1.247,1.247,0,0,0-1.247,2.159L30.472,68.3,27.02,70.293A1.246,1.246,0,0,0,26.563,72Z"/>
          <path id="Trazado_924576" data-name="Trazado 924576" d="M64.7,72a1.246,1.246,0,0,0,1.7.456l3.452-1.993v3.987a1.247,1.247,0,0,0,2.493,0V70.459L75.8,72.452a1.247,1.247,0,1,0,1.247-2.159L73.6,68.3l3.452-1.993A1.247,1.247,0,1,0,75.8,64.147L72.35,66.141V62.154a1.247,1.247,0,1,0-2.493,0v3.987L66.4,64.147a1.247,1.247,0,1,0-1.247,2.159L68.611,68.3l-3.452,1.993A1.246,1.246,0,0,0,64.7,72Z"/>
          <path id="Trazado_924577" data-name="Trazado 924577" d="M79.729,53.477H64.848V41.546a1.247,1.247,0,0,0-2.493,0V53.477H48.16L47.5,47.584a5.889,5.889,0,1,0-9.994,0l-.663,5.892H22.645V32.761a1.4,1.4,0,0,1,1.395-1.395H60.96a1.4,1.4,0,0,1,1.395,1.395v2.967a1.247,1.247,0,1,0,2.493,0V32.761a3.892,3.892,0,0,0-3.888-3.888h-.2v-7.33a18.264,18.264,0,1,0-36.528,0v7.33h-.2a3.892,3.892,0,0,0-3.888,3.888V53.477H5.271A5.277,5.277,0,0,0,0,58.748v17.7a5.277,5.277,0,0,0,5.271,5.271H13.9a1.247,1.247,0,1,0,0-2.493H5.271A2.781,2.781,0,0,1,2.493,76.45v-17.7A2.781,2.781,0,0,1,5.271,55.97H79.729a2.781,2.781,0,0,1,2.777,2.777v17.7a2.781,2.781,0,0,1-2.777,2.777H19.713a1.247,1.247,0,1,0,0,2.493H79.729A5.277,5.277,0,0,0,85,76.45v-17.7a5.277,5.277,0,0,0-5.271-5.271ZM50.1,28.874H34.9v-7.33a7.6,7.6,0,1,1,15.206,0Zm-23.373-7.33a15.771,15.771,0,1,1,31.541,0v7.33H52.6v-7.33a10.1,10.1,0,0,0-20.192,0v7.33H26.729ZM39.643,46.3a3.382,3.382,0,0,1-.532-2.044,3.431,3.431,0,0,1,3.17-3.18A3.395,3.395,0,0,1,45.358,46.3a2.274,2.274,0,0,0-.349,1.473l.642,5.7h-6.3l.642-5.709a2.256,2.256,0,0,0-.349-1.464Z"/>
        </g>
      </g>
    </g>
  </g>
</svg>
