<svg xmlns="http://www.w3.org/2000/svg" xmlns:xlink="http://www.w3.org/1999/xlink" width="295" height="252.325" viewBox="0 0 295 252.325">
  <defs>
    <clipPath id="clip-path">
      <rect id="Rectángulo_404993" data-name="Rectángulo 404993" width="214.261" height="233.928" fill="none"/>
    </clipPath>
  </defs>
  <g id="img22" transform="translate(-600 -2726.725)">
    <rect id="Rectángulo_402941" data-name="Rectángulo 402941" width="295" height="163" rx="10" transform="translate(600 2816.05)" fill="#d7eed6"/>
    <g id="Grupo_1103765" data-name="Grupo 1103765" transform="translate(649.79 2726.725)">
      <path id="Trazado_924408" data-name="Trazado 924408" d="M352.645,116.681l.584,13.5-7.9,1.209.14-10.626Z" transform="translate(-161.84 -54.683)" fill="#efbd9c"/>
      <g id="Grupo_1103764" data-name="Grupo 1103764">
        <g id="Grupo_1103763" data-name="Grupo 1103763" clip-path="url(#clip-path)">
          <path id="Trazado_924409" data-name="Trazado 924409" d="M345.44,126.615A8.781,8.781,0,0,0,350.417,125a11.249,11.249,0,0,0,2.187-2.787l-7.078,1.62Z" transform="translate(-161.891 -57.276)" fill="#d39e81"/>
          <path id="Trazado_924410" data-name="Trazado 924410" d="M339.5,96.35c-2.54-.571-3,3.147-3.07,4.823-.073,1.736.108,3.462.057,4.366-.074,1.3-.309,6.81,2.648,7.985,2.1.835,4.555.117,6.125-.691,2.379-1.224,5.656-3.365,5.89-6.409s-.14-7.551-2.814-8.247Z" transform="translate(-157.662 -45.127)" fill="#efbd9c"/>
          <path id="Trazado_924411" data-name="Trazado 924411" d="M347.072,103.614a11.459,11.459,0,0,0-.16,3.318s5.91-7.244,5.861-9.743c-.047-2.441-.164-5.7-1.336-6.634s-1.379-2.4-2.149-2.938a4.506,4.506,0,0,0-2.617-.252,5.18,5.18,0,0,0-3.7-1.735c-2.066.059-2.978,1.156-4.053,1.245-.96.08-2.884-.843-4.711.608a4.81,4.81,0,0,0-1.263,5.126c.478,1.156,1.044,2.295,1.879,2.1s4.406-1.091,5.789.567,4.608-.106,5.317.614c.69.7-.464,5.48.115,5.891a2.533,2.533,0,0,0,2.529.2c.646-.5-1.507,1.629-1.507,1.629" transform="translate(-155.911 -40.13)" fill="#3a210f"/>
          <path id="Trazado_924412" data-name="Trazado 924412" d="M360.537,116.41c-.727,1.2-1.9,1.825-2.612,1.392s-.706-1.758.022-2.96,1.53-2.015,2.245-1.582a2.454,2.454,0,0,1,.345,3.15" transform="translate(-167.493 -53.024)" fill="#efbd9c"/>
          <path id="Trazado_924413" data-name="Trazado 924413" d="M348.007,112.009c-.039.419-.259.741-.491.719s-.388-.379-.349-.8.26-.742.492-.72.388.379.349.8" transform="translate(-162.697 -52.118)" fill="#3a210f"/>
          <path id="Trazado_924414" data-name="Trazado 924414" d="M339.092,110.688c-.039.419-.259.741-.492.719s-.388-.379-.349-.8.26-.741.492-.719c.278.026.388.382.349.8" transform="translate(-158.519 -51.499)" fill="#3a210f"/>
          <path id="Trazado_924415" data-name="Trazado 924415" d="M349.831,108.359c1.045.386,1.464.925,1.252,1.251s-.9.119-1.682-.186-1.449-.774-1.331-1.122.716-.329,1.761.057" transform="translate(-163.117 -50.64)" fill="#3a210f"/>
          <path id="Trazado_924416" data-name="Trazado 924416" d="M337.338,106.664c1.113-.055,1.71.276,1.642.659s-.785.464-1.62.488-1.637-.143-1.664-.509.529-.583,1.641-.639" transform="translate(-157.324 -49.985)" fill="#3a210f"/>
          <path id="Trazado_924417" data-name="Trazado 924417" d="M343.089,113.76l-.02,0c-.395-.058-.767-.114-.943-.389a.8.8,0,0,1-.034-.679c.164-.552,1.246-4.133,1.246-4.133l.253.077s-1.081,3.581-1.244,4.132a.572.572,0,0,0,0,.461c.111.174.426.221.759.27a.132.132,0,0,1-.019.263" transform="translate(-160.295 -50.875)" fill="#3a210f"/>
          <path id="Trazado_924418" data-name="Trazado 924418" d="M342.35,121.4a2.408,2.408,0,0,1-1.68-.614.132.132,0,0,1,.188-.186,2.144,2.144,0,0,0,2.332.333.132.132,0,1,1,.165.207,1.7,1.7,0,0,1-1,.26" transform="translate(-159.637 -56.5)" fill="#3a210f"/>
          <path id="Trazado_924419" data-name="Trazado 924419" d="M338.222,112.169a1.614,1.614,0,0,1-1.6-1.85,1.614,1.614,0,1,1,1.6,1.85m0-2.963a1.348,1.348,0,1,0,.2.014,1.416,1.416,0,0,0-.2-.014" transform="translate(-157.751 -51.055)" fill="#fff"/>
          <path id="Trazado_924420" data-name="Trazado 924420" d="M347.14,113.491a1.654,1.654,0,0,1-.24-.018,1.6,1.6,0,1,1,.24.018m0-2.963a1.344,1.344,0,1,0,.2.014,1.406,1.406,0,0,0-.2-.014" transform="translate(-161.929 -51.675)" fill="#fff"/>
          <path id="Trazado_924421" data-name="Trazado 924421" d="M344.156,112.669l-1.789-.265.038-.261,1.789.265Z" transform="translate(-160.45 -52.555)" fill="#fff"/>
          <rect id="Rectángulo_404895" data-name="Rectángulo 404895" width="5.863" height="0.265" transform="translate(186.648 60.279) rotate(-3.104)" fill="#fff"/>
          <path id="Trazado_924422" data-name="Trazado 924422" d="M327.959,421.3l-6.445-.042.049-8.039,7.349-1.662Z" transform="translate(-150.678 -192.877)" fill="#efbd9c"/>
          <path id="Trazado_924423" data-name="Trazado 924423" d="M311.99,427.3c-1.376,1.386-4.185,1.8-6.177,2.713A14.319,14.319,0,0,0,302.505,432a1.124,1.124,0,0,0,.761,1.965l15.475-.19a1.123,1.123,0,0,0,1.107-1.189l-.327-5.561a8.168,8.168,0,0,1-7.531.273" transform="translate(-141.589 -200.126)" fill="#d6e8ed"/>
          <path id="Trazado_924424" data-name="Trazado 924424" d="M363.235,421.3l6.445-.042-.049-8.039-7.349-1.662Z" transform="translate(-169.783 -192.877)" fill="#efbd9c"/>
          <path id="Trazado_924425" data-name="Trazado 924425" d="M370.093,427.3c1.376,1.386,4.185,1.8,6.176,2.713A14.316,14.316,0,0,1,379.577,432a1.124,1.124,0,0,1-.761,1.965l-15.475-.19a1.123,1.123,0,0,1-1.107-1.189l.327-5.561a8.169,8.169,0,0,0,7.531.273" transform="translate(-169.76 -200.126)" fill="#d6e8ed"/>
          <path id="Trazado_924426" data-name="Trazado 924426" d="M351.056,246.549l-2.148,89.334c-2.681,1.825-8.327,1.426-10.152.228l-6.332-77.474-6.1,78.044c-2.966.912-7.529,1.14-9.7-.456l-1.636-80.749V239.154h34.323Z" transform="translate(-147.62 -112.08)" fill="#2f81b7"/>
          <path id="Trazado_924427" data-name="Trazado 924427" d="M331.609,353.146l-.261-.029,8.745-79.592,8.456,79.336-.261.028-8.2-76.923Z" transform="translate(-155.286 -128.187)" fill="#4e9aaf"/>
          <path id="Trazado_924428" data-name="Trazado 924428" d="M352.544,203.275c.63-1.084-.119-34.571-1.57-40.378-.669-2.675.852-8.9,1.1-14.8a12.731,12.731,0,0,0-6.622-11.8c-1.829-1.02-7.664-1.722-7.664-1.722a22.41,22.41,0,0,1-6.012,4.462c-1.943-.849-1.811-2.987-1.975-4.631,0,0-4.424.767-7.653,1.49s-5.495,6.112-6.558,12.948a192.881,192.881,0,0,0-2.071,28.762c.377,8.746-2.35,24.154-.93,25.665s12.848-1.342,20.441,1.074,18.888.01,19.518-1.074" transform="translate(-146.299 -62.991)" fill="#ef8e70"/>
          <path id="Trazado_924429" data-name="Trazado 924429" d="M358.255,182.08l3.838-.18s3.085,1.316,10.462.885c-.561-5.07,1.129-18.561,1.123-22.253l-9.514-5.553,6.3,17.348-14.715,3.935s2.651,4.473,2.51,5.818" transform="translate(-166.72 -72.631)" fill="#dd7c62"/>
          <path id="Trazado_924430" data-name="Trazado 924430" d="M320.061,166.9l3.2-6.883-4.943,6.782Z" transform="translate(-149.182 -74.994)" fill="#e1bec5"/>
          <path id="Trazado_924431" data-name="Trazado 924431" d="M343.822,207.617c-2.606-5.906-.74-28.523-.25-34.4.176-2.116.389-5.444.636-9.3.467-7.273,1.046-16.324,1.63-20.822l.262.033c-.582,4.49-1.162,13.536-1.628,20.806-.247,3.855-.461,7.184-.637,9.3-.489,5.868-2.354,28.419.229,34.275Z" transform="translate(-160.497 -67.061)" fill="#dd7c62"/>
          <path id="Trazado_924432" data-name="Trazado 924432" d="M306.6,137.442c-9.426,2.414-16.27,22.175-16.27,22.175l-10.879,9.918,3.756,2.939,13.806-7.852,8.452-16.317Z" transform="translate(-130.965 -64.412)" fill="#ef8e70"/>
          <path id="Trazado_924433" data-name="Trazado 924433" d="M355.4,193.721c-2.462,2.138-6.248,2.782-8.471,3.987s-1.226,1.935,1.557,1.391a29.393,29.393,0,0,1,5.449-.3c1.531-.055,4.793-2.05,4.793-2.05Z" transform="translate(-162.019 -90.787)" fill="#efbd9c"/>
          <path id="Trazado_924434" data-name="Trazado 924434" d="M363.06,147.882l9.739,16.454-17.053,2.795c.741,1.141,2.281,3.65,2.167,5.19,0,0,19.554,2.183,22.529-3.08,2.965-5.247-7.106-27.124-10.266-30.228-3.429-3.367-9.29-3.519-9.29-3.519Z" transform="translate(-166.72 -63.499)" fill="#ef8e70"/>
          <path id="Trazado_924435" data-name="Trazado 924435" d="M354.768,132.836l1.551,1.218L354.6,139.02l-.918-1.754-4.629,1.037a18.193,18.193,0,0,0,5.71-5.467" transform="translate(-163.586 -62.254)" fill="#ffddd4"/>
          <path id="Trazado_924436" data-name="Trazado 924436" d="M343.514,133.233l-1.671.942-.539,4.53,1.863-1.077,2.257.861c-1.391-1.377-1.524-2.93-1.91-5.257" transform="translate(-159.952 -62.44)" fill="#ffddd4"/>
          <path id="Trazado_924437" data-name="Trazado 924437" d="M356.268,162.333l5.427.1-.211,4.874L359,169.351l-2.882-2.092Z" transform="translate(-166.896 -76.077)" fill="#f9b1a0"/>
          <path id="Trazado_924438" data-name="Trazado 924438" d="M361.78,162.435l-5.427-.1-.049,1.649,5.4.177Z" transform="translate(-166.982 -76.077)" fill="#ffdcbd"/>
          <path id="Trazado_924439" data-name="Trazado 924439" d="M363.023,201.827a.338.338,0,1,1-.321-.354.339.339,0,0,1,.321.354" transform="translate(-169.814 -94.42)" fill="#fff"/>
          <path id="Trazado_924440" data-name="Trazado 924440" d="M365.82,201.355A.338.338,0,1,1,365.5,201a.338.338,0,0,1,.321.354" transform="translate(-171.125 -94.199)" fill="#fff"/>
          <path id="Trazado_924441" data-name="Trazado 924441" d="M283.63,107.138a1.083,1.083,0,0,1-.214-.022,32.493,32.493,0,0,0-12.933,0,1.059,1.059,0,1,1-.425-2.075,34.63,34.63,0,0,1,13.783,0,1.059,1.059,0,0,1-.211,2.1" transform="translate(-126.166 -48.902)" fill="#2e6891"/>
          <path id="Trazado_924442" data-name="Trazado 924442" d="M283.343,120.1a1.084,1.084,0,0,1-.214-.022,20.263,20.263,0,0,0-8.059,0,1.059,1.059,0,1,1-.425-2.075,22.391,22.391,0,0,1,8.909,0,1.059,1.059,0,0,1-.211,2.1" transform="translate(-128.316 -55.091)" fill="#2e6891"/>
          <path id="Trazado_924443" data-name="Trazado 924443" d="M283.953,94.178a1.088,1.088,0,0,1-.214-.022,46.266,46.266,0,0,0-18.414,0,1.059,1.059,0,1,1-.424-2.075,48.362,48.362,0,0,1,19.263,0,1.059,1.059,0,0,1-.212,2.1" transform="translate(-123.749 -42.699)" fill="#2e6891"/>
          <rect id="Rectángulo_404896" data-name="Rectángulo 404896" width="19.845" height="2.416" transform="translate(179.838 108.062)" fill="#2d3e4f"/>
          <path id="Trazado_924444" data-name="Trazado 924444" d="M305.256,179.71H263.609l-9.434-31.983h41.647Z" transform="translate(-119.119 -69.232)" fill="#426f8e"/>
          <path id="Trazado_924445" data-name="Trazado 924445" d="M298.788,172.567c1.253,1.989,1.214,4.267-.089,5.087s-3.374-.126-4.627-2.115-1.214-4.267.088-5.087,3.374.126,4.628,2.115" transform="translate(-137.388 -79.743)" fill="#fff"/>
          <path id="Trazado_924446" data-name="Trazado 924446" d="M294.629,204.327l-1.524-.038c.3-1.234.264-2.785-.281-2.868-.376-.057-.6.312-.727.683.112-.657.15-1.548-.445-1.6-.555-.05-.892.85-1.077,1.608.1-.785.112-1.756-.445-1.849-.947-.158-1.554,2.224-1.554,2.224s.612-2.9-.9-1.53c-1,.9-1.8,4.292-.678,4.81a7.648,7.648,0,0,0,5.228,0c.092-.034,2.295-.844,2.408-1.435" transform="translate(-134.244 -93.849)" fill="#efbd9c"/>
          <rect id="Rectángulo_404897" data-name="Rectángulo 404897" width="103.165" height="20.316" transform="translate(10.557)" fill="#365268"/>
          <path id="Trazado_924447" data-name="Trazado 924447" d="M190.953,16.776a2.654,2.654,0,1,0,2.654-2.654,2.654,2.654,0,0,0-2.654,2.654" transform="translate(-89.49 -6.618)" fill="#4c9fd8"/>
          <path id="Trazado_924448" data-name="Trazado 924448" d="M154.485,16.776a2.654,2.654,0,1,0,2.654-2.654,2.654,2.654,0,0,0-2.654,2.654" transform="translate(-72.399 -6.618)" fill="#4c9fd8"/>
          <rect id="Rectángulo_404898" data-name="Rectángulo 404898" width="7.504" height="1.685" transform="translate(90.676 9.316)" fill="#4c9fd8"/>
          <rect id="Rectángulo_404899" data-name="Rectángulo 404899" width="7.504" height="1.685" transform="translate(59.015 9.316)" fill="#4c9fd8"/>
          <rect id="Rectángulo_404900" data-name="Rectángulo 404900" width="5.308" height="5.308" transform="translate(69.802 7.504)" fill="#4c9fd8"/>
          <rect id="Rectángulo_404901" data-name="Rectángulo 404901" width="5.308" height="5.308" transform="translate(50.425 7.504)" fill="#4c9fd8"/>
          <path id="Trazado_924449" data-name="Trazado 924449" d="M69.4,16.776a2.654,2.654,0,1,0,2.654-2.654A2.654,2.654,0,0,0,69.4,16.776" transform="translate(-32.524 -6.618)" fill="#4c9fd8"/>
          <path id="Trazado_924450" data-name="Trazado 924450" d="M32.932,16.776a2.654,2.654,0,1,0,2.654-2.654,2.654,2.654,0,0,0-2.654,2.654" transform="translate(-15.434 -6.618)" fill="#4c9fd8"/>
          <rect id="Rectángulo_404902" data-name="Rectángulo 404902" width="7.504" height="1.685" transform="translate(26.089 9.316)" fill="#4c9fd8"/>
          <rect id="Rectángulo_404903" data-name="Rectángulo 404903" width="103.165" height="20.316" transform="translate(10.557 121.898)" fill="#365268"/>
          <path id="Trazado_924451" data-name="Trazado 924451" d="M190.765,246.188a2.654,2.654,0,1,0,2.654-2.654,2.654,2.654,0,0,0-2.654,2.654" transform="translate(-89.402 -114.132)" fill="#4c9fd8"/>
          <path id="Trazado_924452" data-name="Trazado 924452" d="M154.3,246.188a2.654,2.654,0,1,0,2.654-2.654,2.654,2.654,0,0,0-2.654,2.654" transform="translate(-72.311 -114.132)" fill="#4c9fd8"/>
          <rect id="Rectángulo_404904" data-name="Rectángulo 404904" width="7.504" height="1.685" transform="translate(90.576 131.214)" fill="#4c9fd8"/>
          <rect id="Rectángulo_404905" data-name="Rectángulo 404905" width="7.504" height="1.685" transform="translate(59.015 131.214)" fill="#4c9fd8"/>
          <rect id="Rectángulo_404906" data-name="Rectángulo 404906" width="5.308" height="5.308" transform="translate(69.802 129.402)" fill="#4c9fd8"/>
          <rect id="Rectángulo_404907" data-name="Rectángulo 404907" width="5.308" height="5.308" transform="translate(50.425 129.402)" fill="#4c9fd8"/>
          <path id="Trazado_924453" data-name="Trazado 924453" d="M69.893,246.188a2.654,2.654,0,1,0,2.654-2.654,2.654,2.654,0,0,0-2.654,2.654" transform="translate(-32.755 -114.132)" fill="#4c9fd8"/>
          <path id="Trazado_924454" data-name="Trazado 924454" d="M33.425,246.188a2.654,2.654,0,1,0,2.654-2.654,2.654,2.654,0,0,0-2.654,2.654" transform="translate(-15.665 -114.132)" fill="#4c9fd8"/>
          <rect id="Rectángulo_404908" data-name="Rectángulo 404908" width="7.504" height="1.685" transform="translate(26.351 131.214)" fill="#4c9fd8"/>
          <rect id="Rectángulo_404909" data-name="Rectángulo 404909" width="103.165" height="20.316" transform="translate(10.557 142.214)" fill="#365268"/>
          <path id="Trazado_924455" data-name="Trazado 924455" d="M190.706,284.424a2.654,2.654,0,1,0,2.654-2.654,2.654,2.654,0,0,0-2.654,2.654" transform="translate(-89.374 -132.052)" fill="#4c9fd8"/>
          <path id="Trazado_924456" data-name="Trazado 924456" d="M154.238,284.424a2.654,2.654,0,1,0,2.654-2.654,2.654,2.654,0,0,0-2.654,2.654" transform="translate(-72.284 -132.052)" fill="#4c9fd8"/>
          <rect id="Rectángulo_404910" data-name="Rectángulo 404910" width="7.504" height="1.685" transform="translate(90.545 151.529)" fill="#4c9fd8"/>
          <rect id="Rectángulo_404911" data-name="Rectángulo 404911" width="7.504" height="1.685" transform="translate(59.015 151.529)" fill="#4c9fd8"/>
          <rect id="Rectángulo_404912" data-name="Rectángulo 404912" width="5.308" height="5.308" transform="translate(69.802 149.718)" fill="#4c9fd8"/>
          <rect id="Rectángulo_404913" data-name="Rectángulo 404913" width="5.308" height="5.308" transform="translate(50.425 149.718)" fill="#4c9fd8"/>
          <path id="Trazado_924457" data-name="Trazado 924457" d="M69.729,284.424a2.654,2.654,0,1,0,2.654-2.654,2.654,2.654,0,0,0-2.654,2.654" transform="translate(-32.679 -132.052)" fill="#4c9fd8"/>
          <path id="Trazado_924458" data-name="Trazado 924458" d="M33.26,284.424a2.654,2.654,0,1,0,2.654-2.654,2.654,2.654,0,0,0-2.654,2.654" transform="translate(-15.587 -132.052)" fill="#4c9fd8"/>
          <rect id="Rectángulo_404914" data-name="Rectángulo 404914" width="7.504" height="1.685" transform="translate(26.263 151.529)" fill="#4c9fd8"/>
          <rect id="Rectángulo_404915" data-name="Rectángulo 404915" width="103.165" height="20.316" transform="translate(10.557 20.316)" fill="#426f8e"/>
          <rect id="Rectángulo_404916" data-name="Rectángulo 404916" width="3.231" height="3.231" transform="translate(103.552 25.598)" fill="#4c9fd8"/>
          <rect id="Rectángulo_404917" data-name="Rectángulo 404917" width="3.231" height="3.231" transform="translate(97.878 25.598)" fill="#4c9fd8"/>
          <rect id="Rectángulo_404918" data-name="Rectángulo 404918" width="3.231" height="3.231" transform="translate(92.205 25.598)" fill="#4c9fd8"/>
          <path id="Trazado_924459" data-name="Trazado 924459" d="M175.519,63.019h10.6a1.99,1.99,0,0,0,0-3.981h-10.6a1.99,1.99,0,1,0,0,3.981" transform="translate(-81.324 -27.668)" fill="#2d3e4f"/>
          <rect id="Rectángulo_404919" data-name="Rectángulo 404919" width="3.231" height="3.231" transform="translate(78.649 25.598)" fill="#4c9fd8"/>
          <rect id="Rectángulo_404920" data-name="Rectángulo 404920" width="3.231" height="3.231" transform="translate(72.976 25.598)" fill="#4c9fd8"/>
          <rect id="Rectángulo_404921" data-name="Rectángulo 404921" width="3.231" height="3.231" transform="translate(67.302 25.598)" fill="#4c9fd8"/>
          <path id="Trazado_924460" data-name="Trazado 924460" d="M128.652,63.019h10.6a1.99,1.99,0,1,0,0-3.981h-10.6a1.99,1.99,0,1,0,0,3.981" transform="translate(-59.36 -27.668)" fill="#2d3e4f"/>
          <rect id="Rectángulo_404922" data-name="Rectángulo 404922" width="3.231" height="3.231" transform="translate(53.747 25.598)" fill="#4c9fd8"/>
          <rect id="Rectángulo_404923" data-name="Rectángulo 404923" width="3.231" height="3.231" transform="translate(48.073 25.598)" fill="#4c9fd8"/>
          <rect id="Rectángulo_404924" data-name="Rectángulo 404924" width="3.231" height="3.231" transform="translate(42.399 25.598)" fill="#4c9fd8"/>
          <path id="Trazado_924461" data-name="Trazado 924461" d="M81.785,63.019h10.6a1.99,1.99,0,0,0,0-3.981h-10.6a1.99,1.99,0,1,0,0,3.981" transform="translate(-37.396 -27.668)" fill="#2d3e4f"/>
          <rect id="Rectángulo_404925" data-name="Rectángulo 404925" width="3.231" height="3.231" transform="translate(28.844 25.598)" fill="#4c9fd8"/>
          <rect id="Rectángulo_404926" data-name="Rectángulo 404926" width="3.231" height="3.231" transform="translate(23.17 25.598)" fill="#4c9fd8"/>
          <rect id="Rectángulo_404927" data-name="Rectángulo 404927" width="3.231" height="3.231" transform="translate(17.496 25.598)" fill="#4c9fd8"/>
          <path id="Trazado_924462" data-name="Trazado 924462" d="M34.918,63.019h10.6a1.99,1.99,0,0,0,0-3.981h-10.6a1.99,1.99,0,0,0,0,3.981" transform="translate(-15.432 -27.668)" fill="#2d3e4f"/>
          <rect id="Rectángulo_404928" data-name="Rectángulo 404928" width="103.165" height="20.316" transform="translate(10.557 60.949)" fill="#426f8e"/>
          <rect id="Rectángulo_404929" data-name="Rectángulo 404929" width="35.799" height="6.589" transform="translate(59.293 67.812)" fill="#2d3e4f"/>
          <path id="Trazado_924463" data-name="Trazado 924463" d="M188.559,130.917a3.295,3.295,0,1,1,3.294,3.294,3.294,3.294,0,0,1-3.294-3.294" transform="translate(-88.368 -59.811)" fill="#2d3e4f"/>
          <path id="Trazado_924464" data-name="Trazado 924464" d="M71.11,132.659a1.32,1.32,0,1,1,1.32,1.32,1.32,1.32,0,0,1-1.32-1.32" transform="translate(-33.326 -61.552)" fill="#4c9fd8"/>
          <path id="Trazado_924465" data-name="Trazado 924465" d="M58.457,132.659a1.32,1.32,0,1,1,1.32,1.32,1.32,1.32,0,0,1-1.32-1.32" transform="translate(-27.396 -61.552)" fill="#4c9fd8"/>
          <path id="Trazado_924466" data-name="Trazado 924466" d="M45.8,132.659a1.32,1.32,0,1,1,1.32,1.32,1.32,1.32,0,0,1-1.32-1.32" transform="translate(-21.466 -61.552)" fill="#4c9fd8"/>
          <path id="Trazado_924467" data-name="Trazado 924467" d="M33.151,132.659a1.32,1.32,0,1,1,1.319,1.32,1.32,1.32,0,0,1-1.319-1.32" transform="translate(-15.536 -61.552)" fill="#4c9fd8"/>
          <rect id="Rectángulo_404930" data-name="Rectángulo 404930" width="103.165" height="20.316" transform="translate(10.557 81.265)" fill="#365268"/>
          <rect id="Rectángulo_404931" data-name="Rectángulo 404931" width="5.308" height="5.308" transform="translate(101.377 88.769)" fill="#4c9fd8"/>
          <rect id="Rectángulo_404932" data-name="Rectángulo 404932" width="5.308" height="5.308" transform="translate(90.469 88.769)" fill="#4c9fd8"/>
          <rect id="Rectángulo_404933" data-name="Rectángulo 404933" width="5.308" height="5.308" transform="translate(79.56 88.769)" fill="#4c9fd8"/>
          <rect id="Rectángulo_404934" data-name="Rectángulo 404934" width="5.308" height="5.308" transform="translate(68.651 88.769)" fill="#4c9fd8"/>
          <rect id="Rectángulo_404935" data-name="Rectángulo 404935" width="5.308" height="5.308" transform="translate(28.524 88.769)" fill="#4c9fd8"/>
          <rect id="Rectángulo_404936" data-name="Rectángulo 404936" width="5.308" height="5.308" transform="translate(17.616 88.769)" fill="#4c9fd8"/>
          <path id="Trazado_924468" data-name="Trazado 924468" d="M84.491,172.372h9.27a2.654,2.654,0,0,0,0-5.308h-9.27a2.654,2.654,0,1,0,0,5.308" transform="translate(-38.353 -78.295)" fill="#2d3e4f"/>
          <path id="Trazado_924469" data-name="Trazado 924469" d="M116.609,61.062a37.328,37.328,0,0,1-7.713-.8c-8.77-1.85-15.047-6.545-16.528-9.136a.4.4,0,0,1,.7-.4c1.408,2.464,7.465,6.948,16,8.748,7.8,1.645,19.94,1.5,33.525-8.523a.4.4,0,0,1,.477.647c-9.93,7.327-19.119,9.464-26.456,9.464" transform="translate(-43.264 -23.678)" fill="#fff"/>
          <path id="Trazado_924470" data-name="Trazado 924470" d="M116.335,57.237A15.77,15.77,0,0,1,103.516,51.1a.4.4,0,1,1,.64-.487,15.167,15.167,0,0,0,13.489,5.767c4.8-.347,9.013-2.591,10.742-5.718a.4.4,0,1,1,.7.389c-1.858,3.359-6.328,5.765-11.388,6.131q-.69.05-1.368.05" transform="translate(-48.474 -23.648)" fill="#fff"/>
          <rect id="Rectángulo_404937" data-name="Rectángulo 404937" width="103.165" height="20.316" transform="translate(10.557 40.633)" fill="#365268"/>
          <rect id="Rectángulo_404938" data-name="Rectángulo 404938" width="5.308" height="5.308" transform="translate(32.162 47.999)" fill="#4c9fd8"/>
          <rect id="Rectángulo_404939" data-name="Rectángulo 404939" width="5.308" height="5.308" transform="translate(24.872 47.999)" fill="#4c9fd8"/>
          <rect id="Rectángulo_404940" data-name="Rectángulo 404940" width="5.308" height="5.308" transform="translate(17.583 47.999)" fill="#4c9fd8"/>
          <path id="Trazado_924471" data-name="Trazado 924471" d="M81.251,95.848h57.171a4.392,4.392,0,1,0,0-8.784H81.251a4.392,4.392,0,0,0,0,8.784" transform="translate(-36.02 -40.803)" fill="#4c9fd8"/>
          <rect id="Rectángulo_404941" data-name="Rectángulo 404941" width="17.728" height="3.319" transform="translate(48.945 48.994)" fill="#2d3e4f"/>
          <path id="Trazado_924472" data-name="Trazado 924472" d="M183.564,92.989a2.654,2.654,0,1,0,2.654-2.654,2.654,2.654,0,0,0-2.654,2.654" transform="translate(-86.027 -42.336)" fill="#3c86af"/>
          <path id="Trazado_924473" data-name="Trazado 924473" d="M171.909,94.571a.861.861,0,1,0,.861-.861.861.861,0,0,0-.861.861" transform="translate(-80.565 -43.917)" fill="#fff"/>
          <path id="Trazado_924474" data-name="Trazado 924474" d="M160.109,93.866a1.66,1.66,0,1,0,1.66-1.66,1.66,1.66,0,0,0-1.66,1.66" transform="translate(-75.035 -43.212)" fill="#3c86af"/>
          <path id="Trazado_924475" data-name="Trazado 924475" d="M149.814,93.866a1.66,1.66,0,1,0,1.66-1.66,1.66,1.66,0,0,0-1.66,1.66" transform="translate(-70.21 -43.212)" fill="#3c86af"/>
          <path id="Trazado_924476" data-name="Trazado 924476" d="M139.518,93.866a1.66,1.66,0,1,0,1.66-1.66,1.66,1.66,0,0,0-1.66,1.66" transform="translate(-65.385 -43.212)" fill="#3c86af"/>
          <path id="Trazado_924477" data-name="Trazado 924477" d="M129.222,93.866a1.66,1.66,0,1,0,1.66-1.66,1.66,1.66,0,0,0-1.66,1.66" transform="translate(-60.56 -43.212)" fill="#3c86af"/>
          <path id="Trazado_924478" data-name="Trazado 924478" d="M63.664,58.16c-.168,0-.321-.008-.456-.02-3.261-.291-6.114-3.4-6.637-7.225a.4.4,0,0,1,.8-.109c.474,3.466,3.015,6.274,5.912,6.533s5.416-2.146,6.862-6.6a.4.4,0,0,1,.765.248c-2.04,6.284-5.468,7.175-7.242,7.175" transform="translate(-26.51 -23.648)" fill="#fff"/>
          <path id="Trazado_924479" data-name="Trazado 924479" d="M142.639,55.922c-4.067,0-8.177-1.75-13.488-4.709a.4.4,0,1,1,.392-.7c9.462,5.273,14.961,6.994,24.469.027a.4.4,0,0,1,.476.649c-4.494,3.292-8.154,4.736-11.849,4.736" transform="translate(-60.43 -23.648)" fill="#fff"/>
          <path id="Trazado_924480" data-name="Trazado 924480" d="M65.168,59.66a.4.4,0,0,1-.218-.74c18.427-11.9,18.24-26.668,18.1-37.45-.011-.93-.023-1.833-.023-2.708a.4.4,0,0,1,.8,0c0,.871.011,1.772.023,2.7.14,10.969.33,25.992-18.471,38.136a.4.4,0,0,1-.217.064" transform="translate(-30.352 -8.604)" fill="#ffc07b"/>
          <path id="Trazado_924481" data-name="Trazado 924481" d="M50.417,59.66a.4.4,0,0,1-.079-.8c20.882-4.215,45.155-22.65,45.155-40.1a.4.4,0,0,1,.8,0c0,7.135-4.832,16.019-12.924,23.764A67.4,67.4,0,0,1,50.5,59.651a.366.366,0,0,1-.08.009" transform="translate(-23.44 -8.604)" fill="#ffc07b"/>
          <rect id="Rectángulo_404942" data-name="Rectángulo 404942" width="103.165" height="20.316" transform="translate(10.557 101.582)" fill="#426f8e"/>
          <path id="Trazado_924482" data-name="Trazado 924482" d="M198.737,211.4a.4.4,0,0,1-.4-.4V199.237a.4.4,0,0,1,.8,0v11.756a.4.4,0,0,1-.4.4" transform="translate(-92.95 -93.184)" fill="#ffc07b"/>
          <path id="Trazado_924483" data-name="Trazado 924483" d="M190.194,211.4a.4.4,0,0,1-.4-.4V199.237a.4.4,0,0,1,.8,0v11.756a.4.4,0,0,1-.4.4" transform="translate(-88.946 -93.184)" fill="#ffc07b"/>
          <path id="Trazado_924484" data-name="Trazado 924484" d="M181.651,211.4a.4.4,0,0,1-.4-.4V199.237a.4.4,0,0,1,.8,0v11.756a.4.4,0,0,1-.4.4" transform="translate(-84.942 -93.184)" fill="#ffc07b"/>
          <path id="Trazado_924485" data-name="Trazado 924485" d="M173.107,211.4a.4.4,0,0,1-.4-.4V199.237a.4.4,0,0,1,.8,0v11.756a.4.4,0,0,1-.4.4" transform="translate(-80.938 -93.184)" fill="#ffc07b"/>
          <path id="Trazado_924486" data-name="Trazado 924486" d="M164.564,211.4a.4.4,0,0,1-.4-.4V199.237a.4.4,0,0,1,.8,0v11.756a.4.4,0,0,1-.4.4" transform="translate(-76.935 -93.184)" fill="#ffc07b"/>
          <path id="Trazado_924487" data-name="Trazado 924487" d="M156.021,211.4a.4.4,0,0,1-.4-.4V199.237a.4.4,0,0,1,.8,0v11.756a.4.4,0,0,1-.4.4" transform="translate(-72.931 -93.184)" fill="#ffc07b"/>
          <path id="Trazado_924488" data-name="Trazado 924488" d="M147.478,211.4a.4.4,0,0,1-.4-.4V199.237a.4.4,0,0,1,.8,0v11.756a.4.4,0,0,1-.4.4" transform="translate(-68.927 -93.184)" fill="#ffc07b"/>
          <path id="Trazado_924489" data-name="Trazado 924489" d="M119.033,209.491a1.32,1.32,0,1,1,1.32,1.32,1.32,1.32,0,0,1-1.32-1.32" transform="translate(-55.785 -97.559)" fill="#fff"/>
          <path id="Trazado_924490" data-name="Trazado 924490" d="M106.38,209.491a1.32,1.32,0,1,1,1.32,1.32,1.32,1.32,0,0,1-1.32-1.32" transform="translate(-49.855 -97.559)" fill="#fff"/>
          <path id="Trazado_924491" data-name="Trazado 924491" d="M93.726,209.491a1.32,1.32,0,1,1,1.32,1.32,1.32,1.32,0,0,1-1.32-1.32" transform="translate(-43.925 -97.559)" fill="#fff"/>
          <path id="Trazado_924492" data-name="Trazado 924492" d="M81.073,209.491a1.32,1.32,0,1,1,1.32,1.32,1.32,1.32,0,0,1-1.32-1.32" transform="translate(-37.995 -97.559)" fill="#fff"/>
          <path id="Trazado_924493" data-name="Trazado 924493" d="M55.381,211.4a.4.4,0,0,1-.4-.4V199.237a.4.4,0,0,1,.8,0v11.756a.4.4,0,0,1-.4.4" transform="translate(-25.766 -93.184)" fill="#ffc07b"/>
          <path id="Trazado_924494" data-name="Trazado 924494" d="M46.838,211.4a.4.4,0,0,1-.4-.4V199.237a.4.4,0,0,1,.8,0v11.756a.4.4,0,0,1-.4.4" transform="translate(-21.762 -93.184)" fill="#ffc07b"/>
          <path id="Trazado_924495" data-name="Trazado 924495" d="M38.3,211.4a.4.4,0,0,1-.4-.4V199.237a.4.4,0,0,1,.8,0v11.756a.4.4,0,0,1-.4.4" transform="translate(-17.759 -93.184)" fill="#ffc07b"/>
          <path id="Trazado_924496" data-name="Trazado 924496" d="M67.917,185.208A53.277,53.277,0,0,1,51.9,182.7c-7.762-2.509-13.044-6.472-14.49-10.875a.4.4,0,1,1,.764-.251c3,9.119,22.761,14.5,36.242,12.338,5.232-.837,14.01-3.537,14.01-12.213a.4.4,0,1,1,.8,0c0,6.872-5.216,11.49-14.686,13.007a42.263,42.263,0,0,1-6.628.5" transform="translate(-17.523 -80.281)" fill="#ffc07b"/>
          <path id="Trazado_924497" data-name="Trazado 924497" d="M82.484,182.275c-10.214,0-18.849-3.623-24.469-10.311a.4.4,0,1,1,.615-.517c5.811,6.914,14.956,10.463,25.769,9.982,10.39-.458,20.979-4.738,24.63-9.954a.4.4,0,1,1,.659.461c-3.781,5.4-14.638,9.828-25.253,10.3-.655.029-1.307.043-1.95.043" transform="translate(-27.145 -80.281)" fill="#fff"/>
          <path id="Trazado_924498" data-name="Trazado 924498" d="M100.829,254.63a46.588,46.588,0,0,1-22.712-6.1.4.4,0,0,1,.391-.7c12.132,6.753,30.793,9.064,41.481.044a.4.4,0,1,1,.519.615c-4.275,3.607-10.865,5.837-18.081,6.117q-.763.03-1.6.031" transform="translate(-36.513 -116.118)" fill="#fff"/>
          <path id="Trazado_924499" data-name="Trazado 924499" d="M61.22,268.894a.4.4,0,0,1-.118-.018c-8.564-2.634-17.963-10.038-19.656-20.637a.4.4,0,1,1,.794-.126c1.638,10.257,10.773,17.433,19.1,19.995a.4.4,0,0,1-.118.786" transform="translate(-19.421 -116.119)" fill="#fff"/>
          <path id="Trazado_924500" data-name="Trazado 924500" d="M157.236,268.893a.4.4,0,0,1-.184-.76c9.831-5.039,15.927-11.427,19.184-20.1a.4.4,0,0,1,.752.282c-3.332,8.872-9.55,15.4-19.57,20.532a.4.4,0,0,1-.183.045" transform="translate(-73.5 -116.119)" fill="#fff"/>
          <path id="Trazado_924501" data-name="Trazado 924501" d="M99.54,268.894a.4.4,0,0,1-.142-.778c11.4-4.312,17.3-10.486,19.125-20.016a.4.4,0,0,1,.79.151c-1.171,6.105-4.479,14.884-19.63,20.616a.4.4,0,0,1-.142.027" transform="translate(-46.461 -116.12)" fill="#ffc07b"/>
          <path id="Trazado_924502" data-name="Trazado 924502" d="M118.917,268.892c-5.993,0-19.037-11.377-19.778-20.687a.4.4,0,0,1,.8-.063c.312,3.929,3.158,8.893,7.613,13.282,4.047,3.986,8.613,6.664,11.364,6.664a.4.4,0,0,1,0,.8" transform="translate(-46.461 -116.118)" fill="#ffc07b"/>
          <rect id="Rectángulo_404943" data-name="Rectángulo 404943" width="10.486" height="228.732" transform="translate(0.072 -0.001)" fill="#2d3e4f"/>
          <path id="Trazado_924503" data-name="Trazado 924503" d="M12.757,229.523h0a.441.441,0,0,1-.439-.444c0-.768.421-77.211,1.236-109.014.808-31.554-.024-90.092-1.235-110.755a.442.442,0,0,1,.415-.467.45.45,0,0,1,.467.415c1.212,20.679,2.045,79.257,1.236,110.829-.815,31.793-1.232,108.228-1.236,109a.441.441,0,0,1-.442.439" transform="translate(-5.772 -4.144)" fill="#ffc07b"/>
          <path id="Trazado_924504" data-name="Trazado 924504" d="M5.26,229.523h0a.441.441,0,0,1-.439-.444c0-.768.421-77.211,1.236-109.014C6.863,88.517,6.031,29.978,4.819,9.311a.442.442,0,0,1,.415-.467.447.447,0,0,1,.467.415C6.913,29.942,7.747,88.522,6.938,120.088c-.815,31.793-1.232,108.228-1.236,109a.441.441,0,0,1-.442.439" transform="translate(-2.258 -4.144)" fill="#ffc07b"/>
          <path id="Trazado_924505" data-name="Trazado 924505" d="M4.638,230a.442.442,0,0,1-.442-.442c0-.654,0-65.855.412-104.721.234-22.253-.026-41.848-.326-64.538-.2-15.391-.414-31.306-.5-50a.442.442,0,0,1,.44-.444h0a.442.442,0,0,1,.442.44c.083,18.69.294,34.6.5,49.993.3,22.694.56,42.294.326,64.558C5.084,163.7,5.079,228.9,5.079,229.555a.442.442,0,0,1-.442.442" transform="translate(-1.773 -4.617)" fill="#ffc07b"/>
          <path id="Trazado_924506" data-name="Trazado 924506" d="M12.03,229.165a.441.441,0,0,1-.442-.431c-1.5-60.543-.393-101.437.338-128.5.271-10.044.486-17.977.486-24.12,0-11.736-.446-24.189-.878-36.232-.4-11.072-.771-21.531-.771-30.6a.442.442,0,1,1,.883,0c0,9.054.375,19.505.77,30.57.432,12.05.878,24.511.878,36.262,0,6.155-.214,14.093-.486,24.143-.731,27.052-1.836,67.933-.338,128.453a.442.442,0,0,1-.431.453Z" transform="translate(-5.045 -4.144)" fill="#ffc07b"/>
          <path id="Trazado_924507" data-name="Trazado 924507" d="M8.67,229.165a.441.441,0,0,1-.442-.431c-1.5-60.541-.393-101.436.339-128.5.271-10.044.486-17.978.486-24.121,0-11.736-.446-24.189-.878-36.232-.4-11.072-.771-21.531-.771-30.6a.442.442,0,1,1,.883,0c0,9.054.375,19.505.77,30.57.432,12.05.878,24.511.878,36.262,0,6.155-.215,14.094-.486,24.145-.731,27.052-1.835,67.933-.338,128.451a.442.442,0,0,1-.431.453Z" transform="translate(-3.47 -4.144)" fill="#ffc07b"/>
          <rect id="Rectángulo_404944" data-name="Rectángulo 404944" width="10.486" height="12.652" transform="translate(0.072 14.468)" fill="#2d3e4f"/>
          <rect id="Rectángulo_404945" data-name="Rectángulo 404945" width="10.486" height="12.652" transform="translate(0.072 35.261)" fill="#2d3e4f"/>
          <rect id="Rectángulo_404946" data-name="Rectángulo 404946" width="10.486" height="12.652" transform="translate(0.072 56.055)" fill="#2d3e4f"/>
          <rect id="Rectángulo_404947" data-name="Rectángulo 404947" width="10.486" height="12.652" transform="translate(0.072 76.849)" fill="#2d3e4f"/>
          <rect id="Rectángulo_404948" data-name="Rectángulo 404948" width="10.486" height="12.652" transform="translate(0.072 97.643)" fill="#2d3e4f"/>
          <rect id="Rectángulo_404949" data-name="Rectángulo 404949" width="10.486" height="12.652" transform="translate(0.072 118.437)" fill="#2d3e4f"/>
          <rect id="Rectángulo_404950" data-name="Rectángulo 404950" width="10.486" height="12.652" transform="translate(0.072 139.231)" fill="#2d3e4f"/>
          <rect id="Rectángulo_404951" data-name="Rectángulo 404951" width="10.486" height="12.652" transform="translate(0.072 160.025)" fill="#2d3e4f"/>
          <rect id="Rectángulo_404952" data-name="Rectángulo 404952" width="10.486" height="12.652" transform="translate(0.072 180.818)" fill="#2d3e4f"/>
          <rect id="Rectángulo_404953" data-name="Rectángulo 404953" width="10.486" height="12.652" transform="translate(0.072 201.612)" fill="#2d3e4f"/>
          <rect id="Rectángulo_404954" data-name="Rectángulo 404954" width="10.486" height="6.326" transform="translate(0.072 222.405)" fill="#2d3e4f"/>
          <rect id="Rectángulo_404955" data-name="Rectángulo 404955" width="10.486" height="7.681" transform="translate(0.072 0)" fill="#2d3e4f"/>
          <rect id="Rectángulo_404956" data-name="Rectángulo 404956" width="10.486" height="228.732" transform="translate(113.699 0.009)" fill="#2d3e4f"/>
          <path id="Trazado_924508" data-name="Trazado 924508" d="M226.605,229.539h0a.441.441,0,0,1-.439-.444c0-.768.421-77.211,1.236-109.014.809-31.548-.024-90.087-1.235-110.754a.442.442,0,0,1,.882-.052c1.212,20.683,2.046,79.262,1.236,110.829-.815,31.793-1.232,108.228-1.236,109a.441.441,0,0,1-.442.439" transform="translate(-105.992 -4.151)" fill="#ffc07b"/>
          <path id="Trazado_924509" data-name="Trazado 924509" d="M219.108,229.539h0a.441.441,0,0,1-.439-.444c0-.768.422-77.211,1.236-109.014.809-31.558-.024-90.1-1.236-110.754a.442.442,0,0,1,.882-.052c1.212,20.674,2.046,79.251,1.237,110.829-.815,31.793-1.232,108.228-1.236,109a.441.441,0,0,1-.442.439" transform="translate(-102.478 -4.151)" fill="#ffc07b"/>
          <path id="Trazado_924510" data-name="Trazado 924510" d="M218.487,230.012a.442.442,0,0,1-.442-.442c0-.654,0-65.855.412-104.721.233-22.252-.027-41.846-.326-64.534-.2-15.392-.414-31.308-.5-50a.442.442,0,0,1,.44-.444h0a.442.442,0,0,1,.442.44c.083,18.692.294,34.606.5,50,.3,22.693.56,42.293.326,64.555-.407,38.861-.412,104.057-.412,104.711a.442.442,0,0,1-.442.442" transform="translate(-101.994 -4.625)" fill="#ffc07b"/>
          <path id="Trazado_924511" data-name="Trazado 924511" d="M225.879,229.182a.441.441,0,0,1-.442-.431c-1.5-60.543-.393-101.437.338-128.5.271-10.044.486-17.977.486-24.12,0-11.736-.446-24.189-.878-36.232-.4-11.072-.77-21.531-.77-30.6a.442.442,0,1,1,.883,0c0,9.054.374,19.5.77,30.569.431,12.05.878,24.511.878,36.263,0,6.155-.214,14.093-.486,24.143-.731,27.052-1.836,67.933-.338,128.453a.442.442,0,0,1-.431.453Z" transform="translate(-105.265 -4.152)" fill="#ffc07b"/>
          <path id="Trazado_924512" data-name="Trazado 924512" d="M222.518,229.182a.441.441,0,0,1-.442-.431c-1.5-60.543-.393-101.437.338-128.5.271-10.044.486-17.977.486-24.12,0-11.736-.446-24.189-.878-36.232-.4-11.072-.77-21.531-.77-30.6a.442.442,0,0,1,.883,0c0,9.054.374,19.5.771,30.569.431,12.05.877,24.511.877,36.263,0,6.155-.214,14.093-.486,24.143-.731,27.052-1.836,67.933-.338,128.453a.442.442,0,0,1-.43.453Z" transform="translate(-103.69 -4.152)" fill="#ffc07b"/>
          <rect id="Rectángulo_404957" data-name="Rectángulo 404957" width="10.486" height="12.652" transform="translate(113.699 14.477)" fill="#2d3e4f"/>
          <rect id="Rectángulo_404958" data-name="Rectángulo 404958" width="10.486" height="12.652" transform="translate(113.699 35.27)" fill="#2d3e4f"/>
          <rect id="Rectángulo_404959" data-name="Rectángulo 404959" width="10.486" height="12.652" transform="translate(113.699 56.064)" fill="#2d3e4f"/>
          <rect id="Rectángulo_404960" data-name="Rectángulo 404960" width="10.486" height="12.652" transform="translate(113.699 76.858)" fill="#2d3e4f"/>
          <rect id="Rectángulo_404961" data-name="Rectángulo 404961" width="10.486" height="12.652" transform="translate(113.699 97.652)" fill="#2d3e4f"/>
          <rect id="Rectángulo_404962" data-name="Rectángulo 404962" width="10.486" height="12.652" transform="translate(113.699 118.446)" fill="#2d3e4f"/>
          <rect id="Rectángulo_404963" data-name="Rectángulo 404963" width="10.486" height="12.652" transform="translate(113.699 139.239)" fill="#2d3e4f"/>
          <rect id="Rectángulo_404964" data-name="Rectángulo 404964" width="10.486" height="12.652" transform="translate(113.699 160.033)" fill="#2d3e4f"/>
          <rect id="Rectángulo_404965" data-name="Rectángulo 404965" width="10.486" height="12.652" transform="translate(113.699 180.827)" fill="#2d3e4f"/>
          <rect id="Rectángulo_404966" data-name="Rectángulo 404966" width="10.486" height="12.652" transform="translate(113.699 201.621)" fill="#2d3e4f"/>
          <rect id="Rectángulo_404967" data-name="Rectángulo 404967" width="10.486" height="6.326" transform="translate(113.699 222.414)" fill="#2d3e4f"/>
          <rect id="Rectángulo_404968" data-name="Rectángulo 404968" width="10.486" height="7.681" transform="translate(113.699 0.009)" fill="#2d3e4f"/>
          <path id="Trazado_924513" data-name="Trazado 924513" d="M0,430.2v5.255H1.589L3,430.2Z" transform="translate(0 -201.613)" fill="#365268"/>
          <path id="Trazado_924514" data-name="Trazado 924514" d="M231.133,430.362v5.255h-1.594l-1.408-5.255Z" transform="translate(-106.914 -201.689)" fill="#365268"/>
          <rect id="Rectángulo_404969" data-name="Rectángulo 404969" width="103.165" height="31.14" transform="translate(10.554 197.595)" fill="#365268"/>
          <path id="Trazado_924515" data-name="Trazado 924515" d="M118.27,414.044H30.409a4.371,4.371,0,1,1,0-8.742H118.27a4.371,4.371,0,1,1,0,8.742" transform="translate(-12.203 -189.945)" fill="#4c9fd8"/>
          <rect id="Rectángulo_404970" data-name="Rectángulo 404970" width="32.66" height="4.385" transform="translate(17.963 217.535)" fill="#426f8e"/>
          <rect id="Rectángulo_404971" data-name="Rectángulo 404971" width="4.385" height="4.385" transform="translate(101.357 217.535)" fill="#426f8e"/>
          <rect id="Rectángulo_404972" data-name="Rectángulo 404972" width="4.385" height="4.385" transform="translate(94.202 217.535)" fill="#426f8e"/>
          <rect id="Rectángulo_404973" data-name="Rectángulo 404973" width="4.385" height="4.385" transform="translate(87.047 217.535)" fill="#426f8e"/>
          <path id="Trazado_924516" data-name="Trazado 924516" d="M100.228,412.608a1.041,1.041,0,1,1-1.041-1.041,1.041,1.041,0,0,1,1.041,1.041" transform="translate(-45.996 -192.881)" fill="#fff"/>
          <path id="Trazado_924517" data-name="Trazado 924517" d="M108.984,412.608a1.041,1.041,0,1,1-1.041-1.041,1.041,1.041,0,0,1,1.041,1.041" transform="translate(-50.1 -192.881)" fill="#fff"/>
          <path id="Trazado_924518" data-name="Trazado 924518" d="M117.74,412.608a1.041,1.041,0,1,1-1.041-1.041,1.041,1.041,0,0,1,1.041,1.041" transform="translate(-54.203 -192.881)" fill="#fff"/>
          <rect id="Rectángulo_404974" data-name="Rectángulo 404974" width="19.486" height="4.385" transform="translate(65.347 217.535)" fill="#2d3e4f"/>
          <path id="Trazado_924519" data-name="Trazado 924519" d="M122.628,413.834a.4.4,0,0,1-.4-.4v-4.385a.4.4,0,0,1,.8,0v4.385a.4.4,0,0,1-.4.4" transform="translate(-57.281 -191.511)" fill="#ffc07b"/>
          <path id="Trazado_924520" data-name="Trazado 924520" d="M126.1,413.834a.4.4,0,0,1-.4-.4v-4.385a.4.4,0,0,1,.8,0v4.385a.4.4,0,0,1-.4.4" transform="translate(-58.91 -191.511)" fill="#ffc07b"/>
          <path id="Trazado_924521" data-name="Trazado 924521" d="M129.578,413.834a.4.4,0,0,1-.4-.4v-4.385a.4.4,0,0,1,.8,0v4.385a.4.4,0,0,1-.4.4" transform="translate(-60.538 -191.511)" fill="#ffc07b"/>
          <path id="Trazado_924522" data-name="Trazado 924522" d="M133.053,413.834a.4.4,0,0,1-.4-.4v-4.385a.4.4,0,0,1,.8,0v4.385a.4.4,0,0,1-.4.4" transform="translate(-62.167 -191.511)" fill="#ffc07b"/>
          <path id="Trazado_924523" data-name="Trazado 924523" d="M118.27,391.238H30.409a4.371,4.371,0,1,1,0-8.742H118.27a4.371,4.371,0,1,1,0,8.742" transform="translate(-12.203 -179.257)" fill="#4c9fd8"/>
          <rect id="Rectángulo_404975" data-name="Rectángulo 404975" width="32.66" height="4.385" transform="translate(17.963 205.417)" fill="#426f8e"/>
          <rect id="Rectángulo_404976" data-name="Rectángulo 404976" width="4.385" height="4.385" transform="translate(101.357 205.417)" fill="#426f8e"/>
          <rect id="Rectángulo_404977" data-name="Rectángulo 404977" width="4.385" height="4.385" transform="translate(94.202 205.417)" fill="#426f8e"/>
          <rect id="Rectángulo_404978" data-name="Rectángulo 404978" width="4.385" height="4.385" transform="translate(87.047 205.417)" fill="#426f8e"/>
          <path id="Trazado_924524" data-name="Trazado 924524" d="M100.228,389.8a1.041,1.041,0,1,1-1.041-1.041,1.041,1.041,0,0,1,1.041,1.041" transform="translate(-45.996 -182.193)" fill="#fff"/>
          <path id="Trazado_924525" data-name="Trazado 924525" d="M108.984,389.8a1.041,1.041,0,1,1-1.041-1.041,1.041,1.041,0,0,1,1.041,1.041" transform="translate(-50.1 -182.193)" fill="#fff"/>
          <path id="Trazado_924526" data-name="Trazado 924526" d="M117.74,389.8a1.041,1.041,0,1,1-1.041-1.041,1.041,1.041,0,0,1,1.041,1.041" transform="translate(-54.203 -182.193)" fill="#fff"/>
          <rect id="Rectángulo_404979" data-name="Rectángulo 404979" width="19.486" height="4.385" transform="translate(65.347 205.417)" fill="#2d3e4f"/>
          <path id="Trazado_924527" data-name="Trazado 924527" d="M122.628,391.028a.4.4,0,0,1-.4-.4V386.24a.4.4,0,0,1,.8,0v4.386a.4.4,0,0,1-.4.4" transform="translate(-57.281 -180.823)" fill="#ffc07b"/>
          <path id="Trazado_924528" data-name="Trazado 924528" d="M126.1,391.028a.4.4,0,0,1-.4-.4V386.24a.4.4,0,0,1,.8,0v4.386a.4.4,0,0,1-.4.4" transform="translate(-58.91 -180.823)" fill="#ffc07b"/>
          <path id="Trazado_924529" data-name="Trazado 924529" d="M129.578,391.028a.4.4,0,0,1-.4-.4V386.24a.4.4,0,0,1,.8,0v4.386a.4.4,0,0,1-.4.4" transform="translate(-60.538 -180.823)" fill="#ffc07b"/>
          <path id="Trazado_924530" data-name="Trazado 924530" d="M133.053,391.028a.4.4,0,0,1-.4-.4V386.24a.4.4,0,0,1,.8,0v4.386a.4.4,0,0,1-.4.4" transform="translate(-62.167 -180.823)" fill="#ffc07b"/>
          <rect id="Rectángulo_404980" data-name="Rectángulo 404980" width="103.165" height="31.14" transform="translate(10.554 166.454)" fill="#365268"/>
          <path id="Trazado_924531" data-name="Trazado 924531" d="M118.27,352.406H30.409a4.371,4.371,0,1,1,0-8.742H118.27a4.371,4.371,0,1,1,0,8.742" transform="translate(-12.203 -161.058)" fill="#4c9fd8"/>
          <rect id="Rectángulo_404981" data-name="Rectángulo 404981" width="32.66" height="4.385" transform="translate(17.963 184.784)" fill="#426f8e"/>
          <rect id="Rectángulo_404982" data-name="Rectángulo 404982" width="4.385" height="4.385" transform="translate(101.357 184.784)" fill="#426f8e"/>
          <rect id="Rectángulo_404983" data-name="Rectángulo 404983" width="4.385" height="4.385" transform="translate(94.202 184.784)" fill="#426f8e"/>
          <rect id="Rectángulo_404984" data-name="Rectángulo 404984" width="4.385" height="4.385" transform="translate(87.047 184.784)" fill="#426f8e"/>
          <path id="Trazado_924532" data-name="Trazado 924532" d="M100.228,350.97a1.041,1.041,0,1,1-1.041-1.041,1.041,1.041,0,0,1,1.041,1.041" transform="translate(-45.996 -163.994)" fill="#fff"/>
          <path id="Trazado_924533" data-name="Trazado 924533" d="M108.984,350.97a1.041,1.041,0,1,1-1.041-1.041,1.041,1.041,0,0,1,1.041,1.041" transform="translate(-50.1 -163.994)" fill="#fff"/>
          <path id="Trazado_924534" data-name="Trazado 924534" d="M117.74,350.97a1.041,1.041,0,1,1-1.041-1.041,1.041,1.041,0,0,1,1.041,1.041" transform="translate(-54.203 -163.994)" fill="#fff"/>
          <rect id="Rectángulo_404985" data-name="Rectángulo 404985" width="19.486" height="4.385" transform="translate(65.347 184.784)" fill="#2d3e4f"/>
          <path id="Trazado_924535" data-name="Trazado 924535" d="M122.628,352.2a.4.4,0,0,1-.4-.4v-4.385a.4.4,0,0,1,.8,0v4.385a.4.4,0,0,1-.4.4" transform="translate(-57.281 -162.624)" fill="#ffc07b"/>
          <path id="Trazado_924536" data-name="Trazado 924536" d="M126.1,352.2a.4.4,0,0,1-.4-.4v-4.385a.4.4,0,0,1,.8,0v4.385a.4.4,0,0,1-.4.4" transform="translate(-58.91 -162.624)" fill="#ffc07b"/>
          <path id="Trazado_924537" data-name="Trazado 924537" d="M118.27,329.6H30.409a4.371,4.371,0,1,1,0-8.742H118.27a4.371,4.371,0,1,1,0,8.742" transform="translate(-12.203 -150.37)" fill="#4c9fd8"/>
          <rect id="Rectángulo_404986" data-name="Rectángulo 404986" width="32.66" height="4.385" transform="translate(17.963 172.666)" fill="#426f8e"/>
          <rect id="Rectángulo_404987" data-name="Rectángulo 404987" width="4.385" height="4.385" transform="translate(101.357 172.666)" fill="#426f8e"/>
          <rect id="Rectángulo_404988" data-name="Rectángulo 404988" width="4.385" height="4.385" transform="translate(94.202 172.666)" fill="#426f8e"/>
          <rect id="Rectángulo_404989" data-name="Rectángulo 404989" width="4.385" height="4.385" transform="translate(87.047 172.666)" fill="#426f8e"/>
          <path id="Trazado_924538" data-name="Trazado 924538" d="M100.228,328.165a1.041,1.041,0,1,1-1.041-1.041,1.041,1.041,0,0,1,1.041,1.041" transform="translate(-45.996 -153.307)" fill="#fff"/>
          <path id="Trazado_924539" data-name="Trazado 924539" d="M108.984,328.165a1.041,1.041,0,1,1-1.041-1.041,1.041,1.041,0,0,1,1.041,1.041" transform="translate(-50.1 -153.307)" fill="#fff"/>
          <path id="Trazado_924540" data-name="Trazado 924540" d="M117.74,328.165a1.041,1.041,0,1,1-1.041-1.041,1.041,1.041,0,0,1,1.041,1.041" transform="translate(-54.203 -153.307)" fill="#fff"/>
          <rect id="Rectángulo_404990" data-name="Rectángulo 404990" width="19.486" height="4.385" transform="translate(65.347 172.666)" fill="#2d3e4f"/>
          <path id="Trazado_924541" data-name="Trazado 924541" d="M122.628,329.39a.4.4,0,0,1-.4-.4V324.6a.4.4,0,0,1,.8,0v4.385a.4.4,0,0,1-.4.4" transform="translate(-57.281 -151.936)" fill="#ffc07b"/>
          <path id="Trazado_924542" data-name="Trazado 924542" d="M126.1,329.39a.4.4,0,0,1-.4-.4V324.6a.4.4,0,0,1,.8,0v4.385a.4.4,0,0,1-.4.4" transform="translate(-58.91 -151.936)" fill="#ffc07b"/>
          <path id="Trazado_924543" data-name="Trazado 924543" d="M129.578,329.39a.4.4,0,0,1-.4-.4V324.6a.4.4,0,0,1,.8,0v4.385a.4.4,0,0,1-.4.4" transform="translate(-60.538 -151.936)" fill="#ffc07b"/>
          <path id="Trazado_924544" data-name="Trazado 924544" d="M133.053,329.39a.4.4,0,0,1-.4-.4V324.6a.4.4,0,0,1,.8,0v4.385a.4.4,0,0,1-.4.4" transform="translate(-62.167 -151.936)" fill="#ffc07b"/>
          <rect id="Rectángulo_404991" data-name="Rectángulo 404991" width="103.165" height="3.924" transform="translate(10.554 195.331)" fill="#2d3e4f"/>
          <rect id="Rectángulo_404992" data-name="Rectángulo 404992" width="103.165" height="3.924" transform="translate(10.554 162.53)" fill="#2d3e4f"/>
        </g>
      </g>
    </g>
  </g>
</svg>
