<svg xmlns="http://www.w3.org/2000/svg" xmlns:xlink="http://www.w3.org/1999/xlink" width="295" height="231.66" viewBox="0 0 295 231.66">
  <defs>
    <clipPath id="clip-path">
      <rect id="Rectángulo_404894" data-name="Rectángulo 404894" width="195" height="216.189" fill="none"/>
    </clipPath>
  </defs>
  <g id="img21" transform="translate(-600 -2747.39)">
    <rect id="Rectángulo_402941" data-name="Rectángulo 402941" width="295" height="163" rx="10" transform="translate(600 2816.05)" fill="#d7eed6"/>
    <g id="Grupo_1103762" data-name="Grupo 1103762" transform="translate(659.051 2747.389)">
      <path id="Trazado_924289" data-name="Trazado 924289" d="M277.313,217.93l-4.823,7.8-4.044-6.5-1.592-10.866,8.566-.19Z" transform="translate(-139.1 -108.512)" fill="#efbd9c"/>
      <g id="Grupo_1103761" data-name="Grupo 1103761">
        <g id="Grupo_1103760" data-name="Grupo 1103760" clip-path="url(#clip-path)">
          <path id="Trazado_924290" data-name="Trazado 924290" d="M271.121,191.4c.721,4.92-3.56,10.166-7.277,10.71s-5.463-3.818-6.183-8.738,1.715-9.3,5.425-9.895c5.2-.827,7.315,3,8.036,7.923" transform="translate(-134.242 -95.58)" fill="#efbd9c"/>
          <path id="Trazado_924291" data-name="Trazado 924291" d="M270.265,185.191c-.732-4.539-4.887-5.828-6.3-5.237-1.518.636-2.139-.387-3.876-.292-1.553.086-2.562,1.042-4.042,1.219a2.919,2.919,0,0,0-2.847,2.64c-.127,1.844,1.495,2.776,1.643,4.1.155,1.374,2.114,1.543,2.24,1.832.264.606-.233,2.716-.095,3.012s.412.456.629.347a5.081,5.081,0,0,0,.782-.9,2.432,2.432,0,0,1,1.276,2.764c-.269,1.317,2.546,3.468,3.677,3.707.982.209,4.325-.562,5.769-.832,1.025-.191,2-7.043,1.14-12.364" transform="translate(-131.981 -93.647)" fill="#2d1c12"/>
          <path id="Trazado_924292" data-name="Trazado 924292" d="M265.016,205.629c.013-1.205-.537-2.189-1.228-2.2s-1.262.964-1.275,2.17.537,2.189,1.228,2.2,1.261-.964,1.274-2.17" transform="translate(-136.837 -106.041)" fill="#efbb95"/>
          <rect id="Rectángulo_404818" data-name="Rectángulo 404818" width="4.249" height="0.241" transform="translate(122.93 97.961) rotate(-9.821)" fill="#fff"/>
          <path id="Trazado_924293" data-name="Trazado 924293" d="M257.231,204.618a.641.641,0,0,1-.536-.352,2.512,2.512,0,0,1-.321-.953,1.868,1.868,0,0,1,.193-1.369.479.479,0,0,1,.35-.187l.011.241a.235.235,0,0,0-.174.1,1.666,1.666,0,0,0-.142,1.179,2.288,2.288,0,0,0,.285.859c.116.179.243.259.377.238l.038.238a.492.492,0,0,1-.082.007" transform="translate(-133.617 -105.168)" fill="#2d1c12"/>
          <path id="Trazado_924294" data-name="Trazado 924294" d="M229.951,439.668v4.682h-1.433l-1.94-5.453Z" transform="translate(-118.106 -228.779)" fill="#365268"/>
          <path id="Trazado_924295" data-name="Trazado 924295" d="M0,439.668v4.682H1.433l1.94-5.453Z" transform="translate(0 -228.779)" fill="#365268"/>
          <rect id="Rectángulo_404819" data-name="Rectángulo 404819" width="92.95" height="18.305" transform="translate(9.427 119.582)" fill="#365268"/>
          <path id="Trazado_924296" data-name="Trazado 924296" d="M190.529,266.3a2.391,2.391,0,1,0,2.391-2.391,2.391,2.391,0,0,0-2.391,2.391" transform="translate(-99.315 -137.564)" fill="#4c9fd8"/>
          <path id="Trazado_924297" data-name="Trazado 924297" d="M154.061,266.3a2.391,2.391,0,1,0,2.391-2.391,2.391,2.391,0,0,0-2.391,2.391" transform="translate(-80.306 -137.564)" fill="#4c9fd8"/>
          <rect id="Rectángulo_404820" data-name="Rectángulo 404820" width="6.761" height="1.519" transform="translate(81.495 127.975)" fill="#4c9fd8"/>
          <rect id="Rectángulo_404821" data-name="Rectángulo 404821" width="6.761" height="1.519" transform="translate(53.087 127.975)" fill="#4c9fd8"/>
          <rect id="Rectángulo_404822" data-name="Rectángulo 404822" width="4.782" height="4.782" transform="translate(62.806 126.343)" fill="#4c9fd8"/>
          <rect id="Rectángulo_404823" data-name="Rectángulo 404823" width="4.782" height="4.782" transform="translate(45.347 126.343)" fill="#4c9fd8"/>
          <path id="Trazado_924298" data-name="Trazado 924298" d="M69.223,266.3a2.391,2.391,0,1,0,2.391-2.391,2.391,2.391,0,0,0-2.391,2.391" transform="translate(-36.083 -137.564)" fill="#4c9fd8"/>
          <path id="Trazado_924299" data-name="Trazado 924299" d="M32.754,266.3a2.391,2.391,0,1,0,2.391-2.391,2.391,2.391,0,0,0-2.391,2.391" transform="translate(-17.073 -137.564)" fill="#4c9fd8"/>
          <rect id="Rectángulo_404824" data-name="Rectángulo 404824" width="6.761" height="1.519" transform="translate(23.421 127.975)" fill="#4c9fd8"/>
          <rect id="Rectángulo_404825" data-name="Rectángulo 404825" width="92.95" height="18.305" transform="translate(9.427 137.887)" fill="#426f8e"/>
          <path id="Trazado_924300" data-name="Trazado 924300" d="M190.639,304.534a2.391,2.391,0,1,0,2.391-2.391,2.391,2.391,0,0,0-2.391,2.391" transform="translate(-99.372 -157.495)" fill="#4c9fd8"/>
          <path id="Trazado_924301" data-name="Trazado 924301" d="M154.17,304.534a2.391,2.391,0,1,0,2.391-2.391,2.391,2.391,0,0,0-2.391,2.391" transform="translate(-80.363 -157.495)" fill="#4c9fd8"/>
          <rect id="Rectángulo_404826" data-name="Rectángulo 404826" width="6.761" height="1.519" transform="translate(81.548 146.28)" fill="#4c9fd8"/>
          <rect id="Rectángulo_404827" data-name="Rectángulo 404827" width="6.761" height="1.519" transform="translate(53.087 146.28)" fill="#4c9fd8"/>
          <rect id="Rectángulo_404828" data-name="Rectángulo 404828" width="4.782" height="4.782" transform="translate(62.806 144.648)" fill="#4c9fd8"/>
          <rect id="Rectángulo_404829" data-name="Rectángulo 404829" width="4.782" height="4.782" transform="translate(45.347 144.648)" fill="#4c9fd8"/>
          <path id="Trazado_924302" data-name="Trazado 924302" d="M69.113,304.534a2.391,2.391,0,1,0,2.391-2.391,2.391,2.391,0,0,0-2.391,2.391" transform="translate(-36.026 -157.495)" fill="#4c9fd8"/>
          <path id="Trazado_924303" data-name="Trazado 924303" d="M32.645,304.534a2.391,2.391,0,1,0,2.391-2.391,2.391,2.391,0,0,0-2.391,2.391" transform="translate(-17.017 -157.495)" fill="#4c9fd8"/>
          <rect id="Rectángulo_404830" data-name="Rectángulo 404830" width="6.761" height="1.519" transform="translate(23.368 146.28)" fill="#4c9fd8"/>
          <rect id="Rectángulo_404831" data-name="Rectángulo 404831" width="92.95" height="18.305" transform="translate(9.427 101.277)" fill="#426f8e"/>
          <rect id="Rectángulo_404832" data-name="Rectángulo 404832" width="2.911" height="2.911" transform="translate(93.215 111.912)" fill="#4c9fd8"/>
          <rect id="Rectángulo_404833" data-name="Rectángulo 404833" width="2.911" height="2.911" transform="translate(88.103 111.912)" fill="#4c9fd8"/>
          <rect id="Rectángulo_404834" data-name="Rectángulo 404834" width="2.911" height="2.911" transform="translate(82.99 111.912)" fill="#4c9fd8"/>
          <path id="Trazado_924304" data-name="Trazado 924304" d="M175.144,221.49h9.548a1.793,1.793,0,1,1,0,3.587h-9.548a1.793,1.793,0,1,1,0-3.587" transform="translate(-90.361 -115.454)" fill="#2d3e4f"/>
          <rect id="Rectángulo_404835" data-name="Rectángulo 404835" width="2.911" height="2.911" transform="translate(70.777 111.912)" fill="#4c9fd8"/>
          <rect id="Rectángulo_404836" data-name="Rectángulo 404836" width="2.911" height="2.911" transform="translate(65.665 111.912)" fill="#4c9fd8"/>
          <rect id="Rectángulo_404837" data-name="Rectángulo 404837" width="2.911" height="2.911" transform="translate(60.553 111.912)" fill="#4c9fd8"/>
          <path id="Trazado_924305" data-name="Trazado 924305" d="M128.277,221.49h9.548a1.793,1.793,0,1,1,0,3.587h-9.548a1.793,1.793,0,1,1,0-3.587" transform="translate(-65.931 -115.454)" fill="#2d3e4f"/>
          <rect id="Rectángulo_404838" data-name="Rectángulo 404838" width="2.911" height="2.911" transform="translate(48.34 111.912)" fill="#4c9fd8"/>
          <rect id="Rectángulo_404839" data-name="Rectángulo 404839" width="2.911" height="2.911" transform="translate(43.228 111.912)" fill="#4c9fd8"/>
          <rect id="Rectángulo_404840" data-name="Rectángulo 404840" width="2.911" height="2.911" transform="translate(38.116 111.912)" fill="#4c9fd8"/>
          <path id="Trazado_924306" data-name="Trazado 924306" d="M81.41,221.49h9.548a1.793,1.793,0,1,1,0,3.587H81.41a1.793,1.793,0,1,1,0-3.587" transform="translate(-41.501 -115.454)" fill="#2d3e4f"/>
          <rect id="Rectángulo_404841" data-name="Rectángulo 404841" width="2.911" height="2.911" transform="translate(25.903 111.912)" fill="#4c9fd8"/>
          <rect id="Rectángulo_404842" data-name="Rectángulo 404842" width="2.911" height="2.911" transform="translate(20.791 111.912)" fill="#4c9fd8"/>
          <rect id="Rectángulo_404843" data-name="Rectángulo 404843" width="2.911" height="2.911" transform="translate(15.679 111.912)" fill="#4c9fd8"/>
          <path id="Trazado_924307" data-name="Trazado 924307" d="M34.543,221.49h9.548a1.793,1.793,0,1,1,0,3.587H34.543a1.793,1.793,0,1,1,0-3.587" transform="translate(-17.071 -115.454)" fill="#2d3e4f"/>
          <rect id="Rectángulo_404844" data-name="Rectángulo 404844" width="92.95" height="18.305" transform="translate(9.427 64.668)" fill="#426f8e"/>
          <rect id="Rectángulo_404845" data-name="Rectángulo 404845" width="32.255" height="5.937" transform="translate(53.914 70.694)" fill="#2d3e4f"/>
          <path id="Trazado_924308" data-name="Trazado 924308" d="M188.116,150.636a2.968,2.968,0,1,1,2.968,2.968,2.968,2.968,0,0,1-2.968-2.968" transform="translate(-98.057 -76.973)" fill="#2d3e4f"/>
          <path id="Trazado_924309" data-name="Trazado 924309" d="M70.933,152.573a1.189,1.189,0,1,1,1.189,1.189,1.189,1.189,0,0,1-1.189-1.189" transform="translate(-36.975 -78.91)" fill="#4c9fd8"/>
          <path id="Trazado_924310" data-name="Trazado 924310" d="M58.28,152.573a1.189,1.189,0,1,1,1.189,1.189,1.189,1.189,0,0,1-1.189-1.189" transform="translate(-30.379 -78.91)" fill="#fff"/>
          <path id="Trazado_924311" data-name="Trazado 924311" d="M45.626,152.573a1.189,1.189,0,1,1,1.189,1.189,1.189,1.189,0,0,1-1.189-1.189" transform="translate(-23.783 -78.91)" fill="#4c9fd8"/>
          <path id="Trazado_924312" data-name="Trazado 924312" d="M32.973,152.573a1.189,1.189,0,1,1,1.189,1.189,1.189,1.189,0,0,1-1.189-1.189" transform="translate(-17.187 -78.91)" fill="#fff"/>
          <rect id="Rectángulo_404846" data-name="Rectángulo 404846" width="92.95" height="18.305" transform="translate(9.427 28.058)" fill="#426f8e"/>
          <rect id="Rectángulo_404847" data-name="Rectángulo 404847" width="4.782" height="4.782" transform="translate(91.34 34.82)" fill="#4c9fd8"/>
          <rect id="Rectángulo_404848" data-name="Rectángulo 404848" width="4.782" height="4.782" transform="translate(81.511 34.82)" fill="#4c9fd8"/>
          <rect id="Rectángulo_404849" data-name="Rectángulo 404849" width="4.782" height="4.782" transform="translate(71.683 34.82)" fill="#4c9fd8"/>
          <rect id="Rectángulo_404850" data-name="Rectángulo 404850" width="4.782" height="4.782" transform="translate(61.855 34.82)" fill="#4c9fd8"/>
          <rect id="Rectángulo_404851" data-name="Rectángulo 404851" width="4.782" height="4.782" transform="translate(25.55 34.82)" fill="#4c9fd8"/>
          <rect id="Rectángulo_404852" data-name="Rectángulo 404852" width="4.782" height="4.782" transform="translate(15.722 34.82)" fill="#4c9fd8"/>
          <path id="Trazado_924313" data-name="Trazado 924313" d="M84.05,77.514H92.4a2.391,2.391,0,1,0,0-4.782H84.05a2.391,2.391,0,1,0,0,4.782" transform="translate(-42.566 -37.912)" fill="#2d3e4f"/>
          <path id="Trazado_924314" data-name="Trazado 924314" d="M140.306,242.154q-.612,0-1.233-.045c-4.559-.33-8.586-2.5-10.26-5.524a.362.362,0,1,1,.634-.35c1.558,2.817,5.357,4.84,9.678,5.152a13.661,13.661,0,0,0,12.154-5.2.362.362,0,0,1,.577.438,14.208,14.208,0,0,1-11.55,5.526" transform="translate(-67.121 -123.042)" fill="#fff"/>
          <path id="Trazado_924315" data-name="Trazado 924315" d="M63.013,243.405c-2.746,0-5.2-2.553-6.605-6.884a.362.362,0,1,1,.689-.223c1.33,4.113,3.625,6.494,6.093,6.378s4.594-2.608,5.421-6.345a.362.362,0,1,1,.707.157c-.9,4.065-3.293,6.778-6.094,6.912-.07,0-.141.005-.211.005" transform="translate(-29.394 -123.042)" fill="#fff"/>
          <path id="Trazado_924316" data-name="Trazado 924316" d="M114.08,240.969c-3.329,0-6.626-1.3-10.675-4.267a.362.362,0,1,1,.428-.585c8.567,6.278,13.521,4.726,22.046-.024a.362.362,0,1,1,.353.632c-4.784,2.666-8.488,4.243-12.152,4.243" transform="translate(-53.824 -123.042)" fill="#fff"/>
          <rect id="Rectángulo_404853" data-name="Rectángulo 404853" width="92.95" height="18.305" transform="translate(9.427 82.972)" fill="#365268"/>
          <rect id="Rectángulo_404854" data-name="Rectángulo 404854" width="4.782" height="4.782" transform="translate(28.823 89.857)" fill="#4c9fd8"/>
          <rect id="Rectángulo_404855" data-name="Rectángulo 404855" width="4.782" height="4.782" transform="translate(22.255 89.857)" fill="#4c9fd8"/>
          <rect id="Rectángulo_404856" data-name="Rectángulo 404856" width="4.782" height="4.782" transform="translate(15.688 89.857)" fill="#4c9fd8"/>
          <path id="Trazado_924317" data-name="Trazado 924317" d="M89.508,184.425h47.255a3.957,3.957,0,1,1,0,7.914H89.508a3.957,3.957,0,0,1,0-7.914" transform="translate(-44.594 -96.133)" fill="#4c9fd8"/>
          <rect id="Rectángulo_404857" data-name="Rectángulo 404857" width="21.871" height="2.991" transform="translate(44.801 90.753)" fill="#2d3e4f"/>
          <path id="Trazado_924318" data-name="Trazado 924318" d="M186.52,190.086a2.391,2.391,0,1,1,2.391,2.391,2.391,2.391,0,0,1-2.391-2.391" transform="translate(-97.225 -97.838)" fill="#3c86af"/>
          <path id="Trazado_924319" data-name="Trazado 924319" d="M176.669,191.846a.776.776,0,1,1,.776.776.775.775,0,0,1-.776-.776" transform="translate(-92.09 -99.597)" fill="#fff"/>
          <path id="Trazado_924320" data-name="Trazado 924320" d="M164.87,191.062a1.5,1.5,0,1,1,1.5,1.5,1.5,1.5,0,0,1-1.5-1.5" transform="translate(-85.94 -98.813)" fill="#3c86af"/>
          <path id="Trazado_924321" data-name="Trazado 924321" d="M154.574,191.062a1.5,1.5,0,1,1,1.5,1.5,1.5,1.5,0,0,1-1.5-1.5" transform="translate(-80.573 -98.813)" fill="#3c86af"/>
          <path id="Trazado_924322" data-name="Trazado 924322" d="M144.279,191.062a1.5,1.5,0,1,1,1.5,1.5,1.5,1.5,0,0,1-1.5-1.5" transform="translate(-75.207 -98.813)" fill="#3c86af"/>
          <path id="Trazado_924323" data-name="Trazado 924323" d="M46.074,213.777a.362.362,0,0,1-.285-.585c4.4-5.643,8.891-12.539,8.891-20.9a.362.362,0,0,1,.724,0c0,8.578-4.572,15.6-9.044,21.342a.363.363,0,0,1-.286.139" transform="translate(-23.828 -100.047)" fill="#ffc07b"/>
          <path id="Trazado_924324" data-name="Trazado 924324" d="M84.916,216.079a40.928,40.928,0,0,1-13.122-2.4c-12.073-4.216-19.775-12.371-20.6-21.815a.362.362,0,0,1,.721-.063c.8,9.152,8.322,17.075,20.12,21.195,9.03,3.153,18.478,3.121,21.508-.072a.362.362,0,0,1,.525.5c-1.677,1.767-5.019,2.656-9.15,2.656" transform="translate(-26.684 -99.806)" fill="#ffc07b"/>
          <rect id="Rectángulo_404858" data-name="Rectángulo 404858" width="92.95" height="18.305" transform="translate(9.427 156.192)" fill="#365268"/>
          <rect id="Rectángulo_404859" data-name="Rectángulo 404859" width="2.911" height="2.911" transform="translate(93.215 160.951)" fill="#4c9fd8"/>
          <rect id="Rectángulo_404860" data-name="Rectángulo 404860" width="2.911" height="2.911" transform="translate(88.103 160.951)" fill="#4c9fd8"/>
          <rect id="Rectángulo_404861" data-name="Rectángulo 404861" width="2.911" height="2.911" transform="translate(82.99 160.951)" fill="#4c9fd8"/>
          <path id="Trazado_924325" data-name="Trazado 924325" d="M175.144,350.645h9.548a1.793,1.793,0,1,0,0-3.587h-9.548a1.793,1.793,0,1,0,0,3.587" transform="translate(-90.361 -180.907)" fill="#2d3e4f"/>
          <rect id="Rectángulo_404862" data-name="Rectángulo 404862" width="2.911" height="2.911" transform="translate(70.777 160.951)" fill="#4c9fd8"/>
          <rect id="Rectángulo_404863" data-name="Rectángulo 404863" width="2.911" height="2.911" transform="translate(65.665 160.951)" fill="#4c9fd8"/>
          <rect id="Rectángulo_404864" data-name="Rectángulo 404864" width="2.911" height="2.911" transform="translate(60.553 160.951)" fill="#4c9fd8"/>
          <path id="Trazado_924326" data-name="Trazado 924326" d="M128.277,350.645h9.548a1.793,1.793,0,1,0,0-3.587h-9.548a1.793,1.793,0,1,0,0,3.587" transform="translate(-65.931 -180.907)" fill="#2d3e4f"/>
          <rect id="Rectángulo_404865" data-name="Rectángulo 404865" width="2.911" height="2.911" transform="translate(48.34 160.951)" fill="#4c9fd8"/>
          <rect id="Rectángulo_404866" data-name="Rectángulo 404866" width="2.911" height="2.911" transform="translate(43.228 160.951)" fill="#4c9fd8"/>
          <rect id="Rectángulo_404867" data-name="Rectángulo 404867" width="2.911" height="2.911" transform="translate(38.116 160.951)" fill="#4c9fd8"/>
          <path id="Trazado_924327" data-name="Trazado 924327" d="M81.41,350.645h9.548a1.793,1.793,0,1,0,0-3.587H81.41a1.793,1.793,0,1,0,0,3.587" transform="translate(-41.501 -180.907)" fill="#2d3e4f"/>
          <rect id="Rectángulo_404868" data-name="Rectángulo 404868" width="2.911" height="2.911" transform="translate(25.903 160.951)" fill="#4c9fd8"/>
          <rect id="Rectángulo_404869" data-name="Rectángulo 404869" width="2.911" height="2.911" transform="translate(20.791 160.951)" fill="#4c9fd8"/>
          <rect id="Rectángulo_404870" data-name="Rectángulo 404870" width="2.911" height="2.911" transform="translate(15.679 160.951)" fill="#4c9fd8"/>
          <path id="Trazado_924328" data-name="Trazado 924328" d="M34.543,350.645h9.548a1.793,1.793,0,1,0,0-3.587H34.543a1.793,1.793,0,1,0,0,3.587" transform="translate(-17.071 -180.907)" fill="#2d3e4f"/>
          <path id="Trazado_924329" data-name="Trazado 924329" d="M139.441,344.142c-3.755,0-7.205-1.681-10.568-5.044a.362.362,0,0,1,.512-.512c6.409,6.409,13.184,6.4,21.967-.036a.362.362,0,1,1,.428.585c-4.556,3.338-8.6,5.008-12.34,5.008" transform="translate(-67.121 -176.436)" fill="#fff"/>
          <rect id="Rectángulo_404871" data-name="Rectángulo 404871" width="92.95" height="18.305" transform="translate(9.427 46.363)" fill="#365268"/>
          <path id="Trazado_924330" data-name="Trazado 924330" d="M200.318,115.82a.362.362,0,0,1-.362-.362V104.866a.362.362,0,0,1,.725,0v10.592a.362.362,0,0,1-.362.362" transform="translate(-104.229 -54.474)" fill="#ffc07b"/>
          <path id="Trazado_924331" data-name="Trazado 924331" d="M191.774,115.82a.362.362,0,0,1-.362-.362V104.866a.362.362,0,0,1,.725,0v10.592a.362.362,0,0,1-.362.362" transform="translate(-99.775 -54.474)" fill="#ffc07b"/>
          <path id="Trazado_924332" data-name="Trazado 924332" d="M183.231,115.82a.362.362,0,0,1-.362-.362V104.866a.362.362,0,0,1,.725,0v10.592a.362.362,0,0,1-.362.362" transform="translate(-95.322 -54.474)" fill="#ffc07b"/>
          <path id="Trazado_924333" data-name="Trazado 924333" d="M174.688,115.82a.362.362,0,0,1-.362-.362V104.866a.362.362,0,0,1,.725,0v10.592a.362.362,0,0,1-.362.362" transform="translate(-90.869 -54.474)" fill="#ffc07b"/>
          <path id="Trazado_924334" data-name="Trazado 924334" d="M166.145,115.82a.362.362,0,0,1-.362-.362V104.866a.362.362,0,0,1,.725,0v10.592a.362.362,0,0,1-.362.362" transform="translate(-86.416 -54.474)" fill="#ffc07b"/>
          <path id="Trazado_924335" data-name="Trazado 924335" d="M157.6,115.82a.362.362,0,0,1-.362-.362V104.866a.362.362,0,0,1,.725,0v10.592a.362.362,0,0,1-.362.362" transform="translate(-81.963 -54.474)" fill="#ffc07b"/>
          <path id="Trazado_924336" data-name="Trazado 924336" d="M149.058,115.82a.362.362,0,0,1-.362-.362V104.866a.362.362,0,0,1,.725,0v10.592a.362.362,0,0,1-.362.362" transform="translate(-77.509 -54.474)" fill="#ffc07b"/>
          <path id="Trazado_924337" data-name="Trazado 924337" d="M118.856,115.027a1.189,1.189,0,1,1,1.189,1.189,1.189,1.189,0,0,1-1.189-1.189" transform="translate(-61.955 -59.339)" fill="#fff"/>
          <path id="Trazado_924338" data-name="Trazado 924338" d="M106.2,115.027a1.189,1.189,0,1,1,1.189,1.189,1.189,1.189,0,0,1-1.189-1.189" transform="translate(-55.359 -59.339)" fill="#fff"/>
          <path id="Trazado_924339" data-name="Trazado 924339" d="M93.549,115.027a1.189,1.189,0,1,1,1.189,1.189,1.189,1.189,0,0,1-1.189-1.189" transform="translate(-48.763 -59.339)" fill="#fff"/>
          <path id="Trazado_924340" data-name="Trazado 924340" d="M80.9,115.027a1.189,1.189,0,1,1,1.189,1.189,1.189,1.189,0,0,1-1.189-1.189" transform="translate(-42.168 -59.339)" fill="#fff"/>
          <path id="Trazado_924341" data-name="Trazado 924341" d="M49.3,115.82a.362.362,0,0,1-.362-.362V104.866a.362.362,0,0,1,.725,0v10.592a.362.362,0,0,1-.362.362" transform="translate(-25.509 -54.474)" fill="#ffc07b"/>
          <path id="Trazado_924342" data-name="Trazado 924342" d="M40.757,115.82a.362.362,0,0,1-.362-.362V104.866a.362.362,0,0,1,.725,0v10.592a.362.362,0,0,1-.362.362" transform="translate(-21.056 -54.474)" fill="#ffc07b"/>
          <path id="Trazado_924343" data-name="Trazado 924343" d="M32.214,115.82a.362.362,0,0,1-.362-.362V104.866a.362.362,0,0,1,.725,0v10.592a.362.362,0,0,1-.362.362" transform="translate(-16.603 -54.474)" fill="#ffc07b"/>
          <path id="Trazado_924344" data-name="Trazado 924344" d="M64.22,88.952c-10.462,0-21.359-5.489-27.039-11.369a.362.362,0,0,1,.52-.5c6.288,6.508,19.085,12.529,30.426,10.871A19.38,19.38,0,0,0,83.252,77.165a.362.362,0,0,1,.643.333A20.321,20.321,0,0,1,68.232,88.667a27.717,27.717,0,0,1-4.012.285" transform="translate(-19.328 -40.121)" fill="#ffc07b"/>
          <path id="Trazado_924345" data-name="Trazado 924345" d="M79.8,86.855c-9.24,0-17.04-3.265-22.1-9.291a.362.362,0,1,1,.554-.466c5.237,6.231,13.5,9.424,23.29,8.994,9.407-.415,18.981-4.27,22.269-8.968a.362.362,0,0,1,.594.415C100.995,82.4,91.18,86.391,81.57,86.816q-.893.04-1.771.039" transform="translate(-30.029 -40.121)" fill="#fff"/>
          <path id="Trazado_924346" data-name="Trazado 924346" d="M95.45,274.3a45.342,45.342,0,0,1-21.8-5.48.362.362,0,0,1,.352-.633c14.294,7.956,32.662,6.407,40.206.04a.362.362,0,1,1,.467.553c-4.08,3.443-11.235,5.519-19.221,5.519" transform="translate(-38.292 -139.773)" fill="#fff"/>
          <path id="Trazado_924347" data-name="Trazado 924347" d="M59.085,287.176a.363.363,0,0,1-.107-.016c-7.716-2.374-16.185-9.044-17.71-18.594a.362.362,0,1,1,.715-.114c1.476,9.242,9.706,15.707,17.208,18.015a.362.362,0,0,1-.107.709" transform="translate(-21.509 -139.774)" fill="#fff"/>
          <path id="Trazado_924348" data-name="Trazado 924348" d="M157.019,287.174a.362.362,0,0,1-.166-.685c9.921-5.086,15.814-10.841,18.544-18.11a.362.362,0,0,1,.678.255c-2.8,7.448-8.8,13.326-18.891,18.5a.358.358,0,0,1-.165.04" transform="translate(-81.659 -139.773)" fill="#fff"/>
          <path id="Trazado_924349" data-name="Trazado 924349" d="M116.781,287.174c-5.4,0-17.153-10.251-17.82-18.638a.363.363,0,0,1,.333-.39.367.367,0,0,1,.389.332c.282,3.54,2.846,8.014,6.859,11.967,3.646,3.592,7.76,6,10.239,6a.362.362,0,1,1,0,.724" transform="translate(-51.584 -139.773)" fill="#ffc07b"/>
          <rect id="Rectángulo_404872" data-name="Rectángulo 404872" width="9.447" height="211.106" transform="translate(102.377)" fill="#2d3e4f"/>
          <rect id="Rectángulo_404873" data-name="Rectángulo 404873" width="9.447" height="211.106" transform="translate(0)" fill="#2d3e4f"/>
          <rect id="Rectángulo_404874" data-name="Rectángulo 404874" width="92.95" height="36.61" transform="translate(9.427 174.496)" fill="#426f8e"/>
          <path id="Trazado_924350" data-name="Trazado 924350" d="M166.406,381.991H135.946a.759.759,0,0,1,0-1.519h30.459a.759.759,0,1,1,0,1.519" transform="translate(-70.468 -198.325)" fill="#658eaa"/>
          <path id="Trazado_924351" data-name="Trazado 924351" d="M166.406,390.258H135.946a.759.759,0,0,1,0-1.519h30.459a.759.759,0,1,1,0,1.519" transform="translate(-70.468 -202.634)" fill="#658eaa"/>
          <path id="Trazado_924352" data-name="Trazado 924352" d="M166.406,398.525H135.946a.759.759,0,0,1,0-1.519h30.459a.759.759,0,1,1,0,1.519" transform="translate(-70.468 -206.943)" fill="#658eaa"/>
          <path id="Trazado_924353" data-name="Trazado 924353" d="M166.406,406.792H135.946a.759.759,0,1,1,0-1.519h30.459a.759.759,0,1,1,0,1.519" transform="translate(-70.468 -211.253)" fill="#658eaa"/>
          <path id="Trazado_924354" data-name="Trazado 924354" d="M166.406,415.06H135.946a.759.759,0,0,1,0-1.519h30.459a.759.759,0,1,1,0,1.519" transform="translate(-70.468 -215.562)" fill="#658eaa"/>
          <path id="Trazado_924355" data-name="Trazado 924355" d="M166.406,423.327H135.946a.759.759,0,0,1,0-1.519h30.459a.759.759,0,1,1,0,1.519" transform="translate(-70.468 -219.872)" fill="#658eaa"/>
          <rect id="Rectángulo_404875" data-name="Rectángulo 404875" width="4.782" height="4.782" transform="translate(54.792 182.035)" fill="#4c9fd8"/>
          <rect id="Rectángulo_404876" data-name="Rectángulo 404876" width="4.782" height="4.782" transform="translate(54.792 190.314)" fill="#4c9fd8"/>
          <rect id="Rectángulo_404877" data-name="Rectángulo 404877" width="4.782" height="4.782" transform="translate(54.792 198.563)" fill="#4c9fd8"/>
          <rect id="Rectángulo_404878" data-name="Rectángulo 404878" width="26.609" height="5.937" transform="translate(15.742 182.035)" fill="#2d3e4f"/>
          <path id="Trazado_924356" data-name="Trazado 924356" d="M35.261,398.822a1.189,1.189,0,1,0-1.189,1.189,1.189,1.189,0,0,0,1.189-1.189" transform="translate(-17.141 -207.27)" fill="#fff"/>
          <path id="Trazado_924357" data-name="Trazado 924357" d="M47.914,398.822a1.189,1.189,0,1,0-1.189,1.189,1.189,1.189,0,0,0,1.189-1.189" transform="translate(-23.736 -207.27)" fill="#4c9fd8"/>
          <path id="Trazado_924358" data-name="Trazado 924358" d="M60.567,398.822a1.189,1.189,0,1,0-1.189,1.189,1.189,1.189,0,0,0,1.189-1.189" transform="translate(-30.332 -207.27)" fill="#fff"/>
          <path id="Trazado_924359" data-name="Trazado 924359" d="M73.221,398.822a1.189,1.189,0,1,0-1.189,1.189,1.189,1.189,0,0,0,1.189-1.189" transform="translate(-36.928 -207.27)" fill="#4c9fd8"/>
          <path id="Trazado_924360" data-name="Trazado 924360" d="M85.874,398.822a1.189,1.189,0,1,0-1.189,1.189,1.189,1.189,0,0,0,1.189-1.189" transform="translate(-43.523 -207.27)" fill="#4c9fd8"/>
          <rect id="Rectángulo_404879" data-name="Rectángulo 404879" width="4.782" height="4.782" transform="translate(30.568 198.563)" fill="#4c9fd8"/>
          <rect id="Rectángulo_404880" data-name="Rectángulo 404880" width="4.782" height="4.782" transform="translate(37.975 198.563)" fill="#4c9fd8"/>
          <rect id="Rectángulo_404881" data-name="Rectángulo 404881" width="4.782" height="4.782" transform="translate(23.161 198.563)" fill="#4c9fd8"/>
          <rect id="Rectángulo_404882" data-name="Rectángulo 404882" width="4.782" height="4.782" transform="translate(15.754 198.563)" fill="#4c9fd8"/>
          <path id="Trazado_924361" data-name="Trazado 924361" d="M37.369,132.732a.362.362,0,0,1-.083-.715c19.938-4.718,36.7-19.376,47.26-30.841a160.664,160.664,0,0,0,18.335-24.028.362.362,0,0,1,.624.368A161.45,161.45,0,0,1,85.09,101.655C74.464,113.2,57.574,127.96,37.453,132.722a.367.367,0,0,1-.084.01" transform="translate(-19.29 -40.121)" fill="#ffc07b"/>
          <path id="Trazado_924362" data-name="Trazado 924362" d="M35.4,153.851a.362.362,0,0,1-.047-.721,127.855,127.855,0,0,0,39.724-13.518c11.361-6.28,20.239-14.018,26.387-23,7.679-11.216,11.1-24.424,10.172-39.258a.362.362,0,0,1,.339-.384.368.368,0,0,1,.384.339c.939,15-2.527,28.366-10.3,39.721-6.215,9.076-15.18,16.891-26.645,23.226a128.649,128.649,0,0,1-39.961,13.592l-.048,0" transform="translate(-18.261 -40.121)" fill="#fff"/>
          <path id="Trazado_924363" data-name="Trazado 924363" d="M99.323,270.444a.362.362,0,0,1-.1-.711c21.841-6.05,41.425-33.259,41.621-33.532a.362.362,0,1,1,.59.42c-.2.276-19.928,27.691-42.018,33.81a.357.357,0,0,1-.1.013" transform="translate(-51.584 -123.042)" fill="#fff"/>
          <path id="Trazado_924364" data-name="Trazado 924364" d="M37.245,270.443a.362.362,0,0,1-.058-.72c.622-.1,62.337-10.35,76.4-33.5a.362.362,0,0,1,.619.376c-5.982,9.85-20.751,18.541-43.893,25.83A266.431,266.431,0,0,1,37.3,270.439a.345.345,0,0,1-.058,0" transform="translate(-19.225 -123.042)" fill="#fff"/>
          <path id="Trazado_924365" data-name="Trazado 924365" d="M35.4,302.542a.362.362,0,0,1-.079-.716c26.8-6.033,47.646-33.262,47.854-33.536a.362.362,0,1,1,.578.437c-.209.276-21.21,27.715-48.273,33.806a.35.35,0,0,1-.08.009" transform="translate(-18.261 -139.774)" fill="#ffc07b"/>
          <path id="Trazado_924366" data-name="Trazado 924366" d="M93.327,223.235l-.191-.7c5.052-1.389,10.659-7.578,15-16.554,9.334-19.309,13.755-53-1.831-89.673l.667-.283c15.68,36.891,11.219,70.82,1.815,90.271-4.5,9.3-10.13,15.472-15.459,16.937" transform="translate(-48.548 -60.48)" fill="#ffc07b"/>
          <path id="Trazado_924367" data-name="Trazado 924367" d="M92.8,188.905c-18.22,0-32.56-5.179-42.635-15.4C34.336,157.446,34.694,134.228,34.7,134l.005-.242.225-.087c.159-.062,16.059-6.3,28.888-17.906l.486.538c-12.086,10.931-26.869,17.136-28.882,17.951.006,2.484.505,23.785,15.26,38.751,10.092,10.236,24.55,15.33,42.976,15.178l.006.724c-.29,0-.58,0-.868,0" transform="translate(-18.087 -60.341)" fill="#ffc07b"/>
          <path id="Trazado_924368" data-name="Trazado 924368" d="M131.331,227.544c-14.479-6.609-29.7-19.486-41.764-35.329-11.137-14.627-17.634-29.342-16.956-38.4l.722.055c-.665,8.892,5.776,23.419,16.81,37.911,11.992,15.751,27.115,28.548,41.49,35.109Z" transform="translate(-37.824 -80.175)" fill="#ffc07b"/>
          <path id="Trazado_924369" data-name="Trazado 924369" d="M147.392,174.316l-.683-.241c.075-.213,7.221-21.794-3.485-39.027-6.5-10.465-18.152-16.776-34.628-18.758l.087-.719c16.7,2.009,28.533,8.434,35.157,19.1,9.179,14.774,5.677,33.631,3.553,39.65" transform="translate(-56.607 -60.242)" fill="#ffc07b"/>
          <path id="Trazado_924370" data-name="Trazado 924370" d="M71.318,208.694c-6.715,0-11.484-1.845-14.824-5.682-6.9-7.926-7.277-24.157-1.163-49.622a.362.362,0,1,1,.7.169c-6.056,25.221-5.727,41.242,1.006,48.978,3.84,4.413,9.709,6.071,18.473,5.217a.362.362,0,1,1,.07.721q-2.253.219-4.266.22" transform="translate(-26.592 -79.811)" fill="#fff"/>
          <path id="Trazado_924371" data-name="Trazado 924371" d="M71.28,205.492a.36.36,0,0,1-.294-.151c-7.4-10.32-13.191-31.793-8.415-54.551a88.553,88.553,0,0,1,16.118-34.97c9.47-12.658,22.635-24.032,39.129-33.807a.362.362,0,1,1,.369.623c-16.411,9.726-29.505,21.037-38.918,33.618A87.842,87.842,0,0,0,63.279,150.94c-4.731,22.543.984,43.784,8.294,53.979a.361.361,0,0,1-.083.505.357.357,0,0,1-.21.068" transform="translate(-31.708 -42.724)" fill="#fff"/>
          <path id="Trazado_924372" data-name="Trazado 924372" d="M28.821,223.006a.361.361,0,0,1-.292-.147c-.217-.293-21.673-29.6-25.052-52.462-1.881-12.727.217-24.977,5.91-34.492,6.533-10.919,17.575-17.951,31.933-20.337a.362.362,0,1,1,.119.715c-14.142,2.349-25.01,9.263-31.43,19.994C4.4,145.65,2.336,157.73,4.193,170.291c3.354,22.689,24.7,51.846,24.918,52.138a.362.362,0,0,1-.291.577" transform="translate(-1.462 -60.239)" fill="#ffc07b"/>
          <path id="Trazado_924373" data-name="Trazado 924373" d="M165.731,155.347a.362.362,0,0,1-.165-.685c6.816-3.476,12.231-11.462,15.25-22.486,2.522-9.212,3.054-19.817,1.355-27.018-3.2-13.552-25.932-24.447-26.161-24.555a.362.362,0,0,1,.31-.655,86.082,86.082,0,0,1,12.008,7.228c5.689,4.11,12.831,10.536,14.548,17.815,1.724,7.31,1.19,18.056-1.362,27.376-3.073,11.223-8.62,19.37-15.619,22.94a.364.364,0,0,1-.164.04" transform="translate(-81.213 -41.655)" fill="#ffc07b"/>
          <rect id="Rectángulo_404883" data-name="Rectángulo 404883" width="92.95" height="28.057" transform="translate(9.427 0)" fill="#365268"/>
          <path id="Trazado_924374" data-name="Trazado 924374" d="M108.966,40.357H29.8a3.938,3.938,0,1,1,0-7.876h79.162a3.938,3.938,0,1,1,0,7.876" transform="translate(-13.483 -16.931)" fill="#4c9fd8"/>
          <rect id="Rectángulo_404884" data-name="Rectángulo 404884" width="29.426" height="3.951" transform="translate(16.102 17.512)" fill="#426f8e"/>
          <rect id="Rectángulo_404885" data-name="Rectángulo 404885" width="3.951" height="3.951" transform="translate(91.239 17.512)" fill="#426f8e"/>
          <rect id="Rectángulo_404886" data-name="Rectángulo 404886" width="3.951" height="3.951" transform="translate(84.792 17.512)" fill="#426f8e"/>
          <rect id="Rectángulo_404887" data-name="Rectángulo 404887" width="3.951" height="3.951" transform="translate(78.345 17.512)" fill="#426f8e"/>
          <path id="Trazado_924375" data-name="Trazado 924375" d="M99.85,39.684a.938.938,0,1,1-.938-.938.938.938,0,0,1,.938.938" transform="translate(-51.07 -20.197)" fill="#fff"/>
          <path id="Trazado_924376" data-name="Trazado 924376" d="M108.606,39.684a.938.938,0,1,1-.938-.938.938.938,0,0,1,.938.938" transform="translate(-55.634 -20.197)" fill="#fff"/>
          <path id="Trazado_924377" data-name="Trazado 924377" d="M117.361,39.684a.938.938,0,1,1-.938-.938.938.938,0,0,1,.938.938" transform="translate(-60.198 -20.197)" fill="#fff"/>
          <rect id="Rectángulo_404888" data-name="Rectángulo 404888" width="17.556" height="3.951" transform="translate(58.794 17.512)" fill="#2d3e4f"/>
          <path id="Trazado_924378" data-name="Trazado 924378" d="M122.415,40.5a.362.362,0,0,1-.362-.362V36.185a.362.362,0,0,1,.725,0v3.952a.362.362,0,0,1-.362.362" transform="translate(-63.621 -18.673)" fill="#ffc07b"/>
          <path id="Trazado_924379" data-name="Trazado 924379" d="M125.891,40.5a.362.362,0,0,1-.362-.362V36.185a.362.362,0,0,1,.725,0v3.952a.362.362,0,0,1-.362.362" transform="translate(-65.433 -18.673)" fill="#ffc07b"/>
          <path id="Trazado_924380" data-name="Trazado 924380" d="M108.966,17.551H29.8a3.938,3.938,0,1,1,0-7.876h79.162a3.938,3.938,0,1,1,0,7.876" transform="translate(-13.483 -5.043)" fill="#4c9fd8"/>
          <rect id="Rectángulo_404889" data-name="Rectángulo 404889" width="29.426" height="3.951" transform="translate(16.102 6.595)" fill="#426f8e"/>
          <rect id="Rectángulo_404890" data-name="Rectángulo 404890" width="3.951" height="3.951" transform="translate(91.239 6.595)" fill="#426f8e"/>
          <rect id="Rectángulo_404891" data-name="Rectángulo 404891" width="3.951" height="3.951" transform="translate(84.792 6.595)" fill="#426f8e"/>
          <rect id="Rectángulo_404892" data-name="Rectángulo 404892" width="3.951" height="3.951" transform="translate(78.345 6.595)" fill="#426f8e"/>
          <path id="Trazado_924381" data-name="Trazado 924381" d="M99.85,16.879a.938.938,0,1,1-.938-.938.938.938,0,0,1,.938.938" transform="translate(-51.07 -8.309)" fill="#fff"/>
          <path id="Trazado_924382" data-name="Trazado 924382" d="M108.606,16.879a.938.938,0,1,1-.938-.938.938.938,0,0,1,.938.938" transform="translate(-55.634 -8.309)" fill="#fff"/>
          <path id="Trazado_924383" data-name="Trazado 924383" d="M117.361,16.879a.938.938,0,1,1-.938-.938.938.938,0,0,1,.938.938" transform="translate(-60.198 -8.309)" fill="#fff"/>
          <rect id="Rectángulo_404893" data-name="Rectángulo 404893" width="17.556" height="3.951" transform="translate(58.794 6.595)" fill="#2d3e4f"/>
          <path id="Trazado_924384" data-name="Trazado 924384" d="M122.415,17.693a.362.362,0,0,1-.362-.362V13.38a.362.362,0,0,1,.725,0v3.952a.362.362,0,0,1-.362.362" transform="translate(-63.621 -6.786)" fill="#ffc07b"/>
          <path id="Trazado_924385" data-name="Trazado 924385" d="M125.891,17.693a.362.362,0,0,1-.362-.362V13.38a.362.362,0,0,1,.725,0v3.952a.362.362,0,0,1-.362.362" transform="translate(-65.433 -6.786)" fill="#ffc07b"/>
          <path id="Trazado_924386" data-name="Trazado 924386" d="M129.365,17.693a.362.362,0,0,1-.362-.362V13.38a.362.362,0,0,1,.725,0v3.952a.362.362,0,0,1-.362.362" transform="translate(-67.244 -6.786)" fill="#ffc07b"/>
          <path id="Trazado_924387" data-name="Trazado 924387" d="M132.841,17.693a.362.362,0,0,1-.362-.362V13.38a.362.362,0,0,1,.725,0v3.952a.362.362,0,0,1-.362.362" transform="translate(-69.056 -6.786)" fill="#ffc07b"/>
          <path id="Trazado_924388" data-name="Trazado 924388" d="M136.017,17.693a.362.362,0,0,1-.362-.362V13.38a.362.362,0,0,1,.725,0v3.952a.362.362,0,0,1-.362.362" transform="translate(-70.711 -6.786)" fill="#ffc07b"/>
          <path id="Trazado_924389" data-name="Trazado 924389" d="M138.949,17.693a.362.362,0,0,1-.362-.362V13.38a.362.362,0,0,1,.725,0v3.952a.362.362,0,0,1-.362.362" transform="translate(-72.24 -6.786)" fill="#ffc07b"/>
          <path id="Trazado_924390" data-name="Trazado 924390" d="M377.439,425.231l-1.433-5.866-15.349,1.91,6.5,5.727Z" transform="translate(-187.996 -218.598)" fill="#efbd9c"/>
          <path id="Trazado_924391" data-name="Trazado 924391" d="M390.753,424.568c1.442,1.043,2.212,3.515,3.314,5.18a13.06,13.06,0,0,0,2.257,2.7,1.024,1.024,0,0,0,1.663-.963l-2.352-13.91a1.024,1.024,0,0,0-1.227-.83l-4.962,1.079a7.447,7.447,0,0,1,1.307,6.744" transform="translate(-203.003 -217.22)" fill="#d6e8ed"/>
          <path id="Trazado_924392" data-name="Trazado 924392" d="M232.557,429.079l5.716-.158.4-11.407-5.885.352Z" transform="translate(-121.222 -217.633)" fill="#efbd9c"/>
          <path id="Trazado_924393" data-name="Trazado 924393" d="M221.463,438.781c-1.263,1.255-3.827,1.615-5.648,2.434a13.059,13.059,0,0,0-3.028,1.791,1.025,1.025,0,0,0,.681,1.8l14.108-.075a1.024,1.024,0,0,0,1.016-1.077l-.263-5.071a7.444,7.444,0,0,1-6.866.2" transform="translate(-110.733 -228.614)" fill="#d6e8ed"/>
          <path id="Trazado_924394" data-name="Trazado 924394" d="M339.446,368.956l-26.245,1.51s6.451-23.245,7.109-30.862a54.752,54.752,0,0,0-1.219-15.622l-20.411,3.539c-.553,6.038,1.967,16.517,1.967,16.517s-3.277,36.936,5.06,39.768,34.519-6.034,34.519-6.034Z" transform="translate(-155.648 -168.879)" fill="#276c93"/>
          <path id="Trazado_924395" data-name="Trazado 924395" d="M323.822,393.842c-3.071,0-5.482-.507-6.461-1.856-2.582-3.559-2.581-11.05,0-22.265a148.131,148.131,0,0,1,4.66-15.8l.225.083c-.108.294-10.762,29.479-4.7,37.841,1.544,2.128,7.342,2.314,16.765.538,7.15-1.348,13.918-3.369,13.986-3.389l.069.229c-.826.248-15.534,4.618-24.553,4.619" transform="translate(-164.419 -184.485)" fill="#3b8596"/>
          <path id="Trazado_924396" data-name="Trazado 924396" d="M252.629,327.386l-2.743,1.395c-.215.067-15.269-.886-19.034,3.775-6.286,7.783-2.611,43.631-2.611,43.631a10.631,10.631,0,0,0,8.914.734l4.865-32.095s26.375,2.254,34.765-1.731c6.781-3.221,5.978-12.034,5.073-19.113Z" transform="translate(-118.416 -168.879)" fill="#2f81b7"/>
          <path id="Trazado_924397" data-name="Trazado 924397" d="M238.448,376.877c-.017-1.109-.038-2.267-.059-3.461-.236-13.207-.558-31.295,3.195-35.625,2.259-2.606,9.694-2.2,17.564-1.776,6.528.354,13.279.72,17.716-.548a7.047,7.047,0,0,0,4.764-3.71c1.76-3.771-.425-8.762-.448-8.812l.219-.1c.022.051,2.252,5.139.446,9.01a7.273,7.273,0,0,1-4.916,3.839c-4.476,1.279-11.246.912-17.794.557-7.812-.424-15.189-.823-17.372,1.694-3.693,4.261-3.371,22.3-3.136,35.464.021,1.194.042,2.353.059,3.461Z" transform="translate(-124.196 -168.288)" fill="#4e9aaf"/>
          <path id="Trazado_924398" data-name="Trazado 924398" d="M173.192,261.818a.36.36,0,0,1-.1-.015c-5.974-1.739-11.631-4.911-12.566-16.246C159.572,234,167.6,225.3,174.682,217.626c6.445-6.983,12.532-13.579,10.741-21.086-.889-3.724-2.07-5.727-3.418-5.794l-.076,0c-3.191,0-7.288,9.8-8.607,13.612a.362.362,0,0,1-.684-.237c.5-1.453,5.007-14.1,9.3-14.1l.107,0c1.752.087,3.088,2.163,4.087,6.349,1.881,7.883-4.334,14.616-10.912,21.745-6.982,7.566-14.9,16.14-13.969,27.382.849,10.291,5.43,13.683,12.047,15.61a.362.362,0,0,1-.1.71" transform="translate(-83.635 -99.05)" fill="#fff"/>
          <path id="Trazado_924399" data-name="Trazado 924399" d="M166.856,284.266c-2.219-.153-2.163-2.261-3.367-2.909s-1.066,1.235-1.066,1.235a1.6,1.6,0,0,0-2.242-.467c-1.411.839-1.947,4.3-1.486,5.576s8.027,1.2,8.027,1.2Z" transform="translate(-82.637 -146.589)" fill="#f2af81"/>
          <path id="Trazado_924400" data-name="Trazado 924400" d="M211.573,200.356a.748.748,0,0,0-1.409.486c.022.1.059.259.1.434-.74-.044-1.964-.017-2.1,1.1-.146,1.248-.259,2.285-.356,3.451s-.133,2.426,1.206,3.017a5.616,5.616,0,0,0,1.726.6,13.513,13.513,0,0,0,2.382-.194c.048-.146.389-4.034.389-4.034-1.167-.632-1.312-3.888-1.944-4.861" transform="translate(-108.303 -104.199)" fill="#efbd9c"/>
          <path id="Trazado_924401" data-name="Trazado 924401" d="M233.016,218.433,216.724,210.7l-3.225,4.6s10.917,9.59,17.854,11.09c5.821,1.259,27.148-4.086,27.148-4.086l-7.983-3.124Z" transform="translate(-111.288 -109.832)" fill="#dd7c62"/>
          <path id="Trazado_924402" data-name="Trazado 924402" d="M264.614,278c-.551-1.062-.861-8.286-2.034-15.586a159.9,159.9,0,0,0-3.967-17.326c-1.316-4.592-4.447-9.2-2.635-13.27,1.535-3.45,3.9-3.957,6.375-4.435a43.917,43.917,0,0,1,9.3-.79c2.831.158,11.23.546,14.834,10.664,3.1,8.692,5.371,17.059,6.9,21.724,1.79,5.453,6.069,21.876,4.889,23.528-1.131,1.584-8.366-1.982-17.776-.734-7.708,1.023-14.787-1.652-15.887-3.775" transform="translate(-133.144 -118.097)" fill="#ef8e70"/>
          <path id="Trazado_924403" data-name="Trazado 924403" d="M261.585,259.721l2.688-3.519.165,14.694c-.583-3.4-2.34-9.4-2.616-10.359-.075-.263-.155-.536-.237-.816" transform="translate(-136.354 -133.548)" fill="#dd7c62"/>
          <path id="Trazado_924404" data-name="Trazado 924404" d="M218.39,240.046c.183,10.691-9.252,18.3-15.829,20.893-7.824,3.081-29.15,1.772-29.15,1.772l.734-7.183,24.96-4.247S206.89,237.73,209.826,234a15.855,15.855,0,0,1,10.34-5.579Z" transform="translate(-90.392 -119.065)" fill="#ef8e70"/>
          <path id="Trazado_924405" data-name="Trazado 924405" d="M267.88,226.325l.695-1.023a16.149,16.149,0,0,1,4.759-1.114,21.749,21.749,0,0,1,4.024.144l.968,1.023a43.064,43.064,0,0,0-10.446.969" transform="translate(-139.635 -116.835)" fill="#ffddd4"/>
          <path id="Trazado_924406" data-name="Trazado 924406" d="M176.528,296.755a.3.3,0,1,1-.234-.362.3.3,0,0,1,.234.362" transform="translate(-91.702 -154.494)" fill="#fff"/>
          <path id="Trazado_924407" data-name="Trazado 924407" d="M179.365,296.742a.3.3,0,1,1-.234-.362.3.3,0,0,1,.234.362" transform="translate(-93.181 -154.488)" fill="#fff"/>
        </g>
      </g>
    </g>
  </g>
</svg>
