<svg xmlns="http://www.w3.org/2000/svg" width="85" height="85" viewBox="0 0 85 85">
  <g id="img5" transform="translate(-600.051 -1268)">
    <circle id="Elipse_11562" data-name="Elipse 11562" cx="42.5" cy="42.5" r="42.5" transform="translate(600.051 1268)" fill="#b0dcad"/>
    <g id="Layer_34" data-name="Layer 34" transform="translate(598.051 1266)">
      <g id="database_server" data-name="database server" transform="translate(2 2)">
        <rect id="Rectángulo_403820" data-name="Rectángulo 403820" width="57" height="17" rx="2" transform="translate(1 24)" fill="#57a4ff"/>
        <path id="Trazado_918788" data-name="Trazado 918788" d="M45.495,21.832V33.158a2.84,2.84,0,0,1-2.832,2.832H37a2.84,2.84,0,0,0,2.832-2.832V21.832A2.84,2.84,0,0,0,37,19h5.663a2.84,2.84,0,0,1,2.832,2.832Z" transform="translate(12.554 5.069)" fill="#2488ff"/>
        <path id="Trazado_918789" data-name="Trazado 918789" d="M33,31h8.495v5.663H33Z" transform="translate(10.89 10.059)" fill="#acabb1"/>
        <path id="Trazado_918790" data-name="Trazado 918790" d="M33,15h8.495v5.663H33Z" transform="translate(10.89 3.406)" fill="#acabb1"/>
        <path id="Trazado_918791" data-name="Trazado 918791" d="M36,15h4.247v5.663H36Z" transform="translate(12.138 3.406)" fill="#898890"/>
        <path id="Trazado_918792" data-name="Trazado 918792" d="M36,31h4.247v5.663H36Z" transform="translate(12.138 10.059)" fill="#898890"/>
        <rect id="Rectángulo_403821" data-name="Rectángulo 403821" width="57" height="17" rx="2" transform="translate(1 47)" fill="#57a4ff"/>
        <path id="Trazado_918793" data-name="Trazado 918793" d="M45.495,37.832V49.158a2.84,2.84,0,0,1-2.832,2.832H37a2.84,2.84,0,0,0,2.832-2.832V37.832A2.84,2.84,0,0,0,37,35h5.663A2.84,2.84,0,0,1,45.495,37.832Z" transform="translate(12.554 11.722)" fill="#2488ff"/>
        <path id="Trazado_918794" data-name="Trazado 918794" d="M15,39h5.663v5.663H15Z" transform="translate(3.406 13.385)" fill="#00b6bd"/>
        <path id="Trazado_918795" data-name="Trazado 918795" d="M15,23h5.663v5.663H15Z" transform="translate(3.406 6.732)" fill="#00b6bd"/>
        <rect id="Rectángulo_403822" data-name="Rectángulo 403822" width="57" height="17" rx="2" transform="translate(1 1)" fill="#57a4ff"/>
        <path id="Trazado_918796" data-name="Trazado 918796" d="M45.495,5.832V17.158a2.84,2.84,0,0,1-2.832,2.832H37a2.84,2.84,0,0,0,2.832-2.832V5.832A2.84,2.84,0,0,0,37,3h5.663a2.84,2.84,0,0,1,2.832,2.832Z" transform="translate(12.554 -1.584)" fill="#2488ff"/>
        <path id="Trazado_918797" data-name="Trazado 918797" d="M15,7h5.663v5.663H15Z" transform="translate(3.406 0.079)" fill="#00b6bd"/>
        <path id="Trazado_918798" data-name="Trazado 918798" d="M7,31h8.495v5.663H7Z" transform="translate(0.079 10.059)" fill="#acabb1"/>
        <path id="Trazado_918799" data-name="Trazado 918799" d="M7,15h8.495v5.663H7Z" transform="translate(0.079 3.406)" fill="#acabb1"/>
        <path id="Trazado_918800" data-name="Trazado 918800" d="M10,15h4.247v5.663H10Z" transform="translate(1.327 3.406)" fill="#898890"/>
        <path id="Trazado_918801" data-name="Trazado 918801" d="M10,31h4.247v5.663H10Z" transform="translate(1.327 10.059)" fill="#898890"/>
        <path id="Trazado_918802" data-name="Trazado 918802" d="M7,39h5.663v5.663H7Z" transform="translate(0.079 13.385)" fill="#ff7956"/>
        <path id="Trazado_918803" data-name="Trazado 918803" d="M7,23h5.663v5.663H7Z" transform="translate(0.079 6.732)" fill="#ff7956"/>
        <path id="Trazado_918804" data-name="Trazado 918804" d="M7,7h5.663v5.663H7Z" transform="translate(0.079 0.079)" fill="#ff7956"/>
        <path id="Trazado_918805" data-name="Trazado 918805" d="M75.97,46V60.158c0,3.908-11.412,7.079-25.485,7.079S25,64.066,25,60.158V46c0,3.908,11.412,7.079,25.485,7.079S75.97,49.908,75.97,46Z" transform="translate(7.564 16.296)" fill="#ffde55"/>
        <path id="Trazado_918806" data-name="Trazado 918806" d="M75.97,36V50.158c0,3.908-11.412,7.079-25.485,7.079S25,54.066,25,50.158V36c0,3.908,11.412,7.079,25.485,7.079S75.97,39.908,75.97,36Z" transform="translate(7.564 12.138)" fill="#ffde55"/>
        <path id="Trazado_918807" data-name="Trazado 918807" d="M75.97,26V40.158c0,3.908-11.412,7.079-25.485,7.079S25,44.066,25,40.158V26c0,3.908,11.412,7.079,25.485,7.079S75.97,29.908,75.97,26Z" transform="translate(7.564 7.98)" fill="#ffde55"/>
        <g id="Grupo_1102655" data-name="Grupo 1102655" transform="translate(32.564 26.901)">
          <ellipse id="Elipse_11564" data-name="Elipse 11564" cx="25.5" cy="7" rx="25.5" ry="7" transform="translate(0.436 0.1)" fill="#ffcd00"/>
          <path id="Trazado_918808" data-name="Trazado 918808" d="M69.316,46V60.158c0,3.908-11.412,7.079-25.485,7.079-.963,0-1.9-.014-2.832-.057C53.742,66.8,63.653,63.8,63.653,60.158V50.446C67.193,49.228,69.316,47.685,69.316,46Z" transform="translate(-18.347 -10.604)" fill="#ffcd00"/>
          <path id="Trazado_918809" data-name="Trazado 918809" d="M69.316,36V50.158c0,1.685-2.124,3.228-5.663,4.446a65.282,65.282,0,0,1-19.821,2.633c-.963,0-1.9-.014-2.832-.057C53.742,56.8,63.653,53.8,63.653,50.158V40.446C67.193,39.228,69.316,37.685,69.316,36Z" transform="translate(-18.347 -14.763)" fill="#ffcd00"/>
          <path id="Trazado_918810" data-name="Trazado 918810" d="M69.316,26V40.158c0,1.685-2.124,3.228-5.663,4.446a65.282,65.282,0,0,1-19.821,2.633c-.963,0-1.9-.014-2.832-.057C53.742,46.8,63.653,43.8,63.653,40.158V30.446C67.193,29.228,69.316,27.685,69.316,26Z" transform="translate(-18.347 -18.921)" fill="#ffcd00"/>
        </g>
        <path id="Trazado_918811" data-name="Trazado 918811" d="M69.316,28.079c0,1.685-2.124,3.228-5.663,4.446a65.282,65.282,0,0,1-19.821,2.633c-.963,0-1.9-.014-2.832-.057,12.742-.382,22.653-3.384,22.653-7.022S53.742,21.439,41,21.057c.934-.042,1.869-.057,2.832-.057C57.9,21,69.316,24.171,69.316,28.079Z" transform="translate(14.217 5.901)" fill="#ebbf00"/>
        <path id="Trazado_918812" data-name="Trazado 918812" d="M63.653,46v4.446a65.282,65.282,0,0,1-19.821,2.633c-.963,0-1.9-.014-2.832-.057C53.742,52.64,63.653,49.639,63.653,46Z" transform="translate(14.217 16.296)" fill="#ffde55"/>
        <path id="Trazado_918813" data-name="Trazado 918813" d="M63.653,36v4.446a65.282,65.282,0,0,1-19.821,2.633c-.963,0-1.9-.014-2.832-.057C53.742,42.64,63.653,39.639,63.653,36Z" transform="translate(14.217 12.138)" fill="#ffde55"/>
        <path id="Trazado_918814" data-name="Trazado 918814" d="M61.21,27.5a4.228,4.228,0,0,0-3.993-2.846H55.8V21.821h1.416a4.26,4.26,0,0,0,4.247-4.247V6.247A4.26,4.26,0,0,0,57.217,2H6.247A4.26,4.26,0,0,0,2,6.247V17.574a4.26,4.26,0,0,0,4.247,4.247H7.663v2.832H6.247A4.26,4.26,0,0,0,2,28.9V40.227a4.26,4.26,0,0,0,4.247,4.247H7.663v2.832H6.247A4.26,4.26,0,0,0,2,51.554V62.88a4.26,4.26,0,0,0,4.247,4.247h26.9V78.454c0,5.578,13.535,8.495,26.9,8.495s26.9-2.917,26.9-8.495V35.98C86.949,30.557,74.193,27.669,61.21,27.5ZM6.247,18.99a1.416,1.416,0,0,1-1.416-1.416V6.247A1.416,1.416,0,0,1,6.247,4.832h50.97a1.416,1.416,0,0,1,1.416,1.416V17.574a1.416,1.416,0,0,1-1.416,1.416ZM52.97,21.821v2.832H47.306V21.821Zm-8.495,0v2.832H18.99V21.821Zm-28.316,0v2.832H10.495V21.821ZM33.148,64.3H6.247A1.416,1.416,0,0,1,4.832,62.88V51.554a1.416,1.416,0,0,1,1.416-1.416h26.9ZM10.495,47.306V44.475h5.663v2.832Zm22.653,0H18.99V44.475H33.148Zm0-11.327v5.663H6.247a1.416,1.416,0,0,1-1.416-1.416V28.9a1.416,1.416,0,0,1,1.416-1.416h50.97a.991.991,0,0,1,.2.042C44.956,27.881,33.148,30.769,33.148,35.98Zm50.97,42.475c0,1.926-8.495,5.663-24.069,5.663S35.98,80.38,35.98,78.454V68.289c4.658,2.959,14.385,4.5,24.069,4.5s19.411-1.543,24.069-4.5Zm0-14.158c0,1.926-8.495,5.663-24.069,5.663S35.98,66.222,35.98,64.3V54.131c4.658,2.959,14.385,4.5,24.069,4.5s19.411-1.543,24.069-4.5Zm0-14.158c0,1.926-8.495,5.663-24.069,5.663S35.98,52.063,35.98,50.138V39.972c4.658,2.959,14.385,4.5,24.069,4.5s19.411-1.543,24.069-4.5ZM60.049,41.643c-15.574,0-24.069-3.738-24.069-5.663s8.495-5.663,24.069-5.663,24.069,3.738,24.069,5.663S75.623,41.643,60.049,41.643Z" transform="translate(-2 -2)"/>
        <path id="Trazado_918815" data-name="Trazado 918815" d="M42,35h2.832v2.832H42Z" transform="translate(14.633 11.722)"/>
        <path id="Trazado_918816" data-name="Trazado 918816" d="M42,46h2.832v2.832H42Z" transform="translate(14.633 16.296)"/>
        <path id="Trazado_918817" data-name="Trazado 918817" d="M42,55h2.832v2.832H42Z" transform="translate(14.633 20.038)"/>
        <path id="Trazado_918818" data-name="Trazado 918818" d="M13.079,22H7.416A1.416,1.416,0,0,0,6,23.416v5.663a1.416,1.416,0,0,0,1.416,1.416h5.663a1.416,1.416,0,0,0,1.416-1.416V23.416A1.416,1.416,0,0,0,13.079,22Zm-1.416,5.663H8.832V24.832h2.832Z" transform="translate(-0.337 6.316)"/>
        <path id="Trazado_918819" data-name="Trazado 918819" d="M21.079,22H15.416A1.416,1.416,0,0,0,14,23.416v5.663a1.416,1.416,0,0,0,1.416,1.416h5.663a1.416,1.416,0,0,0,1.416-1.416V23.416A1.416,1.416,0,0,0,21.079,22Zm-1.416,5.663H16.832V24.832h2.832Z" transform="translate(2.99 6.316)"/>
        <path id="Trazado_918820" data-name="Trazado 918820" d="M13.079,6H7.416A1.416,1.416,0,0,0,6,7.416v5.663a1.416,1.416,0,0,0,1.416,1.416h5.663a1.416,1.416,0,0,0,1.416-1.416V7.416A1.416,1.416,0,0,0,13.079,6Zm-1.416,5.663H8.832V8.832h2.832Z" transform="translate(-0.337 -0.337)"/>
        <path id="Trazado_918821" data-name="Trazado 918821" d="M21.079,6H15.416A1.416,1.416,0,0,0,14,7.416v5.663a1.416,1.416,0,0,0,1.416,1.416h5.663a1.416,1.416,0,0,0,1.416-1.416V7.416A1.416,1.416,0,0,0,21.079,6Zm-1.416,5.663H16.832V8.832h2.832Z" transform="translate(2.99 -0.337)"/>
        <path id="Trazado_918822" data-name="Trazado 918822" d="M22,6H41.821V8.832H22Z" transform="translate(6.316 -0.337)"/>
        <path id="Trazado_918823" data-name="Trazado 918823" d="M38,6h2.832V8.832H38Z" transform="translate(12.97 -0.337)"/>
        <path id="Trazado_918824" data-name="Trazado 918824" d="M22,10H41.821v2.832H22Z" transform="translate(6.316 1.327)"/>
        <path id="Trazado_918825" data-name="Trazado 918825" d="M38,10h2.832v2.832H38Z" transform="translate(12.97 1.327)"/>
        <path id="Trazado_918826" data-name="Trazado 918826" d="M13.079,38H7.416A1.416,1.416,0,0,0,6,39.416v5.663a1.416,1.416,0,0,0,1.416,1.416h5.663a1.416,1.416,0,0,0,1.416-1.416V39.416A1.416,1.416,0,0,0,13.079,38Zm-1.416,5.663H8.832V40.832h2.832Z" transform="translate(-0.337 12.97)"/>
        <path id="Trazado_918827" data-name="Trazado 918827" d="M21.079,38H15.416A1.416,1.416,0,0,0,14,39.416v5.663a1.416,1.416,0,0,0,1.416,1.416h5.663a1.416,1.416,0,0,0,1.416-1.416V39.416A1.416,1.416,0,0,0,21.079,38Zm-1.416,5.663H16.832V40.832h2.832Z" transform="translate(2.99 12.97)"/>
      </g>
    </g>
  </g>
</svg>
