<svg xmlns="http://www.w3.org/2000/svg" xmlns:xlink="http://www.w3.org/1999/xlink" width="85.051" height="85" viewBox="0 0 85.051 85">
  <defs>
    <clipPath id="clip-path">
      <rect id="Rectángulo_404442" data-name="Rectángulo 404442" width="85" height="85" transform="translate(337.051 2393)" fill="#fff" stroke="#707070" stroke-width="1"/>
    </clipPath>
  </defs>
  <g id="img9" transform="translate(-337.051 -2393)">
    <circle id="Elipse_11561" data-name="Elipse 11561" cx="42.5" cy="42.5" r="42.5" transform="translate(337.102 2393)" fill="#b0dcad"/>
    <g id="Enmascarar_grupo_1098769" data-name="Enmascarar grupo 1098769" clip-path="url(#clip-path)">
      <g id="ip" transform="translate(339.375 2393)">
        <path id="Trazado_923682" data-name="Trazado 923682" d="M40.176,44.818A38.516,38.516,0,0,1,78.691,83.339H1.661A38.519,38.519,0,0,1,40.176,44.818Zm0,0" fill="#bdd9ff" fill-rule="evenodd"/>
        <path id="Trazado_923683" data-name="Trazado 923683" d="M36.746,29.553a1.51,1.51,0,0,1-.46,1.107,1.588,1.588,0,0,1-2.715-1.127V18.283a1.586,1.586,0,0,1,.48-1.126,1.514,1.514,0,0,1,1.127-.5,1.482,1.482,0,0,1,1.108.48,1.6,1.6,0,0,1,.46,1.147Zm0,0"/>
        <path id="Trazado_923684" data-name="Trazado 923684" d="M42.509,26.184v3.195A1.58,1.58,0,0,1,39.8,30.5a1.571,1.571,0,0,1-.47-1.156V18.325a1.61,1.61,0,0,1,.48-1.186,1.588,1.588,0,0,1,1.166-.48H44.7a5,5,0,0,1,3.606,1.333A4.588,4.588,0,0,1,49.7,21.46a4.608,4.608,0,0,1-1.313,3.42,4.735,4.735,0,0,1-3.489,1.3Zm0-6.683v3.9h2.018a1.825,1.825,0,0,0,1.333-.568,1.847,1.847,0,0,0,.569-1.353,1.982,1.982,0,0,0-.539-1.4,1.762,1.762,0,0,0-1.343-.578Zm0,0"/>
        <path id="Trazado_923685" data-name="Trazado 923685" d="M33.931,62.464a6.25,6.25,0,0,0,12.488,0c.005-.094.01-.184.01-.278a6.253,6.253,0,0,0-4.094-5.868c-.757.848-1.482,1.661-2.16,2.433-.678-.767-1.4-1.581-2.155-2.433a6.245,6.245,0,0,0-4.094,5.868c0,.094,0,.184,0,.278Zm0,0" fill="#cbe558" fill-rule="evenodd"/>
        <path id="Trazado_923686" data-name="Trazado 923686" d="M31.193,48.46c2.348,2.828,4.72,5.487,6.828,7.859.757.852,1.477,1.666,2.155,2.433.678-.772,1.4-1.586,2.16-2.433,2.108-2.372,4.484-5.03,6.833-7.859.578-.7,1.162-1.407,1.736-2.127,5.873-7.35,11.133-15.594,11.133-22.809a21.862,21.862,0,1,0-43.724,0c0,7.191,5.27,15.444,11.143,22.8q.861,1.08,1.736,2.132Zm8.983-9.981A14.679,14.679,0,1,1,54.857,23.8,14.674,14.674,0,0,1,40.176,38.479Zm0,0" fill="#f46370" fill-rule="evenodd"/>
        <path id="Trazado_923687" data-name="Trazado 923687" d="M72.585,59.585a1.661,1.661,0,1,0-2.678,1.966,36.592,36.592,0,0,1,5.419,10.656c-3.556-3.649-8.833-6.686-15.288-8.749-.171-.536-.348-1.067-.533-1.59a36.036,36.036,0,0,0-8.059-13.552l.049-.061a36.708,36.708,0,0,1,10,5.018,1.661,1.661,0,1,0,1.923-2.709,40.028,40.028,0,0,0-9.736-5.075C59.152,38.374,63.7,30.629,63.7,23.524a23.523,23.523,0,1,0-47.046,0c0,5.054,2.312,10.9,7.067,17.873.941,1.379,1.94,2.745,2.968,4.087a40.524,40.524,0,0,0-18.47,13.5A39.819,39.819,0,0,0,0,83.339,1.661,1.661,0,0,0,1.661,85H78.69a1.661,1.661,0,0,0,1.661-1.661,39.86,39.86,0,0,0-7.766-23.754ZM56.146,62.369a64.817,64.817,0,0,0-8.154-1.416,7.956,7.956,0,0,0-3.047-5.074c1.412-1.588,2.888-3.263,4.366-5a32.5,32.5,0,0,1,6.835,11.492ZM19.975,23.524a20.2,20.2,0,1,1,40.4,0c0,10.038-11.476,22.922-19.07,31.448q-.581.652-1.13,1.27l-1.091-1.226c-7.61-8.55-19.111-21.472-19.111-31.492ZM35.408,55.88a7.954,7.954,0,0,0-3.045,5.073A64.656,64.656,0,0,0,24.2,62.37a32.489,32.489,0,0,1,6.842-11.5c1.493,1.762,2.97,3.442,4.362,5.01Zm-18.024,25.8H3.461c.969-5.808,6.96-11.04,15.755-14.31a67.4,67.4,0,0,0-1.832,14.31Zm-12.3-9.529a37.045,37.045,0,0,1,23.793-23.9l.042.052a36.006,36.006,0,0,0-8.069,13.56c-.186.524-.363,1.057-.535,1.595-6.42,2.052-11.676,5.067-15.231,8.69Zm33.433,9.529H20.706a63.129,63.129,0,0,1,2.273-15.54,59.62,59.62,0,0,1,9.562-1.863,7.9,7.9,0,0,0,5.974,5.649V81.678Zm2.13-14.927a4.589,4.589,0,0,1-3.02-8.379q.676.761,1.3,1.475a1.661,1.661,0,0,0,2.5,0c.417-.475.854-.969,1.3-1.476a4.588,4.588,0,0,1-2.075,8.379h-.01c-.067.006,0,0,0,0-.242.025,0,0,0,0Zm1.193,14.927V69.924a7.893,7.893,0,0,0,5.893-5.377c.007-.022.013-.045.019-.067.021-.068.042-.136.06-.206a59.593,59.593,0,0,1,9.562,1.862,63.113,63.113,0,0,1,2.274,15.541Zm21.13,0a67.414,67.414,0,0,0-1.833-14.311c8.795,3.271,14.787,8.5,15.756,14.311Zm0,0"/>
        <path id="Trazado_923688" data-name="Trazado 923688" d="M40.176,40.14A16.341,16.341,0,1,1,56.518,23.8,16.356,16.356,0,0,1,40.176,40.14Zm0-29.36A13.019,13.019,0,1,0,53.2,23.8a13.033,13.033,0,0,0-13.02-13.021Zm0,0"/>
        <path id="Trazado_923689" data-name="Trazado 923689" d="M67.408,57.768a1.658,1.658,0,0,1-1.3-.624l-.019-.023a1.661,1.661,0,0,1,2.595-2.076l.019.024a1.662,1.662,0,0,1-1.3,2.7Zm0,0"/>
      </g>
    </g>
  </g>
</svg>
