<svg xmlns="http://www.w3.org/2000/svg" xmlns:xlink="http://www.w3.org/1999/xlink" width="190" height="115" viewBox="0 0 190 115">
  <defs>
    <clipPath id="clip-path">
      <rect id="Rectángulo_401573" data-name="Rectángulo 401573" width="28.836" height="111" fill="none"/>
    </clipPath>
    <clipPath id="clip-path-2">
      <rect id="Rectángulo_401572" data-name="Rectángulo 401572" width="72.283" height="262.133" fill="none"/>
    </clipPath>
    <clipPath id="clip-path-3">
      <rect id="Rectángulo_403255" data-name="Rectángulo 403255" width="71" height="71" transform="translate(254.051 423)" fill="#fff" stroke="#707070" stroke-width="1"/>
    </clipPath>
    <clipPath id="clip-path-4">
      <path id="path7739" d="M0-71H71V0H0Z"/>
    </clipPath>
  </defs>
  <g id="img1" transform="translate(-180.051 -401)">
    <g id="Grupo_1101503" data-name="Grupo 1101503" transform="translate(180.051 401.333)">
      <g id="Grupo_1099687" data-name="Grupo 1099687" clip-path="url(#clip-path)">
        <g id="Grupo_1099686" data-name="Grupo 1099686" transform="translate(-6.669 -55.037)" opacity="0.45" style="mix-blend-mode: multiply;isolation: isolate">
          <g id="Grupo_1099685" data-name="Grupo 1099685">
            <g id="Grupo_1099684" data-name="Grupo 1099684" clip-path="url(#clip-path-2)">
              <path id="Trazado_873516" data-name="Trazado 873516" d="M-.222,17.8,89.855-5.386,88.78.455-1.3,23.64Z" transform="matrix(0.898, -0.44, 0.44, 0.898, -7.635, 207.677)" fill="#2d0464"/>
              <path id="Trazado_873517" data-name="Trazado 873517" d="M-.222,17.8,89.855-5.386,88.78.455-1.3,23.64Z" transform="matrix(0.898, -0.44, 0.44, 0.898, -7.635, 191.348)" fill="#2d0464"/>
              <path id="Trazado_873518" data-name="Trazado 873518" d="M-.222,17.8,89.855-5.386,88.78.455-1.3,23.64Z" transform="matrix(0.898, -0.44, 0.44, 0.898, -7.635, 175.019)" fill="#2d0464"/>
              <path id="Trazado_873519" data-name="Trazado 873519" d="M-.222,17.8,89.855-5.386,88.78.455-1.3,23.64Z" transform="matrix(0.898, -0.44, 0.44, 0.898, -7.635, 158.69)" fill="#2d0464"/>
              <path id="Trazado_873520" data-name="Trazado 873520" d="M-.222,17.8,89.855-5.386,88.78.455-1.3,23.64Z" transform="matrix(0.898, -0.44, 0.44, 0.898, -7.635, 142.36)" fill="#2d0464"/>
              <path id="Trazado_873521" data-name="Trazado 873521" d="M-.222,17.8,89.855-5.386,88.78.455-1.3,23.64Z" transform="matrix(0.898, -0.44, 0.44, 0.898, -7.635, 126.031)" fill="#2d0464"/>
              <path id="Trazado_873522" data-name="Trazado 873522" d="M-.222,17.8,89.855-5.386,88.78.455-1.3,23.64Z" transform="matrix(0.898, -0.44, 0.44, 0.898, -7.635, 109.702)" fill="#2d0464"/>
              <path id="Trazado_873523" data-name="Trazado 873523" d="M-.222,17.8,89.855-5.386,88.78.455-1.3,23.64Z" transform="matrix(0.898, -0.44, 0.44, 0.898, -7.635, 93.373)" fill="#2d0464"/>
              <path id="Trazado_873524" data-name="Trazado 873524" d="M-.222,17.8,89.855-5.386,88.78.455-1.3,23.64Z" transform="matrix(0.898, -0.44, 0.44, 0.898, -7.635, 77.044)" fill="#2d0464"/>
              <path id="Trazado_873525" data-name="Trazado 873525" d="M-.222,17.8,89.855-5.386,88.78.455-1.3,23.64Z" transform="matrix(0.898, -0.44, 0.44, 0.898, -7.635, 60.715)" fill="#2d0464"/>
              <path id="Trazado_873526" data-name="Trazado 873526" d="M-.222,17.8,89.855-5.386,88.78.455-1.3,23.64Z" transform="translate(-7.635 44.385) rotate(-26.114)" fill="#2d0464"/>
            </g>
          </g>
        </g>
      </g>
      <rect id="Rectángulo_401574" data-name="Rectángulo 401574" width="161" height="115" transform="translate(29 -0.333)" fill="#efe8f7"/>
    </g>
    <g id="Enmascarar_grupo_1098775" data-name="Enmascarar grupo 1098775" clip-path="url(#clip-path-3)">
      <g id="g7725" transform="translate(254.051 494)">
        <g id="g7727" transform="translate(35.5 -49.167)">
          <path id="path7729" d="M0,0V11.612" fill="none" stroke="#000" stroke-miterlimit="10" stroke-width="2.08"/>
        </g>
        <g id="g7731" transform="translate(15.531 -52.331)">
          <path id="path7733" d="M0,0H39.938" fill="none" stroke="#000" stroke-miterlimit="10" stroke-width="2.08"/>
        </g>
        <g id="g7735">
          <g id="g7737" clip-path="url(#clip-path-4)">
            <g id="g7743" transform="translate(11.317 -39.129)">
              <path id="path7745" d="M0,0V29.046a3.467,3.467,0,0,0,3.467,3.467H44.9a3.467,3.467,0,0,0,3.467-3.467V0" fill="none" stroke="#000" stroke-miterlimit="10" stroke-width="2.08"/>
            </g>
            <path id="path7747" d="M33.212-28.223h4.576v10.211H33.212Z" fill="#596c76"/>
            <path id="path7749" d="M33.212-18.012h2.149V-28.223H33.212Z" fill="#465a61"/>
            <path id="path7751" d="M33.212-28.223h4.576v10.211H33.212Z" fill="none" stroke="#000" stroke-miterlimit="10" stroke-width="2.08"/>
            <g id="g7753" transform="translate(45.084 -24.51)">
              <path id="path7755" d="M0,0H-19.168a.693.693,0,0,1-.693-.693V-13.761a.693.693,0,0,1,.693-.693H0a.693.693,0,0,1,.693.693V-.693A.693.693,0,0,1,0,0" fill="#00c27a"/>
            </g>
            <g id="g7757" transform="translate(31.617 -25.203)">
              <path id="path7759" d="M0,0V-13.068a.693.693,0,0,1,.693-.693H-5.7a.693.693,0,0,0-.693.693V0A.693.693,0,0,0-5.7.693H.693A.693.693,0,0,1,0,0" fill="#09a755"/>
            </g>
            <g id="g7761" transform="translate(45.777 -34.807)">
              <path id="path7763" d="M0,0V-3.464a.693.693,0,0,0-.693-.693H-19.861a.693.693,0,0,0-.693.693V9.6a.693.693,0,0,0,.693.693H-.693A.693.693,0,0,0,0,9.6V4.854" fill="none" stroke="#000" stroke-linecap="round" stroke-miterlimit="10" stroke-width="2.08"/>
            </g>
            <g id="g7765" transform="translate(35.5 -17.818)">
              <path id="path7767" d="M0,0V11.612" fill="none" stroke="#000" stroke-miterlimit="10" stroke-width="2.08"/>
            </g>
            <g id="g7769" transform="translate(41.901 -16.743)">
              <path id="path7771" d="M0,0H-12.8A.693.693,0,0,1-13.5-.693v-2.08a.693.693,0,0,1,.693-.693H0a.693.693,0,0,1,.693.693v2.08A.693.693,0,0,1,0,0" fill="#8d9ca8"/>
            </g>
            <g id="g7773" transform="translate(32.682 -17.436)">
              <path id="path7775" d="M0,0V-2.08a.693.693,0,0,1,.693-.693H-3.583a.693.693,0,0,0-.693.693V0a.693.693,0,0,0,.693.693H.693A.693.693,0,0,1,0,0" fill="#7a8d98"/>
            </g>
            <g id="g7777" transform="translate(41.901 -16.743)">
              <path id="path7779" d="M0,0H-12.8A.693.693,0,0,1-13.5-.693v-2.08a.693.693,0,0,1,.693-.693H0a.693.693,0,0,1,.693.693v2.08A.693.693,0,0,1,0,0Z" fill="none" stroke="#000" stroke-miterlimit="10" stroke-width="2.08"/>
            </g>
            <g id="g7781" transform="translate(38.343 -6.656)">
              <path id="path7783" d="M0,0A2.843,2.843,0,0,1-2.843,2.843,2.843,2.843,0,0,1-5.686,0,2.843,2.843,0,0,1-2.843-2.843,2.843,2.843,0,0,1,0,0" fill="#00c27a"/>
            </g>
            <g id="g7785" transform="translate(34.807 -6.656)">
              <path id="path7787" d="M0,0A2.842,2.842,0,0,1,1.768-2.631,2.833,2.833,0,0,0,.693-2.843,2.843,2.843,0,0,0-2.149,0,2.843,2.843,0,0,0,.693,2.843a2.833,2.833,0,0,0,1.075-.212A2.842,2.842,0,0,1,0,0" fill="#09a755"/>
            </g>
            <g id="g7789" transform="translate(38.343 -6.656)">
              <path id="path7791" d="M0,0A2.843,2.843,0,0,1-2.843,2.843,2.843,2.843,0,0,1-5.686,0,2.843,2.843,0,0,1-2.843-2.843,2.843,2.843,0,0,1,0,0Z" fill="none" stroke="#000" stroke-miterlimit="10" stroke-width="2.08"/>
            </g>
            <path id="path7793" d="M57.395-48.645h4.576v10.211H57.395Z" fill="#596c76"/>
            <path id="path7795" d="M57.395-38.434h2.1V-48.645h-2.1Z" fill="#465a61"/>
            <path id="path7797" d="M57.395-48.645h4.576v10.211H57.395Z" fill="none" stroke="#000" stroke-miterlimit="10" stroke-width="2.08"/>
            <g id="g7799" transform="translate(69.267 -44.932)">
              <path id="path7801" d="M0,0H-19.168a.693.693,0,0,1-.693-.693V-13.761a.693.693,0,0,1,.693-.693H0a.693.693,0,0,1,.693.693V-.693A.693.693,0,0,1,0,0" fill="#01d0fb"/>
            </g>
            <g id="g7803" transform="translate(55.854 -45.625)">
              <path id="path7805" d="M0,0V-13.067a.693.693,0,0,1,.693-.693H-5.755a.693.693,0,0,0-.693.693V0a.693.693,0,0,0,.693.693H.693A.693.693,0,0,1,0,0" fill="#01c1fa"/>
            </g>
            <g id="g7807" transform="translate(60.877 -59.386)">
              <path id="path7809" d="M0,0H-10.778a.693.693,0,0,0-.693.693V13.761a.693.693,0,0,0,.693.693H8.39a.693.693,0,0,0,.693-.693V.693A.693.693,0,0,0,8.39,0H4.854" fill="none" stroke="#000" stroke-linecap="round" stroke-linejoin="round" stroke-miterlimit="10" stroke-width="2.08"/>
            </g>
            <g id="g7811" transform="translate(62.526 -27.596)">
              <path id="path7813" d="M0,0A2.843,2.843,0,0,1-2.843,2.843,2.843,2.843,0,0,1-5.686,0,2.843,2.843,0,0,1-2.843-2.843,2.843,2.843,0,0,1,0,0" fill="#01d0fb"/>
            </g>
            <g id="g7815" transform="translate(58.936 -27.596)">
              <path id="path7817" d="M0,0A2.842,2.842,0,0,1,1.795-2.641a2.829,2.829,0,0,0-1.048-.2A2.843,2.843,0,0,0-2.1,0,2.843,2.843,0,0,0,.747,2.843a2.829,2.829,0,0,0,1.048-.2A2.842,2.842,0,0,1,0,0" fill="#01c1fa"/>
            </g>
            <g id="g7819" transform="translate(62.526 -27.596)">
              <path id="path7821" d="M0,0A2.843,2.843,0,0,1-2.843,2.843,2.843,2.843,0,0,1-5.686,0,2.843,2.843,0,0,1-2.843-2.843,2.843,2.843,0,0,1,0,0Z" fill="none" stroke="#000" stroke-miterlimit="10" stroke-width="2.08"/>
            </g>
            <g id="g7823" transform="translate(66.084 -37.165)">
              <path id="path7825" d="M0,0H-12.8A.693.693,0,0,1-13.5-.693v-2.08a.693.693,0,0,1,.693-.693H0a.693.693,0,0,1,.693.693v2.08A.693.693,0,0,1,0,0" fill="#8d9ca8"/>
            </g>
            <g id="g7827" transform="translate(56.855 -37.858)">
              <path id="path7829" d="M0,0V-2.08a.693.693,0,0,1,.693-.693H-3.574a.693.693,0,0,0-.693.693V0a.693.693,0,0,0,.693.693H.693A.693.693,0,0,1,0,0" fill="#7a8d98"/>
            </g>
            <g id="g7831" transform="translate(66.084 -37.165)">
              <path id="path7833" d="M0,0H-12.8A.693.693,0,0,1-13.5-.693v-2.08a.693.693,0,0,1,.693-.693H0a.693.693,0,0,1,.693.693v2.08A.693.693,0,0,1,0,0Z" fill="none" stroke="#000" stroke-miterlimit="10" stroke-width="2.08"/>
            </g>
            <path id="path7835" d="M9.029-48.645h4.576v10.211H9.029Z" fill="#596c76"/>
            <path id="path7837" d="M9.029-38.434h2.2V-48.645h-2.2Z" fill="#465a61"/>
            <path id="path7839" d="M9.029-48.645h4.576v10.211H9.029Z" fill="none" stroke="#000" stroke-miterlimit="10" stroke-width="2.08"/>
            <g id="g7841" transform="translate(20.901 -44.932)">
              <path id="path7843" d="M0,0H-19.168a.693.693,0,0,1-.693-.693V-13.761a.693.693,0,0,1,.693-.693H0a.693.693,0,0,1,.693.693V-.693A.693.693,0,0,1,0,0" fill="#fac600"/>
            </g>
            <g id="g7845" transform="translate(7.457 -45.625)">
              <path id="path7847" d="M0,0V-13.067a.693.693,0,0,1,.693-.693H-5.724a.693.693,0,0,0-.693.693V0a.693.693,0,0,0,.693.693H.693A.693.693,0,0,1,0,0" fill="#e8b801"/>
            </g>
            <g id="g7849" transform="translate(12.48 -59.386)">
              <path id="path7851" d="M0,0H-10.747a.693.693,0,0,0-.693.693V13.761a.693.693,0,0,0,.693.693H8.42a.693.693,0,0,0,.693-.693V.693A.693.693,0,0,0,8.42,0H4.854" fill="none" stroke="#000" stroke-linecap="round" stroke-linejoin="round" stroke-miterlimit="10" stroke-width="2.08"/>
            </g>
            <g id="g7853" transform="translate(14.16 -27.596)">
              <path id="path7855" d="M0,0A2.843,2.843,0,0,1-2.843,2.843,2.843,2.843,0,0,1-5.686,0,2.843,2.843,0,0,1-2.843-2.843,2.843,2.843,0,0,1,0,0" fill="#fac600"/>
            </g>
            <g id="g7857" transform="translate(10.678 -27.596)">
              <path id="path7859" d="M0,0A2.843,2.843,0,0,1,1.741-2.621a2.835,2.835,0,0,0-1.1-.222A2.843,2.843,0,0,0-2.2,0,2.843,2.843,0,0,0,.639,2.843a2.835,2.835,0,0,0,1.1-.222A2.843,2.843,0,0,1,0,0" fill="#e8b801"/>
            </g>
            <g id="g7861" transform="translate(14.16 -27.596)">
              <path id="path7863" d="M0,0A2.843,2.843,0,0,1-2.843,2.843,2.843,2.843,0,0,1-5.686,0,2.843,2.843,0,0,1-2.843-2.843,2.843,2.843,0,0,1,0,0Z" fill="none" stroke="#000" stroke-miterlimit="10" stroke-width="2.08"/>
            </g>
            <g id="g7865" transform="translate(17.718 -37.165)">
              <path id="path7867" d="M0,0H-12.8A.693.693,0,0,1-13.5-.693v-2.08a.693.693,0,0,1,.693-.693H0a.693.693,0,0,1,.693.693v2.08A.693.693,0,0,1,0,0" fill="#8d9ca8"/>
            </g>
            <g id="g7869" transform="translate(8.459 -37.858)">
              <path id="path7871" d="M0,0V-2.08a.693.693,0,0,1,.693-.693H-3.543a.693.693,0,0,0-.693.693V0a.693.693,0,0,0,.693.693H.693A.693.693,0,0,1,0,0" fill="#7a8d98"/>
            </g>
            <g id="g7873" transform="translate(17.718 -37.165)">
              <path id="path7875" d="M0,0H-12.8A.693.693,0,0,1-13.5-.693v-2.08a.693.693,0,0,1,.693-.693H0a.693.693,0,0,1,.693.693v2.08A.693.693,0,0,1,0,0Z" fill="none" stroke="#000" stroke-miterlimit="10" stroke-width="2.08"/>
            </g>
            <g id="g7877" transform="translate(41.463 -49.558)">
              <path id="path7879" d="M0,0H-11.926a.693.693,0,0,1-.693-.693v-4.16a.693.693,0,0,1,.693-.693H0a.693.693,0,0,1,.693.693v4.16A.693.693,0,0,1,0,0" fill="#596c76"/>
            </g>
            <g id="g7881" transform="translate(33.004 -50.251)">
              <path id="path7883" d="M0,0V-4.16a.693.693,0,0,1,.693-.693h-4.16a.693.693,0,0,0-.693.693V0a.693.693,0,0,0,.693.693H.693A.693.693,0,0,1,0,0" fill="#465a61"/>
            </g>
            <g id="g7885" transform="translate(41.463 -49.558)">
              <path id="path7887" d="M0,0H-11.926a.693.693,0,0,1-.693-.693v-4.16a.693.693,0,0,1,.693-.693H0a.693.693,0,0,1,.693.693v4.16A.693.693,0,0,1,0,0Z" fill="none" stroke="#000" stroke-linecap="round" stroke-linejoin="round" stroke-miterlimit="10" stroke-width="2.08"/>
            </g>
            <g id="g7889" transform="translate(42.282 -64.382)">
              <path id="path7891" d="M0,0A9.6,9.6,0,0,0-13.565,0" fill="none" stroke="#000" stroke-linecap="round" stroke-linejoin="round" stroke-miterlimit="10" stroke-width="2.08"/>
            </g>
            <g id="g7893" transform="translate(39.022 -61.676)">
              <path id="path7895" d="M0,0A4.98,4.98,0,0,0-7.043,0" fill="none" stroke="#000" stroke-linecap="round" stroke-linejoin="round" stroke-miterlimit="10" stroke-width="2.08"/>
            </g>
            <g id="g7897" transform="translate(34.765 -58.084)">
              <path id="path7899" d="M0,0A1.04,1.04,0,0,1,0-1.471a1.04,1.04,0,0,1,1.471,0A1.04,1.04,0,0,1,1.471,0,1.04,1.04,0,0,1,0,0"/>
            </g>
          </g>
        </g>
      </g>
    </g>
  </g>
</svg>
