<svg xmlns="http://www.w3.org/2000/svg" xmlns:xlink="http://www.w3.org/1999/xlink" width="295" height="235" viewBox="0 0 295 235">
  <defs>
    <clipPath id="clip-path">
      <rect id="Rectángulo_405170" data-name="Rectángulo 405170" width="223.352" height="215.431" fill="none"/>
    </clipPath>
  </defs>
  <g id="img20" transform="translate(-600.051 -5629)">
    <rect id="Rectángulo_403250" data-name="Rectángulo 403250" width="295" height="235" rx="10" transform="translate(600.051 5629)" fill="#e0d4f0"/>
    <g id="Grupo_1104045" data-name="Grupo 1104045" transform="translate(635.875 5644)">
      <g id="Grupo_1104045-2" data-name="Grupo 1104045" transform="translate(0 0)" clip-path="url(#clip-path)">
        <path id="Trazado_925038" data-name="Trazado 925038" d="M160.407,184.693c4.051-.956,7.515-2.235,11.709-2.317,3.98-.076,7.729-2.762,10.791-4.936,4.395-3.118,8.865-6,13.4-8.947,2.472-1.607,4.423-3.715,6.915-5.3a17.431,17.431,0,0,0,4.437-3.656,47.136,47.136,0,0,0,4.048-5.246c.879-1.443,1.412-3.025,2.311-4.465,2.3-3.687,3.016-7.278,4.606-11.2,1.3-3.2,1.333-6.359,1.336-9.728,0-2.142.395-4.927-.66-6.892-.538-1-1.657-1.562-2.244-2.509a44.3,44.3,0,0,1-2.875-6.858c-1.13-2.861-2.413-5.674-3.71-8.471-1.409-3.047-1.3-5.294-1.353-8.6-.059-3.473,1.505-6.2,2.723-9.415a70.748,70.748,0,0,1,4.753-9.311c3.118-5.624,6.85-12.409,6.76-18.92a34.627,34.627,0,0,0-1.184-8.138c-.71-2.915-2.506-4.693-4.392-7.016a28.713,28.713,0,0,0-5.858-5.373c-1.965-1.336-3.9-3.171-6-4.251A25.5,25.5,0,0,1,203,31.939a17.834,17.834,0,0,0-2-1.469c-1.835-.958-3.805-1.641-5.612-2.534a19.019,19.019,0,0,1-3.47-2.554c-2.847-2.241-6.8-3.182-10.244-4.327-3.529-1.17-7.529-1.514-10.841-3.174-2.475-1.24-4.527-2.275-6.224-4.465-1.393-1.8-2.357-3.924-3.687-5.759-1.573-2.168-4.552-3.422-7.092-4.327-4.079-1.452-8.764-1.677-13.029-2.2C137.8.768,134.981.8,131.959.689c-2.977-.116-5.81-.713-8.815-.688-5.672.045-11.242.49-16.879.637-5.8.149-11.741,1.748-17.432,2.712a71.325,71.325,0,0,0-9,2.421c-2.61.809-5.356,1.094-7.913,2.007-2.272.812-4.476,1.782-6.748,2.585a34.208,34.208,0,0,0-5,1.931c-2.833,1.581-5.553,2.4-8.445,3.873-1.762.9-3.3,2.1-5.08,2.994a65.686,65.686,0,0,0-6.543,4.051,35.225,35.225,0,0,0-2.884,2.667,16.076,16.076,0,0,0-1.672,1.285,8.319,8.319,0,0,1-1.376,1.469c-.465.33-1.029.5-1.5.84a.186.186,0,0,1-.031-.172c-3.163,1.432-6.086,5.153-8.155,7.656-1.4,1.7-2.638,3.5-4,5.229-1.257,1.6-1.711,3.552-2.686,5.294-2.326,4.144-1.748,9.494-4.693,13.33-.961,1.254-2.455,2.041-3.428,3.3C3.879,71.637,2.373,83.169,4.736,91.89c.758,2.8,1.674,5.573,2.54,8.33a6.41,6.41,0,0,1,.581,3.4A21.136,21.136,0,0,1,6.568,107.7C2.836,116.741-.025,125.92.014,135.664c.025,5.429-.378,10.59,1.81,15.769,2.007,4.747,5.133,8.166,8.908,11.845,2.813,2.743,5.257,3.481,8.984,4.817,1.939.7,4.423,1.308,5.384,3.168,1.012,1.951.121,4.586.3,6.7.268,3.137.973,7.171,2.545,9.99a21.94,21.94,0,0,0,2.543,3.8c1.294,1.466,2.638,1.66,4.555,2.255,4.538,1.4,8.693,1.15,13.491,1.15,3.422,0,7.039-.341,10.258.476,3.1.786,5.519,2.433,8.53,3.281,4.975,1.4,9.931,1.46,15.081,1.494a90.215,90.215,0,0,0,18.8-1.965c3.067-.637,6.1-1.415,9.077-2.34a4.585,4.585,0,0,0,2.633-1.655,3.972,3.972,0,0,1,2.729-1.254c2.548-.164,4.829-.668,7.45-.651,4.087.025,8.169.144,12.175-.755,3.2-.719,5.965-2.4,9.212-3.039a24.779,24.779,0,0,0,3.811-1.111c3.907-1.409,8.056-1.987,12.115-2.943" transform="translate(0 0.002)" fill="#c3aae2"/>
        <path id="Trazado_925039" data-name="Trazado 925039" d="M104.37,195.314H25.346V19.251a8.588,8.588,0,0,1,8.589-8.589H95.781a8.59,8.59,0,0,1,8.589,8.589Z" transform="translate(46.101 19.393)" fill="#67a9da"/>
        <rect id="Rectángulo_405146" data-name="Rectángulo 405146" width="73.922" height="90.44" transform="translate(73.995 124.269)" fill="#016fc2"/>
        <path id="Trazado_925040" data-name="Trazado 925040" d="M100.377,43.971H26.456a.324.324,0,0,0-.319.319v90.44a.324.324,0,0,0,.319.319h73.922a.324.324,0,0,0,.319-.319V44.29a.319.319,0,0,0-.637,0v89.157c0,.228-.124.908,0,1.105.144.231.347-.031.172-.141-.217-.138-.961,0-1.212,0H31.67c-1.5,0-3.081-.138-4.578,0-.1.008-.372-.056-.457,0-.031.02-.1-.014-.135,0-.18.062.316.2.273.319.062-.161-.017-.412,0-.578a37.76,37.76,0,0,0,0-3.994V45.49a3.226,3.226,0,0,0,0-1.054c-.118-.214-.369.023-.138.172.209.138.984,0,1.226,0h72.515a.319.319,0,0,0,0-.637" transform="translate(47.539 79.977)" fill="#6caee3"/>
        <path id="Trazado_925041" data-name="Trazado 925041" d="M100.172,103.229H26.25V17.424A5.858,5.858,0,0,1,32.1,11.566H94.317a5.857,5.857,0,0,1,5.855,5.858Z" transform="translate(47.745 21.038)" fill="#016fc2"/>
        <path id="Trazado_925042" data-name="Trazado 925042" d="M100.377,103.158H27.383a2.807,2.807,0,0,0-.882,0c.617-.276.034.671.273-.006.313-.877,0-2.444,0-3.363v-80.9c0-1.886.166-3.679,1.621-5.133,1.576-1.576,3.493-1.621,5.511-1.621H89.973c1.407,0,2.813-.014,4.22,0a5.672,5.672,0,0,1,5.866,5.632c.1,2.881,0,5.781,0,8.662v77.048a.319.319,0,0,0,.637,0V23.618c0-1.945.048-3.9,0-5.838a6.2,6.2,0,0,0-1.508-4.059,7.224,7.224,0,0,0-5.494-2.227H36.685c-2.331,0-5.263-.395-7.371.775-2.957,1.641-3.177,4.547-3.177,7.478v83.728a.324.324,0,0,0,.319.319h73.922a.319.319,0,0,0,0-.637" transform="translate(47.539 20.791)" fill="#6caee3"/>
        <rect id="Rectángulo_405147" data-name="Rectángulo 405147" width="67.058" height="84.557" transform="translate(77.428 127.209)" fill="#0138c2"/>
        <path id="Trazado_925043" data-name="Trazado 925043" d="M48.511,49.2h-6.2c-.347,0-.631-.116-.631-.254V47.5c0-.138.285-.254.631-.254h6.2c.347,0,.629.116.629.254v1.446c0,.138-.282.254-.629.254" transform="translate(75.801 85.931)" fill="#001c31"/>
        <path id="Trazado_925044" data-name="Trazado 925044" d="M44.886,49.2h-6.2c-.347,0-.631-.116-.631-.254V47.5c0-.138.285-.254.631-.254h6.2c.347,0,.629.116.629.254v1.446c0,.138-.282.254-.629.254" transform="translate(69.207 85.931)" fill="#001c31"/>
        <path id="Trazado_925045" data-name="Trazado 925045" d="M41.262,49.2h-6.2c-.347,0-.631-.116-.631-.254V47.5c0-.138.285-.254.631-.254h6.2c.347,0,.629.116.629.254v1.446c0,.138-.282.254-.629.254" transform="translate(62.616 85.931)" fill="#016fc2"/>
        <path id="Trazado_925046" data-name="Trazado 925046" d="M37.638,49.2h-6.2c-.347,0-.631-.116-.631-.254V47.5c0-.138.285-.254.631-.254h6.2c.347,0,.629.116.629.254v1.446c0,.138-.282.254-.629.254" transform="translate(56.024 85.931)" fill="#a1cdf0"/>
        <path id="Trazado_925047" data-name="Trazado 925047" d="M52.135,49.2h-6.2c-.347,0-.631-.116-.631-.254V47.5c0-.138.285-.254.631-.254h6.2c.347,0,.629.116.629.254v1.446c0,.138-.282.254-.629.254" transform="translate(82.392 85.931)" fill="#f9d275"/>
        <path id="Trazado_925048" data-name="Trazado 925048" d="M48.511,50.16h-6.2c-.347,0-.631-.116-.631-.254V48.461c0-.138.285-.254.631-.254h6.2c.347,0,.629.116.629.254v1.446c0,.138-.282.254-.629.254" transform="translate(75.801 87.682)" fill="#a1cdf0"/>
        <path id="Trazado_925049" data-name="Trazado 925049" d="M44.886,50.16h-6.2c-.347,0-.631-.116-.631-.254V48.461c0-.138.285-.254.631-.254h6.2c.347,0,.629.116.629.254v1.446c0,.138-.282.254-.629.254" transform="translate(69.207 87.682)" fill="#a1cdf0"/>
        <path id="Trazado_925050" data-name="Trazado 925050" d="M41.262,50.16h-6.2c-.347,0-.631-.116-.631-.254V48.461c0-.138.285-.254.631-.254h6.2c.347,0,.629.116.629.254v1.446c0,.138-.282.254-.629.254" transform="translate(62.616 87.682)" fill="#d92c09"/>
        <path id="Trazado_925051" data-name="Trazado 925051" d="M37.638,50.16h-6.2c-.347,0-.631-.116-.631-.254V48.461c0-.138.285-.254.631-.254h6.2c.347,0,.629.116.629.254v1.446c0,.138-.282.254-.629.254" transform="translate(56.024 87.682)" fill="#001c31"/>
        <path id="Trazado_925052" data-name="Trazado 925052" d="M52.135,50.16h-6.2c-.347,0-.631-.116-.631-.254V48.461c0-.138.285-.254.631-.254h6.2c.347,0,.629.116.629.254v1.446c0,.138-.282.254-.629.254" transform="translate(82.392 87.682)" fill="#001c31"/>
        <path id="Trazado_925053" data-name="Trazado 925053" d="M48.511,51.123h-6.2c-.347,0-.631-.116-.631-.254V49.424c0-.138.285-.254.631-.254h6.2c.347,0,.629.116.629.254V50.87c0,.138-.282.254-.629.254" transform="translate(75.801 89.434)" fill="#2acc98"/>
        <path id="Trazado_925054" data-name="Trazado 925054" d="M44.886,51.123h-6.2c-.347,0-.631-.116-.631-.254V49.424c0-.138.285-.254.631-.254h6.2c.347,0,.629.116.629.254V50.87c0,.138-.282.254-.629.254" transform="translate(69.207 89.434)" fill="#001c31"/>
        <path id="Trazado_925055" data-name="Trazado 925055" d="M41.262,51.123h-6.2c-.347,0-.631-.116-.631-.254V49.424c0-.138.285-.254.631-.254h6.2c.347,0,.629.116.629.254V50.87c0,.138-.282.254-.629.254" transform="translate(62.616 89.434)" fill="#a1cdf0"/>
        <path id="Trazado_925056" data-name="Trazado 925056" d="M37.638,51.123h-6.2c-.347,0-.631-.116-.631-.254V49.424c0-.138.285-.254.631-.254h6.2c.347,0,.629.116.629.254V50.87c0,.138-.282.254-.629.254" transform="translate(56.024 89.434)" fill="#001c31"/>
        <path id="Trazado_925057" data-name="Trazado 925057" d="M52.135,51.123h-6.2c-.347,0-.631-.116-.631-.254V49.424c0-.138.285-.254.631-.254h6.2c.347,0,.629.116.629.254V50.87c0,.138-.282.254-.629.254" transform="translate(82.392 89.434)" fill="#a1cdf0"/>
        <path id="Trazado_925058" data-name="Trazado 925058" d="M48.511,52.086h-6.2c-.347,0-.631-.116-.631-.254V50.387c0-.138.285-.254.631-.254h6.2c.347,0,.629.116.629.254v1.446c0,.138-.282.254-.629.254" transform="translate(75.801 91.185)" fill="#a1cdf0"/>
        <path id="Trazado_925059" data-name="Trazado 925059" d="M44.886,52.086h-6.2c-.347,0-.631-.116-.631-.254V50.387c0-.138.285-.254.631-.254h6.2c.347,0,.629.116.629.254v1.446c0,.138-.282.254-.629.254" transform="translate(69.207 91.185)" fill="#a1cdf0"/>
        <path id="Trazado_925060" data-name="Trazado 925060" d="M41.262,52.086h-6.2c-.347,0-.631-.116-.631-.254V50.387c0-.138.285-.254.631-.254h6.2c.347,0,.629.116.629.254v1.446c0,.138-.282.254-.629.254" transform="translate(62.616 91.185)" fill="#001c31"/>
        <path id="Trazado_925061" data-name="Trazado 925061" d="M37.638,52.086h-6.2c-.347,0-.631-.116-.631-.254V50.387c0-.138.285-.254.631-.254h6.2c.347,0,.629.116.629.254v1.446c0,.138-.282.254-.629.254" transform="translate(56.024 91.185)" fill="#f9d275"/>
        <path id="Trazado_925062" data-name="Trazado 925062" d="M52.135,52.086h-6.2c-.347,0-.631-.116-.631-.254V50.387c0-.138.285-.254.631-.254h6.2c.347,0,.629.116.629.254v1.446c0,.138-.282.254-.629.254" transform="translate(82.392 91.185)" fill="#016fc2"/>
        <path id="Trazado_925063" data-name="Trazado 925063" d="M89.217,64.218H28.612V45.864H89.217Zm-60.18-.423H88.792v-17.5H29.038Z" transform="translate(52.041 83.421)" fill="#a1cdf0"/>
        <path id="Trazado_925064" data-name="Trazado 925064" d="M32.267,58.509a2.72,2.72,0,1,1,2.72-2.72,2.724,2.724,0,0,1-2.72,2.72m0-5.015a2.295,2.295,0,1,0,2.295,2.295,2.3,2.3,0,0,0-2.295-2.295" transform="translate(53.742 96.525)" fill="#a1cdf0"/>
        <path id="Trazado_925065" data-name="Trazado 925065" d="M48.511,59.041h-6.2c-.347,0-.631-.116-.631-.254V57.342c0-.138.285-.254.631-.254h6.2c.347,0,.629.116.629.254v1.446c0,.138-.282.254-.629.254" transform="translate(75.801 103.835)" fill="#016fc2"/>
        <path id="Trazado_925066" data-name="Trazado 925066" d="M44.886,59.041h-6.2c-.347,0-.631-.116-.631-.254V57.342c0-.138.285-.254.631-.254h6.2c.347,0,.629.116.629.254v1.446c0,.138-.282.254-.629.254" transform="translate(69.207 103.835)" fill="#016fc2"/>
        <path id="Trazado_925067" data-name="Trazado 925067" d="M41.262,59.041h-6.2c-.347,0-.631-.116-.631-.254V57.342c0-.138.285-.254.631-.254h6.2c.347,0,.629.116.629.254v1.446c0,.138-.282.254-.629.254" transform="translate(62.616 103.835)" fill="#001c31"/>
        <path id="Trazado_925068" data-name="Trazado 925068" d="M37.638,59.041h-6.2c-.347,0-.631-.116-.631-.254V57.342c0-.138.285-.254.631-.254h6.2c.347,0,.629.116.629.254v1.446c0,.138-.282.254-.629.254" transform="translate(56.024 103.835)" fill="#2acc98"/>
        <path id="Trazado_925069" data-name="Trazado 925069" d="M52.135,59.041h-6.2c-.347,0-.631-.116-.631-.254V57.342c0-.138.285-.254.631-.254h6.2c.347,0,.629.116.629.254v1.446c0,.138-.282.254-.629.254" transform="translate(82.392 103.835)" fill="#d92c09"/>
        <path id="Trazado_925070" data-name="Trazado 925070" d="M48.511,60h-6.2c-.347,0-.631-.116-.631-.254V58.3c0-.138.285-.254.631-.254h6.2c.347,0,.629.116.629.254v1.446c0,.138-.282.254-.629.254" transform="translate(75.801 105.587)" fill="#f9d275"/>
        <path id="Trazado_925071" data-name="Trazado 925071" d="M44.886,60h-6.2c-.347,0-.631-.116-.631-.254V58.3c0-.138.285-.254.631-.254h6.2c.347,0,.629.116.629.254v1.446c0,.138-.282.254-.629.254" transform="translate(69.207 105.587)" fill="#a1cdf0"/>
        <path id="Trazado_925072" data-name="Trazado 925072" d="M41.262,60h-6.2c-.347,0-.631-.116-.631-.254V58.3c0-.138.285-.254.631-.254h6.2c.347,0,.629.116.629.254v1.446c0,.138-.282.254-.629.254" transform="translate(62.616 105.587)" fill="#a1cdf0"/>
        <path id="Trazado_925073" data-name="Trazado 925073" d="M37.638,60h-6.2c-.347,0-.631-.116-.631-.254V58.3c0-.138.285-.254.631-.254h6.2c.347,0,.629.116.629.254v1.446c0,.138-.282.254-.629.254" transform="translate(56.024 105.587)" fill="#016fc2"/>
        <path id="Trazado_925074" data-name="Trazado 925074" d="M52.135,60h-6.2c-.347,0-.631-.116-.631-.254V58.3c0-.138.285-.254.631-.254h6.2c.347,0,.629.116.629.254v1.446c0,.138-.282.254-.629.254" transform="translate(82.392 105.587)" fill="#a1cdf0"/>
        <path id="Trazado_925075" data-name="Trazado 925075" d="M48.511,60.967h-6.2c-.347,0-.631-.116-.631-.254V59.268c0-.138.285-.254.631-.254h6.2c.347,0,.629.116.629.254v1.446c0,.138-.282.254-.629.254" transform="translate(75.801 107.338)" fill="#016fc2"/>
        <path id="Trazado_925076" data-name="Trazado 925076" d="M44.886,60.967h-6.2c-.347,0-.631-.116-.631-.254V59.268c0-.138.285-.254.631-.254h6.2c.347,0,.629.116.629.254v1.446c0,.138-.282.254-.629.254" transform="translate(69.207 107.338)" fill="#016fc2"/>
        <path id="Trazado_925077" data-name="Trazado 925077" d="M41.262,60.967h-6.2c-.347,0-.631-.116-.631-.254V59.268c0-.138.285-.254.631-.254h6.2c.347,0,.629.116.629.254v1.446c0,.138-.282.254-.629.254" transform="translate(62.616 107.338)" fill="#a1cdf0"/>
        <path id="Trazado_925078" data-name="Trazado 925078" d="M37.638,60.967h-6.2c-.347,0-.631-.116-.631-.254V59.268c0-.138.285-.254.631-.254h6.2c.347,0,.629.116.629.254v1.446c0,.138-.282.254-.629.254" transform="translate(56.024 107.338)" fill="#a1cdf0"/>
        <path id="Trazado_925079" data-name="Trazado 925079" d="M52.135,60.967h-6.2c-.347,0-.631-.116-.631-.254V59.268c0-.138.285-.254.631-.254h6.2c.347,0,.629.116.629.254v1.446c0,.138-.282.254-.629.254" transform="translate(82.392 107.338)" fill="#a1cdf0"/>
        <path id="Trazado_925080" data-name="Trazado 925080" d="M48.511,61.93h-6.2c-.347,0-.631-.116-.631-.254V60.231c0-.138.285-.254.631-.254h6.2c.347,0,.629.116.629.254v1.446c0,.138-.282.254-.629.254" transform="translate(75.801 109.09)" fill="#a1cdf0"/>
        <path id="Trazado_925081" data-name="Trazado 925081" d="M44.886,61.93h-6.2c-.347,0-.631-.116-.631-.254V60.231c0-.138.285-.254.631-.254h6.2c.347,0,.629.116.629.254v1.446c0,.138-.282.254-.629.254" transform="translate(69.207 109.09)" fill="#a1cdf0"/>
        <path id="Trazado_925082" data-name="Trazado 925082" d="M41.262,61.93h-6.2c-.347,0-.631-.116-.631-.254V60.231c0-.138.285-.254.631-.254h6.2c.347,0,.629.116.629.254v1.446c0,.138-.282.254-.629.254" transform="translate(62.616 109.09)" fill="#f9d275"/>
        <path id="Trazado_925083" data-name="Trazado 925083" d="M37.638,61.93h-6.2c-.347,0-.631-.116-.631-.254V60.231c0-.138.285-.254.631-.254h6.2c.347,0,.629.116.629.254v1.446c0,.138-.282.254-.629.254" transform="translate(56.024 109.09)" fill="#016fc2"/>
        <path id="Trazado_925084" data-name="Trazado 925084" d="M52.135,61.93h-6.2c-.347,0-.631-.116-.631-.254V60.231c0-.138.285-.254.631-.254h6.2c.347,0,.629.116.629.254v1.446c0,.138-.282.254-.629.254" transform="translate(82.392 109.09)" fill="#016fc2"/>
        <path id="Trazado_925085" data-name="Trazado 925085" d="M89.217,74.063H28.612V55.709H89.217Zm-60.18-.426H88.792v-17.5H29.038Z" transform="translate(52.041 101.327)" fill="#a1cdf0"/>
        <path id="Trazado_925086" data-name="Trazado 925086" d="M32.267,68.353a2.72,2.72,0,1,1,2.72-2.72,2.724,2.724,0,0,1-2.72,2.72m0-5.015a2.295,2.295,0,1,0,2.295,2.295,2.3,2.3,0,0,0-2.295-2.295" transform="translate(53.742 114.43)" fill="#a1cdf0"/>
        <path id="Trazado_925087" data-name="Trazado 925087" d="M48.511,68.885h-6.2c-.347,0-.631-.116-.631-.254V67.186c0-.138.285-.254.631-.254h6.2c.347,0,.629.116.629.254v1.446c0,.138-.282.254-.629.254" transform="translate(75.801 121.74)" fill="#a1cdf0"/>
        <path id="Trazado_925088" data-name="Trazado 925088" d="M44.886,68.885h-6.2c-.347,0-.631-.116-.631-.254V67.186c0-.138.285-.254.631-.254h6.2c.347,0,.629.116.629.254v1.446c0,.138-.282.254-.629.254" transform="translate(69.207 121.74)" fill="#016fc2"/>
        <path id="Trazado_925089" data-name="Trazado 925089" d="M41.262,68.885h-6.2c-.347,0-.631-.116-.631-.254V67.186c0-.138.285-.254.631-.254h6.2c.347,0,.629.116.629.254v1.446c0,.138-.282.254-.629.254" transform="translate(62.616 121.74)" fill="#001c31"/>
        <path id="Trazado_925090" data-name="Trazado 925090" d="M37.638,68.885h-6.2c-.347,0-.631-.116-.631-.254V67.186c0-.138.285-.254.631-.254h6.2c.347,0,.629.116.629.254v1.446c0,.138-.282.254-.629.254" transform="translate(56.024 121.74)" fill="#d92c09"/>
        <path id="Trazado_925091" data-name="Trazado 925091" d="M52.135,68.885h-6.2c-.347,0-.631-.116-.631-.254V67.186c0-.138.285-.254.631-.254h6.2c.347,0,.629.116.629.254v1.446c0,.138-.282.254-.629.254" transform="translate(82.392 121.74)" fill="#d92c09"/>
        <path id="Trazado_925092" data-name="Trazado 925092" d="M48.511,69.848h-6.2c-.347,0-.631-.116-.631-.254V68.149c0-.138.285-.254.631-.254h6.2c.347,0,.629.116.629.254v1.446c0,.138-.282.254-.629.254" transform="translate(75.801 123.492)" fill="#001c31"/>
        <path id="Trazado_925093" data-name="Trazado 925093" d="M44.886,69.848h-6.2c-.347,0-.631-.116-.631-.254V68.149c0-.138.285-.254.631-.254h6.2c.347,0,.629.116.629.254v1.446c0,.138-.282.254-.629.254" transform="translate(69.207 123.492)" fill="#001c31"/>
        <path id="Trazado_925094" data-name="Trazado 925094" d="M41.262,69.848h-6.2c-.347,0-.631-.116-.631-.254V68.149c0-.138.285-.254.631-.254h6.2c.347,0,.629.116.629.254v1.446c0,.138-.282.254-.629.254" transform="translate(62.616 123.492)" fill="#001c31"/>
        <path id="Trazado_925095" data-name="Trazado 925095" d="M37.638,69.848h-6.2c-.347,0-.631-.116-.631-.254V68.149c0-.138.285-.254.631-.254h6.2c.347,0,.629.116.629.254v1.446c0,.138-.282.254-.629.254" transform="translate(56.024 123.492)" fill="#a1cdf0"/>
        <path id="Trazado_925096" data-name="Trazado 925096" d="M52.135,69.848h-6.2c-.347,0-.631-.116-.631-.254V68.149c0-.138.285-.254.631-.254h6.2c.347,0,.629.116.629.254v1.446c0,.138-.282.254-.629.254" transform="translate(82.392 123.492)" fill="#a1cdf0"/>
        <path id="Trazado_925097" data-name="Trazado 925097" d="M48.511,70.811h-6.2c-.347,0-.631-.116-.631-.254V69.112c0-.138.285-.254.631-.254h6.2c.347,0,.629.116.629.254v1.446c0,.138-.282.254-.629.254" transform="translate(75.801 125.243)" fill="#016fc2"/>
        <path id="Trazado_925098" data-name="Trazado 925098" d="M44.886,70.811h-6.2c-.347,0-.631-.116-.631-.254V69.112c0-.138.285-.254.631-.254h6.2c.347,0,.629.116.629.254v1.446c0,.138-.282.254-.629.254" transform="translate(69.207 125.243)" fill="#001c31"/>
        <path id="Trazado_925099" data-name="Trazado 925099" d="M41.262,70.811h-6.2c-.347,0-.631-.116-.631-.254V69.112c0-.138.285-.254.631-.254h6.2c.347,0,.629.116.629.254v1.446c0,.138-.282.254-.629.254" transform="translate(62.616 125.243)" fill="#a1cdf0"/>
        <path id="Trazado_925100" data-name="Trazado 925100" d="M37.638,70.811h-6.2c-.347,0-.631-.116-.631-.254V69.112c0-.138.285-.254.631-.254h6.2c.347,0,.629.116.629.254v1.446c0,.138-.282.254-.629.254" transform="translate(56.024 125.243)" fill="#f9d275"/>
        <path id="Trazado_925101" data-name="Trazado 925101" d="M52.135,70.811h-6.2c-.347,0-.631-.116-.631-.254V69.112c0-.138.285-.254.631-.254h6.2c.347,0,.629.116.629.254v1.446c0,.138-.282.254-.629.254" transform="translate(82.392 125.243)" fill="#a1cdf0"/>
        <path id="Trazado_925102" data-name="Trazado 925102" d="M48.511,71.775h-6.2c-.347,0-.631-.116-.631-.254V70.076c0-.138.285-.254.631-.254h6.2c.347,0,.629.116.629.254v1.446c0,.138-.282.254-.629.254" transform="translate(75.801 126.997)" fill="#a1cdf0"/>
        <path id="Trazado_925103" data-name="Trazado 925103" d="M44.886,71.775h-6.2c-.347,0-.631-.116-.631-.254V70.076c0-.138.285-.254.631-.254h6.2c.347,0,.629.116.629.254v1.446c0,.138-.282.254-.629.254" transform="translate(69.207 126.997)" fill="#a1cdf0"/>
        <path id="Trazado_925104" data-name="Trazado 925104" d="M41.262,71.775h-6.2c-.347,0-.631-.116-.631-.254V70.076c0-.138.285-.254.631-.254h6.2c.347,0,.629.116.629.254v1.446c0,.138-.282.254-.629.254" transform="translate(62.616 126.997)" fill="#001c31"/>
        <path id="Trazado_925105" data-name="Trazado 925105" d="M37.638,71.775h-6.2c-.347,0-.631-.116-.631-.254V70.076c0-.138.285-.254.631-.254h6.2c.347,0,.629.116.629.254v1.446c0,.138-.282.254-.629.254" transform="translate(56.024 126.997)" fill="#a1cdf0"/>
        <path id="Trazado_925106" data-name="Trazado 925106" d="M52.135,71.775h-6.2c-.347,0-.631-.116-.631-.254V70.076c0-.138.285-.254.631-.254h6.2c.347,0,.629.116.629.254v1.446c0,.138-.282.254-.629.254" transform="translate(82.392 126.997)" fill="#a1cdf0"/>
        <path id="Trazado_925107" data-name="Trazado 925107" d="M89.217,83.907H28.612V65.553H89.217Zm-60.18-.426H88.792v-17.5H29.038Z" transform="translate(52.041 119.232)" fill="#a1cdf0"/>
        <path id="Trazado_925108" data-name="Trazado 925108" d="M32.267,78.2a2.72,2.72,0,1,1,2.72-2.72,2.724,2.724,0,0,1-2.72,2.72m0-5.015a2.295,2.295,0,1,0,2.295,2.295,2.3,2.3,0,0,0-2.295-2.295" transform="translate(53.742 132.335)" fill="#a1cdf0"/>
        <path id="Trazado_925109" data-name="Trazado 925109" d="M34.669,58.509a2.72,2.72,0,1,1,2.72-2.72,2.724,2.724,0,0,1-2.72,2.72m0-5.015a2.295,2.295,0,1,0,2.295,2.295,2.3,2.3,0,0,0-2.295-2.295" transform="translate(58.11 96.525)" fill="#a1cdf0"/>
        <path id="Trazado_925110" data-name="Trazado 925110" d="M34.669,68.353a2.72,2.72,0,1,1,2.72-2.72,2.724,2.724,0,0,1-2.72,2.72m0-5.015a2.295,2.295,0,1,0,2.295,2.295,2.3,2.3,0,0,0-2.295-2.295" transform="translate(58.11 114.43)" fill="#a1cdf0"/>
        <path id="Trazado_925111" data-name="Trazado 925111" d="M34.669,78.2a2.72,2.72,0,1,1,2.72-2.72,2.724,2.724,0,0,1-2.72,2.72m0-5.015a2.295,2.295,0,1,0,2.295,2.295,2.3,2.3,0,0,0-2.295-2.295" transform="translate(58.11 132.335)" fill="#a1cdf0"/>
        <path id="Trazado_925112" data-name="Trazado 925112" d="M50.046,58.509a2.72,2.72,0,1,1,2.72-2.72,2.724,2.724,0,0,1-2.72,2.72m0-5.015a2.295,2.295,0,1,0,2.295,2.295,2.3,2.3,0,0,0-2.295-2.295" transform="translate(86.079 96.525)" fill="#a1cdf0"/>
        <path id="Trazado_925113" data-name="Trazado 925113" d="M50.046,68.353a2.72,2.72,0,1,1,2.72-2.72,2.724,2.724,0,0,1-2.72,2.72m0-5.015a2.295,2.295,0,1,0,2.295,2.295,2.3,2.3,0,0,0-2.295-2.295" transform="translate(86.079 114.43)" fill="#a1cdf0"/>
        <path id="Trazado_925114" data-name="Trazado 925114" d="M50.046,78.2a2.72,2.72,0,1,1,2.72-2.72,2.724,2.724,0,0,1-2.72,2.72m0-5.015a2.295,2.295,0,1,0,2.295,2.295,2.3,2.3,0,0,0-2.295-2.295" transform="translate(86.079 132.335)" fill="#a1cdf0"/>
        <rect id="Rectángulo_405148" data-name="Rectángulo 405148" width="73.922" height="68.236" transform="translate(73.995 56.033)" fill="#348cce"/>
        <path id="Trazado_925115" data-name="Trazado 925115" d="M100.377,88H27.3a2.7,2.7,0,0,0-.784,0c.285-.107.048.519.254.062.338-.739,0-2.441,0-3.239V24.367a27.49,27.49,0,0,0,0-3.794c-.011-.085.045-.276,0-.35-.186-.3.054.327-.316.178.135.056.364-.02.51,0a29.393,29.393,0,0,0,3.628,0h67.39a7.607,7.607,0,0,0,2.345,0c-.42.183-.062-.583-.273-.039a4.253,4.253,0,0,0,0,1.24V88.318a.319.319,0,0,0,.637,0V20.083a.324.324,0,0,0-.319-.319H26.456a.324.324,0,0,0-.319.319V88.318a.324.324,0,0,0,.319.319h73.922a.319.319,0,0,0,0-.637" transform="translate(47.539 35.949)" fill="#6caee3"/>
        <rect id="Rectángulo_405149" data-name="Rectángulo 405149" width="8.468" height="68.236" transform="translate(116.472 56.033)" fill="#016fc2"/>
        <path id="Trazado_925116" data-name="Trazado 925116" d="M41.525,88.64h8.468a.324.324,0,0,0,.319-.319V20.085a.324.324,0,0,0-.319-.321H41.525a.324.324,0,0,0-.319.321V88.321a.319.319,0,0,0,.637,0V23a10.727,10.727,0,0,0,0-2.867c.056.169-.44.079-.082.271a6.389,6.389,0,0,0,2.007,0H48.9c.242,0,1.26.13.925-.161s-.073-.135-.149.017a3.678,3.678,0,0,0,0,1.192V84.118a16.29,16.29,0,0,0,0,3.851c.025.093-.017.206,0,.3-.073-.417.552-.062-.045-.268a6.774,6.774,0,0,0-1.88,0H41.525a.319.319,0,0,0,0,.637" transform="translate(74.947 35.949)" fill="#6caee3"/>
        <rect id="Rectángulo_405150" data-name="Rectángulo 405150" width="3.383" height="7.056" transform="translate(119.015 58.015)" fill="#67a9da"/>
        <rect id="Rectángulo_405151" data-name="Rectángulo 405151" width="3.383" height="7.056" transform="translate(119.015 66.175)" fill="#67a9da"/>
        <rect id="Rectángulo_405152" data-name="Rectángulo 405152" width="3.383" height="7.056" transform="translate(119.015 74.336)" fill="#67a9da"/>
        <rect id="Rectángulo_405153" data-name="Rectángulo 405153" width="3.383" height="7.056" transform="translate(119.015 82.496)" fill="#67a9da"/>
        <rect id="Rectángulo_405154" data-name="Rectángulo 405154" width="3.383" height="7.056" transform="translate(119.015 90.747)" fill="#67a9da"/>
        <rect id="Rectángulo_405155" data-name="Rectángulo 405155" width="3.383" height="7.056" transform="translate(119.015 98.908)" fill="#67a9da"/>
        <rect id="Rectángulo_405156" data-name="Rectángulo 405156" width="3.383" height="7.056" transform="translate(119.015 107.068)" fill="#67a9da"/>
        <rect id="Rectángulo_405157" data-name="Rectángulo 405157" width="3.383" height="7.056" transform="translate(119.015 115.229)" fill="#67a9da"/>
        <path id="Trazado_925117" data-name="Trazado 925117" d="M44.36,22.745a25.255,25.255,0,0,1,2.667,2.6,10.8,10.8,0,0,0,2.565,1.686,22.1,22.1,0,0,0,6.644,1.9c4.386.578,8.789-.6,11.543-4.22.248-.327-.3-.646-.55-.321C64.224,28.338,59.19,29,54.6,28a18.564,18.564,0,0,1-5.781-2.114c-1.624-1-2.582-2.65-4.141-3.69-.341-.231-.662.321-.321.55" transform="translate(80.419 40.271)" fill="#6caee3"/>
        <path id="Trazado_925118" data-name="Trazado 925118" d="M44.229,22.866c1.951,5.054,6.354,9.9,11.828,11.041a8,8,0,0,0,6.954-1.717c2.244-1.821,3.453-4.245,4.784-6.746.195-.364-.358-.685-.55-.324-2.424,4.552-5.562,9.584-11.569,8.042-4.992-1.28-9.026-5.784-10.833-10.466-.147-.381-.764-.214-.615.169" transform="translate(80.404 40.892)" fill="#6caee3"/>
        <path id="Trazado_925119" data-name="Trazado 925119" d="M44.351,23.073c.147,3.1.347,6.435,2.317,8.984A13.388,13.388,0,0,0,55,36.72c3,.488,5.787.163,7.9-2.156a19.06,19.06,0,0,0,4.457-8.893c.085-.4-.533-.569-.617-.169a18.627,18.627,0,0,1-3.617,7.817,6.842,6.842,0,0,1-3.735,2.76,11.583,11.583,0,0,1-4.741-.068,12.571,12.571,0,0,1-7.487-4.38c-1.86-2.441-2.027-5.6-2.168-8.555-.02-.409-.657-.412-.637,0" transform="translate(80.667 41.409)" fill="#6caee3"/>
        <path id="Trazado_925120" data-name="Trazado 925120" d="M44.509,31.689a38.03,38.03,0,0,0,22.728-.321c.389-.127.223-.744-.169-.615a37.409,37.409,0,0,1-22.39.321.319.319,0,0,0-.169.615" transform="translate(80.549 55.904)" fill="#6caee3"/>
        <path id="Trazado_925121" data-name="Trazado 925121" d="M44.278,31.548c2.41,3.287,6.61,3.98,10.435,4.175,4.282.217,9.6.183,13.094-2.675.319-.262-.135-.71-.451-.451-3.2,2.616-8.093,2.65-12.022,2.514-3.727-.13-8.127-.643-10.5-3.884-.242-.327-.795-.011-.553.321" transform="translate(80.425 56.547)" fill="#6caee3"/>
        <path id="Trazado_925122" data-name="Trazado 925122" d="M44.574,48.252A24.889,24.889,0,0,0,67.618,32.221c.138-.386-.479-.552-.617-.169A24.237,24.237,0,0,1,44.574,47.615a.319.319,0,0,0,0,.637" transform="translate(80.507 57.904)" fill="#6caee3"/>
        <path id="Trazado_925123" data-name="Trazado 925123" d="M44.658,51.6c9.753-2.878,20.738-8.13,22.79-19.2.073-.4-.541-.572-.615-.169C64.818,43.084,54.039,48.166,44.489,50.985a.319.319,0,0,0,.169.615" transform="translate(80.51 58.196)" fill="#6caee3"/>
        <path id="Trazado_925124" data-name="Trazado 925124" d="M44.525,45.269c4.313.293,8.606.037,12.6-1.748a35.147,35.147,0,0,0,10.325-6.937A.319.319,0,0,0,67,36.133a34.839,34.839,0,0,1-9.674,6.6c-4.054,1.9-8.389,2.2-12.8,1.9-.412-.028-.409.609,0,.637" transform="translate(80.426 65.552)" fill="#6caee3"/>
        <path id="Trazado_925125" data-name="Trazado 925125" d="M44.533,44.607c8.338,2.092,16.947-1.33,23.047-7.081.3-.282-.155-.733-.454-.451C61.2,42.664,52.815,46.027,44.7,43.992a.319.319,0,0,0-.169.615" transform="translate(80.587 67.272)" fill="#6caee3"/>
        <path id="Trazado_925126" data-name="Trazado 925126" d="M44.519,22.465a30.131,30.131,0,0,0,22.937-1.844c.366-.186.042-.736-.321-.55A29.483,29.483,0,0,1,44.688,21.85c-.392-.127-.558.488-.169.615" transform="translate(80.57 36.439)" fill="#6caee3"/>
        <path id="Trazado_925127" data-name="Trazado 925127" d="M44.355,41.753a21.342,21.342,0,0,0,23.363-.781c.333-.237.014-.789-.321-.55a20.719,20.719,0,0,1-22.72.781c-.35-.217-.671.333-.321.55" transform="translate(80.401 73.415)" fill="#6caee3"/>
        <rect id="Rectángulo_405158" data-name="Rectángulo 405158" width="42.477" height="2.726" transform="translate(73.995 61.541)" fill="#6caee3"/>
        <rect id="Rectángulo_405159" data-name="Rectángulo 405159" width="42.305" height="2.055" transform="translate(73.998 66.663)" fill="#6caee3"/>
        <rect id="Rectángulo_405160" data-name="Rectángulo 405160" width="42.477" height="2.726" transform="translate(73.995 71.111)" fill="#6caee3"/>
        <rect id="Rectángulo_405161" data-name="Rectángulo 405161" width="42.305" height="2.055" transform="translate(73.998 76.23)" fill="#6caee3"/>
        <rect id="Rectángulo_405162" data-name="Rectángulo 405162" width="42.477" height="2.726" transform="translate(73.995 80.681)" fill="#6caee3"/>
        <rect id="Rectángulo_405163" data-name="Rectángulo 405163" width="42.305" height="2.055" transform="translate(73.998 85.8)" fill="#6caee3"/>
        <rect id="Rectángulo_405164" data-name="Rectángulo 405164" width="42.477" height="2.726" transform="translate(73.995 90.248)" fill="#6caee3"/>
        <rect id="Rectángulo_405165" data-name="Rectángulo 405165" width="42.305" height="2.055" transform="translate(73.998 95.367)" fill="#6caee3"/>
        <rect id="Rectángulo_405166" data-name="Rectángulo 405166" width="42.477" height="2.726" transform="translate(73.995 99.818)" fill="#6caee3"/>
        <rect id="Rectángulo_405167" data-name="Rectángulo 405167" width="42.305" height="2.055" transform="translate(73.998 104.937)" fill="#6caee3"/>
        <rect id="Rectángulo_405168" data-name="Rectángulo 405168" width="42.477" height="2.726" transform="translate(73.995 109.388)" fill="#6caee3"/>
        <rect id="Rectángulo_405169" data-name="Rectángulo 405169" width="42.305" height="2.055" transform="translate(73.998 114.507)" fill="#6caee3"/>
        <path id="Trazado_925128" data-name="Trazado 925128" d="M26.417,25.609c6.748,3.611,14.638,3.842,22.1,3.126a37.292,37.292,0,0,0,10.54-2.342c3.69-1.5,6.5-4.5,10.3-5.731.389-.127.226-.741-.169-.615-3.363,1.091-5.821,3.614-8.958,5.133a33.58,33.58,0,0,1-11.185,2.864c-7.5.784-15.509.648-22.3-2.985-.361-.194-.685.355-.321.55" transform="translate(47.758 36.432)" fill="#016fc2"/>
        <path id="Trazado_925129" data-name="Trazado 925129" d="M26.345,30.961c8.245,3.67,17.621,5.536,26.523,3.307,7.419-1.86,14.153-6.543,17.747-13.381.189-.364-.361-.685-.552-.321-3.521,6.7-10.1,11.264-17.364,13.085-8.724,2.187-17.948.358-26.032-3.239-.372-.166-.7.383-.321.55" transform="translate(47.615 37.115)" fill="#016fc2"/>
        <path id="Trazado_925130" data-name="Trazado 925130" d="M26.5,23.732a38.247,38.247,0,0,0,21.26,3.91,38.438,38.438,0,0,0,10.83-2.734,97.614,97.614,0,0,1,10.861-4.248.319.319,0,0,0-.172-.615,70.8,70.8,0,0,0-9.339,3.586,40.5,40.5,0,0,1-11.625,3.312,37.717,37.717,0,0,1-21.494-3.76c-.364-.186-.688.364-.321.55" transform="translate(47.908 36.434)" fill="#016fc2"/>
        <path id="Trazado_925131" data-name="Trazado 925131" d="M26.347,33.044a49.227,49.227,0,0,0,44.022-6.263c.333-.237.014-.789-.321-.552a48.624,48.624,0,0,1-43.531,6.2c-.389-.135-.555.482-.169.615" transform="translate(47.521 47.601)" fill="#016fc2"/>
        <path id="Trazado_925132" data-name="Trazado 925132" d="M26.389,33.056c5.77,4.567,13.353,5.869,20.521,4.8C55.358,36.6,62.944,32.205,69.9,27.475c.338-.228.02-.784-.321-.55-6.526,4.434-13.53,8.53-21.364,10.066-7.335,1.438-15.4.341-21.375-4.386-.319-.254-.772.2-.451.451" transform="translate(47.797 48.872)" fill="#016fc2"/>
        <path id="Trazado_925133" data-name="Trazado 925133" d="M26.508,45.333a72.9,72.9,0,0,0,43.32-12.124c.341-.228.02-.781-.321-.552a72.3,72.3,0,0,1-43,12.039c-.412-.017-.409.62,0,.637" transform="translate(47.655 59.3)" fill="#016fc2"/>
        <path id="Trazado_925134" data-name="Trazado 925134" d="M26.432,46.138C41.8,48.594,58.471,44.2,69.848,33.378c.3-.285-.155-.736-.451-.451-11.2,10.65-27.664,15.016-42.8,12.6-.4-.065-.575.55-.169.615" transform="translate(47.656 59.724)" fill="#016fc2"/>
        <path id="Trazado_925135" data-name="Trazado 925135" d="M26.437,35.716c6.512,4.1,14.379,5.156,21.908,4.062a52.9,52.9,0,0,0,12.2-3.428c3.27-1.322,6.672-2.74,9.142-5.342.282-.3-.169-.75-.451-.451-2.574,2.712-6.249,4.166-9.666,5.5a52.323,52.323,0,0,1-10.824,3.022c-7.54,1.187-15.45.206-21.987-3.91-.347-.22-.668.333-.321.55" transform="translate(47.814 55.402)" fill="#016fc2"/>
        <path id="Trazado_925136" data-name="Trazado 925136" d="M26.419,37.935a43.456,43.456,0,0,0,42.207-.008.319.319,0,0,0-.321-.55,42.81,42.81,0,0,1-41.564.008.319.319,0,0,0-.321.55" transform="translate(47.768 67.903)" fill="#016fc2"/>
        <path id="Trazado_925137" data-name="Trazado 925137" d="M42.675,21.931c.155.533.307,1.068.462,1.6a.319.319,0,0,0,.615-.172c-.155-.533-.307-1.068-.462-1.6a.319.319,0,0,0-.615.169" transform="translate(77.594 39.172)" fill="#016fc2"/>
        <path id="Trazado_925138" data-name="Trazado 925138" d="M42.634,24.662c.155.533.307,1.068.462,1.6a.319.319,0,0,0,.615-.172c-.152-.533-.307-1.068-.462-1.6a.319.319,0,0,0-.615.169" transform="translate(77.519 44.139)" fill="#016fc2"/>
        <path id="Trazado_925139" data-name="Trazado 925139" d="M42.675,24.662c.155.533.307,1.068.462,1.6a.319.319,0,0,0,.615-.172c-.155-.533-.307-1.068-.462-1.6a.319.319,0,0,0-.615.169" transform="translate(77.594 44.139)" fill="#016fc2"/>
        <path id="Trazado_925140" data-name="Trazado 925140" d="M42.675,27.585c.155.536.307,1.068.462,1.6a.319.319,0,0,0,.615-.172c-.155-.533-.307-1.068-.462-1.6a.319.319,0,0,0-.615.169" transform="translate(77.594 49.455)" fill="#016fc2"/>
        <path id="Trazado_925141" data-name="Trazado 925141" d="M42.675,30.317c.155.536.307,1.068.462,1.6a.319.319,0,0,0,.615-.172c-.155-.533-.307-1.068-.462-1.6a.319.319,0,0,0-.615.169" transform="translate(77.594 54.425)" fill="#016fc2"/>
        <path id="Trazado_925142" data-name="Trazado 925142" d="M42.675,33.509c.155.533.307,1.068.462,1.6a.319.319,0,0,0,.615-.169c-.155-.536-.307-1.071-.462-1.6a.319.319,0,0,0-.615.169" transform="translate(77.594 60.233)" fill="#016fc2"/>
        <path id="Trazado_925143" data-name="Trazado 925143" d="M42.675,36.242c.155.536.307,1.068.462,1.6a.319.319,0,0,0,.615-.172c-.155-.533-.307-1.068-.462-1.6a.319.319,0,0,0-.615.169" transform="translate(77.594 65.201)" fill="#016fc2"/>
        <path id="Trazado_925144" data-name="Trazado 925144" d="M42.675,39.257c.155.533.307,1.068.462,1.6a.319.319,0,0,0,.615-.172c-.155-.533-.307-1.068-.462-1.6a.319.319,0,0,0-.615.169" transform="translate(77.594 70.685)" fill="#016fc2"/>
        <path id="Trazado_925145" data-name="Trazado 925145" d="M42.675,41.987c.155.536.307,1.068.462,1.6a.319.319,0,0,0,.615-.172c-.155-.533-.307-1.068-.462-1.6a.319.319,0,0,0-.615.169" transform="translate(77.594 75.653)" fill="#016fc2"/>
        <path id="Trazado_925146" data-name="Trazado 925146" d="M13.852,72.539c-.262.894-2.571,8.383-1.486,8.7,1.66.488,18.714,1.627,19.588,1.384s-1.226-3.092-1.925-3.335a46.225,46.225,0,0,1-5.77-3.092,21.613,21.613,0,0,1-1.314-2.52Z" transform="translate(21.968 131.938)" fill="#a1cdf0"/>
        <path id="Trazado_925147" data-name="Trazado 925147" d="M14.352,72.178s1.486,4.8,2.712,5.776a18.345,18.345,0,0,0,4.984,2.357c.786.164,2.142-.97,2.142-.97s-3.8-3.081-3.715-3.089-1.2-2.853-1.2-2.853-4.22-1.79-4.919-1.221" transform="translate(26.104 131.079)" fill="#6caee3"/>
        <path id="Trazado_925148" data-name="Trazado 925148" d="M13.348,74.334s-2.049,5.19-1.7,5.677,22.3,0,22.3,0-1.359-2.111-1.6-2.45-11.783.079-13.006-.282a61.089,61.089,0,0,1-6-2.946" transform="translate(21.113 135.203)" fill="#6caee3"/>
        <path id="Trazado_925149" data-name="Trazado 925149" d="M5.838,72.539c-.265.894-2.571,8.383-1.488,8.7,1.66.488,18.717,1.627,19.588,1.384s-1.223-3.092-1.922-3.335a45.83,45.83,0,0,1-5.77-3.092,21.179,21.179,0,0,1-1.314-2.52Z" transform="translate(7.388 131.938)" fill="#a1cdf0"/>
        <path id="Trazado_925150" data-name="Trazado 925150" d="M6.336,72.178s1.486,4.8,2.712,5.776a18.345,18.345,0,0,0,4.984,2.357c.786.164,2.142-.97,2.142-.97s-3.8-3.081-3.715-3.089-1.2-2.853-1.2-2.853-4.22-1.79-4.919-1.221" transform="translate(11.524 131.079)" fill="#6caee3"/>
        <path id="Trazado_925151" data-name="Trazado 925151" d="M5.332,74.334s-2.049,5.19-1.7,5.677,22.3,0,22.3,0-1.359-2.111-1.6-2.45-11.783.079-13.006-.282a61.089,61.089,0,0,1-6-2.946" transform="translate(6.533 135.203)" fill="#6caee3"/>
        <path id="Trazado_925152" data-name="Trazado 925152" d="M24.387,42.631V55.014c0,1.421,9.339,34.105,9.136,38.164S27.228,128.1,27.228,128.1s-9.339,2.638-12.586,0c0,0-1.421-22.128,0-25.984s3.631-10.557,3.631-10.557S11.395,75.924,11.192,74.3s4.716-27.436,4.716-27.436Z" transform="translate(20.345 77.54)" fill="#27a77e"/>
        <path id="Trazado_925153" data-name="Trazado 925153" d="M7.378,42.631S4.333,53.594,4.333,55.623,7.378,91.352,7.378,91.352s-2.841,7.712-3.044,11.571,0,25.578,0,25.578,7.915,1.827,12.586,0c0,0,6.9-35.12,8.524-41.415S27.273,60.7,27.273,60.7s3.044-2.233,3.45-4.465,0-8.933,0-8.933Z" transform="translate(7.717 77.54)" fill="#27a77e"/>
        <path id="Trazado_925154" data-name="Trazado 925154" d="M18.942,48.629l-6.495,2.841c-.251.11-.037.476.214.366L19.156,49c.251-.11.034-.476-.214-.366" transform="translate(22.436 88.413)" fill="#14543f"/>
        <path id="Trazado_925155" data-name="Trazado 925155" d="M9.334,43.86C8.122,48,6.588,52.351,6.687,56.709c.127,5.607.431,11.213.631,16.82a155.267,155.267,0,0,1,.183,16.6,11.553,11.553,0,0,1-.451,2.331,46.6,46.6,0,0,0-1.424,7.3c-.33,3.036-.1,6.131-.132,9.187-.068,5.8-.24,11.594-.431,17.389-.008.273.417.273.426,0,.166-4.987.307-9.976.395-14.965.045-2.568.082-5.136,0-7.7a34.014,34.014,0,0,1,.826-7.972c.321-1.531.885-3.039,1.119-4.581a37.183,37.183,0,0,0,.2-5.714c-.011-3.03-.1-6.058-.192-9.085-.192-6.021-.485-12.039-.679-18.06a22.584,22.584,0,0,1,.327-5.6c.617-2.923,1.421-5.815,2.261-8.682a.214.214,0,0,0-.412-.113" transform="translate(9.209 79.505)" fill="#14543f"/>
        <path id="Trazado_925156" data-name="Trazado 925156" d="M17.316,45.283c-.268,2.266-.564,4.53-.925,6.785a16.345,16.345,0,0,1-.665,3.3,5.028,5.028,0,0,1-1.838,1.99c-.279.206-.761.389-.9.719a4.4,4.4,0,0,0-.068,1.19q-.085,1.505-.172,3.011l-.474,8.33q-.148,2.668-.3,5.333c-.017.273.409.273.426,0q.368-6.457.733-12.916.1-1.67.189-3.338a6.569,6.569,0,0,1,.09-1.581c-.02.059-.178.189.068.048a7.48,7.48,0,0,0,.817-.575,5.639,5.639,0,0,0,1.728-1.829,10.44,10.44,0,0,0,.637-2.723c.44-2.565.772-5.153,1.077-7.738.031-.271-.395-.271-.426,0" transform="translate(21.784 81.995)" fill="#14543f"/>
        <path id="Trazado_925157" data-name="Trazado 925157" d="M21.458,27.94l11.932,13.5s-.406-1.322,2.438-2.337,19.69-5.173,20.5-4.414,1.218,5.632,1.218,5.632S38.873,51.052,32.781,52.081s-14.2-5.669-14.156-6.464S21.458,27.94,21.458,27.94" transform="translate(33.876 50.82)" fill="#c7e1f6"/>
        <path id="Trazado_925158" data-name="Trazado 925158" d="M27.725,25.312S10.471,26.834,9.047,32.723,6,64.187,6.206,64.8,2.981,69.87,4.492,70.884s2.934,3.989,2.934,3.989,7.228,6.162,24.42,6.365a83.776,83.776,0,0,0,7.473-4.262c1.2-1.015,5.841-23.7,5.841-23.7s3.969-17.711,2.706-20.552-10.884-6.737-10.884-6.737Z" transform="translate(7.468 46.04)" fill="#c7e1f6"/>
        <path id="Trazado_925159" data-name="Trazado 925159" d="M12.839,32.333s-3.6,30.486-5.781,32.4S20.067,68.547,27.4,68.561c6.159.014,6.934-4.358,6.934-4.358s5.579-14.692,5.841-29.637c0,0-19.577,2.841-27.337-2.233" transform="translate(12.451 58.81)" fill="#27a77e"/>
        <path id="Trazado_925160" data-name="Trazado 925160" d="M8.245,27.279s1.4-.891,3.628,2.562S10.294,44.66,10.294,44.66s1.97,4.527,6.241,2.264c0,0,1.108-13.539,0-17.488s-.812-3.921-1-3.867a15.162,15.162,0,0,0-7.29,1.711" transform="translate(14.996 46.485)" fill="#2acc98"/>
        <path id="Trazado_925161" data-name="Trazado 925161" d="M45.211,30.669a1.69,1.69,0,0,1-.474.107,3.131,3.131,0,0,1-.327.034c-.07,0-.132-.023-.2-.031-.09-.011-.183.008-.273-.006a1.848,1.848,0,0,0-.333-.031H43.24a2.333,2.333,0,0,0-.282.034.758.758,0,0,0-.265.09,2.049,2.049,0,0,0-.237.175c-.116.076-.24.141-.358.217a7.092,7.092,0,0,0-.908.71,6.052,6.052,0,0,0-.662.758c-.127.166-.251.316-.369.49a.315.315,0,0,0,.008.4c.065.082.147.152.217.234a.542.542,0,0,0,.293.2.506.506,0,0,0,.265.028c.017-.008.039-.042.059-.054a1.044,1.044,0,0,1,.158-.082c.073-.039.141-.082.211-.124.107-.065.228-.093.335-.158.127-.076.251-.152.375-.231a3.308,3.308,0,0,0,.344-.211l-.023-.011a4.013,4.013,0,0,1,.194-.5.9.9,0,0,1,.149-.282.875.875,0,0,1,.276-.124c.1-.031.194-.085.3-.116.079-.023.152-.09.231-.09.172,0,.1.335.093.428a.906.906,0,0,0,0,.276,1.729,1.729,0,0,1-.056.448,3.517,3.517,0,0,1-.237,1.02c-.1.211-.183.431-.307.631a1.017,1.017,0,0,1-.223.268,1.984,1.984,0,0,1-.313.147,1.084,1.084,0,0,0-.327.293,1.818,1.818,0,0,1-.519.378c-.2.1-.375.237-.569.358-.149.1-.313.164-.465.254s-.316.214-.482.31a7.39,7.39,0,0,1-.913.476,6.317,6.317,0,0,1-1.384.234c-.978.158-1.951.381-2.92.584-.248.051-.5.1-.747.158,0,0-3.605-4.595-2.5-5.674,0,0,2.326-2.421,3.239-2.5s3.882-.457,4.034,0c.059.175.448,0,.541-.037.389-.147.764-.333,1.144-.5a9.212,9.212,0,0,1,1.108-.451.954.954,0,0,1,.234-.045,3.079,3.079,0,0,0,.395-.014,1.526,1.526,0,0,0,.3-.09.778.778,0,0,1,.3-.023h.412a2.055,2.055,0,0,1,.414.07c.107.02.209.028.31.045a2.3,2.3,0,0,1,.234.082,1.1,1.1,0,0,1,.2.093c.175.09.361.149.538.24.338.169.682.313,1,.5a.437.437,0,0,1-.132.147,2.235,2.235,0,0,1-.161.166c-.028.023-.07.025-.1.048s-.042.045-.07.065a1.428,1.428,0,0,1-.276.124,1.018,1.018,0,0,1-.138.059" transform="translate(57.24 52.787)" fill="#d92c09"/>
        <path id="Trazado_925162" data-name="Trazado 925162" d="M16.559,25.9s1.776,1.342,3.132,7.425c1.04,4.676-.538,13.359-.538,13.359s1.672,2.28,3.391-.383,1.192-15.027.231-17.029c-.71-1.483-4.11-2.8-6.216-3.371" transform="translate(30.118 47.1)" fill="#2acc98"/>
        <path id="Trazado_925163" data-name="Trazado 925163" d="M6.416,29.477c4.2-4.541,8.065-4.1,13.342.973S36.022,49.733,36.022,49.733s-1.542-1.59,5.711-1.2,18.624.795,19.233,1.2,0,7.715,0,7.715-23.439,6.5-27.351,4.572S8.592,48.05,7.172,44.324,5.6,30.365,6.416,29.477" transform="translate(10.765 47.904)" fill="#c7e1f6"/>
        <path id="Trazado_925164" data-name="Trazado 925164" d="M25.621,37.7a1.868,1.868,0,0,0,.113-.225,2.057,2.057,0,0,1,.073-.223c.028-.07.054-.132.073-.2.017-.051.034-.116.051-.166s.028-.079.039-.13a.4.4,0,0,1,.09-.175.815.815,0,0,1,.163-.062c.192-.093.364-.223.552-.319a8.346,8.346,0,0,1,.987-.536c.414-.149.834-.265,1.26-.378a8.807,8.807,0,0,0,.851-.273c.282-.1.541-.237.815-.361s.555-.282.829-.426c.135-.073.276-.13.414-.195s.29-.163.443-.234a1.787,1.787,0,0,0,.493-.257A.3.3,0,0,1,33,33.456a1.061,1.061,0,0,1,.211-.006c.059,0,.144-.02.192.025.144.132-.006.35-.09.471a2.992,2.992,0,0,1-.321.406c-.18.178-.341.375-.521.553-.085.085-.18.155-.268.237s-.163.175-.257.251c-.155.13-.316.245-.459.383-.1.1-.547.521-.251.634a.745.745,0,0,0,.369,0c.149-.025.3-.054.448-.087.31-.068.615-.158.93-.2.583-.079,1.161-.262,1.736-.381.493-.1.956-.3,1.452-.4.383-.076.77-.121,1.15-.209.248-.059.493-.07.739-.141a14.319,14.319,0,0,1,1.443-.335c.155-.028.781-.355.877-.149.045.1-.13.417-.135.538-.006.186.006.22-.135.333a14.09,14.09,0,0,1-2.655,1.469,3.642,3.642,0,0,1-.7.324,2.541,2.541,0,0,0-.493.147c-.076.031-.158.062-.231.1-.054.028-.22.068-.158.158.008.014.073.028.093.039.042.023.09.048.132.073a1.066,1.066,0,0,1,.251.24,1,1,0,0,1,.242.586,3.536,3.536,0,0,1,0,.386,1.925,1.925,0,0,1-.107.4c-.023.062-.068.107-.093.166a.906.906,0,0,0-.039.124c-.025.073-.042.048.039.073.056.017.068.014.107.065a.533.533,0,0,1,.124.333.658.658,0,0,1-.2.4c-.059.073-.1.161-.158.237a.82.82,0,0,0-.113.161c-.054.144.042.319.042.468v.451a.773.773,0,0,1-.073.381,1.353,1.353,0,0,1-.257.307.884.884,0,0,1-.321.161c-.082.031-.161.073-.245.1-.116.034-.211.09-.324.132a2.388,2.388,0,0,0-.257.1,1.4,1.4,0,0,1-.271.1c-.262.062-.533.144-.789.231a7.725,7.725,0,0,1-.761.2c-.186.042-.361.116-.547.155-.141.031-.276.079-.42.107a4.156,4.156,0,0,0-.448.11c-.231.073-.457.163-.691.223-.612.152-1.206.378-1.832.493-.513.1-1.029.166-1.542.265-.127.025-.268.028-.4.045-.116.017-.234.028-.35.054-.135.028-.273.034-.406.065s-.24.028-.364.051a2.275,2.275,0,0,1-.364.059,1.9,1.9,0,0,0-.254.006.707.707,0,0,1-.366.02c.065-.13-.059-.254-.107-.372a1.435,1.435,0,0,1-.093-.3,2.734,2.734,0,0,1-.034-.344c-.006-.076-.034-.144-.037-.223s0-.13,0-.2c0-.127,0-.254,0-.378s-.034-.209-.034-.321c0-.093.031-.18.034-.273.006-.149-.02-.3-.014-.454a7.442,7.442,0,0,0,.079-1.057,1.181,1.181,0,0,1,.07-.5,4.989,4.989,0,0,0,.166-.724,2.444,2.444,0,0,1,.085-.279c.039-.132.073-.271.1-.406a7.553,7.553,0,0,1,.3-1.08c.056-.164.118-.324.18-.485l.011-.031" transform="translate(44.766 60.832)" fill="#d92c09"/>
        <path id="Trazado_925165" data-name="Trazado 925165" d="M78.21,26.451A146.182,146.182,0,0,0,62.3,35.06c-4.4,2.875-8.564,6.128-13.15,8.716a36.715,36.715,0,0,1-7.445,3.253c-2.509.755-5.068,1.291-7.354,2.636A21.841,21.841,0,0,0,25.8,60.038c-2.5,5.812-3.115,12.2-4.124,18.385-.042.268.369.383.412.113,1.624-9.942,2.613-22.32,12.079-28.259a27.8,27.8,0,0,1,7.29-2.729,36.084,36.084,0,0,0,6.977-2.889c4.536-2.43,8.631-5.576,12.891-8.437a142.328,142.328,0,0,1,17.1-9.4c.245-.118.031-.485-.214-.366" transform="translate(39.412 48.069)" fill="#016fc2"/>
        <path id="Trazado_925166" data-name="Trazado 925166" d="M8.385,26.753a18.46,18.46,0,0,1,6.3,3.343,32.19,32.19,0,0,1,4.722,4.614c3.433,3.887,6.655,7.963,9.841,12.053q1.2,1.539,2.376,3.084c.1.13.352.149.389-.051.288-1.531,2.111-1.26,3.27-1.212q2.529.106,5.06.237,6.106.3,12.214.623l2.929.152c.273.017.271-.409,0-.426-6.889-.364-13.779-.764-20.671-1.032-1.268-.048-2.915-.039-3.213,1.545l.389-.051q-3.163-4.165-6.447-8.234c-1.765-2.2-3.549-4.375-5.4-6.5A38.367,38.367,0,0,0,15.9,30.508a19.7,19.7,0,0,0-7.4-4.166c-.265-.065-.378.347-.113.412" transform="translate(14.977 47.899)" fill="#016fc2"/>
        <path id="Trazado_925167" data-name="Trazado 925167" d="M5.784,32.424A23.914,23.914,0,0,0,8.806,35.97c1.491,1.342,3.213,2.45,4.778,3.71.211.169.513-.13.3-.3-1.517-1.221-3.151-2.317-4.629-3.577A21.587,21.587,0,0,1,6.151,32.21c-.161-.217-.53-.006-.366.214" transform="translate(10.447 58.42)" fill="#016fc2"/>
        <path id="Trazado_925168" data-name="Trazado 925168" d="M7.012,43.716A8.962,8.962,0,0,1,5.149,39.3c-.034-.268-.459-.273-.426,0a9.531,9.531,0,0,0,1.987,4.722c.169.214.471-.087.3-.3" transform="translate(8.587 71.105)" fill="#016fc2"/>
        <path id="Trazado_925169" data-name="Trazado 925169" d="M25.1,32.363a19.193,19.193,0,0,0-1.652,3.605.211.211,0,0,0,.406.113,19.2,19.2,0,0,1,1.61-3.5c.13-.24-.234-.457-.364-.214" transform="translate(42.629 58.672)" fill="#016fc2"/>
        <path id="Trazado_925170" data-name="Trazado 925170" d="M33.7,32.037c1.153-.609,2.306-1.223,3.462-1.827,1.463-.764,2.886-1.254,4.4-.3.231.147.445-.22.214-.366a3.868,3.868,0,0,0-3.783-.214c-1.548.657-3.022,1.559-4.507,2.342-.242.127-.028.493.214.366" transform="translate(60.712 52.634)" fill="#fff"/>
        <path id="Trazado_925171" data-name="Trazado 925171" d="M33.314,30.994c.9-.8,2.145-1.813,3.366-.984.228.155.443-.214.217-.366-1.387-.939-2.839.116-3.884,1.049-.2.183.1.485.3.3" transform="translate(59.922 53.251)" fill="#fff"/>
        <path id="Trazado_925172" data-name="Trazado 925172" d="M32.906,30.652c.507-.333,1.7-1.432,2.244-.739.169.214.471-.087.3-.3-.755-.958-2.08.228-2.76.674-.228.149-.017.516.214.366" transform="translate(59.282 53.198)" fill="#fff"/>
        <path id="Trazado_925173" data-name="Trazado 925173" d="M27.938,35.823c.426-.1.848-.209,1.274-.31.195-.048.392-.1.589-.141.426-.082,1.66-.206,1.178.913-.183.42-.9.626-1.3.753a7.874,7.874,0,0,1-1.573.324c-.271.028-.273.454,0,.426,1.015-.107,3.555-.462,3.405-1.976-.163-1.663-2.827-.609-3.69-.4-.265.065-.152.476.113.412" transform="translate(50.336 63.461)" fill="#fff"/>
        <path id="Trazado_925174" data-name="Trazado 925174" d="M28.075,37.82c.868-.262,3.5-.679,2.746-2.185-.124-.245-.49-.028-.366.214.5,1-1.922,1.39-2.492,1.562a.212.212,0,0,0,.113.409" transform="translate(50.588 64.62)" fill="#fff"/>
        <path id="Trazado_925175" data-name="Trazado 925175" d="M14.467,17.732c-.524.578-2.362,3.758-2.362,5.012a44.842,44.842,0,0,0,1.832,8.194,19.26,19.26,0,0,1,.933,3.512l15.921-8.7s2.23-2.233,1.942-4.837-17.559-3.96-18.266-3.18" transform="translate(22.017 31.853)" fill="#fdedc8"/>
        <path id="Trazado_925176" data-name="Trazado 925176" d="M15.91,21.146s-2.024,11.278-3.278,12.338,1.063,5.2,5.111,6.844,6.168-3.47,5.686-4.242-.155-4.82.068-6.072-7.586-8.868-7.586-8.868" transform="translate(22.356 38.462)" fill="#f7a98f"/>
        <path id="Trazado_925177" data-name="Trazado 925177" d="M21.353,17.966c-.014,0-1.288,2.827-1.4,3.053A6.929,6.929,0,0,1,17.6,23.84c-1.319.925-2.055-1.288-2.985-1.728-1.006-.479-1.587-.023-1.945.913a4.808,4.808,0,0,0,.4,3.805c.7,1.483,2.066,1.669,2.943,2.785,1.029,1.311.662,3.425,1.612,4.832.651.964,4.073,3.374,5.638,3.374s6.388-8,6.771-11.278.677-5.494-1.542-6.65-7.132-1.928-7.132-1.928" transform="translate(22.601 32.678)" fill="#f7a98f"/>
        <path id="Trazado_925178" data-name="Trazado 925178" d="M12.523,23.952s-.014-.166-.023-.451c-.039-1.285.042-4.981,2.14-6.5,2.557-1.86,9.491-2.444,14.272-.964s4.445,7.715,4.287,9.088-20.676-1.17-20.676-1.17" transform="translate(22.724 27.642)" fill="#dc6501"/>
        <path id="Trazado_925179" data-name="Trazado 925179" d="M12.474,19.2l10.015,1.043s10.537.381,15.281,3.208l.034-1.252a8.863,8.863,0,0,0-7.7-4.189,66.971,66.971,0,0,0-9.266.361L12.5,18.141Z" transform="translate(22.688 32.714)" fill="#f7931e"/>
        <path id="Trazado_925180" data-name="Trazado 925180" d="M15.5,22.8a12.864,12.864,0,0,0,3.986,1.085s-.775,1.877-2.173,1.517S15.5,22.8,15.5,22.8" transform="translate(28.185 41.463)" fill="#fff"/>
        <path id="Trazado_925181" data-name="Trazado 925181" d="M17.354,21.32a.892.892,0,1,1-.891-.891.891.891,0,0,1,.891.891" transform="translate(28.319 37.158)" fill="#001c31"/>
        <path id="Trazado_925182" data-name="Trazado 925182" d="M19.4,21.8a.892.892,0,1,1-.891-.891.891.891,0,0,1,.891.891" transform="translate(32.044 38.028)" fill="#001c31"/>
        <path id="Trazado_925183" data-name="Trazado 925183" d="M13.484,21.09c.166,2.08.231,4.214.578,6.272A5.832,5.832,0,0,0,15.82,30.1a7.683,7.683,0,0,0,4.961,2.571.213.213,0,0,0,0-.426c-1.973-.025-3.955-1.564-5.164-3.016a4.48,4.48,0,0,1-1.226-2.706c-.192-1.81-.338-3.625-.482-5.438-.023-.271-.448-.273-.426,0" transform="translate(24.523 37.989)" fill="#7c4415"/>
        <path id="Trazado_925184" data-name="Trazado 925184" d="M16.6,23.48a1.34,1.34,0,0,0,1.531-1c.062-.268-.35-.381-.412-.113a.911.911,0,0,1-1.006.7c-.268-.045-.383.364-.113.409" transform="translate(29.906 40.413)" fill="#7c4415"/>
        <path id="Trazado_925185" data-name="Trazado 925185" d="M15.6,21.073a1.927,1.927,0,0,1,2.568.417c.178.209.476-.093.3-.3a2.348,2.348,0,0,0-3.084-.482c-.234.144-.02.51.214.366" transform="translate(27.796 36.985)" fill="#001c31"/>
        <path id="Trazado_925186" data-name="Trazado 925186" d="M17.691,21.514a2.852,2.852,0,0,1,1.094-.279,1.93,1.93,0,0,1,1.274.7c.2.189.5-.113.3-.3a2.573,2.573,0,0,0-1.322-.806,2.878,2.878,0,0,0-1.46.279c-.251.1-.141.516.113.412" transform="translate(31.715 37.846)" fill="#001c31"/>
        <path id="Trazado_925187" data-name="Trazado 925187" d="M15.536,20.063a6.677,6.677,0,0,1,3.408.713c.242.121.459-.245.214-.369a7.14,7.14,0,0,0-3.622-.77c-.273.014-.273.44,0,.426" transform="translate(27.885 35.7)" fill="#001c31"/>
        <path id="Trazado_925188" data-name="Trazado 925188" d="M17.742,20.6a5.464,5.464,0,0,1,2.985.854c.231.147.445-.22.214-.366a5.889,5.889,0,0,0-3.2-.913.213.213,0,0,0,0,.426" transform="translate(31.898 36.689)" fill="#001c31"/>
        <path id="Trazado_925189" data-name="Trazado 925189" d="M17.435,15.292a11.414,11.414,0,0,0-2.672,7.994c.017.273.443.276.426,0a10.964,10.964,0,0,1,2.548-7.693c.175-.209-.127-.51-.3-.3" transform="translate(26.821 27.687)" fill="#f7931e"/>
        <path id="Trazado_925190" data-name="Trazado 925190" d="M5.4,43.385a4.693,4.693,0,0,0,1.612,1.226,26.535,26.535,0,0,0,7.453,2.373c3.777.772,7.532,1.742,11.352,2.289a18.865,18.865,0,0,0,9.277-.49c.381-.141.217-.758-.172-.615-6.2,2.3-13.53-.42-19.69-1.68a30.554,30.554,0,0,1-7.467-2.207,5.933,5.933,0,0,1-1.815-1.218c-.231-.335-.786-.017-.55.321" transform="translate(9.723 78.069)" fill="#14543f"/>
        <path id="Trazado_925191" data-name="Trazado 925191" d="M12.365,39.874a27.96,27.96,0,0,0,7.71,1.883,17.545,17.545,0,0,0,7.524-.226c-.132-.13-.262-.262-.392-.392l-1,3.247a10.5,10.5,0,0,1-.567,1.844c-.1.186.234-.045-.282.2-1.223.581-2.407,1.271-3.605,1.906l-1.717.9c-.155.082-.307.18-.468.248-.33.138.271.076.132.045a12.447,12.447,0,0,1-2.723-1.491c-1.291-.724-2.6-1.449-3.822-2.28-.276-.189-.781-.448-.888-.755a6.229,6.229,0,0,1,.211-1.914q.186-1.746.364-3.493c.042-.406-.595-.406-.637,0l-.313,3.011c-.076.71-.488,1.984-.242,2.667.206.572,1.136,1.009,1.6,1.311,1.147.739,2.342,1.412,3.535,2.08,1.1.615,2.278,1.8,3.481,1.17,1.111-.578,2.213-1.167,3.318-1.75a10.842,10.842,0,0,0,2.421-1.28,5.24,5.24,0,0,0,.767-2.1q.52-1.7,1.043-3.4a.321.321,0,0,0-.392-.392,17.342,17.342,0,0,1-7.594.161,27.137,27.137,0,0,1-7.149-1.753c-.366-.18-.691.372-.321.55" transform="translate(21.053 71.46)" fill="#14543f"/>
        <path id="Trazado_925192" data-name="Trazado 925192" d="M7.162,35.382a11.175,11.175,0,0,0,4.327-.3c.268-.045.155-.457-.113-.409a10.73,10.73,0,0,1-4.1.3c-.268-.059-.381.352-.113.409" transform="translate(12.748 63.067)" fill="#016fc2"/>
        <path id="Trazado_925193" data-name="Trazado 925193" d="M16.559,34.851a8.6,8.6,0,0,1,.369,6.289c-.082.262.327.372.412.113a9.031,9.031,0,0,0-.414-6.616c-.113-.248-.479-.034-.366.214" transform="translate(30.079 62.8)" fill="#016fc2"/>
        <path id="Trazado_925194" data-name="Trazado 925194" d="M19.009,38.738a36.343,36.343,0,0,0,3.371-6.757c.11-.248-.257-.465-.366-.214a36.342,36.342,0,0,1-3.371,6.757c-.161.223.209.434.366.214" transform="translate(33.836 57.577)" fill="#016fc2"/>
        <path id="Trazado_925195" data-name="Trazado 925195" d="M56.807,28.425s1.731,1.051,1.274,1.556-5.065,3.591-5.629,3.428-1.362-1.573-3.025-2.886-1.962-3.4-1.55-3.732A2.616,2.616,0,0,1,49,26.381s-.206-.826.877-1.06c0,0,.093-.716,1.122-.916a3.222,3.222,0,0,1,1.906-1.26c1.283-.285,4.493,3.515,4.49,3.884s-.49.817-.592,1.4" transform="translate(86.78 42.07)" fill="#e1563a"/>
        <path id="Trazado_925196" data-name="Trazado 925196" d="M71.716,73.056c.228.775,2.23,7.27,1.288,7.546A165.2,165.2,0,0,1,56.02,81.8c-.758-.211,1.063-2.681,1.669-2.892a40.092,40.092,0,0,0,5-2.678,18.554,18.554,0,0,0,1.139-2.187Z" transform="translate(101.562 132.879)" fill="#016fc2"/>
        <path id="Trazado_925197" data-name="Trazado 925197" d="M73.413,74.612s1.779,4.5,1.474,4.922-19.334,0-19.334,0,1.178-1.829,1.387-2.123,10.216.068,11.275-.245a53.249,53.249,0,0,0,5.2-2.554" transform="translate(101.043 135.709)" fill="#6caee3"/>
        <path id="Trazado_925198" data-name="Trazado 925198" d="M85.129,73.056c.228.775,2.23,7.27,1.288,7.546a165.2,165.2,0,0,1-16.984,1.2c-.758-.211,1.063-2.681,1.669-2.892a40.094,40.094,0,0,0,5-2.678,18.553,18.553,0,0,0,1.139-2.187Z" transform="translate(125.958 132.879)" fill="#016fc2"/>
        <path id="Trazado_925199" data-name="Trazado 925199" d="M86.826,74.612s1.779,4.5,1.474,4.922-19.334,0-19.334,0,1.178-1.829,1.387-2.123,10.216.068,11.275-.245a53.252,53.252,0,0,0,5.2-2.554" transform="translate(125.439 135.709)" fill="#6caee3"/>
        <path id="Trazado_925200" data-name="Trazado 925200" d="M63.482,42.934V54.286S57.675,83.326,57.41,92.3s1.849,40.126,1.849,40.126H71.4s5.807-22.7,4.223-26.663S72.195,93.1,72.195,93.1,78.65,63,79.442,63.269s.451.476.451.476,2.6,25.124,4.445,31.726S94.371,132.43,94.371,132.43s13.2.53,15.577-2.376c0,0-2.421-27.825-4.268-30.463s-5.237-8.079-5.237-8.079-2.9-31.193-3.433-35.926S93.843,41.35,93.843,41.35s-30.1,5.545-30.362,1.584" transform="translate(104.378 75.21)" fill="#27a77e"/>
        <path id="Trazado_925201" data-name="Trazado 925201" d="M63.317,43.529c.2,1.736.412,3.473.646,5.206A46.845,46.845,0,0,0,64.8,54.2c.265,1.012.713,1.266,1.739,1.139.595-.073.609-.051.871.471a7.179,7.179,0,0,1,.386,1.291,28.363,28.363,0,0,1,.6,2.822c.042.271.454.155.409-.113a27.822,27.822,0,0,0-1.232-4.84.217.217,0,0,0-.206-.158,4.486,4.486,0,0,1-1.322.163c-.623-.172-.8-.688-.9-1.223-.206-1.1-.358-2.218-.519-3.329-.33-2.295-.617-4.595-.882-6.895-.031-.268-.457-.271-.426,0" transform="translate(115.161 78.807)" fill="#14543f"/>
        <path id="Trazado_925202" data-name="Trazado 925202" d="M63.362,49.23c1.86.231,3.718.468,5.578.7.271.034.268-.392,0-.426-1.86-.231-3.718-.468-5.578-.7-.271-.034-.268.392,0,.426" transform="translate(114.879 88.765)" fill="#14543f"/>
        <path id="Trazado_925203" data-name="Trazado 925203" d="M69.527,42.386q.7,5.755,1.426,11.507,1.4,11.158,2.895,22.308c.445,3.273.9,6.543,1.393,9.807.288,1.889.521,3.82.984,5.677a12.436,12.436,0,0,0,1.643,3.166c1.167,1.953,2.7,4.07,3.239,6.311a56.3,56.3,0,0,1,.956,8.569c.324,4,.592,8.008.885,12.014a78.229,78.229,0,0,0,.716,8,1.933,1.933,0,0,0,.155.592c.13.242.5.028.366-.214a6.12,6.12,0,0,1-.3-2.066c-.144-1.432-.254-2.867-.364-4.3-.3-3.944-.558-7.89-.86-11.836-.245-3.211-.454-6.444-.925-9.635a11.025,11.025,0,0,0-1.122-3.445c-.646-1.3-1.387-2.543-2.131-3.786a22.208,22.208,0,0,1-1.7-2.982,20.97,20.97,0,0,1-.846-4.352c-.471-2.943-.885-5.894-1.294-8.846-1.04-7.524-2.01-15.058-2.96-22.6q-.571-4.507-1.13-9.02c-.186-1.525-.242-3.146-.569-4.648a1.875,1.875,0,0,1-.028-.22c-.034-.268-.459-.271-.426,0" transform="translate(126.456 76.728)" fill="#14543f"/>
        <path id="Trazado_925204" data-name="Trazado 925204" d="M67.048,25.264S54.5,36.655,55.556,37.6s4.75,17.35,5.034,18.241,9.057-3.944,9.057-3.944L68.072,25.281Z" transform="translate(100.932 45.952)" fill="#a1cdf0"/>
        <path id="Trazado_925205" data-name="Trazado 925205" d="M71.1,24.6s-10.8,5.457-12.561,9.153,2.111,15.839,1.759,17.95,0,23.058.175,23.76,1.235,2.994,2.906,3.521,3.783.527,14.695,0,14.714-3.772,14.714-3.772,4.293-4.851,3.941-5.731S94.44,54.518,94.44,52.759s-.178-26.4-1.937-28.16-13.728-1.452-13.728-1.452Z" transform="translate(105.628 42.065)" fill="#a1cdf0"/>
        <path id="Trazado_925206" data-name="Trazado 925206" d="M59.333,30.1s-.386,26.669,0,30.976c.4,4.488-.175,8.936.727,9.156s18.32,3.166,25.184-.18,5.564-3.772,5.564-3.772a17.844,17.844,0,0,1-7.5-12.772c-.7-8.448.172-24.112-1.409-25.167S59.358,29.21,59.333,30.1" transform="translate(107.605 50.993)" fill="#27a77e"/>
        <path id="Trazado_925207" data-name="Trazado 925207" d="M65.575,24.435s-5.071,1.077-5.139,3.391c0,0-2.968,9-.64,11.467s3.594-3.481,3.594-3.481-.149-9,2.185-11.377" transform="translate(107.139 44.444)" fill="#27a77e"/>
        <path id="Trazado_925208" data-name="Trazado 925208" d="M68.614,23.313s-3.12,11.746-2.943,13.815,4.406.307,4.406.307.877-10.909,3.521-13.9c0,0-4.795-.95-4.984-.22" transform="translate(119.432 41.902)" fill="#27a77e"/>
        <path id="Trazado_925209" data-name="Trazado 925209" d="M49.366,28.663S57.479,50.112,59.59,51.4s5.632,3.228,8.626,1.469S75.432,44.6,75.432,44.6l-21.3-18.92-2.4,1.937Z" transform="translate(89.789 46.705)" fill="#f7a98f"/>
        <path id="Trazado_925210" data-name="Trazado 925210" d="M85.5,33.869,75.221,39.18s-19.3-15.03-20.713-14.328a34.492,34.492,0,0,0-4.575,3.594S68.368,48.961,70.942,50.9s8.1,4.082,16.251-1.652S85.5,33.869,85.5,33.869" transform="translate(90.821 45.158)" fill="#f7a98f"/>
        <path id="Trazado_925211" data-name="Trazado 925211" d="M83.86,23.314c-.693.034-23.01,13.984-22.585,15.216s5.88,16.017,6.76,16.017,19.1-8.457,20.375-13.733,2.932-17.866-4.55-17.5" transform="translate(111.439 42.391)" fill="#a1cdf0"/>
        <path id="Trazado_925212" data-name="Trazado 925212" d="M48.621,30.867l5.629-4.045a2.729,2.729,0,0,0-1.937-2.644L46.62,28.443a2.523,2.523,0,0,0,2,2.424" transform="translate(84.795 43.977)" fill="#001c31"/>
        <path id="Trazado_925213" data-name="Trazado 925213" d="M46.211,30.481l5.127-3.958-.513-.654-5.077,3.975-.437-.5-.479,1.19c-.161.378.259.753.665.7l1.156-.161Z" transform="translate(81.48 47.053)" fill="#a1cdf0"/>
        <path id="Trazado_925214" data-name="Trazado 925214" d="M50.189,26.657c5.688,6.379,11.368,12.781,17.274,18.96.615.643,1.232,1.288,1.875,1.906a3.077,3.077,0,0,0,.944.772c.259.087.372-.324.113-.412a3.714,3.714,0,0,1-.823-.724c-.547-.53-1.077-1.08-1.6-1.629-1.635-1.7-3.236-3.439-4.834-5.178q-5.2-5.666-10.32-11.4-1.163-1.294-2.323-2.6c-.183-.2-.482.1-.3.3" transform="translate(91.185 47.815)" fill="#7c4415"/>
        <path id="Trazado_925215" data-name="Trazado 925215" d="M60.481,29.828A4.527,4.527,0,0,0,58,33.312c-.034.271.395.268.426,0a4.1,4.1,0,0,1,2.266-3.118c.248-.121.031-.488-.211-.366" transform="translate(105.49 54.209)" fill="#7c4415"/>
        <path id="Trazado_925216" data-name="Trazado 925216" d="M63.079,40.416c.355.829,1.026,2.861,2.19,2.526a15.719,15.719,0,0,0,2.173-.961q1.746-.812,3.47-1.674c2.528-1.26,5-2.619,7.408-4.1,2.6-1.6,5.252-3.414,6.839-6.089a.212.212,0,0,0-.366-.214c-1.55,2.61-4.149,4.378-6.686,5.936q-3.12,1.915-6.379,3.58c-1.9.967-3.825,1.911-5.779,2.777-.786.347-1.057.592-1.6-.245a11.657,11.657,0,0,1-.9-1.751c-.107-.251-.474-.034-.366.214" transform="translate(114.695 54.208)" fill="#016fc2"/>
        <path id="Trazado_925217" data-name="Trazado 925217" d="M61.684,38.052c-.048-.271.008-.786-.223-.49a1.565,1.565,0,0,1,.386-.242q1.006-.638,2.01-1.291,3.717-2.414,7.352-4.953c3.628-2.543,7.374-4.927,11.233-7.106.24-.132.025-.5-.214-.366-7.275,4.1-13.922,9.164-20.989,13.6a.222.222,0,0,0-.1.242c.042.24.087.482.132.724.048.271.457.155.409-.113" transform="translate(111.199 42.878)" fill="#016fc2"/>
        <path id="Trazado_925218" data-name="Trazado 925218" d="M59.726,26.7a3.719,3.719,0,0,1,3.555-.671c.257.093.369-.316.113-.412a4.144,4.144,0,0,0-3.969.781c-.211.172.09.471.3.3" transform="translate(107.953 46.192)" fill="#14543f"/>
        <path id="Trazado_925219" data-name="Trazado 925219" d="M66.586,25.4c1.037-.5,3.143-1.525,4.209-.727.217.166.431-.2.214-.366-1.223-.916-3.456.152-4.637.727-.248.118-.031.485.214.366" transform="translate(120.521 43.561)" fill="#14543f"/>
        <path id="Trazado_925220" data-name="Trazado 925220" d="M76.547,16.05a1.376,1.376,0,0,1,1.232,1.328c.144,1,.307,2.038.417,3.013a14.959,14.959,0,0,1-1.542,8.059,29.67,29.67,0,0,0-2.049,4.693,3.576,3.576,0,0,0-2.01-2.909c-1.979-.939-7.566-2.224-9.525-3.2-3.053-1.519-2.994-2.018-3.9-5.579a4.324,4.324,0,0,1,.953-2.452c.736-.865,2.6-.471,3.586-.772a49.141,49.141,0,0,1,5.35-1.263c1.657-.31,3.332-.575,5.009-.733a11.022,11.022,0,0,1,2.475-.189" transform="translate(107.594 29.134)" fill="#7c4415"/>
        <path id="Trazado_925221" data-name="Trazado 925221" d="M70.75,19.377s1.421,10.311,2.655,11.2S72,35.484,67.717,37.308,61.16,33.8,62.088,33.8c2.72,0,.84-4.1.685-5.243s7.977-9.178,7.977-9.178" transform="translate(112.554 35.245)" fill="#f7a98f"/>
        <path id="Trazado_925222" data-name="Trazado 925222" d="M68.274,16.62c.014,0,1.037,2.512,1.128,2.712a5.289,5.289,0,0,0,2.007,2.438c1.147.764,1.908-1.319,2.768-1.784.927-.5,1.432-.121,1.714.716a4.66,4.66,0,0,1-.524,3.521c-.7,1.407-1.1.584-1.939,1.666,0,0-.059,4.09-.978,5.443-.629.927-5.263,3.636-6.675,3.741s-5.5-7.022-5.705-10.007-.366-5,1.683-6.21a31.251,31.251,0,0,1,6.523-2.235" transform="translate(109.049 30.23)" fill="#f7a98f"/>
        <path id="Trazado_925223" data-name="Trazado 925223" d="M77.934,21.593s.025-.149.051-.414c.124-1.184-1.049-5.254-2.833-6.568-2.176-1.607-7.033-1.192-11.442.361s-4.533,7.278-4.482,8.535,18.706-1.914,18.706-1.914" transform="translate(107.715 24.716)" fill="#dc6501"/>
        <path id="Trazado_925224" data-name="Trazado 925224" d="M80.772,17.154l-9.094,1.364s-9.519.778-13.987,3.571l.056-1.153a9.247,9.247,0,0,1,7.219-4.163,58.169,58.169,0,0,1,8.324-.042l7.526-.544Z" transform="translate(104.931 29.443)" fill="#f7931e"/>
        <path id="Trazado_925225" data-name="Trazado 925225" d="M64.526,19.923a1.078,1.078,0,1,1-1.077-1.08,1.077,1.077,0,0,1,1.077,1.08" transform="translate(113.442 34.273)" fill="#001c31"/>
        <path id="Trazado_925226" data-name="Trazado 925226" d="M62.442,20.38A1.078,1.078,0,1,1,61.366,19.3a1.077,1.077,0,0,1,1.077,1.077" transform="translate(109.651 35.11)" fill="#001c31"/>
        <path id="Trazado_925227" data-name="Trazado 925227" d="M61.457,22.341a20.927,20.927,0,0,0,3.794-1.057,10.72,10.72,0,0,1-.956,2.345c-.3.2-1.782.592-2.013.361a10.836,10.836,0,0,1-.826-1.649" transform="translate(111.781 38.713)" fill="#fff"/>
        <path id="Trazado_925228" data-name="Trazado 925228" d="M61.357,21.172a1.021,1.021,0,0,0,1.175.761c.268-.045.155-.454-.113-.409a.589.589,0,0,1-.651-.465c-.062-.268-.471-.155-.412.113" transform="translate(111.588 38.025)" fill="#7c4415"/>
        <path id="Trazado_925229" data-name="Trazado 925229" d="M60.259,19.772a2.9,2.9,0,0,1,2.7-.567c.268.045.383-.364.113-.409a3.348,3.348,0,0,0-3.112.674c-.192.194.11.5.3.3" transform="translate(108.942 34.007)" fill="#001c31"/>
        <path id="Trazado_925230" data-name="Trazado 925230" d="M62.183,19.349a2.785,2.785,0,0,1,2.988-.606c.257.1.366-.313.113-.412a3.214,3.214,0,0,0-3.4.716c-.194.192.1.493.3.3" transform="translate(112.439 32.958)" fill="#001c31"/>
        <path id="Trazado_925231" data-name="Trazado 925231" d="M62.493,19.957a2.977,2.977,0,0,1,2.954-.569.214.214,0,0,0,.113-.412,4.263,4.263,0,0,0-1.815-.166,3.532,3.532,0,0,0-1.553.846c-.211.172.09.474.3.3" transform="translate(112.986 34.137)" fill="#001c31"/>
        <path id="Trazado_925232" data-name="Trazado 925232" d="M60.378,20.526a2.088,2.088,0,0,1,2.864-.569c.254.1.364-.31.113-.412a2.969,2.969,0,0,0-1.844-.282,3.089,3.089,0,0,0-1.435.961c-.186.2.113.5.3.3" transform="translate(109.162 34.933)" fill="#001c31"/>
        <path id="Trazado_925233" data-name="Trazado 925233" d="M62.27,30.807a11.288,11.288,0,0,0,3.817-1.44c1.237-.674,2.929-1.618,3.352-3.073a14.658,14.658,0,0,0,.282-3.989c0-1.006-.02-2.013-.065-3.019-.014-.273-.44-.273-.426,0a35.476,35.476,0,0,1-.076,6.216c-.217,1.621-1.57,2.514-2.9,3.284a11.223,11.223,0,0,1-3.98,1.6c-.268.034-.271.459,0,.426" transform="translate(112.893 34.707)" fill="#7c4415"/>
        <path id="Trazado_925234" data-name="Trazado 925234" d="M67.458,21.211a10.111,10.111,0,0,1,.727-7.228A.216.216,0,0,0,68,13.662a12.109,12.109,0,0,0-5.694,1.6c-1.965,1.378-2.644,3.944-2.616,6.224a.213.213,0,0,0,.426,0c-.028-2.286.691-4.944,2.839-6.125A13.293,13.293,0,0,1,68,14.088c-.062-.107-.124-.214-.186-.319a10.551,10.551,0,0,0-.77,7.555c.059.268.471.155.412-.113" transform="translate(108.57 24.85)" fill="#f7931e"/>
        <path id="Trazado_925235" data-name="Trazado 925235" d="M58.5,29.939c-.178.138-.372.262-.536.417a4.082,4.082,0,0,1-.485.4c-.2.141-.361.324-.569.457a5.86,5.86,0,0,0-.569.378A3.625,3.625,0,0,1,55.78,32a5.073,5.073,0,0,0-.527.355c-.1.076-.214.149-.327.217a3.562,3.562,0,0,0-.321.217c-.161.116-.33.206-.5.313a3.676,3.676,0,0,1-.369.211c-.051.023-.1.054-.149.073-.037-.042-.065-.079-.1-.121-.02-.025-.045-.048-.062-.073a.873.873,0,0,0-.065-.087c-.062-.068-.1-.152-.166-.223-.039-.048-.051-.1-.1-.147s-.087-.1-.13-.152c-.028-.034-.037-.076-.062-.11l-.068-.085c-.045-.054-.09-.107-.132-.164s-.09-.127-.138-.189-.1-.107-.147-.169a3.531,3.531,0,0,0-.324-.383c-.121-.127-.226-.271-.35-.392-.062-.065-.118-.132-.18-.2s-.113-.118-.166-.18a3.873,3.873,0,0,0-.279-.355,1.666,1.666,0,0,1-.138-.178c-.034-.039-.076-.07-.107-.113-.039-.059-.113-.1-.144-.163s.006-.118.028-.178a.269.269,0,0,0,.025-.076c0-.014-.006-.031,0-.045s.014-.02.017-.025c.008-.037,0-.07.008-.107s.028-.059.037-.087a1.242,1.242,0,0,0,.025-.175c0-.042.02-.073.023-.116a.359.359,0,0,0-.017-.11.694.694,0,0,1,0-.132,1.478,1.478,0,0,0-.034-.152,3.885,3.885,0,0,0-.1-.406.3.3,0,0,0-.073-.1.972.972,0,0,1-.144-.223,1.372,1.372,0,0,0-.245-.3c-.048-.048-.11-.087-.163-.132s-.073-.062-.116-.093c-.09-.056-.155-.141-.245-.2a.689.689,0,0,0-.158-.079c-.042-.011-.079-.014-.121-.025a.448.448,0,0,0-.141-.023H49.2a2.461,2.461,0,0,0-.319.068,2.4,2.4,0,0,0-.285.048.118.118,0,0,1-.082.008.082.082,0,0,1-.031-.031.518.518,0,0,1-.065-.257,3.718,3.718,0,0,1,.1-.386c.008-.045.017-.087.023-.13a.9.9,0,0,1,.054-.189,1.047,1.047,0,0,1,.149-.231,1.249,1.249,0,0,1,.242-.259c.1-.07.183-.161.285-.226s.2-.124.3-.178a1.07,1.07,0,0,0,.189-.13.359.359,0,0,0,.07-.1c.025-.039.059-.07.085-.107a.776.776,0,0,1,.135-.169c.124-.11.273-.259.451-.209a.343.343,0,0,0,.226,0c.1-.034.152-.141.2-.223a1.459,1.459,0,0,1,.22-.29,1.8,1.8,0,0,1,.138-.155,1.572,1.572,0,0,1,.135-.1.8.8,0,0,1,.206-.093,1.406,1.406,0,0,1,.18-.07c.073-.023.147-.039.22-.056a.2.2,0,0,0,.079-.028.806.806,0,0,0,.116-.1c.07-.054.144-.1.214-.152.087-.07.161-.155.245-.228a2.86,2.86,0,0,1,.228-.186.844.844,0,0,1,.194-.116c.127-.042.257-.07.383-.107a.385.385,0,0,1,.124-.023.451.451,0,0,1,.158.051,1.477,1.477,0,0,1,.194.079.861.861,0,0,0,.172.076c.1.042.183.116.285.155s.183.113.279.161c.048.023.073.059.121.082a.61.61,0,0,1,.132.079,1.135,1.135,0,0,0,.251.149l.045.031c.031.014.031.006.056,0,.042-.008.1,0,.141-.014.017,0,.025-.017.045-.02s.045,0,.068,0c.056-.011.118-.028.178-.045a.662.662,0,0,1,.288-.014.916.916,0,0,1,.172.093l.051.034.014-.017a.756.756,0,0,1,.079.085,1.227,1.227,0,0,1,.11.127c.087.116.194.217.279.333.1.132.186.279.271.42s.189.307.285.462a1.75,1.75,0,0,1,.132.22c.034.073.093.124.132.2.068.135.195.24.259.381.039.087.09.169.132.259a1.655,1.655,0,0,1,.073.228c.008.042.028.082.037.124s0,.085.008.127c.028.11.023.231.045.347a1.26,1.26,0,0,1,.017.18c0,.054.023.1.023.149v.144a.776.776,0,0,1-.023.183c-.014.09-.006.186-.023.276a.691.691,0,0,0-.023.11.372.372,0,0,0,.017.11,3.8,3.8,0,0,0,.335.71,5.7,5.7,0,0,0,.361.533c.014.02.056.051.059.076s-.037.065-.042.079c-.037.085-.023.186-.073.268a.976.976,0,0,1-.231.226" transform="translate(88.057 41.303)" fill="#d92c09"/>
        <path id="Trazado_925236" data-name="Trazado 925236" d="M49.83,23.553a2.134,2.134,0,0,0-1.128.837c-.2.3-.519,1.032-.265,1.39.175.245.409.141.657.048.8-.31,1.57.733,1.829,1.393.1.254.51.144.412-.113a2.853,2.853,0,0,0-1.773-1.8c-.164-.031-.708.211-.764.18-.155-.082.206-.784.273-.882a1.637,1.637,0,0,1,.871-.64c.259-.085.149-.5-.113-.412" transform="translate(87.93 42.82)" fill="#fff"/>
        <path id="Trazado_925237" data-name="Trazado 925237" d="M52.641,24.772a4.557,4.557,0,0,0-2.551-1.463c-.629-.045-1.257.189-1.311.879a.214.214,0,0,0,.155.206,4.178,4.178,0,0,1,2.427,1.92c.149.228.519.017.366-.214a4.651,4.651,0,0,0-2.681-2.117c.054.07.1.138.158.206.056-.739,1.159-.423,1.536-.257a5.754,5.754,0,0,1,1.6,1.142c.2.186.5-.113.3-.3" transform="translate(88.721 42.387)" fill="#fff"/>
        <path id="Trazado_925238" data-name="Trazado 925238" d="M49.57,24.142c.84-1.61,2.447-.206,3.222.688.178.209.479-.093.3-.3-.987-1.139-2.9-2.495-3.89-.6-.127.242.24.457.366.214" transform="translate(89.447 41.809)" fill="#fff"/>
        <path id="Trazado_925239" data-name="Trazado 925239" d="M50.042,23.9c.237-.211.561-.643.868-.733.691-.209,1.17.3,1.643.679a11.449,11.449,0,0,1,1.536,1.37c.18.206.479-.1.3-.3a9.582,9.582,0,0,0-2.531-2.125c-.885-.445-1.5.254-2.12.809-.2.183.1.485.3.3" transform="translate(90.348 41.199)" fill="#fff"/>
        <path id="Trazado_925240" data-name="Trazado 925240" d="M59.556,45.881c3.5,1.063,7.476,1.113,11.081,1.161a58.846,58.846,0,0,0,15.509-2.007c1.68-.437,3.157-1.976,4.364-3.16.2-.192-.1-.493-.3-.3-1.119,1.1-2.495,2.565-4.028,3.019a48.761,48.761,0,0,1-4.868,1.054,57.805,57.805,0,0,1-18.489.431,20.7,20.7,0,0,1-3.154-.609.214.214,0,0,0-.113.412" transform="translate(108.053 75.505)" fill="#14543f"/>
        <path id="Trazado_925241" data-name="Trazado 925241" d="M60.616,36.821a70.9,70.9,0,0,0,14.664-.8c-.087-.068-.178-.135-.268-.206a50.535,50.535,0,0,1,.35,6.585c-.056.885-1.018,1.573-1.641,2.123a29.663,29.663,0,0,1-3.1,2.368c-.516.344-1.536,1.218-2.2,1.122a4.05,4.05,0,0,1-1.012-.533c-.569-.3-1.139-.615-1.708-.925-1.094-.595-2.187-1.19-3.27-1.8-.736-.417-.806-.891-.956-1.717a53.427,53.427,0,0,1-.654-6.43c-.014-.271-.44-.273-.426,0a61.2,61.2,0,0,0,.606,6.179c.107.665.158,1.6.719,2.049a21.385,21.385,0,0,0,3.137,1.745,26.335,26.335,0,0,0,3.273,1.762c.606.223,1.128-.124,1.669-.434a26.2,26.2,0,0,0,3.216-2.249,11.134,11.134,0,0,0,2.537-2.435c.578-.913.175-2.526.118-3.543q-.1-1.932-.24-3.865a.216.216,0,0,0-.271-.2,70.591,70.591,0,0,1-14.551.784c-.273-.011-.273.414,0,.426" transform="translate(109.862 64.765)" fill="#14543f"/>
      </g>
    </g>
  </g>
</svg>
