<svg xmlns="http://www.w3.org/2000/svg" width="85" height="85.5" viewBox="0 0 85 85.5">
  <g id="img5" transform="translate(-180.025 -1468.5)">
    <circle id="Elipse_11561" data-name="Elipse 11561" cx="42.5" cy="42.5" r="42.5" transform="translate(180.025 1469)" fill="#b0dcad"/>
    <g id="interoperabilidad" transform="translate(177.013 1464.499)">
      <g id="Grupo_1102933" data-name="Grupo 1102933" transform="translate(5.007 4.999)">
        <path id="Trazado_919658" data-name="Trazado 919658" d="M93.524,135.919a1,1,0,1,1,.645,1.888,34.589,34.589,0,0,1-22.444,0,1,1,0,0,1,.65-1.888,32.14,32.14,0,0,0,5.2,1.323,33.2,33.2,0,0,0,10.747,0A32.28,32.28,0,0,0,93.524,135.919Zm.645-63.289a1,1,0,1,1-.645,1.883,32.247,32.247,0,0,0-5.2-1.323,33.2,33.2,0,0,0-10.747,0,32.157,32.157,0,0,0-5.2,1.323,1,1,0,0,1-.65-1.883,33.991,33.991,0,0,1,5.522-1.4,34.413,34.413,0,0,1,11.4,0A33.986,33.986,0,0,1,94.169,72.63ZM50.556,107.468a.993.993,0,0,1-1.982.136c-.028-.363-.047-.763-.061-1.2-.014-.461-.024-.862-.024-1.191a34.7,34.7,0,0,1,.292-4.481v0a34.94,34.94,0,0,1,.861-4.387,1,1,0,0,1,1.925.508,31.835,31.835,0,0,0-.814,4.138h0a33.341,33.341,0,0,0-.268,4.227c0,.443.009.819.019,1.13.009.339.028.716.056,1.12Zm63.769-10.615a1,1,0,0,1,1.925-.508,34.093,34.093,0,0,1,.861,4.387c0,.009,0,.019,0,.033a35.13,35.13,0,0,1,.287,4.453c0,.329,0,.73-.024,1.191-.014.433-.033.833-.056,1.2a1,1,0,0,1-1.986-.136c.028-.4.047-.781.061-1.12q.014-.466.014-1.13a32.935,32.935,0,0,0-.264-4.2l0-.028a31.851,31.851,0,0,0-.819-4.138Z" transform="translate(-42.097 -60.668)" fill="#74c3fc"/>
        <g id="Grupo_1102932" data-name="Grupo 1102932" transform="translate(0 13.006)">
          <path id="Trazado_919659" data-name="Trazado 919659" d="M9.995,408.634H34.967V402.35c0-11.184-24.972-11.184-24.972,0Z" transform="translate(-9.995 -343.208)" fill="#f28d00" fill-rule="evenodd"/>
          <path id="Trazado_919660" data-name="Trazado 919660" d="M9.995,408.989H31.587V402.7c0-5.089-5.164-7.861-10.794-8.318-5.635.457-10.8,3.229-10.8,8.318Z" transform="translate(-9.995 -343.563)" fill="#ff9b0d" fill-rule="evenodd"/>
          <path id="Trazado_919661" data-name="Trazado 919661" d="M38.32,442.93H52.691a.713.713,0,0,0,.711-.711v-8a.713.713,0,0,0-.711-.711H38.32a.717.717,0,0,0-.716.711v8A.717.717,0,0,0,38.32,442.93Z" transform="translate(-33.019 -376.186)" fill="#4b4359" fill-rule="evenodd"/>
          <path id="Trazado_919662" data-name="Trazado 919662" d="M38.32,442.93H49.349a.713.713,0,0,0,.711-.711v-8a.713.713,0,0,0-.711-.711H38.32a.717.717,0,0,0-.716.711v8A.717.717,0,0,0,38.32,442.93Z" transform="translate(-33.019 -376.186)" fill="#574e66" fill-rule="evenodd"/>
          <path id="Trazado_919663" data-name="Trazado 919663" d="M35.574,485.585H50.426a.976.976,0,0,0,.974-.974v-2.292H34.6v2.292A.976.976,0,0,0,35.574,485.585Z" transform="translate(-30.514 -416.892)" fill="#d8cfe0" fill-rule="evenodd"/>
          <path id="Trazado_919664" data-name="Trazado 919664" d="M35.574,485.585H47.084a.976.976,0,0,0,.974-.974v-2.292H34.6v2.292A.976.976,0,0,0,35.574,485.585Z" transform="translate(-30.514 -416.892)" fill="#ebe6ef" fill-rule="evenodd"/>
          <path id="Trazado_919665" data-name="Trazado 919665" d="M351.627,408.634H376.6V402.35c0-11.184-24.972-11.184-24.972,0Z" transform="translate(-294.895 -343.208)" fill="#f24c00" fill-rule="evenodd"/>
          <path id="Trazado_919666" data-name="Trazado 919666" d="M351.626,408.989h21.592V402.7c0-5.089-5.164-7.861-10.8-8.318-5.63.457-10.794,3.229-10.794,8.318v6.284Z" transform="translate(-294.894 -343.563)" fill="#fa5f17" fill-rule="evenodd"/>
          <path id="Trazado_919667" data-name="Trazado 919667" d="M379.952,442.93h14.371a.713.713,0,0,0,.711-.711v-8a.713.713,0,0,0-.711-.711H379.952a.714.714,0,0,0-.716.711v8A.714.714,0,0,0,379.952,442.93Z" transform="translate(-317.919 -376.186)" fill="#4b4359" fill-rule="evenodd"/>
          <path id="Trazado_919668" data-name="Trazado 919668" d="M379.952,442.93h11.029a.713.713,0,0,0,.711-.711v-8a.713.713,0,0,0-.711-.711H379.952a.714.714,0,0,0-.716.711v8A.714.714,0,0,0,379.952,442.93Z" transform="translate(-317.919 -376.186)" fill="#574e66" fill-rule="evenodd"/>
          <path id="Trazado_919669" data-name="Trazado 919669" d="M377.177,485.585h14.856a.976.976,0,0,0,.974-.974v-2.292H376.2v2.292A.98.98,0,0,0,377.177,485.585Z" transform="translate(-315.39 -416.892)" fill="#d8cfe0" fill-rule="evenodd"/>
          <path id="Trazado_919670" data-name="Trazado 919670" d="M377.177,485.585h11.514a.976.976,0,0,0,.974-.974v-2.292H376.2v2.292A.98.98,0,0,0,377.177,485.585Z" transform="translate(-315.39 -416.892)" fill="#ebe6ef" fill-rule="evenodd"/>
          <path id="Trazado_919671" data-name="Trazado 919671" d="M9.995,103H34.967V96.719c0-11.184-24.972-11.184-24.972,0Z" transform="translate(-9.995 -88.331)" fill="#4bb3fd" fill-rule="evenodd"/>
          <path id="Trazado_919672" data-name="Trazado 919672" d="M9.995,103.358H31.587V97.074c0-5.084-5.164-7.856-10.794-8.318-5.635.461-10.8,3.234-10.8,8.318Z" transform="translate(-9.995 -88.685)" fill="#74c3fc" fill-rule="evenodd"/>
          <path id="Trazado_919673" data-name="Trazado 919673" d="M38.32,137.3H52.691a.714.714,0,0,0,.711-.716v-8a.713.713,0,0,0-.711-.711H38.32a.717.717,0,0,0-.716.711v8A.718.718,0,0,0,38.32,137.3Z" transform="translate(-33.019 -121.307)" fill="#4b4359" fill-rule="evenodd"/>
          <path id="Trazado_919674" data-name="Trazado 919674" d="M38.32,137.3H49.349a.714.714,0,0,0,.711-.716v-8a.713.713,0,0,0-.711-.711H38.32a.717.717,0,0,0-.716.711v8A.718.718,0,0,0,38.32,137.3Z" transform="translate(-33.019 -121.307)" fill="#574e66" fill-rule="evenodd"/>
          <path id="Trazado_919675" data-name="Trazado 919675" d="M35.574,179.958H50.426a.98.98,0,0,0,.974-.974v-2.3H34.6v2.3a.979.979,0,0,0,.974.974Z" transform="translate(-30.514 -162.014)" fill="#d8cfe0" fill-rule="evenodd"/>
          <path id="Trazado_919676" data-name="Trazado 919676" d="M35.574,179.958H47.084a.98.98,0,0,0,.974-.974v-2.3H34.6v2.3a.979.979,0,0,0,.974.974Z" transform="translate(-30.514 -162.014)" fill="#ebe6ef" fill-rule="evenodd"/>
          <path id="Trazado_919677" data-name="Trazado 919677" d="M351.627,103H376.6V96.719c0-11.184-24.972-11.184-24.972,0Z" transform="translate(-294.895 -88.331)" fill="#ffb122" fill-rule="evenodd"/>
          <path id="Trazado_919678" data-name="Trazado 919678" d="M351.626,103.358h21.592V97.074c0-5.084-5.164-7.856-10.8-8.318-5.63.461-10.794,3.234-10.794,8.318v6.284Z" transform="translate(-294.894 -88.685)" fill="#ffc738" fill-rule="evenodd"/>
          <path id="Trazado_919679" data-name="Trazado 919679" d="M379.952,137.3h14.371a.714.714,0,0,0,.711-.716v-8a.713.713,0,0,0-.711-.711H379.952a.714.714,0,0,0-.716.711v8A.715.715,0,0,0,379.952,137.3Z" transform="translate(-317.919 -121.307)" fill="#4b4359" fill-rule="evenodd"/>
          <path id="Trazado_919680" data-name="Trazado 919680" d="M379.952,137.3h11.029a.714.714,0,0,0,.711-.716v-8a.713.713,0,0,0-.711-.711H379.952a.714.714,0,0,0-.716.711v8A.715.715,0,0,0,379.952,137.3Z" transform="translate(-317.919 -121.307)" fill="#574e66" fill-rule="evenodd"/>
          <path id="Trazado_919681" data-name="Trazado 919681" d="M377.177,179.958h14.856a.98.98,0,0,0,.974-.974v-2.3H376.2v2.3a.983.983,0,0,0,.974.974Z" transform="translate(-315.39 -162.014)" fill="#d8cfe0" fill-rule="evenodd"/>
          <path id="Trazado_919682" data-name="Trazado 919682" d="M377.177,179.958h11.514a.98.98,0,0,0,.974-.974v-2.3H376.2v2.3a.983.983,0,0,0,.974.974Z" transform="translate(-315.39 -162.014)" fill="#ebe6ef" fill-rule="evenodd"/>
          <path id="Trazado_919683" data-name="Trazado 919683" d="M160.4,201.634h15.27l6.783,6.783v-6.783h4.5a3.125,3.125,0,0,0,3.116-3.111V183.581a3.126,3.126,0,0,0-3.116-3.116h-15.27l-6.783-6.783v6.783h-4.5a3.122,3.122,0,0,0-3.111,3.116v14.941A3.121,3.121,0,0,0,160.4,201.634Z" transform="translate(-132.825 -159.508)" fill="#e1dae7" fill-rule="evenodd"/>
          <path id="Trazado_919684" data-name="Trazado 919684" d="M160.4,221.041h15.27l2.923,2.923v-2.923h4.5a3.125,3.125,0,0,0,3.116-3.111V202.989a3.126,3.126,0,0,0-3.116-3.116h-15.27l-2.923-2.919v2.919h-4.5a3.122,3.122,0,0,0-3.111,3.116V217.93A3.121,3.121,0,0,0,160.4,221.041Z" transform="translate(-132.825 -178.916)" fill="#ebe6ef" fill-rule="evenodd"/>
        </g>
        <path id="Trazado_919685" data-name="Trazado 919685" d="M182.432,243.817a1,1,0,1,1,0-1.991H205.2a1,1,0,0,1,0,1.991Zm0,10.111a1,1,0,1,1,0-1.991H205.2a1,1,0,0,1,0,1.991Zm0-5.056a1,1,0,1,1,0-1.991H205.2a1,1,0,0,1,0,1.991Z" transform="translate(-152.965 -203.33)" fill="#9992a3"/>
        <path id="Trazado_919686" data-name="Trazado 919686" d="M50.09,60.758A6.988,6.988,0,1,1,43.1,67.744,6.99,6.99,0,0,1,50.09,60.758Zm56.732-50.749a6.986,6.986,0,1,1-6.986,6.986A6.983,6.983,0,0,1,106.822,10.009Zm-56.732,0A6.986,6.986,0,1,1,43.1,16.995a6.987,6.987,0,0,1,6.986-6.986Zm56.732,50.749a6.988,6.988,0,1,1-6.986,6.986A6.986,6.986,0,0,1,106.822,60.758Z" transform="translate(-37.606 -10.009)" fill="#f6b4a8" fill-rule="evenodd"/>
        <path id="Trazado_919687" data-name="Trazado 919687" d="M48.658,75.321a6.991,6.991,0,0,1,0-13.684,6.99,6.99,0,0,1,0,13.684ZM105.39,10.888a6.987,6.987,0,0,1,0,13.679,6.988,6.988,0,0,1,0-13.679Zm-56.732,0a6.987,6.987,0,0,1,0,13.679,6.988,6.988,0,0,1,0-13.679ZM105.39,61.637a6.99,6.99,0,0,1,0,13.684,6.991,6.991,0,0,1,0-13.684Z" transform="translate(-37.605 -10.742)" fill="#f9c9c0" fill-rule="evenodd"/>
      </g>
      <path id="Trazado_919688" data-name="Trazado 919688" d="M14.478,41.187A32.645,32.645,0,0,0,13.469,51.8a1,1,0,0,1-.925,1.061l-.069,0a1,1,0,0,1-.992-.928,34.634,34.634,0,0,1,1.071-11.258,1,1,0,1,1,1.925.51ZM56.433,80.251a32.64,32.64,0,0,1-21.147,0,1,1,0,1,0-.648,1.883,34.64,34.64,0,0,0,22.443,0,1,1,0,1,0-.648-1.883ZM79.175,52.86l.069,0a1,1,0,0,0,.992-.928A34.5,34.5,0,0,0,79.16,40.675a1,1,0,1,0-1.924.513A32.518,32.518,0,0,1,78.25,51.8a1,1,0,0,0,.925,1.061Zm-48.2,24.285v6.289a1,1,0,0,1-1,1H26.891v1.3a1.972,1.972,0,0,1-1.97,1.97H10.065a1.972,1.972,0,0,1-1.97-1.97v-1.3H5.01a1,1,0,0,1-1-1V77.145c0-4.079,2.994-7.267,7.961-8.651a7.981,7.981,0,1,1,11.036,0c4.967,1.384,7.961,4.572,7.961,8.651ZM17.493,68.726a5.99,5.99,0,1,0-5.99-5.99A6,6,0,0,0,17.493,68.726Zm6.9,7.593H10.59v6.12H24.4Zm.5,8.111H10.086V85.7H24.9V84.429Zm4.081-7.284c0-4.218-4.208-6.428-8.248-7.118a7.952,7.952,0,0,1-6.481,0c-4.04.69-8.248,2.9-8.248,7.118v5.293H8.6v-6.4a1.711,1.711,0,0,1,1.706-1.711H24.677a1.713,1.713,0,0,1,1.711,1.711v6.4h2.594V77.145Zm58.723,0v6.289a1,1,0,0,1-1,1h-3.09v1.3a1.97,1.97,0,0,1-1.965,1.97H66.8a1.972,1.972,0,0,1-1.97-1.97v-1.3h-3.09a1,1,0,0,1-1-1V77.145c0-4.079,3-7.267,7.966-8.651a7.981,7.981,0,1,1,11.036,0c4.967,1.384,7.961,4.572,7.961,8.651ZM74.225,68.726a5.99,5.99,0,1,0-5.99-5.99A6,6,0,0,0,74.225,68.726Zm6.9,7.593H67.322v6.12H81.128Zm.5,8.111H66.818v1.276H81.627Zm4.086-7.284c0-4.217-4.208-6.427-8.248-7.118a7.952,7.952,0,0,1-6.481,0c-4.042.69-8.252,2.9-8.252,7.118v5.293h2.6v-6.4a1.711,1.711,0,0,1,1.706-1.711H81.408a1.713,1.713,0,0,1,1.711,1.711v6.4h2.594V77.145ZM4.014,32.68V26.4c0-4.076,2.994-7.265,7.959-8.653a7.981,7.981,0,1,1,11.041,0c4.965,1.388,7.959,4.577,7.959,8.653V32.68a1,1,0,0,1-1,1H26.891v1.3a1.972,1.972,0,0,1-1.97,1.97H10.065a1.972,1.972,0,0,1-1.97-1.97v-1.3H5.01a1,1,0,0,1-1-1ZM24.4,25.569H10.59v6.115H24.4Zm.5,8.106H10.086v1.276H24.9V33.675Zm-7.407-15.7a5.992,5.992,0,1,0-5.99-5.99,6,6,0,0,0,5.99,5.99ZM6.005,31.684H8.6v-6.4a1.708,1.708,0,0,1,1.706-1.706H24.677a1.711,1.711,0,0,1,1.711,1.706v6.4h2.594V26.4c0-4.212-4.2-6.426-8.24-7.121a7.953,7.953,0,0,1-6.5,0c-4.037.7-8.24,2.909-8.24,7.121v5.289ZM87.7,26.4V32.68a1,1,0,0,1-1,1h-3.09v1.3a1.97,1.97,0,0,1-1.965,1.97H66.8a1.972,1.972,0,0,1-1.97-1.97v-1.3h-3.09a1,1,0,0,1-1-1V26.4c0-4.076,3-7.265,7.963-8.653a7.981,7.981,0,1,1,11.041,0C84.711,19.132,87.7,22.32,87.7,26.4ZM74.225,17.977a5.992,5.992,0,1,0-5.99-5.99A6,6,0,0,0,74.225,17.977Zm6.9,7.593H67.322v6.115H81.128Zm.5,8.106H66.818v1.276H81.627Zm4.086-7.28c0-4.212-4.2-6.425-8.241-7.121a7.953,7.953,0,0,1-6.5,0c-4.04.7-8.245,2.909-8.245,7.121v5.289h2.6v-6.4a1.708,1.708,0,0,1,1.706-1.706H81.408a1.711,1.711,0,0,1,1.711,1.706v6.4h2.594V26.4ZM59.138,61.128H55.629v5.783a1,1,0,0,1-1.7.7l-6.492-6.487H32.58a4.116,4.116,0,0,1-4.112-4.112V42.075a4.114,4.114,0,0,1,4.112-4.107h3.509V32.181a1,1,0,0,1,1.7-.7l6.492,6.492H59.138a4.112,4.112,0,0,1,4.107,4.107V57.016a4.114,4.114,0,0,1-4.107,4.112Zm2.116-19.053a2.118,2.118,0,0,0-2.116-2.116H43.868a1,1,0,0,1-.7-.292L38.08,34.584v4.38a1,1,0,0,1-1,1h-4.5a2.121,2.121,0,0,0-2.121,2.116V57.016a2.123,2.123,0,0,0,2.121,2.121H47.85a1,1,0,0,1,.7.291l5.084,5.08V60.133a1,1,0,0,1,1-1h4.5a2.121,2.121,0,0,0,2.116-2.121Zm-4.013,1.419H34.477a1,1,0,1,0,0,1.991H57.241a1,1,0,1,0,0-1.991Zm0,10.111H34.477a1,1,0,1,0,0,1.991H57.241a1,1,0,1,0,0-1.991Zm0-5.056H34.477a1,1,0,1,0,0,1.991H57.241a1,1,0,1,0,0-1.991ZM35.286,18.84a32.642,32.642,0,0,1,21.147,0,1,1,0,0,0,.648-1.883,34.64,34.64,0,0,0-22.443,0,1,1,0,1,0,.648,1.883Z" transform="translate(0 0)"/>
    </g>
  </g>
</svg>
