<svg xmlns="http://www.w3.org/2000/svg" xmlns:xlink="http://www.w3.org/1999/xlink" width="85.025" height="85.5" viewBox="0 0 85.025 85.5">
  <defs>
    <clipPath id="clip-path">
      <path id="path10614" d="M0-682.665H85v85H0Z" transform="translate(0 682.665)"/>
    </clipPath>
  </defs>
  <g id="img6" transform="translate(-600 -1468.5)">
    <circle id="Elipse_11562" data-name="Elipse 11562" cx="42.5" cy="42.5" r="42.5" transform="translate(600.025 1468.5)" fill="#b0dcad"/>
    <g id="g10608" transform="translate(600 2151.665)">
      <g id="g10610" transform="translate(0 -682.665)">
        <g id="g10612" clip-path="url(#clip-path)">
          <g id="g10618" transform="translate(9.546 50.801)">
            <path id="path10620" d="M-463.424-231.712h-65.908a33,33,0,0,1,30.65-32.874q1.143-.08,2.3-.08a32.992,32.992,0,0,1,32.954,32.954" transform="translate(529.332 264.666)" fill="#62dbfb"/>
          </g>
          <g id="g10622" transform="translate(1.244 54.28)">
            <path id="path10624" d="M-128.386-41.463a32.853,32.853,0,0,0-9.958,23.578h-6.971a1.328,1.328,0,0,1-1.33-1.363A41.142,41.142,0,0,1-134.283-47.36l2.786,2.786.4.4Z" transform="translate(146.645 47.36)" fill="#f07181"/>
          </g>
          <g id="g10626" transform="translate(13.607 42.478)">
            <path id="path10628" d="M-203.159,0V8.322a32.84,32.84,0,0,0-23,9.377l-3.078-3.078-.692-.692-2.127-2.127A41.138,41.138,0,0,1-207.823.261,41.588,41.588,0,0,1-203.159,0" transform="translate(232.053 0)" fill="#ffe177"/>
          </g>
          <g id="g10630" transform="translate(42.5 42.478)">
            <path id="path10632" d="M-203.159-82.984l-5.9,5.9a32.84,32.84,0,0,0-23-9.377v-8.322q1.041,0,2.069.051h.007a41.137,41.137,0,0,1,26.818,11.751" transform="translate(232.053 94.786)" fill="#ffc344"/>
          </g>
          <g id="g10634" transform="translate(65.497 54.281)">
            <path id="path10636" d="M-41.46,0l-5.9,5.9A32.856,32.856,0,0,1-37.4,29.474h6.971a1.328,1.328,0,0,0,1.33-1.363A41.143,41.143,0,0,0-41.46,0" transform="translate(47.356)" fill="#91deb6"/>
          </g>
          <g id="g10638" transform="translate(1.246 1.245)">
            <path id="path10640" d="M-580.152-16.1V-3.585a2.3,2.3,0,0,1-2.3,2.289,2.3,2.3,0,0,1-2.3-2.289V-8.975a.664.664,0,0,0-1.132-.471l-21.7,21.584a4.586,4.586,0,0,1-3.256,1.341,4.583,4.583,0,0,1-3.254-1.341L-626.906-.6a1.329,1.329,0,0,0-1.873,0l-29.954,29.79a2.306,2.306,0,0,1-1.629.671,2.3,2.3,0,0,1-1.627-.671,2.282,2.282,0,0,1,0-3.237L-631.1-4.767a4.626,4.626,0,0,1,6.509,0L-611.781,7.97a1.309,1.309,0,0,0,.956.383,1.314,1.314,0,0,0,.916-.383l20.759-20.644a.65.65,0,0,0,.2-.428.666.666,0,0,0-.666-.707h-5.417a2.3,2.3,0,0,1-2.3-2.288,2.3,2.3,0,0,1,2.3-2.289h12.584a2.3,2.3,0,0,1,2.3,2.289" transform="translate(662.662 18.387)" fill="#f07181"/>
          </g>
          <g id="g10642" transform="translate(53.082 6.529)">
            <path id="path10644" d="M-172.191-8.218-193.746,13.05a1.392,1.392,0,0,1-1.947,0l-.986-.981a1.314,1.314,0,0,0,.916-.383L-175-8.958a.65.65,0,0,0,.2-.428h2.133a.683.683,0,0,1,.485,1.169" transform="translate(196.679 9.387)" fill="#eb5569"/>
          </g>
          <g id="g10646" transform="translate(1.246 13.527)">
            <path id="path10648" d="M-259.421-3.444a4.537,4.537,0,0,0-1.18.848l-30.891,30.721a2.28,2.28,0,0,0-.384,2.729l-.511.508a2.306,2.306,0,0,1-1.629.671,2.3,2.3,0,0,1-1.627-.671,2.282,2.282,0,0,1,0-3.237L-264.752-2.6a4.63,4.63,0,0,1,5.331-.848" transform="translate(296.316 3.933)" fill="#eb5569"/>
          </g>
          <g id="g10650" transform="translate(66.569 1.245)">
            <path id="path10652" d="M0-16.1a2.3,2.3,0,0,1,2.3-2.289h4.15A2.3,2.3,0,0,0,4.15-16.1a2.3,2.3,0,0,0,2.3,2.288H2.3A2.3,2.3,0,0,1,0-16.1" transform="translate(0 18.387)" fill="#eb5569"/>
          </g>
          <g id="g10654" transform="translate(40.933 64.932)">
            <path id="path10656" d="M-143.37-15.155a2.152,2.152,0,0,1-.54,1.428l-13.442,15.24h-2.95l-3.458-3.458,16.807-14.825a2.156,2.156,0,0,1,2.952.091,2.148,2.148,0,0,1,.631,1.524" transform="translate(163.76 17.31)" fill="#7ca1b1"/>
          </g>
          <g id="g10658" transform="translate(40.933 64.932)">
            <path id="path10660" d="M-29.183-108.038l16.028-14.138a2.145,2.145,0,0,0-.419-.6,2.156,2.156,0,0,0-2.952-.091l-16.807,14.825,3.458,3.458h2.95l.562-.638Z" transform="translate(33.333 123.403)" fill="#678d98"/>
          </g>
          <g id="g10662" transform="translate(36.274 77.529)">
            <path id="path10664" d="M-87.549-43.774H-100A6.226,6.226,0,0,1-93.774-50a6.226,6.226,0,0,1,6.226,6.226" transform="translate(100 50)" fill="#d8ecfe"/>
          </g>
          <g id="g10666" transform="translate(36.274 77.529)">
            <path id="path10668" d="M-58.366-2.5a6.212,6.212,0,0,0-2.075-.356A6.226,6.226,0,0,0-66.667,3.37h4.15a6.227,6.227,0,0,1,4.15-5.87" transform="translate(66.667 2.856)" fill="#c4e2ff"/>
          </g>
          <g id="g10670" transform="translate(9.546 50.88)">
            <path id="path10672" d="M-215.51,0a37.563,37.563,0,0,0-23.84,32.874h-6.81A33,33,0,0,1-215.51,0" transform="translate(246.159)" fill="#01d0fb"/>
          </g>
          <g id="g10674" transform="translate(1.244 54.28)">
            <path id="path10676" d="M-104.654-22.4A43.48,43.48,0,0,0-114.077,3.33a1.33,1.33,0,0,0,.1.558h-4.233a1.328,1.328,0,0,1-1.33-1.363,41.142,41.142,0,0,1,12.362-28.111l2.786,2.786a2.926,2.926,0,0,1-.264.4" transform="translate(119.538 25.587)" fill="#eb5569"/>
          </g>
          <g id="g10678" transform="translate(13.607 42.739)">
            <path id="path10680" d="M-170.37,0a43.721,43.721,0,0,0-21.411,14.36l-.692-.692-2.127-2.127A41.138,41.138,0,0,1-170.37,0" transform="translate(194.6)" fill="#ffd15c"/>
          </g>
          <g id="g10682" transform="translate(64.253 53.034)">
            <path id="path10684" d="M-56.107-1.614a1.241,1.241,0,0,1-.88-.365,1.245,1.245,0,0,1,0-1.761l5.9-5.9a1.245,1.245,0,0,1,1.761,0,1.245,1.245,0,0,1,0,1.761l-5.9,5.9A1.241,1.241,0,0,1-56.107-1.614Z" transform="translate(57.352 10)"/>
          </g>
          <g id="g10686" transform="translate(12.36 53.034)">
            <path id="path10688" d="M-50.745-49.5a1.241,1.241,0,0,1-.88-.365L-57.6-55.837a1.245,1.245,0,0,1,0-1.761,1.245,1.245,0,0,1,1.761,0l5.972,5.972a1.245,1.245,0,0,1,0,1.761A1.241,1.241,0,0,1-50.745-49.5Z" transform="translate(57.963 57.963)"/>
          </g>
          <g id="g10690" transform="translate(-0.001 41.233)">
            <path id="path10692" d="M-427.992-297.739h-18.873a1.245,1.245,0,0,1-1.245-1.245,1.245,1.245,0,0,1,1.245-1.245h18.873a39.733,39.733,0,0,0-39.925-38.786,39.85,39.85,0,0,0-40.01,38.709l55.252.078a1.245,1.245,0,0,1,1.245,1.245,1.245,1.245,0,0,1-1.245,1.245h-55.167a2.593,2.593,0,0,1-1.852-.784,2.542,2.542,0,0,1-.722-1.863,42.33,42.33,0,0,1,42.5-41.12,42.33,42.33,0,0,1,42.5,41.118,2.542,2.542,0,0,1-.722,1.864A2.593,2.593,0,0,1-427.992-297.739Z" transform="translate(510.417 341.506)"/>
          </g>
          <g id="g10694" transform="translate(8.301 49.556)">
            <path id="path10696" d="M57.153-239.222a1.245,1.245,0,0,1-1.245-1.245A31.745,31.745,0,0,0,24.2-272.176,31.745,31.745,0,0,0-7.51-240.467a1.245,1.245,0,0,1-1.245,1.245A1.245,1.245,0,0,1-10-240.467a34.238,34.238,0,0,1,34.2-34.2,34.238,34.238,0,0,1,34.2,34.2A1.245,1.245,0,0,1,57.153-239.222Z" transform="translate(10 274.666)"/>
          </g>
          <g id="g10698" transform="translate(42.648 63.688)">
            <path id="path10700" d="M-4.079-92.5a1.24,1.24,0,0,1-.823-.311,1.245,1.245,0,0,1-.11-1.757L7.2-108.412a.912.912,0,0,0,.228-.6.9.9,0,0,0-.266-.644.912.912,0,0,0-1.247-.039L-7.931-97.484a1.245,1.245,0,0,1-1.757-.11,1.245,1.245,0,0,1,.11-1.757L4.269-111.565a3.406,3.406,0,0,1,4.656.145,3.378,3.378,0,0,1,1,2.4,3.4,3.4,0,0,1-.851,2.251L-3.145-92.918A1.242,1.242,0,0,1-4.079-92.5Z" transform="translate(10 112.415)"/>
          </g>
          <g id="g10702" transform="translate(41.255 41.255)">
            <path id="path10704" d="M-8.755.791A1.245,1.245,0,0,1-10-.454v-8.3A1.245,1.245,0,0,1-8.755-10,1.245,1.245,0,0,1-7.51-8.755v8.3A1.245,1.245,0,0,1-8.755.791Z" transform="translate(10 10)"/>
          </g>
          <g id="g10706" transform="translate(35.029 76.284)">
            <path id="path10708" d="M3.7-51.284a1.245,1.245,0,0,1-1.245-1.245,4.986,4.986,0,0,0-4.98-4.98,4.986,4.986,0,0,0-4.98,4.98,1.245,1.245,0,0,1-1.245,1.245A1.245,1.245,0,0,1-10-52.529,7.479,7.479,0,0,1-2.529-60a7.479,7.479,0,0,1,7.471,7.471A1.245,1.245,0,0,1,3.7-51.284Z" transform="translate(10 60)"/>
          </g>
          <g id="g10710" transform="translate(0 0)">
            <path id="path10712" d="M-538.943-114.714a3.533,3.533,0,0,1-2.5-1.032,3.5,3.5,0,0,1-1.042-2.5,3.508,3.508,0,0,1,1.04-2.5l30.891-30.722a5.874,5.874,0,0,1,8.265,0l12.806,12.737,19.872-19.652h-4.005a3.543,3.543,0,0,1-3.546-3.533,3.544,3.544,0,0,1,3.546-3.534h12.584a3.544,3.544,0,0,1,3.546,3.534v12.513a3.544,3.544,0,0,1-3.546,3.534,3.545,3.545,0,0,1-3.548-3.534V-153.4l-9.481,9.43a1.245,1.245,0,0,1-1.761,0,1.245,1.245,0,0,1,0-1.761l10.472-10.416a1.905,1.905,0,0,1,2.08-.409,1.9,1.9,0,0,1,1.175,1.763v5.391a1.052,1.052,0,0,0,1.058,1.044,1.051,1.051,0,0,0,1.056-1.044v-12.513a1.051,1.051,0,0,0-1.056-1.044h-12.584a1.051,1.051,0,0,0-1.056,1.044,1.05,1.05,0,0,0,1.056,1.043h5.417a1.9,1.9,0,0,1,1.766,1.181,1.9,1.9,0,0,1-.417,2.082l-20.759,20.645a2.58,2.58,0,0,1-3.628,0l-12.807-12.737a3.378,3.378,0,0,0-4.753,0l-30.891,30.721a1.034,1.034,0,0,0-.307.737,1.03,1.03,0,0,0,.307.735,1.057,1.057,0,0,0,.749.308,1.06,1.06,0,0,0,.751-.309l29.953-29.789a2.58,2.58,0,0,1,3.628,0l12.807,12.735a3.343,3.343,0,0,0,2.376.979,3.35,3.35,0,0,0,2.378-.979l7.109-7.07a1.245,1.245,0,0,1,1.761,0,1.245,1.245,0,0,1,0,1.761l-7.109,7.071a5.825,5.825,0,0,1-4.134,1.7,5.817,5.817,0,0,1-4.133-1.7l-12.806-12.734-30.071,29.79A3.536,3.536,0,0,1-538.943-114.714Z" transform="translate(542.489 165.453)"/>
          </g>
        </g>
      </g>
    </g>
  </g>
</svg>
