<svg xmlns="http://www.w3.org/2000/svg" width="85.025" height="85" viewBox="0 0 85.025 85">
  <g id="img7" transform="translate(-1020 -1468.5)">
    <circle id="Elipse_11563" data-name="Elipse 11563" cx="42.5" cy="42.5" r="42.5" transform="translate(1020.025 1468.5)" fill="#b0dcad"/>
    <g id="escalada" transform="translate(1020 1470.016)">
      <g id="Grupo_1102948" data-name="Grupo 1102948" transform="translate(5.03 1.338)">
        <g id="Grupo_1102936" data-name="Grupo 1102936" transform="translate(37.469 8.029)">
          <path id="Trazado_919689" data-name="Trazado 919689" d="M42.464,8.218A7.353,7.353,0,0,0,42.371,7H65.214L59.392,19.619A133.675,133.675,0,0,0,47.416,66.161l-.937,13.1H41.126l-.308-1.245a7.715,7.715,0,0,0-5.045-5.446l-.963-1.94a7.786,7.786,0,0,0,2.623-1.753A7.954,7.954,0,0,0,39.788,63.2l1.124-1.686a9.245,9.245,0,0,0-7.695-14.372H31.759a8.041,8.041,0,0,0,8.029-8.029l1.124-1.686a9.245,9.245,0,0,0-7.695-14.372H31.759a8.041,8.041,0,0,0,8.029-8.029l1.124-1.686a9.2,9.2,0,0,0,1.552-5.125Z" transform="translate(-31.759 -7)" fill="#dfb28b"/>
        </g>
        <g id="Grupo_1102937" data-name="Grupo 1102937" transform="translate(4.015 8.029)">
          <path id="Trazado_919690" data-name="Trazado 919690" d="M32.184,63.2a8.02,8.02,0,0,0,4.978,7.427l-.963,1.94a7.681,7.681,0,0,0-5.045,5.446l-.308,1.245H25.494l-.937-13.1A133.675,133.675,0,0,0,12.58,19.619L6.759,7H29.6a7.353,7.353,0,0,0-.094,1.218,9.2,9.2,0,0,0,1.552,5.125l1.124,1.686a8.035,8.035,0,0,0,8.029,8.029H38.755A9.245,9.245,0,0,0,31.06,37.43l1.124,1.686a8.035,8.035,0,0,0,8.029,8.029H38.755A9.245,9.245,0,0,0,31.06,61.518Z" transform="translate(-6.759 -7)" fill="#dfb28b"/>
        </g>
        <g id="Grupo_1102938" data-name="Grupo 1102938" transform="translate(66.909 34.793)">
          <path id="Trazado_919691" data-name="Trazado 919691" d="M61.788,31.684V71.16H53.759V31.684L57.774,27Z" transform="translate(-53.759 -27)" fill="#ff826e"/>
        </g>
        <g id="Grupo_1102939" data-name="Grupo 1102939" transform="translate(0 34.793)">
          <path id="Trazado_919692" data-name="Trazado 919692" d="M11.788,31.684V71.16H3.759V31.684L7.774,27Z" transform="translate(-3.759 -27)" fill="#ff826e"/>
        </g>
        <g id="Grupo_1102940" data-name="Grupo 1102940" transform="translate(28.102 73.6)">
          <path id="Trazado_919693" data-name="Trazado 919693" d="M43.494,62.691H24.759l.308-1.245A7.681,7.681,0,0,1,30.112,56l4.015,2.676L38.141,56a7.715,7.715,0,0,1,5.045,5.446Z" transform="translate(-24.759 -56)" fill="#b4dd7f"/>
        </g>
        <g id="Grupo_1102941" data-name="Grupo 1102941" transform="translate(26.764 48.175)">
          <path id="Trazado_919694" data-name="Trazado 919694" d="M45.17,46.247a9.2,9.2,0,0,1-1.552,5.125l-1.124,1.686V50.074a2.686,2.686,0,0,0-2.342-2.663l-6.557-.816a2.035,2.035,0,0,1-1.579-1.124l-3.894,1.566a2.671,2.671,0,0,0-1.686,2.476v3.546l-1.124-1.686A9.238,9.238,0,0,1,33.006,37h2.917a9.24,9.24,0,0,1,9.247,9.247Z" transform="translate(-23.759 -37)" fill="#656d78"/>
        </g>
        <g id="Grupo_1102942" data-name="Grupo 1102942" transform="translate(26.764 24.087)">
          <path id="Trazado_919695" data-name="Trazado 919695" d="M32.016,27.471l-3.894,1.566a2.671,2.671,0,0,0-1.686,2.476v3.546l-1.124-1.686A9.238,9.238,0,0,1,33.006,19h2.917a9.245,9.245,0,0,1,7.695,14.372l-1.124,1.686V32.074a2.686,2.686,0,0,0-2.342-2.663l-6.557-.816a2.035,2.035,0,0,1-1.579-1.124Z" transform="translate(-23.759 -19)" fill="#656d78"/>
        </g>
        <g id="Grupo_1102943" data-name="Grupo 1102943" transform="translate(26.764)">
          <path id="Trazado_919696" data-name="Trazado 919696" d="M45.17,10.247a9.2,9.2,0,0,1-1.552,5.125l-1.124,1.686V14.074a2.686,2.686,0,0,0-2.342-2.663l-6.557-.816a2.035,2.035,0,0,1-1.579-1.124l-3.894,1.566a2.671,2.671,0,0,0-1.686,2.476v3.546l-1.124-1.686a9.2,9.2,0,0,1-1.552-5.125,7.353,7.353,0,0,1,.094-1.218A9.078,9.078,0,0,1,26.462,3.7,9.223,9.223,0,0,1,33.006,1h2.917a9.212,9.212,0,0,1,9.153,8.029,7.353,7.353,0,0,1,.094,1.218Z" transform="translate(-23.759 -1)" fill="#b27946"/>
        </g>
        <g id="Grupo_1102944" data-name="Grupo 1102944" transform="translate(33.455 71.66)">
          <path id="Trazado_919697" data-name="Trazado 919697" d="M32.774,55.152l3.051-.6.963,1.94-4.015,2.676L28.759,56.49l.963-1.94a7.952,7.952,0,0,0,3.051.6Z" transform="translate(-28.759 -54.55)" fill="#f0d0b4"/>
        </g>
        <g id="Grupo_1102945" data-name="Grupo 1102945" transform="translate(29.44 56.645)">
          <path id="Trazado_919698" data-name="Trazado 919698" d="M41.817,47.933v2.984a7.954,7.954,0,0,1-2.355,5.674,7.786,7.786,0,0,1-2.623,1.753l-3.051.6a8.029,8.029,0,0,1-8.029-8.029V47.371A2.671,2.671,0,0,1,27.445,44.9l3.894-1.566a2.035,2.035,0,0,0,1.579,1.124l6.557.816a2.686,2.686,0,0,1,2.342,2.663Z" transform="translate(-25.759 -43.33)" fill="#f0d0b4"/>
        </g>
        <g id="Grupo_1102946" data-name="Grupo 1102946" transform="translate(29.44 32.558)">
          <path id="Trazado_919699" data-name="Trazado 919699" d="M41.817,29.933v2.984a8.041,8.041,0,0,1-8.029,8.029,8.035,8.035,0,0,1-8.029-8.029V29.371A2.671,2.671,0,0,1,27.445,26.9l3.894-1.566a2.035,2.035,0,0,0,1.579,1.124l6.557.816a2.686,2.686,0,0,1,2.342,2.663Z" transform="translate(-25.759 -25.33)" fill="#f0d0b4"/>
        </g>
        <g id="Grupo_1102947" data-name="Grupo 1102947" transform="translate(29.44 8.471)">
          <path id="Trazado_919700" data-name="Trazado 919700" d="M41.817,11.933v2.984a8.041,8.041,0,0,1-8.029,8.029,8.035,8.035,0,0,1-8.029-8.029V11.371A2.671,2.671,0,0,1,27.445,8.9L31.339,7.33a2.035,2.035,0,0,0,1.579,1.124l6.557.816a2.686,2.686,0,0,1,2.342,2.663Z" transform="translate(-25.759 -7.33)" fill="#f0d0b4"/>
        </g>
      </g>
      <g id="Grupo_1102949" data-name="Grupo 1102949">
        <path id="Trazado_919701" data-name="Trazado 919701" d="M31.543,50.239h-.784v2.676h.784a5.868,5.868,0,0,0,4.178-1.73l-1.894-1.892a3.206,3.206,0,0,1-2.284.946Z" transform="translate(10.402 16.67)"/>
        <path id="Trazado_919702" data-name="Trazado 919702" d="M31.543,32.239h-.784v2.676h.784a5.868,5.868,0,0,0,4.178-1.73l-1.894-1.892a3.206,3.206,0,0,1-2.284.946Z" transform="translate(10.402 10.583)"/>
        <path id="Trazado_919703" data-name="Trazado 919703" d="M31.543,14.239h-.784v2.676h.784a5.868,5.868,0,0,0,4.178-1.73l-1.894-1.892a3.206,3.206,0,0,1-2.284.946Z" transform="translate(10.402 4.495)"/>
        <path id="Trazado_919704" data-name="Trazado 919704" d="M76.288,8.029H52.462A10.592,10.592,0,0,0,42.2,0H39.281A10.594,10.594,0,0,0,29.022,8.029H5.2l6.7,14.514A132.03,132.03,0,0,1,23.751,68.621l1.025,14.347H56.708l1.025-14.348A132,132,0,0,1,69.589,22.542ZM39.281,2.676H42.2a7.9,7.9,0,0,1,7.575,10.162,4.012,4.012,0,0,0-3.186-2.415L40.04,9.6a.728.728,0,0,1-.636-.72.718.718,0,0,1,.213-.513l.733-.735L38.457,5.745l-.733.735a3.379,3.379,0,0,0-1,2.4c0,.037,0,.075,0,.112L33.9,10.129a3.991,3.991,0,0,0-2.274,2.353,7.839,7.839,0,0,1,7.658-9.8ZM42.2,26.764a7.9,7.9,0,0,1,7.575,10.162,4.012,4.012,0,0,0-3.186-2.415l-6.553-.819a.728.728,0,0,1-.636-.72.718.718,0,0,1,.213-.513l.733-.735-1.894-1.892-.733.735a3.379,3.379,0,0,0-1,2.4c0,.037,0,.075,0,.111L33.9,34.216a3.991,3.991,0,0,0-2.274,2.353,7.838,7.838,0,0,1,7.656-9.8H42.2Zm0,24.087a7.9,7.9,0,0,1,7.575,10.162A4.012,4.012,0,0,0,46.593,58.6l-6.553-.819a.728.728,0,0,1-.636-.72.718.718,0,0,1,.213-.513l.733-.735-1.894-1.892-.733.735a3.379,3.379,0,0,0-1,2.4c0,.037,0,.075,0,.112L33.9,58.3a3.991,3.991,0,0,0-2.274,2.353,7.838,7.838,0,0,1,7.656-9.8H42.2Zm.428,23.9-1.89,1.259-1.89-1.259a9.424,9.424,0,0,0,3.779,0Zm-6.061,1.7,4.171,2.781,4.171-2.781a6.315,6.315,0,0,1,3.454,3.849H33.117a6.32,6.32,0,0,1,3.454-3.849Zm4.171-4.18a6.7,6.7,0,0,1-6.691-6.691V62.03a1.334,1.334,0,0,1,.842-1.243L37.868,59.6a3.393,3.393,0,0,0,1.84.836l6.553.819a1.34,1.34,0,0,1,1.172,1.327v2.992A6.7,6.7,0,0,1,40.742,72.262Zm0-24.087a6.7,6.7,0,0,1-6.691-6.691V37.943a1.334,1.334,0,0,1,.842-1.243l2.975-1.191a3.393,3.393,0,0,0,1.84.836l6.553.819a1.34,1.34,0,0,1,1.172,1.327v2.992A6.7,6.7,0,0,1,40.742,48.175Zm0-24.087A6.7,6.7,0,0,1,34.051,17.4V13.856a1.334,1.334,0,0,1,.842-1.243l2.975-1.191a3.393,3.393,0,0,0,1.84.836l6.553.819A1.34,1.34,0,0,1,47.433,14.4V17.4A6.7,6.7,0,0,1,40.742,24.087ZM9.379,10.705H28.708a10.554,10.554,0,0,0,1.768,5.747l.921,1.382a9.347,9.347,0,0,0,3.782,7.08,10.623,10.623,0,0,0-6.157,7.2H18.7q-1.961-5.42-4.381-10.695ZM19.624,34.793h9.084a10.554,10.554,0,0,0,1.768,5.747l.921,1.382A9.347,9.347,0,0,0,35.178,49a10.623,10.623,0,0,0-6.157,7.2H24.986A133.9,133.9,0,0,0,19.624,34.793Zm6.8,33.637c-.229-3.206-.6-6.386-1.054-9.549h3.341a10.554,10.554,0,0,0,1.768,5.747L31.4,66.01a9.359,9.359,0,0,0,4.514,7.571l-.143.286a9.008,9.008,0,0,0-5.379,6.19l-.058.233H27.268Zm27.8,11.862H51.155l-.059-.236a9,9,0,0,0-5.379-6.189l-.143-.286a9.359,9.359,0,0,0,4.514-7.571l.921-1.382a10.532,10.532,0,0,0,1.768-5.747h3.341c-.452,3.163-.826,6.343-1.054,9.549ZM56.5,56.2H52.462A10.619,10.619,0,0,0,46.3,49a9.347,9.347,0,0,0,3.782-7.08l.921-1.382a10.532,10.532,0,0,0,1.768-5.747h9.084A134.478,134.478,0,0,0,56.5,56.2Zm6.283-24.087H52.462a10.619,10.619,0,0,0-6.157-7.2,9.347,9.347,0,0,0,3.782-7.08l.921-1.382a10.532,10.532,0,0,0,1.768-5.747H72.1L67.159,21.422q-2.431,5.269-4.38,10.695Z" transform="translate(1.757)"/>
        <path id="Trazado_919705" data-name="Trazado 919705" d="M68.091,36.017,59.045,25.464,50,36.017l2.033,1.74,1.659-1.936V71.679h2.676V32.7l2.676-3.123L61.721,32.7V71.679H64.4V35.82l1.661,1.936Z" transform="translate(16.909 8.611)"/>
        <path id="Trazado_919706" data-name="Trazado 919706" d="M0,36.017l2.033,1.74L3.692,35.82V71.679H6.368V32.7l2.676-3.123L11.721,32.7V71.679H14.4V35.82l1.661,1.936,2.033-1.74L9.045,25.464Z" transform="translate(0 8.611)"/>
      </g>
    </g>
  </g>
</svg>
