<svg xmlns="http://www.w3.org/2000/svg" xmlns:xlink="http://www.w3.org/1999/xlink" width="400.051" height="350" viewBox="0 0 400.051 350">
  <defs>
    <clipPath id="clip-path">
      <rect id="Rectángulo_404027" data-name="Rectángulo 404027" width="400" height="293.372" fill="none"/>
    </clipPath>
  </defs>
  <g id="img8" transform="translate(-180 -2131)">
    <rect id="Rectángulo_404028" data-name="Rectángulo 404028" width="315" height="350" rx="20" transform="translate(265.051 2131)" fill="#ebf6ea"/>
    <g id="Grupo_1102964" data-name="Grupo 1102964" transform="translate(180 2174.439)">
      <g id="Grupo_1102963" data-name="Grupo 1102963" clip-path="url(#clip-path)">
        <path id="Trazado_919708" data-name="Trazado 919708" d="M395.631,47.282c.059-.936.1-1.878.1-2.829a44.456,44.456,0,0,0-87.03-12.8A38.571,38.571,0,0,0,260.186,73.4a5.442,5.442,0,0,0,5.426,4.758H411.759a5.417,5.417,0,0,0,5.463-5.318v-.056a25.876,25.876,0,0,0-21.591-25.5" transform="translate(-95.696 0)" fill="#e0d4f0"/>
        <path id="Trazado_919709" data-name="Trazado 919709" d="M435.266,111.23a4.461,4.461,0,0,0-6.3-.281l-6.532,5.975V75.269a4.461,4.461,0,0,0-8.921,0v41.656l-6.532-5.975a4.46,4.46,0,1,0-6.021,6.582l14,12.81c.023.021.048.039.071.059s.073.061.111.092a4.32,4.32,0,0,0,.407.3c.02.013.039.028.06.041a4.338,4.338,0,0,0,.51.271c.018.009.034.02.053.028s.056.02.083.032c.087.036.174.068.262.1.053.018.106.037.159.052.09.027.179.05.27.071.053.013.106.027.159.037.1.019.192.032.289.045.048.006.1.015.144.02q.208.021.416.021h.033q.209,0,.416-.021c.049,0,.1-.013.145-.02.1-.013.193-.026.287-.045.054-.011.107-.025.161-.037.09-.021.179-.044.269-.071.054-.016.107-.035.16-.053.088-.03.174-.063.26-.1.028-.011.056-.02.083-.032s.035-.02.054-.028a4.381,4.381,0,0,0,.51-.271c.021-.013.04-.028.061-.041a4.391,4.391,0,0,0,.406-.3c.037-.03.075-.06.111-.092s.049-.039.071-.059l14-12.81a4.461,4.461,0,0,0,.281-6.3" transform="translate(-147.088 -26.07)" fill="#692cb7"/>
        <path id="Trazado_919710" data-name="Trazado 919710" d="M354,84.791l-14-12.81c-.018-.016-.038-.028-.056-.044-.087-.078-.182-.147-.276-.217s-.159-.124-.243-.179-.183-.107-.275-.159-.2-.111-.3-.157c-.023-.011-.042-.025-.065-.035-.07-.031-.142-.049-.213-.076-.109-.042-.219-.084-.331-.117-.094-.028-.19-.047-.285-.068-.113-.025-.226-.051-.341-.068-.1-.014-.193-.019-.291-.027-.116-.009-.23-.018-.346-.018-.1,0-.195.008-.292.015-.114.008-.229.015-.342.031s-.2.038-.3.059-.215.045-.322.076-.208.071-.311.111c-.075.028-.151.047-.225.08-.023.01-.044.025-.067.035-.1.046-.2.1-.293.155s-.189.1-.279.16-.162.118-.243.178-.188.14-.275.218c-.018.016-.039.028-.056.044l-14,12.81a4.46,4.46,0,1,0,6.021,6.582l6.532-5.975v41.656a4.461,4.461,0,0,0,8.921,0V85.4l6.533,5.975A4.46,4.46,0,0,0,354,84.791" transform="translate(-117.272 -26.073)" fill="#692cb7"/>
        <path id="Trazado_919711" data-name="Trazado 919711" d="M310.068,223.113A13.312,13.312,0,1,1,296.756,209.8a13.311,13.311,0,0,1,13.312,13.311" transform="translate(-104.357 -77.244)" fill="#692cb7"/>
        <path id="Trazado_919712" data-name="Trazado 919712" d="M298.572,234.4a1.274,1.274,0,0,1-.946-.421l-6.366-7.059a1.274,1.274,0,1,1,1.893-1.707l5.31,5.887,7.381-10.21a1.274,1.274,0,1,1,2.065,1.493l-8.3,11.488a1.275,1.275,0,0,1-.964.526l-.069,0" transform="translate(-107.113 -81.133)" fill="#fac22d"/>
        <path id="Trazado_919713" data-name="Trazado 919713" d="M428.322,231.4H347a1.275,1.275,0,0,1,0-2.549h81.317a1.275,1.275,0,0,1,0,2.549" transform="translate(-127.289 -84.257)" fill="#692cb7"/>
        <path id="Trazado_919714" data-name="Trazado 919714" d="M310.068,308.265a13.312,13.312,0,1,1-13.312-13.311,13.312,13.312,0,0,1,13.312,13.311" transform="translate(-104.357 -108.594)" fill="#692cb7"/>
        <path id="Trazado_919715" data-name="Trazado 919715" d="M298.572,319.555a1.274,1.274,0,0,1-.946-.421l-6.366-7.059a1.274,1.274,0,1,1,1.893-1.707l5.31,5.887,7.381-10.21a1.274,1.274,0,1,1,2.065,1.493l-8.3,11.488a1.275,1.275,0,0,1-.964.526l-.069,0" transform="translate(-107.113 -112.484)" fill="#fac22d"/>
        <path id="Trazado_919716" data-name="Trazado 919716" d="M428.322,317.157H347a1.275,1.275,0,0,1,0-2.549h81.317a1.275,1.275,0,0,1,0,2.549" transform="translate(-127.289 -115.831)" fill="#692cb7"/>
        <path id="Trazado_919717" data-name="Trazado 919717" d="M310.068,393.417a13.312,13.312,0,1,1-13.312-13.311,13.312,13.312,0,0,1,13.312,13.311" transform="translate(-104.357 -139.945)" fill="#692cb7"/>
        <path id="Trazado_919718" data-name="Trazado 919718" d="M298.572,404.707a1.274,1.274,0,0,1-.946-.421l-6.366-7.059a1.274,1.274,0,1,1,1.893-1.707l5.31,5.887,7.381-10.21a1.274,1.274,0,1,1,2.065,1.493l-8.3,11.488a1.275,1.275,0,0,1-.964.526l-.069,0" transform="translate(-107.113 -143.835)" fill="#fac22d"/>
        <path id="Trazado_919719" data-name="Trazado 919719" d="M428.322,404.455H347a1.275,1.275,0,0,1,0-2.549h81.317a1.275,1.275,0,0,1,0,2.549" transform="translate(-127.289 -147.971)" fill="#692cb7"/>
        <path id="Trazado_919720" data-name="Trazado 919720" d="M579.632,141.315l.806,18.2-9.812-1.1L571,146.231Z" transform="translate(-210.09 -52.028)" fill="#efbd9c"/>
        <path id="Trazado_919721" data-name="Trazado 919721" d="M571.061,152.417s4.4-.953,5.99-2.151a10.535,10.535,0,0,0,2.631-3.352l-8.518,2.45Z" transform="translate(-210.25 -54.09)" fill="#d39e81"/>
        <path id="Trazado_919722" data-name="Trazado 919722" d="M565.651,120.756c-3.056-.687-3.609,3.785-3.694,5.8-.087,2.089.13,4.165.068,5.252-.089,1.567-.372,8.194,3.186,9.607,2.527,1,5.48.14,7.369-.831,2.862-1.473,6.8-4.048,7.086-7.711s-.169-9.084-3.385-9.922Z" transform="translate(-206.891 -44.433)" fill="#efbd9c"/>
        <path id="Trazado_919723" data-name="Trazado 919723" d="M575.305,131.93a7.438,7.438,0,0,0-.025,3.334s7.107-8.452,7.048-11.458c-.057-2.936-.2-6.855-1.607-7.981s-1.659-2.883-2.585-3.535c-.977-.688-3.149-.3-3.149-.3a6.229,6.229,0,0,0-4.445-2.088c-2.486.071-3.582,1.391-4.875,1.5-1.156.1-3.469-1.014-5.668.73-2.068,1.641-2.094,4.778-1.52,6.168s1.256,2.76,2.261,2.531,5.3-1.313,6.965.682,5.544-.128,6.4.738c.83.843-.558,6.593.139,7.087a3.044,3.044,0,0,0,3.042.241c.777-.6-1.978,2.354-1.978,2.354" transform="translate(-205.5 -40.462)" fill="#3a210f"/>
        <path id="Trazado_919724" data-name="Trazado 919724" d="M586.94,141.664c-.875,1.446-2.282,2.2-3.143,1.675s-.849-2.115.026-3.561,1.841-2.424,2.7-1.9,1.29,2.343.414,3.789" transform="translate(-214.704 -50.71)" fill="#efbd9c"/>
        <path id="Trazado_919725" data-name="Trazado 919725" d="M573.365,137.7c-.047.5-.312.892-.591.866s-.467-.456-.42-.96.312-.892.591-.866.467.457.42.961" transform="translate(-210.724 -50.342)" fill="#3a210f"/>
        <path id="Trazado_919726" data-name="Trazado 919726" d="M564.345,136.359c-.047.5-.312.892-.591.866s-.467-.456-.42-.96.312-.892.591-.866c.336.032.467.459.419.961" transform="translate(-207.403 -49.85)" fill="#3a210f"/>
        <path id="Trazado_919727" data-name="Trazado 919727" d="M575.847,132.953c1.257.464,1.762,1.113,1.506,1.505s-1.087.143-2.023-.224-1.743-.931-1.6-1.349.861-.4,2.118.068" transform="translate(-211.226 -48.815)" fill="#3a210f"/>
        <path id="Trazado_919728" data-name="Trazado 919728" d="M563.183,131.181c1.339-.066,2.057.332,1.976.793s-.944.559-1.949.588-1.969-.172-2-.613.636-.7,1.975-.768" transform="translate(-206.622 -48.295)" fill="#3a210f"/>
        <path id="Trazado_919729" data-name="Trazado 919729" d="M568.889,139.354l-.024,0c-.454-.066-.924-.136-1.135-.468a.961.961,0,0,1-.04-.816c.2-.664,1.5-4.973,1.5-4.973l.305.092s-1.3,4.308-1.5,4.972a.686.686,0,0,0,0,.554c.133.209.512.265.914.325a.159.159,0,0,1-.023.317" transform="translate(-208.984 -49.002)" fill="#3a210f"/>
        <path id="Trazado_919730" data-name="Trazado 919730" d="M568.258,146.257a2.873,2.873,0,0,1-2.011-.748.159.159,0,0,1,.226-.224,2.58,2.58,0,0,0,2.8.4.159.159,0,0,1,.2.249,2.043,2.043,0,0,1-1.219.323" transform="translate(-208.461 -53.473)" fill="#3a210f"/>
        <path id="Trazado_919731" data-name="Trazado 919731" d="M564.076,137.367a1.865,1.865,0,0,1-.289-.022,1.922,1.922,0,1,1,.289.022m-.006-3.564a1.62,1.62,0,1,0,.239.017,1.7,1.7,0,0,0-.239-.017" transform="translate(-206.962 -49.145)" fill="#fff"/>
        <path id="Trazado_919732" data-name="Trazado 919732" d="M573.093,138.7a1.838,1.838,0,0,1-.286-.022,1.941,1.941,0,1,1,.57-3.84,1.941,1.941,0,0,1-.284,3.862m0-3.564a1.62,1.62,0,1,0,.239.017,1.7,1.7,0,0,0-.239-.017" transform="translate(-210.283 -49.637)" fill="#fff"/>
        <rect id="Rectángulo_403946" data-name="Rectángulo 403946" width="0.318" height="2.176" transform="translate(358.849 86.699) rotate(-81.569)" fill="#fff"/>
        <rect id="Rectángulo_403947" data-name="Rectángulo 403947" width="7.053" height="0.319" transform="translate(364.542 87.222) rotate(-3.182)" fill="#fff"/>
        <path id="Trazado_919733" data-name="Trazado 919733" d="M590.138,446.134l7.543-.208.224-14.006-7.767.464Z" transform="translate(-217.274 -159.022)" fill="#efbd9c"/>
        <path id="Trazado_919734" data-name="Trazado 919734" d="M581.932,451.591c-1.666,1.656-5.05,2.132-7.453,3.212a17.213,17.213,0,0,0-4,2.365,1.352,1.352,0,0,0,.9,2.371l18.619-.1a1.351,1.351,0,0,0,1.341-1.421l-.348-6.692a9.826,9.826,0,0,1-9.062.265" transform="translate(-209.865 -166.167)" fill="#d6e8ed"/>
        <path id="Trazado_919735" data-name="Trazado 919735" d="M547.094,446.134l7.543-.208.224-14.006-7.767.464Z" transform="translate(-201.426 -159.022)" fill="#efbd9c"/>
        <path id="Trazado_919736" data-name="Trazado 919736" d="M538.888,451.591c-1.666,1.656-5.05,2.132-7.453,3.212a17.215,17.215,0,0,0-4,2.365,1.352,1.352,0,0,0,.9,2.371l18.619-.1a1.351,1.351,0,0,0,1.341-1.421l-.347-6.692a9.826,9.826,0,0,1-9.062.265" transform="translate(-194.017 -166.167)" fill="#d6e8ed"/>
        <path id="Trazado_919737" data-name="Trazado 919737" d="M583.6,274.287,581.2,379.113c-2.8,1.973-8.72,2.18-11.488.1l-8.519-90.387-7.812,90.7c-3.114,1.66-7.474,1.142-10.069-.208l-3.092-94.293V265.391h41.292Z" transform="translate(-198.893 -97.71)" fill="#2f81b7"/>
        <path id="Trazado_919738" data-name="Trazado 919738" d="M600.875,382.667l-.309-109.921h.316l.309,109.921Z" transform="translate(-221.113 -100.418)" fill="#4e9aaf"/>
        <rect id="Rectángulo_403948" data-name="Rectángulo 403948" width="92.009" height="0.316" transform="translate(351.626 282.508) rotate(-83.458)" fill="#4e9aaf"/>
        <path id="Trazado_919739" data-name="Trazado 919739" d="M585.607,242.55c.9-1.124.2-41.873-1.542-48.858-.8-3.219,1.025-10.7,1.319-17.8a15.316,15.316,0,0,0-7.967-14.193c-2.2-1.227-9.22-2.072-9.22-2.072-2,1.969-5.02,4.5-7.233,5.368-2.336-1.022-2.178-3.594-2.376-5.571,0,0-7.624,1.431-11.508,2.3s-4.308,6.845-5.588,15.068c-1.829,11.758-2.764,28.277-2.491,34.6.616,14.31-2.406,28.243-1.355,29.83.887,1.341,14.846-.662,23.98,2.245s23.084.207,23.981-.917" transform="translate(-197.865 -58.694)" fill="#b0dcad"/>
        <rect id="Rectángulo_403949" data-name="Rectángulo 403949" width="11.651" height="1.97" transform="translate(366.576 137.958) rotate(-44.195)" fill="#2f81b7"/>
        <path id="Trazado_919740" data-name="Trazado 919740" d="M584.941,210.911s-1.373,1.58,1.663,1.94,11.5,2.11,15.258,1.286c-.674-6.1,1.5-22.786,1.489-27.227l-11.446-6.68,7.6,20.579-17.154,4.048c-.186,1.608,2.591,6.054,2.591,6.054" transform="translate(-214.403 -66.356)" fill="#3ba935"/>
        <path id="Trazado_919741" data-name="Trazado 919741" d="M545.679,193.612l3.855-8.279-5.946,8.159Z" transform="translate(-200.135 -68.235)" fill="#e1bec5"/>
        <path id="Trazado_919742" data-name="Trazado 919742" d="M570.955,244.456c-.461-10.766-1.581-32.405-.946-40.015.212-2.545.469-6.549.766-11.185.56-8.75,1.258-19.639,1.96-25.051l.316.041c-.7,5.4-1.4,16.285-1.958,25.03-.3,4.637-.554,8.641-.766,11.19-.633,7.593.487,29.216.947,39.976Z" transform="translate(-209.793 -61.929)" fill="#3ba935"/>
        <path id="Trazado_919743" data-name="Trazado 919743" d="M542.025,162.487c-14.161,1.119-26.2,31.378-23.527,36.935s22.938,3.675,22.938,3.675l-7.224-9.827,6.447-17.716Z" transform="translate(-190.76 -59.824)" fill="#b0dcad"/>
        <path id="Trazado_919744" data-name="Trazado 919744" d="M591.6,175.6l10.036,19.908-19.28,2.539c1.8,2.579,2.728,6.2.96,7.822,0,0,27.507,1.65,30.568-4.871,3.157-6.725-8.782-31.049-12.968-34.891a17.951,17.951,0,0,0-9.572-4.374Z" transform="translate(-214.408 -59.546)" fill="#b0dcad"/>
        <path id="Trazado_919745" data-name="Trazado 919745" d="M568.456,218.707H541.642L530.293,180.23h26.813Z" transform="translate(-195.24 -66.356)" fill="#2d3e4f"/>
        <path id="Trazado_919746" data-name="Trazado 919746" d="M581.551,157.828l1.866,1.465-2.063,5.975-1.1-2.11-5.568,1.247c2.019-.947,5.04-3.9,6.869-6.577" transform="translate(-211.583 -58.108)" fill="#3ba935"/>
        <path id="Trazado_919747" data-name="Trazado 919747" d="M569.5,158.229l-2.01,1.133-.649,5.45,2.242-1.295,2.715,1.036c-1.674-1.656-1.833-3.525-2.3-6.324" transform="translate(-208.695 -58.256)" fill="#3ba935"/>
        <path id="Trazado_919748" data-name="Trazado 919748" d="M582,187.67l6.529.123-.253,5.864-2.984,2.457-3.467-2.517Z" transform="translate(-214.215 -69.095)" fill="#d7eed6"/>
        <path id="Trazado_919749" data-name="Trazado 919749" d="M588.6,187.793l-6.529-.123-.059,1.983,6.5.214Z" transform="translate(-214.283 -69.095)" fill="#3ba935"/>
        <path id="Trazado_919750" data-name="Trazado 919750" d="M541.533,223.279c.4.62,4.637.176,4.863-.625.2-.715-.93-.631-2.3-.743,0,0,3.17-.191,3.217-1.017s-3.931-.821-3.931-.821,3.488-.03,3.6-.952-3.871-.677-3.871-.677,3.068-.256,2.856-1.255c-.156-.737-5.626-.531-5.626-.531l-.281-.922s-1.278.464-1.247,1.583a25.511,25.511,0,0,0,2.726,5.958" transform="translate(-198.375 -79.429)" fill="#efbd9c"/>
        <path id="Trazado_919751" data-name="Trazado 919751" d="M589.818,228.969a.4.4,0,1,1-.334-.461.4.4,0,0,1,.334.461" transform="translate(-216.861 -84.129)" fill="#fff"/>
        <path id="Trazado_919752" data-name="Trazado 919752" d="M592.649,228.8a.4.4,0,1,1-.334-.461.4.4,0,0,1,.334.461" transform="translate(-217.904 -84.068)" fill="#fff"/>
        <rect id="Rectángulo_403950" data-name="Rectángulo 403950" width="122.673" height="24.158" transform="translate(12.553 120.051)" fill="#365268"/>
        <rect id="Rectángulo_403951" data-name="Rectángulo 403951" width="3.842" height="3.841" transform="translate(123.133 126.332)" fill="#4c9fd8"/>
        <rect id="Rectángulo_403952" data-name="Rectángulo 403952" width="3.842" height="3.841" transform="translate(116.387 126.332)" fill="#4c9fd8"/>
        <rect id="Rectángulo_403953" data-name="Rectángulo 403953" width="3.842" height="3.841" transform="translate(109.639 126.332)" fill="#4c9fd8"/>
        <path id="Trazado_919753" data-name="Trazado 919753" d="M175.9,215.543h12.6a2.367,2.367,0,1,0,0-4.734H175.9a2.367,2.367,0,0,0,0,4.734" transform="translate(-63.889 -77.614)" fill="#2d3e4f"/>
        <rect id="Rectángulo_403954" data-name="Rectángulo 403954" width="3.842" height="3.841" transform="translate(93.522 126.332)" fill="#4c9fd8"/>
        <rect id="Rectángulo_403955" data-name="Rectángulo 403955" width="3.842" height="3.841" transform="translate(86.775 126.332)" fill="#4c9fd8"/>
        <rect id="Rectángulo_403956" data-name="Rectángulo 403956" width="3.842" height="3.841" transform="translate(80.028 126.332)" fill="#4c9fd8"/>
        <path id="Trazado_919754" data-name="Trazado 919754" d="M129.029,215.543h12.6a2.367,2.367,0,0,0,0-4.734h-12.6a2.367,2.367,0,1,0,0,4.734" transform="translate(-46.634 -77.614)" fill="#2d3e4f"/>
        <rect id="Rectángulo_403957" data-name="Rectángulo 403957" width="3.842" height="3.841" transform="translate(63.91 126.332)" fill="#4c9fd8"/>
        <rect id="Rectángulo_403958" data-name="Rectángulo 403958" width="3.842" height="3.841" transform="translate(57.163 126.332)" fill="#4c9fd8"/>
        <rect id="Rectángulo_403959" data-name="Rectángulo 403959" width="3.842" height="3.841" transform="translate(50.417 126.332)" fill="#4c9fd8"/>
        <path id="Trazado_919755" data-name="Trazado 919755" d="M82.162,215.543h12.6a2.367,2.367,0,1,0,0-4.734h-12.6a2.367,2.367,0,1,0,0,4.734" transform="translate(-29.378 -77.614)" fill="#2d3e4f"/>
        <rect id="Rectángulo_403960" data-name="Rectángulo 403960" width="3.841" height="3.841" transform="translate(34.298 126.332)" fill="#4c9fd8"/>
        <rect id="Rectángulo_403961" data-name="Rectángulo 403961" width="3.841" height="3.841" transform="translate(27.551 126.332)" fill="#4c9fd8"/>
        <rect id="Rectángulo_403962" data-name="Rectángulo 403962" width="3.842" height="3.841" transform="translate(20.805 126.332)" fill="#4c9fd8"/>
        <path id="Trazado_919756" data-name="Trazado 919756" d="M35.295,215.543H47.9a2.367,2.367,0,1,0,0-4.734h-12.6a2.367,2.367,0,1,0,0,4.734" transform="translate(-12.123 -77.614)" fill="#2d3e4f"/>
        <rect id="Rectángulo_403963" data-name="Rectángulo 403963" width="122.673" height="24.158" transform="translate(12.553 214.728)" fill="#365268"/>
        <rect id="Rectángulo_403964" data-name="Rectángulo 403964" width="42.569" height="7.835" transform="translate(70.228 222.889)" fill="#2d3e4f"/>
        <path id="Trazado_919757" data-name="Trazado 919757" d="M188.285,356.688a3.918,3.918,0,1,1,3.917,3.917,3.917,3.917,0,0,1-3.917-3.917" transform="translate(-69.322 -129.881)" fill="#2d3e4f"/>
        <path id="Trazado_919758" data-name="Trazado 919758" d="M71.11,358.056a1.569,1.569,0,1,1,1.569,1.569,1.569,1.569,0,0,1-1.569-1.569" transform="translate(-26.181 -131.249)" fill="#4c9fd8"/>
        <path id="Trazado_919759" data-name="Trazado 919759" d="M58.457,358.056a1.569,1.569,0,1,1,1.569,1.569,1.569,1.569,0,0,1-1.569-1.569" transform="translate(-21.522 -131.249)" fill="#fff"/>
        <path id="Trazado_919760" data-name="Trazado 919760" d="M45.8,358.056a1.569,1.569,0,1,1,1.569,1.569,1.569,1.569,0,0,1-1.569-1.569" transform="translate(-16.864 -131.249)" fill="#4c9fd8"/>
        <path id="Trazado_919761" data-name="Trazado 919761" d="M33.15,358.056a1.569,1.569,0,1,1,1.569,1.569,1.569,1.569,0,0,1-1.569-1.569" transform="translate(-12.205 -131.249)" fill="#fff"/>
        <rect id="Rectángulo_403965" data-name="Rectángulo 403965" width="122.673" height="24.158" transform="translate(12.553 25.409)" fill="#365268"/>
        <rect id="Rectángulo_403966" data-name="Rectángulo 403966" width="6.311" height="6.311" transform="translate(120.547 34.332)" fill="#4c9fd8"/>
        <rect id="Rectángulo_403967" data-name="Rectángulo 403967" width="6.311" height="6.311" transform="translate(107.575 34.332)" fill="#4c9fd8"/>
        <rect id="Rectángulo_403968" data-name="Rectángulo 403968" width="6.311" height="6.311" transform="translate(94.605 34.332)" fill="#4c9fd8"/>
        <rect id="Rectángulo_403969" data-name="Rectángulo 403969" width="6.311" height="6.311" transform="translate(81.633 34.332)" fill="#4c9fd8"/>
        <rect id="Rectángulo_403970" data-name="Rectángulo 403970" width="6.311" height="6.311" transform="translate(33.918 34.332)" fill="#4c9fd8"/>
        <rect id="Rectángulo_403971" data-name="Rectángulo 403971" width="6.311" height="6.311" transform="translate(20.947 34.332)" fill="#4c9fd8"/>
        <path id="Trazado_919762" data-name="Trazado 919762" d="M84.993,60.649H96.016a3.156,3.156,0,1,0,0-6.311H84.993a3.156,3.156,0,1,0,0,6.311" transform="translate(-30.13 -20.006)" fill="#2d3e4f"/>
        <rect id="Rectángulo_403972" data-name="Rectángulo 403972" width="122.673" height="48.316" transform="translate(12.553 238.886)" fill="#426f8e"/>
        <rect id="Rectángulo_403973" data-name="Rectángulo 403973" width="35.118" height="7.835" transform="translate(43.535 249.066)" fill="#2d3e4f"/>
        <path id="Trazado_919763" data-name="Trazado 919763" d="M119.516,413.164a1.569,1.569,0,1,1,1.569,1.569,1.569,1.569,0,0,1-1.569-1.569" transform="translate(-44.003 -151.539)" fill="#fff"/>
        <path id="Trazado_919764" data-name="Trazado 919764" d="M106.863,413.164a1.569,1.569,0,1,1,1.569,1.569,1.569,1.569,0,0,1-1.569-1.569" transform="translate(-39.344 -151.539)" fill="#4c9fd8"/>
        <path id="Trazado_919765" data-name="Trazado 919765" d="M94.21,413.164a1.569,1.569,0,1,1,1.569,1.569,1.569,1.569,0,0,1-1.569-1.569" transform="translate(-34.686 -151.539)" fill="#fff"/>
        <path id="Trazado_919766" data-name="Trazado 919766" d="M81.556,413.164a1.569,1.569,0,1,1,1.569,1.569,1.569,1.569,0,0,1-1.569-1.569" transform="translate(-30.027 -151.539)" fill="#4c9fd8"/>
        <path id="Trazado_919767" data-name="Trazado 919767" d="M68.9,413.164a1.569,1.569,0,1,1,1.569,1.569,1.569,1.569,0,0,1-1.569-1.569" transform="translate(-25.368 -151.539)" fill="#4c9fd8"/>
        <path id="Trazado_919768" data-name="Trazado 919768" d="M176.566,396.073h-40.2a1,1,0,0,1,0-2h40.2a1,1,0,1,1,0,2" transform="translate(-49.838 -145.086)" fill="#658eaa"/>
        <path id="Trazado_919769" data-name="Trazado 919769" d="M176.566,404.341h-40.2a1,1,0,1,1,0-2h40.2a1,1,0,1,1,0,2" transform="translate(-49.838 -148.13)" fill="#658eaa"/>
        <path id="Trazado_919770" data-name="Trazado 919770" d="M176.566,412.608h-40.2a1,1,0,0,1,0-2h40.2a1,1,0,1,1,0,2" transform="translate(-49.838 -151.174)" fill="#658eaa"/>
        <path id="Trazado_919771" data-name="Trazado 919771" d="M176.566,420.875h-40.2a1,1,0,1,1,0-2h40.2a1,1,0,1,1,0,2" transform="translate(-49.838 -154.218)" fill="#658eaa"/>
        <path id="Trazado_919772" data-name="Trazado 919772" d="M176.566,429.142h-40.2a1,1,0,1,1,0-2h40.2a1,1,0,1,1,0,2" transform="translate(-49.838 -157.261)" fill="#658eaa"/>
        <path id="Trazado_919773" data-name="Trazado 919773" d="M176.566,437.409h-40.2a1,1,0,0,1,0-2h40.2a1,1,0,1,1,0,2" transform="translate(-49.838 -160.305)" fill="#658eaa"/>
        <rect id="Rectángulo_403974" data-name="Rectángulo 403974" width="6.311" height="6.311" transform="translate(20.805 249.066)" fill="#4c9fd8"/>
        <rect id="Rectángulo_403975" data-name="Rectángulo 403975" width="6.311" height="6.311" transform="translate(20.805 259.992)" fill="#4c9fd8"/>
        <rect id="Rectángulo_403976" data-name="Rectángulo 403976" width="6.311" height="6.311" transform="translate(20.805 270.879)" fill="#4c9fd8"/>
        <rect id="Rectángulo_403977" data-name="Rectángulo 403977" width="6.311" height="6.311" transform="translate(53.293 270.879)" fill="#4c9fd8"/>
        <rect id="Rectángulo_403978" data-name="Rectángulo 403978" width="6.311" height="6.311" transform="translate(43.518 270.879)" fill="#4c9fd8"/>
        <rect id="Rectángulo_403979" data-name="Rectángulo 403979" width="6.311" height="6.311" transform="translate(63.069 270.879)" fill="#4c9fd8"/>
        <rect id="Rectángulo_403980" data-name="Rectángulo 403980" width="6.311" height="6.311" transform="translate(72.844 270.879)" fill="#4c9fd8"/>
        <path id="Trazado_919774" data-name="Trazado 919774" d="M121.2,214.826a44.393,44.393,0,0,1-9.172-.953c-10.429-2.2-17.891-7.783-19.652-10.863a.478.478,0,1,1,.83-.474c1.674,2.93,8.877,8.262,19.019,10.4,9.27,1.956,23.712,1.786,39.866-10.134a.478.478,0,1,1,.568.768c-11.808,8.714-22.734,11.254-31.459,11.254" transform="translate(-33.989 -74.48)" fill="#fff"/>
        <path id="Trazado_919775" data-name="Trazado 919775" d="M118.774,210.291A18.75,18.75,0,0,1,103.532,203a.478.478,0,1,1,.761-.579,18.037,18.037,0,0,0,16.04,6.858c5.7-.413,10.717-3.081,12.774-6.8a.478.478,0,0,1,.837.463c-2.21,3.994-7.524,6.855-13.541,7.291q-.821.06-1.628.059" transform="translate(-38.082 -74.456)" fill="#fff"/>
        <rect id="Rectángulo_403981" data-name="Rectángulo 403981" width="122.673" height="24.158" transform="translate(12.553 144.209)" fill="#426f8e"/>
        <rect id="Rectángulo_403982" data-name="Rectángulo 403982" width="6.311" height="6.312" transform="translate(38.243 152.969)" fill="#4c9fd8"/>
        <rect id="Rectángulo_403983" data-name="Rectángulo 403983" width="6.311" height="6.312" transform="translate(29.575 152.969)" fill="#4c9fd8"/>
        <rect id="Rectángulo_403984" data-name="Rectángulo 403984" width="6.311" height="6.312" transform="translate(20.908 152.969)" fill="#4c9fd8"/>
        <path id="Trazado_919776" data-name="Trazado 919776" d="M82.081,249.281h67.982a5.222,5.222,0,1,0,0-10.445H82.081a5.222,5.222,0,0,0,0,10.445" transform="translate(-28.298 -87.933)" fill="#4c9fd8"/>
        <rect id="Rectángulo_403985" data-name="Rectángulo 403985" width="21.081" height="3.947" transform="translate(58.201 154.152)" fill="#2d3e4f"/>
        <path id="Trazado_919777" data-name="Trazado 919777" d="M183.564,245.262a3.156,3.156,0,1,0,3.156-3.156,3.156,3.156,0,0,0-3.156,3.156" transform="translate(-67.584 -89.137)" fill="#3c86af"/>
        <path id="Trazado_919778" data-name="Trazado 919778" d="M171.909,246.5a1.024,1.024,0,1,0,1.024-1.024,1.023,1.023,0,0,0-1.024,1.024" transform="translate(-63.292 -90.38)" fill="#fff"/>
        <path id="Trazado_919779" data-name="Trazado 919779" d="M160.109,245.951a1.974,1.974,0,1,0,1.974-1.974,1.974,1.974,0,0,0-1.974,1.974" transform="translate(-58.948 -89.826)" fill="#3c86af"/>
        <path id="Trazado_919780" data-name="Trazado 919780" d="M149.814,245.951a1.974,1.974,0,1,0,1.974-1.974,1.974,1.974,0,0,0-1.974,1.974" transform="translate(-55.158 -89.826)" fill="#3c86af"/>
        <path id="Trazado_919781" data-name="Trazado 919781" d="M139.518,245.951a1.974,1.974,0,1,0,1.974-1.974,1.974,1.974,0,0,0-1.974,1.974" transform="translate(-51.367 -89.826)" fill="#3c86af"/>
        <path id="Trazado_919782" data-name="Trazado 919782" d="M129.222,245.951a1.974,1.974,0,1,0,1.974-1.974,1.974,1.974,0,0,0-1.974,1.974" transform="translate(-47.576 -89.826)" fill="#3c86af"/>
        <path id="Trazado_919783" data-name="Trazado 919783" d="M65.007,211.388c-.2,0-.382-.01-.543-.024-3.878-.346-7.27-4.04-7.892-8.591a.478.478,0,0,1,.947-.13c.563,4.121,3.585,7.461,7.029,7.768s6.44-2.552,8.161-7.851a.478.478,0,0,1,.909.3c-2.426,7.473-6.5,8.532-8.612,8.532" transform="translate(-20.827 -74.456)" fill="#fff"/>
        <path id="Trazado_919784" data-name="Trazado 919784" d="M145.229,208.726c-4.837,0-9.724-2.081-16.039-5.6a.478.478,0,0,1,.466-.836c11.251,6.269,17.789,8.317,29.1.032a.478.478,0,0,1,.565.771c-5.344,3.915-9.7,5.631-14.088,5.631" transform="translate(-47.474 -74.456)" fill="#fff"/>
        <rect id="Rectángulo_403986" data-name="Rectángulo 403986" width="122.673" height="24.158" transform="translate(12.553 49.567)" fill="#426f8e"/>
        <path id="Trazado_919785" data-name="Trazado 919785" d="M198.814,101.045a.478.478,0,0,1-.478-.478V86.587a.478.478,0,1,1,.955,0v13.979a.478.478,0,0,1-.478.478" transform="translate(-73.022 -31.703)" fill="#ffc07b"/>
        <path id="Trazado_919786" data-name="Trazado 919786" d="M190.271,101.045a.478.478,0,0,1-.478-.478V86.587a.478.478,0,1,1,.955,0v13.979a.478.478,0,0,1-.478.478" transform="translate(-69.877 -31.703)" fill="#ffc07b"/>
        <path id="Trazado_919787" data-name="Trazado 919787" d="M181.728,101.045a.478.478,0,0,1-.478-.478V86.587a.478.478,0,1,1,.955,0v13.979a.478.478,0,0,1-.478.478" transform="translate(-66.732 -31.703)" fill="#ffc07b"/>
        <path id="Trazado_919788" data-name="Trazado 919788" d="M173.185,101.045a.478.478,0,0,1-.478-.478V86.587a.478.478,0,1,1,.955,0v13.979a.478.478,0,0,1-.478.478" transform="translate(-63.586 -31.703)" fill="#ffc07b"/>
        <path id="Trazado_919789" data-name="Trazado 919789" d="M164.641,101.045a.478.478,0,0,1-.478-.478V86.587a.478.478,0,1,1,.955,0v13.979a.478.478,0,0,1-.478.478" transform="translate(-60.441 -31.703)" fill="#ffc07b"/>
        <path id="Trazado_919790" data-name="Trazado 919790" d="M156.1,101.045a.478.478,0,0,1-.478-.478V86.587a.478.478,0,1,1,.955,0v13.979a.478.478,0,0,1-.478.478" transform="translate(-57.295 -31.703)" fill="#ffc07b"/>
        <path id="Trazado_919791" data-name="Trazado 919791" d="M147.555,101.045a.478.478,0,0,1-.478-.478V86.587a.478.478,0,1,1,.955,0v13.979a.478.478,0,0,1-.478.478" transform="translate(-54.15 -31.703)" fill="#ffc07b"/>
        <path id="Trazado_919792" data-name="Trazado 919792" d="M119.033,97.014a1.569,1.569,0,1,1,1.569,1.569,1.569,1.569,0,0,1-1.569-1.569" transform="translate(-43.825 -35.14)" fill="#fff"/>
        <path id="Trazado_919793" data-name="Trazado 919793" d="M106.38,97.014a1.569,1.569,0,1,1,1.569,1.569,1.569,1.569,0,0,1-1.569-1.569" transform="translate(-39.166 -35.14)" fill="#fff"/>
        <path id="Trazado_919794" data-name="Trazado 919794" d="M93.726,97.014A1.569,1.569,0,1,1,95.3,98.584a1.569,1.569,0,0,1-1.569-1.569" transform="translate(-34.508 -35.14)" fill="#fff"/>
        <path id="Trazado_919795" data-name="Trazado 919795" d="M81.073,97.014a1.569,1.569,0,1,1,1.569,1.569,1.569,1.569,0,0,1-1.569-1.569" transform="translate(-29.849 -35.14)" fill="#fff"/>
        <path id="Trazado_919796" data-name="Trazado 919796" d="M55.458,101.045a.478.478,0,0,1-.478-.478V86.587a.478.478,0,1,1,.955,0v13.979a.478.478,0,0,1-.478.478" transform="translate(-20.242 -31.703)" fill="#ffc07b"/>
        <path id="Trazado_919797" data-name="Trazado 919797" d="M46.915,101.045a.478.478,0,0,1-.478-.478V86.587a.478.478,0,1,1,.955,0v13.979a.478.478,0,0,1-.478.478" transform="translate(-17.097 -31.703)" fill="#ffc07b"/>
        <path id="Trazado_919798" data-name="Trazado 919798" d="M38.371,101.045a.478.478,0,0,1-.478-.478V86.587a.478.478,0,1,1,.955,0v13.979a.478.478,0,0,1-.478.478" transform="translate(-13.951 -31.703)" fill="#ffc07b"/>
        <path id="Trazado_919799" data-name="Trazado 919799" d="M73.689,75.112a63.326,63.326,0,0,1-19.043-2.978c-9.23-2.982-15.511-7.7-17.231-12.932a.478.478,0,1,1,.908-.3c3.562,10.843,27.064,17.233,43.1,14.672,6.222-1,16.659-4.207,16.659-14.523a.478.478,0,1,1,.955,0c0,8.171-6.2,13.664-17.463,15.466a50.17,50.17,0,0,1-7.881.592" transform="translate(-13.766 -21.566)" fill="#ffc07b"/>
        <path id="Trazado_919800" data-name="Trazado 919800" d="M87.129,71.623c-12.145,0-22.413-4.308-29.1-12.262a.478.478,0,1,1,.732-.615c6.91,8.222,17.786,12.441,30.642,11.87,12.355-.545,24.946-5.634,29.288-11.837a.478.478,0,1,1,.783.548c-4.5,6.423-17.4,11.687-30.029,12.244q-1.17.051-2.319.051" transform="translate(-21.325 -21.566)" fill="#fff"/>
        <rect id="Rectángulo_403987" data-name="Rectángulo 403987" width="12.468" height="261.793" transform="translate(0.085 25.409)" fill="#2d3e4f"/>
        <path id="Trazado_919801" data-name="Trazado 919801" d="M12.843,299h0a.519.519,0,0,1-.517-.522c.005-.893.5-89.7,1.47-126.651.962-36.658-.028-104.667-1.469-128.673a.519.519,0,0,1,.487-.549.513.513,0,0,1,.549.488C14.8,67.114,15.794,135.17,14.832,171.85c-.969,36.937-1.465,125.737-1.47,126.63a.519.519,0,0,1-.519.516" transform="translate(-4.537 -15.684)" fill="#ffc07b"/>
        <path id="Trazado_919802" data-name="Trazado 919802" d="M5.347,299h0a.519.519,0,0,1-.517-.522c.005-.893.5-89.7,1.47-126.651C7.26,135.165,6.27,67.156,4.829,43.15a.519.519,0,0,1,.487-.549.51.51,0,0,1,.549.488C7.307,67.114,8.3,135.17,7.336,171.85c-.969,36.937-1.465,125.737-1.47,126.63a.519.519,0,0,1-.519.516" transform="translate(-1.778 -15.684)" fill="#ffc07b"/>
        <path id="Trazado_919803" data-name="Trazado 919803" d="M4.8,299.361a.519.519,0,0,1-.519-.519c0-.76.006-76.51.49-121.664.277-25.854-.032-48.621-.389-74.983-.242-17.88-.493-36.368-.592-58.086a.519.519,0,0,1,.517-.521h0a.519.519,0,0,1,.519.516c.1,21.713.349,40.2.591,58.077.358,26.368.666,49.14.389,75.008-.484,45.149-.49,120.894-.49,121.653a.519.519,0,0,1-.519.519" transform="translate(-1.397 -16.048)" fill="#ffc07b"/>
        <path id="Trazado_919804" data-name="Trazado 919804" d="M12.273,298.581a.519.519,0,0,1-.519-.506c-1.781-70.338-.468-117.849.4-149.288.323-11.669.577-20.886.577-28.022,0-13.634-.53-28.1-1.043-42.092-.471-12.865-.917-25.016-.917-35.553a.519.519,0,1,1,1.038,0c0,10.519.445,22.66.917,35.515.513,14,1.044,28.477,1.044,42.13,0,7.152-.255,16.374-.578,28.051-.869,31.428-2.183,78.923-.4,149.233a.519.519,0,0,1-.506.532Z" transform="translate(-3.967 -15.684)" fill="#ffc07b"/>
        <path id="Trazado_919805" data-name="Trazado 919805" d="M8.913,298.581a.519.519,0,0,1-.519-.506c-1.781-70.339-.468-117.849.4-149.289.322-11.669.577-20.885.577-28.021,0-13.634-.531-28.1-1.043-42.092-.471-12.865-.917-25.016-.917-35.553a.519.519,0,1,1,1.038,0c0,10.519.445,22.66.916,35.515.513,14,1.044,28.477,1.044,42.13,0,7.151-.255,16.374-.578,28.051-.869,31.428-2.182,78.923-.4,149.234a.52.52,0,0,1-.506.532Z" transform="translate(-2.73 -15.684)" fill="#ffc07b"/>
        <rect id="Rectángulo_403988" data-name="Rectángulo 403988" width="12.468" height="14.699" transform="translate(0.085 38.272)" fill="#2d3e4f"/>
        <rect id="Rectángulo_403989" data-name="Rectángulo 403989" width="12.468" height="14.699" transform="translate(0.085 62.429)" fill="#2d3e4f"/>
        <rect id="Rectángulo_403990" data-name="Rectángulo 403990" width="12.468" height="14.699" transform="translate(0.085 86.588)" fill="#2d3e4f"/>
        <rect id="Rectángulo_403991" data-name="Rectángulo 403991" width="12.468" height="14.699" transform="translate(0.085 110.746)" fill="#2d3e4f"/>
        <rect id="Rectángulo_403992" data-name="Rectángulo 403992" width="12.468" height="14.699" transform="translate(0.085 134.904)" fill="#2d3e4f"/>
        <rect id="Rectángulo_403993" data-name="Rectángulo 403993" width="12.468" height="14.699" transform="translate(0.085 159.062)" fill="#2d3e4f"/>
        <rect id="Rectángulo_403994" data-name="Rectángulo 403994" width="12.468" height="14.699" transform="translate(0.085 183.22)" fill="#2d3e4f"/>
        <rect id="Rectángulo_403995" data-name="Rectángulo 403995" width="12.468" height="14.699" transform="translate(0.085 207.378)" fill="#2d3e4f"/>
        <rect id="Rectángulo_403996" data-name="Rectángulo 403996" width="12.468" height="14.699" transform="translate(0.085 231.536)" fill="#2d3e4f"/>
        <rect id="Rectángulo_403997" data-name="Rectángulo 403997" width="12.468" height="14.699" transform="translate(0.085 255.694)" fill="#2d3e4f"/>
        <rect id="Rectángulo_403998" data-name="Rectángulo 403998" width="12.468" height="7.349" transform="translate(0.085 279.853)" fill="#2d3e4f"/>
        <rect id="Rectángulo_403999" data-name="Rectángulo 403999" width="12.468" height="8.791" transform="translate(0.085 25.409)" fill="#2d3e4f"/>
        <rect id="Rectángulo_404000" data-name="Rectángulo 404000" width="12.468" height="261.793" transform="translate(135.226 25.409)" fill="#2d3e4f"/>
        <path id="Trazado_919806" data-name="Trazado 919806" d="M0,454.352V460.6H1.889l1.681-6.249Z" transform="translate(0 -167.281)" fill="#365268"/>
        <path id="Trazado_919807" data-name="Trazado 919807" d="M231.57,454.352V460.6h-1.9L228,454.352Z" transform="translate(-83.944 -167.281)" fill="#365268"/>
        <rect id="Rectángulo_404001" data-name="Rectángulo 404001" width="122.673" height="37.029" transform="translate(12.489 78.391)" fill="#365268"/>
        <path id="Trazado_919808" data-name="Trazado 919808" d="M135.613,166.945H31.138a5.2,5.2,0,1,1,0-10.395H135.613a5.2,5.2,0,1,1,0,10.395" transform="translate(-9.551 -57.638)" fill="#4c9fd8"/>
        <rect id="Rectángulo_404002" data-name="Rectángulo 404002" width="38.836" height="5.214" transform="translate(21.299 101.503)" fill="#426f8e"/>
        <rect id="Rectángulo_404003" data-name="Rectángulo 404003" width="5.214" height="5.214" transform="translate(120.462 101.503)" fill="#426f8e"/>
        <rect id="Rectángulo_404004" data-name="Rectángulo 404004" width="5.214" height="5.214" transform="translate(111.954 101.503)" fill="#426f8e"/>
        <rect id="Rectángulo_404005" data-name="Rectángulo 404005" width="5.214" height="5.214" transform="translate(103.446 101.503)" fill="#426f8e"/>
        <path id="Trazado_919809" data-name="Trazado 919809" d="M100.525,164.054a1.238,1.238,0,1,1-1.238-1.238,1.238,1.238,0,0,1,1.238,1.238" transform="translate(-36.099 -59.945)" fill="#fff"/>
        <path id="Trazado_919810" data-name="Trazado 919810" d="M109.281,164.054a1.238,1.238,0,1,1-1.238-1.238,1.238,1.238,0,0,1,1.238,1.238" transform="translate(-39.323 -59.945)" fill="#fff"/>
        <path id="Trazado_919811" data-name="Trazado 919811" d="M118.036,164.054a1.238,1.238,0,1,1-1.238-1.238,1.238,1.238,0,0,1,1.238,1.238" transform="translate(-42.546 -59.945)" fill="#fff"/>
        <rect id="Rectángulo_404006" data-name="Rectángulo 404006" width="23.17" height="5.214" transform="translate(77.643 101.503)" fill="#2d3e4f"/>
        <path id="Trazado_919812" data-name="Trazado 919812" d="M122.608,166.063a.478.478,0,0,1-.478-.478V160.37a.478.478,0,1,1,.955,0v5.214a.478.478,0,0,1-.478.478" transform="translate(-44.965 -58.868)" fill="#ffc07b"/>
        <path id="Trazado_919813" data-name="Trazado 919813" d="M126.083,166.063a.478.478,0,0,1-.478-.478V160.37a.478.478,0,1,1,.955,0v5.214a.478.478,0,0,1-.478.478" transform="translate(-46.245 -58.868)" fill="#ffc07b"/>
        <path id="Trazado_919814" data-name="Trazado 919814" d="M135.613,144.14H31.138a5.2,5.2,0,0,1,0-10.395H135.613a5.2,5.2,0,1,1,0,10.395" transform="translate(-9.551 -49.241)" fill="#4c9fd8"/>
        <rect id="Rectángulo_404007" data-name="Rectángulo 404007" width="38.836" height="5.214" transform="translate(21.299 87.093)" fill="#426f8e"/>
        <rect id="Rectángulo_404008" data-name="Rectángulo 404008" width="5.214" height="5.214" transform="translate(120.462 87.093)" fill="#426f8e"/>
        <rect id="Rectángulo_404009" data-name="Rectángulo 404009" width="5.214" height="5.214" transform="translate(111.954 87.093)" fill="#426f8e"/>
        <rect id="Rectángulo_404010" data-name="Rectángulo 404010" width="5.214" height="5.214" transform="translate(103.446 87.093)" fill="#426f8e"/>
        <path id="Trazado_919815" data-name="Trazado 919815" d="M100.525,141.249a1.238,1.238,0,1,1-1.238-1.238,1.238,1.238,0,0,1,1.238,1.238" transform="translate(-36.099 -51.548)" fill="#fff"/>
        <path id="Trazado_919816" data-name="Trazado 919816" d="M109.281,141.249a1.238,1.238,0,1,1-1.238-1.238,1.238,1.238,0,0,1,1.238,1.238" transform="translate(-39.323 -51.548)" fill="#fff"/>
        <path id="Trazado_919817" data-name="Trazado 919817" d="M118.036,141.249a1.238,1.238,0,1,1-1.238-1.238,1.238,1.238,0,0,1,1.238,1.238" transform="translate(-42.546 -51.548)" fill="#fff"/>
        <rect id="Rectángulo_404011" data-name="Rectángulo 404011" width="23.17" height="5.214" transform="translate(77.643 87.093)" fill="#2d3e4f"/>
        <path id="Trazado_919818" data-name="Trazado 919818" d="M122.608,143.258a.478.478,0,0,1-.478-.478v-5.214a.478.478,0,1,1,.955,0v5.214a.478.478,0,0,1-.478.478" transform="translate(-44.965 -50.472)" fill="#ffc07b"/>
        <path id="Trazado_919819" data-name="Trazado 919819" d="M126.083,143.258a.478.478,0,0,1-.478-.478v-5.214a.478.478,0,1,1,.955,0v5.214a.478.478,0,0,1-.478.478" transform="translate(-46.245 -50.472)" fill="#ffc07b"/>
        <path id="Trazado_919820" data-name="Trazado 919820" d="M129.558,143.258a.478.478,0,0,1-.478-.478v-5.214a.478.478,0,1,1,.955,0v5.214a.478.478,0,0,1-.478.478" transform="translate(-47.524 -50.472)" fill="#ffc07b"/>
        <path id="Trazado_919821" data-name="Trazado 919821" d="M133.033,143.258a.478.478,0,0,1-.478-.478v-5.214a.478.478,0,1,1,.955,0v5.214a.478.478,0,0,1-.478.478" transform="translate(-48.803 -50.472)" fill="#ffc07b"/>
        <path id="Trazado_919822" data-name="Trazado 919822" d="M136.209,143.258a.478.478,0,0,1-.478-.478v-5.214a.478.478,0,1,1,.955,0v5.214a.478.478,0,0,1-.478.478" transform="translate(-49.973 -50.472)" fill="#ffc07b"/>
        <path id="Trazado_919823" data-name="Trazado 919823" d="M139.141,143.258a.478.478,0,0,1-.478-.478v-5.214a.478.478,0,1,1,.955,0v5.214a.478.478,0,0,1-.478.478" transform="translate(-51.052 -50.472)" fill="#ffc07b"/>
        <rect id="Rectángulo_404012" data-name="Rectángulo 404012" width="122.673" height="37.029" transform="translate(12.489 173.033)" fill="#365268"/>
        <path id="Trazado_919824" data-name="Trazado 919824" d="M135.613,316.737H31.138a5.2,5.2,0,1,1,0-10.395H135.613a5.2,5.2,0,1,1,0,10.395" transform="translate(-9.551 -112.787)" fill="#4c9fd8"/>
        <rect id="Rectángulo_404013" data-name="Rectángulo 404013" width="38.836" height="5.214" transform="translate(21.299 196.145)" fill="#426f8e"/>
        <rect id="Rectángulo_404014" data-name="Rectángulo 404014" width="5.214" height="5.214" transform="translate(120.462 196.145)" fill="#426f8e"/>
        <rect id="Rectángulo_404015" data-name="Rectángulo 404015" width="5.214" height="5.214" transform="translate(111.954 196.145)" fill="#426f8e"/>
        <rect id="Rectángulo_404016" data-name="Rectángulo 404016" width="5.214" height="5.214" transform="translate(103.446 196.145)" fill="#426f8e"/>
        <path id="Trazado_919825" data-name="Trazado 919825" d="M100.525,313.846a1.238,1.238,0,1,1-1.238-1.238,1.238,1.238,0,0,1,1.238,1.238" transform="translate(-36.099 -115.094)" fill="#fff"/>
        <path id="Trazado_919826" data-name="Trazado 919826" d="M109.281,313.846a1.238,1.238,0,1,1-1.238-1.238,1.238,1.238,0,0,1,1.238,1.238" transform="translate(-39.323 -115.094)" fill="#fff"/>
        <path id="Trazado_919827" data-name="Trazado 919827" d="M118.036,313.846a1.238,1.238,0,1,1-1.238-1.238,1.238,1.238,0,0,1,1.238,1.238" transform="translate(-42.546 -115.094)" fill="#fff"/>
        <rect id="Rectángulo_404017" data-name="Rectángulo 404017" width="23.17" height="5.214" transform="translate(77.643 196.145)" fill="#2d3e4f"/>
        <path id="Trazado_919828" data-name="Trazado 919828" d="M122.608,315.855a.478.478,0,0,1-.478-.478v-5.215a.478.478,0,1,1,.955,0v5.215a.478.478,0,0,1-.478.478" transform="translate(-44.965 -114.017)" fill="#ffc07b"/>
        <path id="Trazado_919829" data-name="Trazado 919829" d="M126.083,315.855a.478.478,0,0,1-.478-.478v-5.215a.478.478,0,1,1,.955,0v5.215a.478.478,0,0,1-.478.478" transform="translate(-46.245 -114.017)" fill="#ffc07b"/>
        <path id="Trazado_919830" data-name="Trazado 919830" d="M135.613,293.932H31.138a5.2,5.2,0,0,1,0-10.395H135.613a5.2,5.2,0,0,1,0,10.395" transform="translate(-9.551 -104.391)" fill="#4c9fd8"/>
        <rect id="Rectángulo_404018" data-name="Rectángulo 404018" width="38.836" height="5.214" transform="translate(21.299 181.736)" fill="#426f8e"/>
        <rect id="Rectángulo_404019" data-name="Rectángulo 404019" width="5.214" height="5.214" transform="translate(120.462 181.736)" fill="#426f8e"/>
        <rect id="Rectángulo_404020" data-name="Rectángulo 404020" width="5.214" height="5.214" transform="translate(111.954 181.736)" fill="#426f8e"/>
        <rect id="Rectángulo_404021" data-name="Rectángulo 404021" width="5.214" height="5.214" transform="translate(103.446 181.736)" fill="#426f8e"/>
        <path id="Trazado_919831" data-name="Trazado 919831" d="M100.525,291.04a1.238,1.238,0,1,1-1.238-1.238,1.238,1.238,0,0,1,1.238,1.238" transform="translate(-36.099 -106.698)" fill="#fff"/>
        <path id="Trazado_919832" data-name="Trazado 919832" d="M109.281,291.04a1.238,1.238,0,1,1-1.238-1.238,1.238,1.238,0,0,1,1.238,1.238" transform="translate(-39.323 -106.698)" fill="#fff"/>
        <path id="Trazado_919833" data-name="Trazado 919833" d="M118.036,291.04A1.238,1.238,0,1,1,116.8,289.8a1.238,1.238,0,0,1,1.238,1.238" transform="translate(-42.546 -106.698)" fill="#fff"/>
        <rect id="Rectángulo_404022" data-name="Rectángulo 404022" width="23.17" height="5.214" transform="translate(77.643 181.736)" fill="#2d3e4f"/>
        <path id="Trazado_919834" data-name="Trazado 919834" d="M122.608,293.05a.478.478,0,0,1-.478-.478v-5.214a.478.478,0,1,1,.955,0v5.214a.478.478,0,0,1-.478.478" transform="translate(-44.965 -105.621)" fill="#ffc07b"/>
        <path id="Trazado_919835" data-name="Trazado 919835" d="M126.083,293.05a.478.478,0,0,1-.478-.478v-5.214a.478.478,0,1,1,.955,0v5.214a.478.478,0,0,1-.478.478" transform="translate(-46.245 -105.621)" fill="#ffc07b"/>
        <path id="Trazado_919836" data-name="Trazado 919836" d="M129.558,293.05a.478.478,0,0,1-.478-.478v-5.214a.478.478,0,1,1,.955,0v5.214a.478.478,0,0,1-.478.478" transform="translate(-47.524 -105.621)" fill="#ffc07b"/>
        <path id="Trazado_919837" data-name="Trazado 919837" d="M133.033,293.05a.478.478,0,0,1-.478-.478v-5.214a.478.478,0,1,1,.955,0v5.214a.478.478,0,0,1-.478.478" transform="translate(-48.803 -105.621)" fill="#ffc07b"/>
        <path id="Trazado_919838" data-name="Trazado 919838" d="M136.209,293.05a.478.478,0,0,1-.478-.478v-5.214a.478.478,0,1,1,.955,0v5.214a.478.478,0,0,1-.478.478" transform="translate(-49.973 -105.621)" fill="#ffc07b"/>
        <path id="Trazado_919839" data-name="Trazado 919839" d="M139.141,293.05a.478.478,0,0,1-.478-.478v-5.214a.478.478,0,1,1,.955,0v5.214a.478.478,0,0,1-.478.478" transform="translate(-51.052 -105.621)" fill="#ffc07b"/>
        <rect id="Rectángulo_404023" data-name="Rectángulo 404023" width="122.673" height="4.666" transform="translate(12.489 115.385)" fill="#2d3e4f"/>
        <rect id="Rectángulo_404024" data-name="Rectángulo 404024" width="122.673" height="4.666" transform="translate(12.489 168.367)" fill="#2d3e4f"/>
        <rect id="Rectángulo_404025" data-name="Rectángulo 404025" width="122.673" height="4.666" transform="translate(12.489 210.062)" fill="#2d3e4f"/>
        <rect id="Rectángulo_404026" data-name="Rectángulo 404026" width="122.673" height="4.666" transform="translate(12.489 73.725)" fill="#2d3e4f"/>
      </g>
    </g>
  </g>
</svg>
