<svg xmlns="http://www.w3.org/2000/svg" xmlns:xlink="http://www.w3.org/1999/xlink" width="85.051" height="85" viewBox="0 0 85.051 85">
  <defs>
    <clipPath id="clip-path">
      <rect id="Rectángulo_405061" data-name="Rectángulo 405061" width="85" height="85" transform="translate(337.051 2703)" fill="#fff" stroke="#707070" stroke-width="1"/>
    </clipPath>
  </defs>
  <g id="img9" transform="translate(-337.051 -2703)">
    <circle id="Elipse_11561" data-name="Elipse 11561" cx="42.5" cy="42.5" r="42.5" transform="translate(337.102 2703)" fill="#692cb7"/>
    <g id="Enmascarar_grupo_1098776" data-name="Enmascarar grupo 1098776" clip-path="url(#clip-path)">
      <g id="gestion-de-proyectos2" transform="translate(337.051 2703)">
        <g id="Grupo_1103805" data-name="Grupo 1103805">
          <path id="Trazado_924720" data-name="Trazado 924720" d="M30.569,15.133V8.287H18.342a1.66,1.66,0,0,0-1.66,1.66v5.186Z" fill="#8ac9fe"/>
          <rect id="Rectángulo_405064" data-name="Rectángulo 405064" width="5.559" height="6.846" transform="translate(25.011 8.287)" fill="#60b7ff"/>
          <path id="Trazado_924721" data-name="Trazado 924721" d="M54.431,69.867v7.207H66.477a1.66,1.66,0,0,0,1.66-1.66V69.867Z" fill="#8ac9fe"/>
          <path id="Trazado_924722" data-name="Trazado 924722" d="M62.516,69.867v5.547a1.66,1.66,0,0,1-1.66,1.66h5.622a1.66,1.66,0,0,0,1.66-1.66V69.867Z" fill="#60b7ff"/>
        </g>
        <g id="Grupo_1103806" data-name="Grupo 1103806">
          <path id="Trazado_924723" data-name="Trazado 924723" d="M30.569,15.133V8.287H18.342a1.66,1.66,0,0,0-1.66,1.66v5.186Z" fill="none" stroke="#000" stroke-linecap="round" stroke-linejoin="round" stroke-miterlimit="10" stroke-width="2.49"/>
          <path id="Trazado_924724" data-name="Trazado 924724" d="M54.431,69.867v7.207H66.477a1.66,1.66,0,0,0,1.66-1.66V69.867Z" fill="none" stroke="#000" stroke-linecap="round" stroke-linejoin="round" stroke-miterlimit="10" stroke-width="2.49"/>
        </g>
        <path id="Trazado_924725" data-name="Trazado 924725" d="M80.2,1.245H32.064a1.66,1.66,0,0,0-1.66,1.66V15.133H52.937a1.5,1.5,0,0,1,1.494,1.494V70.033H80.2a1.66,1.66,0,0,0,1.66-1.66V2.905A1.66,1.66,0,0,0,80.2,1.245Z" fill="#f2fbff"/>
        <path id="Trazado_924726" data-name="Trazado 924726" d="M80.2,1.245H73.213a1.66,1.66,0,0,1,1.66,1.66V68.373a1.66,1.66,0,0,1-1.66,1.66H80.2a1.66,1.66,0,0,0,1.66-1.66V2.905A1.66,1.66,0,0,0,80.2,1.245Z" fill="#dff6fd"/>
        <path id="Trazado_924727" data-name="Trazado 924727" d="M54.431,70.033H80.2a1.66,1.66,0,0,0,1.66-1.66V2.905a1.66,1.66,0,0,0-1.66-1.66H32.064a1.66,1.66,0,0,0-1.66,1.66V15.133" fill="none" stroke="#000" stroke-linecap="round" stroke-linejoin="round" stroke-miterlimit="10" stroke-width="2.49"/>
        <path id="Trazado_924728" data-name="Trazado 924728" d="M52.936,83.755H4.8a1.66,1.66,0,0,1-1.66-1.66V16.627a1.66,1.66,0,0,1,1.66-1.66H52.936a1.66,1.66,0,0,1,1.66,1.66V82.095A1.66,1.66,0,0,1,52.936,83.755Z" fill="#fef0ae"/>
        <path id="Trazado_924729" data-name="Trazado 924729" d="M52.936,14.967H45.488a1.66,1.66,0,0,1,1.66,1.66V82.095a1.66,1.66,0,0,1-1.66,1.66h7.448a1.66,1.66,0,0,0,1.66-1.66V16.627A1.66,1.66,0,0,0,52.936,14.967Z" fill="#fee97d"/>
        <path id="Trazado_924730" data-name="Trazado 924730" d="M3.141,71.553V82.095a1.66,1.66,0,0,0,1.66,1.66H52.936a1.66,1.66,0,0,0,1.66-1.66V16.627a1.66,1.66,0,0,0-1.66-1.66H43.164" fill="none" stroke="#000" stroke-linecap="round" stroke-linejoin="round" stroke-miterlimit="10" stroke-width="2.49"/>
        <path id="Trazado_924731" data-name="Trazado 924731" d="M37.354,14.967H4.8a1.66,1.66,0,0,0-1.66,1.66V65.742" fill="none" stroke="#000" stroke-linecap="round" stroke-linejoin="round" stroke-miterlimit="10" stroke-width="2.49"/>
        <g id="Grupo_1103808" data-name="Grupo 1103808">
          <g id="Grupo_1103807" data-name="Grupo 1103807">
            <line id="Línea_715" data-name="Línea 715" x2="23.11" transform="translate(23.136 30.879)" fill="#fff" stroke="#000" stroke-linecap="round" stroke-linejoin="round" stroke-miterlimit="10" stroke-width="2.49"/>
            <line id="Línea_716" data-name="Línea 716" x2="14.399" transform="translate(23.136 36.115)" fill="#fff" stroke="#000" stroke-linecap="round" stroke-linejoin="round" stroke-miterlimit="10" stroke-width="2.49"/>
            <line id="Línea_717" data-name="Línea 717" x2="4.198" transform="translate(42.049 36.115)" fill="#fff" stroke="#000" stroke-linecap="round" stroke-linejoin="round" stroke-miterlimit="10" stroke-width="2.49"/>
          </g>
        </g>
        <g id="Grupo_1103810" data-name="Grupo 1103810">
          <path id="Trazado_924732" data-name="Trazado 924732" d="M17.312,49.34H11.989a.5.5,0,0,1-.5-.5V43.519a.5.5,0,0,1,.5-.5h5.323a.5.5,0,0,1,.5.5v5.323A.5.5,0,0,1,17.312,49.34Z" fill="#fff" stroke="#000" stroke-linecap="round" stroke-linejoin="round" stroke-miterlimit="10" stroke-width="2.49"/>
          <g id="Grupo_1103809" data-name="Grupo 1103809">
            <line id="Línea_718" data-name="Línea 718" x2="23.11" transform="translate(23.136 43.563)" fill="#fff" stroke="#000" stroke-linecap="round" stroke-linejoin="round" stroke-miterlimit="10" stroke-width="2.49"/>
            <line id="Línea_719" data-name="Línea 719" x2="4.288" transform="translate(23.136 48.799)" fill="#fff" stroke="#000" stroke-linecap="round" stroke-linejoin="round" stroke-miterlimit="10" stroke-width="2.49"/>
            <line id="Línea_720" data-name="Línea 720" x2="14.308" transform="translate(31.938 48.799)" fill="#fff" stroke="#000" stroke-linecap="round" stroke-linejoin="round" stroke-miterlimit="10" stroke-width="2.49"/>
          </g>
        </g>
        <g id="Grupo_1103812" data-name="Grupo 1103812">
          <path id="Trazado_924733" data-name="Trazado 924733" d="M17.312,62.024H11.989a.5.5,0,0,1-.5-.5V56.2a.5.5,0,0,1,.5-.5h5.323a.5.5,0,0,1,.5.5v5.323A.5.5,0,0,1,17.312,62.024Z" fill="#fff" stroke="#000" stroke-linecap="round" stroke-linejoin="round" stroke-miterlimit="10" stroke-width="2.49"/>
          <g id="Grupo_1103811" data-name="Grupo 1103811">
            <line id="Línea_721" data-name="Línea 721" x2="23.11" transform="translate(23.136 56.246)" fill="#fff" stroke="#000" stroke-linecap="round" stroke-linejoin="round" stroke-miterlimit="10" stroke-width="2.49"/>
            <line id="Línea_722" data-name="Línea 722" x2="23.11" transform="translate(23.136 61.482)" fill="#fff" stroke="#000" stroke-linecap="round" stroke-linejoin="round" stroke-miterlimit="10" stroke-width="2.49"/>
          </g>
        </g>
        <g id="Grupo_1103814" data-name="Grupo 1103814">
          <path id="Trazado_924734" data-name="Trazado 924734" d="M17.312,74.707H11.989a.5.5,0,0,1-.5-.5V68.886a.5.5,0,0,1,.5-.5h5.323a.5.5,0,0,1,.5.5v5.323A.5.5,0,0,1,17.312,74.707Z" fill="#fff" stroke="#000" stroke-linecap="round" stroke-linejoin="round" stroke-miterlimit="10" stroke-width="2.49"/>
          <g id="Grupo_1103813" data-name="Grupo 1103813">
            <line id="Línea_723" data-name="Línea 723" x2="23.11" transform="translate(23.136 68.93)" fill="#fff" stroke="#000" stroke-linecap="round" stroke-linejoin="round" stroke-miterlimit="10" stroke-width="2.49"/>
            <line id="Línea_724" data-name="Línea 724" x2="8.621" transform="translate(23.136 74.165)" fill="#fff" stroke="#000" stroke-linecap="round" stroke-linejoin="round" stroke-miterlimit="10" stroke-width="2.49"/>
            <line id="Línea_725" data-name="Línea 725" x1="9.975" transform="translate(36.271 74.165)" fill="#fff" stroke="#000" stroke-linecap="round" stroke-linejoin="round" stroke-miterlimit="10" stroke-width="2.49"/>
          </g>
        </g>
        <path id="Trazado_924735" data-name="Trazado 924735" d="M10.995,32.188l3.069,3.069,4.875-6.5" fill="none" stroke="#000" stroke-linecap="round" stroke-linejoin="round" stroke-miterlimit="10" stroke-width="2.49"/>
        <line id="Línea_726" data-name="Línea 726" x2="6.972" transform="translate(60.805 31.757)" fill="none" stroke="#000" stroke-linecap="round" stroke-linejoin="round" stroke-miterlimit="10" stroke-width="2.49"/>
        <line id="Línea_727" data-name="Línea 727" x2="14.444" transform="translate(60.805 37.535)" fill="none" stroke="#000" stroke-linecap="round" stroke-linejoin="round" stroke-miterlimit="10" stroke-width="2.49"/>
        <line id="Línea_728" data-name="Línea 728" x2="14.444" transform="translate(60.805 43.312)" fill="none" stroke="#000" stroke-linecap="round" stroke-linejoin="round" stroke-miterlimit="10" stroke-width="2.49"/>
        <line id="Línea_729" data-name="Línea 729" x2="14.444" transform="translate(60.805 49.09)" fill="none" stroke="#000" stroke-linecap="round" stroke-linejoin="round" stroke-miterlimit="10" stroke-width="2.49"/>
        <line id="Línea_730" data-name="Línea 730" x2="2.779" transform="translate(60.805 54.868)" fill="none" stroke="#000" stroke-linecap="round" stroke-linejoin="round" stroke-miterlimit="10" stroke-width="2.49"/>
        <line id="Línea_731" data-name="Línea 731" x2="7.512" transform="translate(67.737 54.868)" fill="none" stroke="#000" stroke-linecap="round" stroke-linejoin="round" stroke-miterlimit="10" stroke-width="2.49"/>
        <line id="Línea_732" data-name="Línea 732" x2="14.444" transform="translate(60.805 60.645)" fill="none" stroke="#000" stroke-linecap="round" stroke-linejoin="round" stroke-miterlimit="10" stroke-width="2.49"/>
        <circle id="Elipse_11607" data-name="Elipse 11607" cx="8.347" cy="8.347" r="8.347" transform="translate(59.68 8.384)" fill="#ffd15b"/>
        <path id="Trazado_924736" data-name="Trazado 924736" d="M59.974,18.926a8.344,8.344,0,1,0,.528-5.81" fill="none" stroke="#000" stroke-linecap="round" stroke-linejoin="round" stroke-miterlimit="10" stroke-width="2.49"/>
        <path id="Trazado_924737" data-name="Trazado 924737" d="M68.027,16.731v8.347a8.347,8.347,0,0,0,8.347-8.347H68.027Z" fill="#fd6930"/>
        <path id="Trazado_924738" data-name="Trazado 924738" d="M68.027,16.731v8.347a8.347,8.347,0,0,0,8.347-8.347H68.027Z" fill="none" stroke="#000" stroke-linecap="round" stroke-linejoin="round" stroke-miterlimit="10" stroke-width="2.49"/>
        <line id="Línea_733" data-name="Línea 733" x1="17.513" transform="translate(37.084 8.384)" fill="none" stroke="#000" stroke-linecap="round" stroke-linejoin="round" stroke-miterlimit="10" stroke-width="2.49"/>
        <line id="Línea_734" data-name="Línea 734" x2="3.319" transform="translate(71.929 31.757)" fill="none" stroke="#000" stroke-linecap="round" stroke-linejoin="round" stroke-miterlimit="10" stroke-width="2.49"/>
        <line id="Línea_735" data-name="Línea 735" x2="23.372" transform="translate(11.491 23.076)" fill="none" stroke="#000" stroke-linecap="round" stroke-linejoin="round" stroke-miterlimit="10" stroke-width="2.49"/>
        <line id="Línea_736" data-name="Línea 736" x2="1.256" transform="translate(44.99 23.076)" fill="none" stroke="#000" stroke-linecap="round" stroke-linejoin="round" stroke-miterlimit="10" stroke-width="2.49"/>
        <line id="Línea_737" data-name="Línea 737" x2="1.256" transform="translate(39.418 23.076)" fill="none" stroke="#000" stroke-linecap="round" stroke-linejoin="round" stroke-miterlimit="10" stroke-width="2.49"/>
      </g>
    </g>
  </g>
</svg>
