<svg xmlns="http://www.w3.org/2000/svg" xmlns:xlink="http://www.w3.org/1999/xlink" width="111" height="111" viewBox="0 0 111 111">
  <defs>
    <clipPath id="clip-path">
      <rect id="Rectángulo_403815" data-name="Rectángulo 403815" width="111" height="111" transform="translate(666.051 5245)" fill="#fff" stroke="#707070" stroke-width="1"/>
    </clipPath>
  </defs>
  <g id="img19" transform="translate(-666.051 -5245)" clip-path="url(#clip-path)">
    <g id="cable_2_" data-name="cable (2)" transform="translate(663.659 5242.608)">
      <path id="Trazado_918758" data-name="Trazado 918758" d="M31.531,70.761,3.522,98.77v13.491H17.013L45.022,84.252Z" fill="#72c1e8"/>
      <path id="Trazado_918759" data-name="Trazado 918759" d="M111.507,34.856,88.261,58.1l-10.7-10.7,7.026-7.026a1.549,1.549,0,0,0,0-2.19L77.6,31.2a1.549,1.549,0,0,0-2.19,0L68.38,38.221l-10.7-10.7L80.928,4.276a2.581,2.581,0,0,1,3.65,0l26.929,26.929a2.582,2.582,0,0,1,0,3.65Z" fill="#f9e5af"/>
      <path id="Trazado_918760" data-name="Trazado 918760" d="M88.281,7.979l-8.739,8.739a2.581,2.581,0,0,0,0,3.65L95.415,36.241a2.581,2.581,0,0,0,3.65,0L107.8,27.5Z" fill="#f0c020"/>
      <path id="Trazado_918761" data-name="Trazado 918761" d="M84.588,40.377l-9.615,9.615a6.492,6.492,0,0,1-9.181-9.181L75.407,31.2a1.549,1.549,0,0,1,2.19,0l6.991,6.991a1.549,1.549,0,0,1,0,2.19Z" fill="#7c7b7a"/>
      <path id="Trazado_918762" data-name="Trazado 918762" d="M88.261,58.1,77.8,68.566,57.768,76.411l-18.4-18.4,7.845-20.028L57.682,27.523l10.7,10.7L65.792,40.81a6.492,6.492,0,0,0,9.181,9.181L77.562,47.4Z" fill="#afafaf"/>
      <path id="Trazado_918763" data-name="Trazado 918763" d="M39.372,58.016l-9.2,9.2a1.549,1.549,0,0,0,0,2.19L46.38,85.609a1.549,1.549,0,0,0,2.19,0l9.2-9.2Z" fill="#7c7b7a"/>
      <path id="Trazado_918764" data-name="Trazado 918764" d="M13.131,108.37a1.13,1.13,0,0,1,0-1.6L14.2,105.7a1.131,1.131,0,0,1,1.6,1.6L14.73,108.37A1.13,1.13,0,0,1,13.131,108.37ZM17.4,104.1a1.13,1.13,0,0,1,0-1.6L35.307,84.6a1.131,1.131,0,0,1,1.6,1.6L19,104.1a1.131,1.131,0,0,1-1.6,0Z" fill="#c5e5ff"/>
      <path id="Trazado_918765" data-name="Trazado 918765" d="M112.307,35.655a3.716,3.716,0,0,0,0-5.249L85.377,3.477a3.717,3.717,0,0,0-5.249,0l-33.71,33.71a1.125,1.125,0,0,0-.253.387L38.406,57.383l-9.031,9.031a2.683,2.683,0,0,0,0,3.789l.559.559-9.3,9.3a1.129,1.129,0,0,0,1.6,1.6l9.3-9.3L43.424,84.252l-27.21,27.21a1.131,1.131,0,0,0,1.6,1.6l27.21-27.21.558.558a2.683,2.683,0,0,0,3.789,0L58.4,77.377l19.809-7.759a1.125,1.125,0,0,0,.387-.253l33.711-33.71ZM91.564,12.861,82.6,21.826l-2.257-2.257a1.452,1.452,0,0,1,0-2.051l7.94-7.939Zm1.6,1.6,3.281,3.281-8.965,8.965L84.2,23.425Zm4.88,4.88,3.281,3.281-8.965,8.965-3.281-3.281Zm4.88,4.88L106.2,27.5l-7.939,7.939a1.486,1.486,0,0,1-2.051,0l-2.257-2.257ZM76.8,31.995l6.991,6.991a.419.419,0,0,1,0,.591l-9.615,9.615a5.362,5.362,0,0,1-7.583-7.583l9.614-9.615a.42.42,0,0,1,.592,0ZM47.77,84.81a.419.419,0,0,1-.591,0L30.974,68.6a.419.419,0,0,1,0-.591l3.252-3.252,16.8,16.8Zm4.851-4.851-16.8-16.8,3.548-3.548,16.8,16.8ZM77.164,67.6,74.12,68.791,66.359,61.03a1.131,1.131,0,0,0-1.6,1.6l7.062,7.062-2.685,1.052-6.87-6.869a1.131,1.131,0,0,0-1.6,1.6l6.171,6.17-2.685,1.052-5.978-5.978a1.131,1.131,0,0,0-1.6,1.6l5.279,5.279-3.812,1.493-17.35-17.35,1.493-3.812,5.279,5.279a1.131,1.131,0,1,0,1.6-1.6l-5.978-5.978,1.052-2.686,6.17,6.171a1.131,1.131,0,0,0,1.6-1.6l-6.869-6.87,1.052-2.685,7.062,7.062a1.131,1.131,0,0,0,1.6-1.6l-7.761-7.761,1.192-3.043,9.5-9.5,9.1,9.1L64.992,40.01a7.623,7.623,0,0,0,10.78,10.78L77.562,49l9.1,9.1Zm33.543-33.543L88.261,56.5l-9.1-9.1,6.227-6.227a2.683,2.683,0,0,0,0-3.789L78.4,30.4a2.683,2.683,0,0,0-3.789,0L68.38,36.622l-9.1-9.1L81.727,5.076a1.453,1.453,0,0,1,2.051,0l2.9,2.9-7.94,7.939a3.715,3.715,0,0,0,0,5.249L94.615,37.041a3.709,3.709,0,0,0,5.249,0L107.8,29.1l2.9,2.9a1.452,1.452,0,0,1,0,2.051Z"/>
      <path id="Trazado_918766" data-name="Trazado 918766" d="M2.722,99.57a1.135,1.135,0,0,0,1.6,0L15.833,88.055a1.13,1.13,0,0,0,0-1.6,1.15,1.15,0,0,0-1.6,0L2.722,97.969a1.138,1.138,0,0,0,0,1.6Z"/>
      <path id="Trazado_918767" data-name="Trazado 918767" d="M17.435,83.261a1.129,1.129,0,1,0,1.6,0A1.15,1.15,0,0,0,17.435,83.261Z"/>
    </g>
  </g>
</svg>
