<svg xmlns="http://www.w3.org/2000/svg" xmlns:xlink="http://www.w3.org/1999/xlink" width="111" height="111" viewBox="0 0 111 111">
  <defs>
    <clipPath id="clip-path">
      <rect id="Rectángulo_403814" data-name="Rectángulo 403814" width="111" height="111" transform="translate(312.051 5245)" fill="#fff" stroke="#707070" stroke-width="1"/>
    </clipPath>
  </defs>
  <g id="img18" transform="translate(-312.051 -5245)" clip-path="url(#clip-path)">
    <g id="organizado" transform="translate(312.051 5245)">
      <line id="Línea_685" data-name="Línea 685" x2="64.621" transform="translate(23.19 95.276)" fill="none" stroke="#000" stroke-linecap="round" stroke-linejoin="round" stroke-miterlimit="10" stroke-width="3.252" stroke-dasharray="10 25"/>
      <line id="Línea_686" data-name="Línea 686" x1="64.621" transform="translate(23.19 15.724)" fill="none" stroke="#000" stroke-linecap="round" stroke-linejoin="round" stroke-miterlimit="10" stroke-width="3.252" stroke-dasharray="10 25"/>
      <g id="Grupo_1102633" data-name="Grupo 1102633">
        <g id="Grupo_1102630" data-name="Grupo 1102630">
          <path id="Trazado_918713" data-name="Trazado 918713" d="M12.5,42.527V56.812a2.6,2.6,0,0,0,2.6,2.6H31.363" fill="none" stroke="#000" stroke-linecap="round" stroke-linejoin="round" stroke-miterlimit="10" stroke-width="3.252"/>
          <g id="Grupo_1102629" data-name="Grupo 1102629">
            <path id="Trazado_918714" data-name="Trazado 918714" d="M16.709,46.732,12.5,42.527,8.3,46.732" fill="none" stroke="#000" stroke-linecap="round" stroke-linejoin="round" stroke-miterlimit="10" stroke-width="3.252"/>
          </g>
        </g>
        <g id="Grupo_1102632" data-name="Grupo 1102632">
          <path id="Trazado_918715" data-name="Trazado 918715" d="M98.5,68.718V54.432a2.6,2.6,0,0,0-2.6-2.6H79.637" fill="none" stroke="#000" stroke-linecap="round" stroke-linejoin="round" stroke-miterlimit="10" stroke-width="3.252"/>
          <g id="Grupo_1102631" data-name="Grupo 1102631">
            <path id="Trazado_918716" data-name="Trazado 918716" d="M94.291,64.512,98.5,68.718l4.205-4.205" fill="none" stroke="#000" stroke-linecap="round" stroke-linejoin="round" stroke-miterlimit="10" stroke-width="3.252"/>
          </g>
        </g>
      </g>
      <g id="Grupo_1102640" data-name="Grupo 1102640">
        <g id="Grupo_1102636" data-name="Grupo 1102636">
          <g id="Grupo_1102634" data-name="Grupo 1102634">
            <path id="Trazado_918717" data-name="Trazado 918717" d="M103.876,3.154H88.894A1.084,1.084,0,0,0,87.81,4.238V30.183a1.084,1.084,0,0,0,1.084,1.084h19.4a1.084,1.084,0,0,0,1.084-1.084V8.652a1.085,1.085,0,0,0-.317-.767l-4.414-4.414A1.085,1.085,0,0,0,103.876,3.154Z" fill="#dff6fd"/>
            <path id="Trazado_918718" data-name="Trazado 918718" d="M109.057,7.885l-4.414-4.414a1.084,1.084,0,0,0-.767-.317H97.148a1.085,1.085,0,0,1,.767.317l4.414,4.414a1.084,1.084,0,0,1,.318.766V30.183a1.084,1.084,0,0,1-1.084,1.084h6.728a1.084,1.084,0,0,0,1.084-1.084V8.652A1.085,1.085,0,0,0,109.057,7.885Z" fill="#c8effe"/>
            <path id="Trazado_918719" data-name="Trazado 918719" d="M87.81,27.1v3.084a1.084,1.084,0,0,0,1.084,1.084h19.4a1.084,1.084,0,0,0,1.084-1.084V8.652a1.084,1.084,0,0,0-.317-.766l-4.414-4.414a1.084,1.084,0,0,0-.767-.317H88.894A1.084,1.084,0,0,0,87.81,4.238V19.512" fill="none" stroke="#000" stroke-linecap="round" stroke-linejoin="round" stroke-miterlimit="10" stroke-width="3.252"/>
            <line id="Línea_687" data-name="Línea 687" x2="7.763" transform="translate(94.711 11.429)" fill="none" stroke="#000" stroke-linecap="round" stroke-linejoin="round" stroke-miterlimit="10" stroke-width="3.252"/>
            <line id="Línea_688" data-name="Línea 688" x2="7.763" transform="translate(94.711 17.726)" fill="none" stroke="#000" stroke-linecap="round" stroke-linejoin="round" stroke-miterlimit="10" stroke-width="3.252"/>
            <line id="Línea_689" data-name="Línea 689" x2="3.714" transform="translate(94.711 24.023)" fill="none" stroke="#000" stroke-linecap="round" stroke-linejoin="round" stroke-miterlimit="10" stroke-width="3.252"/>
          </g>
          <g id="Grupo_1102635" data-name="Grupo 1102635">
            <path id="Trazado_918720" data-name="Trazado 918720" d="M17.692,3.154H2.71A1.084,1.084,0,0,0,1.626,4.238V30.183A1.084,1.084,0,0,0,2.71,31.267h19.4a1.084,1.084,0,0,0,1.084-1.084V8.652a1.085,1.085,0,0,0-.317-.767L18.458,3.471A1.085,1.085,0,0,0,17.692,3.154Z" fill="#dff6fd"/>
            <path id="Trazado_918721" data-name="Trazado 918721" d="M22.872,7.885,18.458,3.471a1.084,1.084,0,0,0-.767-.317H10.862a1.085,1.085,0,0,1,.767.317l4.414,4.414a1.084,1.084,0,0,1,.318.766V30.183a1.084,1.084,0,0,1-1.084,1.084h6.829a1.084,1.084,0,0,0,1.084-1.084V8.652A1.084,1.084,0,0,0,22.872,7.885Z" fill="#c8effe"/>
            <path id="Trazado_918722" data-name="Trazado 918722" d="M17.692,3.154H2.71A1.084,1.084,0,0,0,1.626,4.238V30.183A1.084,1.084,0,0,0,2.71,31.267h19.4a1.084,1.084,0,0,0,1.084-1.084V8.652a1.085,1.085,0,0,0-.317-.767L18.458,3.471A1.085,1.085,0,0,0,17.692,3.154Z" fill="none" stroke="#000" stroke-linecap="round" stroke-linejoin="round" stroke-miterlimit="10" stroke-width="3.252"/>
            <line id="Línea_690" data-name="Línea 690" x2="7.763" transform="translate(8.526 11.429)" fill="none" stroke="#000" stroke-linecap="round" stroke-linejoin="round" stroke-miterlimit="10" stroke-width="3.252"/>
            <line id="Línea_691" data-name="Línea 691" x2="7.763" transform="translate(8.526 17.726)" fill="none" stroke="#000" stroke-linecap="round" stroke-linejoin="round" stroke-miterlimit="10" stroke-width="3.252"/>
            <line id="Línea_692" data-name="Línea 692" x2="3.714" transform="translate(8.526 24.023)" fill="none" stroke="#000" stroke-linecap="round" stroke-linejoin="round" stroke-miterlimit="10" stroke-width="3.252"/>
          </g>
        </g>
        <g id="Grupo_1102639" data-name="Grupo 1102639">
          <g id="Grupo_1102637" data-name="Grupo 1102637">
            <path id="Trazado_918723" data-name="Trazado 918723" d="M103.876,79.733H88.894a1.084,1.084,0,0,0-1.084,1.084v25.945a1.084,1.084,0,0,0,1.084,1.084h19.4a1.084,1.084,0,0,0,1.084-1.084V85.231a1.085,1.085,0,0,0-.317-.767l-4.414-4.414A1.085,1.085,0,0,0,103.876,79.733Z" fill="#dff6fd"/>
            <path id="Trazado_918724" data-name="Trazado 918724" d="M109.057,84.464l-4.414-4.414a1.084,1.084,0,0,0-.767-.318H97.148a1.084,1.084,0,0,1,.767.318l4.414,4.414a1.084,1.084,0,0,1,.318.766v21.531a1.084,1.084,0,0,1-1.084,1.084h6.728a1.084,1.084,0,0,0,1.084-1.084V85.231A1.084,1.084,0,0,0,109.057,84.464Z" fill="#c8effe"/>
            <path id="Trazado_918725" data-name="Trazado 918725" d="M103.876,79.733H88.894a1.084,1.084,0,0,0-1.084,1.084v25.945a1.084,1.084,0,0,0,1.084,1.084h19.4a1.084,1.084,0,0,0,1.084-1.084V85.231a1.085,1.085,0,0,0-.317-.767l-4.414-4.414A1.085,1.085,0,0,0,103.876,79.733Z" fill="none" stroke="#000" stroke-linecap="round" stroke-linejoin="round" stroke-miterlimit="10" stroke-width="3.252"/>
            <line id="Línea_693" data-name="Línea 693" x2="7.763" transform="translate(94.711 88.007)" fill="none" stroke="#000" stroke-linecap="round" stroke-linejoin="round" stroke-miterlimit="10" stroke-width="3.252"/>
            <line id="Línea_694" data-name="Línea 694" x2="7.763" transform="translate(94.711 94.305)" fill="none" stroke="#000" stroke-linecap="round" stroke-linejoin="round" stroke-miterlimit="10" stroke-width="3.252"/>
            <line id="Línea_695" data-name="Línea 695" x2="3.714" transform="translate(94.711 100.602)" fill="none" stroke="#000" stroke-linecap="round" stroke-linejoin="round" stroke-miterlimit="10" stroke-width="3.252"/>
          </g>
          <g id="Grupo_1102638" data-name="Grupo 1102638">
            <path id="Trazado_918726" data-name="Trazado 918726" d="M17.692,79.733H2.71a1.084,1.084,0,0,0-1.084,1.084v25.945a1.084,1.084,0,0,0,1.084,1.084h19.4a1.084,1.084,0,0,0,1.084-1.084V85.231a1.085,1.085,0,0,0-.317-.767L18.458,80.05A1.085,1.085,0,0,0,17.692,79.733Z" fill="#dff6fd"/>
            <path id="Trazado_918727" data-name="Trazado 918727" d="M22.872,84.464,18.458,80.05a1.084,1.084,0,0,0-.767-.318H10.862a1.084,1.084,0,0,1,.767.318l4.414,4.414a1.084,1.084,0,0,1,.318.766v21.531a1.084,1.084,0,0,1-1.084,1.084h6.829a1.084,1.084,0,0,0,1.084-1.084V85.231A1.083,1.083,0,0,0,22.872,84.464Z" fill="#c8effe"/>
            <path id="Trazado_918728" data-name="Trazado 918728" d="M13.333,107.846h8.773a1.084,1.084,0,0,0,1.084-1.084V85.231a1.083,1.083,0,0,0-.318-.766L18.458,80.05a1.084,1.084,0,0,0-.767-.318H2.71a1.084,1.084,0,0,0-1.084,1.084v25.945a1.084,1.084,0,0,0,1.084,1.084H5.745" fill="none" stroke="#000" stroke-linecap="round" stroke-linejoin="round" stroke-miterlimit="10" stroke-width="3.252"/>
            <line id="Línea_696" data-name="Línea 696" x2="7.763" transform="translate(8.526 88.007)" fill="none" stroke="#000" stroke-linecap="round" stroke-linejoin="round" stroke-miterlimit="10" stroke-width="3.252"/>
            <line id="Línea_697" data-name="Línea 697" x2="7.763" transform="translate(8.526 94.305)" fill="none" stroke="#000" stroke-linecap="round" stroke-linejoin="round" stroke-miterlimit="10" stroke-width="3.252"/>
            <line id="Línea_698" data-name="Línea 698" x2="3.714" transform="translate(8.526 100.602)" fill="none" stroke="#000" stroke-linecap="round" stroke-linejoin="round" stroke-miterlimit="10" stroke-width="3.252"/>
          </g>
        </g>
      </g>
      <g id="Grupo_1102643" data-name="Grupo 1102643">
        <g id="Grupo_1102642" data-name="Grupo 1102642">
          <path id="Trazado_918729" data-name="Trazado 918729" d="M55.472,43.038l-3.578-6.844a3.252,3.252,0,0,0-2.882-1.745H33.531a2.168,2.168,0,0,0-2.168,2.168v6.421H55.472Z" fill="#ffc344"/>
          <path id="Trazado_918730" data-name="Trazado 918730" d="M51.894,36.194a3.252,3.252,0,0,0-2.882-1.745h-7.56a3.252,3.252,0,0,1,2.882,1.745l3.578,6.844h7.56Z" fill="#feb237"/>
          <path id="Trazado_918731" data-name="Trazado 918731" d="M31.363,42.826h24l-3.467-6.631a3.252,3.252,0,0,0-2.882-1.745H33.531a2.168,2.168,0,0,0-2.168,2.168v6.421h0v-.213Z" fill="none" stroke="#000" stroke-linecap="round" stroke-linejoin="round" stroke-miterlimit="10" stroke-width="3.252"/>
          <path id="Trazado_918732" data-name="Trazado 918732" d="M77.469,42.826H31.363V65.152a10.225,10.225,0,0,1,15.715,11.4H77.469a2.168,2.168,0,0,0,2.168-2.168V44.994A2.168,2.168,0,0,0,77.469,42.826Z" fill="#ffd15b"/>
          <g id="Grupo_1102641" data-name="Grupo 1102641">
            <path id="Trazado_918733" data-name="Trazado 918733" d="M77.469,42.826H68.435A2.168,2.168,0,0,1,70.6,44.994V74.383a2.168,2.168,0,0,1-2.168,2.168h9.033a2.168,2.168,0,0,0,2.168-2.168V44.994A2.168,2.168,0,0,0,77.469,42.826Z" fill="#ffc344"/>
          </g>
          <path id="Trazado_918734" data-name="Trazado 918734" d="M47.308,76.551H77.469a2.168,2.168,0,0,0,2.168-2.168V44.994a2.168,2.168,0,0,0-2.168-2.168H31.363v4.436" fill="none" stroke="#000" stroke-linecap="round" stroke-linejoin="round" stroke-miterlimit="10" stroke-width="3.252"/>
          <line id="Línea_699" data-name="Línea 699" y2="10.032" transform="translate(31.363 54.85)" fill="none" stroke="#000" stroke-linecap="round" stroke-linejoin="round" stroke-miterlimit="10" stroke-width="3.252"/>
        </g>
      </g>
      <g id="Grupo_1102644" data-name="Grupo 1102644">
        <circle id="Elipse_11558" data-name="Elipse 11558" cx="10.446" cy="10.446" r="10.446" transform="translate(26.883 63.008)" fill="#05e39c"/>
        <path id="Trazado_918735" data-name="Trazado 918735" d="M37.329,63.008a10.426,10.426,0,0,0-3.4.569,10.446,10.446,0,0,1,0,19.754,10.446,10.446,0,1,0,3.4-20.323Z" fill="#0ed290"/>
        <circle id="Elipse_11559" data-name="Elipse 11559" cx="10.446" cy="10.446" r="10.446" transform="translate(26.883 63.008)" fill="none" stroke="#000" stroke-linecap="round" stroke-linejoin="round" stroke-miterlimit="10" stroke-width="3.252"/>
        <path id="Trazado_918736" data-name="Trazado 918736" d="M32.229,72.943l3.855,4.028,5.975-6.243" fill="none" stroke="#000" stroke-linecap="round" stroke-linejoin="round" stroke-miterlimit="10" stroke-width="3.252"/>
      </g>
    </g>
  </g>
</svg>
