<svg xmlns="http://www.w3.org/2000/svg" xmlns:xlink="http://www.w3.org/1999/xlink" width="111" height="111" viewBox="0 0 111 111">
  <defs>
    <clipPath id="clip-path">
      <rect id="Rectángulo_403813" data-name="Rectángulo 403813" width="111" height="111" transform="translate(-5892 -6363)" fill="#fff" stroke="#707070" stroke-width="1"/>
    </clipPath>
    <clipPath id="clip-path-2">
      <path id="path5034" d="M0-111H111V0H0Z"/>
    </clipPath>
  </defs>
  <g id="img17" transform="translate(5892 6363)" clip-path="url(#clip-path)">
    <g id="g4998" transform="translate(-5892 -6252)">
      <g id="g5000" transform="translate(26.702 -109.374)">
        <path id="path5002" d="M0,0-19.512,53.874,0,107.748H6.5V0Z" fill="#ff4c3b"/>
      </g>
      <g id="g5004" transform="translate(1.626 -109.374)">
        <path id="path5006" d="M0,0V107.748H25.076V63.16L15.32,34.832,25.076,6.5V0Z" fill="#ff6c4a"/>
      </g>
      <g id="g5008" transform="translate(26.702 -52.718)">
        <path id="path5010" d="M0,0V6.5H-6.5L-9.756-6.5Z" fill="#ffe341"/>
      </g>
      <g id="g5012" transform="translate(8.13 -52.718)">
        <path id="path5014" d="M0,0V6.5H12.068V-6.5Z" fill="#fff1a0"/>
      </g>
      <g id="g5016" transform="translate(26.702 -78.733)">
        <path id="path5018" d="M0,0V26.016H-6.5l-6.5-32.52Z" fill="#fff9d6"/>
      </g>
      <g id="g5020" transform="translate(8.13 -78.733)">
        <path id="path5022" d="M0,0V26.016H12.068V-6.5Z" fill="#fff"/>
      </g>
      <g id="g5024" transform="translate(20.198 -102.87)">
        <path id="path5026" d="M0,0-6.5,12.068,0,24.137H6.5V0Z" fill="#43b7d9"/>
      </g>
      <path id="path5028" d="M8.13-78.733H20.2V-102.87H8.13Z" fill="#54d8ff"/>
      <g id="g5030">
        <g id="g5032" clip-path="url(#clip-path-2)">
          <g id="g5038" transform="translate(33.206 -81.985)">
            <path id="path5040" d="M0,0V-27.389H-31.58V80.359H0V6.5" fill="none" stroke="#000" stroke-linecap="round" stroke-linejoin="round" stroke-miterlimit="10" stroke-width="3.252"/>
          </g>
        </g>
      </g>
      <path id="path5042" d="M8.13-102.87H26.7v56.656H8.13Z" fill="none" stroke="#000" stroke-linecap="round" stroke-linejoin="round" stroke-miterlimit="10" stroke-width="3.252"/>
      <g id="g5044" transform="translate(8.13 -78.733)">
        <path id="path5046" d="M0,0H18.572" fill="none" stroke="#000" stroke-linecap="round" stroke-linejoin="round" stroke-miterlimit="10" stroke-width="3.252"/>
      </g>
      <g id="g5048" transform="translate(14.634 -72.23)">
        <path id="path5050" d="M0,0H5.565" fill="none" stroke="#000" stroke-linecap="round" stroke-linejoin="round" stroke-miterlimit="10" stroke-width="3.252"/>
      </g>
      <g id="g5052" transform="translate(14.634 -65.726)">
        <path id="path5054" d="M0,0H5.565" fill="none" stroke="#000" stroke-linecap="round" stroke-linejoin="round" stroke-miterlimit="10" stroke-width="3.252"/>
      </g>
      <g id="g5056" transform="translate(14.634 -59.222)">
        <path id="path5058" d="M0,0H5.565" fill="none" stroke="#000" stroke-linecap="round" stroke-linejoin="round" stroke-miterlimit="10" stroke-width="3.252"/>
      </g>
      <g id="g5060" transform="translate(26.702 -52.718)">
        <path id="path5062" d="M0,0H-18.572" fill="none" stroke="#000" stroke-linecap="round" stroke-linejoin="round" stroke-miterlimit="10" stroke-width="3.252"/>
      </g>
      <g id="g5064">
        <g id="g5066" clip-path="url(#clip-path-2)">
          <g id="g5072" transform="translate(17.416 -33.206)">
            <path id="path5074" d="M0,0V18.572A9.286,9.286,0,0,0,9.286,9.286,9.286,9.286,0,0,0,0,0" fill="#c44e46"/>
          </g>
          <g id="g5076" transform="translate(20.198 -23.92)">
            <path id="path5078" d="M0,0C0-5.129-1.246-9.286-2.782-9.286A9.286,9.286,0,0,0-12.068,0,9.286,9.286,0,0,0-2.782,9.286C-1.246,9.286,0,5.129,0,0" fill="#ff4c3b"/>
          </g>
          <g id="g5080" transform="translate(26.702 -23.92)">
            <path id="path5082" d="M0,0A9.286,9.286,0,0,0-9.286-9.286,9.286,9.286,0,0,0-18.572,0,9.286,9.286,0,0,0-9.286,9.286,9.286,9.286,0,0,0,0,0Z" fill="none" stroke="#000" stroke-linecap="round" stroke-linejoin="round" stroke-miterlimit="10" stroke-width="3.252"/>
          </g>
          <g id="g5084" transform="translate(64.786 -109.374)">
            <path id="path5086" d="M0,0-19.512,53.874,0,107.748H6.5V0Z" fill="#43b7d9"/>
          </g>
          <g id="g5088" transform="translate(39.71 -109.374)">
            <path id="path5090" d="M0,0V107.748H25.076V63.16L15.32,34.832,25.076,6.5V0Z" fill="#54d8ff"/>
          </g>
          <g id="g5092" transform="translate(64.786 -52.718)">
            <path id="path5094" d="M0,0V6.5H-6.5L-9.756-6.5Z" fill="#ffe341"/>
          </g>
          <g id="g5096" transform="translate(46.214 -52.718)">
            <path id="path5098" d="M0,0V6.5H12.068V-6.5Z" fill="#fff1a0"/>
          </g>
          <g id="g5100" transform="translate(64.786 -78.733)">
            <path id="path5102" d="M0,0V26.016H-6.5l-6.5-32.52Z" fill="#fff9d6"/>
          </g>
          <g id="g5104" transform="translate(46.214 -78.733)">
            <path id="path5106" d="M0,0V26.016H12.068V-6.5Z" fill="#fff"/>
          </g>
          <g id="g5108" transform="translate(58.282 -102.87)">
            <path id="path5110" d="M0,0-6.5,12.068,0,24.137H6.5V0Z" fill="#ff4c3b"/>
          </g>
          <path id="path5112" d="M46.214-78.733H58.282V-102.87H46.214Z" fill="#ff6c4a"/>
          <path id="path5114" d="M39.71-1.626H71.29V-109.374H39.71Z" fill="none" stroke="#000" stroke-linecap="round" stroke-linejoin="round" stroke-miterlimit="10" stroke-width="3.252"/>
          <path id="path5116" d="M46.214-102.87H64.786v56.656H46.214Z" fill="none" stroke="#000" stroke-linecap="round" stroke-linejoin="round" stroke-miterlimit="10" stroke-width="3.252"/>
          <g id="g5118" transform="translate(46.214 -78.733)">
            <path id="path5120" d="M0,0H18.572" fill="none" stroke="#000" stroke-linecap="round" stroke-linejoin="round" stroke-miterlimit="10" stroke-width="3.252"/>
          </g>
          <g id="g5122" transform="translate(52.718 -72.23)">
            <path id="path5124" d="M0,0H5.565" fill="none" stroke="#000" stroke-linecap="round" stroke-linejoin="round" stroke-miterlimit="10" stroke-width="3.252"/>
          </g>
          <g id="g5126" transform="translate(52.718 -65.726)">
            <path id="path5128" d="M0,0H5.565" fill="none" stroke="#000" stroke-linecap="round" stroke-linejoin="round" stroke-miterlimit="10" stroke-width="3.252"/>
          </g>
          <g id="g5130" transform="translate(52.718 -59.222)">
            <path id="path5132" d="M0,0H5.565" fill="none" stroke="#000" stroke-linecap="round" stroke-linejoin="round" stroke-miterlimit="10" stroke-width="3.252"/>
          </g>
          <g id="g5134" transform="translate(64.786 -52.718)">
            <path id="path5136" d="M0,0H-18.572" fill="none" stroke="#000" stroke-linecap="round" stroke-linejoin="round" stroke-miterlimit="10" stroke-width="3.252"/>
          </g>
          <g id="g5138" transform="translate(55.5 -33.206)">
            <path id="path5140" d="M0,0V18.572A9.286,9.286,0,0,0,9.286,9.286,9.286,9.286,0,0,0,0,0" fill="#3295b2"/>
          </g>
          <g id="g5142" transform="translate(58.282 -23.92)">
            <path id="path5144" d="M0,0C0-5.129-1.246-9.286-2.782-9.286A9.286,9.286,0,0,0-12.068,0,9.286,9.286,0,0,0-2.782,9.286C-1.246,9.286,0,5.129,0,0" fill="#43b7d9"/>
          </g>
          <g id="g5146" transform="translate(64.786 -23.92)">
            <path id="path5148" d="M0,0A9.286,9.286,0,0,0-9.286-9.286,9.286,9.286,0,0,0-18.572,0,9.286,9.286,0,0,0-9.286,9.286,9.286,9.286,0,0,0,0,0Z" fill="none" stroke="#000" stroke-linecap="round" stroke-linejoin="round" stroke-miterlimit="10" stroke-width="3.252"/>
          </g>
          <g id="g5150" transform="translate(102.87 -109.374)">
            <path id="path5152" d="M0,0-19.512,53.874,0,107.748H6.5V0Z" fill="#ffa951"/>
          </g>
          <g id="g5154" transform="translate(77.794 -109.374)">
            <path id="path5156" d="M0,0V107.748H25.076V63.16L15.32,34.832,25.076,6.5V0Z" fill="#ffc649"/>
          </g>
          <g id="g5158" transform="translate(102.87 -52.718)">
            <path id="path5160" d="M0,0V6.5H-6.5L-9.756-6.5Z" fill="#ffe341"/>
          </g>
          <g id="g5162" transform="translate(84.298 -52.718)">
            <path id="path5164" d="M0,0V6.5H12.068V-6.5Z" fill="#fff1a0"/>
          </g>
          <g id="g5166" transform="translate(102.87 -78.733)">
            <path id="path5168" d="M0,0V26.016H-6.5l-6.5-32.52Z" fill="#fff9d6"/>
          </g>
          <g id="g5170" transform="translate(84.298 -78.733)">
            <path id="path5172" d="M0,0V26.016H12.068V-6.5Z" fill="#fff"/>
          </g>
          <g id="g5174" transform="translate(96.366 -102.87)">
            <path id="path5176" d="M0,0-6.5,12.068,0,24.137H6.5V0Z" fill="#3295b2"/>
          </g>
          <path id="path5178" d="M84.3-78.733H96.366V-102.87H84.3Z" fill="#43b7d9"/>
          <path id="path5180" d="M77.794-1.626h31.58V-109.374H77.794Z" fill="none" stroke="#000" stroke-linecap="round" stroke-linejoin="round" stroke-miterlimit="10" stroke-width="3.252"/>
          <path id="path5182" d="M84.3-102.87H102.87v56.656H84.3Z" fill="none" stroke="#000" stroke-linecap="round" stroke-linejoin="round" stroke-miterlimit="10" stroke-width="3.252"/>
          <g id="g5184" transform="translate(84.298 -78.733)">
            <path id="path5186" d="M0,0H18.572" fill="none" stroke="#000" stroke-linecap="round" stroke-linejoin="round" stroke-miterlimit="10" stroke-width="3.252"/>
          </g>
          <g id="g5188" transform="translate(90.802 -72.23)">
            <path id="path5190" d="M0,0H5.565" fill="none" stroke="#000" stroke-linecap="round" stroke-linejoin="round" stroke-miterlimit="10" stroke-width="3.252"/>
          </g>
          <g id="g5192" transform="translate(90.802 -65.726)">
            <path id="path5194" d="M0,0H5.565" fill="none" stroke="#000" stroke-linecap="round" stroke-linejoin="round" stroke-miterlimit="10" stroke-width="3.252"/>
          </g>
          <g id="g5196" transform="translate(90.802 -59.222)">
            <path id="path5198" d="M0,0H5.565" fill="none" stroke="#000" stroke-linecap="round" stroke-linejoin="round" stroke-miterlimit="10" stroke-width="3.252"/>
          </g>
          <g id="g5200" transform="translate(102.87 -52.718)">
            <path id="path5202" d="M0,0H-18.572" fill="none" stroke="#000" stroke-linecap="round" stroke-linejoin="round" stroke-miterlimit="10" stroke-width="3.252"/>
          </g>
          <g id="g5204" transform="translate(93.584 -33.206)">
            <path id="path5206" d="M0,0V18.572A9.286,9.286,0,0,0,9.286,9.286,9.286,9.286,0,0,0,0,0" fill="#ff8c59"/>
          </g>
          <g id="g5208" transform="translate(96.366 -23.92)">
            <path id="path5210" d="M0,0C0-5.129-1.246-9.286-2.782-9.286A9.286,9.286,0,0,0-12.068,0,9.286,9.286,0,0,0-2.782,9.286C-1.246,9.286,0,5.129,0,0" fill="#ffa951"/>
          </g>
          <g id="g5212" transform="translate(102.87 -23.92)">
            <path id="path5214" d="M0,0A9.286,9.286,0,0,0-9.286-9.286,9.286,9.286,0,0,0-18.572,0,9.286,9.286,0,0,0-9.286,9.286,9.286,9.286,0,0,0,0,0Z" fill="none" stroke="#000" stroke-linecap="round" stroke-linejoin="round" stroke-miterlimit="10" stroke-width="3.252"/>
          </g>
        </g>
      </g>
    </g>
  </g>
</svg>
