<svg xmlns="http://www.w3.org/2000/svg" xmlns:xlink="http://www.w3.org/1999/xlink" width="399" height="527" viewBox="0 0 399 527">
  <defs>
    <clipPath id="clip-path">
      <rect id="Rectángulo_403792" data-name="Rectángulo 403792" width="398.949" height="428.437" fill="none"/>
    </clipPath>
  </defs>
  <g id="img16" transform="translate(-1021.051 -4493)">
    <rect id="Rectángulo_403793" data-name="Rectángulo 403793" width="295" height="527" rx="20" transform="translate(1125.051 4493)" fill="#e2f4f9"/>
    <g id="Grupo_1102619" data-name="Grupo 1102619" transform="translate(1021.051 4551.259)">
      <rect id="Rectángulo_403766" data-name="Rectángulo 403766" width="3.395" height="12.563" transform="translate(5.772 372.972)" fill="#232c44"/>
      <g id="Grupo_1102618" data-name="Grupo 1102618">
        <g id="Grupo_1102617" data-name="Grupo 1102617" clip-path="url(#clip-path)">
          <path id="Trazado_918399" data-name="Trazado 918399" d="M12.348,1346.214h3.417l2.974,4.067a1.018,1.018,0,0,1-.822,1.62H10.211a1.019,1.019,0,0,1-.824-1.618Z" transform="translate(-6.597 -966.366)" fill="#232c44"/>
          <rect id="Rectángulo_403767" data-name="Rectángulo 403767" width="3.396" height="12.563" transform="translate(166.032 372.972)" fill="#232c44"/>
          <path id="Trazado_918400" data-name="Trazado 918400" d="M580.326,1346.214h3.417l2.974,4.067a1.018,1.018,0,0,1-.822,1.62h-7.706a1.018,1.018,0,0,1-.823-1.618Z" transform="translate(-414.314 -966.366)" fill="#232c44"/>
          <path id="Trazado_918401" data-name="Trazado 918401" d="M174.178,373.821H1.019A1.019,1.019,0,0,1,0,372.8V1.019A1.019,1.019,0,0,1,1.019,0H174.178A1.018,1.018,0,0,1,175.2,1.019V372.8a1.018,1.018,0,0,1-1.019,1.019" fill="#485a7e"/>
          <path id="Trazado_918402" data-name="Trazado 918402" d="M185.712,392.51H27.492a1.019,1.019,0,0,1-1.019-1.019V43.135a1.019,1.019,0,0,1,1.019-1.019h158.22a1.019,1.019,0,0,1,1.019,1.019V391.491a1.019,1.019,0,0,1-1.019,1.019" transform="translate(-19.003 -30.233)" fill="#232c44"/>
          <path id="Trazado_918403" data-name="Trazado 918403" d="M192.8,213.129H60.126a6.239,6.239,0,0,1,0-12.478H192.8a6.239,6.239,0,0,1,0,12.478" transform="translate(-38.682 -144.035)" fill="#bec1c4"/>
          <path id="Trazado_918404" data-name="Trazado 918404" d="M143.577,217.749H79.406a3.247,3.247,0,1,1,0-6.493h64.171a3.247,3.247,0,1,1,0,6.493" transform="translate(-54.67 -151.648)" fill="#75a38e"/>
          <path id="Trazado_918405" data-name="Trazado 918405" d="M539.086,214.5a3.247,3.247,0,1,0-3.247,3.247,3.247,3.247,0,0,0,3.247-3.247" transform="translate(-382.317 -151.647)" fill="#485a7e"/>
          <path id="Trazado_918406" data-name="Trazado 918406" d="M504.341,214.5a3.247,3.247,0,1,0-3.247,3.247,3.247,3.247,0,0,0,3.247-3.247" transform="translate(-357.375 -151.647)" fill="#485a7e"/>
          <path id="Trazado_918407" data-name="Trazado 918407" d="M469.6,214.5a3.247,3.247,0,1,0-3.247,3.247A3.247,3.247,0,0,0,469.6,214.5" transform="translate(-332.433 -151.647)" fill="#485a7e"/>
          <path id="Trazado_918408" data-name="Trazado 918408" d="M434.849,214.5a3.247,3.247,0,1,0-3.247,3.247,3.247,3.247,0,0,0,3.247-3.247" transform="translate(-307.491 -151.647)" fill="#485a7e"/>
          <path id="Trazado_918409" data-name="Trazado 918409" d="M195.133,281.187H62.463a6.239,6.239,0,0,1,0-12.478H195.133a6.239,6.239,0,1,1,0,12.478" transform="translate(-40.36 -192.89)" fill="#bec1c4"/>
          <path id="Trazado_918410" data-name="Trazado 918410" d="M145.913,285.806H81.742a3.247,3.247,0,1,1,0-6.493h64.171a3.247,3.247,0,1,1,0,6.493" transform="translate(-56.347 -200.502)" fill="#75a38e"/>
          <path id="Trazado_918411" data-name="Trazado 918411" d="M541.423,282.56a3.247,3.247,0,1,0-3.247,3.247,3.247,3.247,0,0,0,3.247-3.247" transform="translate(-383.994 -200.502)" fill="#485a7e"/>
          <path id="Trazado_918412" data-name="Trazado 918412" d="M506.677,282.56a3.247,3.247,0,1,0-3.247,3.247,3.247,3.247,0,0,0,3.247-3.247" transform="translate(-359.052 -200.502)" fill="#485a7e"/>
          <path id="Trazado_918413" data-name="Trazado 918413" d="M471.931,282.56a3.247,3.247,0,1,0-3.247,3.247,3.247,3.247,0,0,0,3.247-3.247" transform="translate(-334.11 -200.502)" fill="#485a7e"/>
          <path id="Trazado_918414" data-name="Trazado 918414" d="M437.185,282.56a3.247,3.247,0,1,0-3.247,3.247,3.247,3.247,0,0,0,3.247-3.247" transform="translate(-309.167 -200.502)" fill="#485a7e"/>
          <rect id="Rectángulo_403768" data-name="Rectángulo 403768" width="2.769" height="7.523" transform="translate(112.345 59.093)" fill="#fff"/>
          <rect id="Rectángulo_403769" data-name="Rectángulo 403769" width="2.769" height="7.523" transform="translate(106.769 59.093)" fill="#fff"/>
          <rect id="Rectángulo_403770" data-name="Rectángulo 403770" width="2.769" height="7.523" transform="translate(101.193 59.093)" fill="#fff"/>
          <rect id="Rectángulo_403771" data-name="Rectángulo 403771" width="2.769" height="7.523" transform="translate(112.345 78.296)" fill="#fff"/>
          <rect id="Rectángulo_403772" data-name="Rectángulo 403772" width="2.769" height="7.523" transform="translate(106.769 78.296)" fill="#fff"/>
          <rect id="Rectángulo_403773" data-name="Rectángulo 403773" width="2.769" height="7.523" transform="translate(101.193 78.296)" fill="#fff"/>
          <path id="Trazado_918415" data-name="Trazado 918415" d="M192.8,440.656H60.126a6.239,6.239,0,0,1,0-12.478H192.8a6.239,6.239,0,1,1,0,12.478" transform="translate(-38.682 -307.363)" fill="#bec1c4"/>
          <path id="Trazado_918416" data-name="Trazado 918416" d="M143.577,445.276H79.406a3.247,3.247,0,1,1,0-6.493h64.171a3.247,3.247,0,1,1,0,6.493" transform="translate(-54.67 -314.976)" fill="#75a38e"/>
          <path id="Trazado_918417" data-name="Trazado 918417" d="M539.086,442.029a3.247,3.247,0,1,0-3.247,3.247,3.247,3.247,0,0,0,3.247-3.247" transform="translate(-382.317 -314.975)" fill="#485a7e"/>
          <path id="Trazado_918418" data-name="Trazado 918418" d="M504.341,442.029a3.247,3.247,0,1,0-3.247,3.247,3.247,3.247,0,0,0,3.247-3.247" transform="translate(-357.375 -314.975)" fill="#485a7e"/>
          <path id="Trazado_918419" data-name="Trazado 918419" d="M469.6,442.029a3.247,3.247,0,1,0-3.247,3.247,3.247,3.247,0,0,0,3.247-3.247" transform="translate(-332.433 -314.975)" fill="#485a7e"/>
          <path id="Trazado_918420" data-name="Trazado 918420" d="M434.849,442.029a3.247,3.247,0,1,0-3.247,3.247,3.247,3.247,0,0,0,3.247-3.247" transform="translate(-307.491 -314.975)" fill="#485a7e"/>
          <path id="Trazado_918421" data-name="Trazado 918421" d="M195.133,508.713H62.463a6.239,6.239,0,0,1,0-12.478H195.133a6.239,6.239,0,1,1,0,12.478" transform="translate(-40.36 -356.217)" fill="#bec1c4"/>
          <path id="Trazado_918422" data-name="Trazado 918422" d="M145.913,513.333H81.742a3.247,3.247,0,1,1,0-6.493h64.171a3.247,3.247,0,1,1,0,6.493" transform="translate(-56.347 -363.83)" fill="#75a38e"/>
          <path id="Trazado_918423" data-name="Trazado 918423" d="M541.423,510.086a3.247,3.247,0,1,0-3.247,3.247,3.247,3.247,0,0,0,3.247-3.247" transform="translate(-383.994 -363.829)" fill="#485a7e"/>
          <path id="Trazado_918424" data-name="Trazado 918424" d="M506.677,510.086a3.247,3.247,0,1,0-3.247,3.247,3.247,3.247,0,0,0,3.247-3.247" transform="translate(-359.052 -363.829)" fill="#485a7e"/>
          <path id="Trazado_918425" data-name="Trazado 918425" d="M471.931,510.086a3.247,3.247,0,1,0-3.247,3.247,3.247,3.247,0,0,0,3.247-3.247" transform="translate(-334.11 -363.829)" fill="#485a7e"/>
          <path id="Trazado_918426" data-name="Trazado 918426" d="M437.185,510.086a3.247,3.247,0,1,0-3.247,3.247,3.247,3.247,0,0,0,3.247-3.247" transform="translate(-309.167 -363.829)" fill="#485a7e"/>
          <rect id="Rectángulo_403774" data-name="Rectángulo 403774" width="2.769" height="7.523" transform="translate(112.345 123.292)" fill="#fff"/>
          <rect id="Rectángulo_403775" data-name="Rectángulo 403775" width="2.769" height="7.523" transform="translate(106.769 123.292)" fill="#fff"/>
          <rect id="Rectángulo_403776" data-name="Rectángulo 403776" width="2.769" height="7.523" transform="translate(101.193 123.292)" fill="#fff"/>
          <rect id="Rectángulo_403777" data-name="Rectángulo 403777" width="2.769" height="7.523" transform="translate(112.345 142.495)" fill="#fff"/>
          <rect id="Rectángulo_403778" data-name="Rectángulo 403778" width="2.769" height="7.523" transform="translate(106.769 142.495)" fill="#fff"/>
          <rect id="Rectángulo_403779" data-name="Rectángulo 403779" width="2.769" height="7.523" transform="translate(101.193 142.495)" fill="#fff"/>
          <rect id="Rectángulo_403780" data-name="Rectángulo 403780" width="167.077" height="15.279" transform="translate(5.52 211.271)" fill="#485a7e"/>
          <rect id="Rectángulo_403781" data-name="Rectángulo 403781" width="167.077" height="15.279" transform="translate(5.52 97.402)" fill="#485a7e"/>
          <path id="Trazado_918427" data-name="Trazado 918427" d="M192.8,82.814H60.126a6.239,6.239,0,0,1,0-12.478H192.8a6.239,6.239,0,0,1,0,12.478" transform="translate(-38.682 -50.49)" fill="#bec1c4"/>
          <path id="Trazado_918428" data-name="Trazado 918428" d="M143.577,87.434H79.406a3.247,3.247,0,1,1,0-6.493h64.171a3.247,3.247,0,1,1,0,6.493" transform="translate(-54.67 -58.103)" fill="#75a38e"/>
          <path id="Trazado_918429" data-name="Trazado 918429" d="M539.086,84.187a3.247,3.247,0,1,0-3.247,3.247,3.247,3.247,0,0,0,3.247-3.247" transform="translate(-382.317 -58.102)" fill="#485a7e"/>
          <path id="Trazado_918430" data-name="Trazado 918430" d="M504.341,84.187a3.247,3.247,0,1,0-3.247,3.247,3.247,3.247,0,0,0,3.247-3.247" transform="translate(-357.375 -58.102)" fill="#485a7e"/>
          <path id="Trazado_918431" data-name="Trazado 918431" d="M469.6,84.187a3.247,3.247,0,1,0-3.247,3.247,3.247,3.247,0,0,0,3.247-3.247" transform="translate(-332.433 -58.102)" fill="#485a7e"/>
          <path id="Trazado_918432" data-name="Trazado 918432" d="M434.849,84.187a3.247,3.247,0,1,0-3.247,3.247,3.247,3.247,0,0,0,3.247-3.247" transform="translate(-307.491 -58.102)" fill="#485a7e"/>
          <path id="Trazado_918433" data-name="Trazado 918433" d="M195.133,150.871H62.463a6.239,6.239,0,0,1,0-12.478H195.133a6.239,6.239,0,1,1,0,12.478" transform="translate(-40.36 -99.344)" fill="#bec1c4"/>
          <path id="Trazado_918434" data-name="Trazado 918434" d="M145.913,155.491H81.742a3.247,3.247,0,1,1,0-6.493h64.171a3.247,3.247,0,1,1,0,6.493" transform="translate(-56.347 -106.957)" fill="#75a38e"/>
          <path id="Trazado_918435" data-name="Trazado 918435" d="M541.423,152.245a3.247,3.247,0,1,0-3.247,3.247,3.247,3.247,0,0,0,3.247-3.247" transform="translate(-383.994 -106.957)" fill="#485a7e"/>
          <path id="Trazado_918436" data-name="Trazado 918436" d="M506.677,152.245a3.247,3.247,0,1,0-3.247,3.247,3.247,3.247,0,0,0,3.247-3.247" transform="translate(-359.052 -106.957)" fill="#485a7e"/>
          <path id="Trazado_918437" data-name="Trazado 918437" d="M471.931,152.245a3.247,3.247,0,1,0-3.247,3.247,3.247,3.247,0,0,0,3.247-3.247" transform="translate(-334.11 -106.957)" fill="#485a7e"/>
          <path id="Trazado_918438" data-name="Trazado 918438" d="M437.185,152.245a3.247,3.247,0,1,0-3.247,3.247,3.247,3.247,0,0,0,3.247-3.247" transform="translate(-309.167 -106.957)" fill="#485a7e"/>
          <rect id="Rectángulo_403782" data-name="Rectángulo 403782" width="2.769" height="7.523" transform="translate(112.345 22.329)" fill="#fff"/>
          <rect id="Rectángulo_403783" data-name="Rectángulo 403783" width="2.769" height="7.523" transform="translate(106.769 22.329)" fill="#fff"/>
          <rect id="Rectángulo_403784" data-name="Rectángulo 403784" width="2.769" height="7.523" transform="translate(101.193 22.329)" fill="#fff"/>
          <rect id="Rectángulo_403785" data-name="Rectángulo 403785" width="2.769" height="7.523" transform="translate(112.345 41.532)" fill="#fff"/>
          <rect id="Rectángulo_403786" data-name="Rectángulo 403786" width="2.769" height="7.523" transform="translate(106.769 41.532)" fill="#fff"/>
          <rect id="Rectángulo_403787" data-name="Rectángulo 403787" width="2.769" height="7.523" transform="translate(101.193 41.532)" fill="#fff"/>
          <path id="Trazado_918439" data-name="Trazado 918439" d="M541.423,364.015a3.247,3.247,0,1,0-3.247,3.247,3.247,3.247,0,0,0,3.247-3.247" transform="translate(-383.994 -258.974)" fill="#232c44"/>
          <path id="Trazado_918440" data-name="Trazado 918440" d="M427.4,370.037h22.282a1.719,1.719,0,1,0,0-3.438H427.4a1.719,1.719,0,0,0,0,3.438" transform="translate(-305.574 -263.159)" fill="#232c44"/>
          <path id="Trazado_918441" data-name="Trazado 918441" d="M541.423,766.774a3.247,3.247,0,1,0-3.247,3.247,3.247,3.247,0,0,0,3.247-3.247" transform="translate(-383.994 -548.09)" fill="#232c44"/>
          <path id="Trazado_918442" data-name="Trazado 918442" d="M427.4,772.8h22.282a1.719,1.719,0,0,0,0-3.438H427.4a1.719,1.719,0,0,0,0,3.438" transform="translate(-305.574 -552.277)" fill="#232c44"/>
          <rect id="Rectángulo_403788" data-name="Rectángulo 403788" width="167.077" height="15.279" transform="translate(5.52 160.771)" fill="#485a7e"/>
          <path id="Trazado_918443" data-name="Trazado 918443" d="M541.423,587.795a3.247,3.247,0,1,0-3.247,3.247,3.247,3.247,0,0,0,3.247-3.247" transform="translate(-383.994 -419.612)" fill="#232c44"/>
          <path id="Trazado_918444" data-name="Trazado 918444" d="M427.4,593.817h22.282a1.719,1.719,0,1,0,0-3.438H427.4a1.719,1.719,0,0,0,0,3.438" transform="translate(-305.574 -423.798)" fill="#232c44"/>
          <rect id="Rectángulo_403789" data-name="Rectángulo 403789" width="167.077" height="31.683" transform="translate(5.52 322.833)" fill="#485a7e"/>
          <rect id="Rectángulo_403790" data-name="Rectángulo 403790" width="167.077" height="31.683" transform="translate(5.52 283.924)" fill="#485a7e"/>
          <path id="Trazado_918445" data-name="Trazado 918445" d="M56.223,1053.33a3.247,3.247,0,1,1,3.247,3.247,3.247,3.247,0,0,1-3.247-3.247" transform="translate(-40.359 -753.792)" fill="#232c44"/>
          <path id="Trazado_918446" data-name="Trazado 918446" d="M121.329,1059.353H99.048a1.719,1.719,0,0,1,0-3.438h22.282a1.719,1.719,0,0,1,0,3.438" transform="translate(-69.867 -757.978)" fill="#232c44"/>
          <path id="Trazado_918447" data-name="Trazado 918447" d="M56.223,1192.035a3.247,3.247,0,1,1,3.247,3.247,3.247,3.247,0,0,1-3.247-3.247" transform="translate(-40.359 -853.36)" fill="#232c44"/>
          <path id="Trazado_918448" data-name="Trazado 918448" d="M121.329,1198.057H99.048a1.719,1.719,0,0,1,0-3.438h22.282a1.719,1.719,0,0,1,0,3.438" transform="translate(-69.867 -857.545)" fill="#232c44"/>
          <path id="Trazado_918449" data-name="Trazado 918449" d="M195.133,949.956H62.463a6.239,6.239,0,0,1,0-12.478H195.133a6.239,6.239,0,1,1,0,12.478" transform="translate(-40.36 -672.959)" fill="#485a7e"/>
          <path id="Trazado_918450" data-name="Trazado 918450" d="M81.052,952.941a2.613,2.613,0,1,0-2.613,2.613,2.613,2.613,0,0,0,2.613-2.613" transform="translate(-54.431 -682.184)" fill="#75a38e"/>
          <path id="Trazado_918451" data-name="Trazado 918451" d="M123.518,952.941a2.613,2.613,0,1,0-2.613,2.613,2.613,2.613,0,0,0,2.613-2.613" transform="translate(-84.915 -682.184)" fill="#75a38e"/>
          <path id="Trazado_918452" data-name="Trazado 918452" d="M165.984,952.941a2.613,2.613,0,1,0-2.613,2.613,2.613,2.613,0,0,0,2.613-2.613" transform="translate(-115.399 -682.184)" fill="#232c44"/>
          <path id="Trazado_918453" data-name="Trazado 918453" d="M208.45,952.941a2.613,2.613,0,1,0-2.613,2.613,2.613,2.613,0,0,0,2.613-2.613" transform="translate(-145.882 -682.184)" fill="#232c44"/>
          <path id="Trazado_918454" data-name="Trazado 918454" d="M420.781,952.941a2.613,2.613,0,1,0-2.613,2.613,2.613,2.613,0,0,0,2.613-2.613" transform="translate(-298.302 -682.184)" fill="#75a38e"/>
          <path id="Trazado_918455" data-name="Trazado 918455" d="M463.247,952.941a2.613,2.613,0,1,0-2.613,2.613,2.613,2.613,0,0,0,2.613-2.613" transform="translate(-328.786 -682.184)" fill="#232c44"/>
          <path id="Trazado_918456" data-name="Trazado 918456" d="M406.041,645.306H401.1v9.663h6.166v-9.663Z" transform="translate(-287.928 -463.226)" fill="#485a7e"/>
          <path id="Trazado_918457" data-name="Trazado 918457" d="M406.041,697.036H401.1V706.7h6.166v-9.662Z" transform="translate(-287.928 -500.36)" fill="#485a7e"/>
          <path id="Trazado_918458" data-name="Trazado 918458" d="M443.646,645.306h-4.938v9.663h6.166v-9.663Z" transform="translate(-314.922 -463.226)" fill="#485a7e"/>
          <path id="Trazado_918459" data-name="Trazado 918459" d="M443.646,697.036h-4.938V706.7h6.166v-9.662Z" transform="translate(-314.922 -500.36)" fill="#485a7e"/>
          <path id="Trazado_918460" data-name="Trazado 918460" d="M478.707,645.306h-4.938v9.663h6.166v-9.663Z" transform="translate(-340.091 -463.226)" fill="#485a7e"/>
          <path id="Trazado_918461" data-name="Trazado 918461" d="M478.707,697.036h-4.938V706.7h6.166v-9.662Z" transform="translate(-340.091 -500.36)" fill="#485a7e"/>
          <path id="Trazado_918462" data-name="Trazado 918462" d="M513.769,645.306H508.83v9.663H515v-9.663Z" transform="translate(-365.259 -463.226)" fill="#485a7e"/>
          <path id="Trazado_918463" data-name="Trazado 918463" d="M513.769,697.036H508.83V706.7H515v-9.662Z" transform="translate(-365.259 -500.36)" fill="#485a7e"/>
          <path id="Trazado_918464" data-name="Trazado 918464" d="M549.952,645.306h-4.938v9.663h6.166v-9.663Z" transform="translate(-391.233 -463.226)" fill="#485a7e"/>
          <path id="Trazado_918465" data-name="Trazado 918465" d="M549.952,697.036h-4.938V706.7h6.166v-9.662Z" transform="translate(-391.233 -500.36)" fill="#485a7e"/>
          <path id="Trazado_918466" data-name="Trazado 918466" d="M24.888,1039.718a.509.509,0,0,1-.509-.509v-28.6a.509.509,0,1,1,1.019,0v28.6a.509.509,0,0,1-.509.509" transform="translate(-17.5 -725.086)" fill="#232c44"/>
          <path id="Trazado_918467" data-name="Trazado 918467" d="M24.888,1177.425a.509.509,0,0,1-.509-.509V1148.31a.509.509,0,0,1,1.019,0v28.605a.509.509,0,0,1-.509.509" transform="translate(-17.5 -823.938)" fill="#232c44"/>
          <path id="Trazado_918468" data-name="Trazado 918468" d="M61.581,645.306H56.643v9.663h6.166v-9.663Z" transform="translate(-40.66 -463.226)" fill="#485a7e"/>
          <path id="Trazado_918469" data-name="Trazado 918469" d="M61.581,697.036H56.643V706.7h6.166v-9.662Z" transform="translate(-40.66 -500.36)" fill="#485a7e"/>
          <path id="Trazado_918470" data-name="Trazado 918470" d="M96.641,645.306H91.7v9.663h6.166v-9.663Z" transform="translate(-65.828 -463.226)" fill="#485a7e"/>
          <path id="Trazado_918471" data-name="Trazado 918471" d="M96.641,697.036H91.7V706.7h6.166v-9.662Z" transform="translate(-65.828 -500.36)" fill="#485a7e"/>
          <path id="Trazado_918472" data-name="Trazado 918472" d="M159.37,827.243H144.256v9.663H164.3v-9.663Z" transform="translate(-103.553 -593.828)" fill="#485a7e"/>
          <path id="Trazado_918473" data-name="Trazado 918473" d="M159.37,878.68H144.256v9.662H164.3V878.68Z" transform="translate(-103.553 -630.752)" fill="#485a7e"/>
          <path id="Trazado_918474" data-name="Trazado 918474" d="M157.411,841.549h-2.631a1.485,1.485,0,0,1-1.485-1.486v-.679a1.485,1.485,0,0,1,1.485-1.485h2.631a1.485,1.485,0,0,1,1.485,1.485v.679a1.485,1.485,0,0,1-1.485,1.486" transform="translate(-110.041 -601.477)" fill="#de684e"/>
          <path id="Trazado_918475" data-name="Trazado 918475" d="M191.254,841.549h-2.631a1.485,1.485,0,0,1-1.485-1.486v-.679a1.485,1.485,0,0,1,1.485-1.485h2.631a1.485,1.485,0,0,1,1.486,1.485v.679a1.485,1.485,0,0,1-1.486,1.486" transform="translate(-134.334 -601.477)" fill="#232c44"/>
          <path id="Trazado_918476" data-name="Trazado 918476" d="M191.254,892.509h-2.631a1.485,1.485,0,0,1-1.485-1.486v-.679a1.485,1.485,0,0,1,1.485-1.486h2.631a1.485,1.485,0,0,1,1.486,1.486v.679a1.485,1.485,0,0,1-1.486,1.486" transform="translate(-134.334 -638.059)" fill="#de684e"/>
          <path id="Trazado_918477" data-name="Trazado 918477" d="M157.411,892.509h-2.631a1.485,1.485,0,0,1-1.485-1.486v-.679a1.485,1.485,0,0,1,1.485-1.486h2.631a1.485,1.485,0,0,1,1.485,1.486v.679a1.485,1.485,0,0,1-1.485,1.486" transform="translate(-110.041 -638.059)" fill="#232c44"/>
          <path id="Trazado_918478" data-name="Trazado 918478" d="M334.6,827.243H319.483v9.663h20.043v-9.663Z" transform="translate(-229.338 -593.828)" fill="#485a7e"/>
          <path id="Trazado_918479" data-name="Trazado 918479" d="M334.6,878.68H319.483v9.662h20.043V878.68Z" transform="translate(-229.338 -630.752)" fill="#485a7e"/>
          <path id="Trazado_918480" data-name="Trazado 918480" d="M332.638,841.549h-2.632a1.486,1.486,0,0,1-1.485-1.486v-.679a1.485,1.485,0,0,1,1.485-1.485h2.632a1.485,1.485,0,0,1,1.485,1.485v.679a1.486,1.486,0,0,1-1.485,1.486" transform="translate(-235.826 -601.477)" fill="#232c44"/>
          <path id="Trazado_918481" data-name="Trazado 918481" d="M332.638,892.509h-2.632a1.486,1.486,0,0,1-1.485-1.486v-.679a1.486,1.486,0,0,1,1.485-1.486h2.632a1.486,1.486,0,0,1,1.485,1.486v.679a1.486,1.486,0,0,1-1.485,1.486" transform="translate(-235.826 -638.059)" fill="#ffcf69"/>
          <path id="Trazado_918482" data-name="Trazado 918482" d="M366.482,841.549H363.85a1.485,1.485,0,0,1-1.485-1.486v-.679a1.485,1.485,0,0,1,1.485-1.485h2.631a1.485,1.485,0,0,1,1.486,1.485v.679a1.486,1.486,0,0,1-1.486,1.486" transform="translate(-260.12 -601.477)" fill="#de684e"/>
          <path id="Trazado_918483" data-name="Trazado 918483" d="M366.482,892.509H363.85a1.485,1.485,0,0,1-1.485-1.486v-.679a1.485,1.485,0,0,1,1.485-1.486h2.631a1.486,1.486,0,0,1,1.486,1.486v.679a1.486,1.486,0,0,1-1.486,1.486" transform="translate(-260.12 -638.059)" fill="#232c44"/>
          <path id="Trazado_918484" data-name="Trazado 918484" d="M509.826,827.243H494.712v9.663h20.043v-9.663Z" transform="translate(-355.124 -593.828)" fill="#485a7e"/>
          <path id="Trazado_918485" data-name="Trazado 918485" d="M509.826,878.68H494.712v9.662h20.043V878.68Z" transform="translate(-355.124 -630.752)" fill="#485a7e"/>
          <path id="Trazado_918486" data-name="Trazado 918486" d="M507.866,841.549h-2.631a1.485,1.485,0,0,1-1.485-1.486v-.679a1.485,1.485,0,0,1,1.485-1.485h2.631a1.485,1.485,0,0,1,1.485,1.485v.679a1.485,1.485,0,0,1-1.485,1.486" transform="translate(-361.611 -601.477)" fill="#232c44"/>
          <path id="Trazado_918487" data-name="Trazado 918487" d="M541.71,841.549h-2.631a1.485,1.485,0,0,1-1.485-1.486v-.679a1.485,1.485,0,0,1,1.485-1.485h2.631a1.486,1.486,0,0,1,1.486,1.485v.679a1.486,1.486,0,0,1-1.486,1.486" transform="translate(-385.906 -601.477)" fill="#232c44"/>
          <path id="Trazado_918488" data-name="Trazado 918488" d="M541.71,892.509h-2.631a1.485,1.485,0,0,1-1.485-1.486v-.679a1.485,1.485,0,0,1,1.485-1.486h2.631a1.486,1.486,0,0,1,1.486,1.486v.679a1.486,1.486,0,0,1-1.486,1.486" transform="translate(-385.906 -638.059)" fill="#232c44"/>
          <path id="Trazado_918489" data-name="Trazado 918489" d="M507.866,892.509h-2.631a1.485,1.485,0,0,1-1.485-1.486v-.679a1.485,1.485,0,0,1,1.485-1.486h2.631a1.485,1.485,0,0,1,1.485,1.486v.679a1.485,1.485,0,0,1-1.485,1.486" transform="translate(-361.611 -638.059)" fill="#232c44"/>
          <path id="Trazado_918490" data-name="Trazado 918490" d="M72.694,827.243H56.642v9.663H76.685v-9.663Z" transform="translate(-40.66 -593.828)" fill="#485a7e"/>
          <path id="Trazado_918491" data-name="Trazado 918491" d="M71.391,878.68H56.643v9.662H76.685V878.68Z" transform="translate(-40.66 -630.752)" fill="#485a7e"/>
          <path id="Trazado_918492" data-name="Trazado 918492" d="M69.427,841.549H66.8a1.485,1.485,0,0,1-1.485-1.486v-.679A1.485,1.485,0,0,1,66.8,837.9h2.631a1.485,1.485,0,0,1,1.486,1.485v.679a1.486,1.486,0,0,1-1.486,1.486" transform="translate(-46.882 -601.477)" fill="#ffcf69"/>
          <path id="Trazado_918493" data-name="Trazado 918493" d="M103.27,841.549h-2.631a1.485,1.485,0,0,1-1.485-1.486v-.679a1.485,1.485,0,0,1,1.485-1.485h2.631a1.485,1.485,0,0,1,1.486,1.485v.679a1.486,1.486,0,0,1-1.486,1.486" transform="translate(-71.176 -601.477)" fill="#de684e"/>
          <path id="Trazado_918494" data-name="Trazado 918494" d="M69.427,892.509H66.8a1.485,1.485,0,0,1-1.485-1.486v-.679a1.485,1.485,0,0,1,1.485-1.486h2.631a1.485,1.485,0,0,1,1.486,1.486v.679a1.485,1.485,0,0,1-1.486,1.486" transform="translate(-46.882 -638.059)" fill="#de684e"/>
          <path id="Trazado_918495" data-name="Trazado 918495" d="M103.27,892.509h-2.631a1.485,1.485,0,0,1-1.485-1.486v-.679a1.485,1.485,0,0,1,1.485-1.486h2.631a1.485,1.485,0,0,1,1.486,1.486v.679a1.485,1.485,0,0,1-1.486,1.486" transform="translate(-71.176 -638.059)" fill="#ffcf69"/>
          <path id="Trazado_918496" data-name="Trazado 918496" d="M247.922,827.243H231.87v9.663h20.043v-9.663Z" transform="translate(-166.446 -593.828)" fill="#485a7e"/>
          <path id="Trazado_918497" data-name="Trazado 918497" d="M246.619,878.68H231.87v9.662h20.043V878.68Z" transform="translate(-166.446 -630.752)" fill="#485a7e"/>
          <path id="Trazado_918498" data-name="Trazado 918498" d="M244.655,841.549h-2.631a1.485,1.485,0,0,1-1.485-1.486v-.679a1.485,1.485,0,0,1,1.485-1.485h2.631a1.485,1.485,0,0,1,1.486,1.485v.679a1.486,1.486,0,0,1-1.486,1.486" transform="translate(-172.668 -601.477)" fill="#232c44"/>
          <path id="Trazado_918499" data-name="Trazado 918499" d="M278.5,841.549h-2.631a1.485,1.485,0,0,1-1.485-1.486v-.679a1.485,1.485,0,0,1,1.485-1.485H278.5a1.485,1.485,0,0,1,1.486,1.485v.679a1.486,1.486,0,0,1-1.486,1.486" transform="translate(-196.962 -601.477)" fill="#232c44"/>
          <path id="Trazado_918500" data-name="Trazado 918500" d="M244.655,892.509h-2.631a1.485,1.485,0,0,1-1.485-1.486v-.679a1.485,1.485,0,0,1,1.485-1.486h2.631a1.485,1.485,0,0,1,1.486,1.486v.679a1.486,1.486,0,0,1-1.486,1.486" transform="translate(-172.668 -638.059)" fill="#ffcf69"/>
          <path id="Trazado_918501" data-name="Trazado 918501" d="M278.5,892.509h-2.631a1.485,1.485,0,0,1-1.485-1.486v-.679a1.485,1.485,0,0,1,1.485-1.486H278.5a1.485,1.485,0,0,1,1.486,1.486v.679a1.485,1.485,0,0,1-1.486,1.486" transform="translate(-196.962 -638.059)" fill="#232c44"/>
          <path id="Trazado_918502" data-name="Trazado 918502" d="M423.149,827.243H407.1v9.663H427.14v-9.663Z" transform="translate(-292.231 -593.828)" fill="#485a7e"/>
          <path id="Trazado_918503" data-name="Trazado 918503" d="M421.846,878.68H407.1v9.662h20.043V878.68Z" transform="translate(-292.231 -630.752)" fill="#485a7e"/>
          <path id="Trazado_918504" data-name="Trazado 918504" d="M419.881,841.549H417.25a1.485,1.485,0,0,1-1.486-1.486v-.679a1.485,1.485,0,0,1,1.486-1.485h2.631a1.485,1.485,0,0,1,1.485,1.485v.679a1.485,1.485,0,0,1-1.485,1.486" transform="translate(-298.452 -601.477)" fill="#232c44"/>
          <path id="Trazado_918505" data-name="Trazado 918505" d="M453.726,841.549h-2.631a1.485,1.485,0,0,1-1.485-1.486v-.679a1.485,1.485,0,0,1,1.485-1.485h2.631a1.485,1.485,0,0,1,1.485,1.485v.679a1.485,1.485,0,0,1-1.485,1.486" transform="translate(-322.747 -601.477)" fill="#ffcf69"/>
          <path id="Trazado_918506" data-name="Trazado 918506" d="M419.881,892.509H417.25a1.485,1.485,0,0,1-1.486-1.486v-.679a1.485,1.485,0,0,1,1.486-1.486h2.631a1.485,1.485,0,0,1,1.485,1.486v.679a1.485,1.485,0,0,1-1.485,1.486" transform="translate(-298.452 -638.059)" fill="#232c44"/>
          <path id="Trazado_918507" data-name="Trazado 918507" d="M453.726,892.509h-2.631a1.485,1.485,0,0,1-1.485-1.486v-.679a1.485,1.485,0,0,1,1.485-1.486h2.631a1.485,1.485,0,0,1,1.485,1.486v.679a1.485,1.485,0,0,1-1.485,1.486" transform="translate(-322.747 -638.059)" fill="#232c44"/>
          <path id="Trazado_918508" data-name="Trazado 918508" d="M131.7,645.306h-4.938v9.663h6.166v-9.663Z" transform="translate(-90.997 -463.226)" fill="#485a7e"/>
          <path id="Trazado_918509" data-name="Trazado 918509" d="M131.7,697.036h-4.938V706.7h6.166v-9.662Z" transform="translate(-90.997 -500.36)" fill="#485a7e"/>
          <path id="Trazado_918510" data-name="Trazado 918510" d="M166.765,645.306h-4.938v9.663h6.166v-9.663Z" transform="translate(-116.166 -463.226)" fill="#485a7e"/>
          <path id="Trazado_918511" data-name="Trazado 918511" d="M166.765,697.036h-4.938V706.7h6.166v-9.662Z" transform="translate(-116.166 -500.36)" fill="#485a7e"/>
          <path id="Trazado_918512" data-name="Trazado 918512" d="M201.826,645.306h-4.938v9.663h6.166v-9.663Z" transform="translate(-141.334 -463.226)" fill="#485a7e"/>
          <path id="Trazado_918513" data-name="Trazado 918513" d="M201.826,697.036h-4.938V706.7h6.166v-9.662Z" transform="translate(-141.334 -500.36)" fill="#485a7e"/>
          <path id="Trazado_918514" data-name="Trazado 918514" d="M51.446,709.963a1.016,1.016,0,0,1-.773-.355c-.165-.192-.323-.386-.475-.587-5.469-7.236-6.816-18.44-7.353-26.239-.717-10.441,1.083-19.381,5.353-26.57a1.018,1.018,0,0,1,1.751,1.041c-4.053,6.826-5.759,15.368-5.07,25.39.518,7.538,1.8,18.347,6.945,25.149.126.166.258.328.395.488a1.019,1.019,0,0,1-.773,1.682" transform="translate(-30.646 -470.698)" fill="#ffcf69"/>
          <path id="Trazado_918515" data-name="Trazado 918515" d="M510.5,776.342a1.019,1.019,0,0,1-1.017-.97,84.227,84.227,0,0,0-1.3-9.741c-1.2-6.576-1.243-12.414,1.717-27.805,2.91-15.128.047-26.018.017-26.126a1.019,1.019,0,0,1,1.967-.531c.124.46,3.015,11.456.017,27.041-2.9,15.074-2.864,20.734-1.715,27.057a84.169,84.169,0,0,1,1.332,10.008,1.019,1.019,0,0,1-.969,1.066h-.05" transform="translate(-364.243 -509.964)" fill="#ffcf69"/>
          <path id="Trazado_918516" data-name="Trazado 918516" d="M60.888,763.333a1.019,1.019,0,0,1-.94-.626c-.12-.289-2.967-7.241-4.37-22.756a94.388,94.388,0,0,1,2.162-29.162,1.018,1.018,0,0,1,1.968.524,92.19,92.19,0,0,0-2.1,28.455c1.37,15.151,4.193,22.087,4.221,22.154a1.02,1.02,0,0,1-.548,1.332,1.034,1.034,0,0,1-.392.079" transform="translate(-39.66 -509.689)" fill="#de684e"/>
          <path id="Trazado_918517" data-name="Trazado 918517" d="M99.318,747.365a1.019,1.019,0,0,1-.967-.7A71.923,71.923,0,0,1,95.5,727.029c-.207-11.528,1.526-18.177,1.6-18.454a1.019,1.019,0,0,1,1.97.523c-.018.066-1.734,6.682-1.532,17.895a71.228,71.228,0,0,0,2.749,19.033,1.019,1.019,0,0,1-.647,1.287,1.035,1.035,0,0,1-.32.052" transform="translate(-68.54 -508.1)" fill="#de684e"/>
          <path id="Trazado_918518" data-name="Trazado 918518" d="M164.082,712.187a1.018,1.018,0,0,1-.623-1.825c8.761-6.747,5.842-17.826,3.02-28.54a67.6,67.6,0,0,1-2.471-12.158,39.561,39.561,0,0,1,.795-10.057,1.019,1.019,0,0,1,1.988.451,38.137,38.137,0,0,0-.749,9.475,66.246,66.246,0,0,0,2.407,11.77c2.853,10.828,6.087,23.1-3.746,30.673a1.01,1.01,0,0,1-.621.212" transform="translate(-117.053 -472.922)" fill="#de684e"/>
          <path id="Trazado_918519" data-name="Trazado 918519" d="M106.489,765.276a1.019,1.019,0,0,1-.847-1.583c.037-.056,3.752-5.714,7.7-18.246,3.924-12.451.015-31.289-.025-31.479a1.019,1.019,0,1,1,1.993-.422c.167.792,4.06,19.547-.025,32.513-4.05,12.851-7.792,18.528-7.951,18.764a1.016,1.016,0,0,1-.846.453" transform="translate(-75.711 -511.632)" fill="#ffcf69"/>
          <path id="Trazado_918520" data-name="Trazado 918520" d="M281.131,646.65v.092a1.354,1.354,0,0,1-1.355,1.354H243.392a1.352,1.352,0,0,1-1.344-1.354v-.092a1.352,1.352,0,0,1,1.344-1.355h36.384a1.354,1.354,0,0,1,1.355,1.355" transform="translate(-173.752 -463.219)" fill="#75a38e"/>
          <path id="Trazado_918521" data-name="Trazado 918521" d="M281.131,672.017v.1a1.345,1.345,0,0,1-1.355,1.344H243.392a1.343,1.343,0,0,1-1.344-1.344v-.1a1.343,1.343,0,0,1,1.344-1.344h36.384a1.345,1.345,0,0,1,1.355,1.344" transform="translate(-173.752 -481.436)" fill="#75a38e"/>
          <path id="Trazado_918522" data-name="Trazado 918522" d="M279.767,698.811H243.381a1.351,1.351,0,0,1-1.351-1.351v-.094a1.351,1.351,0,0,1,1.351-1.351h36.386a1.351,1.351,0,0,1,1.351,1.351v.094a1.351,1.351,0,0,1-1.351,1.351" transform="translate(-173.739 -499.628)" fill="#bec1c4"/>
          <path id="Trazado_918523" data-name="Trazado 918523" d="M281.131,722.712v.092a1.348,1.348,0,0,1-1.355,1.355H243.392a1.345,1.345,0,0,1-1.344-1.355v-.092a1.352,1.352,0,0,1,1.344-1.355h36.384a1.354,1.354,0,0,1,1.355,1.355" transform="translate(-173.752 -517.819)" fill="#bec1c4"/>
          <path id="Trazado_918524" data-name="Trazado 918524" d="M369.7,712.188a1.018,1.018,0,0,1-.841-1.592c.059-.087,5.842-8.867,2.183-24.52-4.66-19.933,9.278-27.086,9.419-27.156a1.019,1.019,0,1,1,.9,1.826c-.515.258-12.619,6.555-8.339,24.866,3.877,16.589-2.223,25.751-2.485,26.133a1.02,1.02,0,0,1-.842.443" transform="translate(-264.655 -472.923)" fill="#de684e"/>
          <path id="Trazado_918525" data-name="Trazado 918525" d="M323.708,646.65v.092a1.354,1.354,0,0,1-1.355,1.354H301.36v-2.8h20.993a1.354,1.354,0,0,1,1.355,1.355" transform="translate(-216.328 -463.219)" fill="#bec1c4"/>
          <path id="Trazado_918526" data-name="Trazado 918526" d="M341.38,672.017v.1a1.345,1.345,0,0,1-1.355,1.344H325.979v-2.791h14.046a1.345,1.345,0,0,1,1.355,1.344" transform="translate(-234.001 -481.436)" fill="#bec1c4"/>
          <path id="Trazado_918527" data-name="Trazado 918527" d="M249.932,721.357v2.8h-6.539a1.345,1.345,0,0,1-1.344-1.355v-.092a1.352,1.352,0,0,1,1.344-1.355Z" transform="translate(-173.752 -517.819)" fill="#75a38e"/>
          <path id="Trazado_918528" data-name="Trazado 918528" d="M117.073,1058.934c-18.944,0-32.761-4.118-35.8-10.86-1.155-2.564-.516-5.317,1.8-7.751,2.681-2.816,6.647-4.779,11.5-5.751q-1.962-8.6.6-21.422c2.017-10.066,6.019-19.676,9.889-28.969,2.1-5.043,4.271-10.259,6.084-15.455,8.224-23.572,5.315-51.56,1.385-75.827a1.019,1.019,0,1,1,2.011-.326c3.971,24.519,6.9,52.822-1.472,76.823-1.832,5.254-4.016,10.5-6.127,15.567-3.832,9.2-7.794,18.719-9.772,28.586q-2.5,12.469-.541,20.676a39.975,39.975,0,0,1,5.126-.355h.306c9.516,0,18.669,3.09,23.385,7.908,2.53,2.585,2.276,4.466,1.618,5.589-2.422,4.132-14.5,3.892-17.132,3.181-7.641-2.065-12.592-6.747-14.83-13.989-4.491.892-8.183,2.674-10.558,5.169-1.758,1.846-2.235,3.7-1.42,5.51,2.344,5.2,15.492,10.42,38.859,9.569,15-.545,30.226-1.962,44.95-3.332,5.613-.522,11.417-1.062,17.126-1.546,14.98-1.27,30.17-1.4,44.859-1.526,9.041-.076,18.389-.156,27.59-.5l6.478-.25c21.119-.826,42.957-1.677,64.285.684,5.308.588,10.747,1.248,16.007,1.888,20.392,2.476,41.479,5.034,62.149,4.331,17.872-.615,35.54-.217,50.465.252a1.018,1.018,0,0,1-.064,2.035c-14.893-.466-32.516-.861-50.331-.252-20.823.721-42-1.858-62.464-4.344-5.255-.639-10.688-1.3-15.986-1.885-21.179-2.347-42.938-1.5-63.981-.674l-6.482.25c-9.23.346-18.593.427-27.648.5-14.651.125-29.8.255-44.7,1.518-5.7.483-11.5,1.023-17.11,1.545-14.754,1.373-30.008,2.792-45.065,3.339q-2.548.093-4.992.093M97.2,1036.215c2.1,6.406,6.532,10.544,13.274,12.365,3.006.816,13.287.412,14.843-2.244.435-.742-.008-1.8-1.317-3.134-4.33-4.426-13.269-7.329-22.221-7.294a37.2,37.2,0,0,0-4.58.307" transform="translate(-57.939 -640.11)" fill="#de684e"/>
          <path id="Trazado_918529" data-name="Trazado 918529" d="M337.006,761.781c-.718,0-1.158-.034-1.233-.041a1.018,1.018,0,0,1,.172-2.029A25.515,25.515,0,0,0,351.1,755.4c5.282-3.734,5.659-10.2,6.181-19.16.16-2.743.326-5.577.651-8.624,1.346-12.6-2.134-18.167-2.17-18.221a1.019,1.019,0,0,1,1.713-1.1c.159.249,3.9,6.232,2.482,19.542-.32,3-.484,5.808-.643,8.526-.535,9.166-.957,16.406-7.04,20.7a27.151,27.151,0,0,1-15.271,4.723" transform="translate(-240.362 -508.101)" fill="#ffcf69"/>
          <path id="Trazado_918530" data-name="Trazado 918530" d="M449.818,710.826a.992.992,0,0,1-.288-.042,1.018,1.018,0,0,1-.691-1.263c.043-.146,4.25-14.773,1.642-29.122-2.651-14.575-4.439-22.153-4.456-22.229a1.018,1.018,0,0,1,1.982-.469c.018.075,1.819,7.707,4.478,22.334,2.7,14.836-1.51,29.445-1.69,30.059a1.019,1.019,0,0,1-.977.732" transform="translate(-320.155 -471.561)" fill="#ffcf69"/>
          <path id="Trazado_918531" data-name="Trazado 918531" d="M529.915,623.171a45.409,45.409,0,0,1-11.935-1.444,1.019,1.019,0,0,1,.579-1.954,49.636,49.636,0,0,0,25.081-.539c6.87-1.962,11.668-4.789,16.308-7.522,4.667-2.75,9.076-5.349,15.006-6.661,11.647-2.575,34.145,2.941,35.1,3.178a1.019,1.019,0,0,1-.49,1.977c-.23-.057-22.991-5.642-34.167-3.166-5.614,1.242-9.887,3.76-14.412,6.426-4.75,2.8-9.662,5.694-16.783,7.727a52.1,52.1,0,0,1-14.284,1.977" transform="translate(-371.304 -433.84)" fill="#ffcf69"/>
          <path id="Trazado_918532" data-name="Trazado 918532" d="M1072.5,849.633a1.528,1.528,0,0,1-1.528-1.528V645.92a1.528,1.528,0,0,1,3.056,0V848.105a1.528,1.528,0,0,1-1.528,1.528" transform="translate(-768.784 -462.57)" fill="#232c44"/>
          <path id="Trazado_918533" data-name="Trazado 918533" d="M709.66,849.633a1.528,1.528,0,0,1-1.528-1.528V645.92a1.528,1.528,0,0,1,3.056,0V848.105a1.528,1.528,0,0,1-1.528,1.528" transform="translate(-508.326 -462.57)" fill="#232c44"/>
          <rect id="Rectángulo_403791" data-name="Rectángulo 403791" width="100.633" height="3.056" transform="translate(203.079 218.992)" fill="#232c44"/>
          <path id="Trazado_918534" data-name="Trazado 918534" d="M1059.651,1364.01H1043.6a1.528,1.528,0,0,1,0-3.056h16.046a1.528,1.528,0,0,1,0,3.056" transform="translate(-748.045 -976.948)" fill="#232c44"/>
          <path id="Trazado_918535" data-name="Trazado 918535" d="M697.27,1364.01H681.224a1.528,1.528,0,1,1,0-3.056H697.27a1.528,1.528,0,0,1,0,3.056" transform="translate(-487.913 -976.948)" fill="#232c44"/>
          <path id="Trazado_918536" data-name="Trazado 918536" d="M810.858,635.114H705.944a1.019,1.019,0,0,1-1.019-1.019v-6.111a1.019,1.019,0,0,1,1.019-1.019H810.858a1.019,1.019,0,0,1,1.018,1.019V634.1a1.018,1.018,0,0,1-1.018,1.019" transform="translate(-506.024 -450.061)" fill="#bec1c4"/>
          <path id="Trazado_918537" data-name="Trazado 918537" d="M830.47,506.116H766.616a.588.588,0,0,1-.579-.687l-.009-43.305a.588.588,0,0,1,.579-.488h63.855a.588.588,0,0,1,.579.687l.009,43.305a.588.588,0,0,1-.579.488" transform="translate(-549.886 -331.38)" fill="#485a7e"/>
          <path id="Trazado_918538" data-name="Trazado 918538" d="M826.107,619.2H754.87a3.056,3.056,0,0,1,3.056-3.056h65.126a3.056,3.056,0,0,1,3.056,3.056" transform="translate(-541.876 -442.293)" fill="#485a7e"/>
          <path id="Trazado_918539" data-name="Trazado 918539" d="M833.171,509.583H772.712a.554.554,0,0,1-.548-.647l-.008-40.779a.556.556,0,0,1,.549-.46h60.459a.554.554,0,0,1,.549.647l.008,40.779a.556.556,0,0,1-.549.46" transform="translate(-554.284 -335.732)" fill="#fff"/>
          <path id="Trazado_918540" data-name="Trazado 918540" d="M801.547,477.438H781.175a.509.509,0,0,1,0-1.019h20.372a.509.509,0,1,1,0,1.019" transform="translate(-560.393 -341.993)" fill="#75a38e"/>
          <path id="Trazado_918541" data-name="Trazado 918541" d="M787.839,489.171h-6.663a.509.509,0,0,1,0-1.019h6.663a.509.509,0,1,1,0,1.019" transform="translate(-560.393 -350.415)" fill="#75a38e"/>
          <path id="Trazado_918542" data-name="Trazado 918542" d="M794.523,500.9H781.175a.509.509,0,0,1,0-1.019h13.348a.509.509,0,1,1,0,1.019" transform="translate(-560.393 -358.837)" fill="#75a38e"/>
          <path id="Trazado_918543" data-name="Trazado 918543" d="M805.282,512.635H781.175a.509.509,0,0,1,0-1.019h24.107a.509.509,0,0,1,0,1.019" transform="translate(-560.393 -367.259)" fill="#75a38e"/>
          <path id="Trazado_918544" data-name="Trazado 918544" d="M785.993,524.368h-4.817a.509.509,0,0,1,0-1.019h4.817a.509.509,0,1,1,0,1.019" transform="translate(-560.393 -375.681)" fill="#75a38e"/>
          <path id="Trazado_918545" data-name="Trazado 918545" d="M785.993,536.1h-4.817a.509.509,0,0,1,0-1.019h4.817a.509.509,0,1,1,0,1.019" transform="translate(-560.393 -384.103)" fill="#75a38e"/>
          <path id="Trazado_918546" data-name="Trazado 918546" d="M787.839,547.831h-6.663a.509.509,0,0,1,0-1.019h6.663a.509.509,0,1,1,0,1.019" transform="translate(-560.393 -392.524)" fill="#75a38e"/>
          <path id="Trazado_918547" data-name="Trazado 918547" d="M790.831,559.565h-9.656a.509.509,0,0,1,0-1.018h9.656a.509.509,0,1,1,0,1.018" transform="translate(-560.393 -400.947)" fill="#75a38e"/>
          <path id="Trazado_918548" data-name="Trazado 918548" d="M783.583,571.3h-2.408a.509.509,0,0,1,0-1.019h2.408a.509.509,0,0,1,0,1.019" transform="translate(-560.393 -409.368)" fill="#75a38e"/>
          <path id="Trazado_918549" data-name="Trazado 918549" d="M794.523,583.029H781.175a.509.509,0,0,1,0-1.019h13.348a.509.509,0,1,1,0,1.019" transform="translate(-560.393 -417.79)" fill="#75a38e"/>
          <path id="Trazado_918550" data-name="Trazado 918550" d="M801.547,594.762H781.175a.509.509,0,0,1,0-1.019h20.372a.509.509,0,0,1,0,1.019" transform="translate(-560.393 -426.212)" fill="#75a38e"/>
          <path id="Trazado_918551" data-name="Trazado 918551" d="M787.52,606.493h-6.345a.509.509,0,0,1,0-1.018h6.345a.509.509,0,1,1,0,1.018" transform="translate(-560.393 -434.634)" fill="#75a38e"/>
          <path id="Trazado_918552" data-name="Trazado 918552" d="M914.922,489.77H892.089a1.019,1.019,0,0,1-1.019-1.019v-9.507a1.019,1.019,0,0,1,1.019-1.019h22.833a1.018,1.018,0,0,1,1.019,1.019v9.507a1.018,1.018,0,0,1-1.019,1.019" transform="translate(-639.646 -343.29)" fill="#bec1c4"/>
          <path id="Trazado_918553" data-name="Trazado 918553" d="M916.234,495.361H895.1a1.018,1.018,0,0,1-1.018-1.019V488.57a1.018,1.018,0,0,1,1.018-1.019h21.136a1.019,1.019,0,0,1,1.019,1.019v5.772a1.019,1.019,0,0,1-1.019,1.019" transform="translate(-641.806 -349.984)" fill="#fff"/>
          <path id="Trazado_918554" data-name="Trazado 918554" d="M962.087,496.963a1.74,1.74,0,1,0-1.74,1.74,1.74,1.74,0,0,0,1.74-1.74" transform="translate(-688.127 -355.491)" fill="#de684e"/>
          <path id="Trazado_918555" data-name="Trazado 918555" d="M937.66,553.37H923.017a.509.509,0,0,1-.509-.509V531.98a.509.509,0,0,1,.509-.509H937.66a.509.509,0,0,1,.509.509v20.881a.509.509,0,0,1-.509.509m-14.133-1.019H937.15V532.49H923.527Z" transform="translate(-662.213 -381.511)" fill="#e3d4cf"/>
          <path id="Trazado_918556" data-name="Trazado 918556" d="M939.778,541.133h-6.684a.509.509,0,1,1,0-1.019h6.684a.509.509,0,1,1,0,1.019" transform="translate(-669.446 -387.716)" fill="#e3d4cf"/>
          <path id="Trazado_918557" data-name="Trazado 918557" d="M941.9,550.842h-8.807a.509.509,0,1,1,0-1.018H941.9a.509.509,0,1,1,0,1.018" transform="translate(-669.446 -394.686)" fill="#e3d4cf"/>
          <path id="Trazado_918558" data-name="Trazado 918558" d="M941.632,560.548h-8.913a.509.509,0,1,1,0-1.019h8.913a.509.509,0,0,1,0,1.019" transform="translate(-669.178 -401.652)" fill="#e3d4cf"/>
          <path id="Trazado_918559" data-name="Trazado 918559" d="M941.9,570.924h-8.807a.509.509,0,1,1,0-1.019H941.9a.509.509,0,1,1,0,1.019" transform="translate(-669.446 -409.101)" fill="#e3d4cf"/>
          <path id="Trazado_918560" data-name="Trazado 918560" d="M941.632,580.628h-8.913a.509.509,0,1,1,0-1.019h8.913a.509.509,0,0,1,0,1.019" transform="translate(-669.178 -416.067)" fill="#e3d4cf"/>
          <path id="Trazado_918561" data-name="Trazado 918561" d="M935.307,590.852h-2.588a.509.509,0,1,1,0-1.019h2.588a.509.509,0,1,1,0,1.019" transform="translate(-669.178 -423.406)" fill="#e3d4cf"/>
          <path id="Trazado_918562" data-name="Trazado 918562" d="M903.265,915.435l-9.086,1.772s-.02-.092-.051-.255c-.122-.56-.438-2.047-.907-4.166-2.21-10-7.813-34.082-11.938-41.416-3.911-6.927-20.808-23.58-20.808-23.58l16.837-12.141s18.394,22.4,20.777,30.038c1.864,6,3.993,33.236,4.818,44.675.143,2.017.255,3.545.306,4.37.031.458.051.7.051.7" transform="translate(-617.684 -599.863)" fill="#fea689"/>
          <path id="Trazado_918563" data-name="Trazado 918563" d="M987.148,1112.567s3.989,10.35,4.414,11.623-.594,3.865-2.971,5.158-9.1,1.391-10,.394c-2.689-2.986-.273-5.042-.1-6.061s2.207-13.411,2.207-13.411Z" transform="translate(-701.567 -796.996)" fill="#fea689"/>
          <path id="Trazado_918564" data-name="Trazado 918564" d="M554.152,1051.833c-11.13,0-22.021-1.825-31.778-8.9-12.416-9.007-20.091-22.147-27.515-34.852-9.738-16.668-18.936-32.413-37.923-39.477-25.259-9.4-97.041-7.956-120.2-6.707-27.579,1.486-53.631,2.89-63.5-30.116-9.138-30.566-23.285-38.059-23.427-38.131a1.018,1.018,0,0,1,.916-1.819c.61.305,15.039,7.848,24.463,39.368,9.409,31.468,34.684,30.108,61.439,28.664,23.264-1.252,95.433-2.685,121.016,6.833,19.668,7.319,29.482,24.116,38.971,40.36,7.318,12.523,14.884,25.474,26.952,34.23,14.4,10.448,31.716,8.934,48.46,7.471l2.822-.245a1,1,0,0,1,1.1.928,1.018,1.018,0,0,1-.928,1.1l-2.818.245c-5.993.523-12.058,1.053-18.054,1.053" transform="translate(-178.925 -640.11)" fill="#ffcf69"/>
          <path id="Trazado_918565" data-name="Trazado 918565" d="M973.728,1116.414s-2.292,3.226-2.546,5.517-.679,5.857,0,7.3,4.584,2.546,5.772,2.207.509-2.461-.594-3.4l-1.1-.934s3.65-4.786,4.074-6.977-.255-6.434-.509-6.265-5.093,2.547-5.093,2.547" transform="translate(-696.89 -799.575)" fill="#fea689"/>
          <path id="Trazado_918566" data-name="Trazado 918566" d="M983.544,1374.85s1.09.551,2.334,7.124,1.782,9.131,1.867,9.385-3.226,1.273-3.48,1.273-4.329-12.053-4.329-12.053Z" transform="translate(-703.438 -986.923)" fill="#485a7e"/>
          <path id="Trazado_918567" data-name="Trazado 918567" d="M959.622,1433.544c.949-.37,16.3-4.066,16.3-4.066l2.219-4.974-5.422-3.627-21.837,2.406Z" transform="translate(-682.584 -1019.963)" fill="#fea689"/>
          <path id="Trazado_918568" data-name="Trazado 918568" d="M1051.887,1425.645c.419-.81-5.682-13.644-8.468-19.388s-2.15-5.993-3.847-6.155a3.589,3.589,0,0,0-1.373.365,94.293,94.293,0,0,0-9.923,5.5s2.012,2.585,2.284,4.208-1.26,4.492.06,5.534,3.76,1,7.295,3.077,6.443,5.776,8.941,7.268a4.482,4.482,0,0,0,3.612.573,2.386,2.386,0,0,0,1.419-.983" transform="translate(-738.139 -1005.048)" fill="#e3d4cf"/>
          <path id="Trazado_918569" data-name="Trazado 918569" d="M1077.533,1425.588c.092-.493-6.082-13.587-8.867-19.331s-2.15-5.993-3.846-6.155a3.588,3.588,0,0,0-1.373.365l12.268,26.16c.725-.221,1.745-.648,1.818-1.039" transform="translate(-763.384 -1005.048)" fill="#f5e9e4"/>
          <path id="Trazado_918570" data-name="Trazado 918570" d="M1056.275,1447.4a.508.508,0,0,1-.281-.085l-5.453-3.624a.509.509,0,0,1,.563-.848l5.453,3.624a.509.509,0,0,1-.281.933" transform="translate(-753.957 -1035.668)" fill="#f5e9e4"/>
          <path id="Trazado_918571" data-name="Trazado 918571" d="M511.054,1395.241c.463.907,5.684,15.813,5.684,15.813l5.172,1.707,3.4-2.922-4.928-24.322Z" transform="translate(-366.855 -994.58)" fill="#fea689"/>
          <path id="Trazado_918572" data-name="Trazado 918572" d="M464.485,1479.228c.574.709,14.778.279,21.157.036s6.352.44,7.182-1.05a3.589,3.589,0,0,0,.218-1.4c.116-3.432-1.411-10.274-1.411-10.274a38.861,38.861,0,0,1-5.377-.552c-1.6-.413-3.438-2.063-4.923-1.273s-1.625,2.076-4.949,4.478-7.879,3.579-10.249,5.267a4.481,4.481,0,0,0-1.976,3.077,2.389,2.389,0,0,0,.33,1.694" transform="translate(-333.172 -1051.278)" fill="#e3d4cf"/>
          <path id="Trazado_918573" data-name="Trazado 918573" d="M464.3,1510.933c.414.282,14.886-.11,21.265-.353s6.352.44,7.181-1.049a3.594,3.594,0,0,0,.218-1.4l-28.886.723c-.089.753-.107,1.859.221,2.083" transform="translate(-333.092 -1082.594)" fill="#f5e9e4"/>
          <path id="Trazado_918574" data-name="Trazado 918574" d="M510.794,1483.163a.509.509,0,0,1-.276-.938l5.511-3.537a.51.51,0,1,1,.551.857l-5.511,3.537a.509.509,0,0,1-.275.081" transform="translate(-366.302 -1061.403)" fill="#f5e9e4"/>
          <path id="Trazado_918575" data-name="Trazado 918575" d="M714.447,1119.488s2.546,67.227,7.13,73.338,15.788,7.64,27.756,6.112,45.073-9.931,45.073-9.931-2.886-2.546-5.178-11.2-.3-12.35-.3-12.35a41.648,41.648,0,0,0-19.48,2.674,39.562,39.562,0,0,1-20.881,1.528s8.912-37.942,10.186-51.948-2.037-29.539-2.037-29.539-18.208-7.639-23.746-4.074-24.161,4.586-24.144,10.7,5.619,24.7,5.619,24.7" transform="translate(-508.825 -777.525)" fill="#232c44"/>
          <path id="Trazado_918576" data-name="Trazado 918576" d="M591.57,1091.342a133.974,133.974,0,0,1-3.143,15.462c-.952,3.593,1.331,11.261-.357,14.587-3.34,6.58-3.581,13.172-10.186,14.005-10.946,1.383-21.708-1.273-42.375-3.833-1.283-.159-23.663-3.837-23.663-3.892l10.7-34.461,18.974-6.706Z" transform="translate(-367.423 -779.936)" fill="#232c44"/>
          <path id="Trazado_918577" data-name="Trazado 918577" d="M458.19,1096.431c-.661,0-41.913,2.8-48.025,7.64s-6.366,11.714-5.857,16.043,23.428,73.593,23.428,73.593,9.5-1.528,14.6-3.056,10.613-3.056,10.613-3.056-3.683-13.5-5.466-18.844-.17-12.987-1.07-18.334-8.144-26.738-8.144-26.738Z" transform="translate(-290.105 -787.062)" fill="#232c44"/>
          <path id="Trazado_918578" data-name="Trazado 918578" d="M286.779,873.82l-5.22,7.259s38.45,14.15,41.9,14.35c5.271.32,10.289-.17,16.9-5.609,6.626-5.426,19.137-24.934,19.137-24.934L344.026,853.86s-12.25,21.624-19.6,23.8c-3.2.95-37.649-3.843-37.649-3.843" transform="translate(-202.114 -612.935)" fill="#fea689"/>
          <path id="Trazado_918579" data-name="Trazado 918579" d="M572.822,573.774a33.3,33.3,0,0,0,6.246,6.359,51.308,51.308,0,0,0,8.079,5.134c2.382,1.243,5.366,3.164,8.221,2.747,4.141-.606,7.034-3.173,6.72-.4-.074.652.625,2.33.7,1.678.728-6.408,1.886-12.4,2.175-18.838.177-3.938-.333-8.678-3.878-11.317a7.653,7.653,0,0,0-5.623-1.5c-2.34.319-3.68-1.6-6.029-2.2a14.411,14.411,0,0,0-3.055-.584,5.378,5.378,0,0,0-4.24,1.684,4,4,0,0,1-2.689,1.9c-2.06.427-5.517-.108-6.436,2.259-.4,1.02-.067,2.125-.206,3.174a6.958,6.958,0,0,1-1.235,2.8,5.153,5.153,0,0,0-.6,1.284c-.631,2.107.642,4.186,1.847,5.827" transform="translate(-409.748 -398.29)" fill="#6b3939"/>
          <path id="Trazado_918580" data-name="Trazado 918580" d="M624.363,672.107l1.815,4.583,1.885,4.767,5.565,14.076s15.886-8.163,15.9-8.438c0-.3-9.872-23.819-9.868-24.114Z" transform="translate(-448.193 -475.914)" fill="#fea689"/>
          <path id="Trazado_918581" data-name="Trazado 918581" d="M632.151,716.223c-.675-.31-11.554-2.575-11.554-2.575l-16.555,3.739-14.649,9.549s20.759,5.919,22.025,5.78,12.972-5.522,15.223-7.179,5.51-9.315,5.51-9.315" transform="translate(-423.09 -512.285)" fill="#fea689"/>
          <path id="Trazado_918582" data-name="Trazado 918582" d="M612.718,611.221c-1.752,4.441-7.354,9.85-13.333,9.544-5.266-.265-8.271-4.013-9.819-7.751a9.336,9.336,0,0,1-.367-.968c-.071-.183-.132-.377-.193-.56a93.014,93.014,0,0,1-2.475-10.807c-.061-.326-.112-.652-.163-.988-.061-.377-.112-.754-.163-1.12-.082-.54-.153-1.08-.2-1.6-.326-2.9-.367-5.46.142-6.845,1.457-3.932,10.247-7.731,10.247-7.731s10.206-2.058,13.791,3.473,4.289,20.932,2.536,25.353" transform="translate(-420.48 -417.798)" fill="#fea689"/>
          <path id="Trazado_918583" data-name="Trazado 918583" d="M597,604.935c.164,1.914,2.534,2.432,3.851,3.2a7.571,7.571,0,0,1,1.079.749c.341.287.617.646.978.909,1.018.746,2.729.512,3.9.407a10.426,10.426,0,0,0,4.564-2.081s2.808-23.926-7.788-26.55c-4.691-1.162-10.573-.159-14.788,1.808-6,2.8-6.031,7.258-6.031,7.258s4.959-.927,5.539,1.57c1.1,4.754,3.847,6.9,5.583,6.431.918-.248,1.334,2.65,2.36,5.855a.546.546,0,0,1,.757.446" transform="translate(-418.333 -417.117)" fill="#6b3939"/>
          <path id="Trazado_918584" data-name="Trazado 918584" d="M617.043,643.282l2.7,5.922a.513.513,0,0,0,.794.142c2.022-1.9,3.258-5.165,1.362-7.664-1.415-1.864-3.532-.85-4.18.9a.527.527,0,0,0-.672.7" transform="translate(-442.902 -459.911)" fill="#fea689"/>
          <path id="Trazado_918585" data-name="Trazado 918585" d="M609.674,586.66c-6.413-1.423-14.169.58-18.691,5.473-.445.481.274,1.2.72.72,4.265-4.615,11.643-6.555,17.7-5.211.639.142.911-.84.271-.982" transform="translate(-424.131 -420.807)" fill="#522828"/>
          <path id="Trazado_918586" data-name="Trazado 918586" d="M616.54,570.4c-1.8-1.941-4.608-2.977-7.113-3.657a.51.51,0,0,0-.271.982c2.339.634,4.98,1.581,6.664,3.395.447.481,1.166-.24.72-.72" transform="translate(-437.018 -406.817)" fill="#522828"/>
          <path id="Trazado_918587" data-name="Trazado 918587" d="M641.257,572.118a8.146,8.146,0,0,0-2.919-3.448c-.581-.3-1.1.578-.514.879a7.278,7.278,0,0,1,2.554,3.083c.311.577,1.191.064.879-.514" transform="translate(-457.671 -408.17)" fill="#522828"/>
          <path id="Trazado_918588" data-name="Trazado 918588" d="M587.1,653.76s-1.734,7.069-1.435,7.427c.493.589,4.032.445,4.032.445Z" transform="translate(-420.392 -469.295)" fill="#fea689"/>
          <path id="Trazado_918589" data-name="Trazado 918589" d="M591.959,644.832c.29-.673,1.139-.477,1.528-.015a2.687,2.687,0,0,1,.526,1.336,1.355,1.355,0,0,1-.156.871.88.88,0,0,1-1.089.356,1.378,1.378,0,0,1-.7-.791,2.558,2.558,0,0,1-.108-1.758" transform="translate(-424.85 -462.574)" fill="#403630"/>
          <path id="Trazado_918590" data-name="Trazado 918590" d="M592.231,634.714c-.173.54-1.008.458-1.558.489-1.029.041-2.047.194-3.066.306-.194.02-.489.071-.784.082-.082-.54-.153-1.08-.2-1.6a8.918,8.918,0,0,1,4.869-.112c.428.132.876.417.744.835" transform="translate(-421.099 -454.818)" fill="#6b3939"/>
          <path id="Trazado_918591" data-name="Trazado 918591" d="M605.668,634.356a60.761,60.761,0,0,1,3.371,13.942,6.2,6.2,0,0,1-2.9,5.921c-1.4.578-2.872-1.384-2.872-1.384s1.377,4.345,3.191,5.681c2.5,1.844,5.376,1.305,6.253-.414s.455-2.429-1.8-12.255c-1.139-4.974-2.311-8.964-2.311-8.964Z" transform="translate(-433.052 -455.366)" fill="#6b3939"/>
          <path id="Trazado_918592" data-name="Trazado 918592" d="M601.682,683.613a6.878,6.878,0,0,1-3.361,1.65,9.316,9.316,0,0,1-.367-.968,6.154,6.154,0,0,0,3.117-1.5c.479-.448,1.08.377.611.815" transform="translate(-429.235 -490.047)" fill="#f2835e"/>
          <path id="Trazado_918593" data-name="Trazado 918593" d="M592.566,707.354s-5.055-2.418-12.582-.1A33.486,33.486,0,0,0,565.7,716.3s-19.114,9.655-20.533,12.027,7.383,39.734,9.114,52.377-.968,33.6,2.58,37.166,16.944,7.554,33.352,6.436,30.131-1.733,34.562-1.257,16.954,5.854,18.51,4.148-2.863-26.361-5.167-46.858-9.088-63.977-21.513-70.782c-4.026-2.205-24.039-2.2-24.039-2.2" transform="translate(-391.233 -506.974)" fill="#ffda8a"/>
          <path id="Trazado_918594" data-name="Trazado 918594" d="M485.723,778.349a48.085,48.085,0,0,0-10.967,10.937c-4.329,6.366-15.406,26.992-15.406,26.992l25.21,14.642,11.893-7.639Z" transform="translate(-329.74 -558.73)" fill="#ffda8a"/>
          <path id="Trazado_918595" data-name="Trazado 918595" d="M794.4,716.347a48.079,48.079,0,0,1,13.826,6.981c6.1,4.7,26.473,27.18,26.473,27.18l-26.483,20.117-10.03-8.238Z" transform="translate(-570.25 -514.223)" fill="#ffda8a"/>
          <path id="Trazado_918596" data-name="Trazado 918596" d="M739.635,1253.963a.509.509,0,0,1-.059-1.015l18.461-2.188a.509.509,0,1,1,.119,1.011l-18.461,2.189a.459.459,0,0,1-.061,0" transform="translate(-530.575 -897.843)" fill="#485a7e"/>
          <path id="Trazado_918597" data-name="Trazado 918597" d="M697.238,1164.217a.521.521,0,0,1-.081-.005c-1.368-.16-6.607-4.1-7.421-6.134-.785-1.963-1.344-10.649-1.368-11.018a.511.511,0,0,1,.509-.541h16.679a.509.509,0,0,1,.506.561c-.036.36-.9,8.855-1.42,10.539s-5.794,6.6-7.4,6.6m-7.817-16.68c.192,2.791.7,8.758,1.26,10.163.734,1.833,5.789,5.406,6.595,5.5.958-.041,5.942-4.419,6.393-5.884.368-1.2.995-6.628,1.323-9.781Z" transform="translate(-494.138 -823.016)" fill="#485a7e"/>
          <path id="Trazado_918598" data-name="Trazado 918598" d="M835.016,1164.216a.413.413,0,0,1-.074-.005c-1.216-.162-5.862-4.112-6.58-6.153-.688-1.956-1.18-10.633-1.2-11a.509.509,0,0,1,.509-.539h14.677a.509.509,0,0,1,.507.554c-.032.361-.793,8.85-1.248,10.529s-5.152,6.615-6.591,6.615m-6.806-16.679c.192,3.205.629,8.807,1.113,10.183.625,1.772,5.045,5.362,5.755,5.483.746-.106,5.127-4.32,5.546-5.868.368-1.357.986-7.847,1.166-9.8Z" transform="translate(-593.77 -823.016)" fill="#485a7e"/>
          <path id="Trazado_918599" data-name="Trazado 918599" d="M799.649,1400.018a.51.51,0,0,1-.4-.82,25.856,25.856,0,0,1,4.291-4.037c3-2.349,8.295-3.127,8.519-3.159a.518.518,0,0,1,.576.432.51.51,0,0,1-.432.577c-.053.007-5.249.773-8.034,2.953a25.32,25.32,0,0,0-4.112,3.857.512.512,0,0,1-.4.2" transform="translate(-573.655 -999.231)" fill="#485a7e"/>
          <path id="Trazado_918600" data-name="Trazado 918600" d="M578.086,827.682a.509.509,0,0,1-.432-.78c.06-.095,5.926-9.545,6.664-19.356s-5.672-23.416-5.737-23.553a.509.509,0,1,1,.919-.438c.269.567,6.591,13.989,5.834,24.066s-6.757,19.725-6.817,19.822a.511.511,0,0,1-.432.239" transform="translate(-414.607 -562.259)" fill="#edc75f"/>
          <path id="Trazado_918601" data-name="Trazado 918601" d="M626.053,718.556a.509.509,0,0,1-.323-.9c.306-.25,7.553-6.151,13.464-7.4A24.586,24.586,0,0,1,649.265,710a.509.509,0,0,1-.241.99,24.089,24.089,0,0,0-9.621.263c-5.666,1.195-12.955,7.129-13.028,7.189a.512.512,0,0,1-.323.115" transform="translate(-449.04 -509.391)" fill="#edc75f"/>
          <path id="Trazado_918602" data-name="Trazado 918602" d="M841.537,785.168a.509.509,0,0,1-.506-.462c-.02-.216-2.063-21.656-4.73-29.711-2.517-7.6-3.122-8.536-3.147-8.573a.48.48,0,0,1,.027-.7.536.536,0,0,1,.741.03c.376.382,1.6,3.632,3.346,8.917,2.7,8.166,4.694,29.051,4.778,29.936a.511.511,0,0,1-.46.555l-.049,0" transform="translate(-597.973 -535.216)" fill="#edc75f"/>
          <path id="Trazado_918603" data-name="Trazado 918603" d="M621.852,1100.785c-2.138,0-4.42-.064-6.8-.222-12.839-.852-20.79-4.935-20.868-4.975a.509.509,0,1,1,.471-.9c.077.04,7.854,4.025,20.464,4.862a99.542,99.542,0,0,0,22.537-1.006.509.509,0,1,1,.191,1,95.473,95.473,0,0,1-15.992,1.243" transform="translate(-426.329 -785.767)" fill="#edc75f"/>
          <path id="Trazado_918604" data-name="Trazado 918604" d="M258.225,904.985c-1.032-2.375-1.335-5.036-3.123-7a10.463,10.463,0,0,0-5.4-3.04c-2.1-.563-1.548.547-2.812,1.72-.891.828-1.737-.373-5.108-.134s-3.12,3.565-2.1,5.6.827,4.138,2.1,5.666a6,6,0,0,0,3.629,2.546c1.974.637,10.426,1.271,10.426,1.271s4.025-2.8,4.089-3.053c.192-.77-1.216-2.542-1.542-3.234q-.08-.169-.154-.341" transform="translate(-171.567 -642.317)" fill="#fea689"/>
          <path id="Trazado_918605" data-name="Trazado 918605" d="M986.523,1104.808l-9.086,2.221c-.122-.56-.438-2.047-.906-4.166l9.687-2.424c.143,2.017.255,3.545.305,4.37" transform="translate(-700.993 -789.939)" fill="#232c44"/>
          <path id="Trazado_918606" data-name="Trazado 918606" d="M476.033,1211.054a.494.494,0,0,1-.129-.017c-.054-.014-5.447-1.434-11.89-3.834-6.516-2.428-9.35-5.09-9.469-5.2a.509.509,0,0,1,.7-.737c.028.026,2.823,2.639,9.121,4.985,6.392,2.381,11.739,3.791,11.792,3.8a.509.509,0,0,1-.129,1" transform="translate(-326.178 -862.215)" fill="#485a7e"/>
          <path id="Trazado_918607" data-name="Trazado 918607" d="M702.92,828.72a49.263,49.263,0,0,1-4.923.65c-2.5.349-31.792,3.015-41.948,4.678-.244-.011-1.888-11.064-2.365-15.5,8.812-4.454,19.168-4.385,28.818-5.418,4.466-.476,12.323-.6,16.738-.824,1.794,5.33,2.689,11.16,3.681,16.414" transform="translate(-469.241 -583.106)" fill="#fff"/>
        </g>
      </g>
    </g>
  </g>
</svg>
