<svg xmlns="http://www.w3.org/2000/svg" xmlns:xlink="http://www.w3.org/1999/xlink" width="190" height="115" viewBox="0 0 190 115">
  <defs>
    <clipPath id="clip-path">
      <rect id="Rectángulo_401573" data-name="Rectángulo 401573" width="28.836" height="111" fill="none"/>
    </clipPath>
    <clipPath id="clip-path-2">
      <rect id="Rectángulo_401572" data-name="Rectángulo 401572" width="72.283" height="262.133" fill="none"/>
    </clipPath>
    <clipPath id="clip-path-3">
      <rect id="Rectángulo_403255" data-name="Rectángulo 403255" width="71" height="71" transform="translate(254.051 423)" fill="#fff" stroke="#707070" stroke-width="1"/>
    </clipPath>
  </defs>
  <g id="img1" transform="translate(-180.051 -401)">
    <g id="Grupo_1101503" data-name="Grupo 1101503" transform="translate(180.051 401.333)">
      <g id="Grupo_1099687" data-name="Grupo 1099687" clip-path="url(#clip-path)">
        <g id="Grupo_1099686" data-name="Grupo 1099686" transform="translate(-6.669 -55.037)" opacity="0.45" style="mix-blend-mode: multiply;isolation: isolate">
          <g id="Grupo_1099685" data-name="Grupo 1099685">
            <g id="Grupo_1099684" data-name="Grupo 1099684" clip-path="url(#clip-path-2)">
              <path id="Trazado_873516" data-name="Trazado 873516" d="M-.222,17.8,89.855-5.386,88.78.455-1.3,23.64Z" transform="matrix(0.898, -0.44, 0.44, 0.898, -7.635, 207.677)" fill="#2d0464"/>
              <path id="Trazado_873517" data-name="Trazado 873517" d="M-.222,17.8,89.855-5.386,88.78.455-1.3,23.64Z" transform="matrix(0.898, -0.44, 0.44, 0.898, -7.635, 191.348)" fill="#2d0464"/>
              <path id="Trazado_873518" data-name="Trazado 873518" d="M-.222,17.8,89.855-5.386,88.78.455-1.3,23.64Z" transform="matrix(0.898, -0.44, 0.44, 0.898, -7.635, 175.019)" fill="#2d0464"/>
              <path id="Trazado_873519" data-name="Trazado 873519" d="M-.222,17.8,89.855-5.386,88.78.455-1.3,23.64Z" transform="matrix(0.898, -0.44, 0.44, 0.898, -7.635, 158.69)" fill="#2d0464"/>
              <path id="Trazado_873520" data-name="Trazado 873520" d="M-.222,17.8,89.855-5.386,88.78.455-1.3,23.64Z" transform="matrix(0.898, -0.44, 0.44, 0.898, -7.635, 142.36)" fill="#2d0464"/>
              <path id="Trazado_873521" data-name="Trazado 873521" d="M-.222,17.8,89.855-5.386,88.78.455-1.3,23.64Z" transform="matrix(0.898, -0.44, 0.44, 0.898, -7.635, 126.031)" fill="#2d0464"/>
              <path id="Trazado_873522" data-name="Trazado 873522" d="M-.222,17.8,89.855-5.386,88.78.455-1.3,23.64Z" transform="matrix(0.898, -0.44, 0.44, 0.898, -7.635, 109.702)" fill="#2d0464"/>
              <path id="Trazado_873523" data-name="Trazado 873523" d="M-.222,17.8,89.855-5.386,88.78.455-1.3,23.64Z" transform="matrix(0.898, -0.44, 0.44, 0.898, -7.635, 93.373)" fill="#2d0464"/>
              <path id="Trazado_873524" data-name="Trazado 873524" d="M-.222,17.8,89.855-5.386,88.78.455-1.3,23.64Z" transform="matrix(0.898, -0.44, 0.44, 0.898, -7.635, 77.044)" fill="#2d0464"/>
              <path id="Trazado_873525" data-name="Trazado 873525" d="M-.222,17.8,89.855-5.386,88.78.455-1.3,23.64Z" transform="matrix(0.898, -0.44, 0.44, 0.898, -7.635, 60.715)" fill="#2d0464"/>
              <path id="Trazado_873526" data-name="Trazado 873526" d="M-.222,17.8,89.855-5.386,88.78.455-1.3,23.64Z" transform="translate(-7.635 44.385) rotate(-26.114)" fill="#2d0464"/>
            </g>
          </g>
        </g>
      </g>
      <rect id="Rectángulo_401574" data-name="Rectángulo 401574" width="161" height="115" transform="translate(29 -0.333)" fill="#efe8f7"/>
    </g>
    <g id="Enmascarar_grupo_1098767" data-name="Enmascarar grupo 1098767" clip-path="url(#clip-path-3)">
      <g id="concentrador-de-red" transform="translate(252.387 421.336)">
        <g id="Grupo_1103739" data-name="Grupo 1103739">
          <path id="Trazado_923646" data-name="Trazado 923646" d="M71.555,13.209V34.255a3.224,3.224,0,0,1-3.224,3.224H6a3.224,3.224,0,0,1-3.224-3.224V13.209A3.224,3.224,0,0,1,6,9.985H68.33A3.224,3.224,0,0,1,71.555,13.209Z" fill="#efefef"/>
          <g id="Grupo_1103737" data-name="Grupo 1103737">
            <path id="Trazado_923647" data-name="Trazado 923647" d="M20.239,20.556v9.774a1.075,1.075,0,0,1-1.075,1.075H10.717a1.075,1.075,0,0,1-1.075-1.075V20.556a.994.994,0,0,1,.994-.994h0a.994.994,0,0,0,.994-.994V17.133a1.075,1.075,0,0,1,1.075-1.075h4.471a1.075,1.075,0,0,1,1.075,1.075v1.435a.994.994,0,0,0,.994.994h0a.994.994,0,0,1,.994.994Z" fill="#ffd550"/>
            <path id="Trazado_923648" data-name="Trazado 923648" d="M35.512,20.556v9.774a1.075,1.075,0,0,1-1.075,1.075H25.99a1.075,1.075,0,0,1-1.075-1.075V20.556a.994.994,0,0,1,.994-.994h0a.994.994,0,0,0,.994-.994V17.133a1.075,1.075,0,0,1,1.075-1.075h4.471a1.075,1.075,0,0,1,1.075,1.075v1.435a.994.994,0,0,0,.994.994h0a.994.994,0,0,1,.994.994Z" fill="#ffd550"/>
            <path id="Trazado_923649" data-name="Trazado 923649" d="M50.784,20.556v9.774a1.075,1.075,0,0,1-1.075,1.075H41.262a1.075,1.075,0,0,1-1.075-1.075V20.556a.994.994,0,0,1,.994-.994.994.994,0,0,0,.994-.994V17.133a1.075,1.075,0,0,1,1.075-1.075h4.471A1.075,1.075,0,0,1,48.8,17.133v1.435a.994.994,0,0,0,.994.994.994.994,0,0,1,.994.994Z" fill="#ffd550"/>
          </g>
          <path id="Trazado_923650" data-name="Trazado 923650" d="M63.864,21.4a3.343,3.343,0,1,1-3.336-3.35,3.334,3.334,0,0,1,3.336,3.35Z" fill="#fff"/>
          <g id="Grupo_1103738" data-name="Grupo 1103738">
            <path id="Trazado_923651" data-name="Trazado 923651" d="M33.8,37.479h6.717V45.99H33.8Z" fill="#efefef"/>
            <path id="Trazado_923652" data-name="Trazado 923652" d="M11.672,54.809H23.784v6.717H11.672a3.357,3.357,0,0,1-3.353-3.353v-.01a3.357,3.357,0,0,1,3.353-3.353Z" fill="#efefef"/>
            <path id="Trazado_923653" data-name="Trazado 923653" d="M66.02,58.162v.01a3.357,3.357,0,0,1-3.353,3.353H50.555V54.809H62.667a3.357,3.357,0,0,1,3.353,3.353Z" fill="#efefef"/>
          </g>
          <path id="Trazado_923654" data-name="Trazado 923654" d="M50.56,52.7V63.269a1.075,1.075,0,0,1-1.075,1.075H24.853a1.075,1.075,0,0,1-1.075-1.075V52.7a1.075,1.075,0,0,1,1.075-1.075h3.718a1.075,1.075,0,0,0,1.075-1.075V47.062a1.075,1.075,0,0,1,1.075-1.075h12.9a1.075,1.075,0,0,1,1.075,1.075v3.493a1.075,1.075,0,0,0,1.075,1.075h3.718A1.075,1.075,0,0,1,50.56,52.7Z" fill="#f95353"/>
        </g>
        <path id="Trazado_923655" data-name="Trazado 923655" d="M68.331,8.875H6a4.338,4.338,0,0,0-4.333,4.333V34.255A4.338,4.338,0,0,0,6,38.589H32.691v6.289h-1.97a2.186,2.186,0,0,0-2.184,2.184l.035,3.458H24.853A2.186,2.186,0,0,0,22.669,52.7v1h-11a4.468,4.468,0,0,0,0,8.936h11v.634a2.186,2.186,0,0,0,2.184,2.184H49.485a2.186,2.186,0,0,0,2.184-2.184v-.634h11a4.468,4.468,0,0,0,4.462-4.462v-.011A4.468,4.468,0,0,0,62.667,53.7h-11v-1a2.186,2.186,0,0,0-2.184-2.184l-3.683.035V47.062a2.186,2.186,0,0,0-2.184-2.184H41.627V38.589h26.7a4.338,4.338,0,0,0,4.333-4.333V13.209a4.338,4.338,0,0,0-4.334-4.333ZM11.672,60.417a2.249,2.249,0,0,1,0-4.5h11v4.5Zm50.995-4.5a2.246,2.246,0,0,1,2.244,2.244v.011a2.246,2.246,0,0,1-2.244,2.244h-11v-4.5Zm-16.9-3.18h3.683c-.011,20.226-.008-2.385.035,10.5l-24.6.035c.006-10.074-.027-8.291-.035-10.53h3.719a2.186,2.186,0,0,0,2.184-2.184L30.721,47.1c9.871,0,10.648-.029,12.862-.035v3.493a2.186,2.186,0,0,0,2.184,2.184Zm-6.359-7.861h-4.5V38.589h4.5ZM70.445,34.255a2.117,2.117,0,0,1-2.115,2.115H6a2.117,2.117,0,0,1-2.115-2.115V13.209A2.117,2.117,0,0,1,6,11.094H68.331a2.117,2.117,0,0,1,2.115,2.115Z"/>
        <path id="Trazado_923656" data-name="Trazado 923656" d="M19.36,18.456V17.134a2.186,2.186,0,0,0-2.184-2.184H12.705a2.186,2.186,0,0,0-2.184,2.184v1.323a2.105,2.105,0,0,0-1.988,2.1V30.33a2.186,2.186,0,0,0,2.184,2.184h8.447a2.186,2.186,0,0,0,2.184-2.184V20.556a2.105,2.105,0,0,0-1.988-2.1ZM10.752,30.33V20.669a2.106,2.106,0,0,0,1.988-2.1l-.035-1.4,4.436-.035v1.434a2.106,2.106,0,0,0,1.989,2.1l.034,9.627Z"/>
        <path id="Trazado_923657" data-name="Trazado 923657" d="M34.633,18.456V17.134a2.186,2.186,0,0,0-2.184-2.184H27.978a2.186,2.186,0,0,0-2.184,2.184v1.323a2.105,2.105,0,0,0-1.989,2.1V30.33a2.186,2.186,0,0,0,2.184,2.184h8.447a2.186,2.186,0,0,0,2.184-2.184V20.556a2.105,2.105,0,0,0-1.988-2.1ZM26.024,30.33V20.669a2.106,2.106,0,0,0,1.989-2.1l-.035-1.4,4.436-.035v1.434a2.106,2.106,0,0,0,1.989,2.1l.034,9.627Z"/>
        <path id="Trazado_923658" data-name="Trazado 923658" d="M49.905,18.456V17.134a2.186,2.186,0,0,0-2.184-2.184H43.251a2.186,2.186,0,0,0-2.184,2.184v1.323a2.105,2.105,0,0,0-1.989,2.1V30.33a2.186,2.186,0,0,0,2.184,2.184H49.71a2.186,2.186,0,0,0,2.184-2.184V20.556a2.105,2.105,0,0,0-1.989-2.1ZM41.3,30.33V20.669a2.106,2.106,0,0,0,1.989-2.1l-.035-1.4,4.436-.035v1.434a2.106,2.106,0,0,0,1.989,2.1L49.71,30.3Z"/>
        <path id="Trazado_923659" data-name="Trazado 923659" d="M60.528,25.846A4.453,4.453,0,1,0,56.068,21.4,4.451,4.451,0,0,0,60.528,25.846Zm0-6.687a2.234,2.234,0,1,1-2.24,2.24A2.236,2.236,0,0,1,60.528,19.16Z"/>
        <path id="Trazado_923660" data-name="Trazado 923660" d="M64.686,28.3H55.819a1.109,1.109,0,0,0,0,2.219h8.866a1.109,1.109,0,0,0,0-2.219Z"/>
      </g>
    </g>
  </g>
</svg>
