<svg xmlns="http://www.w3.org/2000/svg" xmlns:xlink="http://www.w3.org/1999/xlink" width="111" height="111" viewBox="0 0 111 111">
  <defs>
    <clipPath id="clip-path">
      <rect id="Rectángulo_403816" data-name="Rectángulo 403816" width="111" height="111" transform="translate(1020.051 5245)" fill="#fff" stroke="#707070" stroke-width="1"/>
    </clipPath>
  </defs>
  <g id="img20" transform="translate(-1020.051 -5245)" clip-path="url(#clip-path)">
    <g id="lan" transform="translate(1018.26 5243.209)">
      <g id="Grupo_1102646" data-name="Grupo 1102646">
        <g id="Grupo_1102645" data-name="Grupo 1102645">
          <path id="Trazado_918737" data-name="Trazado 918737" d="M89.516,103.839h10.742V111H89.516Z" fill="#aab2bd"/>
          <path id="Trazado_918738" data-name="Trazado 918738" d="M89.516,64.452h10.742v7.161H89.516Z" fill="#aab2bd"/>
          <path id="Trazado_918739" data-name="Trazado 918739" d="M89.516,25.065h10.742v7.161H89.516Z" fill="#aab2bd"/>
        </g>
        <path id="Trazado_918740" data-name="Trazado 918740" d="M111,17.9v3.581a3.591,3.591,0,0,1-3.581,3.581H82.355a3.591,3.591,0,0,1-3.581-3.581V17.9Z" fill="#ccd1d9"/>
        <path id="Trazado_918741" data-name="Trazado 918741" d="M111,57.29v3.581a3.591,3.591,0,0,1-3.581,3.581H82.355a3.591,3.591,0,0,1-3.581-3.581V57.29Z" fill="#ccd1d9"/>
        <path id="Trazado_918742" data-name="Trazado 918742" d="M111,96.677v3.581a3.591,3.591,0,0,1-3.581,3.581H82.355a3.591,3.591,0,0,1-3.581-3.581V96.677Z" fill="#ccd1d9"/>
        <path id="Trazado_918743" data-name="Trazado 918743" d="M111,85.935V96.677H78.774V85.935a3.591,3.591,0,0,1,3.581-3.581h25.065A3.591,3.591,0,0,1,111,85.935Z" fill="#69d6f4"/>
        <path id="Trazado_918744" data-name="Trazado 918744" d="M111,46.548V57.29H78.774V46.548a3.591,3.591,0,0,1,3.581-3.581h25.065A3.591,3.591,0,0,1,111,46.548Z" fill="#69d6f4"/>
        <path id="Trazado_918745" data-name="Trazado 918745" d="M111,7.161V17.9H78.774V7.161a3.591,3.591,0,0,1,3.581-3.581h25.065A3.591,3.591,0,0,1,111,7.161Z" fill="#69d6f4"/>
        <path id="Trazado_918746" data-name="Trazado 918746" d="M16.113,82.355H26.855v25.065H16.113Z" fill="#aab2bd"/>
        <path id="Trazado_918747" data-name="Trazado 918747" d="M25.065,46.548V57.29H17.9V46.548H3.581V68.032L16.113,82.355H26.855L39.387,68.032V46.548Z" fill="#fcd770"/>
        <path id="Trazado_918748" data-name="Trazado 918748" d="M17.9,39.387v7.161H3.581V39.387H17.9Z" fill="#ffeaa7"/>
        <path id="Trazado_918749" data-name="Trazado 918749" d="M39.387,39.387v7.161H25.065V39.387H39.387Z" fill="#ffeaa7"/>
        <path id="Trazado_918750" data-name="Trazado 918750" d="M25.065,46.548V57.29H17.9v-17.9h7.161Z" fill="#5cd6b3"/>
        <path id="Trazado_918751" data-name="Trazado 918751" d="M35.806,25.065V39.387H7.161V25.065H35.806Z" fill="#e6e9ed"/>
        <path id="Trazado_918752" data-name="Trazado 918752" d="M7.161,17.9H35.806v7.161H7.161Z" fill="#5cd6b3"/>
      </g>
      <g id="Grupo_1102647" data-name="Grupo 1102647">
        <path id="Trazado_918753" data-name="Trazado 918753" d="M107.419,80.565H82.355a5.378,5.378,0,0,0-5.371,5.371v14.323a5.378,5.378,0,0,0,5.371,5.371h5.371v3.581H84.145v3.581h21.484V109.21h-3.581v-3.581h5.371a5.378,5.378,0,0,0,5.371-5.371V85.935A5.378,5.378,0,0,0,107.419,80.565ZM82.355,84.145h25.065a1.791,1.791,0,0,1,1.79,1.79v8.952H80.565V85.935A1.791,1.791,0,0,1,82.355,84.145ZM98.468,109.21H91.306v-3.581h7.161Zm8.952-7.161H82.355a1.791,1.791,0,0,1-1.79-1.79v-1.79H109.21v1.79A1.791,1.791,0,0,1,107.419,102.048Z"/>
        <path id="Trazado_918754" data-name="Trazado 918754" d="M107.419,41.177H82.355a5.378,5.378,0,0,0-5.371,5.371V60.871a5.378,5.378,0,0,0,5.371,5.371h5.371v3.581H84.145V73.4h21.484V69.823h-3.581V66.242h5.371a5.378,5.378,0,0,0,5.371-5.371V46.548A5.378,5.378,0,0,0,107.419,41.177ZM82.355,44.758h25.065a1.791,1.791,0,0,1,1.79,1.79V55.5H80.565V46.548A1.791,1.791,0,0,1,82.355,44.758ZM98.468,69.823H91.306V66.242h7.161Zm8.952-7.161H82.355a1.791,1.791,0,0,1-1.79-1.79v-1.79H109.21v1.79A1.791,1.791,0,0,1,107.419,62.661Z"/>
        <path id="Trazado_918755" data-name="Trazado 918755" d="M107.419,1.79H82.355a5.378,5.378,0,0,0-5.371,5.371V21.484a5.378,5.378,0,0,0,5.371,5.371h5.371v3.581H84.145v3.581h21.484V30.435h-3.581V26.855h5.371a5.378,5.378,0,0,0,5.371-5.371V7.161A5.378,5.378,0,0,0,107.419,1.79ZM82.355,5.371h25.065a1.791,1.791,0,0,1,1.79,1.79v8.952H80.565V7.161A1.791,1.791,0,0,1,82.355,5.371ZM98.468,30.435H91.306V26.855h7.161Zm8.952-7.161H82.355a1.791,1.791,0,0,1-1.79-1.79v-1.79H109.21v1.79A1.791,1.791,0,0,1,107.419,23.274Z"/>
        <path id="Trazado_918756" data-name="Trazado 918756" d="M69.823,55.5H73.4v3.581H69.823Z"/>
        <path id="Trazado_918757" data-name="Trazado 918757" d="M62.661,17.9V46.548a1.791,1.791,0,0,1-1.79,1.79H41.177V37.6H37.6V16.113H5.371V37.6H1.79V68.705L14.323,83.028V109.21H28.645V83.028L41.177,68.705V66.242H60.871a1.791,1.791,0,0,1,1.79,1.79V89.516a5.378,5.378,0,0,0,5.371,5.371H73.4V91.306H68.032a1.791,1.791,0,0,1-1.79-1.79V68.032a5.378,5.378,0,0,0-5.371-5.371H41.177V59.081H66.242V55.5H41.177V51.919H60.871a5.378,5.378,0,0,0,5.371-5.371V17.9a1.791,1.791,0,0,1,1.79-1.79H73.4V12.532H68.032A5.378,5.378,0,0,0,62.661,17.9ZM16.926,80.565l-9.4-10.742H35.441l-9.4,10.742ZM5.371,66.242v-17.9H16.113V59.081H26.855V48.339H37.6v17.9ZM37.6,41.177v3.581H26.855V41.177Zm-17.9,0h3.581V55.5H19.694Zm14.323-17.9H30.435V19.694h3.581Zm-17.9,0V19.694h3.581v3.581Zm7.161-3.581h3.581v3.581H23.274Zm-10.742,0v3.581H8.952V19.694ZM8.952,26.855H34.016V37.6H8.952Zm7.161,14.323v3.581H5.371V41.177Zm1.79,64.452V84.145h7.161v21.484Z"/>
      </g>
    </g>
  </g>
</svg>
