<svg xmlns="http://www.w3.org/2000/svg" xmlns:xlink="http://www.w3.org/1999/xlink" width="46" height="46" viewBox="0 0 46 46">
  <defs>
    <clipPath id="clip-path">
      <rect id="Rectángulo_403602" data-name="Rectángulo 403602" width="46" height="46" transform="translate(624.051 1099)" fill="#692cb7" stroke="#707070" stroke-width="1"/>
    </clipPath>
  </defs>
  <g id="img4" transform="translate(-624.051 -1099)" clip-path="url(#clip-path)">
    <g id="cable_1_" data-name="cable (1)" transform="translate(623.81 1098.76)">
      <path id="Trazado_913487" data-name="Trazado 913487" d="M12.336,25.207V9.349a.726.726,0,0,0-.726-.726H7.079a.727.727,0,0,0-.726.726V25.207a.726.726,0,0,0,1.453,0V10.075h3.079V25.207a.726.726,0,0,0,1.453,0Z" fill="#692cb7" fill-rule="evenodd"/>
      <path id="Trazado_913488" data-name="Trazado 913488" d="M11.1,9.959,6.565,14.491a.726.726,0,0,0,1.027,1.027l4.531-4.531A.726.726,0,1,0,11.1,9.959Z" fill="#692cb7" fill-rule="evenodd"/>
      <path id="Trazado_913489" data-name="Trazado 913489" d="M11.1,16.024,6.565,20.555a.726.726,0,0,0,1.027,1.027l4.531-4.531A.726.726,0,1,0,11.1,16.024Z" fill="#692cb7" fill-rule="evenodd"/>
      <path id="Trazado_913490" data-name="Trazado 913490" d="M23.962,25.119c-1.054-8.586-3.869-16.293-9.717-22.482a.726.726,0,1,0-1.056,1C18.821,9.594,21.505,17.027,22.52,25.3a.726.726,0,1,0,1.442-.177Z" fill="#692cb7" fill-rule="evenodd"/>
      <path id="Trazado_913491" data-name="Trazado 913491" d="M23.962,25.3c1.014-8.268,3.7-15.7,9.331-21.661a.726.726,0,1,0-1.056-1c-5.849,6.189-8.664,13.9-9.717,22.482a.726.726,0,1,0,1.442.177Z" fill="#692cb7" fill-rule="evenodd"/>
      <path id="Trazado_913492" data-name="Trazado 913492" d="M23.967,25.207V.967a.726.726,0,0,0-1.453,0v24.24a.726.726,0,0,0,1.453,0Z" fill="#692cb7" fill-rule="evenodd"/>
      <path id="Trazado_913493" data-name="Trazado 913493" d="M37.863,15.253v-8.4a.726.726,0,0,0-1.453,0v8.4a.726.726,0,0,0,1.453,0Z" fill="#692cb7" fill-rule="evenodd"/>
      <path id="Trazado_913494" data-name="Trazado 913494" d="M40.129,25.207V15.253a.727.727,0,0,0-.726-.726H34.871a.726.726,0,0,0-.726.726v9.954a.726.726,0,1,0,1.453,0V15.979h3.079v9.228a.726.726,0,0,0,1.453,0Z" fill="#692cb7" fill-rule="evenodd"/>
      <path id="Trazado_913495" data-name="Trazado 913495" d="M14.443,45.514V25.207a.726.726,0,0,0-.726-.726H4.973a.726.726,0,0,0-.726.726V45.514a.726.726,0,0,0,1.453,0V25.934H12.99V45.514a.726.726,0,0,0,1.453,0Z" fill="#692cb7" fill-rule="evenodd"/>
      <path id="Trazado_913496" data-name="Trazado 913496" d="M42.235,45.514V25.207a.726.726,0,0,0-.726-.726H32.765a.726.726,0,0,0-.726.726V45.514a.726.726,0,0,0,1.453,0V25.934h7.291V45.514a.726.726,0,0,0,1.453,0Z" fill="#692cb7" fill-rule="evenodd"/>
      <path id="Trazado_913497" data-name="Trazado 913497" d="M28.339,45.514V25.207a.726.726,0,0,0-.726-.726H18.869a.726.726,0,0,0-.726.726V45.514a.726.726,0,0,0,1.453,0V25.934h7.291V45.514a.726.726,0,0,0,1.453,0Z" fill="#692cb7" fill-rule="evenodd"/>
    </g>
  </g>
</svg>
