<svg xmlns="http://www.w3.org/2000/svg" width="73" height="73.695" viewBox="0 0 73 73.695">
  <g id="img15" transform="translate(-192 -4315)">
    <circle id="Elipse_11563" data-name="Elipse 11563" cx="36.5" cy="36.5" r="36.5" transform="translate(192 4315)" fill="#b0dcad"/>
    <g id="_20-manual" data-name="20-manual" transform="translate(192.051 4318.305)">
      <path id="Trazado_923788" data-name="Trazado 923788" d="M67.335,11.559V59.432a4.559,4.559,0,0,1-4.559,4.559H32V59.432H58.216v-6.8q1.693-.034,3.419-.034V7h1.14A4.559,4.559,0,0,1,67.335,11.559Z" transform="translate(4.475 0.699)" fill="#43c7b5"/>
      <path id="Trazado_923789" data-name="Trazado 923789" d="M58.216,53.187c-10.031.239-19.047,1.687-26.216,6.8V9.839C39.979,4.14,50.237,3,61.636,3V53.153Q59.909,53.153,58.216,53.187Z" transform="translate(4.475 0.14)" fill="#e1e4ed"/>
      <path id="Trazado_923790" data-name="Trazado 923790" d="M58.216,47.03v6.8H32C39.17,48.717,48.186,47.269,58.216,47.03Z" transform="translate(4.475 6.297)" fill="#afb4c8"/>
      <path id="Trazado_923791" data-name="Trazado 923791" d="M36.335,59.432v4.559H5.559A4.559,4.559,0,0,1,1,59.432V11.559A4.559,4.559,0,0,1,5.559,7H6.7V52.593q1.727,0,3.419.034v6.8Z" transform="translate(0.14 0.699)" fill="#5ce0bf"/>
      <path id="Trazado_923792" data-name="Trazado 923792" d="M9.419,53.187Q7.727,53.153,6,53.153V3C17.4,3,27.657,4.14,35.636,9.839V59.992C28.466,54.874,19.45,53.426,9.419,53.187Z" transform="translate(0.839 0.14)" fill="#f6fafd"/>
      <path id="Trazado_923793" data-name="Trazado 923793" d="M35.216,53.835H9v-6.8C19.031,47.269,28.047,48.717,35.216,53.835Z" transform="translate(1.258 6.297)" fill="#afb4c8"/>
      <path id="Trazado_923794" data-name="Trazado 923794" d="M66.356,48.4v4.559H62.674a9.989,9.989,0,0,1-1.322,3.169l2.61,2.61-3.226,3.226-2.61-2.61a9.989,9.989,0,0,1-3.169,1.322v3.682H50.4V60.674a9.989,9.989,0,0,1-3.169-1.322l-2.61,2.61-3.226-3.226L44,56.126a9.989,9.989,0,0,1-1.322-3.169H39V48.4h3.682A9.99,9.99,0,0,1,44,45.23l-2.61-2.61,3.226-3.226L47.23,42A9.99,9.99,0,0,1,50.4,40.682V37h4.559v3.682A9.989,9.989,0,0,1,58.126,42l2.61-2.61,3.226,3.226-2.61,2.61A9.989,9.989,0,0,1,62.674,48.4Zm-7.979,2.28a5.7,5.7,0,1,0-5.7,5.7A5.7,5.7,0,0,0,58.377,50.678Z" transform="translate(5.453 4.894)" fill="#ffca6b"/>
      <path id="Trazado_923795" data-name="Trazado 923795" d="M10.956,39.28c7.759.342,13.26,1.368,17.838,3.328l.9-2.1C24.849,38.44,19.1,37.356,11.056,37Z" transform="translate(1.532 4.894)" fill="#393045"/>
      <path id="Trazado_923796" data-name="Trazado 923796" d="M10.956,34.28c7.759.342,13.26,1.368,17.838,3.328l.9-2.1C24.849,33.44,19.1,32.356,11.056,32Z" transform="translate(1.532 4.195)" fill="#393045"/>
      <path id="Trazado_923797" data-name="Trazado 923797" d="M10.956,29.28c7.759.342,13.26,1.368,17.838,3.328l.9-2.1C24.849,28.44,19.1,27.356,11.056,27Z" transform="translate(1.532 3.496)" fill="#393045"/>
      <path id="Trazado_923798" data-name="Trazado 923798" d="M10.956,24.28c7.759.342,13.26,1.368,17.838,3.328l.9-2.1C24.849,23.44,19.1,22.356,11.056,22Z" transform="translate(1.532 2.797)" fill="#393045"/>
      <path id="Trazado_923799" data-name="Trazado 923799" d="M10.956,19.28c7.759.342,13.26,1.368,17.838,3.328l.9-2.1C24.849,18.44,19.1,17.356,11.056,17Z" transform="translate(1.532 2.097)" fill="#393045"/>
      <path id="Trazado_923800" data-name="Trazado 923800" d="M29.693,15.512C24.849,13.44,19.1,12.356,11.056,12l-.1,2.28c7.759.342,13.26,1.368,17.838,3.328Z" transform="translate(1.532 1.398)" fill="#393045"/>
      <path id="Trazado_923801" data-name="Trazado 923801" d="M37.5,37.607c4.579-1.959,10.08-2.985,17.838-3.327l-.1-2.28c-8.046.354-13.792,1.438-18.636,3.511Z" transform="translate(5.119 4.195)" fill="#393045"/>
      <path id="Trazado_923802" data-name="Trazado 923802" d="M37.5,32.607c4.579-1.959,10.08-2.985,17.838-3.327l-.1-2.28c-8.046.354-13.792,1.438-18.636,3.511Z" transform="translate(5.119 3.496)" fill="#393045"/>
      <path id="Trazado_923803" data-name="Trazado 923803" d="M37.5,27.607c4.579-1.959,10.08-2.985,17.838-3.327l-.1-2.28c-8.046.354-13.792,1.438-18.636,3.511Z" transform="translate(5.119 2.797)" fill="#393045"/>
      <path id="Trazado_923804" data-name="Trazado 923804" d="M37.5,22.607c4.579-1.959,10.08-2.985,17.838-3.327l-.1-2.28c-8.046.354-13.792,1.438-18.636,3.511Z" transform="translate(5.119 2.097)" fill="#393045"/>
      <path id="Trazado_923805" data-name="Trazado 923805" d="M55.242,12c-8.046.354-13.792,1.438-18.636,3.511l.9,2.1c4.579-1.958,10.08-2.984,17.838-3.326Z" transform="translate(5.119 1.398)" fill="#393045"/>
      <path id="Trazado_923806" data-name="Trazado 923806" d="M67.25,6.559V3.14A1.14,1.14,0,0,0,66.11,2C55.77,2,45.045,2.812,36.475,8.592,27.9,2.812,17.18,2,6.839,2A1.14,1.14,0,0,0,5.7,3.14V6.559a5.706,5.706,0,0,0-5.7,5.7V60.131a5.706,5.706,0,0,0,5.7,5.7H43.314v-2.28h-5.7V60.738a29.436,29.436,0,0,1,5.008-2.744l-.9-2.1a31.915,31.915,0,0,0-4.11,2.155V10.587C45.4,5.272,55.294,4.345,64.97,4.28V40.754h2.28V8.839a3.42,3.42,0,0,1,3.42,3.419V44.174h2.28V12.258a5.706,5.706,0,0,0-5.7-5.7ZM11.4,54.5c7.383.237,14.735,1.213,21.024,4.489H11.4ZM7.979,4.28c9.676.062,19.574.989,27.356,6.3V58.025C27.284,53.1,17.511,52.216,7.979,52.153ZM5.7,63.551A3.419,3.419,0,0,1,2.28,60.131V12.258A3.419,3.419,0,0,1,5.7,8.839V53.292a1.14,1.14,0,0,0,1.14,1.14q1.14,0,2.28.017v5.682a1.14,1.14,0,0,0,1.14,1.14H35.335v2.28Z" transform="translate(0 0)" fill="#393045"/>
      <path id="Trazado_923807" data-name="Trazado 923807" d="M66.5,47.4H63.685a11.155,11.155,0,0,0-.767-1.845l1.989-1.989a1.14,1.14,0,0,0,0-1.612l-3.223-3.223a1.14,1.14,0,0,0-1.612,0l-1.989,1.989a11.237,11.237,0,0,0-1.845-.767V37.14A1.14,1.14,0,0,0,55.1,36H50.538a1.14,1.14,0,0,0-1.14,1.14v2.811a11.237,11.237,0,0,0-1.845.767l-1.989-1.989a1.14,1.14,0,0,0-1.612,0l-3.223,3.223a1.14,1.14,0,0,0,0,1.612l1.989,1.989a11.154,11.154,0,0,0-.767,1.845H39.14A1.14,1.14,0,0,0,38,48.538V53.1a1.14,1.14,0,0,0,1.14,1.14h2.811a11.155,11.155,0,0,0,.767,1.845l-1.989,1.989a1.14,1.14,0,0,0,0,1.612l3.223,3.223a1.14,1.14,0,0,0,1.612,0l1.989-1.989a11.154,11.154,0,0,0,1.845.767V64.5a1.14,1.14,0,0,0,1.14,1.14H55.1a1.14,1.14,0,0,0,1.14-1.14V61.685a11.154,11.154,0,0,0,1.845-.767l1.989,1.989a1.14,1.14,0,0,0,1.612,0l3.223-3.223a1.14,1.14,0,0,0,0-1.612l-1.989-1.989a11.154,11.154,0,0,0,.767-1.845H66.5a1.14,1.14,0,0,0,1.14-1.14V48.538A1.14,1.14,0,0,0,66.5,47.4Zm-1.14,4.559H62.814a1.14,1.14,0,0,0-1.111.887,9.078,9.078,0,0,1-1.171,2.82,1.14,1.14,0,0,0,.157,1.413l1.8,1.8-1.612,1.612-1.8-1.8a1.14,1.14,0,0,0-1.413-.157,9.078,9.078,0,0,1-2.82,1.176,1.14,1.14,0,0,0-.887,1.106v2.542h-2.28V60.814a1.14,1.14,0,0,0-.887-1.111,9.078,9.078,0,0,1-2.82-1.171,1.14,1.14,0,0,0-1.413.157l-1.8,1.8-1.612-1.612,1.8-1.8a1.14,1.14,0,0,0,.157-1.413,9.078,9.078,0,0,1-1.171-2.82,1.14,1.14,0,0,0-1.111-.887H40.28v-2.28h2.542a1.14,1.14,0,0,0,1.111-.887,9.078,9.078,0,0,1,1.171-2.82,1.14,1.14,0,0,0-.157-1.413l-1.8-1.8,1.612-1.612,1.8,1.8a1.14,1.14,0,0,0,1.412.158,9.105,9.105,0,0,1,2.821-1.172,1.14,1.14,0,0,0,.887-1.111V38.28h2.28v2.542a1.14,1.14,0,0,0,.887,1.111A9.1,9.1,0,0,1,57.666,43.1a1.14,1.14,0,0,0,1.412-.158l1.8-1.8,1.612,1.612-1.8,1.8a1.14,1.14,0,0,0-.157,1.413,9.078,9.078,0,0,1,1.176,2.82,1.14,1.14,0,0,0,1.106.887h2.542Z" transform="translate(5.314 4.754)" fill="#393045"/>
      <path id="Trazado_923808" data-name="Trazado 923808" d="M51.839,43a6.839,6.839,0,1,0,6.839,6.839A6.839,6.839,0,0,0,51.839,43Zm0,11.4A4.559,4.559,0,1,1,56.4,49.839,4.559,4.559,0,0,1,51.839,54.4Z" transform="translate(6.292 5.733)" fill="#393045"/>
    </g>
  </g>
</svg>
