<svg xmlns="http://www.w3.org/2000/svg" xmlns:xlink="http://www.w3.org/1999/xlink" width="85" height="85" viewBox="0 0 85 85">
  <defs>
    <clipPath id="clip-path">
      <rect id="Rectángulo_404443" data-name="Rectángulo 404443" width="85" height="85" transform="translate(757.051 2393)" fill="#fff" stroke="#707070" stroke-width="1"/>
    </clipPath>
  </defs>
  <g id="img10" transform="translate(-757.051 -2393)">
    <circle id="Elipse_11562" data-name="Elipse 11562" cx="42.5" cy="42.5" r="42.5" transform="translate(757.051 2393)" fill="#b0dcad"/>
    <g id="Enmascarar_grupo_1098770" data-name="Enmascarar grupo 1098770" clip-path="url(#clip-path)">
      <g id="_07-upload" data-name="07-upload" transform="translate(757.051 2393)">
        <path id="Trazado_923690" data-name="Trazado 923690" d="M55.781,45.156v7.969H29.219V45.156H55.781Z" fill="#f2f6fc"/>
        <path id="Trazado_923691" data-name="Trazado 923691" d="M55.781,31.875v7.969H29.219V31.875Z" fill="#f2f6fc"/>
        <path id="Trazado_923692" data-name="Trazado 923692" d="M31.875,39.844h21.25v5.313H31.875Z" fill="#7e8596"/>
        <circle id="Elipse_11590" data-name="Elipse 11590" cx="2.656" cy="2.656" r="2.656" transform="translate(71.719 57.109)" fill="#f5cd62"/>
        <circle id="Elipse_11591" data-name="Elipse 11591" cx="2.656" cy="2.656" r="2.656" transform="translate(71.719 30.547)" fill="#f5cd62"/>
        <circle id="Elipse_11592" data-name="Elipse 11592" cx="2.656" cy="2.656" r="2.656" transform="translate(10.625 50.469)" fill="#f5cd62"/>
        <circle id="Elipse_11593" data-name="Elipse 11593" cx="2.656" cy="2.656" r="2.656" transform="translate(10.625 23.906)" fill="#f5cd62"/>
        <path id="Trazado_923693" data-name="Trazado 923693" d="M6.641,59.766v5.313H1.328Z" fill="#7e8596"/>
        <path id="Trazado_923694" data-name="Trazado 923694" d="M70.391,1.328V6.641H65.078Z" fill="#7e8596"/>
        <path id="Trazado_923695" data-name="Trazado 923695" d="M83.672,70.391V81.016a2.664,2.664,0,0,1-2.656,2.656H62.422a2.664,2.664,0,0,1-2.656-2.656V65.078h7.969a2.676,2.676,0,0,0,2.656,2.656H81.016A2.664,2.664,0,0,1,83.672,70.391Z" fill="#f5cd62"/>
        <path id="Trazado_923696" data-name="Trazado 923696" d="M83.672,1.328V25.234H65.078V6.641h5.313V1.328Z" fill="#f2f6fc"/>
        <path id="Trazado_923697" data-name="Trazado 923697" d="M25.234,6.641V17.266a2.664,2.664,0,0,1-2.656,2.656H3.984a2.664,2.664,0,0,1-2.656-2.656V1.328H9.3A2.6,2.6,0,0,0,10.08,3.2a2.6,2.6,0,0,0,1.873.784H22.578a2.664,2.664,0,0,1,2.656,2.656Z" fill="#f5cd62"/>
        <path id="Trazado_923698" data-name="Trazado 923698" d="M19.922,59.766V83.672H1.328V65.078H6.641V59.766Z" fill="#f2f6fc"/>
        <path id="Trazado_923699" data-name="Trazado 923699" d="M31.875,34.531h2.656v2.656H31.875Z" fill="#1ea1e3"/>
        <path id="Trazado_923700" data-name="Trazado 923700" d="M37.188,34.531H53.125v2.656H37.188Z" fill="#1ea1e3"/>
        <path id="Trazado_923701" data-name="Trazado 923701" d="M31.875,47.813h2.656v2.656H31.875Z" fill="#1ea1e3"/>
        <path id="Trazado_923702" data-name="Trazado 923702" d="M37.188,47.813H53.125v2.656H37.188Z" fill="#1ea1e3"/>
        <path id="Trazado_923703" data-name="Trazado 923703" d="M7.969,7.969H18.594v2.656H7.969Z" fill="#c27b48"/>
        <path id="Trazado_923704" data-name="Trazado 923704" d="M7.969,13.281H18.594v2.656H7.969Z" fill="#c27b48"/>
        <path id="Trazado_923705" data-name="Trazado 923705" d="M66.406,71.719H77.031v2.656H66.406Z" fill="#c27b48"/>
        <path id="Trazado_923706" data-name="Trazado 923706" d="M66.406,77.031H77.031v2.656H66.406Z" fill="#c27b48"/>
        <path id="Trazado_923707" data-name="Trazado 923707" d="M5.313,69.063H15.938v2.656H5.313Z" fill="#afb4c8"/>
        <path id="Trazado_923708" data-name="Trazado 923708" d="M5.313,74.375H15.938v2.656H5.313Z" fill="#afb4c8"/>
        <path id="Trazado_923709" data-name="Trazado 923709" d="M69.063,10.625H79.688v2.656H69.063Z" fill="#afb4c8"/>
        <path id="Trazado_923710" data-name="Trazado 923710" d="M69.063,15.938H79.688v2.656H69.063Z" fill="#afb4c8"/>
        <path id="Trazado_923711" data-name="Trazado 923711" d="M29.219,10.625v2.656H42.5V29.219h2.656V13.281H61.094V10.625H29.219Z" fill="#7e8596"/>
        <path id="Trazado_923712" data-name="Trazado 923712" d="M45.156,55.781H42.5V71.719H23.906v2.656H55.781V71.719H45.156Z" fill="#7e8596"/>
        <g id="Grupo_1103744" data-name="Grupo 1103744">
          <path id="Trazado_923713" data-name="Trazado 923713" d="M73.047,39.844H75.7V42.5H73.047Z" fill="#f5cd62"/>
          <path id="Trazado_923714" data-name="Trazado 923714" d="M73.047,45.156H75.7v2.656H73.047Z" fill="#f5cd62"/>
          <path id="Trazado_923715" data-name="Trazado 923715" d="M73.047,50.469H75.7v2.656H73.047Z" fill="#f5cd62"/>
          <path id="Trazado_923716" data-name="Trazado 923716" d="M11.953,33.2h2.656v2.656H11.953Z" fill="#f5cd62"/>
          <path id="Trazado_923717" data-name="Trazado 923717" d="M11.953,38.516h2.656v2.656H11.953Z" fill="#f5cd62"/>
          <path id="Trazado_923718" data-name="Trazado 923718" d="M11.953,43.828h2.656v2.656H11.953Z" fill="#f5cd62"/>
        </g>
        <path id="Trazado_923719" data-name="Trazado 923719" d="M55.781,30.547H29.219a1.328,1.328,0,0,0-1.328,1.328v7.969a1.328,1.328,0,0,0,1.328,1.328h1.328v2.656H29.219a1.328,1.328,0,0,0-1.328,1.328v7.969a1.328,1.328,0,0,0,1.328,1.328H55.781a1.328,1.328,0,0,0,1.328-1.328V45.156a1.328,1.328,0,0,0-1.328-1.328H54.453V41.172h1.328a1.328,1.328,0,0,0,1.328-1.328V31.875A1.328,1.328,0,0,0,55.781,30.547ZM54.453,51.8H30.547V46.484H54.453ZM51.8,43.828H33.2V41.172H51.8Zm2.656-5.312H30.547V33.2H54.453Z"/>
        <path id="Trazado_923720" data-name="Trazado 923720" d="M31.875,34.531h2.656v2.656H31.875Z"/>
        <path id="Trazado_923721" data-name="Trazado 923721" d="M37.188,34.531H53.125v2.656H37.188Z"/>
        <path id="Trazado_923722" data-name="Trazado 923722" d="M31.875,47.813h2.656v2.656H31.875Z"/>
        <path id="Trazado_923723" data-name="Trazado 923723" d="M37.188,47.813H53.125v2.656H37.188Z"/>
        <path id="Trazado_923724" data-name="Trazado 923724" d="M26.563,17.266V6.641a3.984,3.984,0,0,0-3.984-3.984H11.953a1.328,1.328,0,0,1-1.328-1.328A1.328,1.328,0,0,0,9.3,0H1.328A1.328,1.328,0,0,0,0,1.328V17.266A3.984,3.984,0,0,0,3.984,21.25H22.578A3.984,3.984,0,0,0,26.563,17.266Zm-2.656,0a1.328,1.328,0,0,1-1.328,1.328H3.984a1.328,1.328,0,0,1-1.328-1.328V2.656H8.2a3.992,3.992,0,0,0,3.757,2.656H22.578a1.328,1.328,0,0,1,1.328,1.328Z"/>
        <path id="Trazado_923725" data-name="Trazado 923725" d="M7.969,7.969H18.594v2.656H7.969Z"/>
        <path id="Trazado_923726" data-name="Trazado 923726" d="M7.969,13.281H18.594v2.656H7.969Z"/>
        <path id="Trazado_923727" data-name="Trazado 923727" d="M81.016,66.406H70.391a1.328,1.328,0,0,1-1.328-1.328,1.328,1.328,0,0,0-1.328-1.328H59.766a1.328,1.328,0,0,0-1.328,1.328V81.016A3.984,3.984,0,0,0,62.422,85H81.016A3.984,3.984,0,0,0,85,81.016V70.391a3.984,3.984,0,0,0-3.984-3.984Zm1.328,14.609a1.328,1.328,0,0,1-1.328,1.328H62.422a1.328,1.328,0,0,1-1.328-1.328V66.406h5.54a3.992,3.992,0,0,0,3.757,2.656H81.016a1.328,1.328,0,0,1,1.328,1.328Z"/>
        <path id="Trazado_923728" data-name="Trazado 923728" d="M66.406,71.719H77.031v2.656H66.406Z"/>
        <path id="Trazado_923729" data-name="Trazado 923729" d="M66.406,77.031H77.031v2.656H66.406Z"/>
        <path id="Trazado_923730" data-name="Trazado 923730" d="M19.922,58.438H6.641a1.328,1.328,0,0,0-.939.389L.389,64.139A1.328,1.328,0,0,0,0,65.078V83.672A1.328,1.328,0,0,0,1.328,85H19.922a1.328,1.328,0,0,0,1.328-1.328V59.766A1.328,1.328,0,0,0,19.922,58.438ZM5.313,62.972v.778H4.534ZM18.594,82.344H2.656V66.406H6.641a1.328,1.328,0,0,0,1.328-1.328V61.094H18.594Z"/>
        <path id="Trazado_923731" data-name="Trazado 923731" d="M5.313,69.063H15.938v2.656H5.313Z"/>
        <path id="Trazado_923732" data-name="Trazado 923732" d="M5.313,74.375H15.938v2.656H5.313Z"/>
        <path id="Trazado_923733" data-name="Trazado 923733" d="M83.672,0H70.391a1.328,1.328,0,0,0-.939.389L64.139,5.7a1.328,1.328,0,0,0-.389.939V25.234a1.328,1.328,0,0,0,1.328,1.328H83.672A1.328,1.328,0,0,0,85,25.234V1.328A1.328,1.328,0,0,0,83.672,0ZM69.063,4.534v.778h-.778ZM82.344,23.906H66.406V7.969h3.984a1.328,1.328,0,0,0,1.328-1.328V2.656H82.344Z"/>
        <path id="Trazado_923734" data-name="Trazado 923734" d="M69.063,10.625H79.688v2.656H69.063Z"/>
        <path id="Trazado_923735" data-name="Trazado 923735" d="M69.063,15.938H79.688v2.656H69.063Z"/>
        <path id="Trazado_923736" data-name="Trazado 923736" d="M42.5,29.219h2.656V13.281H61.094V10.625H29.219v2.656H42.5Z"/>
        <path id="Trazado_923737" data-name="Trazado 923737" d="M45.156,55.781H42.5V71.719H23.906v2.656H55.781V71.719H45.156Z"/>
        <path id="Trazado_923738" data-name="Trazado 923738" d="M78.359,33.2a3.984,3.984,0,1,0-3.984,3.984A3.984,3.984,0,0,0,78.359,33.2Zm-3.984,1.328A1.328,1.328,0,1,1,75.7,33.2,1.328,1.328,0,0,1,74.375,34.531Z"/>
        <path id="Trazado_923739" data-name="Trazado 923739" d="M74.375,63.75a3.984,3.984,0,1,0-3.984-3.984,3.984,3.984,0,0,0,3.984,3.984Zm0-5.312a1.328,1.328,0,1,1-1.328,1.328A1.328,1.328,0,0,1,74.375,58.438Z"/>
        <path id="Trazado_923740" data-name="Trazado 923740" d="M73.047,39.844H75.7V42.5H73.047Z"/>
        <path id="Trazado_923741" data-name="Trazado 923741" d="M73.047,45.156H75.7v2.656H73.047Z"/>
        <path id="Trazado_923742" data-name="Trazado 923742" d="M73.047,50.469H75.7v2.656H73.047Z"/>
        <path id="Trazado_923743" data-name="Trazado 923743" d="M17.266,26.563a3.984,3.984,0,1,0-3.984,3.984A3.984,3.984,0,0,0,17.266,26.563Zm-3.984,1.328a1.328,1.328,0,1,1,1.328-1.328A1.328,1.328,0,0,1,13.281,27.891Z"/>
        <path id="Trazado_923744" data-name="Trazado 923744" d="M13.281,57.109A3.984,3.984,0,1,0,9.3,53.125,3.984,3.984,0,0,0,13.281,57.109Zm0-5.312a1.328,1.328,0,1,1-1.328,1.328A1.328,1.328,0,0,1,13.281,51.8Z"/>
        <path id="Trazado_923745" data-name="Trazado 923745" d="M11.953,33.2h2.656v2.656H11.953Z"/>
        <path id="Trazado_923746" data-name="Trazado 923746" d="M11.953,38.516h2.656v2.656H11.953Z"/>
        <path id="Trazado_923747" data-name="Trazado 923747" d="M11.953,43.828h2.656v2.656H11.953Z"/>
      </g>
    </g>
  </g>
</svg>
