<svg xmlns="http://www.w3.org/2000/svg" xmlns:xlink="http://www.w3.org/1999/xlink" width="85" height="85" viewBox="0 0 85 85">
  <defs>
    <clipPath id="clip-path">
      <rect id="Rectángulo_405062" data-name="Rectángulo 405062" width="85" height="85" transform="translate(757.051 2703)" fill="#fff" stroke="#707070" stroke-width="1"/>
    </clipPath>
  </defs>
  <g id="img10" transform="translate(-757.051 -2703)">
    <path id="Trazado_919707" data-name="Trazado 919707" d="M42.5,0A42.5,42.5,0,1,1,0,42.5,42.5,42.5,0,0,1,42.5,0Z" transform="translate(757.051 2703)" fill="#b0dcad"/>
    <g id="Enmascarar_grupo_1098777" data-name="Enmascarar grupo 1098777" clip-path="url(#clip-path)">
      <g id="documentacion_1_" data-name="documentacion (1)" transform="translate(757.051 2703)">
        <g id="Grupo_1103817" data-name="Grupo 1103817">
          <path id="Trazado_924739" data-name="Trazado 924739" d="M69.332,49.208H15.668V3.593a2.348,2.348,0,0,1,2.348-2.348H66.984a2.348,2.348,0,0,1,2.348,2.348V49.208Z" fill="#eaf6ff"/>
          <path id="Trazado_924740" data-name="Trazado 924740" d="M66.985,1.245H61.618a2.348,2.348,0,0,1,2.348,2.348V49.208h5.366V3.593A2.348,2.348,0,0,0,66.985,1.245Z" fill="#d8ecfe"/>
          <g id="Grupo_1103816" data-name="Grupo 1103816">
            <path id="Trazado_924741" data-name="Trazado 924741" d="M28.413,37.134H23.046v-10.4a1.342,1.342,0,0,1,1.342-1.342h2.683a1.342,1.342,0,0,1,1.342,1.342v10.4Z" fill="#6cf5c2"/>
            <rect id="Rectángulo_405065" data-name="Rectángulo 405065" width="5.366" height="5.031" transform="translate(23.046 32.102)" fill="#00f2a6"/>
            <path id="Trazado_924742" data-name="Trazado 924742" d="M39.593,37.134H34.227V12.649a1.342,1.342,0,0,1,1.342-1.342h2.683a1.342,1.342,0,0,1,1.342,1.342Z" fill="#fd8087"/>
            <rect id="Rectángulo_405066" data-name="Rectángulo 405066" width="5.366" height="5.031" transform="translate(34.227 32.102)" fill="#fe646f"/>
            <path id="Trazado_924743" data-name="Trazado 924743" d="M50.773,37.134H45.407V24.053a1.342,1.342,0,0,1,1.342-1.342h2.683a1.342,1.342,0,0,1,1.342,1.342V37.134Z" fill="#cb97e7"/>
            <rect id="Rectángulo_405067" data-name="Rectángulo 405067" width="5.366" height="5.031" transform="translate(45.407 32.102)" fill="#bd80e1"/>
            <path id="Trazado_924744" data-name="Trazado 924744" d="M61.954,37.134H56.587v-8.72a1.342,1.342,0,0,1,1.342-1.342h2.683a1.342,1.342,0,0,1,1.342,1.342v8.72Z" fill="#8ac9fe"/>
            <rect id="Rectángulo_405068" data-name="Rectángulo 405068" width="5.366" height="5.031" transform="translate(56.587 32.102)" fill="#60b7ff"/>
          </g>
          <path id="Trazado_924745" data-name="Trazado 924745" d="M27.575,46.525l-1.727-2.764A2.683,2.683,0,0,0,23.572,42.5H12.314a2.348,2.348,0,0,0-2.348,2.348V81.407a2.348,2.348,0,0,0,2.348,2.348H72.687a2.348,2.348,0,0,0,2.348-2.348V48.873a2.348,2.348,0,0,0-2.348-2.348Z" fill="#ffe177"/>
          <path id="Trazado_924746" data-name="Trazado 924746" d="M72.686,46.525H67.32a2.348,2.348,0,0,1,2.348,2.348V81.407a2.348,2.348,0,0,1-2.348,2.348h5.366a2.348,2.348,0,0,0,2.348-2.348V48.873A2.348,2.348,0,0,0,72.686,46.525Z" fill="#ffd15b"/>
          <path id="Trazado_924747" data-name="Trazado 924747" d="M30.09,78.388H16.674a1.342,1.342,0,0,1-1.342-1.342V74.364a1.342,1.342,0,0,1,1.342-1.342H30.09a1.342,1.342,0,0,1,1.342,1.342v2.683A1.342,1.342,0,0,1,30.09,78.388Z" fill="#7a6d79"/>
        </g>
        <g id="Grupo_1103821" data-name="Grupo 1103821">
          <line id="Línea_738" data-name="Línea 738" x1="42.261" transform="translate(21.37 37.134)" fill="none" stroke="#000" stroke-linecap="round" stroke-linejoin="round" stroke-miterlimit="10" stroke-width="2.49"/>
          <path id="Trazado_924748" data-name="Trazado 924748" d="M28.413,37.134H23.046v-10.4a1.342,1.342,0,0,1,1.342-1.342h2.683a1.342,1.342,0,0,1,1.342,1.342v10.4Z" fill="none" stroke="#000" stroke-linecap="round" stroke-linejoin="round" stroke-miterlimit="10" stroke-width="2.49"/>
          <path id="Trazado_924749" data-name="Trazado 924749" d="M39.593,37.134H34.227V12.649a1.342,1.342,0,0,1,1.342-1.342h2.683a1.342,1.342,0,0,1,1.342,1.342Z" fill="none" stroke="#000" stroke-linecap="round" stroke-linejoin="round" stroke-miterlimit="10" stroke-width="2.49"/>
          <path id="Trazado_924750" data-name="Trazado 924750" d="M50.773,37.134H45.407V24.053a1.342,1.342,0,0,1,1.342-1.342h2.683a1.342,1.342,0,0,1,1.342,1.342V37.134Z" fill="none" stroke="#000" stroke-linecap="round" stroke-linejoin="round" stroke-miterlimit="10" stroke-width="2.49"/>
          <path id="Trazado_924751" data-name="Trazado 924751" d="M61.954,37.134H56.587v-8.72a1.342,1.342,0,0,1,1.342-1.342h2.683a1.342,1.342,0,0,1,1.342,1.342v8.72Z" fill="none" stroke="#000" stroke-linecap="round" stroke-linejoin="round" stroke-miterlimit="10" stroke-width="2.49"/>
          <g id="Grupo_1103820" data-name="Grupo 1103820">
            <g id="Grupo_1103818" data-name="Grupo 1103818">
              <line id="Línea_739" data-name="Línea 739" x1="13.975" transform="translate(49.991 17.345)" fill="none" stroke="#000" stroke-linecap="round" stroke-linejoin="round" stroke-miterlimit="10" stroke-width="2.49"/>
              <line id="Línea_740" data-name="Línea 740" x2="11.068" transform="translate(52.898 11.978)" fill="none" stroke="#000" stroke-linecap="round" stroke-linejoin="round" stroke-miterlimit="10" stroke-width="2.49"/>
            </g>
            <g id="Grupo_1103819" data-name="Grupo 1103819">
              <line id="Línea_741" data-name="Línea 741" x1="13.975" transform="translate(49.991 6.612)" fill="none" stroke="#000" stroke-linecap="round" stroke-linejoin="round" stroke-miterlimit="10" stroke-width="2.49"/>
            </g>
          </g>
          <line id="Línea_742" data-name="Línea 742" y1="30.57" transform="translate(69.333 15.954)" fill="none" stroke="#000" stroke-linecap="round" stroke-linejoin="round" stroke-miterlimit="10" stroke-width="2.49"/>
          <path id="Trazado_924752" data-name="Trazado 924752" d="M15.667,42.5V3.593a2.349,2.349,0,0,1,2.349-2.347H66.984a2.349,2.349,0,0,1,2.349,2.347v6.534" fill="none" stroke="#000" stroke-linecap="round" stroke-linejoin="round" stroke-miterlimit="10" stroke-width="2.49"/>
          <path id="Trazado_924753" data-name="Trazado 924753" d="M9.966,50.678v-5.83A2.347,2.347,0,0,1,12.313,42.5H23.573a2.68,2.68,0,0,1,2.274,1.262l1.728,2.762H72.687a2.349,2.349,0,0,1,2.347,2.349V60.725" fill="none" stroke="#000" stroke-linecap="round" stroke-linejoin="round" stroke-miterlimit="10" stroke-width="2.49"/>
          <path id="Trazado_924754" data-name="Trazado 924754" d="M75.034,66.552V81.407a2.347,2.347,0,0,1-2.347,2.347H12.313a2.347,2.347,0,0,1-2.347-2.347v-24.9" fill="none" stroke="#000" stroke-linecap="round" stroke-linejoin="round" stroke-miterlimit="10" stroke-width="2.49"/>
          <path id="Trazado_924755" data-name="Trazado 924755" d="M30.09,78.388H16.674a1.342,1.342,0,0,1-1.342-1.342V74.364a1.342,1.342,0,0,1,1.342-1.342H30.09a1.342,1.342,0,0,1,1.342,1.342v2.683A1.342,1.342,0,0,1,30.09,78.388Z" fill="none" stroke="#000" stroke-linecap="round" stroke-linejoin="round" stroke-miterlimit="10" stroke-width="2.49"/>
        </g>
      </g>
    </g>
  </g>
</svg>
