<svg xmlns="http://www.w3.org/2000/svg" width="169.289" height="83.387" viewBox="0 0 169.289 83.387">
  <g id="img10" transform="translate(0 213.288) rotate(-90)">
    <g id="Grupo_1103131" data-name="Grupo 1103131" transform="translate(132.381 2.48)">
      <g id="Grupo_1103126" data-name="Grupo 1103126" transform="translate(0 115.354)">
        <path id="Trazado_920817" data-name="Trazado 920817" d="M215.829,405.354H137.4V362.3a5.925,5.925,0,0,1,5.925-5.925H209.9a5.925,5.925,0,0,1,5.925,5.925v43.05Z" transform="translate(-137.401 -356.379)" fill="#a79ba7"/>
      </g>
      <path id="Trazado_920818" data-name="Trazado 920818" d="M329.9,356.379H316.679A5.925,5.925,0,0,1,322.6,362.3v43.05H335.83V362.3A5.925,5.925,0,0,0,329.9,356.379Z" transform="translate(-257.402 -241.025)" fill="#918291"/>
      <path id="Trazado_920819" data-name="Trazado 920819" d="M225.032,267.68H164.571V230.148a6.285,6.285,0,0,1,6.285-6.285h47.892a6.285,6.285,0,0,1,6.285,6.285Z" transform="translate(-155.587 -152.324)" fill="#8ac9fe"/>
      <path id="Trazado_920820" data-name="Trazado 920820" d="M301.648,223.863H288.422a6.285,6.285,0,0,1,6.285,6.285V267.68h13.226V230.148A6.285,6.285,0,0,0,301.648,223.863Z" transform="translate(-238.488 -152.324)" fill="#60b7ff"/>
      <path id="Trazado_920821" data-name="Trazado 920821" d="M237.076,137.867H200.129V99.7a4.311,4.311,0,0,1,4.311-4.311h28.326a4.311,4.311,0,0,1,4.311,4.311v38.169Z" transform="translate(-179.388 -66.328)" fill="#d8ecfe"/>
      <path id="Trazado_920822" data-name="Trazado 920822" d="M272.06,95.388H258.834a4.311,4.311,0,0,1,4.311,4.311v38.169H276.37V99.7A4.311,4.311,0,0,0,272.06,95.388Z" transform="translate(-218.683 -66.328)" fill="#c4e2ff"/>
      <g id="Grupo_1103130" data-name="Grupo 1103130" transform="translate(25.818)">
        <g id="Grupo_1103127" data-name="Grupo 1103127">
          <rect id="Rectángulo_404174" data-name="Rectángulo 404174" width="8.931" height="29.06" fill="#bbec6c"/>
        </g>
        <g id="Grupo_1103128" data-name="Grupo 1103128" transform="translate(8.93)">
          <rect id="Rectángulo_404175" data-name="Rectángulo 404175" width="8.931" height="29.06" fill="#fee97d"/>
        </g>
        <g id="Grupo_1103129" data-name="Grupo 1103129" transform="translate(17.861)">
          <rect id="Rectángulo_404176" data-name="Rectángulo 404176" width="8.931" height="29.06" fill="#fe646f"/>
        </g>
      </g>
    </g>
    <g id="Grupo_1103139" data-name="Grupo 1103139" transform="translate(129.901 0)">
      <g id="Grupo_1103132" data-name="Grupo 1103132" transform="translate(0 115.354)">
        <path id="Trazado_920823" data-name="Trazado 920823" d="M210.809,402.814a2.48,2.48,0,0,1-2.48-2.48v-43.05a3.449,3.449,0,0,0-3.445-3.445H138.306a3.449,3.449,0,0,0-3.445,3.445v43.05a2.48,2.48,0,1,1-4.96,0v-43.05a8.414,8.414,0,0,1,8.4-8.4h66.578a8.414,8.414,0,0,1,8.4,8.4v43.05A2.48,2.48,0,0,1,210.809,402.814Z" transform="translate(-129.901 -348.879)"/>
      </g>
      <path id="Trazado_920824" data-name="Trazado 920824" d="M220.011,265.139H159.551a2.48,2.48,0,0,1-2.48-2.48V225.127a8.774,8.774,0,0,1,8.764-8.764h47.892a8.774,8.774,0,0,1,8.764,8.764V262.66A2.48,2.48,0,0,1,220.011,265.139Zm-57.981-4.96h55.5V225.127a3.809,3.809,0,0,0-3.8-3.8H165.835a3.809,3.809,0,0,0-3.8,3.8Z" transform="translate(-148.087 -144.824)"/>
      <path id="Trazado_920825" data-name="Trazado 920825" d="M189.78,245.852a89.881,89.881,0,0,1-31.084-5.668,2.48,2.48,0,0,1,1.706-4.657,83.226,83.226,0,0,0,58.754,0,2.48,2.48,0,1,1,1.706,4.657A89.881,89.881,0,0,1,189.78,245.852Z" transform="translate(-148.086 -157.55)"/>
      <path id="Trazado_920826" data-name="Trazado 920826" d="M189.78,280a89.882,89.882,0,0,1-31.084-5.668,2.48,2.48,0,1,1,1.706-4.657,83.226,83.226,0,0,0,58.754,0,2.48,2.48,0,1,1,1.706,4.657A89.882,89.882,0,0,1,189.78,280Z" transform="translate(-148.086 -180.405)"/>
      <path id="Trazado_920827" data-name="Trazado 920827" d="M236.686,314.159q-3.6,0-7.177-.3a2.48,2.48,0,0,1,.421-4.942,83.906,83.906,0,0,0,36.2-5.1,2.48,2.48,0,1,1,1.707,4.657A90.239,90.239,0,0,1,236.686,314.159Z" transform="translate(-195.055 -203.259)"/>
      <path id="Trazado_920828" data-name="Trazado 920828" d="M171.291,312.09a2.488,2.488,0,0,1-.545-.061,96.535,96.535,0,0,1-12.05-3.558,2.48,2.48,0,1,1,1.707-4.657,91.565,91.565,0,0,0,11.428,3.375,2.48,2.48,0,0,1-.54,4.9Z" transform="translate(-148.086 -203.259)"/>
      <path id="Trazado_920829" data-name="Trazado 920829" d="M232.056,135.327H195.109a2.48,2.48,0,0,1-2.48-2.48V94.678a6.8,6.8,0,0,1,6.79-6.79h28.326a6.767,6.767,0,0,1,6.7,5.668,2.48,2.48,0,0,1-4.892.817,1.823,1.823,0,0,0-1.806-1.525H199.419a1.833,1.833,0,0,0-1.831,1.831v35.689h31.987V105.542a2.48,2.48,0,1,1,4.96,0v27.305A2.48,2.48,0,0,1,232.056,135.327Z" transform="translate(-171.888 -58.828)"/>
      <g id="Grupo_1103136" data-name="Grupo 1103136" transform="translate(25.818)">
        <g id="Grupo_1103133" data-name="Grupo 1103133">
          <path id="Trazado_920830" data-name="Trazado 920830" d="M219.4,34.019h-8.93a2.48,2.48,0,0,1-2.48-2.48V2.48a2.48,2.48,0,0,1,4.96,0V29.06h3.971V2.48a2.48,2.48,0,0,1,4.96,0v29.06A2.48,2.48,0,0,1,219.4,34.019Z" transform="translate(-207.986 0)"/>
        </g>
        <g id="Grupo_1103134" data-name="Grupo 1103134" transform="translate(8.93)">
          <path id="Trazado_920831" data-name="Trazado 920831" d="M246.405,34.019h-8.931a2.48,2.48,0,0,1-2.48-2.48V2.48a2.48,2.48,0,0,1,4.96,0V29.06h3.971V2.48a2.48,2.48,0,0,1,4.96,0v29.06A2.48,2.48,0,0,1,246.405,34.019Z" transform="translate(-234.995 0)"/>
        </g>
        <g id="Grupo_1103135" data-name="Grupo 1103135" transform="translate(17.861)">
          <path id="Trazado_920832" data-name="Trazado 920832" d="M273.415,34.019h-8.93a2.48,2.48,0,0,1-2.48-2.48V2.48a2.48,2.48,0,0,1,4.96,0V29.06h3.971V2.48a2.48,2.48,0,0,1,4.96,0v29.06A2.48,2.48,0,0,1,273.415,34.019Z" transform="translate(-262.005 0)"/>
        </g>
      </g>
      <g id="Grupo_1103137" data-name="Grupo 1103137" transform="translate(4.62 44.233)">
        <path id="Trazado_920833" data-name="Trazado 920833" d="M162.476,178.326a2.48,2.48,0,0,1-2.3-1.543c-2.94-7.2-7.993-13.845-15.448-20.3a2.48,2.48,0,0,1,3.247-3.749c8.058,6.979,13.551,14.233,16.793,22.177a2.481,2.481,0,0,1-2.3,3.417Z" transform="translate(-143.875 -146.06)"/>
        <path id="Trazado_920834" data-name="Trazado 920834" d="M206.692,166.046a2.481,2.481,0,0,1-2.406-1.888,93.135,93.135,0,0,0-11.294-26.6,2.48,2.48,0,1,1,4.232-2.587A98.014,98.014,0,0,1,209.1,162.972a2.482,2.482,0,0,1-2.41,3.073Z" transform="translate(-176.508 -133.78)"/>
      </g>
      <g id="Grupo_1103138" data-name="Grupo 1103138" transform="translate(46.104 44.233)">
        <path id="Trazado_920835" data-name="Trazado 920835" d="M306.858,178.326a2.481,2.481,0,0,1-2.324-3.344,49.124,49.124,0,0,1,16.954-22.358,2.48,2.48,0,1,1,2.981,3.964,44.245,44.245,0,0,0-15.286,20.121A2.481,2.481,0,0,1,306.858,178.326Z" transform="translate(-292.792 -146.06)"/>
        <path id="Trazado_920836" data-name="Trazado 920836" d="M271.82,166.046a2.482,2.482,0,0,1-2.413-3.062,97.943,97.943,0,0,1,11.881-28.017,2.48,2.48,0,1,1,4.231,2.587,93,93,0,0,0-11.291,26.593A2.481,2.481,0,0,1,271.82,166.046Z" transform="translate(-269.337 -133.78)"/>
      </g>
      <path id="Línea_715" data-name="Línea 715" d="M-5.02,24.25A2.48,2.48,0,0,1-7.5,21.77V-5.02A2.48,2.48,0,0,1-5.02-7.5,2.48,2.48,0,0,1-2.54-5.02V21.77A2.48,2.48,0,0,1-5.02,24.25Z" transform="translate(46.714 52.249)"/>
    </g>
  </g>
</svg>
