<svg xmlns="http://www.w3.org/2000/svg" xmlns:xlink="http://www.w3.org/1999/xlink" width="190" height="115" viewBox="0 0 190 115">
  <defs>
    <clipPath id="clip-path">
      <rect id="Rectángulo_401573" data-name="Rectángulo 401573" width="28.836" height="111" fill="none"/>
    </clipPath>
    <clipPath id="clip-path-2">
      <rect id="Rectángulo_401572" data-name="Rectángulo 401572" width="72.283" height="262.133" fill="none"/>
    </clipPath>
    <clipPath id="clip-path-3">
      <rect id="Rectángulo_403255" data-name="Rectángulo 403255" width="71" height="71" transform="translate(254.051 423)" fill="#fff" stroke="#707070" stroke-width="1"/>
    </clipPath>
  </defs>
  <g id="img1" transform="translate(-180.051 -401)">
    <g id="Grupo_1101503" data-name="Grupo 1101503" transform="translate(180.051 401.333)">
      <g id="Grupo_1099687" data-name="Grupo 1099687" clip-path="url(#clip-path)">
        <g id="Grupo_1099686" data-name="Grupo 1099686" transform="translate(-6.669 -55.037)" opacity="0.45" style="mix-blend-mode: multiply;isolation: isolate">
          <g id="Grupo_1099685" data-name="Grupo 1099685">
            <g id="Grupo_1099684" data-name="Grupo 1099684" clip-path="url(#clip-path-2)">
              <path id="Trazado_873516" data-name="Trazado 873516" d="M-.222,17.8,89.855-5.386,88.78.455-1.3,23.64Z" transform="matrix(0.898, -0.44, 0.44, 0.898, -7.635, 207.677)" fill="#2d0464"/>
              <path id="Trazado_873517" data-name="Trazado 873517" d="M-.222,17.8,89.855-5.386,88.78.455-1.3,23.64Z" transform="matrix(0.898, -0.44, 0.44, 0.898, -7.635, 191.348)" fill="#2d0464"/>
              <path id="Trazado_873518" data-name="Trazado 873518" d="M-.222,17.8,89.855-5.386,88.78.455-1.3,23.64Z" transform="matrix(0.898, -0.44, 0.44, 0.898, -7.635, 175.019)" fill="#2d0464"/>
              <path id="Trazado_873519" data-name="Trazado 873519" d="M-.222,17.8,89.855-5.386,88.78.455-1.3,23.64Z" transform="matrix(0.898, -0.44, 0.44, 0.898, -7.635, 158.69)" fill="#2d0464"/>
              <path id="Trazado_873520" data-name="Trazado 873520" d="M-.222,17.8,89.855-5.386,88.78.455-1.3,23.64Z" transform="matrix(0.898, -0.44, 0.44, 0.898, -7.635, 142.36)" fill="#2d0464"/>
              <path id="Trazado_873521" data-name="Trazado 873521" d="M-.222,17.8,89.855-5.386,88.78.455-1.3,23.64Z" transform="matrix(0.898, -0.44, 0.44, 0.898, -7.635, 126.031)" fill="#2d0464"/>
              <path id="Trazado_873522" data-name="Trazado 873522" d="M-.222,17.8,89.855-5.386,88.78.455-1.3,23.64Z" transform="matrix(0.898, -0.44, 0.44, 0.898, -7.635, 109.702)" fill="#2d0464"/>
              <path id="Trazado_873523" data-name="Trazado 873523" d="M-.222,17.8,89.855-5.386,88.78.455-1.3,23.64Z" transform="matrix(0.898, -0.44, 0.44, 0.898, -7.635, 93.373)" fill="#2d0464"/>
              <path id="Trazado_873524" data-name="Trazado 873524" d="M-.222,17.8,89.855-5.386,88.78.455-1.3,23.64Z" transform="matrix(0.898, -0.44, 0.44, 0.898, -7.635, 77.044)" fill="#2d0464"/>
              <path id="Trazado_873525" data-name="Trazado 873525" d="M-.222,17.8,89.855-5.386,88.78.455-1.3,23.64Z" transform="matrix(0.898, -0.44, 0.44, 0.898, -7.635, 60.715)" fill="#2d0464"/>
              <path id="Trazado_873526" data-name="Trazado 873526" d="M-.222,17.8,89.855-5.386,88.78.455-1.3,23.64Z" transform="translate(-7.635 44.385) rotate(-26.114)" fill="#2d0464"/>
            </g>
          </g>
        </g>
      </g>
      <rect id="Rectángulo_401574" data-name="Rectángulo 401574" width="161" height="115" transform="translate(29 -0.333)" fill="#efe8f7"/>
    </g>
    <g id="Enmascarar_grupo_1098768" data-name="Enmascarar grupo 1098768" clip-path="url(#clip-path-3)">
      <g id="conmutador-de-red" transform="translate(254.051 423)">
        <rect id="Rectángulo_404436" data-name="Rectángulo 404436" width="28.4" height="18.933" rx="2.367" transform="translate(1.183 41.417)" fill="#00bcd4"/>
        <path id="Trazado_923661" data-name="Trazado 923661" d="M27.217,41.417h-3.55a2.374,2.374,0,0,1,2.367,2.367v14.2a2.374,2.374,0,0,1-2.367,2.367h3.55a2.374,2.374,0,0,0,2.367-2.367v-14.2A2.374,2.374,0,0,0,27.217,41.417Z" fill="#00838f"/>
        <path id="Trazado_923662" data-name="Trazado 923662" d="M10.65,60.35h9.467v4.733H10.65Z" fill="#3f51b5"/>
        <path id="Trazado_923663" data-name="Trazado 923663" d="M16.567,60.35h3.55v4.733h-3.55Z" fill="#0377bc"/>
        <path id="Trazado_923664" data-name="Trazado 923664" d="M26.033,68.633a1.183,1.183,0,0,1-1.183,1.183H5.917a1.183,1.183,0,0,1-1.183-1.183,3.55,3.55,0,0,1,3.55-3.55h14.2A3.55,3.55,0,0,1,26.033,68.633Z" fill="#607d8b"/>
        <path id="Trazado_923665" data-name="Trazado 923665" d="M22.483,65.083h-3.55a3.55,3.55,0,0,1,3.55,3.55A1.183,1.183,0,0,1,21.3,69.817h3.55a1.183,1.183,0,0,0,1.183-1.183A3.55,3.55,0,0,0,22.483,65.083Z" fill="#37474f"/>
        <rect id="Rectángulo_404437" data-name="Rectángulo 404437" width="28.4" height="18.933" rx="2.367" transform="translate(41.417 41.417)" fill="#00bcd4"/>
        <path id="Trazado_923666" data-name="Trazado 923666" d="M67.45,41.417H63.9a2.374,2.374,0,0,1,2.367,2.367v14.2A2.374,2.374,0,0,1,63.9,60.35h3.55a2.374,2.374,0,0,0,2.367-2.367v-14.2a2.374,2.374,0,0,0-2.367-2.367Z" fill="#00838f"/>
        <path id="Trazado_923667" data-name="Trazado 923667" d="M50.883,60.35H60.35v4.733H50.883Z" fill="#3f51b5"/>
        <path id="Trazado_923668" data-name="Trazado 923668" d="M56.8,60.35h3.55v4.733H56.8Z" fill="#283593"/>
        <path id="Trazado_923669" data-name="Trazado 923669" d="M66.267,68.633a1.183,1.183,0,0,1-1.183,1.183H46.15a1.183,1.183,0,0,1-1.183-1.183,3.55,3.55,0,0,1,3.55-3.55h14.2a3.55,3.55,0,0,1,3.55,3.55Z" fill="#607d8b"/>
        <path id="Trazado_923670" data-name="Trazado 923670" d="M62.717,65.083h-3.55a3.55,3.55,0,0,1,3.55,3.55,1.183,1.183,0,0,1-1.183,1.183h3.55a1.183,1.183,0,0,0,1.183-1.183,3.55,3.55,0,0,0-3.55-3.55Z" fill="#37474f"/>
        <path id="Trazado_923671" data-name="Trazado 923671" d="M69.817,3.55v14.2a2.374,2.374,0,0,1-2.367,2.367H62.717V1.183H67.45A2.374,2.374,0,0,1,69.817,3.55Z" fill="#00bcd4"/>
        <path id="Trazado_923672" data-name="Trazado 923672" d="M67.45,1.183H63.9A2.374,2.374,0,0,1,66.267,3.55v14.2A2.374,2.374,0,0,1,63.9,20.117h3.55a2.374,2.374,0,0,0,2.367-2.367V3.55A2.374,2.374,0,0,0,67.45,1.183Z" fill="#00838f"/>
        <path id="Trazado_923673" data-name="Trazado 923673" d="M8.283,1.183V20.117H3.55A2.374,2.374,0,0,1,1.183,17.75V3.55A2.374,2.374,0,0,1,3.55,1.183Z" fill="#00bcd4"/>
        <path id="Trazado_923674" data-name="Trazado 923674" d="M8.283,1.183V20.117H62.717V1.183ZM21.3,13.017A1.183,1.183,0,0,1,20.117,14.2H15.383A1.183,1.183,0,0,1,14.2,13.017V8.283A1.183,1.183,0,0,1,15.383,7.1h4.733A1.183,1.183,0,0,1,21.3,8.283Zm11.833,0A1.183,1.183,0,0,1,31.95,14.2H27.217a1.183,1.183,0,0,1-1.183-1.183V8.283A1.183,1.183,0,0,1,27.217,7.1H31.95a1.183,1.183,0,0,1,1.183,1.183Zm11.833,0A1.183,1.183,0,0,1,43.783,14.2H39.05a1.183,1.183,0,0,1-1.183-1.183V8.283A1.183,1.183,0,0,1,39.05,7.1h4.733a1.183,1.183,0,0,1,1.183,1.183Zm11.833,0A1.183,1.183,0,0,1,55.617,14.2H50.883A1.183,1.183,0,0,1,49.7,13.017V8.283A1.183,1.183,0,0,1,50.883,7.1h4.733A1.183,1.183,0,0,1,56.8,8.283Z" fill="#3f51b5"/>
        <rect id="Rectángulo_404438" data-name="Rectángulo 404438" width="7.1" height="7.1" rx="1.183" transform="translate(14.2 7.1)" fill="#f44335"/>
        <rect id="Rectángulo_404439" data-name="Rectángulo 404439" width="7.1" height="7.1" rx="1.183" transform="translate(26.033 7.1)" fill="#ff9801"/>
        <rect id="Rectángulo_404440" data-name="Rectángulo 404440" width="7.1" height="7.1" rx="1.183" transform="translate(37.867 7.1)" fill="#ffdf00"/>
        <rect id="Rectángulo_404441" data-name="Rectángulo 404441" width="7.1" height="7.1" rx="1.183" transform="translate(49.7 7.1)" fill="#a4c400"/>
        <g id="Grupo_1103742" data-name="Grupo 1103742">
          <path id="Trazado_923675" data-name="Trazado 923675" d="M5.917,49.7a1.183,1.183,0,0,1-.837-2.02l2.367-2.367A1.183,1.183,0,1,1,9.12,46.987L6.753,49.353A1.183,1.183,0,0,1,5.917,49.7Z" fill="#fff"/>
          <path id="Trazado_923676" data-name="Trazado 923676" d="M5.917,55.617A1.183,1.183,0,0,1,5.08,53.6l8.283-8.283a1.183,1.183,0,1,1,1.673,1.673L6.753,55.27a1.183,1.183,0,0,1-.837.347Z" fill="#fff"/>
          <path id="Trazado_923677" data-name="Trazado 923677" d="M46.15,49.7a1.183,1.183,0,0,1-.837-2.02l2.367-2.367a1.183,1.183,0,1,1,1.673,1.673l-2.367,2.367A1.183,1.183,0,0,1,46.15,49.7Z" fill="#fff"/>
          <path id="Trazado_923678" data-name="Trazado 923678" d="M46.15,55.617a1.183,1.183,0,0,1-.837-2.02L53.6,45.313a1.183,1.183,0,1,1,1.673,1.673L46.987,55.27A1.183,1.183,0,0,1,46.15,55.617Z" fill="#fff"/>
        </g>
        <path id="Trazado_923679" data-name="Trazado 923679" d="M67.45,0H3.55A3.55,3.55,0,0,0,0,3.55v14.2A3.55,3.55,0,0,0,3.55,21.3H28.4v2.367a2.367,2.367,0,0,1-2.367,2.367H21.3a4.733,4.733,0,0,0-4.733,4.733v9.467H3.55A3.55,3.55,0,0,0,0,43.783v14.2a3.55,3.55,0,0,0,3.55,3.55H9.467V63.9H8.283A4.733,4.733,0,0,0,3.55,68.633,2.367,2.367,0,0,0,5.917,71H24.85a2.367,2.367,0,0,0,2.367-2.367A4.733,4.733,0,0,0,22.483,63.9H21.3V61.533h5.917a3.55,3.55,0,0,0,3.55-3.55v-14.2a3.55,3.55,0,0,0-3.55-3.55H18.933V30.767A2.367,2.367,0,0,1,21.3,28.4h4.733a4.733,4.733,0,0,0,4.733-4.733V21.3h9.467v2.367A4.733,4.733,0,0,0,44.967,28.4H49.7a2.367,2.367,0,0,1,2.367,2.367v9.467H43.783a3.55,3.55,0,0,0-3.55,3.55v14.2a3.55,3.55,0,0,0,3.55,3.55H49.7V63.9H48.517a4.733,4.733,0,0,0-4.733,4.733A2.367,2.367,0,0,0,46.15,71H65.083a2.367,2.367,0,0,0,2.367-2.367A4.733,4.733,0,0,0,62.717,63.9H61.533V61.533H67.45A3.55,3.55,0,0,0,71,57.983v-14.2a3.55,3.55,0,0,0-3.55-3.55H54.433V30.767A4.733,4.733,0,0,0,49.7,26.033H44.967A2.367,2.367,0,0,1,42.6,23.667V21.3H67.45A3.55,3.55,0,0,0,71,17.75V3.55A3.55,3.55,0,0,0,67.45,0ZM24.85,68.633H5.917a2.367,2.367,0,0,1,2.367-2.367h14.2A2.373,2.373,0,0,1,24.85,68.633ZM18.933,63.9h-7.1V61.533h7.1ZM28.4,43.783v14.2a1.183,1.183,0,0,1-1.183,1.183H3.55a1.183,1.183,0,0,1-1.183-1.183v-14.2A1.183,1.183,0,0,1,3.55,42.6H27.217A1.183,1.183,0,0,1,28.4,43.783Zm36.683,24.85H46.15a2.367,2.367,0,0,1,2.367-2.367h14.2A2.373,2.373,0,0,1,65.083,68.633ZM59.167,63.9h-7.1V61.533h7.1Zm9.467-20.117v14.2a1.183,1.183,0,0,1-1.183,1.183H43.783A1.183,1.183,0,0,1,42.6,57.983v-14.2A1.183,1.183,0,0,1,43.783,42.6H67.45A1.183,1.183,0,0,1,68.633,43.783ZM2.367,17.75V3.55A1.183,1.183,0,0,1,3.55,2.367H7.1V18.933H3.55A1.183,1.183,0,0,1,2.367,17.75Zm39.05-5.917a1.183,1.183,0,0,0-1.183,1.183H39.05V8.283h4.733v4.733H42.6A1.183,1.183,0,0,0,41.417,11.833Zm2.367,3.55a2.367,2.367,0,0,0,2.367-2.367V8.283a2.367,2.367,0,0,0-2.367-2.367H39.05a2.367,2.367,0,0,0-2.367,2.367v4.733a2.367,2.367,0,0,0,2.367,2.367h1.183v3.55H30.767v-3.55H31.95a2.367,2.367,0,0,0,2.367-2.367V8.283A2.367,2.367,0,0,0,31.95,5.917H27.217A2.367,2.367,0,0,0,24.85,8.283v4.733a2.367,2.367,0,0,0,2.367,2.367H28.4v3.55H9.467V2.367H61.533V18.933H42.6v-3.55Zm-14.2-3.55A1.183,1.183,0,0,0,28.4,13.017H27.217V8.283H31.95v4.733H30.767A1.183,1.183,0,0,0,29.583,11.833Zm39.05,5.917a1.183,1.183,0,0,1-1.183,1.183H63.9V2.367h3.55A1.183,1.183,0,0,1,68.633,3.55Z"/>
        <circle id="Elipse_11585" data-name="Elipse 11585" cx="1.183" cy="1.183" r="1.183" transform="translate(3.55 4.733)"/>
        <circle id="Elipse_11586" data-name="Elipse 11586" cx="1.183" cy="1.183" r="1.183" transform="translate(3.55 14.2)"/>
        <circle id="Elipse_11587" data-name="Elipse 11587" cx="1.183" cy="1.183" r="1.183" transform="translate(65.083 4.733)"/>
        <circle id="Elipse_11588" data-name="Elipse 11588" cx="1.183" cy="1.183" r="1.183" transform="translate(65.083 14.2)"/>
        <path id="Trazado_923680" data-name="Trazado 923680" d="M20.117,5.917H15.383a2.367,2.367,0,0,0-2.367,2.367v4.733a2.367,2.367,0,0,0,2.367,2.367h4.733a2.367,2.367,0,0,0,2.367-2.367V8.283A2.367,2.367,0,0,0,20.117,5.917Zm-4.733,7.1V8.283h4.733v4.733Z"/>
        <path id="Trazado_923681" data-name="Trazado 923681" d="M50.883,15.383h4.733a2.367,2.367,0,0,0,2.367-2.367V8.283a2.367,2.367,0,0,0-2.367-2.367H50.883a2.367,2.367,0,0,0-2.367,2.367v4.733A2.367,2.367,0,0,0,50.883,15.383Zm0-7.1h4.733v4.733H50.883Z"/>
      </g>
    </g>
  </g>
</svg>
