<svg xmlns="http://www.w3.org/2000/svg" xmlns:xlink="http://www.w3.org/1999/xlink" width="85.525" height="85" viewBox="0 0 85.525 85">
  <defs>
    <clipPath id="clip-path">
      <rect id="Rectángulo_405145" data-name="Rectángulo 405145" width="85" height="85" transform="translate(1178.051 4634)" fill="#fff" stroke="#707070" stroke-width="1"/>
    </clipPath>
    <clipPath id="clip-path-2">
      <path id="path11502" d="M0-85H85V0H0Z"/>
    </clipPath>
  </defs>
  <g id="img17" transform="translate(-1177.525 -4634)">
    <circle id="Elipse_11563" data-name="Elipse 11563" cx="42.5" cy="42.5" r="42.5" transform="translate(1177.525 4634)" fill="#b0dcad"/>
    <g id="Enmascarar_grupo_1098781" data-name="Enmascarar grupo 1098781" clip-path="url(#clip-path)">
      <g id="g11496" transform="translate(1178.051 4719)">
        <g id="g11498">
          <g id="g11500" clip-path="url(#clip-path-2)">
            <g id="g11506" transform="translate(41.356 -8.749)">
              <path id="path11508" d="M0,0A33.751,33.751,0,0,1-33.751-33.751,33.751,33.751,0,0,1,0-67.5,33.751,33.751,0,0,1,33.751-33.751,33.752,33.752,0,0,1,0,0M0-73.863A40.157,40.157,0,0,0-40.111-33.751,40.157,40.157,0,0,0,0,6.36,40.157,40.157,0,0,0,40.111-33.751,40.157,40.157,0,0,0,0-73.863" fill="#fe646f"/>
            </g>
            <g id="g11510" transform="translate(17.49 -66.366)">
              <path id="path11512" d="M0,0A33.751,33.751,0,0,1,47.732,0l4.5-4.5A40.111,40.111,0,1,0-4.5,52.229l4.5-4.5A33.751,33.751,0,0,1,0,0" fill="#ffe177"/>
            </g>
            <g id="g11514" transform="translate(41.356 -76.251)">
              <path id="path11516" d="M0,0A33.752,33.752,0,0,1,33.751,33.751,33.751,33.751,0,0,1,0,67.5M0-6.36A40.111,40.111,0,0,0,0,73.863,40.157,40.157,0,0,0,40.111,33.751,40.157,40.157,0,0,0,0-6.36Z" fill="none" stroke="#000" stroke-linecap="round" stroke-linejoin="round" stroke-miterlimit="10" stroke-width="2.49"/>
            </g>
            <g id="g11518" transform="translate(65.222 -66.366)">
              <path id="path11520" d="M0,0,4.5-4.5a40.157,40.157,0,0,0-56.726,0,40.157,40.157,0,0,0,0,56.726" fill="none" stroke="#000" stroke-linecap="round" stroke-linejoin="round" stroke-miterlimit="10" stroke-width="2.49"/>
            </g>
            <g id="g11522" transform="translate(7.605 -42.5)">
              <path id="path11524" d="M0,0A33.751,33.751,0,0,1,33.751-33.751v-6.36A40.157,40.157,0,0,0-6.36,0,40.157,40.157,0,0,0,33.751,40.111v-6.36A33.751,33.751,0,0,1,0,0" fill="#05e39c"/>
            </g>
            <g id="g11526" transform="translate(19.377 -68.113)">
              <path id="path11528" d="M0,0A33.617,33.617,0,0,1,21.979-8.138V-14.5a40.111,40.111,0,1,0,0,80.223v-6.36A33.753,33.753,0,0,1-4.069,4.148" fill="none" stroke="#000" stroke-linecap="round" stroke-linejoin="round" stroke-miterlimit="10" stroke-width="2.49"/>
            </g>
            <g id="g11530" transform="translate(63.987 -47.409)">
              <path id="path11532" d="M0,0H-3.678A2.5,2.5,0,0,1-6-1.6q-.129-.33-.27-.654a2.5,2.5,0,0,1,.513-2.772l2.6-2.6a2.49,2.49,0,0,0,0-3.522l-3.42-3.42a2.49,2.49,0,0,0-3.522,0l-2.6,2.6a2.5,2.5,0,0,1-2.772.513q-.324-.141-.654-.27a2.5,2.5,0,0,1-1.6-2.323v-3.678a2.49,2.49,0,0,0-2.49-2.49h-4.837a2.49,2.49,0,0,0-2.49,2.49v3.678a2.5,2.5,0,0,1-1.6,2.323q-.33.129-.654.27a2.5,2.5,0,0,1-2.772-.513l-2.6-2.6a2.49,2.49,0,0,0-3.522,0l-3.42,3.42a2.49,2.49,0,0,0,0,3.522l2.6,2.6A2.5,2.5,0,0,1-38.99-2.25q-.142.324-.271.654A2.5,2.5,0,0,1-41.584,0h-3.678a2.49,2.49,0,0,0-2.49,2.49V7.327a2.49,2.49,0,0,0,2.49,2.49h3.678a2.5,2.5,0,0,1,2.323,1.6q.129.33.27.654A2.5,2.5,0,0,1-39.5,14.84l-2.6,2.6a2.49,2.49,0,0,0,0,3.522l3.42,3.42a2.49,2.49,0,0,0,3.522,0l2.6-2.6a2.5,2.5,0,0,1,2.772-.514q.324.142.654.271a2.5,2.5,0,0,1,1.6,2.323V27.54a2.49,2.49,0,0,0,2.49,2.49h4.837a2.49,2.49,0,0,0,2.49-2.49V23.862a2.5,2.5,0,0,1,1.6-2.323q.33-.129.654-.271a2.5,2.5,0,0,1,2.772.513l2.6,2.6a2.49,2.49,0,0,0,3.522,0l3.42-3.42a2.49,2.49,0,0,0,0-3.522l-2.6-2.6a2.5,2.5,0,0,1-.513-2.772q.141-.323.27-.654a2.5,2.5,0,0,1,2.323-1.6H0a2.49,2.49,0,0,0,2.49-2.49V2.49A2.49,2.49,0,0,0,0,0" fill="#af66da"/>
            </g>
            <g id="g11534" transform="translate(34.863 -42.666)">
              <path id="path11536" d="M0,0A24.22,24.22,0,0,1,11.4-20.562v-1.9a2.49,2.49,0,0,0-2.49-2.49H4.075a2.49,2.49,0,0,0-2.49,2.49v3.678a2.5,2.5,0,0,1-1.6,2.323q-.33.129-.654.271a2.5,2.5,0,0,1-2.772-.513l-2.6-2.6a2.49,2.49,0,0,0-3.522,0l-3.42,3.42a2.49,2.49,0,0,0,0,3.522l2.6,2.6a2.5,2.5,0,0,1,.513,2.772q-.141.324-.271.654a2.5,2.5,0,0,1-2.323,1.6h-3.678a2.49,2.49,0,0,0-2.49,2.49V2.585a2.49,2.49,0,0,0,2.49,2.49h3.678a2.5,2.5,0,0,1,2.323,1.6q.129.33.271.654A2.5,2.5,0,0,1-10.38,10.1l-2.6,2.6a2.49,2.49,0,0,0,0,3.522l3.42,3.42a2.49,2.49,0,0,0,3.522,0l2.6-2.6a2.5,2.5,0,0,1,2.772-.514q.324.141.654.271a2.5,2.5,0,0,1,1.6,2.323V22.8a2.49,2.49,0,0,0,2.49,2.49H8.912A2.49,2.49,0,0,0,11.4,22.8V20.562A24.22,24.22,0,0,1,0,0" fill="#9857bd"/>
            </g>
            <g id="g11538" transform="translate(63.987 -47.409)">
              <path id="path11540" d="M0,0H-3.678A2.5,2.5,0,0,1-6-1.6q-.129-.33-.27-.654a2.5,2.5,0,0,1,.513-2.772l2.6-2.6a2.49,2.49,0,0,0,0-3.522l-3.42-3.42a2.49,2.49,0,0,0-3.522,0l-2.6,2.6a2.5,2.5,0,0,1-2.772.513q-.324-.141-.654-.27a2.5,2.5,0,0,1-1.6-2.323v-3.678a2.49,2.49,0,0,0-2.49-2.49h-4.837a2.49,2.49,0,0,0-2.49,2.49v3.678a2.5,2.5,0,0,1-1.6,2.323q-.33.129-.654.27a2.5,2.5,0,0,1-2.772-.513l-2.6-2.6a2.49,2.49,0,0,0-3.522,0l-3.42,3.42a2.49,2.49,0,0,0,0,3.522l2.6,2.6A2.5,2.5,0,0,1-38.99-2.25q-.142.324-.271.654A2.5,2.5,0,0,1-41.584,0h-3.678a2.49,2.49,0,0,0-2.49,2.49V7.327a2.49,2.49,0,0,0,2.49,2.49h3.678a2.5,2.5,0,0,1,2.323,1.6q.129.33.27.654A2.5,2.5,0,0,1-39.5,14.84l-2.6,2.6a2.49,2.49,0,0,0,0,3.522l3.42,3.42a2.49,2.49,0,0,0,3.522,0l2.6-2.6a2.5,2.5,0,0,1,2.772-.514q.324.142.654.271a2.5,2.5,0,0,1,1.6,2.323V27.54a2.49,2.49,0,0,0,2.49,2.49h4.837a2.49,2.49,0,0,0,2.49-2.49V23.862a2.5,2.5,0,0,1,1.6-2.323q.33-.129.654-.271a2.5,2.5,0,0,1,2.772.513l2.6,2.6a2.49,2.49,0,0,0,3.522,0l3.42-3.42a2.49,2.49,0,0,0,0-3.522l-2.6-2.6a2.5,2.5,0,0,1-.513-2.772q.141-.323.27-.654a2.5,2.5,0,0,1,2.323-1.6H0a2.49,2.49,0,0,0,2.49-2.49V2.49A2.49,2.49,0,0,0,0,0Z" fill="none" stroke="#000" stroke-linecap="round" stroke-linejoin="round" stroke-miterlimit="10" stroke-width="2.49"/>
            </g>
            <g id="g11542" transform="translate(53.601 -42.5)">
              <path id="path11544" d="M0,0A12.244,12.244,0,0,1-12.244,12.244,12.244,12.244,0,0,1-24.488,0,12.244,12.244,0,0,1-12.244-12.244,12.244,12.244,0,0,1,0,0" fill="#cb97e7"/>
            </g>
            <g id="g11546" transform="translate(53.308 -45.156)">
              <path id="path11548" d="M0,0A12.246,12.246,0,0,0-11.952-9.588,12.244,12.244,0,0,0-24.2,2.656,12.244,12.244,0,0,0-11.952,14.9,12.248,12.248,0,0,0-.12,5.811" fill="none" stroke="#000" stroke-linecap="round" stroke-linejoin="round" stroke-miterlimit="10" stroke-width="2.49"/>
            </g>
            <g id="g11550" transform="translate(48.72 -42.5)">
              <path id="path11552" d="M0,0A7.364,7.364,0,0,1-7.364,7.364,7.364,7.364,0,0,1-14.728,0,7.364,7.364,0,0,1-7.364-7.364,7.364,7.364,0,0,1,0,0" fill="#fff"/>
            </g>
            <g id="g11554" transform="translate(48.72 -42.5)">
              <path id="path11556" d="M0,0A7.364,7.364,0,0,1-7.364,7.364,7.364,7.364,0,0,1-14.728,0,7.364,7.364,0,0,1-7.364-7.364,7.364,7.364,0,0,1,0,0Z" fill="none" stroke="#000" stroke-linecap="round" stroke-linejoin="round" stroke-miterlimit="10" stroke-width="2.49"/>
            </g>
            <g id="g11558" transform="translate(44.16 -42.5)">
              <path id="path11560" d="M0,0A2.8,2.8,0,0,1-2.8,2.8,2.8,2.8,0,0,1-5.608,0,2.8,2.8,0,0,1-2.8-2.8,2.8,2.8,0,0,1,0,0" fill="#af66da"/>
            </g>
            <g id="g11562" transform="translate(44.16 -42.5)">
              <path id="path11564" d="M0,0A2.8,2.8,0,0,1-2.8,2.8,2.8,2.8,0,0,1-5.608,0,2.8,2.8,0,0,1-2.8-2.8,2.8,2.8,0,0,1,0,0Z" fill="none" stroke="#000" stroke-linecap="round" stroke-linejoin="round" stroke-miterlimit="10" stroke-width="2.49"/>
            </g>
            <g id="g11566" transform="translate(83.755 -24.775)">
              <path id="path11568" d="M0,0A15.414,15.414,0,0,1-15.414,15.414,15.414,15.414,0,0,1-30.828,0,15.414,15.414,0,0,1-15.414-15.414,15.414,15.414,0,0,1,0,0" fill="#05e39c"/>
            </g>
            <g id="g11570" transform="translate(61.31 -24.775)">
              <path id="path11572" d="M0,0A15.421,15.421,0,0,1,11.222-14.837a15.424,15.424,0,0,0-4.192-.577A15.414,15.414,0,0,0-8.384,0,15.414,15.414,0,0,0,7.03,15.414a15.424,15.424,0,0,0,4.192-.577A15.421,15.421,0,0,1,0,0" fill="#0ed290"/>
            </g>
            <g id="g11574" transform="translate(80.833 -15.746)">
              <path id="path11576" d="M0,0A15.344,15.344,0,0,0,2.922-9.03,15.414,15.414,0,0,0-12.493-24.444,15.414,15.414,0,0,0-27.907-9.03,15.414,15.414,0,0,0-12.493,6.385a15.342,15.342,0,0,0,8.261-2.4" fill="none" stroke="#000" stroke-linecap="round" stroke-linejoin="round" stroke-miterlimit="10" stroke-width="2.49"/>
            </g>
            <g id="g11578" transform="translate(61.353 -26.009)">
              <path id="path11580" d="M0,0,5.755,5.755l8.426-8.426" fill="none" stroke="#000" stroke-linecap="round" stroke-linejoin="round" stroke-miterlimit="10" stroke-width="2.49"/>
            </g>
          </g>
        </g>
      </g>
    </g>
  </g>
</svg>
