<svg id="img16" xmlns="http://www.w3.org/2000/svg" xmlns:xlink="http://www.w3.org/1999/xlink" width="295" height="270.909" viewBox="0 0 295 270.909">
  <defs>
    <clipPath id="clip-path">
      <rect id="Rectángulo_403432" data-name="Rectángulo 403432" width="295" height="270.909" fill="none"/>
    </clipPath>
    <clipPath id="clip-path-3">
      <rect id="Rectángulo_403429" data-name="Rectángulo 403429" width="251.577" height="10.069" fill="none"/>
    </clipPath>
  </defs>
  <g id="Grupo_1102051" data-name="Grupo 1102051" clip-path="url(#clip-path)">
    <g id="Grupo_1102050" data-name="Grupo 1102050">
      <g id="Grupo_1102049" data-name="Grupo 1102049" clip-path="url(#clip-path)">
        <g id="Grupo_1102048" data-name="Grupo 1102048" transform="translate(16.107 260.839)" style="mix-blend-mode: multiply;isolation: isolate">
          <g id="Grupo_1102047" data-name="Grupo 1102047">
            <g id="Grupo_1102046" data-name="Grupo 1102046" clip-path="url(#clip-path-3)">
              <path id="Trazado_913169" data-name="Trazado 913169" d="M269.5,295.343c0,2.781-56.317,5.035-125.788,5.035s-125.788-2.254-125.788-5.035,56.317-5.035,125.788-5.035S269.5,292.562,269.5,295.343" transform="translate(-17.927 -290.309)" fill="#d3dddd"/>
            </g>
          </g>
        </g>
        <path id="Trazado_913170" data-name="Trazado 913170" d="M185.785,214.557a24.374,24.374,0,1,1-24.374-24.373,24.374,24.374,0,0,1,24.374,24.373" transform="translate(-13.911 -19.306)" fill="#73c8e2"/>
        <path id="Trazado_913171" data-name="Trazado 913171" d="M147.5,0A198.5,198.5,0,0,0,0,65.6L17.1,84.442a173.36,173.36,0,0,1,260.8,0L295,65.6A198.5,198.5,0,0,0,147.5,0" fill="#73c8e2"/>
        <path id="Trazado_913172" data-name="Trazado 913172" d="M151.807,62.763A142.347,142.347,0,0,0,42.431,113.98l17.2,18.958a117.133,117.133,0,0,1,184.349,0l17.2-18.956A142.343,142.343,0,0,0,151.807,62.763" transform="translate(-4.307 -6.371)" fill="#73c8e2"/>
        <path id="Trazado_913173" data-name="Trazado 913173" d="M156.155,125.525a86.148,86.148,0,0,0-70.89,37.24l17.663,19.466a60.826,60.826,0,0,1,106.454,0l17.662-19.466a86.146,86.146,0,0,0-70.89-37.241" transform="translate(-8.655 -12.742)" fill="#73c8e2"/>
        <path id="Trazado_913174" data-name="Trazado 913174" d="M251.286,288.331a12.064,12.064,0,0,1,.728,4.387c-.376,1.048-1.778,1.8-4.409,2.995s-11.764,4.268-13.263.674,3.41-3.633,5.542-4.342A25.183,25.183,0,0,0,247,288.331Z" transform="translate(-23.76 -29.269)" fill="#1e1e1e"/>
        <path id="Trazado_913175" data-name="Trazado 913175" d="M257.639,289.232a6.52,6.52,0,0,0-1.112,3.916c0,2.545-1.423,6.065,4.942,5.84,4.492-.225,4.2-3.265.762-9.756a7.613,7.613,0,0,0-4.591,0" transform="translate(-26.027 -29.324)" fill="#1e1e1e"/>
        <path id="Trazado_913176" data-name="Trazado 913176" d="M258.058,141.016s-.155,2.637-.058,3.536S261.147,146,261.147,146s-2.3,8.765-7.809,8.9c-4.965-2.018-5.654-8.011-5.27-9.156a8.229,8.229,0,0,0,3.442-1.011c.428-.414.275-3.085.275-3.085Z" transform="translate(-25.173 -14.315)" fill="#ffc384"/>
        <path id="Trazado_913177" data-name="Trazado 913177" d="M269.132,226.963s-.892,11.834-1.369,14.517.391,4.46-5.5,39.089a12.672,12.672,0,0,0,1.116,5.919c-1.247,1.947-5.014,2.233-5.562.315s-.6-1.8.014-4.224a22.847,22.847,0,0,0,1.07-5.306c-.037-1.274-.03-12.573.2-16.217s.6-11.9.76-14.555.054-16.955.054-16.955Z" transform="translate(-26.128 -23.039)" fill="#ffc384"/>
        <path id="Trazado_913178" data-name="Trazado 913178" d="M243.563,227.588s.733,10.668,1.005,13.38.255,4.515,3.486,39.493c.07,2.67-3.677,3.5-4.934,4.511,1.1,2.037,2.072,1.895,4.009,1.411,2.246-.562,5.621-1.119,5.189-3.58a22.874,22.874,0,0,1-.663-5.373c.135-1.267,2.28-17.49,2.325-21.14s-1.762-11.224-1.716-13.887.805-12.112.805-12.112Z" transform="translate(-24.68 -23.103)" fill="#ffc384"/>
        <path id="Trazado_913179" data-name="Trazado 913179" d="M246.32,146.173s-5.636,1.413-7.384,2.137-7.9,8.784-8.964,10.213l6.094,6.118,2.819-3.287s-.51,7.145,1.771,9.265c.789,1.287,1.14,8.121.872,10.316s22.308,1.985,22.308,1.985-2.185-8.725-.607-12.511a16.322,16.322,0,0,0,.969-9.591l5,5.406s4.682-4.988,5.483-6.254c-4.083-5.161-8.351-9.651-9.6-10.945s-3.9-2.146-5.977-2.643c-.261,1.847-4.268,6.239-7.368,8.271-5.342-2.46-5.418-8.48-5.418-8.48" transform="translate(-23.345 -14.838)" fill="#e7e7e9"/>
        <path id="Trazado_913180" data-name="Trazado 913180" d="M247.513,146.091s-2.145,10.44-1.94,13.916c5.169-.219,13.064-.476,13.064-.476s.288-11.136,1.709-13.153a4.711,4.711,0,0,1,2.081.547s-2.177,6.9-1.405,12.775c.909.146,1.572,2.033,1.525,4.979s1.5,17.177,4.763,23.6c3.808,7.488,3.5,13.328,1.459,33.22-13.772,3.421-27.8-.64-27.8-.64s-1.532-13.171-1.532-22.969c0-7.83,1.325-9.737,2.206-12.884a61.674,61.674,0,0,0,1.17-10.456,80.581,80.581,0,0,0-.624-10.528c-.319-1.74-.176-3.359.81-3.574.1-2.6,1.131-13.028,2.571-13.926.137-.084,1.945-.431,1.945-.431" transform="translate(-24.305 -14.83)" fill="#574d58"/>
        <path id="Trazado_913181" data-name="Trazado 913181" d="M276.714,163.069s5.63,6.295,6.646,7.787-.746,4.076-3.926,7.453-7.453,7.257-7.722,7.817-.694,2.488-1.746,1.873-2.325-1.227-3.051-.5-1.763,1.577-2.522,1.5-.8-.447-.6-.465,2.9-2.492,3.448-2.483a2.277,2.277,0,0,0-1.086-.755c-.334-.05-3.452,2.222-4.456,1.207a1.637,1.637,0,0,1,.51-.643s-.96.267-1.234-.215a16.9,16.9,0,0,1,3.343-2.722,2.555,2.555,0,0,1,1.845.007,1.281,1.281,0,0,0-.939-.948c-.369-.028-2.8,1.5-3.582,1.417s-1.078-.517-.924-.622,2.865-1.343,3.565-1.7a1.758,1.758,0,0,1,2.531.454c.85,1.164,2.62,1.713,3.256,1.4s7.73-10.052,7.73-10.052l-4.607-5.873Z" transform="translate(-26.462 -16.553)" fill="#ffc384"/>
        <path id="Trazado_913182" data-name="Trazado 913182" d="M262.875,142.907s-3.686-5.463-18.784-.306c-2.75-4.056-1.852-11.643-1.852-11.643l25.086-2.052Z" transform="translate(-24.576 -13.085)" fill="#934016"/>
        <path id="Trazado_913183" data-name="Trazado 913183" d="M263.993,127.772s-.489,12.752-11.181,12.485c-6.941-.208-9.345-8.13-9.345-8.13a3.75,3.75,0,0,1-2.941-3.706c-.228-3.288,1.1-4.3,1.928-3.16a11.707,11.707,0,0,1,.834-5.146s15.167-3.787,17.141-3.943,3.563,11.6,3.563,11.6" transform="translate(-24.413 -11.793)" fill="#ffc384"/>
        <path id="Trazado_913184" data-name="Trazado 913184" d="M251.3,135.753l-.271,0s3.322,6.341,6.847.111l-.267,0c-2.832,4.515-5.476,1.189-6.309-.1" transform="translate(-25.483 -13.78)" fill="#ce823e"/>
        <path id="Trazado_913185" data-name="Trazado 913185" d="M260.7,117.568s.042,8.915,1.288,13.158-.56,11.157-3.194,11.676c5.057.645,11-1.322,9.784-13.165s-4.686-17.529-7.235-16.631c-2.474-3.606-15.118-4.94-19.435.808s-7.876,28.4,5.054,29.546c-1.762-1.25-4.211-9.357-3.754-11.51a4.446,4.446,0,0,1-2.747-4.172c0-2.014.925-3.457,1.681-2.342a8.638,8.638,0,0,1,1.005,3.089l.332-5.976s7.117-.588,11.307-2.913a12.6,12.6,0,0,1-4.19,2.325s6.944.049,10.1-3.894" transform="translate(-24.155 -11.116)" fill="#c57037"/>
        <path id="Trazado_913186" data-name="Trazado 913186" d="M259.381,129.4c-.013.789.356,1.437.822,1.444s.854-.627.868-1.416-.356-1.437-.821-1.445-.855.626-.869,1.417" transform="translate(-26.33 -12.992)" fill="#934016"/>
        <path id="Trazado_913187" data-name="Trazado 913187" d="M247.984,129.219c-.013.789.354,1.437.819,1.443s.855-.627.869-1.416-.356-1.436-.822-1.444-.853.626-.866,1.417" transform="translate(-25.173 -12.973)" fill="#934016"/>
        <path id="Trazado_913188" data-name="Trazado 913188" d="M262.88,125.405s-.527-2.189-2.482-1.73c-1.556.468-1.553,1.757-.99,1.674s.718-.83,1.575-.854a1.975,1.975,0,0,1,1.9.909" transform="translate(-26.298 -12.548)" fill="#c57037"/>
        <path id="Trazado_913189" data-name="Trazado 913189" d="M246.542,125.139s.6-2.172,2.536-1.647c1.541.518,1.5,1.807.935,1.7s-.691-.853-1.545-.9a1.972,1.972,0,0,0-1.925.846" transform="translate(-25.027 -12.528)" fill="#c57037"/>
        <path id="Trazado_913190" data-name="Trazado 913190" d="M215.61,154.092l9.462,12.352,4.158-6.1,3.97,4.013s-4.721,6.229-5.97,7.454c-4.793,4.7-10.671-9.414-14.853-16.149Z" transform="translate(-21.559 -15.642)" fill="#ffc384"/>
        <path id="Trazado_913191" data-name="Trazado 913191" d="M215.146,153.4a7.68,7.68,0,0,1,.026-2.343c.206-1.454-1.624-3.448-2.483-4.24s-4.2-2.577-4.313-2.3-2.624,1.685-1.709,4.354c.564,1.645,4.624,4.793,5.279,6.094.8,1.58,3.2-1.568,3.2-1.568" transform="translate(-20.959 -14.667)" fill="#ffc384"/>
        <path id="Trazado_913192" data-name="Trazado 913192" d="M204.335,139.341l.54-.406,9.187,11.253-.541.405-2.622,1.163Z" transform="translate(-20.742 -14.103)" fill="#e0e0e0"/>
        <path id="Trazado_913193" data-name="Trazado 913193" d="M204.936,138.866l3.049-.615,6.138,11.867-2.622,1.161Z" transform="translate(-20.803 -14.034)" fill="#fcfcfc"/>
        <path id="Trazado_913194" data-name="Trazado 913194" d="M207.543,145.475s1.228-.6,1.742-.106-.139.622-.139.622.838.252.677.778a.432.432,0,0,1-.353.212s.635.32.719.648-.12.451-.331.427c.457.31.469.873.007.9a2.568,2.568,0,0,1-1.745-1.054c-.551-.662-1.176-1.978-.577-2.431" transform="translate(-21.043 -14.737)" fill="#ffc384"/>
        <path id="Trazado_913195" data-name="Trazado 913195" d="M215.432,150.028a14.34,14.34,0,0,0-1.2-2.2c-.79-1.2-2.9-1.685-3.2-1.758-.33.107-.071,1.081.826,1.461a5.348,5.348,0,0,1,2.008,1.659,3.07,3.07,0,0,0,1.563.838" transform="translate(-21.408 -14.828)" fill="#ffc384"/>
        <path id="Trazado_913196" data-name="Trazado 913196" d="M59.945,170.578s-3.426,4.8-5.5,7.715-3.989,8.491,3.632,7.831a11.356,11.356,0,0,0,2.358-6.2l1.592-1.544,1.4-5.064Z" transform="translate(-5.339 -17.316)" fill="#ffc384"/>
        <path id="Trazado_913197" data-name="Trazado 913197" d="M67.587,160.749s-7.75,7.974-8.5,8.5a25.142,25.142,0,0,0,6.208,5.885l3.781-1.243Z" transform="translate(-5.998 -16.318)" fill="#f2416b"/>
        <path id="Trazado_913198" data-name="Trazado 913198" d="M132.879,174.7a4.463,4.463,0,0,0,2.53-1.455c1.316-1.353,1.11-2.029,2.409-3.067s2.911-2.131,3.275-1.508-.468.882-1.066,1.273-.6.676-.624.883a29.259,29.259,0,0,0,5.225-2.339c.623-.468,1.338.168.714.728.546-.312,1.779.078.584,1.144.391-.026,1.145.39-.441,1.4.389-.051.832.13,0,.937a14.565,14.565,0,0,1-5.952,3.222,19.826,19.826,0,0,0-4.887,1.794Z" transform="translate(-13.489 -17.087)" fill="#ffc384"/>
        <path id="Trazado_913199" data-name="Trazado 913199" d="M97.056,168.016a5.479,5.479,0,0,0,1.56,2.975c1.426,1.553,6.462,7.662,9.962,9.76,2.047,1.227,12.866.2,22.365-3.97l-1.107-3.193a43.22,43.22,0,0,1-12.557,1.4c-7.538-.306-8.286-1.306-8.642-1.747-3.315-4.1-7.148-11.737-9.922-13.918-3.007-1.4-2.548,3.032-1.659,8.69" transform="translate(-9.784 -16.147)" fill="#ffc384"/>
        <path id="Trazado_913200" data-name="Trazado 913200" d="M95.573,114.64a5.633,5.633,0,1,1-5.607-6.183,5.915,5.915,0,0,1,5.607,6.183" transform="translate(-8.563 -11.01)" fill="#7c3212"/>
        <path id="Trazado_913201" data-name="Trazado 913201" d="M53.956,281.536s-2.841,4.887-4.2,5.512c1.306,1.819,7.615,1.421,7.615,1.421l.284-5.342Z" transform="translate(-5.05 -28.579)" fill="#ffc384"/>
        <path id="Trazado_913202" data-name="Trazado 913202" d="M90.477,281.492v4.434H85.959v-4.831Z" transform="translate(-8.726 -28.534)" fill="#ffc384"/>
        <path id="Trazado_913203" data-name="Trazado 913203" d="M67.421,205.076s-4.284,32.049-6.158,38.017c-1.509,4.8-5.227,22.205-6.792,28.943a14.129,14.129,0,0,1-1.043,2.927l4.556.865s2.6-11.6,6.006-16.031,5.284-12.273,5.455-16.194c1.192-4.6,8.887-27.744,8.887-28.255a8.9,8.9,0,0,1,1.148-2.238s1.557,25.208,1.9,29.044,0,6.9,0,11.593,1.279,20.334,1.279,20.334l4.518.51s2.622-18.844,2.366-23.02-.491-6.86-.662-9.417,7.779-39.124,1.3-38.782c-5-3.182-22.758,1.7-22.758,1.7" transform="translate(-5.424 -20.535)" fill="#ffc384"/>
        <path id="Trazado_913204" data-name="Trazado 913204" d="M91.281,203.314c-5-3.182-22.823-.579-22.823-.579s-2.614,10.734-4.172,20.865l13.224,2.782c.562-3.265,2.284-10.281,2.284-10.511,0-.512.668-.219.668-.219s-.191,7.284-.191,10.731H93.827c1.66-11.138,1.391-23.274-2.545-23.067" transform="translate(-6.526 -20.478)" fill="#143068"/>
        <path id="Trazado_913205" data-name="Trazado 913205" d="M85.98,149.892v5.882l2.728.766s-.767,11.849-8.354,11.935-10.739-1.023-10.058-3.41a60.181,60.181,0,0,1,2.473-6.308l5.369-2.3.256-5.882Z" transform="translate(-7.127 -15.216)" fill="#f4b67d"/>
        <path id="Trazado_913206" data-name="Trazado 913206" d="M86.756,156.814s8.429,1.367,9.793,2.561,6.594,8.875,6.594,8.875l-7.029,5.133L94.1,171.172s-4.965,4.995-5.818,7.977a15.818,15.818,0,0,0,2.159,12.843c3.182,4.887,3.562,7.957,3.562,7.957s-7.874,2.343-14.289,2.331c-9.27-.02-11.62-2.651-11.62-2.651s.572-16.273,1.686-20.479c-2.637-2.727-5.479-7.5-2.524-13.069-.113-1.933-.151-4.963.659-5.73s7.011-2,7.011-2-2.755,9.248.74,9.163,11.09-10.7,11.09-10.7" transform="translate(-6.7 -15.918)" fill="#f2416b"/>
        <path id="Trazado_913207" data-name="Trazado 913207" d="M49.979,286.11s3.43,2.355,6.271.65c.4,3.346.4,8.6.4,8.6H38.177s-1.988-4.433,1.535-4.944,4.546.285,5.682-.966a29.934,29.934,0,0,1,4.586-3.335" transform="translate(-3.819 -29.043)" fill="#e2e2e2"/>
        <path id="Trazado_913208" data-name="Trazado 913208" d="M46.22,289.493c.016-.017.031-.03.048-.048a29.957,29.957,0,0,1,4.585-3.335,7.255,7.255,0,0,0,.788.447l-3.772,4.079Z" transform="translate(-4.692 -29.043)" fill="#a3a3a3"/>
        <path id="Trazado_913209" data-name="Trazado 913209" d="M56.6,293.238c.014,1.644.043,2.841.043,2.841H38.178a6.664,6.664,0,0,1-.543-2.841Z" transform="translate(-3.819 -29.767)" fill="#1e1e1e"/>
        <path id="Trazado_913210" data-name="Trazado 913210" d="M94.615,295.594H84.109v-3.837c0-1.278,1.662-6.3,1.662-6.344.938-.048,4.518,0,4.518,0a33.981,33.981,0,0,0,2.941,4.3c.895.852,1.621,2.9,1.385,5.882" transform="translate(-8.538 -28.971)" fill="#e2e2e2"/>
        <path id="Trazado_913211" data-name="Trazado 913211" d="M86.233,289.883l.515-4.487c.895-.009,2.2,0,3.01.01l1.163,4.452Z" transform="translate(-8.754 -28.971)" fill="#a3a3a3"/>
        <path id="Trazado_913212" data-name="Trazado 913212" d="M94.444,293.048a11.7,11.7,0,0,1,.171,3.324H84.109v-3.324Z" transform="translate(-8.538 -29.748)" fill="#1e1e1e"/>
        <path id="Trazado_913213" data-name="Trazado 913213" d="M93.255,136.707s-.291,13.2-11.352,13.1c-7.181-.1-9.8-8.248-9.8-8.248a3.879,3.879,0,0,1-3.1-3.784c-.291-3.4,1.067-4.463,1.94-3.3-.291-2.814,1.394-8.283,1.394-8.283s15-1.226,17.043-1.421,3.881,11.936,3.881,11.936" transform="translate(-7 -12.665)" fill="#ffc384"/>
        <path id="Trazado_913214" data-name="Trazado 913214" d="M95.208,136s.617-1.6,1.572-1.475,1.572,4.227.337,6.248-2.246,1.854-2.471,1.292.562-6.065.562-6.065" transform="translate(-9.604 -13.655)" fill="#ffc384"/>
        <path id="Trazado_913215" data-name="Trazado 913215" d="M87.049,145.212H79.965s3.542,6.5,7.084,0" transform="translate(-8.117 -14.741)" fill="#fff"/>
        <path id="Trazado_913216" data-name="Trazado 913216" d="M88.494,138.509c0,.817.391,1.48.873,1.48s.873-.663.873-1.48-.391-1.481-.873-1.481-.873.663-.873,1.481" transform="translate(-8.983 -13.91)" fill="#934016"/>
        <path id="Trazado_913217" data-name="Trazado 913217" d="M76.7,138.509c0,.817.391,1.48.873,1.48s.873-.663.873-1.48-.391-1.481-.873-1.481-.873.663-.873,1.481" transform="translate(-7.786 -13.91)" fill="#934016"/>
        <path id="Trazado_913218" data-name="Trazado 913218" d="M92.043,134.312s-.582-2.257-2.6-1.746c-1.6.509-1.577,1.842-.995,1.746s.728-.87,1.614-.908a2.041,2.041,0,0,1,1.977.908" transform="translate(-8.942 -13.449)" fill="#c57037"/>
        <path id="Trazado_913219" data-name="Trazado 913219" d="M75.145,134.312s.582-2.257,2.6-1.746c1.6.509,1.576,1.842.995,1.746s-.729-.87-1.614-.908a2.041,2.041,0,0,0-1.977.908" transform="translate(-7.628 -13.449)" fill="#c57037"/>
        <path id="Trazado_913220" data-name="Trazado 913220" d="M77.527,124.951s6.475.8,8.484-.181,4.041,1.4,4.491,2.222-.895,3.81.562,4.536,1.074,4.3.939,6.125c.345-2.862,2.093-4.466,3.065-2.164,2.005-10.389.9-17.857-7.82-20.553s-16.579.808-18.427,6.289c-1.5,4.439-1.73,12.614,0,14.563a12.811,12.811,0,0,1,.323-1.89c.358-1.017,1.553-.169,1.815.992s.562,2.763.562,2.763a43.728,43.728,0,0,1,.262-4.784c.225-.973,2.172-3.331,1.8-4.529s1.9-4.529,3.947-3.388" transform="translate(-6.863 -11.573)" fill="#934016"/>
        <path id="Trazado_913221" data-name="Trazado 913221" d="M65.238,157.247l-.932.824L82.341,193.13l.932-.824,5.106-31.28Z" transform="translate(-6.528 -15.962)" fill="#eaeaea"/>
        <rect id="Rectángulo_403430" data-name="Rectángulo 403430" width="31.694" height="23.448" transform="matrix(0.161, -0.987, 0.987, 0.161, 52.672, 173.39)" fill="#fcfcfc"/>
        <path id="Trazado_913222" data-name="Trazado 913222" d="M72.989,173.5a1.1,1.1,0,0,1,.351.624,1.126,1.126,0,0,1-.931,1.291,1.1,1.1,0,0,1-.715-.142,2.31,2.31,0,0,0,.005.417,5.374,5.374,0,0,1-1.1-.485c-.225.073.058.355.058.355a1.636,1.636,0,0,0,1.068.366.263.263,0,0,0,.009.031h-.013s-.809,1.722-.394,2.243a1.66,1.66,0,0,0,.766-1.44,2.173,2.173,0,1,0,1.41-3.416,2.1,2.1,0,0,0-.513.157" transform="translate(-7.158 -17.593)" fill="#686868"/>
        <path id="Trazado_913223" data-name="Trazado 913223" d="M58.445,162.737c-.281-1.676-.292-1.213,0,0" transform="translate(-5.911 -16.409)" fill="#fab490"/>
        <path id="Trazado_913224" data-name="Trazado 913224" d="M86.11,172.875c.49,1.741-1.692,1.955-2.548,2.185.026-.208.027-.493.625-.883s1.43-.646,1.067-1.27-1.976.464-3.277,1.5-1.094,1.713-2.412,3.063a5.163,5.163,0,0,1-1.9,1.281,43.059,43.059,0,0,1-12.532,1.377c-4.139-.181-4.38-.253-4.4-.389,0-.009.008-.019.009-.029-1.543,2.208-2.366,4.419-2.059,6.629,4.142.221,12.541-1.093,20.109-4.4a19.8,19.8,0,0,1,4.89-1.788,6.92,6.92,0,0,0,3.8-1.624c1.385-1.805-.14-5.711-1.377-5.656" transform="translate(-5.951 -17.533)" fill="#ffc384"/>
        <path id="Trazado_913225" data-name="Trazado 913225" d="M125.414,252.405s-5.758-.916-3.969,3c1.989,4.353,8.555,10.206,11.83,12.022,2.168,1.2,8.725-4.766,15.777-9.413a6.079,6.079,0,0,1,2.208-.18c1.207.6,1.015.361,3.019-.355-1.665-2.708-5.808-3.642-6.674-3.181-3.954,2.109-12.273,8.133-12.936,7.908-.8-.275-5.7-7.414-9.255-9.8" transform="translate(-12.293 -25.613)" fill="#efac70"/>
        <path id="Trazado_913226" data-name="Trazado 913226" d="M191.915,287.4a9.751,9.751,0,0,1,2.694,1.65c.735.958.732,2.921,1.246,3.537.9,1.084,12.528.073,14.73.237s4.238-2.953,1.34-3.268-13.39-2.48-15.889-5.545c-1.548-1.9-4.12,3.388-4.12,3.388" transform="translate(-19.482 -28.788)" fill="#ffc384"/>
        <path id="Trazado_913227" data-name="Trazado 913227" d="M212.229,289.967a64.476,64.476,0,0,1-9.537-2.3c-1.083,2.755-4.317,2.437-7.777,1.788A8.018,8.018,0,0,0,196.159,293c.9,1.084,12.529.072,14.731.237s4.238-2.953,1.339-3.268" transform="translate(-19.786 -29.202)" fill="#333"/>
        <path id="Trazado_913228" data-name="Trazado 913228" d="M141.1,274.738s17.1-14.787,20.324-15.525,12.965,8.694,28.6,23.089c-2.83.848-4.819,4.286-4.819,4.286s-23.83-11.712-23.991-15.134c-7.667,10.69-19.992,18.553-21.583,18.983-23.377,6.315-20.8-14.365-20.8-14.365Z" transform="translate(-12.054 -26.309)" fill="#3d2f31"/>
        <path id="Trazado_913229" data-name="Trazado 913229" d="M196,292.976s14.952.856,17.723-1.246c.421,1.242-.057,2.731-.815,2.944-3.342.939-14.089.871-16.432.737a1.939,1.939,0,0,1-.475-2.435" transform="translate(-19.872 -29.614)" fill="#fff"/>
        <path id="Trazado_913230" data-name="Trazado 913230" d="M136.431,261.13l14.675.706,18.4-2.842-12.435-1.148Z" transform="translate(-13.849 -26.174)" fill="#848484"/>
        <path id="Trazado_913231" data-name="Trazado 913231" d="M184.776,288.774a9.71,9.71,0,0,1,2.7,1.728c.735,1,.733,3.06,1.248,3.706.9,1.136,12.542.076,14.746.248s4.244-3.094,1.342-3.422-13.405-2.6-15.908-5.811c-1.55-1.989-4.126,3.551-4.126,3.551" transform="translate(-18.757 -28.91)" fill="#ffc384"/>
        <path id="Trazado_913232" data-name="Trazado 913232" d="M205.114,291.467a62.122,62.122,0,0,1-9.548-2.405c-1.084,2.887-4.324,2.553-7.788,1.873a8.644,8.644,0,0,0,1.248,3.706c.9,1.137,12.542.076,14.746.248s4.245-3.093,1.342-3.422" transform="translate(-19.062 -29.343)" fill="#333"/>
        <path id="Trazado_913233" data-name="Trazado 913233" d="M133.906,275.514s18.535-15.479,21.764-16.253,11.564,9.1,27.22,24.177c-2.833.89-4.823,4.491-4.823,4.491s-21.829-12.376-21.991-15.962c-7.677,11.2-21.6,20.08-23.19,20.53-23.4,6.617-21.274-15.586-21.274-15.586Z" transform="translate(-11.325 -26.314)" fill="#493a3d"/>
        <path id="Trazado_913234" data-name="Trazado 913234" d="M188.871,294.62s14.97.9,17.745-1.3c.421,1.3-.058,2.86-.814,3.083-3.35.984-14.108.914-16.455.774a2.1,2.1,0,0,1-.476-2.552" transform="translate(-19.148 -29.775)" fill="#fff"/>
        <path id="Trazado_913235" data-name="Trazado 913235" d="M121.481,228.014s.9,1.964-1.757,5.034a18.7,18.7,0,0,0,8.3,3.581s.148-6.217.96-7.263c-2.939-.542-7.5-1.352-7.5-1.352" transform="translate(-12.153 -23.146)" fill="#f4b276"/>
        <path id="Trazado_913236" data-name="Trazado 913236" d="M116.4,216.147s.27,12.252,10.539,12.161c6.667-.091,9.1-7.658,9.1-7.658a3.6,3.6,0,0,0,2.882-3.513c.271-3.153-.989-4.144-1.8-3.062a11.25,11.25,0,0,0-.721-4.955s-14.5-3.872-16.395-4.054-3.6,11.081-3.6,11.081" transform="translate(-11.816 -20.816)" fill="#ffc384"/>
        <path id="Trazado_913237" data-name="Trazado 913237" d="M123.972,224.042h6.577s-3.288,6.036-6.577,0" transform="translate(-12.585 -22.743)" fill="#fff"/>
        <path id="Trazado_913238" data-name="Trazado 913238" d="M123.19,217.82c0,.758-.363,1.374-.81,1.374s-.811-.615-.811-1.374.364-1.374.811-1.374.81.614.81,1.374" transform="translate(-12.341 -21.972)" fill="#934016"/>
        <path id="Trazado_913239" data-name="Trazado 913239" d="M134.136,217.82c0,.758-.363,1.374-.811,1.374s-.811-.615-.811-1.374.364-1.374.811-1.374.811.614.811,1.374" transform="translate(-13.452 -21.972)" fill="#934016"/>
        <path id="Trazado_913240" data-name="Trazado 913240" d="M119.663,213.924s.542-2.1,2.41-1.623c1.487.474,1.465,1.713.924,1.623s-.676-.808-1.5-.844a1.9,1.9,0,0,0-1.836.844" transform="translate(-12.147 -21.544)" fill="#7e2527"/>
        <path id="Trazado_913241" data-name="Trazado 913241" d="M135.351,213.924s-.541-2.1-2.41-1.623c-1.486.474-1.463,1.713-.922,1.623s.676-.808,1.5-.844a1.893,1.893,0,0,1,1.836.844" transform="translate(-13.367 -21.544)" fill="#7e2527"/>
        <path id="Trazado_913242" data-name="Trazado 913242" d="M139,215.4s.5-1.25,1.588-.945.912,3.925,0,5.424-1.892,2.176-2.568,1.568.98-6.047.98-6.047" transform="translate(-13.994 -21.765)" fill="#ffc384"/>
        <path id="Trazado_913243" data-name="Trazado 913243" d="M116.493,215.4s-.507-1.25-1.589-.945-.911,3.925,0,5.424,1.892,2.176,2.568,1.568-.979-6.047-.979-6.047" transform="translate(-11.588 -21.765)" fill="#ffc384"/>
        <path id="Trazado_913244" data-name="Trazado 913244" d="M119.828,205.9a31.234,31.234,0,0,1-2.168,4.9,15.222,15.222,0,0,0-.435,5.138c.142.63-.951,0-.951,0s.329-2.867-.491-3.5c-1.36-3.2-2.925-14.715,1.877-14.309.479-3.514,11.23-5.54,14.638-3.784s5.291,1.486,6.713.54c-.332,2.3-1.144,3.288-2.449,3.333a3.628,3.628,0,0,0,3.557.316c-.359,1.261-.855,1.89-1.935,1.936.359.405,1.485.18,1.667.09-.226.81-.466,1.082-1.09,1.217,1.27.405,1.359,2.352,1.359,3.182s-1.914,7.393-1.914,7.393-1.1.015-1.266.742-.034,1.757-.187,1.977-.642.053-.642.053a12.535,12.535,0,0,1-.315-3.662c.225-1.306-.766-1.712-1.261-3.017s-4.414.945-6.306-.586a2.583,2.583,0,0,0,2.447,1.306c-1.322.676-4.386.135-5.917-2.568a3.817,3.817,0,0,0,1.261,2.613s-4.82-.5-6.193-3.311" transform="translate(-11.614 -19.663)" fill="#964c1a"/>
        <path id="Trazado_913245" data-name="Trazado 913245" d="M133.484,272.738c-.21-1.774-1.686-5.132-1.844-6.26-.461-3.315-.893-13.441-1.849-19.539-.423-2.7-1.579-8.978-2.523-10.28-4.369-.405-6.351-2.162-7.959-4.785-2.215,2.573-5.589,1.452-7.719,5.678-2.43,5.034-2.663,10.7-2.4,14.671.295,4.4-1.9,18.253-1.792,24.651,6.934,1.822,19.26-2.281,26.084-4.138" transform="translate(-10.902 -23.538)" fill="#67aa3c"/>
        <path id="Trazado_913246" data-name="Trazado 913246" d="M119.193,246.633s-5.251-2.536-4.666,1.729c.651,4.741,5.25,12.239,7.862,14.921,1.73,1.776,9.729-2.047,17.821-4.463.263-.078,1.9.5,2.166.465,3.548-.4,7.294-2.06,9.419-2.169.031-.61-1.057-3.063-6.547-3.977-.315-.051-4.389,1.513-5.353,1.706-4.393.879-14.1,4.249-14.664,3.842-.69-.5-3.325-8.744-6.037-12.054" transform="translate(-11.621 -24.96)" fill="#ffc384"/>
        <path id="Trazado_913247" data-name="Trazado 913247" d="M118.433,241.991s-3.616-5.53-5.854-1.852c-2.527,4.156-.766,10.936,1.794,15.2l8.792-3.073c-.487-3.268-3.23-7.779-4.732-10.273" transform="translate(-11.303 -24.249)" fill="#6fc13a"/>
        <path id="Trazado_913248" data-name="Trazado 913248" d="M169.069,234.312l-9.67,21.145,12.434,1.148,9.062-19.239Z" transform="translate(-16.181 -23.785)" fill="#e2e2e2"/>
      </g>
    </g>
  </g>
</svg>
