<svg xmlns="http://www.w3.org/2000/svg" xmlns:xlink="http://www.w3.org/1999/xlink" width="85.051" height="85" viewBox="0 0 85.051 85">
  <defs>
    <clipPath id="clip-path">
      <rect id="Rectángulo_405143" data-name="Rectángulo 405143" width="85" height="85" transform="translate(337.051 4634)" fill="#fff" stroke="#707070" stroke-width="1"/>
    </clipPath>
  </defs>
  <g id="img15" transform="translate(-337.051 -4634)">
    <circle id="Elipse_11561" data-name="Elipse 11561" cx="42.5" cy="42.5" r="42.5" transform="translate(337.102 4634)" fill="#692cb7"/>
    <g id="Enmascarar_grupo_1098779" data-name="Enmascarar grupo 1098779" clip-path="url(#clip-path)">
      <g id="eficiencia" transform="translate(330.53 4626.718)">
        <g id="Grupo_1104039" data-name="Grupo 1104039">
          <path id="Trazado_925011" data-name="Trazado 925011" d="M47.971,8.343A27.665,27.665,0,0,0,21.532,36.3,26.921,26.921,0,0,0,31.7,57.58a14.02,14.02,0,0,1,5.314,10.926v2.06H61.006V68.442a14,14,0,0,1,5.292-10.9A26.939,26.939,0,0,0,76.486,36.3C76.469,20.5,63.609,7.756,47.971,8.343Z" fill="#b8eef8"/>
          <path id="Trazado_925012" data-name="Trazado 925012" d="M52.341,91.22H45.678A2.124,2.124,0,0,1,43.554,89.1V75.922H54.465V89.1A2.124,2.124,0,0,1,52.341,91.22Z" fill="#afb7bb"/>
          <path id="Trazado_925013" data-name="Trazado 925013" d="M56.759,85.5H41.26a4.248,4.248,0,0,1-4.248-4.248V69.107H61.007V81.248A4.26,4.26,0,0,1,56.759,85.5Z" fill="#8d969d"/>
          <path id="Trazado_925014" data-name="Trazado 925014" d="M33.017,50.226l15.99,10.45v-20.9Z" fill="#ee302a"/>
          <g id="Grupo_1104038" data-name="Grupo 1104038">
            <g id="Grupo_1104037" data-name="Grupo 1104037">
              <g id="Grupo_1104031" data-name="Grupo 1104031">
                <path id="Trazado_925015" data-name="Trazado 925015" d="M49.009,45.433V57.115A21.127,21.127,0,0,0,64,50.908l-8.263-8.263a9.482,9.482,0,0,1-6.723,2.789Z" fill="#ff5e58"/>
              </g>
              <g id="Grupo_1104032" data-name="Grupo 1104032">
                <path id="Trazado_925016" data-name="Trazado 925016" d="M27.816,35.922H39.5A9.482,9.482,0,0,1,42.287,29.2l-8.263-8.263a21.127,21.127,0,0,0-6.207,14.986Z" fill="#019499"/>
              </g>
              <g id="Grupo_1104033" data-name="Grupo 1104033">
                <path id="Trazado_925017" data-name="Trazado 925017" d="M49.009,14.729a21.126,21.126,0,0,0-14.985,6.207L42.287,29.2a9.481,9.481,0,0,1,6.722-2.789h0V14.729Z" fill="#85aa18"/>
              </g>
              <g id="Grupo_1104034" data-name="Grupo 1104034">
                <path id="Trazado_925018" data-name="Trazado 925018" d="M58.521,35.922a9.482,9.482,0,0,1-2.789,6.722l8.263,8.263A21.126,21.126,0,0,0,70.2,35.922Z" fill="#f29c1f"/>
              </g>
              <g id="Grupo_1104035" data-name="Grupo 1104035">
                <path id="Trazado_925019" data-name="Trazado 925019" d="M49.009,14.729V26.411A9.483,9.483,0,0,1,55.732,29.2l8.263-8.263a21.128,21.128,0,0,0-14.986-6.207Z" fill="#9cc042"/>
              </g>
              <g id="Grupo_1104036" data-name="Grupo 1104036">
                <path id="Trazado_925020" data-name="Trazado 925020" d="M63.995,20.937,55.731,29.2a9.481,9.481,0,0,1,2.789,6.722H70.2A21.126,21.126,0,0,0,63.995,20.937Z" fill="#fcc62d"/>
              </g>
            </g>
          </g>
        </g>
        <g id="Grupo_1104040" data-name="Grupo 1104040">
          <path id="Trazado_925021" data-name="Trazado 925021" d="M47.932,7.282A28.727,28.727,0,0,0,20.471,36.3,27.832,27.832,0,0,0,31.034,58.409a12.911,12.911,0,0,1,4.916,10.1V73.5H34.7V75.62H35.95v3.055H34.7V80.8H35.95v.449a5.316,5.316,0,0,0,5.31,5.31h1.232V89.1a3.19,3.19,0,0,0,3.186,3.186h6.664A3.19,3.19,0,0,0,55.527,89.1V86.558h1.232a5.316,5.316,0,0,0,5.31-5.31V80.8h1.25V78.675h-1.25V75.62h1.25V73.5h-1.25V68.442a12.887,12.887,0,0,1,4.895-10.07A27.841,27.841,0,0,0,77.548,36.3c.493-9.186-6.67-28.663-29.617-29.018ZM53.4,89.1a1.063,1.063,0,0,1-1.062,1.062H45.678A1.063,1.063,0,0,1,44.616,89.1V86.557H53.4Zm6.542-7.848a3.19,3.19,0,0,1-3.186,3.186H41.26a3.19,3.19,0,0,1-3.186-3.186V80.8H59.945Zm0-2.572H38.074V75.62H59.945Zm0-5.179H38.074V70.169H59.945Zm5.688-16.78A15.01,15.01,0,0,0,59.95,68.045H38.066a15.035,15.035,0,0,0-5.7-11.294A25.744,25.744,0,0,1,22.594,36.3,26.61,26.61,0,0,1,48.011,9.4a25.963,25.963,0,0,1,19.118,7.321,26.957,26.957,0,0,1,8.3,19.574,25.753,25.753,0,0,1-9.791,20.417Z"/>
          <path id="Trazado_925022" data-name="Trazado 925022" d="M49.009,13.667A22.28,22.28,0,0,0,26.755,35.922a1.062,1.062,0,0,0,1.062,1.062H39.5a1.062,1.062,0,0,0,1.062-1.062A8.449,8.449,0,1,1,50.069,44.3V39.776a1.062,1.062,0,0,0-1.643-.889l-15.99,10.45a1.057,1.057,0,0,0,0,1.778l15.99,10.45a1.059,1.059,0,0,0,1.643-.889V58.151a22.255,22.255,0,0,0-1.06-44.484ZM38.489,34.86H28.906a20.052,20.052,0,0,1,5.145-12.395l6.774,6.774A10.523,10.523,0,0,0,38.489,34.86ZM47.948,25.4a10.523,10.523,0,0,0-5.622,2.334l-6.773-6.773a20.05,20.05,0,0,1,12.395-5.144Zm0,33.31L34.958,50.226l12.987-8.487ZM50.071,25.4V15.819a20.052,20.052,0,0,1,12.395,5.144l-6.773,6.773A10.525,10.525,0,0,0,50.071,25.4ZM57.2,29.238l6.773-6.773A20.051,20.051,0,0,1,69.112,34.86H59.529A10.524,10.524,0,0,0,57.2,29.238ZM50.071,56.025V46.442a10.524,10.524,0,0,0,5.621-2.336l6.774,6.773A20.053,20.053,0,0,1,50.071,56.025Zm13.9-6.647-6.773-6.773a10.524,10.524,0,0,0,2.334-5.621h9.583A20.051,20.051,0,0,1,63.968,49.379Z"/>
        </g>
      </g>
    </g>
  </g>
</svg>
