<svg xmlns="http://www.w3.org/2000/svg" xmlns:xlink="http://www.w3.org/1999/xlink" width="295" height="251.897" viewBox="0 0 295 251.897">
  <defs>
    <clipPath id="clip-path">
      <rect id="Rectángulo_404717" data-name="Rectángulo 404717" width="241.814" height="228.676" fill="none"/>
    </clipPath>
  </defs>
  <g id="img19" transform="translate(-600 -2727.152)">
    <rect id="Rectángulo_402941" data-name="Rectángulo 402941" width="295" height="163" rx="10" transform="translate(600 2816.05)" fill="#d7eed6"/>
    <g id="Grupo_1103756" data-name="Grupo 1103756" transform="translate(626.593 2727.152)">
      <rect id="Rectángulo_404614" data-name="Rectángulo 404614" width="51.47" height="20.557" transform="translate(0.008 58.314)" fill="#3c5366"/>
      <rect id="Rectángulo_404615" data-name="Rectángulo 404615" width="3.269" height="3.269" transform="translate(39.237 63.658)" fill="#4c9fd8"/>
      <rect id="Rectángulo_404616" data-name="Rectángulo 404616" width="3.269" height="3.269" transform="translate(33.496 63.658)" fill="#4c9fd8"/>
      <rect id="Rectángulo_404617" data-name="Rectángulo 404617" width="3.269" height="3.269" transform="translate(27.755 63.658)" fill="#4c9fd8"/>
      <g id="Grupo_1103755" data-name="Grupo 1103755">
        <g id="Grupo_1103754" data-name="Grupo 1103754" clip-path="url(#clip-path)">
          <path id="Trazado_924037" data-name="Trazado 924037" d="M53.637,133.292H64.36a2.014,2.014,0,1,0,0-4.028H53.637a2.014,2.014,0,0,0,0,4.028" transform="translate(-23.868 -59.766)" fill="#2d3e4f"/>
          <rect id="Rectángulo_404618" data-name="Rectángulo 404618" width="3.269" height="3.269" transform="translate(20.461 63.658)" fill="#4c9fd8"/>
          <rect id="Rectángulo_404619" data-name="Rectángulo 404619" width="3.269" height="3.269" transform="translate(14.72 63.658)" fill="#4c9fd8"/>
          <rect id="Rectángulo_404620" data-name="Rectángulo 404620" width="3.269" height="3.269" transform="translate(8.979 63.658)" fill="#4c9fd8"/>
          <path id="Trazado_924038" data-name="Trazado 924038" d="M18.714,133.292H29.437a2.014,2.014,0,0,0,0-4.028H18.714a2.014,2.014,0,1,0,0,4.028" transform="translate(-7.721 -59.766)" fill="#2d3e4f"/>
          <rect id="Rectángulo_404621" data-name="Rectángulo 404621" width="51.47" height="20.557" transform="translate(0 78.871)" fill="#527389"/>
          <path id="Trazado_924039" data-name="Trazado 924039" d="M21.139,157.549H45.77a4.444,4.444,0,0,1,0,8.888H21.139a4.444,4.444,0,0,1,0-8.888" transform="translate(-7.719 -72.843)" fill="#4c9fd8"/>
          <path id="Trazado_924040" data-name="Trazado 924040" d="M63.314,163.506A2.685,2.685,0,1,1,66,166.191a2.686,2.686,0,0,1-2.686-2.686" transform="translate(-29.273 -74.356)" fill="#3c86af"/>
          <path id="Trazado_924041" data-name="Trazado 924041" d="M43.063,164.371a1.679,1.679,0,1,1,1.68,1.68,1.68,1.68,0,0,1-1.68-1.68" transform="translate(-19.91 -75.221)" fill="#3c86af"/>
          <path id="Trazado_924042" data-name="Trazado 924042" d="M54.728,164.967a.986.986,0,1,1,.986.986.986.986,0,0,1-.986-.986" transform="translate(-25.304 -75.817)" fill="#fff"/>
          <path id="Trazado_924043" data-name="Trazado 924043" d="M32.767,164.371a1.679,1.679,0,1,1,1.68,1.68,1.68,1.68,0,0,1-1.68-1.68" transform="translate(-15.15 -75.221)" fill="#3c86af"/>
          <path id="Trazado_924044" data-name="Trazado 924044" d="M22.472,164.371a1.68,1.68,0,1,1,1.68,1.68,1.68,1.68,0,0,1-1.68-1.68" transform="translate(-10.39 -75.221)" fill="#3c86af"/>
          <rect id="Rectángulo_404622" data-name="Rectángulo 404622" width="51.47" height="20.557" transform="translate(0.007 99.44)" fill="#3c5366"/>
          <rect id="Rectángulo_404623" data-name="Rectángulo 404623" width="51.47" height="20.557" transform="translate(0 119.997)" fill="#527389"/>
          <rect id="Rectángulo_404624" data-name="Rectángulo 404624" width="51.47" height="20.557" transform="translate(0.007 140.566)" fill="#3c5366"/>
          <rect id="Rectángulo_404625" data-name="Rectángulo 404625" width="51.47" height="20.557" transform="translate(0 161.123)" fill="#527389"/>
          <rect id="Rectángulo_404626" data-name="Rectángulo 404626" width="51.47" height="41.126" transform="translate(0 181.68)" fill="#4c9fd8"/>
          <rect id="Rectángulo_404627" data-name="Rectángulo 404627" width="6.318" height="164.541" transform="translate(45.16 58.265)" fill="#2d3e4f"/>
          <rect id="Rectángulo_404628" data-name="Rectángulo 404628" width="6.318" height="164.541" transform="translate(0 58.265)" fill="#2d3e4f"/>
          <path id="Trazado_924045" data-name="Trazado 924045" d="M21.152,195.807H45.783a4.444,4.444,0,0,1,0,8.888H21.152a4.444,4.444,0,0,1,0-8.888" transform="translate(-7.725 -90.532)" fill="#4c9fd8"/>
          <path id="Trazado_924046" data-name="Trazado 924046" d="M63.327,201.763a2.685,2.685,0,1,1,2.686,2.686,2.686,2.686,0,0,1-2.686-2.686" transform="translate(-29.279 -92.044)" fill="#3c86af"/>
          <path id="Trazado_924047" data-name="Trazado 924047" d="M43.076,202.628a1.68,1.68,0,1,1,1.68,1.68,1.68,1.68,0,0,1-1.68-1.68" transform="translate(-19.916 -92.909)" fill="#3c86af"/>
          <path id="Trazado_924048" data-name="Trazado 924048" d="M54.741,203.224a.986.986,0,1,1,.986.986.986.986,0,0,1-.986-.986" transform="translate(-25.31 -93.506)" fill="#fff"/>
          <path id="Trazado_924049" data-name="Trazado 924049" d="M32.78,202.628a1.679,1.679,0,1,1,1.68,1.68,1.68,1.68,0,0,1-1.68-1.68" transform="translate(-15.156 -92.909)" fill="#3c86af"/>
          <path id="Trazado_924050" data-name="Trazado 924050" d="M22.485,202.628a1.679,1.679,0,1,1,1.68,1.68,1.68,1.68,0,0,1-1.68-1.68" transform="translate(-10.396 -92.909)" fill="#3c86af"/>
          <path id="Trazado_924051" data-name="Trazado 924051" d="M78.85,242.84a.243.243,0,0,1-.243-.244v-7.116a.243.243,0,1,1,.486,0V242.6a.243.243,0,0,1-.243.244" transform="translate(-36.344 -108.763)" fill="#ffc07b"/>
          <path id="Trazado_924052" data-name="Trazado 924052" d="M73.739,242.84a.243.243,0,0,1-.243-.244v-7.116a.243.243,0,1,1,.486,0V242.6a.243.243,0,0,1-.243.244" transform="translate(-33.981 -108.763)" fill="#ffc07b"/>
          <path id="Trazado_924053" data-name="Trazado 924053" d="M68.628,242.84a.243.243,0,0,1-.243-.244v-7.116a.243.243,0,1,1,.486,0V242.6a.243.243,0,0,1-.243.244" transform="translate(-31.618 -108.763)" fill="#ffc07b"/>
          <path id="Trazado_924054" data-name="Trazado 924054" d="M63.516,242.84a.243.243,0,0,1-.243-.244v-7.116a.243.243,0,1,1,.486,0V242.6a.243.243,0,0,1-.243.244" transform="translate(-29.255 -108.763)" fill="#ffc07b"/>
          <path id="Trazado_924055" data-name="Trazado 924055" d="M58.405,242.84a.243.243,0,0,1-.243-.244v-7.116a.243.243,0,1,1,.486,0V242.6a.243.243,0,0,1-.243.244" transform="translate(-26.891 -108.763)" fill="#ffc07b"/>
          <path id="Trazado_924056" data-name="Trazado 924056" d="M53.294,242.84a.243.243,0,0,1-.243-.244v-7.116a.243.243,0,1,1,.486,0V242.6a.243.243,0,0,1-.243.244" transform="translate(-24.528 -108.763)" fill="#ffc07b"/>
          <path id="Trazado_924057" data-name="Trazado 924057" d="M48.182,242.84a.243.243,0,0,1-.243-.244v-7.116a.243.243,0,1,1,.486,0V242.6a.243.243,0,0,1-.243.244" transform="translate(-22.165 -108.763)" fill="#ffc07b"/>
          <rect id="Rectángulo_404629" data-name="Rectángulo 404629" width="2.644" height="2.644" transform="translate(18.266 126.717)" fill="#4c9fd8"/>
          <rect id="Rectángulo_404630" data-name="Rectángulo 404630" width="2.644" height="2.644" transform="translate(13.622 126.717)" fill="#4c9fd8"/>
          <rect id="Rectángulo_404631" data-name="Rectángulo 404631" width="2.644" height="2.644" transform="translate(8.979 126.717)" fill="#4c9fd8"/>
          <path id="Trazado_924058" data-name="Trazado 924058" d="M18.329,246.124H27a1.629,1.629,0,1,0,0-3.258H18.329a1.629,1.629,0,1,0,0,3.258" transform="translate(-7.721 -112.29)" fill="#2d3e4f"/>
          <path id="Trazado_924059" data-name="Trazado 924059" d="M44.743,351.046a1.679,1.679,0,1,1,1.68,1.68,1.679,1.679,0,0,1-1.68-1.68" transform="translate(-20.687 -161.531)" fill="#2d3e4f"/>
          <path id="Trazado_924060" data-name="Trazado 924060" d="M44.743,366.829a1.679,1.679,0,1,1,1.68,1.68,1.679,1.679,0,0,1-1.68-1.68" transform="translate(-20.687 -168.828)" fill="#2d3e4f"/>
          <path id="Trazado_924061" data-name="Trazado 924061" d="M44.743,382.612a1.679,1.679,0,1,1,1.68,1.68,1.679,1.679,0,0,1-1.68-1.68" transform="translate(-20.687 -176.125)" fill="#2d3e4f"/>
          <path id="Trazado_924062" data-name="Trazado 924062" d="M44.743,398.395a1.679,1.679,0,1,1,1.68,1.68,1.679,1.679,0,0,1-1.68-1.68" transform="translate(-20.687 -183.423)" fill="#2d3e4f"/>
          <rect id="Rectángulo_404632" data-name="Rectángulo 404632" width="9.713" height="41.126" transform="translate(6.317 181.68)" fill="#3c5366"/>
          <path id="Trazado_924063" data-name="Trazado 924063" d="M18.949,346.808a.986.986,0,1,1,.986.986.986.986,0,0,1-.986-.986" transform="translate(-8.761 -159.892)" fill="#fff"/>
          <path id="Trazado_924064" data-name="Trazado 924064" d="M18.949,358.212a.986.986,0,1,1,.986.986.986.986,0,0,1-.986-.986" transform="translate(-8.761 -165.165)" fill="#ef8e70"/>
          <path id="Trazado_924065" data-name="Trazado 924065" d="M18.949,369.615a.986.986,0,1,1,.986.986.986.986,0,0,1-.986-.986" transform="translate(-8.761 -170.437)" fill="#fff"/>
          <path id="Trazado_924066" data-name="Trazado 924066" d="M18.949,381.018a.986.986,0,1,1,.986.986.986.986,0,0,1-.986-.986" transform="translate(-8.761 -175.709)" fill="#ef8e70"/>
          <path id="Trazado_924067" data-name="Trazado 924067" d="M18.949,392.422a.986.986,0,1,1,.986.986.986.986,0,0,1-.986-.986" transform="translate(-8.761 -180.982)" fill="#fff"/>
          <path id="Trazado_924068" data-name="Trazado 924068" d="M18.949,403.825a.986.986,0,1,1,.986.986.986.986,0,0,1-.986-.986" transform="translate(-8.761 -186.254)" fill="#ef8e70"/>
          <rect id="Rectángulo_404633" data-name="Rectángulo 404633" width="9.713" height="41.126" transform="translate(35.457 181.68)" fill="#3c5366"/>
          <path id="Trazado_924069" data-name="Trazado 924069" d="M73.147,346.808a.986.986,0,1,1,.986.986.986.986,0,0,1-.986-.986" transform="translate(-33.82 -159.892)" fill="#ef8e70"/>
          <path id="Trazado_924070" data-name="Trazado 924070" d="M73.147,358.212a.986.986,0,1,1,.986.986.986.986,0,0,1-.986-.986" transform="translate(-33.82 -165.165)" fill="#fff"/>
          <path id="Trazado_924071" data-name="Trazado 924071" d="M73.147,369.615a.986.986,0,1,1,.986.986.986.986,0,0,1-.986-.986" transform="translate(-33.82 -170.437)" fill="#ef8e70"/>
          <path id="Trazado_924072" data-name="Trazado 924072" d="M73.147,381.018a.986.986,0,1,1,.986.986.986.986,0,0,1-.986-.986" transform="translate(-33.82 -175.709)" fill="#fff"/>
          <path id="Trazado_924073" data-name="Trazado 924073" d="M73.147,392.422a.986.986,0,1,1,.986.986.986.986,0,0,1-.986-.986" transform="translate(-33.82 -180.982)" fill="#ef8e70"/>
          <path id="Trazado_924074" data-name="Trazado 924074" d="M73.147,403.825a.986.986,0,1,1,.986.986.986.986,0,0,1-.986-.986" transform="translate(-33.82 -186.254)" fill="#fff"/>
          <path id="Trazado_924075" data-name="Trazado 924075" d="M.013,414.411v5.315H1.622l1.427-5.315Z" transform="translate(-0.006 -191.605)" fill="#365268"/>
          <path id="Trazado_924076" data-name="Trazado 924076" d="M93.169,414.411v5.315H91.56l-1.427-5.315Z" transform="translate(-41.673 -191.605)" fill="#365268"/>
          <path id="Trazado_924077" data-name="Trazado 924077" d="M87.579,272.484a.269.269,0,0,1-.269-.268c0-.566-.232-56.9-.679-80.326-.444-23.263.014-66.426.679-81.664a.267.267,0,0,1,.28-.257.27.27,0,0,1,.258.281c-.666,15.23-1.123,58.375-.679,81.63.447,23.435.677,79.768.679,80.335a.269.269,0,0,1-.268.27Z" transform="translate(-39.973 -50.844)" fill="#fff"/>
          <path id="Trazado_924078" data-name="Trazado 924078" d="M91.529,272.5a.407.407,0,0,1-.407-.4c0-.567-.231-56.895-.679-80.324-.444-23.266.013-66.433.679-81.673a.416.416,0,0,1,.424-.388.407.407,0,0,1,.389.424c-.665,15.229-1.123,58.369-.679,81.621.448,23.437.677,79.771.68,80.337a.407.407,0,0,1-.405.408Z" transform="translate(-41.735 -50.727)" fill="#ffc07b"/>
          <path id="Trazado_924079" data-name="Trazado 924079" d="M92.286,272.825a.269.269,0,0,1-.269-.269c0-.482,0-48.529-.226-77.168-.128-16.4.014-30.838.18-47.556.112-11.346.227-23.078.273-36.859a.269.269,0,0,1,.269-.268h0a.269.269,0,0,1,.268.269c-.046,13.784-.161,25.517-.273,36.863-.166,16.716-.308,31.152-.18,47.547.224,28.641.226,76.69.226,77.172a.269.269,0,0,1-.269.269" transform="translate(-42.417 -51.185)" fill="#fff"/>
          <path id="Trazado_924080" data-name="Trazado 924080" d="M87.807,272.241H87.8a.407.407,0,0,1-.4-.415c.822-44.6.216-74.727-.186-94.663-.149-7.406-.267-13.256-.267-17.792,0-8.66.245-17.843.482-26.723.218-8.154.423-15.856.423-22.529a.407.407,0,0,1,.814,0c0,6.683-.206,14.391-.424,22.55-.237,8.875-.482,18.052-.482,26.7,0,4.528.118,10.374.267,17.776.4,19.942,1.008,50.079.185,94.695a.407.407,0,0,1-.406.4" transform="translate(-40.2 -50.727)" fill="#ffc07b"/>
          <path id="Trazado_924081" data-name="Trazado 924081" d="M89.749,272.222h0a.269.269,0,0,1-.264-.274c.822-44.6.216-74.732-.186-94.668-.149-7.406-.267-13.255-.267-17.789,0-8.658.245-17.84.482-26.719.218-8.156.423-15.858.423-22.533a.269.269,0,0,1,.538,0c0,6.682-.206,14.388-.423,22.547-.238,8.876-.482,18.054-.482,26.705,0,4.529.118,10.376.267,17.778.4,19.94,1.009,50.075.186,94.689a.269.269,0,0,1-.269.264" transform="translate(-41.162 -50.845)" fill="#fff"/>
          <rect id="Rectángulo_404634" data-name="Rectángulo 404634" width="6.14" height="7.479" transform="translate(45.335 58.256)" fill="#2d3e4f"/>
          <rect id="Rectángulo_404635" data-name="Rectángulo 404635" width="6.14" height="7.479" transform="translate(45.335 76.012)" fill="#2d3e4f"/>
          <rect id="Rectángulo_404636" data-name="Rectángulo 404636" width="6.14" height="7.479" transform="translate(45.335 92.541)" fill="#2d3e4f"/>
          <rect id="Rectángulo_404637" data-name="Rectángulo 404637" width="6.14" height="7.479" transform="translate(45.335 109.071)" fill="#2d3e4f"/>
          <rect id="Rectángulo_404638" data-name="Rectángulo 404638" width="6.14" height="7.479" transform="translate(45.335 125.601)" fill="#2d3e4f"/>
          <rect id="Rectángulo_404639" data-name="Rectángulo 404639" width="6.14" height="7.479" transform="translate(45.335 142.13)" fill="#2d3e4f"/>
          <rect id="Rectángulo_404640" data-name="Rectángulo 404640" width="6.14" height="7.479" transform="translate(45.335 158.659)" fill="#2d3e4f"/>
          <rect id="Rectángulo_404641" data-name="Rectángulo 404641" width="6.14" height="7.479" transform="translate(45.335 175.189)" fill="#2d3e4f"/>
          <rect id="Rectángulo_404642" data-name="Rectángulo 404642" width="6.14" height="7.479" transform="translate(45.335 191.719)" fill="#2d3e4f"/>
          <rect id="Rectángulo_404643" data-name="Rectángulo 404643" width="6.14" height="8.693" transform="translate(45.335 214.114)" fill="#2d3e4f"/>
          <rect id="Rectángulo_404644" data-name="Rectángulo 404644" width="23.126" height="6.667" transform="translate(8.968 147.511)" fill="#2d3e4f"/>
          <path id="Trazado_924082" data-name="Trazado 924082" d="M66.678,277.7a3.334,3.334,0,1,1,3.333,3.333,3.334,3.334,0,0,1-3.333-3.333" transform="translate(-30.829 -126.854)" fill="#2d3e4f"/>
          <rect id="Rectángulo_404645" data-name="Rectángulo 404645" width="23.126" height="6.667" transform="translate(8.968 168.068)" fill="#2d3e4f"/>
          <path id="Trazado_924083" data-name="Trazado 924083" d="M66.678,315.934a3.334,3.334,0,1,1,3.333,3.333,3.334,3.334,0,0,1-3.333-3.333" transform="translate(-30.829 -144.532)" fill="#2d3e4f"/>
          <path id="Trazado_924084" data-name="Trazado 924084" d="M56.314,355.614c-3.974,0-7.185-1.14-9.423-3.375a.407.407,0,1,1,.574-.576c6.894,6.883,21.173.267,21.316.2a.407.407,0,0,1,.347.736,36.914,36.914,0,0,1-8.3,2.581,25.312,25.312,0,0,1-4.518.434" transform="translate(-21.625 -162.538)" fill="#ffc07b"/>
          <path id="Trazado_924085" data-name="Trazado 924085" d="M69.188,371.927h0c-.133,0-13.468-.1-22.152-3.385a.407.407,0,1,1,.288-.761c8.545,3.233,21.735,3.332,21.868,3.332a.407.407,0,0,1,0,.813" transform="translate(-21.625 -170.033)" fill="#fff"/>
          <path id="Trazado_924086" data-name="Trazado 924086" d="M53.092,384.21a14.467,14.467,0,0,1-6.1-.945.407.407,0,0,1,.379-.72c4.531,2.379,21.584-.947,21.756-.981a.407.407,0,1,1,.158.8,101.422,101.422,0,0,1-16.189,1.848" transform="translate(-21.625 -176.415)" fill="#fff"/>
          <rect id="Rectángulo_404646" data-name="Rectángulo 404646" width="104.387" height="20.557" transform="translate(126.817 123.342)" fill="#365268"/>
          <path id="Trazado_924087" data-name="Trazado 924087" d="M406.713,246.221a2.685,2.685,0,1,0,2.686-2.686,2.686,2.686,0,0,0-2.686,2.686" transform="translate(-188.045 -112.599)" fill="#4c9fd8"/>
          <path id="Trazado_924088" data-name="Trazado 924088" d="M370.245,246.221a2.685,2.685,0,1,0,2.686-2.686,2.686,2.686,0,0,0-2.686,2.686" transform="translate(-171.184 -112.599)" fill="#4c9fd8"/>
          <rect id="Rectángulo_404647" data-name="Rectángulo 404647" width="7.593" height="1.705" transform="translate(207.753 132.768)" fill="#4c9fd8"/>
          <rect id="Rectángulo_404648" data-name="Rectángulo 404648" width="7.593" height="1.705" transform="translate(175.85 132.768)" fill="#4c9fd8"/>
          <rect id="Rectángulo_404649" data-name="Rectángulo 404649" width="5.371" height="5.371" transform="translate(186.765 130.936)" fill="#4c9fd8"/>
          <rect id="Rectángulo_404650" data-name="Rectángulo 404650" width="5.371" height="5.371" transform="translate(167.157 130.936)" fill="#4c9fd8"/>
          <path id="Trazado_924089" data-name="Trazado 924089" d="M285.407,246.221a2.685,2.685,0,1,0,2.686-2.686,2.686,2.686,0,0,0-2.686,2.686" transform="translate(-131.959 -112.599)" fill="#4c9fd8"/>
          <path id="Trazado_924090" data-name="Trazado 924090" d="M248.939,246.221a2.685,2.685,0,1,0,2.686-2.686,2.686,2.686,0,0,0-2.686,2.686" transform="translate(-115.098 -112.599)" fill="#4c9fd8"/>
          <rect id="Rectángulo_404651" data-name="Rectángulo 404651" width="7.593" height="1.705" transform="translate(142.533 132.768)" fill="#4c9fd8"/>
          <rect id="Rectángulo_404652" data-name="Rectángulo 404652" width="104.387" height="20.557" transform="translate(126.817 143.899)" fill="#426f8e"/>
          <path id="Trazado_924091" data-name="Trazado 924091" d="M406.823,284.456a2.685,2.685,0,1,0,2.686-2.686,2.686,2.686,0,0,0-2.686,2.686" transform="translate(-188.096 -130.277)" fill="#4c9fd8"/>
          <path id="Trazado_924092" data-name="Trazado 924092" d="M370.355,284.456a2.685,2.685,0,1,0,2.686-2.686,2.686,2.686,0,0,0-2.686,2.686" transform="translate(-171.235 -130.277)" fill="#4c9fd8"/>
          <rect id="Rectángulo_404653" data-name="Rectángulo 404653" width="7.593" height="1.705" transform="translate(207.812 153.325)" fill="#4c9fd8"/>
          <rect id="Rectángulo_404654" data-name="Rectángulo 404654" width="7.593" height="1.705" transform="translate(175.85 153.325)" fill="#4c9fd8"/>
          <rect id="Rectángulo_404655" data-name="Rectángulo 404655" width="5.371" height="5.371" transform="translate(186.765 151.493)" fill="#4c9fd8"/>
          <rect id="Rectángulo_404656" data-name="Rectángulo 404656" width="5.371" height="5.371" transform="translate(167.157 151.493)" fill="#4c9fd8"/>
          <path id="Trazado_924093" data-name="Trazado 924093" d="M285.3,284.456a2.685,2.685,0,1,0,2.686-2.686,2.686,2.686,0,0,0-2.686,2.686" transform="translate(-131.908 -130.277)" fill="#4c9fd8"/>
          <path id="Trazado_924094" data-name="Trazado 924094" d="M248.829,284.456a2.685,2.685,0,1,0,2.686-2.686,2.686,2.686,0,0,0-2.686,2.686" transform="translate(-115.047 -130.277)" fill="#4c9fd8"/>
          <rect id="Rectángulo_404657" data-name="Rectángulo 404657" width="7.593" height="1.705" transform="translate(142.475 153.325)" fill="#4c9fd8"/>
          <rect id="Rectángulo_404658" data-name="Rectángulo 404658" width="104.387" height="20.557" transform="translate(126.817 102.785)" fill="#426f8e"/>
          <rect id="Rectángulo_404659" data-name="Rectángulo 404659" width="3.269" height="3.269" transform="translate(220.914 114.729)" fill="#4c9fd8"/>
          <rect id="Rectángulo_404660" data-name="Rectángulo 404660" width="3.269" height="3.269" transform="translate(215.173 114.729)" fill="#4c9fd8"/>
          <rect id="Rectángulo_404661" data-name="Rectángulo 404661" width="3.269" height="3.269" transform="translate(209.432 114.729)" fill="#4c9fd8"/>
          <path id="Trazado_924095" data-name="Trazado 924095" d="M391.55,201.117h10.723a2.014,2.014,0,0,1,0,4.028H391.55a2.014,2.014,0,1,1,0-4.028" transform="translate(-180.104 -92.987)" fill="#2d3e4f"/>
          <rect id="Rectángulo_404662" data-name="Rectángulo 404662" width="3.269" height="3.269" transform="translate(195.717 114.729)" fill="#4c9fd8"/>
          <rect id="Rectángulo_404663" data-name="Rectángulo 404663" width="3.269" height="3.269" transform="translate(189.976 114.729)" fill="#4c9fd8"/>
          <rect id="Rectángulo_404664" data-name="Rectángulo 404664" width="3.269" height="3.269" transform="translate(184.235 114.729)" fill="#4c9fd8"/>
          <path id="Trazado_924096" data-name="Trazado 924096" d="M344.683,201.117h10.723a2.014,2.014,0,1,1,0,4.028H344.683a2.014,2.014,0,1,1,0-4.028" transform="translate(-158.434 -92.987)" fill="#2d3e4f"/>
          <rect id="Rectángulo_404665" data-name="Rectángulo 404665" width="3.269" height="3.269" transform="translate(170.519 114.729)" fill="#4c9fd8"/>
          <rect id="Rectángulo_404666" data-name="Rectángulo 404666" width="3.269" height="3.269" transform="translate(164.778 114.729)" fill="#4c9fd8"/>
          <rect id="Rectángulo_404667" data-name="Rectángulo 404667" width="3.269" height="3.269" transform="translate(159.037 114.729)" fill="#4c9fd8"/>
          <path id="Trazado_924097" data-name="Trazado 924097" d="M297.816,201.117h10.723a2.014,2.014,0,0,1,0,4.028H297.816a2.014,2.014,0,1,1,0-4.028" transform="translate(-136.765 -92.987)" fill="#2d3e4f"/>
          <rect id="Rectángulo_404668" data-name="Rectángulo 404668" width="3.269" height="3.269" transform="translate(145.321 114.729)" fill="#4c9fd8"/>
          <rect id="Rectángulo_404669" data-name="Rectángulo 404669" width="3.269" height="3.269" transform="translate(139.58 114.729)" fill="#4c9fd8"/>
          <rect id="Rectángulo_404670" data-name="Rectángulo 404670" width="3.269" height="3.269" transform="translate(133.839 114.729)" fill="#4c9fd8"/>
          <path id="Trazado_924098" data-name="Trazado 924098" d="M250.949,201.117h10.723a2.014,2.014,0,1,1,0,4.028H250.949a2.014,2.014,0,1,1,0-4.028" transform="translate(-115.096 -92.987)" fill="#2d3e4f"/>
          <rect id="Rectángulo_404671" data-name="Rectángulo 404671" width="104.387" height="20.557" transform="translate(126.817)" fill="#365268"/>
          <rect id="Rectángulo_404672" data-name="Rectángulo 404672" width="36.223" height="6.667" transform="translate(176.425 6.945)" fill="#2d3e4f"/>
          <path id="Trazado_924099" data-name="Trazado 924099" d="M404.374,16.251a3.334,3.334,0,1,1,3.333,3.333,3.334,3.334,0,0,1-3.333-3.333" transform="translate(-186.964 -5.973)" fill="#2d3e4f"/>
          <path id="Trazado_924100" data-name="Trazado 924100" d="M287.117,17.97a1.336,1.336,0,1,1,1.336,1.336,1.335,1.335,0,0,1-1.336-1.336" transform="translate(-132.75 -7.691)" fill="#4c9fd8"/>
          <path id="Trazado_924101" data-name="Trazado 924101" d="M274.464,17.97a1.336,1.336,0,1,1,1.336,1.336,1.335,1.335,0,0,1-1.336-1.336" transform="translate(-126.899 -7.691)" fill="#4c9fd8"/>
          <path id="Trazado_924102" data-name="Trazado 924102" d="M261.811,17.97a1.336,1.336,0,1,1,1.335,1.336,1.335,1.335,0,0,1-1.335-1.336" transform="translate(-121.049 -7.691)" fill="#4c9fd8"/>
          <path id="Trazado_924103" data-name="Trazado 924103" d="M249.157,17.97a1.336,1.336,0,1,1,1.335,1.336,1.335,1.335,0,0,1-1.335-1.336" transform="translate(-115.199 -7.691)" fill="#4c9fd8"/>
          <rect id="Rectángulo_404673" data-name="Rectángulo 404673" width="104.387" height="20.557" transform="translate(126.817 61.671)" fill="#426f8e"/>
          <rect id="Rectángulo_404674" data-name="Rectángulo 404674" width="36.223" height="6.667" transform="translate(176.779 68.439)" fill="#2d3e4f"/>
          <path id="Trazado_924104" data-name="Trazado 924104" d="M404.3,130.628a3.334,3.334,0,1,1,3.333,3.333,3.334,3.334,0,0,1-3.333-3.333" transform="translate(-186.93 -58.855)" fill="#2d3e4f"/>
          <path id="Trazado_924105" data-name="Trazado 924105" d="M287.117,132.347a1.336,1.336,0,1,1,1.336,1.336,1.335,1.335,0,0,1-1.336-1.336" transform="translate(-132.75 -60.573)" fill="#4c9fd8"/>
          <path id="Trazado_924106" data-name="Trazado 924106" d="M274.464,132.347a1.336,1.336,0,1,1,1.336,1.336,1.335,1.335,0,0,1-1.336-1.336" transform="translate(-126.899 -60.573)" fill="#fff"/>
          <path id="Trazado_924107" data-name="Trazado 924107" d="M261.811,132.347a1.336,1.336,0,1,1,1.335,1.336,1.335,1.335,0,0,1-1.335-1.336" transform="translate(-121.049 -60.573)" fill="#4c9fd8"/>
          <path id="Trazado_924108" data-name="Trazado 924108" d="M249.157,132.347a1.336,1.336,0,1,1,1.335,1.336,1.335,1.335,0,0,1-1.335-1.336" transform="translate(-115.199 -60.573)" fill="#fff"/>
          <rect id="Rectángulo_404675" data-name="Rectángulo 404675" width="104.387" height="20.557" transform="translate(126.817 20.557)" fill="#426f8e"/>
          <rect id="Rectángulo_404676" data-name="Rectángulo 404676" width="5.371" height="5.371" transform="translate(218.809 28.151)" fill="#4c9fd8"/>
          <rect id="Rectángulo_404677" data-name="Rectángulo 404677" width="5.371" height="5.371" transform="translate(207.771 28.151)" fill="#4c9fd8"/>
          <rect id="Rectángulo_404678" data-name="Rectángulo 404678" width="5.371" height="5.371" transform="translate(196.734 28.151)" fill="#4c9fd8"/>
          <rect id="Rectángulo_404679" data-name="Rectángulo 404679" width="5.371" height="5.371" transform="translate(185.696 28.151)" fill="#4c9fd8"/>
          <rect id="Rectángulo_404680" data-name="Rectángulo 404680" width="5.371" height="5.371" transform="translate(144.925 28.151)" fill="#4c9fd8"/>
          <rect id="Rectángulo_404681" data-name="Rectángulo 404681" width="5.371" height="5.371" transform="translate(133.887 28.151)" fill="#4c9fd8"/>
          <path id="Trazado_924109" data-name="Trazado 924109" d="M300.53,57.73h9.38a2.685,2.685,0,1,0,0-5.371h-9.38a2.685,2.685,0,1,0,0,5.371" transform="translate(-137.709 -24.208)" fill="#2d3e4f"/>
          <path id="Trazado_924110" data-name="Trazado 924110" d="M357.909,222.532q-.686,0-1.384-.05c-5.12-.37-9.643-2.806-11.522-6.2a.407.407,0,0,1,.712-.395c1.75,3.165,6.017,5.436,10.869,5.787a15.352,15.352,0,0,0,13.649-5.835.407.407,0,1,1,.648.492,15.956,15.956,0,0,1-12.971,6.2" transform="translate(-159.49 -99.718)" fill="#fff"/>
          <path id="Trazado_924111" data-name="Trazado 924111" d="M280.012,223.937c-3.084,0-5.844-2.867-7.418-7.731a.407.407,0,1,1,.774-.251c1.495,4.618,4.071,7.3,6.843,7.164s5.159-2.929,6.088-7.126a.407.407,0,1,1,.794.176c-1.011,4.566-3.7,7.613-6.844,7.763-.079,0-.159.005-.238.005" transform="translate(-126.026 -99.718)" fill="#fff"/>
          <path id="Trazado_924112" data-name="Trazado 924112" d="M331.6,221.2c-3.739,0-7.441-1.46-11.989-4.793a.407.407,0,1,1,.481-.656c9.622,7.051,15.185,5.308,24.759-.027a.407.407,0,1,1,.4.711c-5.373,2.994-9.532,4.765-13.648,4.765" transform="translate(-147.695 -99.718)" fill="#fff"/>
          <rect id="Rectángulo_404682" data-name="Rectángulo 404682" width="104.387" height="20.557" transform="translate(126.817 82.228)" fill="#365268"/>
          <rect id="Rectángulo_404683" data-name="Rectángulo 404683" width="5.371" height="5.371" transform="translate(148.599 89.96)" fill="#4c9fd8"/>
          <rect id="Rectángulo_404684" data-name="Rectángulo 404684" width="5.371" height="5.371" transform="translate(141.224 89.96)" fill="#4c9fd8"/>
          <rect id="Rectángulo_404685" data-name="Rectángulo 404685" width="5.371" height="5.371" transform="translate(133.849 89.96)" fill="#4c9fd8"/>
          <path id="Trazado_924113" data-name="Trazado 924113" d="M306.179,164.052h53.069a4.444,4.444,0,0,1,0,8.888H306.179a4.444,4.444,0,0,1,0-8.888" transform="translate(-139.508 -75.85)" fill="#4c9fd8"/>
          <rect id="Rectángulo_404686" data-name="Rectángulo 404686" width="24.562" height="3.359" transform="translate(166.545 90.966)" fill="#2d3e4f"/>
          <path id="Trazado_924114" data-name="Trazado 924114" d="M402.7,170.008a2.685,2.685,0,1,1,2.686,2.686,2.686,2.686,0,0,1-2.686-2.686" transform="translate(-186.192 -77.362)" fill="#3c86af"/>
          <path id="Trazado_924115" data-name="Trazado 924115" d="M392.854,171.568a.871.871,0,1,1,.871.871.871.871,0,0,1-.871-.871" transform="translate(-181.638 -78.922)" fill="#fff"/>
          <path id="Trazado_924116" data-name="Trazado 924116" d="M381.054,170.873a1.679,1.679,0,1,1,1.68,1.68,1.68,1.68,0,0,1-1.68-1.68" transform="translate(-176.182 -78.227)" fill="#3c86af"/>
          <path id="Trazado_924117" data-name="Trazado 924117" d="M370.759,170.873a1.679,1.679,0,1,1,1.68,1.68,1.68,1.68,0,0,1-1.68-1.68" transform="translate(-171.422 -78.227)" fill="#3c86af"/>
          <path id="Trazado_924118" data-name="Trazado 924118" d="M360.463,170.873a1.679,1.679,0,1,1,1.68,1.68,1.679,1.679,0,0,1-1.68-1.68" transform="translate(-166.661 -78.227)" fill="#3c86af"/>
          <path id="Trazado_924119" data-name="Trazado 924119" d="M300.192,212.415a.394.394,0,0,1-.055,0,9.612,9.612,0,0,1-7.663-5.829c-3.35-7.994,3.417-18.91,7.749-24.705a.406.406,0,1,1,.651.487c-4.228,5.657-10.844,16.284-7.65,23.9a8.806,8.806,0,0,0,7.023,5.338.407.407,0,0,1-.054.81" transform="translate(-134.81 -84.016)" fill="#fff"/>
          <path id="Trazado_924120" data-name="Trazado 924120" d="M305.25,198.734a45.955,45.955,0,0,1-14.735-2.694c-13.559-4.735-22.209-13.893-23.138-24.5a.407.407,0,0,1,.81-.071c.9,10.278,9.346,19.177,22.6,23.8,10.141,3.541,20.752,3.505,24.154-.081a.407.407,0,1,1,.59.56c-1.883,1.984-5.636,2.982-10.277,2.982" transform="translate(-123.622 -79.108)" fill="#ffc07b"/>
          <rect id="Rectángulo_404687" data-name="Rectángulo 404687" width="104.387" height="20.557" transform="translate(126.817 164.457)" fill="#365268"/>
          <rect id="Rectángulo_404688" data-name="Rectángulo 404688" width="3.269" height="3.269" transform="translate(220.914 169.801)" fill="#4c9fd8"/>
          <rect id="Rectángulo_404689" data-name="Rectángulo 404689" width="3.269" height="3.269" transform="translate(215.173 169.801)" fill="#4c9fd8"/>
          <rect id="Rectángulo_404690" data-name="Rectángulo 404690" width="3.269" height="3.269" transform="translate(209.432 169.801)" fill="#4c9fd8"/>
          <path id="Trazado_924121" data-name="Trazado 924121" d="M391.55,330.713h10.723a2.014,2.014,0,1,0,0-4.028H391.55a2.014,2.014,0,1,0,0,4.028" transform="translate(-180.104 -151.044)" fill="#2d3e4f"/>
          <rect id="Rectángulo_404691" data-name="Rectángulo 404691" width="3.269" height="3.269" transform="translate(195.717 169.801)" fill="#4c9fd8"/>
          <rect id="Rectángulo_404692" data-name="Rectángulo 404692" width="3.269" height="3.269" transform="translate(189.976 169.801)" fill="#4c9fd8"/>
          <rect id="Rectángulo_404693" data-name="Rectángulo 404693" width="3.269" height="3.269" transform="translate(184.235 169.801)" fill="#4c9fd8"/>
          <path id="Trazado_924122" data-name="Trazado 924122" d="M344.683,330.713h10.723a2.014,2.014,0,1,0,0-4.028H344.683a2.014,2.014,0,1,0,0,4.028" transform="translate(-158.434 -151.044)" fill="#2d3e4f"/>
          <rect id="Rectángulo_404694" data-name="Rectángulo 404694" width="3.269" height="3.269" transform="translate(170.519 169.801)" fill="#4c9fd8"/>
          <rect id="Rectángulo_404695" data-name="Rectángulo 404695" width="3.269" height="3.269" transform="translate(164.778 169.801)" fill="#4c9fd8"/>
          <rect id="Rectángulo_404696" data-name="Rectángulo 404696" width="3.269" height="3.269" transform="translate(159.037 169.801)" fill="#4c9fd8"/>
          <path id="Trazado_924123" data-name="Trazado 924123" d="M297.816,330.713h10.723a2.014,2.014,0,1,0,0-4.028H297.816a2.014,2.014,0,1,0,0,4.028" transform="translate(-136.765 -151.044)" fill="#2d3e4f"/>
          <rect id="Rectángulo_404697" data-name="Rectángulo 404697" width="3.269" height="3.269" transform="translate(145.321 169.801)" fill="#4c9fd8"/>
          <rect id="Rectángulo_404698" data-name="Rectángulo 404698" width="3.269" height="3.269" transform="translate(139.58 169.801)" fill="#4c9fd8"/>
          <rect id="Rectángulo_404699" data-name="Rectángulo 404699" width="3.269" height="3.269" transform="translate(133.839 169.801)" fill="#4c9fd8"/>
          <path id="Trazado_924124" data-name="Trazado 924124" d="M250.949,330.713h10.723a2.014,2.014,0,1,0,0-4.028H250.949a2.014,2.014,0,1,0,0,4.028" transform="translate(-115.096 -151.044)" fill="#2d3e4f"/>
          <path id="Trazado_924125" data-name="Trazado 924125" d="M358.364,324.083a20.37,20.37,0,0,1-13.271-5.261.407.407,0,1,1,.532-.616c7.789,6.731,17.924,6.74,24.644.02a.407.407,0,0,1,.575.575,17.479,17.479,0,0,1-12.48,5.282" transform="translate(-159.49 -147.078)" fill="#fff"/>
          <rect id="Rectángulo_404700" data-name="Rectángulo 404700" width="104.387" height="20.557" transform="translate(126.817 41.114)" fill="#365268"/>
          <path id="Trazado_924126" data-name="Trazado 924126" d="M416.547,96.839a.407.407,0,0,1-.407-.406v-11.9a.407.407,0,0,1,.814,0v11.9a.407.407,0,0,1-.407.406" transform="translate(-192.404 -38.898)" fill="#ffc07b"/>
          <path id="Trazado_924127" data-name="Trazado 924127" d="M408,96.839a.407.407,0,0,1-.407-.406v-11.9a.407.407,0,0,1,.814,0v11.9a.407.407,0,0,1-.407.406" transform="translate(-188.454 -38.898)" fill="#ffc07b"/>
          <path id="Trazado_924128" data-name="Trazado 924128" d="M399.46,96.839a.407.407,0,0,1-.407-.406v-11.9a.407.407,0,0,1,.814,0v11.9a.407.407,0,0,1-.407.406" transform="translate(-184.504 -38.898)" fill="#ffc07b"/>
          <path id="Trazado_924129" data-name="Trazado 924129" d="M390.917,96.839a.407.407,0,0,1-.407-.406v-11.9a.407.407,0,0,1,.814,0v11.9a.407.407,0,0,1-.407.406" transform="translate(-180.554 -38.898)" fill="#ffc07b"/>
          <path id="Trazado_924130" data-name="Trazado 924130" d="M382.374,96.839a.407.407,0,0,1-.407-.406v-11.9a.407.407,0,0,1,.814,0v11.9a.407.407,0,0,1-.407.406" transform="translate(-176.604 -38.898)" fill="#ffc07b"/>
          <path id="Trazado_924131" data-name="Trazado 924131" d="M373.83,96.839a.407.407,0,0,1-.407-.406v-11.9a.407.407,0,0,1,.814,0v11.9a.407.407,0,0,1-.407.406" transform="translate(-172.654 -38.898)" fill="#ffc07b"/>
          <path id="Trazado_924132" data-name="Trazado 924132" d="M365.287,96.839a.407.407,0,0,1-.407-.406v-11.9a.407.407,0,0,1,.814,0v11.9a.407.407,0,0,1-.407.406" transform="translate(-168.704 -38.898)" fill="#ffc07b"/>
          <path id="Trazado_924133" data-name="Trazado 924133" d="M335.04,94.8a1.336,1.336,0,1,1,1.336,1.336A1.335,1.335,0,0,1,335.04,94.8" transform="translate(-154.907 -43.214)" fill="#fff"/>
          <path id="Trazado_924134" data-name="Trazado 924134" d="M322.387,94.8a1.335,1.335,0,1,1,1.335,1.336,1.335,1.335,0,0,1-1.335-1.336" transform="translate(-149.057 -43.214)" fill="#fff"/>
          <path id="Trazado_924135" data-name="Trazado 924135" d="M309.733,94.8a1.336,1.336,0,1,1,1.335,1.336,1.335,1.335,0,0,1-1.335-1.336" transform="translate(-143.206 -43.214)" fill="#fff"/>
          <path id="Trazado_924136" data-name="Trazado 924136" d="M297.08,94.8a1.336,1.336,0,1,1,1.335,1.336A1.335,1.335,0,0,1,297.08,94.8" transform="translate(-137.356 -43.214)" fill="#fff"/>
          <path id="Trazado_924137" data-name="Trazado 924137" d="M265.53,96.839a.407.407,0,0,1-.407-.406v-11.9a.407.407,0,0,1,.814,0v11.9a.407.407,0,0,1-.407.406" transform="translate(-122.581 -38.898)" fill="#ffc07b"/>
          <path id="Trazado_924138" data-name="Trazado 924138" d="M256.987,96.839a.407.407,0,0,1-.407-.406v-11.9a.407.407,0,0,1,.814,0v11.9a.407.407,0,0,1-.407.406" transform="translate(-118.631 -38.898)" fill="#ffc07b"/>
          <path id="Trazado_924139" data-name="Trazado 924139" d="M248.444,96.839a.407.407,0,0,1-.407-.406v-11.9a.407.407,0,0,1,.814,0v11.9a.407.407,0,0,1-.407.406" transform="translate(-114.681 -38.898)" fill="#ffc07b"/>
          <path id="Trazado_924140" data-name="Trazado 924140" d="M283.744,70.053c-11.748,0-23.987-6.165-30.366-12.768a.406.406,0,1,1,.584-.565c7.061,7.309,21.437,14.072,34.17,12.208a21.761,21.761,0,0,0,16.985-12.113.407.407,0,0,1,.723.374,22.82,22.82,0,0,1-17.59,12.544,31.136,31.136,0,0,1-4.506.32" transform="translate(-117.098 -26.167)" fill="#ffc07b"/>
          <path id="Trazado_924141" data-name="Trazado 924141" d="M298.712,67.7c-10.377,0-19.137-3.666-24.824-10.434a.407.407,0,1,1,.623-.523c5.881,7,15.16,10.584,26.155,10.1,10.564-.466,21.316-4.8,25.009-10.072a.407.407,0,0,1,.667.466c-3.825,5.464-14.848,9.942-25.64,10.419q-1,.044-1.989.044" transform="translate(-126.589 -26.167)" fill="#fff"/>
          <path id="Trazado_924142" data-name="Trazado 924142" d="M314.341,254.689a50.922,50.922,0,0,1-24.487-6.154.407.407,0,0,1,.4-.711c16.053,8.935,36.68,7.195,45.153.045a.407.407,0,0,1,.525.622c-4.582,3.866-12.617,6.2-21.586,6.2" transform="translate(-133.919 -114.559)" fill="#fff"/>
          <path id="Trazado_924143" data-name="Trazado 924143" d="M275.107,269.144a.409.409,0,0,1-.12-.018c-9.35-2.877-15.9-10.684-17.533-20.882a.407.407,0,0,1,.8-.128c1.579,9.885,7.923,17.448,16.97,20.232a.407.407,0,0,1-.12.8" transform="translate(-119.032 -114.559)" fill="#fff"/>
          <path id="Trazado_924144" data-name="Trazado 924144" d="M373.247,269.143a.407.407,0,0,1-.186-.769c11.142-5.711,17.759-12.174,20.826-20.338a.407.407,0,0,1,.761.286c-3.142,8.365-9.883,14.966-21.216,20.776a.4.4,0,0,1-.185.045" transform="translate(-172.384 -114.558)" fill="#fff"/>
          <path id="Trazado_924145" data-name="Trazado 924145" d="M335.158,269.143c-6.064,0-19.263-11.512-20.012-20.932a.407.407,0,0,1,.811-.065c.316,3.975,3.2,9,7.7,13.44,4.095,4.033,8.715,6.743,11.5,6.743a.407.407,0,1,1,0,.813" transform="translate(-145.708 -114.558)" fill="#ffc07b"/>
          <rect id="Rectángulo_404701" data-name="Rectángulo 404701" width="10.61" height="222.867" transform="translate(231.204 0.001)" fill="#2d3e4f"/>
          <rect id="Rectángulo_404702" data-name="Rectángulo 404702" width="10.61" height="222.867" transform="translate(116.232 0.001)" fill="#2d3e4f"/>
          <path id="Trazado_924146" data-name="Trazado 924146" d="M216.182,414.5v5.317h1.608l1.43-5.317Z" transform="translate(-99.953 -191.644)" fill="#365268"/>
          <path id="Trazado_924147" data-name="Trazado 924147" d="M447.15,414.525v5.317h-1.613l-1.425-5.317Z" transform="translate(-205.337 -191.657)" fill="#365268"/>
          <rect id="Rectángulo_404703" data-name="Rectángulo 404703" width="104.387" height="29.901" transform="translate(126.841 188.981)" fill="#365268"/>
          <path id="Trazado_924148" data-name="Trazado 924148" d="M335.419,390.739h-88.9a4.423,4.423,0,0,1,0-8.846h88.9a4.423,4.423,0,0,1,0,8.846" transform="translate(-111.933 -176.57)" fill="#4c9fd8"/>
          <rect id="Rectángulo_404704" data-name="Rectángulo 404704" width="33.047" height="4.437" transform="translate(134.338 207.528)" fill="#426f8e"/>
          <rect id="Rectángulo_404705" data-name="Rectángulo 404705" width="4.437" height="4.437" transform="translate(218.72 207.528)" fill="#426f8e"/>
          <rect id="Rectángulo_404706" data-name="Rectángulo 404706" width="4.437" height="4.437" transform="translate(211.48 207.528)" fill="#426f8e"/>
          <rect id="Rectángulo_404707" data-name="Rectángulo 404707" width="4.437" height="4.437" transform="translate(204.24 207.528)" fill="#426f8e"/>
          <path id="Trazado_924149" data-name="Trazado 924149" d="M316.309,389.213a1.053,1.053,0,1,1-1.054-1.054,1.054,1.054,0,0,1,1.054,1.054" transform="translate(-145.273 -179.467)" fill="#fff"/>
          <path id="Trazado_924150" data-name="Trazado 924150" d="M325.065,389.213a1.054,1.054,0,1,1-1.054-1.054,1.054,1.054,0,0,1,1.054,1.054" transform="translate(-149.321 -179.467)" fill="#fff"/>
          <path id="Trazado_924151" data-name="Trazado 924151" d="M333.821,389.213a1.054,1.054,0,1,1-1.054-1.054,1.054,1.054,0,0,1,1.054,1.054" transform="translate(-153.369 -179.467)" fill="#fff"/>
          <rect id="Rectángulo_404708" data-name="Rectángulo 404708" width="19.717" height="4.437" transform="translate(182.283 207.528)" fill="#2d3e4f"/>
          <path id="Trazado_924152" data-name="Trazado 924152" d="M338.689,390.487a.407.407,0,0,1-.407-.406v-4.438a.407.407,0,0,1,.814,0v4.438a.406.406,0,0,1-.407.406" transform="translate(-156.406 -178.115)" fill="#ffc07b"/>
          <path id="Trazado_924153" data-name="Trazado 924153" d="M342.164,390.487a.407.407,0,0,1-.407-.406v-4.438a.407.407,0,0,1,.814,0v4.438a.407.407,0,0,1-.407.406" transform="translate(-158.013 -178.115)" fill="#ffc07b"/>
          <path id="Trazado_924154" data-name="Trazado 924154" d="M335.419,367.933h-88.9a4.423,4.423,0,1,1,0-8.845h88.9a4.423,4.423,0,0,1,0,8.845" transform="translate(-111.933 -166.026)" fill="#4c9fd8"/>
          <rect id="Rectángulo_404709" data-name="Rectángulo 404709" width="33.047" height="4.437" transform="translate(134.338 195.266)" fill="#426f8e"/>
          <rect id="Rectángulo_404710" data-name="Rectángulo 404710" width="4.437" height="4.437" transform="translate(218.72 195.266)" fill="#426f8e"/>
          <rect id="Rectángulo_404711" data-name="Rectángulo 404711" width="4.437" height="4.437" transform="translate(211.48 195.266)" fill="#426f8e"/>
          <rect id="Rectángulo_404712" data-name="Rectángulo 404712" width="4.437" height="4.437" transform="translate(204.24 195.266)" fill="#426f8e"/>
          <path id="Trazado_924155" data-name="Trazado 924155" d="M316.309,366.408a1.053,1.053,0,1,1-1.054-1.054,1.054,1.054,0,0,1,1.054,1.054" transform="translate(-145.273 -168.923)" fill="#fff"/>
          <path id="Trazado_924156" data-name="Trazado 924156" d="M325.065,366.408a1.054,1.054,0,1,1-1.054-1.054,1.054,1.054,0,0,1,1.054,1.054" transform="translate(-149.321 -168.923)" fill="#fff"/>
          <path id="Trazado_924157" data-name="Trazado 924157" d="M333.821,366.408a1.054,1.054,0,1,1-1.054-1.054,1.054,1.054,0,0,1,1.054,1.054" transform="translate(-153.369 -168.923)" fill="#fff"/>
          <rect id="Rectángulo_404713" data-name="Rectángulo 404713" width="19.717" height="4.437" transform="translate(182.283 195.266)" fill="#2d3e4f"/>
          <path id="Trazado_924158" data-name="Trazado 924158" d="M338.689,367.682a.407.407,0,0,1-.407-.406v-4.438a.407.407,0,0,1,.814,0v4.438a.407.407,0,0,1-.407.406" transform="translate(-156.406 -167.571)" fill="#ffc07b"/>
          <path id="Trazado_924159" data-name="Trazado 924159" d="M342.164,367.682a.407.407,0,0,1-.407-.406v-4.438a.407.407,0,0,1,.814,0v4.438a.407.407,0,0,1-.407.406" transform="translate(-158.013 -167.571)" fill="#ffc07b"/>
          <path id="Trazado_924160" data-name="Trazado 924160" d="M345.639,367.682a.407.407,0,0,1-.407-.406v-4.438a.407.407,0,0,1,.814,0v4.438a.407.407,0,0,1-.407.406" transform="translate(-159.619 -167.571)" fill="#ffc07b"/>
          <path id="Trazado_924161" data-name="Trazado 924161" d="M349.115,367.682a.407.407,0,0,1-.408-.406v-4.438a.407.407,0,0,1,.814,0v4.438a.406.406,0,0,1-.406.406" transform="translate(-161.226 -167.571)" fill="#ffc07b"/>
          <path id="Trazado_924162" data-name="Trazado 924162" d="M352.29,367.682a.407.407,0,0,1-.407-.406v-4.438a.407.407,0,0,1,.814,0v4.438a.407.407,0,0,1-.407.406" transform="translate(-162.694 -167.571)" fill="#ffc07b"/>
          <rect id="Rectángulo_404714" data-name="Rectángulo 404714" width="104.387" height="3.971" transform="translate(126.841 185.01)" fill="#2d3e4f"/>
          <rect id="Rectángulo_404715" data-name="Rectángulo 404715" width="104.387" height="3.971" transform="translate(126.841 218.881)" fill="#2d3e4f"/>
          <path id="Trazado_924163" data-name="Trazado 924163" d="M120.946,185.849q-6.178,0-12.8-.546c-25.366-2.1-50.51-9.949-62.566-19.52a.407.407,0,1,1,.506-.637c11.754,9.331,37.3,17.286,62.127,19.346,29.248,2.426,52.489-3.335,63.771-15.8a.406.406,0,1,1,.6.545c-9.742,10.768-28.2,16.615-51.645,16.615" transform="translate(-21.005 -76.315)" fill="#ffc07b"/>
          <path id="Trazado_924164" data-name="Trazado 924164" d="M134.361,205.781c-30.169,0-70.577-25.549-88.777-40a.407.407,0,1,1,.506-.637c19.382,15.387,64.042,43.437,94.35,39.438,9.153-1.205,16.371-5.293,21.452-12.148a.406.406,0,1,1,.653.484c-5.217,7.039-12.619,11.235-22,12.471a47.381,47.381,0,0,1-6.186.39" transform="translate(-21.005 -76.315)" fill="#ffc07b"/>
          <path id="Trazado_924165" data-name="Trazado 924165" d="M90.8,118.022c-4.8,0-8.528-1.66-11.112-4.952a20.146,20.146,0,0,1-1.7-2.864c-2.023-3.841-4.535-8.622-10.912-6.728a.407.407,0,1,1-.231-.78c7.011-2.081,9.815,3.241,11.863,7.128a19.723,19.723,0,0,0,1.617,2.741c2.8,3.574,7.088,5.095,12.723,4.523,23.371-2.374,63.748-39.858,73.933-60.27a.407.407,0,0,1,.728.364C157.45,77.743,116.726,115.5,93.13,117.9a22.94,22.94,0,0,1-2.334.123" transform="translate(-30.771 -26.168)" fill="#ffc07b"/>
          <path id="Trazado_924166" data-name="Trazado 924166" d="M173.253,193.658l7.01,7.547,3.042-8.044-.608-12.319-9.479,1.653Z" transform="translate(-80.088 -83.613)" fill="#efbd9c"/>
          <path id="Trazado_924167" data-name="Trazado 924167" d="M170.49,167.258c.275,5.578,6.133,10.427,10.346,10.218s5.189-5.394,4.914-10.972-3.913-9.879-8.129-9.722c-5.913.219-7.406,4.9-7.131,10.476" transform="translate(-78.813 -72.487)" fill="#efbd9c"/>
          <path id="Trazado_924168" data-name="Trazado 924168" d="M165.905,160.9c-.18-5.161,4.118-7.484,5.8-7.139,1.81.371,2.273-.893,4.208-1.165,1.729-.243,3.049.591,4.717.465a3.278,3.278,0,0,1,3.711,2.29c.541,2-1.043,3.383-.919,4.874.129,1.548-1.993,2.16-2.069,2.505-.159.725.848,2.942.76,3.3s-.355.592-.618.518a5.7,5.7,0,0,1-1.056-.817,2.73,2.73,0,0,0-.8,3.322c.582,1.393-2.052,4.374-3.246,4.885-1.037.443-4.888.321-6.537.338-1.17.012-3.733-7.325-3.944-13.375" transform="translate(-76.704 -70.532)" fill="#2d1c12"/>
          <path id="Trazado_924169" data-name="Trazado 924169" d="M189.8,178.15c-.276-1.326.116-2.529.876-2.687s1.6.788,1.876,2.114-.116,2.529-.876,2.687-1.6-.788-1.876-2.113" transform="translate(-87.712 -81.118)" fill="#efbb95"/>
          <rect id="Rectángulo_404716" data-name="Rectángulo 404716" width="4.772" height="0.271" transform="translate(102.743 94.211) rotate(-1.365)" fill="#fff"/>
          <path id="Trazado_924170" data-name="Trazado 924170" d="M198.842,175.585l-.011-.271c.324-.012.52-.556.491-1.353a1.87,1.87,0,0,0-.412-1.268.262.262,0,0,0-.213-.07l-.04-.268a.534.534,0,0,1,.426.13,2.093,2.093,0,0,1,.51,1.466c.037.99-.251,1.616-.751,1.634" transform="translate(-91.85 -79.686)" fill="#2d1c12"/>
          <path id="Trazado_924171" data-name="Trazado 924171" d="M82.067,399.7l1.61-6.587,11.51,2.145-1.572,6.432Z" transform="translate(-37.944 -181.759)" fill="#efbd9c"/>
          <path id="Trazado_924172" data-name="Trazado 924172" d="M78.6,399.285c-1.62,1.172-2.484,3.947-3.722,5.817a14.648,14.648,0,0,1-2.535,3.031,1.15,1.15,0,0,1-1.867-1.081l2.641-15.621A1.15,1.15,0,0,1,74.5,390.5l5.573,1.212a8.363,8.363,0,0,0-1.468,7.574" transform="translate(-32.578 -180.537)" fill="#d6e8ed"/>
          <path id="Trazado_924173" data-name="Trazado 924173" d="M244.626,404.252l-6.418-.177-.448-12.811,6.609.4Z" transform="translate(-109.929 -180.902)" fill="#efbd9c"/>
          <path id="Trazado_924174" data-name="Trazado 924174" d="M244.9,412.555c1.418,1.409,4.3,1.814,6.342,2.733a14.64,14.64,0,0,1,3.4,2.012,1.15,1.15,0,0,1-.765,2.017l-15.843-.084a1.149,1.149,0,0,1-1.141-1.209l.3-5.695a8.361,8.361,0,0,0,7.711.225" transform="translate(-109.53 -190.642)" fill="#d6e8ed"/>
          <path id="Trazado_924175" data-name="Trazado 924175" d="M93.106,348.24l31.976,3.755s-6.461-29.207-7.2-37.761a60.7,60.7,0,0,1,.939-16.5l22.922,3.975c.621,6.781-2.209,18.549-2.209,18.549s3.681,41.481-5.682,44.661-41.621-6.777-41.621-6.777Z" transform="translate(-42.643 -137.658)" fill="#276c93"/>
          <path id="Trazado_924176" data-name="Trazado 924176" d="M123.677,372.247a81.5,81.5,0,0,1-13.054-1.362c-8.889-1.508-17.359-3.774-17.444-3.8l.069-.26c.084.023,8.544,2.286,17.421,3.792,11.7,1.986,18.8,1.772,20.539-.619,6.813-9.39-5.151-42.166-5.272-42.5l.252-.093a166.44,166.44,0,0,1,5.232,17.743c2.9,12.6,2.9,21.008,0,25-1.009,1.391-3.6,2.088-7.749,2.088" transform="translate(-43.082 -151.38)" fill="#3b8596"/>
          <path id="Trazado_924177" data-name="Trazado 924177" d="M164.688,288.582l6.782,10.444c.242.075,22.7-1.131,26.926,4.1,7.06,8.741,2.646,48.955,2.646,48.955a11.94,11.94,0,0,1-10.01.825l-5.179-36s-29.621,2.532-39.043-1.944c-7.615-3.617-6.713-13.514-5.7-21.464Z" transform="translate(-64.936 -133.427)" fill="#2f81b7"/>
          <path id="Trazado_924178" data-name="Trazado 924178" d="M202.3,357.1l-.269,0c.026-1.715.063-3.534.1-5.422.306-15.037.688-33.752-3.318-38.375-2.451-2.827-10.737-2.378-19.51-1.9-7.353.4-14.957.811-19.983-.625a8.168,8.168,0,0,1-5.521-4.312c-2.028-4.347.476-10.062.5-10.118l.246.11c-.025.056-2.48,5.661-.5,9.9a7.912,7.912,0,0,0,5.351,4.166c4.983,1.424,12.563,1.013,19.9.616,8.839-.479,17.19-.932,19.726,1.995,4.074,4.7,3.691,23.473,3.384,38.556-.038,1.887-.075,3.707-.1,5.421" transform="translate(-70.744 -137.013)" fill="#4e9aaf"/>
          <path id="Trazado_924179" data-name="Trazado 924179" d="M88.938,165.729c-1.738-1.056-1.956-5.457-2.677-6.9s-1.854-2.266-2.06-.824a9.435,9.435,0,0,0,.412,3.4,10.266,10.266,0,0,1-2.523-2.111c-1.233-1.56-1.7-2.934-2.677-2.78-1.322.209-3.038,3.192-2.883,4.324.142,1.04,1.441,2.832,2.934,4.479A35.136,35.136,0,0,0,84.3,169.23l5.272-4.88Z" transform="translate(-35.38 -72.359)" fill="#efbd9c"/>
          <path id="Trazado_924180" data-name="Trazado 924180" d="M279.724,214.729a3.556,3.556,0,0,1-.676,1.44l-.024.037-.054.079c-.314.461-.839,1.138-1.49,1.94l3.569,2.645.107-.157c.581-.842,1.109-1.589,1.548-2.181l.038-.051a8.406,8.406,0,0,1,1.1-1.311c1.3-.96,3.61-2.277,4.16-3.1.495-.743-.011-3.943-.332-5.062l-.02-.067v0a.918.918,0,0,0,.067-.83c-.465-.78-1.015-.4-1.638.071-.13.1-.255.2-.377.3h0l-.082.008a12.036,12.036,0,0,0-1.215.175c-.122.026-.183.14-.259.229a.518.518,0,0,1-.038.04.259.259,0,0,1-.082.055,2.7,2.7,0,0,0-1.116.719.479.479,0,0,0-.12.248.612.612,0,0,1-.028.211.234.234,0,0,1-.018.031.315.315,0,0,1-.051.055h0a2.435,2.435,0,0,0-.765,1.312c-.009.044-.016.085-.023.125l-.005,0a4,4,0,0,0-2.173,3.037" transform="translate(-128.294 -96.01)" fill="#efbd9c"/>
          <path id="Trazado_924181" data-name="Trazado 924181" d="M87.651,175.4l5.693-4.817,17.867,14.976L133.2,186.81,131.449,201.6s-14.538.068-23.918-4.657S87.651,175.4,87.651,175.4" transform="translate(-40.526 -78.868)" fill="#dd7c62"/>
          <path id="Trazado_924182" data-name="Trazado 924182" d="M173.471,258.1c1.168-1.635,1.977-36.987,2.294-42.322.274-4.623,1.2-12.224-3.147-14.379a8.1,8.1,0,0,0-4.65-1.173l-.663-.84-9.667-.329-.7.81c-4.373.085-6.081,1.631-7.7,3.612-1.947,2.388-3.075,6.875-3.722,10.246-1.692,8.818-3.576,18.1-4.272,22.688-.834,5.506-2.646,23.763-1.815,25.539s9.517-1.4,17.341-.7,15.531-1.518,16.7-3.153" transform="translate(-64.368 -92.036)" fill="#ef8e70"/>
          <path id="Trazado_924183" data-name="Trazado 924183" d="M204.148,212.466l-3.829-3.174,3.227,23.808a112.848,112.848,0,0,1,.569-12.013s.014-8.294.033-8.621" transform="translate(-92.618 -96.767)" fill="#dd7c62"/>
          <path id="Trazado_924184" data-name="Trazado 924184" d="M198,218.2s15.7,15.309,23.58,14.363c8.833-1.06,24.554-18.353,24.554-18.353a12.47,12.47,0,0,0-5.288-4.782L223.1,219.368s-14.737-11.173-18.867-14.551c-3.9-3.188-11.219-3.662-11.219-3.662Z" transform="translate(-89.242 -93.004)" fill="#ef8e70"/>
          <path id="Trazado_924185" data-name="Trazado 924185" d="M183.1,199.681l-.782-1.2a18.149,18.149,0,0,0-5.419-.87,24.458,24.458,0,0,0-4.5.481l-1.148,1.169c.435-.3,8.9-.276,11.845.416" transform="translate(-79.181 -91.367)" fill="#ffddd4"/>
          <path id="Trazado_924186" data-name="Trazado 924186" d="M285.654,227.113a.342.342,0,1,1-.46-.152.343.343,0,0,1,.46.152" transform="translate(-131.774 -104.919)" fill="#fff"/>
          <path id="Trazado_924187" data-name="Trazado 924187" d="M287.857,225.327a.342.342,0,1,1-.46-.152.343.343,0,0,1,.46.152" transform="translate(-132.792 -104.093)" fill="#fff"/>
        </g>
      </g>
    </g>
  </g>
</svg>
