<svg xmlns="http://www.w3.org/2000/svg" xmlns:xlink="http://www.w3.org/1999/xlink" width="85" height="85" viewBox="0 0 85 85">
  <defs>
    <clipPath id="clip-path">
      <rect id="Rectángulo_405144" data-name="Rectángulo 405144" width="85" height="85" transform="translate(757.051 4634)" fill="#fff" stroke="#707070" stroke-width="1"/>
    </clipPath>
  </defs>
  <g id="img16" transform="translate(-757.051 -4634)">
    <path id="Trazado_919707" data-name="Trazado 919707" d="M42.5,0A42.5,42.5,0,1,1,0,42.5,42.5,42.5,0,0,1,42.5,0Z" transform="translate(757.051 4634)" fill="#b0dcad"/>
    <g id="Enmascarar_grupo_1098780" data-name="Enmascarar grupo 1098780" clip-path="url(#clip-path)">
      <g id="riesgo" transform="translate(756.649 4633.599)">
        <g id="Grupo_1104043" data-name="Grupo 1104043">
          <path id="Trazado_925023" data-name="Trazado 925023" d="M10.962,28.558H24.225V81.729H10.962Z" fill="#ee2b39"/>
          <path id="Trazado_925024" data-name="Trazado 925024" d="M48.671,45.982H61.934V81.729H48.671Z" fill="#ffcb5b"/>
          <path id="Trazado_925025" data-name="Trazado 925025" d="M29.817,37.27H43.08V81.729H29.817Z" fill="#3cb54b"/>
          <path id="Trazado_925026" data-name="Trazado 925026" d="M67.525,54.694H80.789V81.729H67.525Z" fill="#11bef7"/>
          <path id="Trazado_925027" data-name="Trazado 925027" d="M75.159,40.5a1.005,1.005,0,0,1,1.259-1.568l4.318,3.473a1,1,0,0,1,.152,1.411.971.971,0,0,1-.48.328l-5.145,1.91a1,1,0,1,1-.7-1.876l1.582-.589a157.878,157.878,0,0,1-31.562-9.686C31.707,28.572,19.294,21.9,10.364,15.38a1,1,0,0,1,1.178-1.62c8.8,6.422,21.063,13.016,33.809,18.289a155.191,155.191,0,0,0,31.215,9.582L75.159,40.5Z" fill="#ee2b39"/>
          <g id="Grupo_1104042" data-name="Grupo 1104042">
            <path id="Trazado_925028" data-name="Trazado 925028" d="M1.409,3.01V82.793a1.339,1.339,0,0,0,1.335,1.335H82.522a1.339,1.339,0,0,0,1.335-1.335V81.1a1.336,1.336,0,0,0-1.335-1.335H5.77V3.01A1.342,1.342,0,0,0,4.435,1.675H2.744A1.339,1.339,0,0,0,1.409,3.01Z" fill="#a0a9b0" fill-rule="evenodd"/>
            <path id="Trazado_925029" data-name="Trazado 925029" d="M72.076,3.39a3.432,3.432,0,0,0-5.943,0L54.286,23.916a3.43,3.43,0,0,0,2.969,5.145h23.7a3.43,3.43,0,0,0,2.969-5.145L72.076,3.39Z" fill="#cd212d" fill-rule="evenodd"/>
            <path id="Trazado_925030" data-name="Trazado 925030" d="M60.946,29.061H80.955a3.43,3.43,0,0,0,2.969-5.145L72.228,3.656c-.09,0-.185-.01-.28-.01a3.126,3.126,0,0,0-2.755,1.591l-11,19.049a3.183,3.183,0,0,0,2.755,4.774Z" fill="#ee2b39" fill-rule="evenodd"/>
          </g>
          <path id="Trazado_925031" data-name="Trazado 925031" d="M68.1,9.808a1,1,0,1,1,2.009,0v9.045a1,1,0,1,1-2.009,0Z" fill="#ffcb5b"/>
          <path id="Trazado_925032" data-name="Trazado 925032" d="M68.1,23.19a1,1,0,0,1,2.009,0v.157a1,1,0,1,1-2.009,0Z" fill="#ffcb5b"/>
          <path id="Trazado_925033" data-name="Trazado 925033" d="M10.962,28.558h3.553v51.21H10.962Z" fill="#cd212d"/>
          <path id="Trazado_925034" data-name="Trazado 925034" d="M29.817,37.27h3.558v42.5H29.817Z" fill="#32a13f"/>
          <path id="Trazado_925035" data-name="Trazado 925035" d="M48.671,45.982h3.558V79.767H48.671Z" fill="#f7b84e"/>
          <path id="Trazado_925036" data-name="Trazado 925036" d="M67.525,54.694h3.558V79.767H67.525Z" fill="#00ade6"/>
        </g>
        <path id="Trazado_925037" data-name="Trazado 925037" d="M10.144,13.979a1.007,1.007,0,0,1,1.407-.22c17.143,12.509,44.871,24.306,65,27.862L75.16,40.506a1.007,1.007,0,1,1,1.261-1.57l4.3,3.456a1.01,1.01,0,0,1,.13.121.991.991,0,0,1,.094.12,1.007,1.007,0,0,1-.175,1.312h0a1,1,0,0,1-.124.093,1.017,1.017,0,0,1-.209.1l-5.173,1.926a1.007,1.007,0,0,1-.7-1.888l1.572-.585A159.2,159.2,0,0,1,43.561,33.48C30.791,28.114,19,21.688,10.364,15.386a1.007,1.007,0,0,1-.22-1.407ZM84.869,81.1v1.691a2.345,2.345,0,0,1-2.342,2.342H2.748A2.347,2.347,0,0,1,.4,82.793V3.01A2.347,2.347,0,0,1,2.748.668H4.435A2.345,2.345,0,0,1,6.777,3.01V78.76H9.955v-50.2a1.007,1.007,0,0,1,1.007-1.007H24.225a1.007,1.007,0,0,1,1.007,1.007v50.2h3.582V37.27a1.007,1.007,0,0,1,1.007-1.007H43.08a1.007,1.007,0,0,1,1.007,1.007V78.76h3.582V45.982a1.007,1.007,0,0,1,1.007-1.007H61.939a1.007,1.007,0,0,1,1.007,1.007V78.76h3.577V54.694a1.007,1.007,0,0,1,1.007-1.007H80.793A1.007,1.007,0,0,1,81.8,54.694V78.76h.727A2.345,2.345,0,0,1,84.869,81.1ZM68.537,78.76H79.786V55.7H68.537Zm-18.855,0H60.931V46.989H49.682Zm-18.854,0H42.072V38.277H30.828Zm-18.859,0H23.218v-49.2H11.969v49.2ZM82.854,81.1a.328.328,0,0,0-.328-.328H5.77a1.007,1.007,0,0,1-1.007-1.007V3.01a.332.332,0,0,0-.328-.328H2.748a.335.335,0,0,0-.332.328V82.793a.334.334,0,0,0,.332.328H82.527a.332.332,0,0,0,.328-.328V81.1Zm-29.44-53.25a4.395,4.395,0,0,1,0-4.439L65.266,2.886a4.435,4.435,0,0,1,7.682,0L84.8,23.413a4.437,4.437,0,0,1-3.841,6.655h-23.7a4.406,4.406,0,0,1-3.844-2.216Zm1.743-1.01a2.379,2.379,0,0,0,2.1,1.211h23.7a2.423,2.423,0,0,0,2.1-3.634L71.2,3.893h0a2.42,2.42,0,0,0-4.193,0L55.157,24.42a2.369,2.369,0,0,0,0,2.423ZM69.107,19.86a1.007,1.007,0,0,0,1.007-1.007V9.808a1.007,1.007,0,0,0-2.014,0v9.045A1.007,1.007,0,0,0,69.107,19.86Zm0,4.494a1.007,1.007,0,0,0,1.007-1.007V23.19a1.007,1.007,0,0,0-2.014,0v.157A1.007,1.007,0,0,0,69.107,24.353Z"/>
      </g>
    </g>
  </g>
</svg>
