<svg xmlns="http://www.w3.org/2000/svg" xmlns:xlink="http://www.w3.org/1999/xlink" width="46" height="46" viewBox="0 0 46 46">
  <defs>
    <clipPath id="clip-path">
      <rect id="img21" width="46" height="46" transform="translate(213.051 1099)" fill="#692cb7" stroke="#707070" stroke-width="1"/>
    </clipPath>
  </defs>
  <g id="img21-2" data-name="img21" transform="translate(-213.051 -1099)" clip-path="url(#clip-path)">
    <g id="descripcion-del-trabajo" transform="translate(213.051 1099)">
      <path id="Trazado_913574" data-name="Trazado 913574" d="M42.933,0H3.067A3.067,3.067,0,0,0,0,3.067V42.933A3.067,3.067,0,0,0,3.067,46H42.933A3.067,3.067,0,0,0,46,42.933V3.067A3.067,3.067,0,0,0,42.933,0Zm1.533,42.933a1.533,1.533,0,0,1-1.533,1.533H3.067a1.533,1.533,0,0,1-1.533-1.533V7.667H44.467Zm0-36.8H1.533V3.067A1.533,1.533,0,0,1,3.067,1.533H42.933a1.533,1.533,0,0,1,1.533,1.533Z" fill="#692cb7"/>
      <path id="Trazado_913575" data-name="Trazado 913575" d="M4.6,25.3a2.3,2.3,0,0,0,2.3,2.3H19.167a2.3,2.3,0,0,0,2.3-2.3V19.682a2.294,2.294,0,0,0,.767-1.713V15.333a2.3,2.3,0,0,0-2.3-2.3h-2.3v-.767a2.3,2.3,0,0,0-2.3-2.3h-4.6a2.3,2.3,0,0,0-2.3,2.3v.767h-2.3a2.3,2.3,0,0,0-2.3,2.3v2.636A2.294,2.294,0,0,0,4.6,19.682Zm15.333,0a.767.767,0,0,1-.767.767H6.9a.767.767,0,0,1-.767-.767V20.34l3.833.958v.935a2.3,2.3,0,0,0,2.3,2.3H13.8a2.3,2.3,0,0,0,2.3-2.3V21.3l3.833-.958ZM11.5,22.233v-.767h3.067v.767A.767.767,0,0,1,13.8,23H12.267A.767.767,0,0,1,11.5,22.233ZM9.967,12.267a.767.767,0,0,1,.767-.767h4.6a.767.767,0,0,1,.767.767v.767H9.967Zm-4.6,3.067a.767.767,0,0,1,.767-.767h13.8a.767.767,0,0,1,.767.767v2.636a.767.767,0,0,1-.581.744l-4.88,1.22H10.828l-4.88-1.22a.767.767,0,0,1-.581-.744Z" fill="#692cb7"/>
      <path id="Trazado_913576" data-name="Trazado 913576" d="M4.6,3.067H3.833a.767.767,0,1,0,0,1.533H4.6a.767.767,0,1,0,0-1.533Z" fill="#692cb7"/>
      <path id="Trazado_913577" data-name="Trazado 913577" d="M8.433,3.067H7.667a.767.767,0,1,0,0,1.533h.767a.767.767,0,0,0,0-1.533Z" fill="#692cb7"/>
      <path id="Trazado_913578" data-name="Trazado 913578" d="M12.267,3.067H11.5a.767.767,0,0,0,0,1.533h.767a.767.767,0,0,0,0-1.533Z" fill="#692cb7"/>
      <path id="Trazado_913579" data-name="Trazado 913579" d="M42.167,3.067h-4.6a.767.767,0,0,0,0,1.533h4.6a.767.767,0,1,0,0-1.533Z" fill="#692cb7"/>
      <path id="Trazado_913580" data-name="Trazado 913580" d="M40.633,30.667H5.367a.767.767,0,0,0,0,1.533H40.633a.767.767,0,0,0,0-1.533Z" fill="#692cb7"/>
      <path id="Trazado_913581" data-name="Trazado 913581" d="M40.633,35.267H5.367a.767.767,0,1,0,0,1.533H40.633a.767.767,0,1,0,0-1.533Z" fill="#692cb7"/>
      <path id="Trazado_913582" data-name="Trazado 913582" d="M25.3,39.867H5.367a.767.767,0,1,0,0,1.533H25.3a.767.767,0,0,0,0-1.533Z" fill="#692cb7"/>
      <path id="Trazado_913583" data-name="Trazado 913583" d="M25.525,15.109a.767.767,0,0,0,.542.225h.054a.767.767,0,0,0,.559-.307l2.3-3.067a.767.767,0,0,0-1.227-.92L25.984,13.4l-.142-.142a.767.767,0,1,0-1.084,1.084Z" fill="#692cb7"/>
      <path id="Trazado_913584" data-name="Trazado 913584" d="M32.2,12.267h8.433a.767.767,0,0,0,0-1.533H32.2a.767.767,0,1,0,0,1.533Z" fill="#692cb7"/>
      <path id="Trazado_913585" data-name="Trazado 913585" d="M32.2,15.333h4.6a.767.767,0,0,0,0-1.533H32.2a.767.767,0,1,0,0,1.533Z" fill="#692cb7"/>
      <path id="Trazado_913586" data-name="Trazado 913586" d="M25.525,21.242a.767.767,0,0,0,.542.225h.054a.767.767,0,0,0,.559-.307l2.3-3.067a.767.767,0,0,0-1.227-.92l-1.769,2.36-.142-.142a.767.767,0,1,0-1.084,1.084Z" fill="#692cb7"/>
      <path id="Trazado_913587" data-name="Trazado 913587" d="M32.2,18.4h8.433a.767.767,0,1,0,0-1.533H32.2a.767.767,0,1,0,0,1.533Z" fill="#692cb7"/>
      <path id="Trazado_913588" data-name="Trazado 913588" d="M32.2,21.467h4.6a.767.767,0,0,0,0-1.533H32.2a.767.767,0,1,0,0,1.533Z" fill="#692cb7"/>
      <path id="Trazado_913589" data-name="Trazado 913589" d="M25.525,27.375a.767.767,0,0,0,.542.225h.054a.767.767,0,0,0,.559-.307l2.3-3.067a.767.767,0,1,0-1.227-.92l-1.769,2.36-.142-.142a.767.767,0,1,0-1.084,1.084Z" fill="#692cb7"/>
      <path id="Trazado_913590" data-name="Trazado 913590" d="M32.2,24.533h8.433a.767.767,0,0,0,0-1.533H32.2a.767.767,0,1,0,0,1.533Z" fill="#692cb7"/>
      <path id="Trazado_913591" data-name="Trazado 913591" d="M32.2,27.6h4.6a.767.767,0,0,0,0-1.533H32.2a.767.767,0,1,0,0,1.533Z" fill="#692cb7"/>
    </g>
  </g>
</svg>
