<svg xmlns="http://www.w3.org/2000/svg" xmlns:xlink="http://www.w3.org/1999/xlink" width="295" height="241.585" viewBox="0 0 295 241.585">
  <defs>
    <clipPath id="clip-path">
      <rect id="Rectángulo_404817" data-name="Rectángulo 404817" width="189.219" height="221.699" fill="none"/>
    </clipPath>
  </defs>
  <g id="img20" transform="translate(-600 -2737.465)">
    <rect id="Rectángulo_402941" data-name="Rectángulo 402941" width="295" height="163" rx="10" transform="translate(600 2816.05)" fill="#d7eed6"/>
    <g id="Grupo_1103759" data-name="Grupo 1103759" transform="translate(667.332 2737.465)">
      <rect id="Rectángulo_404718" data-name="Rectángulo 404718" width="103.26" height="20.335" transform="translate(10.485 114.728)" fill="#365268"/>
      <g id="Grupo_1103758" data-name="Grupo 1103758">
        <g id="Grupo_1103757" data-name="Grupo 1103757" clip-path="url(#clip-path)">
          <path id="Trazado_924188" data-name="Trazado 924188" d="M190.553,232.5a2.656,2.656,0,1,0,2.657-2.657,2.657,2.657,0,0,0-2.657,2.657" transform="translate(-89.209 -107.602)" fill="#4c9fd8"/>
          <path id="Trazado_924189" data-name="Trazado 924189" d="M154.085,232.5a2.656,2.656,0,1,0,2.657-2.657,2.657,2.657,0,0,0-2.657,2.657" transform="translate(-72.136 -107.602)" fill="#4c9fd8"/>
          <rect id="Rectángulo_404719" data-name="Rectángulo 404719" width="7.511" height="1.687" transform="translate(90.547 124.051)" fill="#4c9fd8"/>
          <rect id="Rectángulo_404720" data-name="Rectángulo 404720" width="7.511" height="1.687" transform="translate(58.988 124.051)" fill="#4c9fd8"/>
          <rect id="Rectángulo_404721" data-name="Rectángulo 404721" width="5.313" height="5.313" transform="translate(69.786 122.239)" fill="#4c9fd8"/>
          <rect id="Rectángulo_404722" data-name="Rectángulo 404722" width="5.313" height="5.313" transform="translate(50.39 122.239)" fill="#4c9fd8"/>
          <path id="Trazado_924190" data-name="Trazado 924190" d="M69.247,232.5A2.656,2.656,0,1,0,71.9,229.84a2.657,2.657,0,0,0-2.657,2.657" transform="translate(-32.419 -107.602)" fill="#4c9fd8"/>
          <path id="Trazado_924191" data-name="Trazado 924191" d="M32.779,232.5a2.656,2.656,0,1,0,2.657-2.657,2.657,2.657,0,0,0-2.657,2.657" transform="translate(-15.346 -107.602)" fill="#4c9fd8"/>
          <rect id="Rectángulo_404723" data-name="Rectángulo 404723" width="7.511" height="1.687" transform="translate(26.031 124.051)" fill="#4c9fd8"/>
          <rect id="Rectángulo_404724" data-name="Rectángulo 404724" width="103.26" height="20.335" transform="translate(10.485 135.063)" fill="#426f8e"/>
          <path id="Trazado_924192" data-name="Trazado 924192" d="M190.663,270.733a2.656,2.656,0,1,0,2.657-2.657,2.657,2.657,0,0,0-2.657,2.657" transform="translate(-89.261 -125.502)" fill="#4c9fd8"/>
          <path id="Trazado_924193" data-name="Trazado 924193" d="M154.195,270.733a2.656,2.656,0,1,0,2.657-2.657,2.657,2.657,0,0,0-2.657,2.657" transform="translate(-72.188 -125.502)" fill="#4c9fd8"/>
          <rect id="Rectángulo_404725" data-name="Rectángulo 404725" width="7.511" height="1.687" transform="translate(90.606 144.387)" fill="#4c9fd8"/>
          <rect id="Rectángulo_404726" data-name="Rectángulo 404726" width="7.511" height="1.687" transform="translate(58.988 144.387)" fill="#4c9fd8"/>
          <rect id="Rectángulo_404727" data-name="Rectángulo 404727" width="5.313" height="5.313" transform="translate(69.786 142.574)" fill="#4c9fd8"/>
          <rect id="Rectángulo_404728" data-name="Rectángulo 404728" width="5.313" height="5.313" transform="translate(50.39 142.574)" fill="#4c9fd8"/>
          <path id="Trazado_924194" data-name="Trazado 924194" d="M69.137,270.733a2.656,2.656,0,1,0,2.657-2.657,2.657,2.657,0,0,0-2.657,2.657" transform="translate(-32.367 -125.502)" fill="#4c9fd8"/>
          <path id="Trazado_924195" data-name="Trazado 924195" d="M32.669,270.733a2.656,2.656,0,1,0,2.657-2.657,2.657,2.657,0,0,0-2.657,2.657" transform="translate(-15.294 -125.502)" fill="#4c9fd8"/>
          <rect id="Rectángulo_404729" data-name="Rectángulo 404729" width="7.511" height="1.687" transform="translate(25.973 144.387)" fill="#4c9fd8"/>
          <rect id="Rectángulo_404730" data-name="Rectángulo 404730" width="103.26" height="20.335" transform="translate(10.485 94.392)" fill="#426f8e"/>
          <rect id="Rectángulo_404731" data-name="Rectángulo 404731" width="3.234" height="3.234" transform="translate(103.566 106.207)" fill="#4c9fd8"/>
          <rect id="Rectángulo_404732" data-name="Rectángulo 404732" width="3.234" height="3.234" transform="translate(97.887 106.207)" fill="#4c9fd8"/>
          <rect id="Rectángulo_404733" data-name="Rectángulo 404733" width="3.234" height="3.234" transform="translate(92.209 106.207)" fill="#4c9fd8"/>
          <path id="Trazado_924196" data-name="Trazado 924196" d="M175.368,187.423h10.607a1.992,1.992,0,0,1,0,3.985H175.368a1.992,1.992,0,0,1,0-3.985" transform="translate(-81.168 -87.744)" fill="#2d3e4f"/>
          <rect id="Rectángulo_404734" data-name="Rectángulo 404734" width="3.234" height="3.234" transform="translate(78.641 106.207)" fill="#4c9fd8"/>
          <rect id="Rectángulo_404735" data-name="Rectángulo 404735" width="3.234" height="3.234" transform="translate(72.962 106.207)" fill="#4c9fd8"/>
          <rect id="Rectángulo_404736" data-name="Rectángulo 404736" width="3.234" height="3.234" transform="translate(67.283 106.207)" fill="#4c9fd8"/>
          <path id="Trazado_924197" data-name="Trazado 924197" d="M128.5,187.423h10.607a1.992,1.992,0,0,1,0,3.985H128.5a1.992,1.992,0,1,1,0-3.985" transform="translate(-59.226 -87.744)" fill="#2d3e4f"/>
          <rect id="Rectángulo_404737" data-name="Rectángulo 404737" width="3.234" height="3.234" transform="translate(53.715 106.207)" fill="#4c9fd8"/>
          <rect id="Rectángulo_404738" data-name="Rectángulo 404738" width="3.234" height="3.234" transform="translate(48.036 106.207)" fill="#4c9fd8"/>
          <rect id="Rectángulo_404739" data-name="Rectángulo 404739" width="3.234" height="3.234" transform="translate(42.357 106.207)" fill="#4c9fd8"/>
          <path id="Trazado_924198" data-name="Trazado 924198" d="M81.634,187.423H92.241a1.992,1.992,0,1,1,0,3.985H81.634a1.992,1.992,0,1,1,0-3.985" transform="translate(-37.285 -87.744)" fill="#2d3e4f"/>
          <rect id="Rectángulo_404740" data-name="Rectángulo 404740" width="3.234" height="3.234" transform="translate(28.789 106.207)" fill="#4c9fd8"/>
          <rect id="Rectángulo_404741" data-name="Rectángulo 404741" width="3.234" height="3.234" transform="translate(23.11 106.207)" fill="#4c9fd8"/>
          <rect id="Rectángulo_404742" data-name="Rectángulo 404742" width="3.234" height="3.234" transform="translate(17.431 106.207)" fill="#4c9fd8"/>
          <path id="Trazado_924199" data-name="Trazado 924199" d="M34.767,187.423H45.374a1.992,1.992,0,1,1,0,3.985H34.767a1.992,1.992,0,1,1,0-3.985" transform="translate(-15.344 -87.744)" fill="#2d3e4f"/>
          <path id="Trazado_924200" data-name="Trazado 924200" d="M63.772,210.154c-3.051,0-5.781-2.836-7.338-7.647a.4.4,0,0,1,.766-.248c1.478,4.568,4,7.222,6.769,7.086,2.738-.13,5.1-2.9,6.023-7.049a.4.4,0,1,1,.785.174c-1,4.516-3.658,7.531-6.77,7.679-.078,0-.157.005-.235.005" transform="translate(-26.411 -94.559)" fill="#fff"/>
          <rect id="Rectángulo_404743" data-name="Rectángulo 404743" width="103.26" height="20.335" transform="translate(10.485 74.057)" fill="#365268"/>
          <rect id="Rectángulo_404744" data-name="Rectángulo 404744" width="5.313" height="5.313" transform="translate(32.032 81.706)" fill="#4c9fd8"/>
          <rect id="Rectángulo_404745" data-name="Rectángulo 404745" width="5.313" height="5.313" transform="translate(24.736 81.706)" fill="#4c9fd8"/>
          <rect id="Rectángulo_404746" data-name="Rectángulo 404746" width="5.313" height="5.313" transform="translate(17.441 81.706)" fill="#4c9fd8"/>
          <path id="Trazado_924201" data-name="Trazado 924201" d="M89.971,150.358h52.5a4.4,4.4,0,0,1,0,8.792h-52.5a4.4,4.4,0,0,1,0-8.792" transform="translate(-40.063 -70.391)" fill="#4c9fd8"/>
          <rect id="Rectángulo_404747" data-name="Rectángulo 404747" width="24.297" height="3.322" transform="translate(49.784 82.701)" fill="#2d3e4f"/>
          <path id="Trazado_924202" data-name="Trazado 924202" d="M186.544,156.285a2.656,2.656,0,1,1,2.657,2.657,2.656,2.656,0,0,1-2.657-2.657" transform="translate(-87.332 -71.922)" fill="#3c86af"/>
          <path id="Trazado_924203" data-name="Trazado 924203" d="M176.694,157.865a.862.862,0,1,1,.862.862.861.861,0,0,1-.862-.862" transform="translate(-82.721 -73.502)" fill="#fff"/>
          <path id="Trazado_924204" data-name="Trazado 924204" d="M164.894,157.16a1.661,1.661,0,1,1,1.661,1.661,1.661,1.661,0,0,1-1.661-1.661" transform="translate(-77.197 -72.798)" fill="#3c86af"/>
          <path id="Trazado_924205" data-name="Trazado 924205" d="M154.6,157.16a1.661,1.661,0,1,1,1.661,1.661,1.662,1.662,0,0,1-1.661-1.661" transform="translate(-72.377 -72.798)" fill="#3c86af"/>
          <path id="Trazado_924206" data-name="Trazado 924206" d="M144.3,157.16a1.661,1.661,0,1,1,1.661,1.661,1.661,1.661,0,0,1-1.661-1.661" transform="translate(-67.557 -72.798)" fill="#3c86af"/>
          <path id="Trazado_924207" data-name="Trazado 924207" d="M46.139,182.133a.4.4,0,0,1-.317-.649c4.884-6.269,9.877-13.93,9.877-23.214a.4.4,0,1,1,.8,0c0,9.527-5.079,17.331-10.047,23.708a.4.4,0,0,1-.318.155" transform="translate(-21.412 -73.907)" fill="#ffc07b"/>
          <path id="Trazado_924208" data-name="Trazado 924208" d="M88.682,184.741A45.489,45.489,0,0,1,74.1,182.076c-13.412-4.683-21.967-13.743-22.886-24.235a.4.4,0,0,1,.8-.07c.889,10.167,9.244,18.969,22.349,23.546,10.032,3.5,20.528,3.468,23.9-.079a.4.4,0,1,1,.583.554c-1.863,1.963-5.575,2.95-10.166,2.95" transform="translate(-23.977 -73.69)" fill="#ffc07b"/>
          <rect id="Rectángulo_404748" data-name="Rectángulo 404748" width="103.26" height="20.335" transform="translate(10.485 155.398)" fill="#365268"/>
          <rect id="Rectángulo_404749" data-name="Rectángulo 404749" width="3.234" height="3.234" transform="translate(103.566 160.685)" fill="#4c9fd8"/>
          <rect id="Rectángulo_404750" data-name="Rectángulo 404750" width="3.234" height="3.234" transform="translate(97.887 160.685)" fill="#4c9fd8"/>
          <rect id="Rectángulo_404751" data-name="Rectángulo 404751" width="3.234" height="3.234" transform="translate(92.209 160.685)" fill="#4c9fd8"/>
          <path id="Trazado_924209" data-name="Trazado 924209" d="M175.368,316.976h10.607a1.992,1.992,0,0,0,0-3.985H175.368a1.992,1.992,0,0,0,0,3.985" transform="translate(-81.168 -146.529)" fill="#2d3e4f"/>
          <rect id="Rectángulo_404752" data-name="Rectángulo 404752" width="3.234" height="3.234" transform="translate(78.641 160.685)" fill="#4c9fd8"/>
          <rect id="Rectángulo_404753" data-name="Rectángulo 404753" width="3.234" height="3.234" transform="translate(72.962 160.685)" fill="#4c9fd8"/>
          <rect id="Rectángulo_404754" data-name="Rectángulo 404754" width="3.234" height="3.234" transform="translate(67.283 160.685)" fill="#4c9fd8"/>
          <path id="Trazado_924210" data-name="Trazado 924210" d="M128.5,316.976h10.607a1.992,1.992,0,0,0,0-3.985H128.5a1.992,1.992,0,0,0,0,3.985" transform="translate(-59.226 -146.529)" fill="#2d3e4f"/>
          <rect id="Rectángulo_404755" data-name="Rectángulo 404755" width="3.234" height="3.234" transform="translate(53.715 160.685)" fill="#4c9fd8"/>
          <rect id="Rectángulo_404756" data-name="Rectángulo 404756" width="3.234" height="3.234" transform="translate(48.036 160.685)" fill="#4c9fd8"/>
          <rect id="Rectángulo_404757" data-name="Rectángulo 404757" width="3.234" height="3.234" transform="translate(42.357 160.685)" fill="#4c9fd8"/>
          <path id="Trazado_924211" data-name="Trazado 924211" d="M81.634,316.976H92.241a1.992,1.992,0,0,0,0-3.985H81.634a1.992,1.992,0,0,0,0,3.985" transform="translate(-37.285 -146.529)" fill="#2d3e4f"/>
          <rect id="Rectángulo_404758" data-name="Rectángulo 404758" width="3.234" height="3.234" transform="translate(28.789 160.685)" fill="#4c9fd8"/>
          <rect id="Rectángulo_404759" data-name="Rectángulo 404759" width="3.234" height="3.234" transform="translate(23.11 160.685)" fill="#4c9fd8"/>
          <rect id="Rectángulo_404760" data-name="Rectángulo 404760" width="3.234" height="3.234" transform="translate(17.431 160.685)" fill="#4c9fd8"/>
          <path id="Trazado_924212" data-name="Trazado 924212" d="M34.767,316.976H45.374a1.992,1.992,0,0,0,0-3.985H34.767a1.992,1.992,0,0,0,0,3.985" transform="translate(-15.344 -146.529)" fill="#2d3e4f"/>
          <rect id="Rectángulo_404761" data-name="Rectángulo 404761" width="103.26" height="20.335" transform="translate(10.485 175.739)" fill="#426f8e"/>
          <rect id="Rectángulo_404762" data-name="Rectángulo 404762" width="3.234" height="3.234" transform="translate(103.566 181.026)" fill="#4c9fd8"/>
          <rect id="Rectángulo_404763" data-name="Rectángulo 404763" width="3.234" height="3.234" transform="translate(97.887 181.026)" fill="#4c9fd8"/>
          <rect id="Rectángulo_404764" data-name="Rectángulo 404764" width="3.234" height="3.234" transform="translate(92.209 181.026)" fill="#4c9fd8"/>
          <path id="Trazado_924213" data-name="Trazado 924213" d="M175.368,355.223h10.607a1.992,1.992,0,0,0,0-3.985H175.368a1.992,1.992,0,0,0,0,3.985" transform="translate(-81.168 -164.435)" fill="#2d3e4f"/>
          <rect id="Rectángulo_404765" data-name="Rectángulo 404765" width="3.234" height="3.234" transform="translate(78.641 181.026)" fill="#4c9fd8"/>
          <rect id="Rectángulo_404766" data-name="Rectángulo 404766" width="3.234" height="3.234" transform="translate(72.962 181.026)" fill="#4c9fd8"/>
          <rect id="Rectángulo_404767" data-name="Rectángulo 404767" width="3.234" height="3.234" transform="translate(67.283 181.026)" fill="#4c9fd8"/>
          <path id="Trazado_924214" data-name="Trazado 924214" d="M128.5,355.223h10.607a1.992,1.992,0,0,0,0-3.985H128.5a1.992,1.992,0,0,0,0,3.985" transform="translate(-59.226 -164.435)" fill="#2d3e4f"/>
          <rect id="Rectángulo_404768" data-name="Rectángulo 404768" width="3.234" height="3.234" transform="translate(53.715 181.026)" fill="#4c9fd8"/>
          <rect id="Rectángulo_404769" data-name="Rectángulo 404769" width="3.234" height="3.234" transform="translate(48.036 181.026)" fill="#4c9fd8"/>
          <rect id="Rectángulo_404770" data-name="Rectángulo 404770" width="3.234" height="3.234" transform="translate(42.357 181.026)" fill="#4c9fd8"/>
          <path id="Trazado_924215" data-name="Trazado 924215" d="M81.634,355.223H92.241a1.992,1.992,0,0,0,0-3.985H81.634a1.992,1.992,0,0,0,0,3.985" transform="translate(-37.285 -164.435)" fill="#2d3e4f"/>
          <rect id="Rectángulo_404771" data-name="Rectángulo 404771" width="3.234" height="3.234" transform="translate(28.789 181.026)" fill="#4c9fd8"/>
          <rect id="Rectángulo_404772" data-name="Rectángulo 404772" width="3.234" height="3.234" transform="translate(23.11 181.026)" fill="#4c9fd8"/>
          <rect id="Rectángulo_404773" data-name="Rectángulo 404773" width="3.234" height="3.234" transform="translate(17.431 181.026)" fill="#4c9fd8"/>
          <path id="Trazado_924216" data-name="Trazado 924216" d="M34.767,355.223H45.374a1.992,1.992,0,0,0,0-3.985H34.767a1.992,1.992,0,0,0,0,3.985" transform="translate(-15.344 -164.435)" fill="#2d3e4f"/>
          <rect id="Rectángulo_404774" data-name="Rectángulo 404774" width="103.26" height="20.335" transform="translate(10.485 196.011)" fill="#365268"/>
          <rect id="Rectángulo_404775" data-name="Rectángulo 404775" width="3.234" height="3.234" transform="translate(103.566 201.298)" fill="#4c9fd8"/>
          <rect id="Rectángulo_404776" data-name="Rectángulo 404776" width="3.234" height="3.234" transform="translate(97.887 201.298)" fill="#4c9fd8"/>
          <rect id="Rectángulo_404777" data-name="Rectángulo 404777" width="3.234" height="3.234" transform="translate(92.209 201.298)" fill="#4c9fd8"/>
          <path id="Trazado_924217" data-name="Trazado 924217" d="M175.368,393.339h10.607a1.992,1.992,0,0,0,0-3.985H175.368a1.992,1.992,0,0,0,0,3.985" transform="translate(-81.168 -182.28)" fill="#2d3e4f"/>
          <rect id="Rectángulo_404778" data-name="Rectángulo 404778" width="3.234" height="3.234" transform="translate(78.641 201.298)" fill="#4c9fd8"/>
          <rect id="Rectángulo_404779" data-name="Rectángulo 404779" width="3.234" height="3.234" transform="translate(72.962 201.298)" fill="#4c9fd8"/>
          <rect id="Rectángulo_404780" data-name="Rectángulo 404780" width="3.234" height="3.234" transform="translate(67.283 201.298)" fill="#4c9fd8"/>
          <path id="Trazado_924218" data-name="Trazado 924218" d="M128.5,393.339h10.607a1.992,1.992,0,0,0,0-3.985H128.5a1.992,1.992,0,0,0,0,3.985" transform="translate(-59.226 -182.28)" fill="#2d3e4f"/>
          <rect id="Rectángulo_404781" data-name="Rectángulo 404781" width="3.234" height="3.234" transform="translate(53.715 201.298)" fill="#4c9fd8"/>
          <rect id="Rectángulo_404782" data-name="Rectángulo 404782" width="3.234" height="3.234" transform="translate(48.036 201.298)" fill="#4c9fd8"/>
          <rect id="Rectángulo_404783" data-name="Rectángulo 404783" width="3.234" height="3.234" transform="translate(42.357 201.298)" fill="#4c9fd8"/>
          <path id="Trazado_924219" data-name="Trazado 924219" d="M81.634,393.339H92.241a1.992,1.992,0,0,0,0-3.985H81.634a1.992,1.992,0,1,0,0,3.985" transform="translate(-37.285 -182.28)" fill="#2d3e4f"/>
          <rect id="Rectángulo_404784" data-name="Rectángulo 404784" width="3.234" height="3.234" transform="translate(28.789 201.298)" fill="#4c9fd8"/>
          <rect id="Rectángulo_404785" data-name="Rectángulo 404785" width="3.234" height="3.234" transform="translate(23.11 201.298)" fill="#4c9fd8"/>
          <rect id="Rectángulo_404786" data-name="Rectángulo 404786" width="3.234" height="3.234" transform="translate(17.431 201.298)" fill="#4c9fd8"/>
          <path id="Trazado_924220" data-name="Trazado 924220" d="M34.767,393.339H45.374a1.992,1.992,0,0,0,0-3.985H34.767a1.992,1.992,0,1,0,0,3.985" transform="translate(-15.344 -182.28)" fill="#2d3e4f"/>
          <path id="Trazado_924221" data-name="Trazado 924221" d="M97.914,240.92a50.374,50.374,0,0,1-24.222-6.087.4.4,0,0,1,.391-.7c15.879,8.838,36.284,7.117,44.666.044a.4.4,0,1,1,.519.615c-4.532,3.824-12.481,6.131-21.353,6.131" transform="translate(-34.402 -109.586)" fill="#fff"/>
          <path id="Trazado_924222" data-name="Trazado 924222" d="M61.087,255.219a.4.4,0,0,1-.119-.018c-8.572-2.638-17.98-10.048-19.674-20.657a.4.4,0,1,1,.795-.127c1.64,10.267,10.783,17.45,19.117,20.015a.4.4,0,0,1-.118.787" transform="translate(-19.33 -109.586)" fill="#fff"/>
          <path id="Trazado_924223" data-name="Trazado 924223" d="M118.782,255.218c-6,0-19.055-11.388-19.8-20.706a.4.4,0,1,1,.8-.064c.313,3.932,3.161,8.9,7.619,13.294,4.05,3.99,8.622,6.67,11.375,6.67a.4.4,0,0,1,0,.805" transform="translate(-46.341 -109.585)" fill="#ffc07b"/>
          <rect id="Rectángulo_404787" data-name="Rectángulo 404787" width="10.495" height="216.403" transform="translate(113.745 0)" fill="#2d3e4f"/>
          <rect id="Rectángulo_404788" data-name="Rectángulo 404788" width="10.495" height="216.403" transform="translate(0.014 0)" fill="#2d3e4f"/>
          <path id="Trazado_924224" data-name="Trazado 924224" d="M38.389,349.463a1.741,1.741,0,0,1-.647-.125c-1.33-.531-2.257-2.684-2.682-6.228a.4.4,0,0,1,.8-.1c.535,4.461,1.7,5.386,2.181,5.576a1.169,1.169,0,0,0,1.215-.3,5.824,5.824,0,0,0,1.49-5.152.4.4,0,0,1,.789-.155,6.6,6.6,0,0,1-1.765,5.927,2.171,2.171,0,0,1-1.38.553" transform="translate(-16.412 -160.419)" fill="#fff"/>
          <path id="Trazado_924225" data-name="Trazado 924225" d="M41.395,349.942c-1.637,0-4.273-1.032-6.313-6.745a.4.4,0,0,1,.758-.271c1.522,4.263,3.622,6.455,5.915,6.191,2.236-.264,4.328-3,4.664-6.1a.4.4,0,0,1,.8.088c-.38,3.508-2.739,6.5-5.369,6.81a3.788,3.788,0,0,1-.454.027" transform="translate(-16.412 -160.419)" fill="#ffc07b"/>
          <path id="Trazado_924226" data-name="Trazado 924226" d="M93.685,363.737a.4.4,0,0,1-.2-.051c-7.686-4.267-11.382-13.677-11.565-20.614a.4.4,0,0,1,.391-.412.411.411,0,0,1,.413.391c.177,6.716,3.742,15.817,11.152,19.931a.4.4,0,0,1-.2.754" transform="translate(-38.354 -160.419)" fill="#ffc07b"/>
          <path id="Trazado_924227" data-name="Trazado 924227" d="M93.893,363.765q-.473,0-.914-.03a.4.4,0,0,1-.374-.428.408.408,0,0,1,.428-.374c4.7.322,12.773-2.183,18.457-7.444,3.905-3.613,5.994-7.912,6.04-12.432a.4.4,0,0,1,.4-.4h0a.4.4,0,0,1,.4.407c-.048,4.747-2.226,9.247-6.3,13.014-5.565,5.148-13.11,7.685-18.143,7.685" transform="translate(-43.353 -160.419)" fill="#fff"/>
          <path id="Trazado_924228" data-name="Trazado 924228" d="M0,406.962v5.26H1.59L3,406.962Z" transform="translate(0 -190.523)" fill="#365268"/>
          <path id="Trazado_924229" data-name="Trazado 924229" d="M230.935,406.891v5.26h-1.6l-1.409-5.26Z" transform="translate(-106.707 -190.489)" fill="#365268"/>
          <path id="Trazado_924230" data-name="Trazado 924230" d="M141.61,208.765q-.679,0-1.37-.05c-5.065-.366-9.539-2.775-11.4-6.137a.4.4,0,1,1,.7-.39c1.731,3.13,5.952,5.377,10.753,5.724a15.176,15.176,0,0,0,13.5-5.773.4.4,0,1,1,.64.487,15.783,15.783,0,0,1-12.83,6.139" transform="translate(-60.295 -94.559)" fill="#fff"/>
          <path id="Trazado_924231" data-name="Trazado 924231" d="M115.305,207.448c-3.7,0-7.36-1.444-11.859-4.74a.4.4,0,0,1,.475-.649c9.517,6.973,15.021,5.25,24.492-.027a.4.4,0,1,1,.391.7c-5.315,2.962-9.429,4.714-13.5,4.714" transform="translate(-48.352 -94.559)" fill="#fff"/>
          <path id="Trazado_924232" data-name="Trazado 924232" d="M140.649,310.7c-4.171,0-8-1.867-11.74-5.6a.4.4,0,0,1,.569-.569c7.121,7.12,14.646,7.11,24.4-.04a.4.4,0,1,1,.475.649c-5.062,3.709-9.552,5.563-13.708,5.563" transform="translate(-60.295 -142.513)" fill="#fff"/>
          <path id="Trazado_924233" data-name="Trazado 924233" d="M157.083,255.219a.4.4,0,0,1-.184-.761c11.022-5.651,17.568-12.044,20.6-20.119a.4.4,0,1,1,.753.283c-3.108,8.274-9.776,14.8-20.986,20.552a.4.4,0,0,1-.184.045" transform="translate(-73.351 -109.586)" fill="#fff"/>
          <path id="Trazado_924234" data-name="Trazado 924234" d="M150.551,363.737a.4.4,0,0,1,0-.805c3.91,0,7.257-4.851,8.9-7.743,2.566-4.5,4.086-9.524,4.261-12.154a.4.4,0,1,1,.8.054c-.215,3.224-2.01,8.363-4.365,12.5-1.734,3.043-5.287,8.149-9.6,8.149" transform="translate(-70.294 -160.419)" fill="#fff"/>
          <path id="Trazado_924235" data-name="Trazado 924235" d="M192.419,363.737a.4.4,0,0,1-.32-.159c-.216-.284-5.307-7.115-5.761-20.5a.4.4,0,1,1,.8-.027c.446,13.133,5.546,19.975,5.6,20.042a.4.4,0,0,1-.32.646" transform="translate(-87.236 -160.419)" fill="#fff"/>
          <rect id="Rectángulo_404789" data-name="Rectángulo 404789" width="103.26" height="31.169" transform="translate(10.549 3.928)" fill="#365268"/>
          <path id="Trazado_924236" data-name="Trazado 924236" d="M118.327,48.615H30.385a4.375,4.375,0,0,1,0-8.75h87.942a4.375,4.375,0,0,1,0,8.75" transform="translate(-12.177 -18.663)" fill="#4c9fd8"/>
          <rect id="Rectángulo_404790" data-name="Rectángulo 404790" width="32.69" height="4.389" transform="translate(17.965 23.382)" fill="#426f8e"/>
          <rect id="Rectángulo_404791" data-name="Rectángulo 404791" width="4.389" height="4.389" transform="translate(101.436 23.382)" fill="#426f8e"/>
          <rect id="Rectángulo_404792" data-name="Rectángulo 404792" width="4.389" height="4.389" transform="translate(94.274 23.382)" fill="#426f8e"/>
          <rect id="Rectángulo_404793" data-name="Rectángulo 404793" width="4.389" height="4.389" transform="translate(87.112 23.382)" fill="#426f8e"/>
          <path id="Trazado_924237" data-name="Trazado 924237" d="M100.2,47.172A1.042,1.042,0,1,1,99.16,46.13a1.042,1.042,0,0,1,1.042,1.042" transform="translate(-45.935 -21.596)" fill="#fff"/>
          <path id="Trazado_924238" data-name="Trazado 924238" d="M108.958,47.172a1.042,1.042,0,1,1-1.042-1.042,1.042,1.042,0,0,1,1.042,1.042" transform="translate(-50.034 -21.596)" fill="#fff"/>
          <path id="Trazado_924239" data-name="Trazado 924239" d="M117.713,47.172a1.042,1.042,0,1,1-1.042-1.042,1.042,1.042,0,0,1,1.042,1.042" transform="translate(-54.133 -21.596)" fill="#fff"/>
          <rect id="Rectángulo_404794" data-name="Rectángulo 404794" width="19.504" height="4.389" transform="translate(65.392 23.382)" fill="#2d3e4f"/>
          <path id="Trazado_924240" data-name="Trazado 924240" d="M122.6,48.4a.4.4,0,0,1-.4-.4V43.61a.4.4,0,1,1,.8,0V48a.4.4,0,0,1-.4.4" transform="translate(-57.208 -20.228)" fill="#ffc07b"/>
          <path id="Trazado_924241" data-name="Trazado 924241" d="M126.076,48.4a.4.4,0,0,1-.4-.4V43.61a.4.4,0,1,1,.8,0V48a.4.4,0,0,1-.4.4" transform="translate(-58.835 -20.228)" fill="#ffc07b"/>
          <path id="Trazado_924242" data-name="Trazado 924242" d="M118.327,25.808H30.385a4.375,4.375,0,0,1,0-8.75h87.942a4.375,4.375,0,0,1,0,8.75" transform="translate(-12.177 -7.986)" fill="#4c9fd8"/>
          <rect id="Rectángulo_404795" data-name="Rectángulo 404795" width="32.69" height="4.389" transform="translate(17.965 11.253)" fill="#426f8e"/>
          <rect id="Rectángulo_404796" data-name="Rectángulo 404796" width="4.389" height="4.389" transform="translate(101.436 11.253)" fill="#426f8e"/>
          <rect id="Rectángulo_404797" data-name="Rectángulo 404797" width="4.389" height="4.389" transform="translate(94.274 11.253)" fill="#426f8e"/>
          <rect id="Rectángulo_404798" data-name="Rectángulo 404798" width="4.389" height="4.389" transform="translate(87.112 11.253)" fill="#426f8e"/>
          <path id="Trazado_924243" data-name="Trazado 924243" d="M100.2,24.367a1.042,1.042,0,1,1-1.042-1.042,1.042,1.042,0,0,1,1.042,1.042" transform="translate(-45.935 -10.92)" fill="#fff"/>
          <path id="Trazado_924244" data-name="Trazado 924244" d="M108.958,24.367a1.042,1.042,0,1,1-1.042-1.042,1.042,1.042,0,0,1,1.042,1.042" transform="translate(-50.034 -10.92)" fill="#fff"/>
          <path id="Trazado_924245" data-name="Trazado 924245" d="M117.713,24.367a1.042,1.042,0,1,1-1.042-1.042,1.042,1.042,0,0,1,1.042,1.042" transform="translate(-54.133 -10.92)" fill="#fff"/>
          <rect id="Rectángulo_404799" data-name="Rectángulo 404799" width="19.504" height="4.389" transform="translate(65.392 11.253)" fill="#2d3e4f"/>
          <path id="Trazado_924246" data-name="Trazado 924246" d="M122.6,25.6a.4.4,0,0,1-.4-.4V20.8a.4.4,0,0,1,.8,0v4.39a.4.4,0,0,1-.4.4" transform="translate(-57.208 -9.551)" fill="#ffc07b"/>
          <path id="Trazado_924247" data-name="Trazado 924247" d="M126.076,25.6a.4.4,0,0,1-.4-.4V20.8a.4.4,0,1,1,.8,0v4.39a.4.4,0,0,1-.4.4" transform="translate(-58.835 -9.551)" fill="#ffc07b"/>
          <path id="Trazado_924248" data-name="Trazado 924248" d="M129.551,25.6a.4.4,0,0,1-.4-.4V20.8a.4.4,0,1,1,.8,0v4.39a.4.4,0,0,1-.4.4" transform="translate(-60.462 -9.551)" fill="#ffc07b"/>
          <path id="Trazado_924249" data-name="Trazado 924249" d="M133.026,25.6a.4.4,0,0,1-.4-.4V20.8a.4.4,0,1,1,.8,0v4.39a.4.4,0,0,1-.4.4" transform="translate(-62.089 -9.551)" fill="#ffc07b"/>
          <path id="Trazado_924250" data-name="Trazado 924250" d="M136.2,25.6a.4.4,0,0,1-.4-.4V20.8a.4.4,0,0,1,.8,0v4.39a.4.4,0,0,1-.4.4" transform="translate(-63.576 -9.551)" fill="#ffc07b"/>
          <path id="Trazado_924251" data-name="Trazado 924251" d="M139.135,25.6a.4.4,0,0,1-.4-.4V20.8a.4.4,0,1,1,.8,0v4.39a.4.4,0,0,1-.4.4" transform="translate(-64.949 -9.551)" fill="#ffc07b"/>
          <rect id="Rectángulo_404800" data-name="Rectángulo 404800" width="103.26" height="3.928" transform="translate(10.549 35.067)" fill="#2d3e4f"/>
          <rect id="Rectángulo_404801" data-name="Rectángulo 404801" width="103.26" height="3.928" transform="translate(10.549 0)" fill="#2d3e4f"/>
          <rect id="Rectángulo_404802" data-name="Rectángulo 404802" width="103.26" height="31.169" transform="translate(10.516 38.996)" fill="#365268"/>
          <path id="Trazado_924252" data-name="Trazado 924252" d="M118.265,115.973H30.323a4.375,4.375,0,1,1,0-8.75h87.942a4.375,4.375,0,0,1,0,8.75" transform="translate(-12.148 -50.197)" fill="#2d3e4f"/>
          <path id="Trazado_924253" data-name="Trazado 924253" d="M123.763,119.947l-87.837-4.3a4.375,4.375,0,1,1,.428-8.74l87.837,4.3a4.375,4.375,0,0,1-.428,8.74" transform="translate(-14.871 -50.048)" fill="#426f8e"/>
          <rect id="Rectángulo_404803" data-name="Rectángulo 404803" width="0.532" height="15.667" transform="translate(16.918 60.882) rotate(-85.729)" fill="#2d3e4f"/>
          <path id="Trazado_924254" data-name="Trazado 924254" d="M153.212,121.388l-87.837-4.3a4.375,4.375,0,1,1,.428-8.74l87.837,4.3a4.375,4.375,0,0,1-.428,8.74" transform="translate(-28.658 -50.723)" fill="#4c9fd8"/>
          <rect id="Rectángulo_404804" data-name="Rectángulo 404804" width="4.389" height="32.69" transform="translate(36.581 64.178) rotate(-87.199)" fill="#426f8e"/>
          <rect id="Rectángulo_404805" data-name="Rectángulo 404805" width="4.389" height="4.389" transform="translate(119.952 68.257) rotate(-87.201)" fill="#426f8e"/>
          <rect id="Rectángulo_404806" data-name="Rectángulo 404806" width="4.389" height="4.389" transform="matrix(0.049, -0.999, 0.999, 0.049, 112.799, 67.907)" fill="#426f8e"/>
          <rect id="Rectángulo_404807" data-name="Rectángulo 404807" width="4.389" height="4.389" transform="matrix(0.049, -0.999, 0.999, 0.049, 105.646, 67.557)" fill="#426f8e"/>
          <path id="Trazado_924255" data-name="Trazado 924255" d="M135.327,118.923a1.042,1.042,0,1,1-.99-1.092,1.043,1.043,0,0,1,.99,1.092" transform="translate(-62.379 -55.163)" fill="#fff"/>
          <path id="Trazado_924256" data-name="Trazado 924256" d="M144.072,119.351a1.042,1.042,0,1,1-.99-1.092,1.042,1.042,0,0,1,.99,1.092" transform="translate(-66.473 -55.363)" fill="#fff"/>
          <path id="Trazado_924257" data-name="Trazado 924257" d="M152.817,119.779a1.042,1.042,0,1,1-.99-1.092,1.043,1.043,0,0,1,.99,1.092" transform="translate(-70.567 -55.564)" fill="#fff"/>
          <rect id="Rectángulo_404808" data-name="Rectángulo 404808" width="4.389" height="19.504" transform="translate(83.952 66.496) rotate(-87.199)" fill="#2d3e4f"/>
          <path id="Trazado_924258" data-name="Trazado 924258" d="M157.5,121.217h-.02a.4.4,0,0,1-.382-.422l.214-4.384a.4.4,0,0,1,.422-.382.4.4,0,0,1,.382.422l-.214,4.384a.4.4,0,0,1-.4.382" transform="translate(-73.545 -54.32)" fill="#ffc07b"/>
          <path id="Trazado_924259" data-name="Trazado 924259" d="M118.265,91.746H30.323a4.375,4.375,0,0,1,0-8.75h87.942a4.375,4.375,0,0,1,0,8.75" transform="translate(-12.148 -38.855)" fill="#4c9fd8"/>
          <rect id="Rectángulo_404809" data-name="Rectángulo 404809" width="32.69" height="4.389" transform="translate(17.932 46.321)" fill="#426f8e"/>
          <rect id="Rectángulo_404810" data-name="Rectángulo 404810" width="4.389" height="4.389" transform="translate(101.403 46.321)" fill="#426f8e"/>
          <rect id="Rectángulo_404811" data-name="Rectángulo 404811" width="4.389" height="4.389" transform="translate(94.241 46.321)" fill="#426f8e"/>
          <rect id="Rectángulo_404812" data-name="Rectángulo 404812" width="4.389" height="4.389" transform="translate(87.079 46.321)" fill="#426f8e"/>
          <path id="Trazado_924260" data-name="Trazado 924260" d="M100.14,90.3A1.042,1.042,0,1,1,99.1,89.262,1.042,1.042,0,0,1,100.14,90.3" transform="translate(-45.906 -41.789)" fill="#fff"/>
          <path id="Trazado_924261" data-name="Trazado 924261" d="M108.9,90.3a1.042,1.042,0,1,1-1.042-1.042A1.042,1.042,0,0,1,108.9,90.3" transform="translate(-50.005 -41.789)" fill="#fff"/>
          <path id="Trazado_924262" data-name="Trazado 924262" d="M117.651,90.3a1.042,1.042,0,1,1-1.042-1.042,1.042,1.042,0,0,1,1.042,1.042" transform="translate(-54.103 -41.789)" fill="#fff"/>
          <rect id="Rectángulo_404813" data-name="Rectángulo 404813" width="19.504" height="4.389" transform="translate(65.359 46.321)" fill="#2d3e4f"/>
          <path id="Trazado_924263" data-name="Trazado 924263" d="M122.539,91.533a.4.4,0,0,1-.4-.4v-4.39a.4.4,0,0,1,.8,0v4.39a.4.4,0,0,1-.4.4" transform="translate(-57.179 -40.42)" fill="#ffc07b"/>
          <path id="Trazado_924264" data-name="Trazado 924264" d="M126.014,91.533a.4.4,0,0,1-.4-.4v-4.39a.4.4,0,0,1,.8,0v4.39a.4.4,0,0,1-.4.4" transform="translate(-58.806 -40.42)" fill="#ffc07b"/>
          <path id="Trazado_924265" data-name="Trazado 924265" d="M129.489,91.533a.4.4,0,0,1-.4-.4v-4.39a.4.4,0,0,1,.8,0v4.39a.4.4,0,0,1-.4.4" transform="translate(-60.433 -40.42)" fill="#ffc07b"/>
          <path id="Trazado_924266" data-name="Trazado 924266" d="M132.964,91.533a.4.4,0,0,1-.4-.4v-4.39a.4.4,0,0,1,.8,0v4.39a.4.4,0,0,1-.4.4" transform="translate(-62.06 -40.42)" fill="#ffc07b"/>
          <path id="Trazado_924267" data-name="Trazado 924267" d="M136.141,91.533a.4.4,0,0,1-.4-.4v-4.39a.4.4,0,0,1,.8,0v4.39a.4.4,0,0,1-.4.4" transform="translate(-63.547 -40.42)" fill="#ffc07b"/>
          <path id="Trazado_924268" data-name="Trazado 924268" d="M139.073,91.533a.4.4,0,0,1-.4-.4v-4.39a.4.4,0,0,1,.8,0v4.39a.4.4,0,0,1-.4.4" transform="translate(-64.92 -40.42)" fill="#ffc07b"/>
          <rect id="Rectángulo_404814" data-name="Rectángulo 404814" width="103.26" height="3.928" transform="translate(10.516 70.135)" fill="#2d3e4f"/>
          <path id="Trazado_924269" data-name="Trazado 924269" d="M260.359,104.469l-5.726,8.429-4.178-7.411-1.247-12.137,9.516.2Z" transform="translate(-116.669 -43.702)" fill="#efbd9c"/>
          <path id="Trazado_924270" data-name="Trazado 924270" d="M255.319,77.619c.564,5.495-4.438,11.112-8.59,11.539s-5.88-4.5-6.445-9.995,2.349-10.244,6.5-10.722c5.815-.669,7.974,3.683,8.539,9.178" transform="translate(-112.458 -32.009)" fill="#efbd9c"/>
          <path id="Trazado_924271" data-name="Trazado 924271" d="M255.313,71.131c-.6-5.073-5.146-6.7-6.738-6.114-1.715.633-2.356-.532-4.288-.509-1.727.021-2.893,1.033-4.544,1.159a3.242,3.242,0,0,0-3.286,2.794c-.23,2.041,1.526,3.153,1.627,4.629.106,1.533,2.273,1.815,2.4,2.141.264.685-.389,3-.249,3.339s.436.526.682.415a5.66,5.66,0,0,0,.911-.957,2.7,2.7,0,0,1,1.284,3.128c-.361,1.449,2.66,3.97,3.9,4.291,1.08.278,4.827-.417,6.443-.647,1.147-.163,2.556-7.721,1.857-13.668" transform="translate(-110.69 -30.2)" fill="#2d1c12"/>
          <path id="Trazado_924272" data-name="Trazado 924272" d="M247.668,90.641c.072-1.338-.491-2.456-1.258-2.5s-1.447,1.009-1.518,2.347.491,2.456,1.258,2.5,1.447-1.009,1.518-2.347" transform="translate(-114.645 -41.265)" fill="#efbb95"/>
          <rect id="Rectángulo_404815" data-name="Rectángulo 404815" width="4.72" height="0.268" transform="translate(127.275 47.317) rotate(-7.295)" fill="#fff"/>
          <path id="Trazado_924273" data-name="Trazado 924273" d="M239.826,89.335c-.459,0-.806-.561-.913-1.49a2.071,2.071,0,0,1,.28-1.51.525.525,0,0,1,.4-.19l0,.268a.261.261,0,0,0-.2.1,1.853,1.853,0,0,0-.214,1.3c.09.783.36,1.289.682,1.25l.031.266c-.022,0-.045,0-.066,0" transform="translate(-111.838 -40.329)" fill="#2d1c12"/>
          <path id="Trazado_924274" data-name="Trazado 924274" d="M261.166,395.28l-6.4.65-.931-11.1,7.8-.03Z" transform="translate(-118.836 -180.147)" fill="#efbd9c"/>
          <path id="Trazado_924275" data-name="Trazado 924275" d="M245.885,402.111c-1.314,1.478-4.131,2.053-6.094,3.086a14.489,14.489,0,0,0-3.235,2.194,1.138,1.138,0,0,0,.879,1.945l15.637.021a1.137,1.137,0,0,0,1.054-1.264l-.639-6.676a8.273,8.273,0,0,1-7.6.693" transform="translate(-110.584 -187.927)" fill="#d6e8ed"/>
          <path id="Trazado_924276" data-name="Trazado 924276" d="M337.783,366l-4.512,4.582-7.8-7.955,5.988-5Z" transform="translate(-152.372 -167.429)" fill="#efbd9c"/>
          <path id="Trazado_924277" data-name="Trazado 924277" d="M333.937,375.694c-.069,1.976-1.872,4.216-2.725,6.265a14.47,14.47,0,0,0-1.091,3.753,1.138,1.138,0,0,0,1.917.938l11.372-10.785a1.137,1.137,0,0,0,.005-1.645l-4.068-3.908a8.271,8.271,0,0,1-5.41,5.382" transform="translate(-154.545 -173.365)" fill="#d6e8ed"/>
          <path id="Trazado_924278" data-name="Trazado 924278" d="M240.42,226.43l5.642,85.59c3.245,1.067,7.23,1.4,9.934-.636l3.349-73.225s-.633,27.632,2.193,34.992S288.779,301.5,288.779,301.5c3.538-.832,6.705-3.392,7.486-6.329l-20.83-25.322-.513-42.165-2.228-13.343-33.3,4.479Z" transform="translate(-112.072 -100.343)" fill="#2f81b7"/>
          <rect id="Rectángulo_404816" data-name="Rectángulo 404816" width="0.266" height="93.846" transform="translate(132.952 118.404) rotate(-1.867)" fill="#4e9aaf"/>
          <path id="Trazado_924279" data-name="Trazado 924279" d="M308.869,322.747c-.057-.046-5.808-4.705-11.992-10.5-5.714-5.358-12.977-12.813-15.135-17.907-4.12-9.728-5.141-32.15-5.151-32.375l.266-.011c.01.224,1.028,22.6,5.13,32.283,1.693,4,6.9,10.158,15.071,17.815,6.177,5.792,11.921,10.445,11.979,10.492Z" transform="translate(-129.489 -122.635)" fill="#4e9aaf"/>
          <path id="Trazado_924280" data-name="Trazado 924280" d="M192.771,113.545c-2.8-.181-3.689-1.258-4.457.427-1.249,2.74-1.805-.179-1.569-1.518s-3.222-1.249-3.222-1.249-.277-1.866,1.063-1.98,7.7-1.536,10.149-.948-1.963,5.267-1.963,5.267" transform="translate(-85.906 -50.625)" fill="#efbd9c"/>
          <path id="Trazado_924281" data-name="Trazado 924281" d="M124.082,130.778c-6.761-.027-14.064-1.125-13.885-2.75s3.354-2.319,5.306-1.544,9.236.719,9.236.719Z" transform="translate(-51.588 -59.066)" fill="#efbd9c"/>
          <path id="Trazado_924282" data-name="Trazado 924282" d="M221.552,114.382l-19.684-7.252c-2.239,2.411-2.752,4.466-2.649,6.393,0,0,13.1,10.5,20.974,10.794,8.452.312,25.17-10.475,25.17-10.475l-6.762-3.161Z" transform="translate(-93.26 -50.154)" fill="#dd7c62"/>
          <path id="Trazado_924283" data-name="Trazado 924283" d="M236.879,180.251c-1.213-1.56-1.092-42.513-1.723-48.6-.547-5.279-4.534-12.092-.367-14.769a26.839,26.839,0,0,1,7.343-3.422l10.676-.93c2.231-.138,5.653.269,7.452,2.143,3.258,3.394,4.294,9.869,5.285,14.382,2.2,10.011,3.17,17.443,3.938,22.843.9,6.312,4.658,23.953,3.177,26.626s-14.555,4.592-22.179,2.34-12.389.953-13.6-.607" transform="translate(-109.039 -52.669)" fill="#ef8e70"/>
          <path id="Trazado_924284" data-name="Trazado 924284" d="M236.943,143.808l3.623-3.327-3.142,16.049c.023-3.837-.265-10.676-.38-11.784-.031-.3-.065-.616-.1-.938" transform="translate(-110.927 -65.767)" fill="#dd7c62"/>
          <path id="Trazado_924285" data-name="Trazado 924285" d="M192.9,127.572c-.64,11.862-19.54,15.921-25.778,15.689-6.259-.232-34.423-16.749-34.423-16.749a12.476,12.476,0,0,1,3.033-5.978l31.853,11.638s13.506-12.362,18.482-14.786a41.626,41.626,0,0,1,9.151-3.09Z" transform="translate(-62.124 -53.509)" fill="#ef8e70"/>
          <path id="Trazado_924286" data-name="Trazado 924286" d="M250.249,112.643l.469-1.119a18.844,18.844,0,0,1,5.385-.749,38.433,38.433,0,0,1,4.47.207l.5.889c-.433-.291-7.7.6-10.82.771" transform="translate(-117.156 -51.855)" fill="#ffddd4"/>
          <path id="Trazado_924287" data-name="Trazado 924287" d="M135.508,136.471a.339.339,0,1,1-.048-.477.339.339,0,0,1,.048.477" transform="translate(-63.158 -63.631)" fill="#fff"/>
          <path id="Trazado_924288" data-name="Trazado 924288" d="M138.039,137.752a.339.339,0,1,1-.048-.477.338.338,0,0,1,.048.477" transform="translate(-64.342 -64.231)" fill="#fff"/>
        </g>
      </g>
    </g>
  </g>
</svg>
