<svg xmlns="http://www.w3.org/2000/svg" xmlns:xlink="http://www.w3.org/1999/xlink" width="46" height="46" viewBox="0 0 46 46">
  <defs>
    <clipPath id="clip-path">
      <rect id="Rectángulo_403692" data-name="Rectángulo 403692" width="46" height="46" transform="translate(1039.051 1099)" fill="#692cb7" stroke="#707070" stroke-width="1"/>
    </clipPath>
  </defs>
  <g id="img23" transform="translate(-1039.051 -1099)" clip-path="url(#clip-path)">
    <g id="engranajes" transform="translate(1039.051 1099)">
      <g id="Grupo_1102458" data-name="Grupo 1102458">
        <g id="Grupo_1102457" data-name="Grupo 1102457">
          <path id="Trazado_913776" data-name="Trazado 913776" d="M23.61,28.5a.726.726,0,0,0-.968-.345,11.565,11.565,0,0,1-1.837.687.726.726,0,0,0-.516.557L19.52,33.24a.817.817,0,0,1-.8.655h-2.1a.817.817,0,0,1-.8-.655L15.059,29.4a.726.726,0,0,0-.516-.557,11.54,11.54,0,0,1-2.551-1.057.726.726,0,0,0-.759.028l-3.26,2.173a.817.817,0,0,1-1.028-.1L5.463,28.4a.817.817,0,0,1-.1-1.028l2.173-3.26a.726.726,0,0,0,.028-.759A11.537,11.537,0,0,1,6.506,20.8a.726.726,0,0,0-.557-.516L2.107,19.52a.817.817,0,0,1-.655-.8v-2.1a.817.817,0,0,1,.655-.8l3.842-.768a.726.726,0,0,0,.557-.516,11.54,11.54,0,0,1,1.057-2.551.726.726,0,0,0-.028-.759L5.361,7.972a.817.817,0,0,1,.1-1.028L6.945,5.463a.817.817,0,0,1,1.028-.1l3.26,2.173a.726.726,0,0,0,.759.028,11.54,11.54,0,0,1,2.551-1.057.726.726,0,0,0,.516-.557l.768-3.842a.817.817,0,0,1,.8-.655h2.1a.817.817,0,0,1,.8.655l.768,3.842a.726.726,0,0,0,.516.557,11.54,11.54,0,0,1,2.551,1.057.726.726,0,0,0,.759-.028l3.26-2.173a.817.817,0,0,1,1.028.1l1.482,1.482a.817.817,0,0,1,.1,1.028l-2.173,3.26a.726.726,0,0,0-.028.759,11.54,11.54,0,0,1,1.057,2.551.726.726,0,0,0,.557.516l3.842.768a.817.817,0,0,1,.655.8v2.1a.817.817,0,0,1-.655.8l-3.842.768a.726.726,0,0,0-.557.517,11.56,11.56,0,0,1-.708,1.881.726.726,0,0,0,1.31.628,13.027,13.027,0,0,0,.669-1.687l3.413-.683a2.273,2.273,0,0,0,1.822-2.223v-2.1A2.273,2.273,0,0,0,33.525,14.4l-3.413-.683a13,13,0,0,0-.848-2.046l1.931-2.9a2.273,2.273,0,0,0-.283-2.861L29.43,4.435a2.273,2.273,0,0,0-2.861-.283l-2.9,1.931a13.005,13.005,0,0,0-2.046-.848l-.683-3.413A2.273,2.273,0,0,0,18.722,0h-2.1A2.273,2.273,0,0,0,14.4,1.822L13.72,5.236a13,13,0,0,0-2.046.848l-2.9-1.931a2.273,2.273,0,0,0-2.861.283L4.435,5.918a2.273,2.273,0,0,0-.283,2.861l1.931,2.9a13,13,0,0,0-.848,2.046L1.822,14.4A2.273,2.273,0,0,0,0,16.626v2.1a2.273,2.273,0,0,0,1.822,2.223l3.413.683a13,13,0,0,0,.848,2.046l-1.931,2.9a2.273,2.273,0,0,0,.283,2.861l1.482,1.482a2.273,2.273,0,0,0,2.861.283l2.9-1.931a13,13,0,0,0,2.046.848l.683,3.413a2.273,2.273,0,0,0,2.223,1.822h2.1a2.273,2.273,0,0,0,2.223-1.822l.683-3.413a13.012,13.012,0,0,0,1.638-.645A.726.726,0,0,0,23.61,28.5Z" fill="#692cb7"/>
          <path id="Trazado_913777" data-name="Trazado 913777" d="M23.965,21.709a.726.726,0,0,0,.978-.315,8.165,8.165,0,0,0-12.968-9.567.726.726,0,1,0,1.014,1.04A6.713,6.713,0,0,1,23.65,20.732.726.726,0,0,0,23.965,21.709Z" fill="#692cb7"/>
          <path id="Trazado_913778" data-name="Trazado 913778" d="M10.875,14.566a.726.726,0,0,0-.923.45A8.166,8.166,0,0,0,22.458,24.29a.726.726,0,0,0-.852-1.177,6.715,6.715,0,0,1-10.28-7.625A.726.726,0,0,0,10.875,14.566Z" fill="#692cb7"/>
          <path id="Trazado_913779" data-name="Trazado 913779" d="M44.6,31.743l-2.1-.42a8.786,8.786,0,0,0-.461-1.112l1.188-1.782a1.743,1.743,0,0,0-.217-2.194l-.974-.974a1.744,1.744,0,0,0-2.194-.217l-1.782,1.188a8.772,8.772,0,0,0-1.112-.461l-.42-2.1a1.743,1.743,0,0,0-1.7-1.4H33.448a1.744,1.744,0,0,0-1.7,1.4l-.42,2.1a8.8,8.8,0,0,0-1.112.461l-1.782-1.188a1.744,1.744,0,0,0-2.194.217l-.974.974a1.743,1.743,0,0,0-.217,2.194l1.188,1.782a8.778,8.778,0,0,0-.593,1.543.726.726,0,0,0,1.4.391,7.329,7.329,0,0,1,.672-1.621.726.726,0,0,0-.028-.759l-1.428-2.142a.287.287,0,0,1,.036-.361l.974-.974a.287.287,0,0,1,.361-.036l2.142,1.428a.726.726,0,0,0,.759.028,7.331,7.331,0,0,1,1.621-.672.726.726,0,0,0,.516-.557l.5-2.524a.287.287,0,0,1,.281-.23h1.377a.287.287,0,0,1,.281.23l.5,2.525a.726.726,0,0,0,.516.557,7.329,7.329,0,0,1,1.621.672.726.726,0,0,0,.759-.028l2.142-1.428a.287.287,0,0,1,.361.036l.974.974a.287.287,0,0,1,.036.361l-1.428,2.142a.726.726,0,0,0-.028.759,7.331,7.331,0,0,1,.672,1.621.726.726,0,0,0,.557.516l2.524.5a.287.287,0,0,1,.23.281v1.377a.287.287,0,0,1-.23.281l-2.525.5a.726.726,0,0,0-.557.516,7.329,7.329,0,0,1-.672,1.621.726.726,0,0,0,.028.759l1.428,2.142a.287.287,0,0,1-.036.361l-.974.974a.287.287,0,0,1-.361.036l-2.142-1.428a.726.726,0,0,0-.759-.028,7.331,7.331,0,0,1-1.621.672.726.726,0,0,0-.516.557l-.5,2.524a.287.287,0,0,1-.281.23H33.448a.287.287,0,0,1-.281-.23l-.5-2.525a.726.726,0,0,0-.516-.557,7.329,7.329,0,0,1-1.621-.672.726.726,0,0,0-.759.028l-2.142,1.428a.287.287,0,0,1-.361-.036l-.974-.974a.287.287,0,0,1-.036-.361l1.428-2.142a.726.726,0,0,0,.028-.759,7.331,7.331,0,0,1-.672-1.621.726.726,0,0,0-.557-.516l-2.524-.5a.287.287,0,0,1-.23-.281V33.448a.287.287,0,0,1,.23-.281l.155-.031a.726.726,0,1,0-.285-1.424l-.155.031a1.744,1.744,0,0,0-1.4,1.705v1.377a1.744,1.744,0,0,0,1.4,1.7l2.1.42a8.8,8.8,0,0,0,.461,1.112l-1.188,1.782a1.743,1.743,0,0,0,.217,2.194l.974.974a1.743,1.743,0,0,0,2.194.217l1.782-1.188a8.771,8.771,0,0,0,1.112.461l.42,2.1A1.744,1.744,0,0,0,33.448,46h1.377a1.744,1.744,0,0,0,1.7-1.4l.42-2.1a8.786,8.786,0,0,0,1.112-.461l1.782,1.188a1.743,1.743,0,0,0,2.194-.217l.974-.974a1.743,1.743,0,0,0,.217-2.194l-1.188-1.782A8.771,8.771,0,0,0,42.5,36.95l2.1-.42a1.743,1.743,0,0,0,1.4-1.7V33.448A1.743,1.743,0,0,0,44.6,31.743Z" fill="#692cb7"/>
          <path id="Trazado_913780" data-name="Trazado 913780" d="M34.137,31.522a2.618,2.618,0,0,1,2.615,2.615.726.726,0,0,0,1.453,0A4.067,4.067,0,1,0,34.137,38.2a4.03,4.03,0,0,0,2.485-.847.726.726,0,1,0-.888-1.15,2.59,2.59,0,0,1-1.6.544,2.615,2.615,0,1,1,0-5.229Z" fill="#692cb7"/>
          <path id="Trazado_913781" data-name="Trazado 913781" d="M22.1,17.674A4.425,4.425,0,1,0,17.674,22.1,4.43,4.43,0,0,0,22.1,17.674Zm-7.4,0a2.972,2.972,0,1,1,2.972,2.972A2.976,2.976,0,0,1,14.7,17.674Z" fill="#692cb7"/>
        </g>
      </g>
    </g>
  </g>
</svg>
