<svg xmlns="http://www.w3.org/2000/svg" xmlns:xlink="http://www.w3.org/1999/xlink" width="85.051" height="85" viewBox="0 0 85.051 85">
  <defs>
    <clipPath id="clip-path">
      <rect id="Rectángulo_404994" data-name="Rectángulo 404994" width="85" height="85" transform="translate(337.051 5530)" fill="#fff" stroke="#707070" stroke-width="1"/>
    </clipPath>
  </defs>
  <g id="img27" transform="translate(-337.051 -5530)">
    <circle id="Elipse_11561" data-name="Elipse 11561" cx="42.5" cy="42.5" r="42.5" transform="translate(337.102 5530)" fill="#b0dcad"/>
    <g id="Enmascarar_grupo_1098772" data-name="Enmascarar grupo 1098772" clip-path="url(#clip-path)">
      <g id="Layer_32" data-name="Layer 32" transform="translate(335.68 5528.629)">
        <path id="Trazado_924545" data-name="Trazado 924545" d="M68.548,39.758V31.532L62.48,30.016a27.237,27.237,0,0,0-3.887-9.353l3.226-5.376L56,9.471,50.627,12.7A27.237,27.237,0,0,0,41.274,8.81L39.758,2.742H31.532L30.016,8.81A27.237,27.237,0,0,0,20.663,12.7L15.288,9.471,9.471,15.288,12.7,20.663A27.237,27.237,0,0,0,8.81,30.016L2.742,31.532v8.226L8.81,41.274A27.237,27.237,0,0,0,12.7,50.627L9.471,56l5.817,5.817,5.376-3.226a27.237,27.237,0,0,0,9.353,3.887l1.516,6.068h8.226l1.516-6.068a27.237,27.237,0,0,0,9.353-3.887L56,61.82,61.82,56l-3.226-5.376a27.237,27.237,0,0,0,3.887-9.353Z" fill="#4c6cb5"/>
        <circle id="Elipse_11599" data-name="Elipse 11599" cx="17.823" cy="17.823" r="17.823" transform="translate(17.823 17.823)" fill="#78a0d4"/>
        <circle id="Elipse_11600" data-name="Elipse 11600" cx="12.339" cy="12.339" r="12.339" transform="translate(23.306 23.306)" fill="#e2e7f6"/>
        <path id="Trazado_924546" data-name="Trazado 924546" d="M45.242,34.274a12.326,12.326,0,0,0-5.452-10.24,12.339,12.339,0,0,0-11.031,21.85A12.313,12.313,0,0,0,45.242,34.274Z" fill="#f2f2f2"/>
        <path id="Trazado_924547" data-name="Trazado 924547" d="M40.16,42.1l-5.484-5.484a1.371,1.371,0,0,1-.4-.969V30.161h2.742v4.916L42.1,40.16Z" fill="#f0ae42"/>
        <path id="Trazado_924548" data-name="Trazado 924548" d="M72.661,76.774V41.129h8.226V76.774" fill="#f4a93c"/>
        <path id="Trazado_924549" data-name="Trazado 924549" d="M76.774,71.29V41.129H72.661V72.661H75.4A1.371,1.371,0,0,0,76.774,71.29Z" fill="#f9d266"/>
        <path id="Trazado_924550" data-name="Trazado 924550" d="M58.952,76.774V63.065h8.226v13.71" fill="#f9d266"/>
        <path id="Trazado_924551" data-name="Trazado 924551" d="M63.065,71.29V63.065H58.952v9.6h2.742A1.371,1.371,0,0,0,63.065,71.29Z" fill="#fce797"/>
        <path id="Trazado_924552" data-name="Trazado 924552" d="M45.242,76.774V68.548h8.226v8.226" fill="#fce797"/>
        <path id="Trazado_924553" data-name="Trazado 924553" d="M49.355,72.661V68.548H45.242v5.484h2.742A1.371,1.371,0,0,0,49.355,72.661Z" fill="#ffecb0"/>
        <path id="Trazado_924554" data-name="Trazado 924554" d="M38.387,76.774H85V85H38.387Z" fill="#4d8c28"/>
        <path id="Trazado_924555" data-name="Trazado 924555" d="M80.887,79.516V76.774h-42.5v4.113H79.516A1.371,1.371,0,0,0,80.887,79.516Z" fill="#559b2d"/>
        <path id="Trazado_924556" data-name="Trazado 924556" d="M35.645,38.387a2.742,2.742,0,1,1,2.742-2.742A2.742,2.742,0,0,1,35.645,38.387Z" fill="#4c6cb5"/>
        <path id="Trazado_924557" data-name="Trazado 924557" d="M2.742,72.661l8.226-8.226,8.226,8.226H15.081V85H6.855V72.661Z" fill="#6bc13b"/>
        <path id="Trazado_924558" data-name="Trazado 924558" d="M68.548,10.968l8.226-8.226L85,10.968H80.887V35.645H72.661V10.968Z" fill="#6bc13b"/>
        <path id="Trazado_924559" data-name="Trazado 924559" d="M85,75.4H82.258V41.129a1.371,1.371,0,0,0-1.371-1.371H72.661a1.371,1.371,0,0,0-1.371,1.371V75.4H68.548V63.065a1.371,1.371,0,0,0-1.371-1.371H58.952a1.371,1.371,0,0,0-1.371,1.371V75.4H54.839V68.548a1.371,1.371,0,0,0-1.371-1.371H45.242a1.371,1.371,0,0,0-1.371,1.371V75.4H38.387a1.371,1.371,0,0,0-1.371,1.371V85a1.371,1.371,0,0,0,1.371,1.371H85A1.371,1.371,0,0,0,86.371,85V76.774A1.371,1.371,0,0,0,85,75.4ZM74.032,42.5h5.484V75.4H74.032ZM60.323,64.435h5.484V75.4H60.323Zm-13.71,5.484H52.1V75.4H46.613Zm37.016,13.71H39.758V78.145H83.629Z"/>
        <path id="Trazado_924560" data-name="Trazado 924560" d="M41.088,68.88,42.4,63.633a28.534,28.534,0,0,0,8.245-3.427L55.3,63a1.371,1.371,0,0,0,1.675-.206l5.817-5.817A1.371,1.371,0,0,0,63,55.3l-2.79-4.653A28.534,28.534,0,0,0,63.633,42.4l5.247-1.312a1.371,1.371,0,0,0,1.039-1.33V31.532A1.371,1.371,0,0,0,68.88,30.2L63.633,28.89a28.534,28.534,0,0,0-3.427-8.245L63,15.992a1.371,1.371,0,0,0-.206-1.675L56.973,8.5A1.371,1.371,0,0,0,55.3,8.294l-4.653,2.791A28.534,28.534,0,0,0,42.4,7.658L41.088,2.41a1.371,1.371,0,0,0-1.33-1.039H31.532A1.371,1.371,0,0,0,30.2,2.41L28.89,7.657a28.516,28.516,0,0,0-8.245,3.427L15.992,8.3a1.371,1.371,0,0,0-1.675.206L8.5,14.317a1.371,1.371,0,0,0-.206,1.675l2.79,4.653A28.534,28.534,0,0,0,7.657,28.89L2.41,30.2a1.371,1.371,0,0,0-1.039,1.33v8.226a1.371,1.371,0,0,0,1.039,1.33L7.657,42.4a28.534,28.534,0,0,0,3.427,8.245L8.3,55.3A1.371,1.371,0,0,0,8.5,56.973l5.816,5.817A1.371,1.371,0,0,0,15.992,63l4.653-2.79a28.516,28.516,0,0,0,8.245,3.427L30.2,68.88a1.371,1.371,0,0,0,1.33,1.039h8.226a1.371,1.371,0,0,0,1.33-1.039Zm-8.485-1.7-1.259-5.029a1.371,1.371,0,0,0-1.046-1,25.844,25.844,0,0,1-8.885-3.7,1.371,1.371,0,0,0-1.455-.027L15.5,60.091l-4.3-4.3,2.675-4.458a1.371,1.371,0,0,0-.027-1.455,25.844,25.844,0,0,1-3.7-8.885,1.371,1.371,0,0,0-1.009-1.049L4.113,38.687V32.6l5.029-1.259a1.371,1.371,0,0,0,1-1.046,25.844,25.844,0,0,1,3.7-8.885,1.371,1.371,0,0,0,.027-1.455L11.2,15.5l4.3-4.3,4.458,2.675a1.371,1.371,0,0,0,1.455-.027,25.844,25.844,0,0,1,8.885-3.7,1.371,1.371,0,0,0,1.049-1.009L32.6,4.113h6.084l1.259,5.029a1.371,1.371,0,0,0,1.046,1,25.844,25.844,0,0,1,8.885,3.7,1.363,1.363,0,0,0,1.455.027L55.79,11.2l4.3,4.3-2.675,4.458a1.371,1.371,0,0,0,.027,1.455,25.844,25.844,0,0,1,3.7,8.882,1.371,1.371,0,0,0,1.009,1.049L67.177,32.6v6.084l-5.029,1.259a1.371,1.371,0,0,0-1.009,1.049,25.844,25.844,0,0,1-3.7,8.882,1.371,1.371,0,0,0-.027,1.455l2.675,4.458-4.3,4.3-4.458-2.675a1.371,1.371,0,0,0-1.455.027,25.844,25.844,0,0,1-8.882,3.7,1.371,1.371,0,0,0-1.049,1.009l-1.256,5.023Z"/>
        <path id="Trazado_924561" data-name="Trazado 924561" d="M54.839,35.645A19.194,19.194,0,1,0,35.645,54.839,19.194,19.194,0,0,0,54.839,35.645ZM35.645,52.1A16.452,16.452,0,1,1,52.1,35.645,16.452,16.452,0,0,1,35.645,52.1Z"/>
        <path id="Trazado_924562" data-name="Trazado 924562" d="M35.645,21.935a13.71,13.71,0,1,0,13.71,13.71,13.71,13.71,0,0,0-13.71-13.71Zm0,24.677A10.968,10.968,0,1,1,46.613,35.645,10.968,10.968,0,0,1,35.645,46.613Z"/>
        <path id="Trazado_924563" data-name="Trazado 924563" d="M38.387,35.645a2.732,2.732,0,0,0-1.371-2.361V30.161H34.274v3.123a2.734,2.734,0,0,0,1.371,5.1,2.687,2.687,0,0,0,.7-.1L40.16,42.1,42.1,40.16l-3.814-3.814a2.687,2.687,0,0,0,.1-.7Z"/>
        <path id="Trazado_924564" data-name="Trazado 924564" d="M11.937,63.466a1.371,1.371,0,0,0-1.939,0L1.773,71.692a1.371,1.371,0,0,0,.969,2.34H5.484V85a1.371,1.371,0,0,0,1.371,1.371h8.226A1.371,1.371,0,0,0,16.452,85V74.032h2.742a1.371,1.371,0,0,0,.969-2.34Zm3.144,7.824a1.371,1.371,0,0,0-1.371,1.371V83.629H8.226V72.661A1.371,1.371,0,0,0,6.855,71.29h-.8l4.916-4.916,4.916,4.916Z"/>
        <path id="Trazado_924565" data-name="Trazado 924565" d="M68.548,12.339H71.29V35.645a1.371,1.371,0,0,0,1.371,1.371h8.226a1.371,1.371,0,0,0,1.371-1.371V12.339H85A1.371,1.371,0,0,0,85.969,10L77.743,1.773a1.371,1.371,0,0,0-1.939,0L67.579,10a1.371,1.371,0,0,0,.969,2.34ZM76.774,4.68,81.69,9.6h-.8a1.371,1.371,0,0,0-1.371,1.371V34.274H74.032V10.968A1.371,1.371,0,0,0,72.661,9.6h-.8Z"/>
      </g>
    </g>
  </g>
</svg>
