<svg xmlns="http://www.w3.org/2000/svg" xmlns:xlink="http://www.w3.org/1999/xlink" width="85.475" height="85" viewBox="0 0 85.475 85">
  <defs>
    <clipPath id="clip-path">
      <rect id="Rectángulo_404996" data-name="Rectángulo 404996" width="85" height="85" transform="translate(1177.051 5530)" fill="#fff" stroke="#707070" stroke-width="1"/>
    </clipPath>
  </defs>
  <g id="img29" transform="translate(-1177.051 -5530)">
    <circle id="Elipse_11563" data-name="Elipse 11563" cx="42.5" cy="42.5" r="42.5" transform="translate(1177.525 5530)" fill="#b0dcad"/>
    <g id="Enmascarar_grupo_1098774" data-name="Enmascarar grupo 1098774" clip-path="url(#clip-path)">
      <g id="gestion-de-equipos" transform="translate(1177.051 5530)">
        <g id="Grupo_1103775" data-name="Grupo 1103775">
          <g id="Grupo_1103770" data-name="Grupo 1103770">
            <circle id="Elipse_11601" data-name="Elipse 11601" cx="18.951" cy="18.951" r="18.951" transform="translate(23.55 1.318)" fill="#f7e365"/>
          </g>
          <g id="Grupo_1103771" data-name="Grupo 1103771">
            <path id="Trazado_924578" data-name="Trazado 924578" d="M53.806,5.058A18.952,18.952,0,0,1,27.291,31.574,18.952,18.952,0,1,0,53.806,5.058Z" fill="#f3d332"/>
          </g>
          <g id="Grupo_1103774" data-name="Grupo 1103774">
            <g id="Grupo_1103772" data-name="Grupo 1103772">
              <path id="Trazado_924579" data-name="Trazado 924579" d="M50.885,20.2l2.464-2.675a1.677,1.677,0,0,0,.219-1.975l-1.45-2.512a1.677,1.677,0,0,0-1.82-.8l-3.548.8-.113-.065L45.552,9.5a1.677,1.677,0,0,0-1.6-1.177h-2.9A1.677,1.677,0,0,0,39.45,9.5l-1.085,3.47-.113.065-3.548-.8a1.677,1.677,0,0,0-1.82.8l-1.45,2.512a1.677,1.677,0,0,0,.219,1.975L34.117,20.2v.129l-2.464,2.675a1.677,1.677,0,0,0-.219,1.975l1.45,2.512a1.677,1.677,0,0,0,1.82.8l3.548-.8.113.065,1.085,3.47a1.677,1.677,0,0,0,1.6,1.177h2.9a1.677,1.677,0,0,0,1.6-1.177l1.085-3.471.113-.065,3.548.8a1.677,1.677,0,0,0,1.82-.8l1.45-2.512a1.677,1.677,0,0,0-.219-1.975l-2.464-2.675V20.2ZM42.5,22.952a2.683,2.683,0,1,1,2.683-2.683A2.683,2.683,0,0,1,42.5,22.952Z" fill="#62a4fb"/>
            </g>
            <g id="Grupo_1103773" data-name="Grupo 1103773">
              <path id="Trazado_924580" data-name="Trazado 924580" d="M50.885,20.333V20.2l2.464-2.675a1.677,1.677,0,0,0,.219-1.975l-1.45-2.512a1.677,1.677,0,0,0-1.82-.8l-2.014.452a11.814,11.814,0,0,1-9.721,15.5l.888,2.841a1.677,1.677,0,0,0,1.6,1.177h2.9a1.677,1.677,0,0,0,1.6-1.177l1.085-3.471.113-.065,3.548.8a1.677,1.677,0,0,0,1.82-.8l1.45-2.512a1.677,1.677,0,0,0-.219-1.975Z" fill="#5392f9"/>
            </g>
          </g>
        </g>
        <g id="Grupo_1103791" data-name="Grupo 1103791">
          <g id="Grupo_1103780" data-name="Grupo 1103780">
            <g id="Grupo_1103776" data-name="Grupo 1103776">
              <path id="Trazado_924581" data-name="Trazado 924581" d="M45.521,51.664V67.583h20.8V51.664a6.037,6.037,0,0,0-6.037-6.037H51.559A6.037,6.037,0,0,0,45.521,51.664Z" fill="#e175a5"/>
            </g>
            <g id="Grupo_1103777" data-name="Grupo 1103777">
              <path id="Trazado_924582" data-name="Trazado 924582" d="M56.924,51.664a10.011,10.011,0,0,0-2.018-6.037H51.559a6.037,6.037,0,0,0-6.037,6.037V67.583h11.4Z" fill="#de5791"/>
            </g>
            <g id="Grupo_1103778" data-name="Grupo 1103778">
              <circle id="Elipse_11602" data-name="Elipse 11602" cx="6.708" cy="6.708" r="6.708" transform="translate(49.211 32.21)" fill="#fed2a4"/>
            </g>
            <g id="Grupo_1103779" data-name="Grupo 1103779">
              <path id="Trazado_924583" data-name="Trazado 924583" d="M59.073,33A6.709,6.709,0,0,1,50,42.072,6.709,6.709,0,1,0,59.073,33Z" fill="#ffbd86"/>
            </g>
          </g>
          <g id="Grupo_1103785" data-name="Grupo 1103785">
            <g id="Grupo_1103781" data-name="Grupo 1103781">
              <path id="Trazado_924584" data-name="Trazado 924584" d="M18.685,51.664V67.583h20.8V51.664a6.037,6.037,0,0,0-6.037-6.037H24.723A6.037,6.037,0,0,0,18.685,51.664Z" fill="#e175a5"/>
            </g>
            <g id="Grupo_1103782" data-name="Grupo 1103782">
              <path id="Trazado_924585" data-name="Trazado 924585" d="M39.481,67.583V51.664a6.037,6.037,0,0,0-6.037-6.037H30.1a10.01,10.01,0,0,0-2.018,6.037V67.583Z" fill="#de5791"/>
            </g>
            <g id="Grupo_1103783" data-name="Grupo 1103783">
              <circle id="Elipse_11603" data-name="Elipse 11603" cx="6.708" cy="6.708" r="6.708" transform="translate(22.375 32.21)" fill="#fed2a4"/>
            </g>
            <g id="Grupo_1103784" data-name="Grupo 1103784">
              <path id="Trazado_924586" data-name="Trazado 924586" d="M32.237,33a6.709,6.709,0,0,1-9.075,9.075A6.709,6.709,0,1,0,32.237,33Z" fill="#ffbd86"/>
            </g>
          </g>
          <g id="Grupo_1103790" data-name="Grupo 1103790">
            <g id="Grupo_1103786" data-name="Grupo 1103786">
              <path id="Trazado_924587" data-name="Trazado 924587" d="M32.1,51.664V67.583H52.9V51.664a6.037,6.037,0,0,0-6.037-6.037H38.141A6.037,6.037,0,0,0,32.1,51.664Z" fill="#62a4fb"/>
            </g>
            <g id="Grupo_1103787" data-name="Grupo 1103787">
              <path id="Trazado_924588" data-name="Trazado 924588" d="M46.862,45.626H42.5a6.037,6.037,0,0,1,6.037,6.037V67.583H52.9V51.664a6.038,6.038,0,0,0-6.037-6.037Z" fill="#5392f9"/>
            </g>
            <g id="Grupo_1103788" data-name="Grupo 1103788">
              <circle id="Elipse_11604" data-name="Elipse 11604" cx="6.708" cy="6.708" r="6.708" transform="translate(35.793 32.21)" fill="#fed2a4"/>
            </g>
            <g id="Grupo_1103789" data-name="Grupo 1103789">
              <path id="Trazado_924589" data-name="Trazado 924589" d="M45.655,33a6.709,6.709,0,0,1-9.075,9.075A6.709,6.709,0,1,0,45.655,33Z" fill="#ffbd86"/>
            </g>
          </g>
        </g>
        <g id="Grupo_1103797" data-name="Grupo 1103797">
          <g id="Grupo_1103792" data-name="Grupo 1103792">
            <path id="Trazado_924590" data-name="Trazado 924590" d="M11.978,59.533h6.037V81H11.978Z" fill="#d3effd"/>
          </g>
          <g id="Grupo_1103793" data-name="Grupo 1103793">
            <path id="Trazado_924591" data-name="Trazado 924591" d="M82.578,54.931a4.025,4.025,0,0,0-5.692,0L64.234,67.583H52.564a4.025,4.025,0,0,0,0-8.05H39.818l-2.586-2.1a13.146,13.146,0,0,0-16.426-.107l-2.791,2.2V81l24.293,1.523a13.416,13.416,0,0,0,4.8-.571L65.98,76.123a6.709,6.709,0,0,0,2.764-1.666L82.578,60.623a4.025,4.025,0,0,0,0-5.692Z" fill="#fed2a4"/>
          </g>
          <g id="Grupo_1103794" data-name="Grupo 1103794">
            <path id="Trazado_924592" data-name="Trazado 924592" d="M82.578,54.931a4.025,4.025,0,0,0-5.692,0L64.234,67.583h-2.4A49.269,49.269,0,0,1,57.8,72.147a45.053,45.053,0,0,1-15.67,10.364l.18.011a13.416,13.416,0,0,0,4.8-.571L65.98,76.123a6.709,6.709,0,0,0,2.764-1.666L82.578,60.623a4.025,4.025,0,0,0,0-5.692Z" fill="#ffbd86"/>
          </g>
          <g id="Grupo_1103795" data-name="Grupo 1103795">
            <path id="Trazado_924593" data-name="Trazado 924593" d="M1.245,56.849H11.978V83.683H1.245Z" fill="#62a4fb"/>
          </g>
          <g id="Grupo_1103796" data-name="Grupo 1103796">
            <path id="Trazado_924594" data-name="Trazado 924594" d="M8.289,56.849h3.69V83.683H8.289Z" fill="#5392f9"/>
          </g>
        </g>
        <g id="Grupo_1103798" data-name="Grupo 1103798">
          <circle id="Elipse_11605" data-name="Elipse 11605" cx="1.342" cy="1.342" r="1.342" transform="translate(5.27 60.874)"/>
          <circle id="Elipse_11606" data-name="Elipse 11606" cx="1.342" cy="1.342" r="1.342" transform="translate(5.27 66.241)"/>
          <path id="Trazado_924595" data-name="Trazado 924595" d="M46.429,20.269A3.928,3.928,0,1,0,42.5,24.2,3.933,3.933,0,0,0,46.429,20.269ZM42.5,21.707a1.438,1.438,0,1,1,1.438-1.438A1.44,1.44,0,0,1,42.5,21.707Z"/>
          <path id="Trazado_924596" data-name="Trazado 924596" d="M83.459,54.05a5.27,5.27,0,0,0-7.454,0l-8.443,8.444V58.4a1.245,1.245,0,0,0-2.49,0v6.588l-1.353,1.353h-6.68a5.273,5.273,0,0,0-2.895-7.81V51.664a7.25,7.25,0,0,0-1.806-4.792H60.28a4.8,4.8,0,0,1,4.791,4.793v.921a1.245,1.245,0,1,0,2.49,0v-.921A7.293,7.293,0,0,0,61.578,44.5a7.944,7.944,0,0,0-2.4-12.835,20.253,20.253,0,0,0,3.522-11.4A20.022,20.022,0,0,0,56.612,5.824a1.245,1.245,0,0,0-1.739,1.783,17.55,17.55,0,0,1,5.334,12.663A17.748,17.748,0,0,1,56.588,31c-.221-.019-.444-.03-.67-.03a7.952,7.952,0,0,0-6.709,3.69,8.012,8.012,0,0,0-2.747-2.628,2.954,2.954,0,0,0,.277-.622l.769-2.461,2.515.564a2.909,2.909,0,0,0,3.17-1.39l1.45-2.512a2.91,2.91,0,0,0-.381-3.441l-1.747-1.9,1.747-1.9a2.909,2.909,0,0,0,.381-3.441L53.2,12.42a2.91,2.91,0,0,0-3.17-1.39l-2.516.564L46.74,9.133a2.91,2.91,0,0,0-2.789-2.05h-2.9a2.91,2.91,0,0,0-2.789,2.051l-.769,2.461-2.515-.564a2.91,2.91,0,0,0-3.171,1.39l-1.45,2.512a2.91,2.91,0,0,0,.381,3.441l1.747,1.9-1.747,1.9a2.91,2.91,0,0,0-.381,3.441l1.45,2.512a2.91,2.91,0,0,0,3.171,1.39l2.515-.564.769,2.461a2.947,2.947,0,0,0,.277.622,8.01,8.01,0,0,0-2.747,2.628,7.952,7.952,0,0,0-6.709-3.69c-.226,0-.449.012-.67.03A17.706,17.706,0,0,1,42.5,2.563a17.526,17.526,0,0,1,7.971,1.892,1.245,1.245,0,1,0,1.122-2.223A19.991,19.991,0,0,0,42.5.072,20.2,20.2,0,0,0,25.826,31.665a7.944,7.944,0,0,0-2.4,12.835,7.293,7.293,0,0,0-5.984,7.164v6.624H13.223V56.849A1.245,1.245,0,0,0,11.978,55.6H1.245A1.245,1.245,0,0,0,0,56.849V83.683a1.245,1.245,0,0,0,1.245,1.245H11.978a1.245,1.245,0,0,0,1.245-1.245V82.244h4.761l16.33,1.025a1.245,1.245,0,1,0,.156-2.485l-15.209-.954V60.136l2.317-1.829a11.9,11.9,0,0,1,14.869.1l2.587,2.1a1.245,1.245,0,0,0,.784.278H52.564a2.78,2.78,0,0,1,0,5.56H38.141a1.245,1.245,0,0,0-.88.365L35.5,68.463a1.245,1.245,0,1,0,1.761,1.761l1.4-1.4H64.235a1.246,1.246,0,0,0,.881-.365L77.766,55.811A2.78,2.78,0,1,1,81.7,59.743L67.864,73.578a5.481,5.481,0,0,1-2.251,1.356L46.738,80.763a12.111,12.111,0,0,1-4.352.518l-2.117-.133a1.245,1.245,0,1,0-.156,2.485l2.117.133q.464.029.925.029a14.571,14.571,0,0,0,4.318-.653l18.873-5.829a7.98,7.98,0,0,0,3.278-1.975L83.459,61.5a5.277,5.277,0,0,0,0-7.454ZM55.919,33.455a5.463,5.463,0,1,1-5.463,5.463,5.469,5.469,0,0,1,5.463-5.463Zm-14.868-2.49a.43.43,0,0,1-.412-.3l-1.084-3.47a1.245,1.245,0,0,0-.566-.707l-.112-.065a1.245,1.245,0,0,0-.9-.137l-3.548.8a.431.431,0,0,1-.469-.206l-1.45-2.512a.43.43,0,0,1,.056-.509l2.464-2.675a1.245,1.245,0,0,0,.329-.844V20.2a1.245,1.245,0,0,0-.329-.844l-2.464-2.675a.43.43,0,0,1-.056-.509l1.45-2.512a.431.431,0,0,1,.469-.206l3.548.8a1.244,1.244,0,0,0,.9-.137l.112-.065a1.245,1.245,0,0,0,.566-.707l1.084-3.47a.43.43,0,0,1,.412-.3h2.9a.43.43,0,0,1,.412.3l1.084,3.47a1.244,1.244,0,0,0,.565.706l.113.065a1.245,1.245,0,0,0,.9.137l3.548-.8a.43.43,0,0,1,.469.206l1.45,2.512a.43.43,0,0,1-.056.509l-2.464,2.675a1.245,1.245,0,0,0-.329.844v.129a1.245,1.245,0,0,0,.329.844l2.464,2.675a.43.43,0,0,1,.056.509l-1.45,2.512a.431.431,0,0,1-.469.205l-3.548-.8a1.243,1.243,0,0,0-.894.136l-.115.066a1.245,1.245,0,0,0-.565.706l-1.085,3.471a.43.43,0,0,1-.412.3h-2.9Zm1.45,2.49a5.463,5.463,0,1,1-5.463,5.463A5.469,5.469,0,0,1,42.5,33.455Zm-13.418,0a5.463,5.463,0,1,1-5.463,5.463,5.469,5.469,0,0,1,5.463-5.463ZM10.733,82.437H2.49V58.095h8.243Zm2.49-21.66h3.548V79.754H13.223Zm11.009-6.725a14.354,14.354,0,0,0-4.2,2.3l-.106.083V51.664a4.8,4.8,0,0,1,4.792-4.792h7.942a7.25,7.25,0,0,0-1.806,4.792v1.722a14.321,14.321,0,0,0-6.626.667ZM38.016,56.47a14.4,14.4,0,0,0-4.668-2.52V51.664a4.8,4.8,0,0,1,4.792-4.792h8.721a4.8,4.8,0,0,1,4.792,4.792v6.623H40.259Z"/>
        </g>
      </g>
    </g>
  </g>
</svg>
