<svg xmlns="http://www.w3.org/2000/svg" xmlns:xlink="http://www.w3.org/1999/xlink" width="190" height="91" viewBox="0 0 190 91">
  <defs>
    <clipPath id="clip-path">
      <rect id="Rectángulo_401573" data-name="Rectángulo 401573" width="28.836" height="87" fill="#3ba935"/>
    </clipPath>
    <clipPath id="clip-path-2">
      <rect id="Rectángulo_401572" data-name="Rectángulo 401572" width="72.283" height="205.455" fill="#3ba935"/>
    </clipPath>
    <clipPath id="clip-path-3">
      <rect id="Rectángulo_403385" data-name="Rectángulo 403385" width="71" height="71" transform="translate(1273.051 967)" fill="#fff" stroke="#707070" stroke-width="1"/>
    </clipPath>
  </defs>
  <g id="img3" transform="translate(-1230.051 -957)">
    <g id="Grupo_1101940" data-name="Grupo 1101940" transform="translate(1420.051 1047.667) rotate(180)">
      <g id="Grupo_1099687" data-name="Grupo 1099687" clip-path="url(#clip-path)">
        <g id="Grupo_1099686" data-name="Grupo 1099686" transform="translate(-6.669 -43.137)" opacity="0.45" style="mix-blend-mode: multiply;isolation: isolate">
          <g id="Grupo_1099685" data-name="Grupo 1099685">
            <g id="Grupo_1099684" data-name="Grupo 1099684" clip-path="url(#clip-path-2)">
              <path id="Trazado_873516" data-name="Trazado 873516" d="M3.011,19.235,87.333,7.789,86.8,12.52,2.48,23.966Z" transform="matrix(0.898, -0.44, 0.44, 0.898, -11.17, 159.431)" fill="#3ba935"/>
              <path id="Trazado_873517" data-name="Trazado 873517" d="M3.011,19.235,87.333,7.789,86.8,12.52,2.48,23.966Z" transform="matrix(0.898, -0.44, 0.44, 0.898, -11.17, 146.632)" fill="#3ba935"/>
              <path id="Trazado_873518" data-name="Trazado 873518" d="M3.011,19.235,87.333,7.789,86.8,12.52,2.48,23.966Z" transform="matrix(0.898, -0.44, 0.44, 0.898, -11.17, 133.833)" fill="#3ba935"/>
              <path id="Trazado_873519" data-name="Trazado 873519" d="M3.011,19.235,87.333,7.789,86.8,12.52,2.48,23.966Z" transform="matrix(0.898, -0.44, 0.44, 0.898, -11.17, 121.035)" fill="#3ba935"/>
              <path id="Trazado_873520" data-name="Trazado 873520" d="M3.011,19.235,87.333,7.789,86.8,12.52,2.48,23.966Z" transform="matrix(0.898, -0.44, 0.44, 0.898, -11.17, 108.236)" fill="#3ba935"/>
              <path id="Trazado_873521" data-name="Trazado 873521" d="M3.011,19.235,87.333,7.789,86.8,12.52,2.48,23.966Z" transform="matrix(0.898, -0.44, 0.44, 0.898, -11.17, 95.438)" fill="#3ba935"/>
              <path id="Trazado_873522" data-name="Trazado 873522" d="M3.011,19.235,87.333,7.789,86.8,12.52,2.48,23.966Z" transform="matrix(0.898, -0.44, 0.44, 0.898, -11.17, 82.639)" fill="#3ba935"/>
              <path id="Trazado_873523" data-name="Trazado 873523" d="M3.011,19.235,87.333,7.789,86.8,12.52,2.48,23.966Z" transform="matrix(0.898, -0.44, 0.44, 0.898, -11.17, 69.841)" fill="#3ba935"/>
              <path id="Trazado_873524" data-name="Trazado 873524" d="M3.011,19.235,87.333,7.789,86.8,12.52,2.48,23.966Z" transform="matrix(0.898, -0.44, 0.44, 0.898, -11.17, 57.043)" fill="#3ba935"/>
              <path id="Trazado_873525" data-name="Trazado 873525" d="M3.011,19.235,87.333,7.789,86.8,12.52,2.48,23.966Z" transform="matrix(0.898, -0.44, 0.44, 0.898, -11.17, 44.244)" fill="#3ba935"/>
              <path id="Trazado_873526" data-name="Trazado 873526" d="M3.011,19.235,87.333,7.789,86.8,12.52,2.48,23.966Z" transform="translate(-11.17 31.445) rotate(-26.114)" fill="#3ba935"/>
            </g>
          </g>
        </g>
      </g>
      <rect id="Rectángulo_401574" data-name="Rectángulo 401574" width="161" height="91" transform="translate(29 -0.333)" fill="#d7eed6"/>
    </g>
    <g id="Enmascarar_grupo_1098760" data-name="Enmascarar grupo 1098760" clip-path="url(#clip-path-3)">
      <g id="velocidad" transform="translate(1271.941 965.891)">
        <g id="Grupo_1103072" data-name="Grupo 1103072">
          <g id="Grupo_1103063" data-name="Grupo 1103063">
            <path id="Trazado_919969" data-name="Trazado 919969" d="M71.033,6.49a4.308,4.308,0,0,0-4.3-4.3H6.49a4.308,4.308,0,0,0-4.3,4.3V16.3H71.033Z" fill="#6e6ece"/>
          </g>
          <g id="Grupo_1103064" data-name="Grupo 1103064">
            <path id="Trazado_919970" data-name="Trazado 919970" d="M2.185,16.286V66.729a4.308,4.308,0,0,0,4.3,4.3H66.729a4.308,4.308,0,0,0,4.3-4.3V16.286Z" fill="#bce1f0"/>
          </g>
          <g id="Grupo_1103065" data-name="Grupo 1103065" opacity="0.12">
            <path id="Trazado_919971" data-name="Trazado 919971" d="M66.729,2.185H65.653V61.348a4.308,4.308,0,0,1-4.3,4.3H2.185v1.076a4.308,4.308,0,0,0,4.3,4.3H66.729a4.308,4.308,0,0,0,4.3-4.3V6.49a4.308,4.308,0,0,0-4.3-4.3Z"/>
          </g>
          <g id="Grupo_1103066" data-name="Grupo 1103066">
            <path id="Trazado_919972" data-name="Trazado 919972" d="M54.448,32.094l-4.715,4.7A18.5,18.5,0,0,0,36.6,31.362V24.695a25.224,25.224,0,0,1,17.85,7.4Z" fill="#226180"/>
          </g>
          <g id="Grupo_1103067" data-name="Grupo 1103067">
            <path id="Trazado_919973" data-name="Trazado 919973" d="M36.609,24.706v6.667a18.5,18.5,0,0,0-13.135,5.436l-4.7-4.7A25.125,25.125,0,0,1,36.609,24.706Z" fill="#6e6ece"/>
          </g>
          <g id="Grupo_1103068" data-name="Grupo 1103068">
            <path id="Trazado_919974" data-name="Trazado 919974" d="M23.474,36.809a18.5,18.5,0,0,0-5.436,13.135H11.371A25.162,25.162,0,0,1,18.76,32.105Z" fill="#f56356"/>
          </g>
          <g id="Grupo_1103069" data-name="Grupo 1103069">
            <path id="Trazado_919975" data-name="Trazado 919975" d="M61.848,49.944H55.18a18.5,18.5,0,0,0-5.436-13.135l4.715-4.7a25.162,25.162,0,0,1,7.388,17.839Z" fill="#f56356"/>
          </g>
          <g id="Grupo_1103070" data-name="Grupo 1103070">
            <path id="Trazado_919976" data-name="Trazado 919976" d="M40.67,49.877a4.06,4.06,0,0,1-8.121,0c0-1.731,2.441-8.664,3.539-11.726a.558.558,0,0,1,1.054,0C38.251,41.2,40.67,48.147,40.67,49.877Z" fill="#ffd404"/>
          </g>
          <g id="Grupo_1103071" data-name="Grupo 1103071" opacity="0.12">
            <path id="Trazado_919977" data-name="Trazado 919977" d="M37.142,38.14a.558.558,0,0,0-1.054,0c-.155.433-.333.932-.532,1.487a36.908,36.908,0,0,1,1.886,7.011,4.043,4.043,0,0,1-4.049,4.049,4.261,4.261,0,0,1-.765-.078,4.057,4.057,0,0,0,8.043-.743C40.67,48.147,38.251,41.2,37.142,38.14Z"/>
          </g>
        </g>
        <g id="Grupo_1103108" data-name="Grupo 1103108">
          <g id="Grupo_1103092" data-name="Grupo 1103092">
            <g id="Grupo_1103091" data-name="Grupo 1103091">
              <g id="Grupo_1103090" data-name="Grupo 1103090">
                <g id="Grupo_1103089" data-name="Grupo 1103089">
                  <g id="Grupo_1103076" data-name="Grupo 1103076">
                    <g id="Grupo_1103073" data-name="Grupo 1103073">
                      <path id="Trazado_919978" data-name="Trazado 919978" d="M23.519,23.308H7.466a1.076,1.076,0,1,1,0-2.152H23.519a1.076,1.076,0,0,1,0,2.152Z"/>
                    </g>
                    <g id="Grupo_1103074" data-name="Grupo 1103074">
                      <path id="Trazado_919979" data-name="Trazado 919979" d="M17.584,28.4h-1.7a1.076,1.076,0,1,1,0-2.152h1.7a1.076,1.076,0,1,1,0,2.152Z"/>
                    </g>
                    <g id="Grupo_1103075" data-name="Grupo 1103075">
                      <path id="Trazado_919980" data-name="Trazado 919980" d="M12.236,28.4H7.466a1.076,1.076,0,1,1,0-2.152h4.77a1.076,1.076,0,1,1,0,2.152Z"/>
                    </g>
                  </g>
                  <g id="Grupo_1103088" data-name="Grupo 1103088">
                    <g id="Grupo_1103087" data-name="Grupo 1103087">
                      <g id="Grupo_1103086" data-name="Grupo 1103086">
                        <g id="Grupo_1103085" data-name="Grupo 1103085">
                          <g id="Grupo_1103084" data-name="Grupo 1103084">
                            <g id="Grupo_1103077" data-name="Grupo 1103077">
                              <path id="Trazado_919981" data-name="Trazado 919981" d="M66.729,72.109H6.49a5.393,5.393,0,0,1-5.38-5.38V6.49a5.393,5.393,0,0,1,5.38-5.38H66.729a5.393,5.393,0,0,1,5.38,5.38V66.729A5.393,5.393,0,0,1,66.729,72.109ZM6.49,3.262A3.231,3.231,0,0,0,3.262,6.49V66.729A3.231,3.231,0,0,0,6.49,69.957H66.729a3.231,3.231,0,0,0,3.228-3.228V6.49a3.231,3.231,0,0,0-3.228-3.228Z"/>
                            </g>
                            <g id="Grupo_1103078" data-name="Grupo 1103078">
                              <path id="Trazado_919982" data-name="Trazado 919982" d="M71.033,17.362H2.185a1.076,1.076,0,0,1,0-2.152H71.033a1.076,1.076,0,1,1,0,2.152Z"/>
                            </g>
                            <g id="Grupo_1103082" data-name="Grupo 1103082">
                              <g id="Grupo_1103079" data-name="Grupo 1103079">
                                <path id="Trazado_919983" data-name="Trazado 919983" d="M11.094,10.317H8.82a1.076,1.076,0,1,1,0-2.152h2.274A1.07,1.07,0,0,1,12.17,9.241,1.084,1.084,0,0,1,11.094,10.317Z"/>
                              </g>
                              <g id="Grupo_1103080" data-name="Grupo 1103080">
                                <path id="Trazado_919984" data-name="Trazado 919984" d="M17.306,10.317H15.032a1.076,1.076,0,0,1,0-2.152h2.274a1.076,1.076,0,0,1,0,2.152Z"/>
                              </g>
                              <g id="Grupo_1103081" data-name="Grupo 1103081">
                                <path id="Trazado_919985" data-name="Trazado 919985" d="M23.519,10.317H21.245a1.076,1.076,0,1,1,0-2.152h2.274a1.076,1.076,0,0,1,0,2.152Z"/>
                              </g>
                            </g>
                            <g id="Grupo_1103083" data-name="Grupo 1103083">
                              <path id="Trazado_919986" data-name="Trazado 919986" d="M64.222,10.317H38.75a1.076,1.076,0,1,1,0-2.152H64.222a1.076,1.076,0,1,1,0,2.152Z"/>
                            </g>
                          </g>
                        </g>
                      </g>
                    </g>
                  </g>
                </g>
              </g>
            </g>
          </g>
          <g id="Grupo_1103107" data-name="Grupo 1103107">
            <g id="Grupo_1103106" data-name="Grupo 1103106">
              <g id="Grupo_1103105" data-name="Grupo 1103105">
                <g id="Grupo_1103103" data-name="Grupo 1103103">
                  <g id="Grupo_1103102" data-name="Grupo 1103102">
                    <g id="Grupo_1103099" data-name="Grupo 1103099">
                      <g id="Grupo_1103097" data-name="Grupo 1103097">
                        <g id="Grupo_1103093" data-name="Grupo 1103093">
                          <path id="Trazado_919987" data-name="Trazado 919987" d="M49.744,37.885a1.073,1.073,0,0,1-.765-.311,17.379,17.379,0,0,0-12.37-5.125,1.07,1.07,0,0,1-1.076-1.076V24.706a1.07,1.07,0,0,1,1.076-1.076,26.15,26.15,0,0,1,18.6,7.71,1.071,1.071,0,0,1,0,1.52L50.5,37.575A1.1,1.1,0,0,1,49.744,37.885ZM37.685,30.319A19.52,19.52,0,0,1,49.722,35.3l3.195-3.195a24.026,24.026,0,0,0-15.232-6.312Z"/>
                        </g>
                        <g id="Grupo_1103094" data-name="Grupo 1103094">
                          <path id="Trazado_919988" data-name="Trazado 919988" d="M23.474,37.885a1.073,1.073,0,0,1-.765-.311L17.994,32.86a1.071,1.071,0,0,1,0-1.52,26.194,26.194,0,0,1,18.615-7.71,1.07,1.07,0,0,1,1.076,1.076v6.667a1.07,1.07,0,0,1-1.076,1.076,17.36,17.36,0,0,0-12.37,5.125A1.122,1.122,0,0,1,23.474,37.885ZM20.3,32.116l3.2,3.2A19.394,19.394,0,0,1,35.533,30.33V25.815a23.9,23.9,0,0,0-15.232,6.3Z"/>
                        </g>
                        <g id="Grupo_1103095" data-name="Grupo 1103095">
                          <path id="Trazado_919989" data-name="Trazado 919989" d="M18.038,51.02H11.371A1.07,1.07,0,0,1,10.3,49.944a26.15,26.15,0,0,1,7.71-18.6,1.071,1.071,0,0,1,1.52,0l4.715,4.715a1.071,1.071,0,0,1,0,1.52,17.379,17.379,0,0,0-5.125,12.37,1.077,1.077,0,0,1-1.076,1.076Zm-5.569-2.152h4.515a19.52,19.52,0,0,1,4.981-12.037l-3.2-3.2a24.074,24.074,0,0,0-6.3,15.232Z"/>
                        </g>
                        <g id="Grupo_1103096" data-name="Grupo 1103096">
                          <path id="Trazado_919990" data-name="Trazado 919990" d="M61.848,51.02H55.18A1.07,1.07,0,0,1,54.1,49.944a17.379,17.379,0,0,0-5.125-12.37,1.071,1.071,0,0,1,0-1.52l4.715-4.715a1.082,1.082,0,0,1,.765-.311,1.1,1.1,0,0,1,.765.311,26.15,26.15,0,0,1,7.71,18.6,1.1,1.1,0,0,1-1.087,1.076Zm-5.625-2.152h4.515a23.967,23.967,0,0,0-6.312-15.232l-3.195,3.2A19.344,19.344,0,0,1,56.223,48.868Z"/>
                        </g>
                      </g>
                      <g id="Grupo_1103098" data-name="Grupo 1103098">
                        <path id="Trazado_919991" data-name="Trazado 919991" d="M36.609,55a5.139,5.139,0,0,1-5.147-5.125c0-1.753,1.964-7.544,3.605-12.092a1.637,1.637,0,0,1,3.084,0c1.342,3.705,3.583,10.206,3.583,12.092A5.128,5.128,0,0,1,36.609,55Zm0-15.143c-1.864,5.236-3,9.019-3,10.007a2.984,2.984,0,0,0,5.968,0C39.594,48.89,38.418,44.952,36.609,39.86Zm-.477-1.353Z"/>
                      </g>
                    </g>
                    <g id="Grupo_1103100" data-name="Grupo 1103100">
                      <path id="Trazado_919992" data-name="Trazado 919992" d="M44.63,60.539H28.589a1.076,1.076,0,0,1,0-2.152H44.63a1.076,1.076,0,0,1,0,2.152Z"/>
                    </g>
                    <g id="Grupo_1103101" data-name="Grupo 1103101">
                      <path id="Trazado_919993" data-name="Trazado 919993" d="M40.67,65.32H32.538a1.076,1.076,0,0,1,0-2.152H40.67a1.076,1.076,0,0,1,0,2.152Z"/>
                    </g>
                  </g>
                </g>
                <g id="Grupo_1103104" data-name="Grupo 1103104">
                  <path id="Trazado_919994" data-name="Trazado 919994" d="M36.609,51.242a1.769,1.769,0,1,1,1.764-1.764A1.771,1.771,0,0,1,36.609,51.242Zm0-2.152a.393.393,0,0,0-.388.388.384.384,0,0,0,.388.377.374.374,0,0,0,.377-.377A.384.384,0,0,0,36.609,49.09Z"/>
                </g>
              </g>
            </g>
          </g>
        </g>
      </g>
    </g>
  </g>
</svg>
