<svg xmlns="http://www.w3.org/2000/svg" xmlns:xlink="http://www.w3.org/1999/xlink" width="71" height="71" viewBox="0 0 71 71">
  <defs>
    <clipPath id="clip-path">
      <rect id="Rectángulo_403481" data-name="Rectángulo 403481" width="71" height="71" transform="translate(852.051 12036.125)" fill="#fff" stroke="#707070" stroke-width="1"/>
    </clipPath>
  </defs>
  <g id="img38" transform="translate(-852.051 -12036.125)" clip-path="url(#clip-path)">
    <g id="datos" transform="translate(850.906 12034.979)">
      <g id="Grupo_1103730" data-name="Grupo 1103730">
        <path id="Trazado_923597" data-name="Trazado 923597" d="M21.758,19.468a9.162,9.162,0,0,1-15.64,6.479L12.6,19.468Z" fill="#ffda44"/>
        <path id="Trazado_923598" data-name="Trazado 923598" d="M12.6,10.306v9.161L6.118,25.946A9.162,9.162,0,0,1,12.6,10.306Z" fill="#83d8f4"/>
        <path id="Trazado_923599" data-name="Trazado 923599" d="M21.758,19.468H12.6V10.306A9.161,9.161,0,0,1,21.758,19.468Z" fill="#ab2300"/>
        <g id="Grupo_1103728" data-name="Grupo 1103728">
          <circle id="Elipse_11582" data-name="Elipse 11582" cx="12.597" cy="12.597" r="12.597" transform="translate(41.226 38.935)" fill="#ff9811"/>
          <circle id="Elipse_11583" data-name="Elipse 11583" cx="9.161" cy="9.161" r="9.161" transform="translate(44.661 42.371)" fill="#ffda44"/>
        </g>
        <path id="Trazado_923600" data-name="Trazado 923600" d="M45.806,4.581h4.581v22.9H45.806Z" fill="#91cc04"/>
        <path id="Trazado_923601" data-name="Trazado 923601" d="M53.823,16.032H58.4V27.484H53.823Z" fill="#83d8f4"/>
        <path id="Trazado_923602" data-name="Trazado 923602" d="M61.839,11.452h4.581V27.484H61.839Z" fill="#ff9811"/>
        <path id="Trazado_923603" data-name="Trazado 923603" d="M29.774,16.032h4.581V27.484H29.774Z" fill="#83d8f4"/>
        <path id="Trazado_923604" data-name="Trazado 923604" d="M37.79,11.452h4.581V27.484H37.79Z" fill="#ff9811"/>
        <path id="Trazado_923605" data-name="Trazado 923605" d="M2.29,42.371H36.645V71H2.29Z" fill="#ffeb99"/>
        <path id="Trazado_923606" data-name="Trazado 923606" d="M5.726,46.952H33.21v5.726H5.726Z" fill="#ff9811"/>
        <g id="Grupo_1103729" data-name="Grupo 1103729">
          <path id="Trazado_923607" data-name="Trazado 923607" d="M2.29,2.29H8.016V5.726H2.29Z" fill="#ab2300"/>
          <path id="Trazado_923608" data-name="Trazado 923608" d="M65.274,67.565H71V71H65.274Z" transform="translate(136.274 138.565) rotate(180)" fill="#ab2300"/>
        </g>
      </g>
      <g id="Grupo_1103731" data-name="Grupo 1103731">
        <path id="Trazado_923609" data-name="Trazado 923609" d="M12.6,9.161A10.3,10.3,0,0,0,5.221,26.655a1.106,1.106,0,0,0,.189.189A10.3,10.3,0,1,0,12.6,9.161Zm1.145,2.373a8.032,8.032,0,0,1,6.788,6.788H13.742ZM4.581,19.468a8.028,8.028,0,0,1,6.871-7.933v7.459L6.18,24.266a7.974,7.974,0,0,1-1.6-4.8ZM12.6,27.484a7.974,7.974,0,0,1-4.8-1.6l5.272-5.272H20.53A8.028,8.028,0,0,1,12.6,27.484Z"/>
        <path id="Trazado_923610" data-name="Trazado 923610" d="M53.823,37.79a13.735,13.735,0,0,0-11.47,21.3L37.79,63.655V42.371a1.145,1.145,0,0,0-1.145-1.145H33.683L39.409,35.5H50.387a1.145,1.145,0,1,0,0-2.29H38.935a1.146,1.146,0,0,0-.81.335l-7.68,7.681H2.29a1.145,1.145,0,0,0-1.145,1.145V71A1.145,1.145,0,0,0,2.29,72.145H36.645A1.145,1.145,0,0,0,37.79,71V66.893L43.781,60.9A13.739,13.739,0,1,0,53.823,37.79ZM35.5,66.418v3.437H3.435V43.516H35.5Zm18.323-3.434A11.452,11.452,0,1,1,65.274,51.532,11.452,11.452,0,0,1,53.823,62.984Z"/>
        <path id="Trazado_923611" data-name="Trazado 923611" d="M53.823,41.226A10.306,10.306,0,1,0,64.129,51.532,10.306,10.306,0,0,0,53.823,41.226Zm0,18.323a8.016,8.016,0,1,1,8.016-8.016A8.016,8.016,0,0,1,53.823,59.548Z"/>
        <path id="Trazado_923612" data-name="Trazado 923612" d="M57.258,51.532v3.435a1.145,1.145,0,0,1-1.145,1.145H54.968a1.145,1.145,0,0,1-2.29,0H51.532a1.145,1.145,0,0,1,0-2.29h3.435V52.677H51.532a1.145,1.145,0,0,1-1.145-1.145V48.1a1.145,1.145,0,0,1,1.145-1.145h1.145a1.145,1.145,0,0,1,2.29,0h1.145a1.145,1.145,0,0,1,0,2.29H52.677v1.145h3.435A1.145,1.145,0,0,1,57.258,51.532Z"/>
        <path id="Trazado_923613" data-name="Trazado 923613" d="M45.806,28.629h4.581a1.145,1.145,0,0,0,1.145-1.145V4.581a1.145,1.145,0,0,0-1.145-1.145H45.806a1.145,1.145,0,0,0-1.145,1.145v22.9A1.145,1.145,0,0,0,45.806,28.629Zm1.145-22.9h2.29V26.339h-2.29Z"/>
        <path id="Trazado_923614" data-name="Trazado 923614" d="M53.823,28.629H58.4a1.145,1.145,0,0,0,1.145-1.145V16.032A1.145,1.145,0,0,0,58.4,14.887H53.823a1.145,1.145,0,0,0-1.145,1.145V27.484A1.145,1.145,0,0,0,53.823,28.629Zm1.145-11.452h2.29v9.161h-2.29Z"/>
        <path id="Trazado_923615" data-name="Trazado 923615" d="M61.839,28.629h4.581a1.145,1.145,0,0,0,1.145-1.145V11.452a1.145,1.145,0,0,0-1.145-1.145H61.839a1.145,1.145,0,0,0-1.145,1.145V27.484A1.145,1.145,0,0,0,61.839,28.629ZM62.984,12.6h2.29V26.339h-2.29Z"/>
        <path id="Trazado_923616" data-name="Trazado 923616" d="M29.774,28.629h4.581A1.145,1.145,0,0,0,35.5,27.484V16.032a1.145,1.145,0,0,0-1.145-1.145H29.774a1.145,1.145,0,0,0-1.145,1.145V27.484A1.145,1.145,0,0,0,29.774,28.629Zm1.145-11.452h2.29v9.161h-2.29Z"/>
        <path id="Trazado_923617" data-name="Trazado 923617" d="M37.79,28.629h4.581a1.145,1.145,0,0,0,1.145-1.145V11.452a1.145,1.145,0,0,0-1.145-1.145H37.79a1.145,1.145,0,0,0-1.145,1.145V27.484A1.145,1.145,0,0,0,37.79,28.629ZM38.935,12.6h2.29V26.339h-2.29Z"/>
        <path id="Trazado_923618" data-name="Trazado 923618" d="M26.339,32.065H71a1.145,1.145,0,0,0,0-2.29H27.484V2.29a1.145,1.145,0,0,0-2.29,0V30.919A1.145,1.145,0,0,0,26.339,32.065Z"/>
        <path id="Trazado_923619" data-name="Trazado 923619" d="M33.21,45.806H5.726a1.145,1.145,0,0,0-1.145,1.145v5.726a1.145,1.145,0,0,0,1.145,1.145H33.21a1.145,1.145,0,0,0,1.145-1.145V46.952A1.145,1.145,0,0,0,33.21,45.806Zm-1.145,5.726H6.871V48.1H32.065Z"/>
        <path id="Trazado_923620" data-name="Trazado 923620" d="M33.21,54.968H5.726a1.145,1.145,0,1,0,0,2.29H33.21a1.145,1.145,0,0,0,0-2.29Z"/>
        <path id="Trazado_923621" data-name="Trazado 923621" d="M33.21,58.4H5.726a1.145,1.145,0,1,0,0,2.29H33.21a1.145,1.145,0,1,0,0-2.29Z"/>
        <path id="Trazado_923622" data-name="Trazado 923622" d="M33.21,61.839H5.726a1.145,1.145,0,1,0,0,2.29H33.21a1.145,1.145,0,1,0,0-2.29Z"/>
        <path id="Trazado_923623" data-name="Trazado 923623" d="M17.177,65.274H5.726a1.145,1.145,0,1,0,0,2.29H17.177a1.145,1.145,0,1,0,0-2.29Z"/>
        <path id="Trazado_923624" data-name="Trazado 923624" d="M21.758,65.274H20.613a1.145,1.145,0,1,0,0,2.29h1.145a1.145,1.145,0,1,0,0-2.29Z"/>
        <path id="Trazado_923625" data-name="Trazado 923625" d="M53.823,33.21a1.145,1.145,0,0,0,0,2.29h1.145a1.145,1.145,0,1,0,0-2.29Z"/>
        <path id="Trazado_923626" data-name="Trazado 923626" d="M17.177,30.919H5.726a1.145,1.145,0,0,0,0,2.29H16.7l5.39,5.39a1.145,1.145,0,1,0,1.62-1.62l-5.726-5.726a1.145,1.145,0,0,0-.81-.335Z"/>
        <path id="Trazado_923627" data-name="Trazado 923627" d="M2.29,6.871H8.016A1.145,1.145,0,0,0,9.161,5.726V2.29A1.145,1.145,0,0,0,8.016,1.145H2.29A1.145,1.145,0,0,0,1.145,2.29V5.726A1.145,1.145,0,0,0,2.29,6.871ZM3.435,3.435H6.871V4.581H3.435Z"/>
        <path id="Trazado_923628" data-name="Trazado 923628" d="M11.452,3.435H21.758a1.145,1.145,0,0,0,0-2.29H11.452a1.145,1.145,0,0,0,0,2.29Z"/>
        <path id="Trazado_923629" data-name="Trazado 923629" d="M11.452,6.871h3.435a1.145,1.145,0,0,0,0-2.29H11.452a1.145,1.145,0,0,0,0,2.29Z"/>
        <path id="Trazado_923630" data-name="Trazado 923630" d="M71,66.419H65.274a1.145,1.145,0,0,0-1.145,1.145V71a1.145,1.145,0,0,0,1.145,1.145H71A1.145,1.145,0,0,0,72.145,71V67.565A1.145,1.145,0,0,0,71,66.419Zm-1.145,3.435H66.419V68.71h3.435Z"/>
        <path id="Trazado_923631" data-name="Trazado 923631" d="M61.839,69.855H51.532a1.145,1.145,0,1,0,0,2.29H61.839a1.145,1.145,0,1,0,0-2.29Z"/>
        <path id="Trazado_923632" data-name="Trazado 923632" d="M61.839,66.419H58.4a1.145,1.145,0,1,0,0,2.29h3.435a1.145,1.145,0,1,0,0-2.29Z"/>
      </g>
    </g>
  </g>
</svg>
