<svg id="img4" xmlns="http://www.w3.org/2000/svg" xmlns:xlink="http://www.w3.org/1999/xlink" width="124.318" height="196.345" viewBox="0 0 124.318 196.345">
  <defs>
    <clipPath id="clip-path">
      <rect id="Rectángulo_404075" data-name="Rectángulo 404075" width="124.318" height="196.345" fill="none"/>
    </clipPath>
  </defs>
  <path id="Trazado_919995" data-name="Trazado 919995" d="M457.267,211.562l-.66-4.849h-3.859l-.66,4.849h-1.432v.791H458.7v-.791Z" transform="translate(-341.749 -156.758)" fill="#381a3f"/>
  <g id="Grupo_1103110" data-name="Grupo 1103110">
    <g id="Grupo_1103109" data-name="Grupo 1103109" clip-path="url(#clip-path)">
      <path id="Trazado_919996" data-name="Trazado 919996" d="M109.943,244.142l.018-.061-1.545-2.51-1.115-2.71q-.063,1.464-.126,2.928l-.6,2.886.048.05,1-.877a40.649,40.649,0,0,0,6.514,15.9l2.562-2a38.465,38.465,0,0,1-7.985-14.087Z" transform="translate(-80.821 -181.137)" fill="#c5c6fe"/>
      <path id="Trazado_919997" data-name="Trazado 919997" d="M411.817,244.029l-2.747-.406a38.519,38.519,0,0,1-4.195,14.352l-.556-1.232-.056.031-.657,2.873-1.1,2.716,2.142-2,2.449-1.639v-.069l-1.381-.078a40.428,40.428,0,0,0,6.1-14.547" transform="translate(-305.233 -184.749)" fill="#c5c6fe"/>
      <path id="Trazado_919998" data-name="Trazado 919998" d="M370.762,89.226,369.5,84.967l-.648,1.24a40.616,40.616,0,0,0-7.639-7.344l-1.151,1.765a39.1,39.1,0,0,1,8.1,6.137l-1.334.392Z" transform="translate(-273.049 -59.806)" fill="#c5c6fe"/>
      <path id="Trazado_919999" data-name="Trazado 919999" d="M144,87.011a40.743,40.743,0,0,0-7.023,6.285l2.1,1.572a38.882,38.882,0,0,1,5.563-6.991l.31,1.233,2.221-3.847-4.305,1.094Z" transform="translate(-103.878 -64.658)" fill="#c5c6fe"/>
      <path id="Trazado_920000" data-name="Trazado 920000" d="M241.139,253.747l11.476,13L247.828,275l-5.66-9.971Z" transform="translate(-182.865 -192.426)" fill="#5975d1"/>
      <path id="Trazado_920001" data-name="Trazado 920001" d="M234.813,363.139l-14.483-2.076,33.8.782,1.563,2.15Z" transform="translate(-167.084 -273.808)" fill="#374a4f"/>
      <path id="Trazado_920002" data-name="Trazado 920002" d="M126.485,257.942s-16.345,20.915-15.758,24.92,5.666,2.833,7.522.977,9.672-16.217,9.672-16.217Z" transform="translate(-83.957 -195.607)" fill="#fd5e5a"/>
      <path id="Trazado_920003" data-name="Trazado 920003" d="M0,793.675c0,1.428,13.066,2.584,29.184,2.584s29.184-1.157,29.184-2.584S45.3,791.09,29.184,791.09,0,792.247,0,793.675" transform="translate(0 -599.914)" fill="#c3aae2" style="mix-blend-mode: multiply;isolation: isolate"/>
      <path id="Trazado_920004" data-name="Trazado 920004" d="M190.584,464.513l-9.614,65.916,4.562-.747,7.837-35.731s5.165-33.161,5.165-45.133Z" transform="translate(-137.236 -340.356)" fill="#432c47"/>
      <path id="Trazado_920005" data-name="Trazado 920005" d="M118.473,783.983h8.59l-5.562-3.359.605-2.666c-1.27,0-1.577.841-2.859.841-.362,1.961-.774,5.184-.774,5.184" transform="translate(-89.843 -589.955)" fill="#432c47"/>
      <path id="Trazado_920006" data-name="Trazado 920006" d="M183.278,781.72l8.7.337-5.562-3.36.605-2.666c-1.27,0-1.577.841-2.859.841-.362,1.961-.88,4.847-.88,4.847" transform="translate(-138.987 -588.495)" fill="#432c47"/>
      <path id="Trazado_920007" data-name="Trazado 920007" d="M147.6,408.637c-9.458.2-13.417,5.52-22.2,7.954l.346,2.5-.607,42.194s-9.083,29.737-10.909,39.612c0,0,5.191-.31,4.893-.31L134.4,465.312l6.9-32.229,5.649-12.529Z" transform="translate(-86.625 -309.885)" fill="#2a417f"/>
      <path id="Trazado_920008" data-name="Trazado 920008" d="M156.649,509.8l-8.261,31.77L134.478,577.3l15.275-35.279Z" transform="translate(-101.979 -386.597)" fill="#35518e"/>
      <path id="Trazado_920009" data-name="Trazado 920009" d="M164.825,246.524a15.967,15.967,0,0,1,12.23,1.765c5.649,3.341,7.194,35.936,6.274,48.662-9.24,1.421-18.572,3.146-27.662,1.55l.163-.579,3.449-20.6-.827-11.963s-4.389-16.146,6.374-18.835" transform="translate(-118.048 -186.561)" fill="#5994b3"/>
      <path id="Trazado_920010" data-name="Trazado 920010" d="M210.52,207.079s-.152,5.463-.632,6.778-4.368,2.231-6.046.324-.115-14.711-.115-14.711Z" transform="translate(-153.992 -151.266)" fill="#fc7575"/>
      <path id="Trazado_920011" data-name="Trazado 920011" d="M204.492,202.562c.16-1.811.317-3.093.317-3.093l6.793,7.609s-.032,1.142-.112,2.508a5.291,5.291,0,0,1-3.41-1.037c-1.753-1.11-2.906-3.733-3.588-5.987" transform="translate(-155.074 -151.265)" fill="#fd5e5a"/>
      <path id="Trazado_920012" data-name="Trazado 920012" d="M213.324,164.1s1.68.959,2.427,4.281-.216,9.01-1.807,11.523c-.946,1.493-2.729,1.791-5.349.131s-4.077-6.417-4.529-8.427,1.948-9.745,9.259-7.509" transform="translate(-154.71 -124.142)" fill="#fc7575"/>
      <path id="Trazado_920013" data-name="Trazado 920013" d="M209.982,152.981s.791,2.12,2.77,2.106,1.625-1.788,2.42-3.043,5.538-5.078.213-8.45-7.78,3.729-9.656,3.246-5.247-2.494-6.357.259.6,3.274-.673,4.508,1.509,5.788,1.837,6.661,2,1.611,1.486-.686-1.344-3.878-.724-4.858,2.113-2.007,2.353-.937c.11.492,1.582,2.058,2.615,1.093s1.825.452,2.656.7a.831.831,0,0,0,1.059-.6" transform="translate(-150.429 -108.201)" fill="#5c2c55"/>
      <path id="Trazado_920014" data-name="Trazado 920014" d="M200.377,195.641c-.054-.352.72-3.419-1.129-3.135s-1.642,3.482-.207,3.885,1.336-.75,1.336-.75" transform="translate(-150.085 -145.97)" fill="#fc7575"/>
      <path id="Trazado_920015" data-name="Trazado 920015" d="M202.675,197.214s-.154-1.413-.909-1.066-.444,2.241.317,2.494.592-1.428.592-1.428" transform="translate(-152.678 -148.705)" fill="#fd5e5a"/>
      <path id="Trazado_920016" data-name="Trazado 920016" d="M233.8,197.808c-.076.415.1.794.384.847s.584-.241.659-.656-.1-.794-.384-.847-.584.241-.66.655" transform="translate(-177.287 -149.504)" fill="#2846a6"/>
      <path id="Trazado_920017" data-name="Trazado 920017" d="M246.389,200.115c-.076.415.1.794.384.847s.584-.241.66-.655-.1-.794-.384-.847-.584.241-.66.656" transform="translate(-186.832 -151.253)" fill="#2846a6"/>
      <path id="Trazado_920018" data-name="Trazado 920018" d="M228.589,220.016a2.422,2.422,0,0,1-.754-1.14.13.13,0,1,0-.242.095,2.556,2.556,0,0,0,.907,1.162,2.628,2.628,0,0,0,1.365.511.017.017,0,0,0-.013-.019,2.9,2.9,0,0,1-1.263-.608" transform="translate(-172.583 -165.915)" fill="#2846a6"/>
      <path id="Trazado_920019" data-name="Trazado 920019" d="M233.9,189.451l.071.508a1.218,1.218,0,0,0-1.373.161s.688-.9,1.3-.67" transform="translate(-176.387 -143.64)" fill="#2846a6"/>
      <path id="Trazado_920020" data-name="Trazado 920020" d="M249.192,193.867a2.3,2.3,0,0,0-.873-.557l.272-.326s.677.466.6.882" transform="translate(-188.31 -146.348)" fill="#2846a6"/>
      <path id="Trazado_920021" data-name="Trazado 920021" d="M238.081,202.353a10.476,10.476,0,0,0,.812-5.452.13.13,0,0,0-.259.02,12.6,12.6,0,0,1-.683,5.1c-.729-.257-.97-.507-1.057-.3s.26.2,1.187.632" transform="translate(-179.636 -149.227)" fill="#2846a6"/>
      <path id="Trazado_920022" data-name="Trazado 920022" d="M283.026,144.968l-.024,0a.182.182,0,0,1-.157-.205c.878-6.563-4.133-7.388-4.347-7.42a.183.183,0,0,1,.053-.362c.056.008,5.583.9,4.656,7.83a.183.183,0,0,1-.181.159" transform="translate(-211.077 -103.875)" fill="#1b2b80"/>
      <path id="Trazado_920023" data-name="Trazado 920023" d="M232.173,365.434l-11.843-.373v2.283s4.177,2.884,5.029,2.884c.636,0,4.427-.541,7.074.167-.067-1.636-.153-3.3-.26-4.96" transform="translate(-167.085 -276.84)" fill="#5994b3"/>
      <path id="Trazado_920024" data-name="Trazado 920024" d="M254.132,361.845l-33.8-.782v1.954l10.063.977h25.3Z" transform="translate(-167.085 -273.808)" fill="#381a3f"/>
      <path id="Trazado_920025" data-name="Trazado 920025" d="M261.969,307.739l2.735-20.858,25.572.44-2.638,20.736Z" transform="translate(-198.661 -217.553)" fill="#6f4d77"/>
      <path id="Trazado_920026" data-name="Trazado 920026" d="M264.7,286.882l-2.735,20.858,25.669.317.221-1.734c-2.694.23-14.864,1.034-15.957-3.131-.953-3.63,3.854-12.341,6.067-16.082Z" transform="translate(-198.661 -217.554)" fill="#653870"/>
      <path id="Trazado_920027" data-name="Trazado 920027" d="M264.7,286.882l-2.735,20.858,25.669.317-24.527-1.642Z" transform="translate(-198.661 -217.554)" fill="#381a3f"/>
      <path id="Trazado_920028" data-name="Trazado 920028" d="M242.4,362.766a9.461,9.461,0,0,1-4.908,2.015c-2.821.22-4.872-.953-5.678-.953a19.647,19.647,0,0,0-4.506.22c-1.246.366-5.531-2.061-5.531-2.061s-1.883-2.566-1.353-2.717,3,3.019,3.624,3.019-2.345-2.752-1.722-3.024,2.161,2.841,3.7,3.024,2.326-.128,1.722-.733-2.271-1.355-1.685-1.575,15.914,2.361,16.338,2.785" transform="translate(-167.084 -272.431)" fill="#fc7575"/>
      <path id="Trazado_920029" data-name="Trazado 920029" d="M139.975,334.048a9.517,9.517,0,0,0-3.224-.879c-1.368,0-3.517.879-7.425.879s-17.336.157-18.107,2.274-2.484,4.88,1.021,6.09,20.6-5.043,22.361-5.433c0,0,1.074,1.563,2.149,1.563s1.954-.049,1.954-.049,1.88.269,2.2-.049,1.368-.293,1.368-.293,2.149,2.2,2.979,2.2-1.2-3.346-1.905-4.054a26.947,26.947,0,0,0-3.37-2.247" transform="translate(-83.506 -252.655)" fill="#fc7575"/>
      <path id="Trazado_920030" data-name="Trazado 920030" d="M138.056,252.248s3.025,6.136.719,10.564-5.443,9.594-5.443,9.594l-9.687-3.321s9.525-16.358,14.411-16.838" transform="translate(-93.765 -191.289)" fill="#59d5b3"/>
      <path id="Trazado_920031" data-name="Trazado 920031" d="M168.453,252.248c1.75,3.117,2.669,7.375,1.022,10.78a86.174,86.174,0,0,1-5.747,9.379c4.63-9.528,7.96-11.223,4.724-20.159" transform="translate(-124.162 -191.289)" fill="#59f6d1"/>
      <path id="Trazado_920032" data-name="Trazado 920032" d="M100.865,158.32H94.572a2.115,2.115,0,0,1-2.115-2.115V142.071a2.115,2.115,0,0,1,2.115-2.115h6.293a2.115,2.115,0,0,1,2.115,2.115v14.134a2.115,2.115,0,0,1-2.115,2.115" transform="translate(-70.114 -106.134)" fill="#653870"/>
      <rect id="Rectángulo_404072" data-name="Rectángulo 404072" width="8.563" height="13.98" transform="translate(23.478 36.246)" fill="#6269a0"/>
      <path id="Trazado_920033" data-name="Trazado 920033" d="M113.012,208.694a.859.859,0,1,1-.859-.859.859.859,0,0,1,.859.859" transform="translate(-84.399 -157.609)" fill="#363a68"/>
      <path id="Trazado_920034" data-name="Trazado 920034" d="M216.547,0a8.192,8.192,0,0,1,8.173,6.837,6.972,6.972,0,0,1-.956,13.864l-22.193.283a5.845,5.845,0,0,1-.149-11.689h.119a6.574,6.574,0,0,1,8.179-5.457A8.159,8.159,0,0,1,216.547,0" transform="translate(-148.37 0.001)" fill="#c5c6fe"/>
      <rect id="Rectángulo_404073" data-name="Rectángulo 404073" width="23.47" height="16.464" transform="translate(100.849 34.119)" fill="#653870"/>
      <rect id="Rectángulo_404074" data-name="Rectángulo 404074" width="21.614" height="13.411" transform="translate(101.747 34.837)" fill="#65c8d0"/>
      <path id="Trazado_920035" data-name="Trazado 920035" d="M498.468,204.7a.277.277,0,1,1-.277-.277.277.277,0,0,1,.277.277" transform="translate(-377.587 -155.018)" fill="lime"/>
    </g>
  </g>
</svg>
