<svg xmlns="http://www.w3.org/2000/svg" width="85.051" height="85" viewBox="0 0 85.051 85">
  <g id="img6" transform="translate(-1020 -1268)">
    <circle id="Elipse_11563" data-name="Elipse 11563" cx="42.5" cy="42.5" r="42.5" transform="translate(1020.051 1268)" fill="#b0dcad"/>
    <g id="cables" transform="translate(1020 1245.031)">
      <g id="Grupo_1102657" data-name="Grupo 1102657" transform="translate(30.177 93.985)">
        <g id="Grupo_1102656" data-name="Grupo 1102656">
          <path id="Trazado_918828" data-name="Trazado 918828" d="M185.816,434.1h-3.233a.808.808,0,0,1-.808-.808V425.62h4.849V433.3A.808.808,0,0,1,185.816,434.1Z" transform="translate(-181.775 -425.62)" fill="#365e7d"/>
        </g>
      </g>
      <g id="Grupo_1102658" data-name="Grupo 1102658" transform="translate(31.879 93.985)">
        <path id="Trazado_918829" data-name="Trazado 918829" d="M192.833,425.619V433.3a.808.808,0,0,1-.808.808h2.339a.808.808,0,0,0,.808-.808v-7.677Z" transform="translate(-192.025 -425.619)" fill="#2b4d66"/>
      </g>
      <g id="Grupo_1102660" data-name="Grupo 1102660" transform="translate(56.291 93.985)">
        <g id="Grupo_1102659" data-name="Grupo 1102659">
          <path id="Trazado_918830" data-name="Trazado 918830" d="M343.113,434.1H339.88a.808.808,0,0,1-.808-.808V425.62h4.849V433.3A.808.808,0,0,1,343.113,434.1Z" transform="translate(-339.072 -425.62)" fill="#365e7d"/>
        </g>
      </g>
      <g id="Grupo_1102661" data-name="Grupo 1102661" transform="translate(57.993 93.985)">
        <path id="Trazado_918831" data-name="Trazado 918831" d="M350.13,425.619V433.3a.808.808,0,0,1-.808.808h2.339a.808.808,0,0,0,.808-.808v-7.677Z" transform="translate(-349.322 -425.619)" fill="#2b4d66"/>
      </g>
      <g id="Grupo_1102662" data-name="Grupo 1102662" transform="translate(1.212 85.594)">
        <path id="Trazado_918832" data-name="Trazado 918832" d="M84.686,385.46H12.494a5.192,5.192,0,1,1,0-10.384H84.686a5.192,5.192,0,1,1,0,10.384Z" transform="translate(-7.302 -375.076)" fill="#efecef"/>
      </g>
      <g id="Grupo_1102663" data-name="Grupo 1102663" transform="translate(1.234 86.577)">
        <path id="Trazado_918833" data-name="Trazado 918833" d="M87.832,381c.013.152.021.305.021.46a5.192,5.192,0,0,1-5.192,5.192H10.469a5.167,5.167,0,0,1-3.038-.983A5.192,5.192,0,0,0,12.6,390.4H84.793a5.191,5.191,0,0,0,3.038-9.4Z" transform="translate(-7.431 -380.997)" fill="#dddaec"/>
      </g>
      <g id="Grupo_1102665" data-name="Grupo 1102665" transform="translate(30.177 80.394)">
        <g id="Grupo_1102664" data-name="Grupo 1102664">
          <path id="Trazado_918834" data-name="Trazado 918834" d="M185.816,354.71h-3.233a.808.808,0,0,1-.808-.808v-10.15h4.849V353.9A.808.808,0,0,1,185.816,354.71Z" transform="translate(-181.775 -343.752)" fill="#365e7d"/>
        </g>
      </g>
      <g id="Grupo_1102666" data-name="Grupo 1102666" transform="translate(31.879 80.394)">
        <path id="Trazado_918835" data-name="Trazado 918835" d="M192.833,343.752V353.9a.808.808,0,0,1-.808.808h2.339a.808.808,0,0,0,.808-.808v-10.15Z" transform="translate(-192.025 -343.752)" fill="#2b4d66"/>
      </g>
      <g id="Grupo_1102668" data-name="Grupo 1102668" transform="translate(56.13 69.075)">
        <g id="Grupo_1102667" data-name="Grupo 1102667">
          <path id="Trazado_918836" data-name="Trazado 918836" d="M342.139,297.85h-3.233a.808.808,0,0,1-.808-.808V275.574h4.849v21.468A.808.808,0,0,1,342.139,297.85Z" transform="translate(-338.098 -275.574)" fill="#365e7d"/>
        </g>
      </g>
      <g id="Grupo_1102669" data-name="Grupo 1102669" transform="translate(57.831 69.075)">
        <path id="Trazado_918837" data-name="Trazado 918837" d="M349.156,275.574v21.468a.808.808,0,0,1-.808.808h2.339a.808.808,0,0,0,.808-.808V275.574Z" transform="translate(-348.348 -275.574)" fill="#2b4d66"/>
      </g>
      <g id="Grupo_1102670" data-name="Grupo 1102670" transform="translate(54.198 56.36)">
        <path id="Trazado_918838" data-name="Trazado 918838" d="M333.517,215.332h-5.391a1.66,1.66,0,0,1-1.66-1.66V198.984h8.711v14.688A1.66,1.66,0,0,1,333.517,215.332Z" transform="translate(-326.466 -198.984)" fill="#407093"/>
      </g>
      <g id="Grupo_1102671" data-name="Grupo 1102671" transform="translate(58.253 56.36)">
        <path id="Trazado_918839" data-name="Trazado 918839" d="M352.5,198.984v14.732a1.616,1.616,0,0,1-1.616,1.616h3a1.66,1.66,0,0,0,1.66-1.66V198.984H352.5Z" transform="translate(-350.886 -198.984)" fill="#365e7d"/>
      </g>
      <g id="Grupo_1102672" data-name="Grupo 1102672" transform="translate(51.05 29.181)">
        <path id="Trazado_918840" data-name="Trazado 918840" d="M322.508,54.612H307.5V36.1a.83.83,0,0,1,.83-.83h13.349a.83.83,0,0,1,.83.83Z" transform="translate(-307.499 -35.272)" fill="#efecef"/>
      </g>
      <g id="Grupo_1102673" data-name="Grupo 1102673" transform="translate(74.979 34.354)">
        <path id="Trazado_918841" data-name="Trazado 918841" d="M459.743,84.478l-.953-2.917a9.09,9.09,0,0,1-.45-2.824V69.123a2.669,2.669,0,0,0-2.494-2.691,2.62,2.62,0,0,0-2.747,2.617v9.517a9.09,9.09,0,0,1-.45,2.824l-1.009,3.088Z" transform="translate(-451.641 -66.429)" fill="#f4dd45"/>
      </g>
      <g id="Grupo_1102674" data-name="Grupo 1102674" transform="translate(77.783 34.354)">
        <path id="Trazado_918842" data-name="Trazado 918842" d="M472.875,81.562a9.1,9.1,0,0,1-.45-2.824V69.123a2.669,2.669,0,0,0-2.494-2.691,2.607,2.607,0,0,0-1.4.331,2.722,2.722,0,0,1,1.361,2.36v9.614a9.09,9.09,0,0,0,.45,2.824l.953,2.917h2.534Z" transform="translate(-468.53 -66.429)" fill="#ecc32e"/>
      </g>
      <g id="Grupo_1102675" data-name="Grupo 1102675" transform="translate(76.438 64.534)">
        <path id="Trazado_918843" data-name="Trazado 918843" d="M464.838,262.254h-3.58a.83.83,0,0,1-.83-.83v-13.2h5.24v13.2A.83.83,0,0,1,464.838,262.254Z" transform="translate(-460.428 -248.222)" fill="#407093"/>
      </g>
      <g id="Grupo_1102676" data-name="Grupo 1102676" transform="translate(78.25 64.534)">
        <path id="Trazado_918844" data-name="Trazado 918844" d="M472.15,248.222v13.224a.808.808,0,0,1-.808.808h2.6a.83.83,0,0,0,.83-.83v-13.2Z" transform="translate(-471.342 -248.222)" fill="#365e7d"/>
      </g>
      <g id="Grupo_1102677" data-name="Grupo 1102677" transform="translate(6.336 53.407)">
        <path id="Trazado_918845" data-name="Trazado 918845" d="M42.578,200.176H39a.83.83,0,0,1-.83-.83V181.193h5.24v18.153A.83.83,0,0,1,42.578,200.176Z" transform="translate(-38.168 -181.193)" fill="#407093"/>
      </g>
      <g id="Grupo_1102678" data-name="Grupo 1102678" transform="translate(8.283 53.407)">
        <path id="Trazado_918846" data-name="Trazado 918846" d="M50.7,181.193v18.175a.808.808,0,0,1-.808.808h2.464a.83.83,0,0,0,.83-.83V181.193Z" transform="translate(-49.894 -181.193)" fill="#365e7d"/>
      </g>
      <g id="Grupo_1102679" data-name="Grupo 1102679" transform="translate(25.098 29.181)">
        <path id="Trazado_918847" data-name="Trazado 918847" d="M166.185,54.612H151.176V36.1a.83.83,0,0,1,.83-.83h13.349a.83.83,0,0,1,.83.83Z" transform="translate(-151.176 -35.272)" fill="#efecef"/>
      </g>
      <g id="Grupo_1102680" data-name="Grupo 1102680" transform="translate(61.35 29.181)">
        <path id="Trazado_918848" data-name="Trazado 918848" d="M373.42,35.272h-3.879a.808.808,0,0,1,.808.808V54.612h3.9V36.1A.83.83,0,0,0,373.42,35.272Z" transform="translate(-369.541 -35.272)" fill="#dddaec"/>
      </g>
      <g id="Grupo_1102681" data-name="Grupo 1102681" transform="translate(35.398 29.181)">
        <path id="Trazado_918849" data-name="Trazado 918849" d="M217.1,35.272h-3.879a.808.808,0,0,1,.808.808V54.612h3.9V36.1A.83.83,0,0,0,217.1,35.272Z" transform="translate(-213.218 -35.272)" fill="#dddaec"/>
      </g>
      <g id="Grupo_1102682" data-name="Grupo 1102682" transform="translate(3.454 34.167)">
        <path id="Trazado_918850" data-name="Trazado 918850" d="M32.077,80.034H20.806v-13.9a.83.83,0,0,1,.83-.83h9.611a.83.83,0,0,1,.83.83Z" transform="translate(-20.806 -65.302)" fill="#f4dd45"/>
      </g>
      <g id="Grupo_1102683" data-name="Grupo 1102683" transform="translate(10.363 34.167)">
        <path id="Trazado_918851" data-name="Trazado 918851" d="M65.956,65.3H62.424a.808.808,0,0,1,.808.808V80.034h3.554v-13.9A.83.83,0,0,0,65.956,65.3Z" transform="translate(-62.424 -65.302)" fill="#ecc32e"/>
      </g>
      <g id="Grupo_1102684" data-name="Grupo 1102684" transform="translate(1.212 45.614)">
        <path id="Trazado_918852" data-name="Trazado 918852" d="M21.4,149.508H8.962a1.66,1.66,0,0,1-1.66-1.66V135.917a1.66,1.66,0,0,1,1.66-1.66H21.4a1.66,1.66,0,0,1,1.66,1.66v11.931A1.66,1.66,0,0,1,21.4,149.508Z" transform="translate(-7.302 -134.257)" fill="#407093"/>
      </g>
      <g id="Grupo_1102685" data-name="Grupo 1102685" transform="translate(48.279 45.614)">
        <path id="Trazado_918853" data-name="Trazado 918853" d="M309.7,151.541H292.472a1.66,1.66,0,0,1-1.66-1.66V135.917a1.66,1.66,0,0,1,1.66-1.66H309.7a1.66,1.66,0,0,1,1.66,1.66v13.963A1.66,1.66,0,0,1,309.7,151.541Z" transform="translate(-290.812 -134.257)" fill="#407093"/>
      </g>
      <g id="Grupo_1102686" data-name="Grupo 1102686" transform="translate(1.212 45.614)">
        <path id="Trazado_918854" data-name="Trazado 918854" d="M21.4,134.257H19.765V144.6a1.616,1.616,0,0,1-1.616,1.616H7.3v1.632a1.66,1.66,0,0,0,1.66,1.66H21.4a1.66,1.66,0,0,0,1.66-1.66V135.917A1.66,1.66,0,0,0,21.4,134.257Z" transform="translate(-7.302 -134.257)" fill="#365e7d"/>
      </g>
      <g id="Grupo_1102687" data-name="Grupo 1102687" transform="translate(48.279 45.614)">
        <path id="Trazado_918855" data-name="Trazado 918855" d="M309.7,134.257H308.07v12.375a1.616,1.616,0,0,1-1.616,1.616H290.813v1.632a1.66,1.66,0,0,0,1.66,1.66H309.7a1.66,1.66,0,0,0,1.66-1.66V135.917A1.66,1.66,0,0,0,309.7,134.257Z" transform="translate(-290.813 -134.257)" fill="#365e7d"/>
      </g>
      <g id="Grupo_1102688" data-name="Grupo 1102688" transform="translate(74.329 50.787)">
        <path id="Trazado_918856" data-name="Trazado 918856" d="M452.451,185.61a4.729,4.729,0,0,1-4.729-4.729V167.03a1.616,1.616,0,0,1,1.616-1.616h6.226a1.616,1.616,0,0,1,1.616,1.616v13.85a4.729,4.729,0,0,1-4.729,4.729Z" transform="translate(-447.722 -165.414)" fill="#365e7d"/>
      </g>
      <g id="Grupo_1102689" data-name="Grupo 1102689" transform="translate(74.699 50.787)">
        <path id="Trazado_918857" data-name="Trazado 918857" d="M457.425,165.413h-2.03v12.628a4.729,4.729,0,0,1-4.729,4.729,4.778,4.778,0,0,1-.712-.053,4.73,4.73,0,0,0,9.089-1.837v-13.85A1.616,1.616,0,0,0,457.425,165.413Z" transform="translate(-449.953 -165.413)" fill="#2b4d66"/>
      </g>
      <g id="Grupo_1102690" data-name="Grupo 1102690" transform="translate(22.327 45.614)">
        <path id="Trazado_918858" data-name="Trazado 918858" d="M153.1,134.257h-16.67a1.94,1.94,0,0,0-1.94,1.94v13.735a12.121,12.121,0,0,0,.42,3.162l4.33,16.027a1.94,1.94,0,0,0,1.872,1.434h7.3a1.94,1.94,0,0,0,1.872-1.434l4.33-16.027a12.121,12.121,0,0,0,.42-3.162V136.2A1.94,1.94,0,0,0,153.1,134.257Z" transform="translate(-134.489 -134.257)" fill="#407093"/>
      </g>
      <g id="Grupo_1102691" data-name="Grupo 1102691" transform="translate(32.49 45.614)">
        <path id="Trazado_918859" data-name="Trazado 918859" d="M204.153,134.257h-3.764a1.94,1.94,0,0,1,1.94,1.94v13.735a12.122,12.122,0,0,1-.42,3.162l-4.33,16.027a1.94,1.94,0,0,1-1.872,1.434h3.764a1.94,1.94,0,0,0,1.872-1.434l4.33-16.027a12.121,12.121,0,0,0,.42-3.162V136.2A1.94,1.94,0,0,0,204.153,134.257Z" transform="translate(-195.706 -134.257)" fill="#365e7d"/>
      </g>
      <g id="Grupo_1102692" data-name="Grupo 1102692" transform="translate(0 27.969)">
        <path id="Trazado_918860" data-name="Trazado 918860" d="M80.87,79.779a2.023,2.023,0,0,0,2.021-2.021v-6.97A5.93,5.93,0,0,0,85,66.253V52.4a2.829,2.829,0,0,0-1.45-2.467,9.444,9.444,0,0,1-.66-3.273V37.048a3.865,3.865,0,0,0-3.649-3.9A3.8,3.8,0,0,0,76.413,34.2a3.85,3.85,0,0,0-1.187,2.773v9.517a10.146,10.146,0,0,1-.729,3.487,2.827,2.827,0,0,0-1.38,2.425v13.85a5.93,5.93,0,0,0,2.109,4.535v6.97a2.023,2.023,0,0,0,2.021,2.021h.572v4.6H62.191V73.772a2.832,2.832,0,0,0,1.931-2.68V64.11h3.09a2.832,2.832,0,0,0,2.829-2.829V47.231a2.831,2.831,0,0,0-2.77-2.826V29.99a2.023,2.023,0,0,0-2.021-2.021H51.858a2.023,2.023,0,0,0-2.021,2.021V44.405a2.831,2.831,0,0,0-2.77,2.826V61.282A2.832,2.832,0,0,0,49.9,64.111h3.09v6.982a2.832,2.832,0,0,0,1.931,2.68V84.382H36.239V83.125h.015A3.158,3.158,0,0,0,39.3,80.8l4.33-16.027a13.332,13.332,0,0,0,.462-3.478V47.554a3.155,3.155,0,0,0-2.77-3.127V29.99A2.023,2.023,0,0,0,39.3,27.969H37.656a1.212,1.212,0,0,0,0,2.424h1.237V44.4H26.309V30.394H32.04a1.212,1.212,0,1,0,0-2.424H25.905a2.023,2.023,0,0,0-2.021,2.021V44.427a3.155,3.155,0,0,0-2.77,3.127V61.289a13.339,13.339,0,0,0,.462,3.478l2.231,8.257a1.212,1.212,0,0,0,2.341-.632l-2.231-8.257a10.91,10.91,0,0,1-.378-2.846V47.554a.728.728,0,0,1,.727-.727h16.67a.728.728,0,0,1,.727.727V61.289a10.91,10.91,0,0,1-.378,2.846l-4.33,16.027a.729.729,0,0,1-.7.538h-7.3a.729.729,0,0,1-.7-.538l-.7-2.575a1.212,1.212,0,0,0-2.341.633l.7,2.575a3.158,3.158,0,0,0,3.043,2.33h.015v1.257h-18.8V73.6h.6a2.023,2.023,0,0,0,2.021-2.021v-9.5h2.562a2.832,2.832,0,0,0,2.829-2.829V47.23a2.833,2.833,0,0,0-2.242-2.767V34.975a2.023,2.023,0,0,0-2.021-2.021H4.262a2.023,2.023,0,0,0-2.021,2.021v9.489A2.833,2.833,0,0,0,0,47.231V59.249a2.832,2.832,0,0,0,2.829,2.829h2.3v9.5A2.023,2.023,0,0,0,7.145,73.6h.6v10.78H6.4a6.4,6.4,0,0,0,0,12.808h1.34v4.265a1.212,1.212,0,0,0,2.424,0V97.19h18.8v4.471a2.023,2.023,0,0,0,2.021,2.021h3.233a2.023,2.023,0,0,0,2.021-2.021V97.19h18.84v4.471a2.023,2.023,0,0,0,2.021,2.021h3.233a2.023,2.023,0,0,0,2.021-2.021V97.19h3.1a1.212,1.212,0,0,0,0-2.424H6.4a3.98,3.98,0,0,1,0-7.959h1.34v3.414a1.212,1.212,0,1,0,2.424,0V86.807h18.8v3.737a2.023,2.023,0,0,0,2.021,2.021h3.233a2.023,2.023,0,0,0,2.021-2.021V86.807H54.917v3.737a2.023,2.023,0,0,0,2.021,2.021h3.233a2.023,2.023,0,0,0,2.021-2.021V86.807H77.818v3.414a1.212,1.212,0,0,0,2.424,0V87.165a3.979,3.979,0,0,1-1.647,7.6H71.03a1.212,1.212,0,1,0,0,2.424h6.788v4.265a1.212,1.212,0,0,0,2.424,0v-4.48a6.4,6.4,0,0,0,0-12.377V79.779Zm-67.357-44.4V44.4H4.666V35.379ZM2.425,59.249V47.231a.4.4,0,0,1,.4-.4H15.351a.4.4,0,0,1,.4.4V59.249a.4.4,0,0,1-.4.4H2.829a.4.4,0,0,1-.4-.4Zm5.124,2.829h2.816v9.1H7.549Zm26.266,39.18H31.39V97.19h2.425Zm26.114,0H57.5V97.19h2.425ZM31.39,90.14V83.125h2.425V90.14ZM64.847,44.4H61.153V42.826a2.023,2.023,0,0,0-2.021-2.021H57.988V38.652h1.144a2.023,2.023,0,0,0,2.021-2.021V33.844a2.023,2.023,0,0,0-2.021-2.021H58v-1.43h6.849ZM55.573,30.394v1.834a2.023,2.023,0,0,0,2.021,2.021h1.135v1.979H57.585a2.023,2.023,0,0,0-2.021,2.021V41.21a2.023,2.023,0,0,0,2.021,2.021h1.144V44.4H52.262V30.394h3.311ZM49.492,61.282V47.231a.4.4,0,0,1,.4-.4H67.213a.4.4,0,0,1,.4.4V61.282a.4.4,0,0,1-.4.4H49.9A.4.4,0,0,1,49.492,61.282ZM61.7,64.11v6.982a.4.4,0,0,1-.4.4H55.815a.4.4,0,0,1-.4-.4V64.11ZM57.342,90.14V73.921h2.425V90.14ZM80.466,44.457H77.65V41.764h2.816Zm-2.823,2.425H80.47a10.278,10.278,0,0,0,.417,2.693H77.177A10.282,10.282,0,0,0,77.643,46.882Zm-2.1,19.372V52.4a.4.4,0,0,1,.4-.4h6.226a.4.4,0,0,1,.4.4v13.85a3.517,3.517,0,0,1-7.034,0Zm2.546-30.3a1.4,1.4,0,0,1,1.041-.387,1.462,1.462,0,0,1,1.338,1.48V39.34H77.65V36.974A1.4,1.4,0,0,1,78.087,35.955Zm-.436,36.07a5.914,5.914,0,0,0,2.816,0v5.329H77.65V72.025Z" transform="translate(0 -27.969)"/>
        <path id="Trazado_918861" data-name="Trazado 918861" d="M160.125,166.966h9.792a1.212,1.212,0,0,0,0-2.424h-9.792a1.212,1.212,0,0,0,0,2.424Z" transform="translate(-132.531 -141.869)"/>
        <path id="Trazado_918862" data-name="Trazado 918862" d="M160.125,196.054h9.792a1.212,1.212,0,1,0,0-2.424h-9.792a1.212,1.212,0,1,0,0,2.424Z" transform="translate(-132.531 -166.128)"/>
        <path id="Trazado_918863" data-name="Trazado 918863" d="M160.125,225.143h9.792a1.212,1.212,0,1,0,0-2.424h-9.792a1.212,1.212,0,1,0,0,2.424Z" transform="translate(-132.531 -190.387)"/>
        <path id="Trazado_918864" data-name="Trazado 918864" d="M36.176,164.541H29.969a1.212,1.212,0,1,0,0,2.424h6.207a1.212,1.212,0,1,0,0-2.424Z" transform="translate(-23.983 -141.868)"/>
        <path id="Trazado_918865" data-name="Trazado 918865" d="M326.915,164.541h-9.792a1.212,1.212,0,1,0,0,2.424h9.792a1.212,1.212,0,1,0,0-2.424Z" transform="translate(-263.465 -141.868)"/>
        <path id="Trazado_918866" data-name="Trazado 918866" d="M326.915,193.629h-9.792a1.212,1.212,0,1,0,0,2.424h9.792a1.212,1.212,0,0,0,0-2.424Z" transform="translate(-263.465 -166.127)"/>
        <path id="Trazado_918867" data-name="Trazado 918867" d="M170.561,72.605a.485.485,0,0,0-.485.485v1.857a.485.485,0,0,0,.485.485h1.857a.485.485,0,0,0,.485-.485V73.09a.485.485,0,0,0-.485-.485Z" transform="translate(-141.841 -65.195)"/>
        <path id="Trazado_918868" data-name="Trazado 918868" d="M206.141,75.432H208a.485.485,0,0,0,.485-.485V73.09a.485.485,0,0,0-.485-.485h-1.857a.485.485,0,0,0-.485.485v1.857A.485.485,0,0,0,206.141,75.432Z" transform="translate(-171.514 -65.195)"/>
        <path id="Trazado_918869" data-name="Trazado 918869" d="M38.667,95.111h3.319a1.212,1.212,0,1,0,0-2.424H38.667a1.212,1.212,0,1,0,0,2.424Z" transform="translate(-31.237 -81.943)"/>
      </g>
    </g>
  </g>
</svg>
