<svg xmlns="http://www.w3.org/2000/svg" xmlns:xlink="http://www.w3.org/1999/xlink" width="398.203" height="527" viewBox="0 0 398.203 527">
  <defs>
    <clipPath id="clip-path">
      <rect id="Rectángulo_403695" data-name="Rectángulo 403695" width="46" height="46" transform="translate(213.051 1099)" fill="#692cb7" stroke="#707070" stroke-width="1"/>
    </clipPath>
    <clipPath id="clip-path-2">
      <rect id="Rectángulo_403688" data-name="Rectángulo 403688" width="398.203" height="436.732" fill="none"/>
    </clipPath>
  </defs>
  <g id="img9" transform="translate(-180 -3097)">
    <rect id="Rectángulo_403689" data-name="Rectángulo 403689" width="295" height="527" rx="20" transform="translate(180.051 3097)" fill="#e2f4f9"/>
    <g id="Enmascarar_grupo_1098731" data-name="Enmascarar grupo 1098731" transform="translate(0 2463)" clip-path="url(#clip-path)">
      <g id="descripcion-del-trabajo" transform="translate(213.051 1099)">
        <path id="Trazado_913793" data-name="Trazado 913793" d="M42.933,0H3.067A3.067,3.067,0,0,0,0,3.067V42.933A3.067,3.067,0,0,0,3.067,46H42.933A3.067,3.067,0,0,0,46,42.933V3.067A3.067,3.067,0,0,0,42.933,0Zm1.533,42.933a1.533,1.533,0,0,1-1.533,1.533H3.067a1.533,1.533,0,0,1-1.533-1.533V7.667H44.467Zm0-36.8H1.533V3.067A1.533,1.533,0,0,1,3.067,1.533H42.933a1.533,1.533,0,0,1,1.533,1.533Z" fill="#692cb7"/>
        <path id="Trazado_913794" data-name="Trazado 913794" d="M4.6,25.3a2.3,2.3,0,0,0,2.3,2.3H19.167a2.3,2.3,0,0,0,2.3-2.3V19.682a2.294,2.294,0,0,0,.767-1.713V15.333a2.3,2.3,0,0,0-2.3-2.3h-2.3v-.767a2.3,2.3,0,0,0-2.3-2.3h-4.6a2.3,2.3,0,0,0-2.3,2.3v.767h-2.3a2.3,2.3,0,0,0-2.3,2.3v2.636A2.294,2.294,0,0,0,4.6,19.682Zm15.333,0a.767.767,0,0,1-.767.767H6.9a.767.767,0,0,1-.767-.767V20.34l3.833.958v.935a2.3,2.3,0,0,0,2.3,2.3H13.8a2.3,2.3,0,0,0,2.3-2.3V21.3l3.833-.958ZM11.5,22.233v-.767h3.067v.767A.767.767,0,0,1,13.8,23H12.267A.767.767,0,0,1,11.5,22.233ZM9.967,12.267a.767.767,0,0,1,.767-.767h4.6a.767.767,0,0,1,.767.767v.767H9.967Zm-4.6,3.067a.767.767,0,0,1,.767-.767h13.8a.767.767,0,0,1,.767.767v2.636a.767.767,0,0,1-.581.744l-4.88,1.22H10.828l-4.88-1.22a.767.767,0,0,1-.581-.744Z" fill="#692cb7"/>
        <path id="Trazado_913795" data-name="Trazado 913795" d="M4.6,3.067H3.833a.767.767,0,1,0,0,1.533H4.6a.767.767,0,1,0,0-1.533Z" fill="#692cb7"/>
        <path id="Trazado_913796" data-name="Trazado 913796" d="M8.433,3.067H7.667a.767.767,0,1,0,0,1.533h.767a.767.767,0,0,0,0-1.533Z" fill="#692cb7"/>
        <path id="Trazado_913797" data-name="Trazado 913797" d="M12.267,3.067H11.5a.767.767,0,0,0,0,1.533h.767a.767.767,0,0,0,0-1.533Z" fill="#692cb7"/>
        <path id="Trazado_913798" data-name="Trazado 913798" d="M42.167,3.067h-4.6a.767.767,0,0,0,0,1.533h4.6a.767.767,0,1,0,0-1.533Z" fill="#692cb7"/>
        <path id="Trazado_913799" data-name="Trazado 913799" d="M40.633,30.667H5.367a.767.767,0,0,0,0,1.533H40.633a.767.767,0,0,0,0-1.533Z" fill="#692cb7"/>
        <path id="Trazado_913800" data-name="Trazado 913800" d="M40.633,35.267H5.367a.767.767,0,1,0,0,1.533H40.633a.767.767,0,1,0,0-1.533Z" fill="#692cb7"/>
        <path id="Trazado_913801" data-name="Trazado 913801" d="M25.3,39.867H5.367a.767.767,0,1,0,0,1.533H25.3a.767.767,0,0,0,0-1.533Z" fill="#692cb7"/>
        <path id="Trazado_913802" data-name="Trazado 913802" d="M25.525,15.109a.767.767,0,0,0,.542.225h.054a.767.767,0,0,0,.559-.307l2.3-3.067a.767.767,0,0,0-1.227-.92L25.984,13.4l-.142-.142a.767.767,0,1,0-1.084,1.084Z" fill="#692cb7"/>
        <path id="Trazado_913803" data-name="Trazado 913803" d="M32.2,12.267h8.433a.767.767,0,0,0,0-1.533H32.2a.767.767,0,1,0,0,1.533Z" fill="#692cb7"/>
        <path id="Trazado_913804" data-name="Trazado 913804" d="M32.2,15.333h4.6a.767.767,0,0,0,0-1.533H32.2a.767.767,0,1,0,0,1.533Z" fill="#692cb7"/>
        <path id="Trazado_913805" data-name="Trazado 913805" d="M25.525,21.242a.767.767,0,0,0,.542.225h.054a.767.767,0,0,0,.559-.307l2.3-3.067a.767.767,0,0,0-1.227-.92l-1.769,2.36-.142-.142a.767.767,0,1,0-1.084,1.084Z" fill="#692cb7"/>
        <path id="Trazado_913806" data-name="Trazado 913806" d="M32.2,18.4h8.433a.767.767,0,1,0,0-1.533H32.2a.767.767,0,1,0,0,1.533Z" fill="#692cb7"/>
        <path id="Trazado_913807" data-name="Trazado 913807" d="M32.2,21.467h4.6a.767.767,0,0,0,0-1.533H32.2a.767.767,0,1,0,0,1.533Z" fill="#692cb7"/>
        <path id="Trazado_913808" data-name="Trazado 913808" d="M25.525,27.375a.767.767,0,0,0,.542.225h.054a.767.767,0,0,0,.559-.307l2.3-3.067a.767.767,0,1,0-1.227-.92l-1.769,2.36-.142-.142a.767.767,0,1,0-1.084,1.084Z" fill="#692cb7"/>
        <path id="Trazado_913809" data-name="Trazado 913809" d="M32.2,24.533h8.433a.767.767,0,0,0,0-1.533H32.2a.767.767,0,1,0,0,1.533Z" fill="#692cb7"/>
        <path id="Trazado_913810" data-name="Trazado 913810" d="M32.2,27.6h4.6a.767.767,0,0,0,0-1.533H32.2a.767.767,0,1,0,0,1.533Z" fill="#692cb7"/>
      </g>
    </g>
    <g id="Grupo_1102456" data-name="Grupo 1102456" transform="translate(180 3157)">
      <g id="Grupo_1102455" data-name="Grupo 1102455" clip-path="url(#clip-path-2)">
        <path id="Trazado_913592" data-name="Trazado 913592" d="M418.478,411.195H228.006a1.12,1.12,0,0,1-1.12-1.12V1.121A1.12,1.12,0,0,1,228.006,0H418.478a1.12,1.12,0,0,1,1.12,1.12V410.075a1.12,1.12,0,0,1-1.12,1.12" transform="translate(-161.166 -0.001)" fill="#485a7e"/>
        <path id="Trazado_913593" data-name="Trazado 913593" d="M431.531,46.253V429.437a1.124,1.124,0,0,1-1.12,1.12H256.364a1.116,1.116,0,0,1-.919-.482,1.137,1.137,0,0,1-.2-.639V46.253a1.124,1.124,0,0,1,1.12-1.12H430.41a1.124,1.124,0,0,1,1.12,1.12" transform="translate(-181.31 -32.06)" fill="#232c44"/>
        <rect id="Rectángulo_403620" data-name="Rectángulo 403620" width="3.735" height="13.819" transform="translate(72.069 410.26)" fill="#232c44"/>
        <path id="Trazado_913594" data-name="Trazado 913594" d="M240.206,1442.462h3.758l3.272,4.474a1.12,1.12,0,0,1-.9,1.782h-8.477a1.12,1.12,0,0,1-.906-1.779Z" transform="translate(-168.161 -1024.638)" fill="#232c44"/>
        <rect id="Rectángulo_403621" data-name="Rectángulo 403621" width="3.735" height="13.819" transform="translate(248.352 410.26)" fill="#232c44"/>
        <path id="Trazado_913595" data-name="Trazado 913595" d="M848.792,1442.462h3.758l3.272,4.474a1.12,1.12,0,0,1-.9,1.782h-8.477a1.12,1.12,0,0,1-.906-1.779Z" transform="translate(-600.463 -1024.638)" fill="#232c44"/>
        <rect id="Rectángulo_403622" data-name="Rectángulo 403622" width="183.781" height="65.356" transform="translate(70.185 335.185)" fill="#485a7e"/>
        <path id="Trazado_913596" data-name="Trazado 913596" d="M254.565,1236.676a.56.56,0,0,1-.56-.56v-65.825a.56.56,0,0,1,1.12,0v65.825a.56.56,0,0,1-.56.56" transform="translate(-180.43 -830.907)" fill="#232c44"/>
        <path id="Trazado_913597" data-name="Trazado 913597" d="M862.461,1233.675a.56.56,0,0,1-.56-.56v-68.626a.56.56,0,1,1,1.12,0v68.626a.56.56,0,0,1-.56.56" transform="translate(-612.243 -826.785)" fill="#232c44"/>
        <path id="Trazado_913598" data-name="Trazado 913598" d="M286.854,1241.751h0a2.871,2.871,0,0,1-2.871-2.871v-51.773a2.871,2.871,0,1,1,5.742,0v51.773a2.871,2.871,0,0,1-2.871,2.871" transform="translate(-201.724 -841.21)" fill="#232c44"/>
        <path id="Trazado_913599" data-name="Trazado 913599" d="M334.238,1241.751h0a2.871,2.871,0,0,1-2.871-2.871v-51.773a2.871,2.871,0,1,1,5.742,0v51.773a2.871,2.871,0,0,1-2.871,2.871" transform="translate(-235.383 -841.21)" fill="#232c44"/>
        <path id="Trazado_913600" data-name="Trazado 913600" d="M381.621,1241.751h0a2.871,2.871,0,0,1-2.871-2.871v-51.773a2.871,2.871,0,1,1,5.742,0v51.773a2.871,2.871,0,0,1-2.871,2.871" transform="translate(-269.041 -841.21)" fill="#232c44"/>
        <path id="Trazado_913601" data-name="Trazado 913601" d="M429.005,1241.751h0a2.871,2.871,0,0,1-2.871-2.871v-51.773a2.871,2.871,0,1,1,5.742,0v51.773a2.871,2.871,0,0,1-2.871,2.871" transform="translate(-302.7 -841.21)" fill="#232c44"/>
        <path id="Trazado_913602" data-name="Trazado 913602" d="M676.963,1241.751h0a2.871,2.871,0,0,1-2.871-2.871v-51.773a2.871,2.871,0,1,1,5.742,0v51.773a2.871,2.871,0,0,1-2.871,2.871" transform="translate(-478.835 -841.21)" fill="#232c44"/>
        <path id="Trazado_913603" data-name="Trazado 913603" d="M724.347,1241.751h0a2.871,2.871,0,0,1-2.871-2.871v-51.773a2.871,2.871,0,1,1,5.742,0v51.773a2.871,2.871,0,0,1-2.871,2.871" transform="translate(-512.493 -841.21)" fill="#232c44"/>
        <path id="Trazado_913604" data-name="Trazado 913604" d="M771.731,1241.751h0a2.871,2.871,0,0,1-2.871-2.871v-51.773a2.871,2.871,0,1,1,5.742,0v51.773a2.871,2.871,0,0,1-2.871,2.871" transform="translate(-546.152 -841.21)" fill="#232c44"/>
        <path id="Trazado_913605" data-name="Trazado 913605" d="M819.114,1241.751h0a2.871,2.871,0,0,1-2.871-2.871v-51.773a2.871,2.871,0,1,1,5.742,0v51.773a2.871,2.871,0,0,1-2.871,2.871" transform="translate(-579.81 -841.21)" fill="#232c44"/>
        <rect id="Rectángulo_403623" data-name="Rectángulo 403623" width="183.781" height="11.558" transform="translate(70.185 267.604)" fill="#485a7e"/>
        <path id="Trazado_913606" data-name="Trazado 913606" d="M441.776,105.8H285.1a1.121,1.121,0,0,1-1.12-1.12V79.093a1.12,1.12,0,0,1,1.12-1.12H441.776a1.12,1.12,0,0,1,1.12,1.12v25.583a1.121,1.121,0,0,1-1.12,1.12" transform="translate(-201.724 -55.387)" fill="#485a7e"/>
        <rect id="Rectángulo_403624" data-name="Rectángulo 403624" width="19.187" height="4.342" transform="translate(88.001 27.627)" fill="#232c44"/>
        <rect id="Rectángulo_403625" data-name="Rectángulo 403625" width="19.187" height="4.342" transform="translate(88.001 39.322)" fill="#232c44"/>
        <rect id="Rectángulo_403626" data-name="Rectángulo 403626" width="19.187" height="4.342" transform="translate(113.92 27.627)" fill="#232c44"/>
        <rect id="Rectángulo_403627" data-name="Rectángulo 403627" width="19.187" height="4.342" transform="translate(113.92 39.322)" fill="#232c44"/>
        <rect id="Rectángulo_403628" data-name="Rectángulo 403628" width="19.187" height="4.342" transform="translate(139.839 27.627)" fill="#232c44"/>
        <rect id="Rectángulo_403629" data-name="Rectángulo 403629" width="19.187" height="4.342" transform="translate(139.839 39.322)" fill="#232c44"/>
        <rect id="Rectángulo_403630" data-name="Rectángulo 403630" width="19.187" height="4.342" transform="translate(165.758 27.627)" fill="#232c44"/>
        <rect id="Rectángulo_403631" data-name="Rectángulo 403631" width="19.187" height="4.342" transform="translate(165.758 39.322)" fill="#232c44"/>
        <rect id="Rectángulo_403632" data-name="Rectángulo 403632" width="19.187" height="4.342" transform="translate(191.677 27.627)" fill="#232c44"/>
        <rect id="Rectángulo_403633" data-name="Rectángulo 403633" width="19.187" height="4.342" transform="translate(191.677 39.322)" fill="#232c44"/>
        <rect id="Rectángulo_403634" data-name="Rectángulo 403634" width="19.187" height="4.342" transform="translate(217.596 27.627)" fill="#232c44"/>
        <rect id="Rectángulo_403635" data-name="Rectángulo 403635" width="19.187" height="4.342" transform="translate(217.596 39.322)" fill="#232c44"/>
        <path id="Trazado_913607" data-name="Trazado 913607" d="M441.776,330.979H285.1a1.12,1.12,0,0,1-1.12-1.12V304.276a1.121,1.121,0,0,1,1.12-1.121H441.776a1.121,1.121,0,0,1,1.12,1.121v25.583a1.12,1.12,0,0,1-1.12,1.12" transform="translate(-201.724 -215.343)" fill="#485a7e"/>
        <rect id="Rectángulo_403636" data-name="Rectángulo 403636" width="19.187" height="4.342" transform="translate(88.001 92.854)" fill="#232c44"/>
        <rect id="Rectángulo_403637" data-name="Rectángulo 403637" width="19.187" height="4.342" transform="translate(88.001 104.548)" fill="#232c44"/>
        <rect id="Rectángulo_403638" data-name="Rectángulo 403638" width="19.187" height="4.342" transform="translate(113.92 92.854)" fill="#232c44"/>
        <rect id="Rectángulo_403639" data-name="Rectángulo 403639" width="19.187" height="4.342" transform="translate(113.92 104.548)" fill="#232c44"/>
        <rect id="Rectángulo_403640" data-name="Rectángulo 403640" width="19.187" height="4.342" transform="translate(139.839 92.854)" fill="#232c44"/>
        <rect id="Rectángulo_403641" data-name="Rectángulo 403641" width="19.187" height="4.342" transform="translate(139.839 104.548)" fill="#232c44"/>
        <rect id="Rectángulo_403642" data-name="Rectángulo 403642" width="19.187" height="4.342" transform="translate(165.758 92.854)" fill="#232c44"/>
        <rect id="Rectángulo_403643" data-name="Rectángulo 403643" width="19.187" height="4.342" transform="translate(165.758 104.548)" fill="#232c44"/>
        <rect id="Rectángulo_403644" data-name="Rectángulo 403644" width="19.187" height="4.342" transform="translate(191.677 92.854)" fill="#232c44"/>
        <rect id="Rectángulo_403645" data-name="Rectángulo 403645" width="19.187" height="4.342" transform="translate(191.677 104.548)" fill="#232c44"/>
        <rect id="Rectángulo_403646" data-name="Rectángulo 403646" width="19.187" height="4.342" transform="translate(217.596 92.854)" fill="#232c44"/>
        <rect id="Rectángulo_403647" data-name="Rectángulo 403647" width="19.187" height="4.342" transform="translate(217.596 104.548)" fill="#232c44"/>
        <path id="Trazado_913608" data-name="Trazado 913608" d="M441.776,568.028H285.1a1.121,1.121,0,0,1-1.12-1.12V541.324a1.121,1.121,0,0,1,1.12-1.12H441.776a1.121,1.121,0,0,1,1.12,1.12v25.583a1.121,1.121,0,0,1-1.12,1.12" transform="translate(-201.724 -383.728)" fill="#485a7e"/>
        <rect id="Rectángulo_403648" data-name="Rectángulo 403648" width="19.187" height="4.342" transform="translate(88.001 161.517)" fill="#232c44"/>
        <rect id="Rectángulo_403649" data-name="Rectángulo 403649" width="19.187" height="4.342" transform="translate(88.001 173.212)" fill="#232c44"/>
        <rect id="Rectángulo_403650" data-name="Rectángulo 403650" width="19.187" height="4.342" transform="translate(113.92 161.517)" fill="#232c44"/>
        <rect id="Rectángulo_403651" data-name="Rectángulo 403651" width="19.187" height="4.342" transform="translate(113.92 173.212)" fill="#232c44"/>
        <rect id="Rectángulo_403652" data-name="Rectángulo 403652" width="19.187" height="4.342" transform="translate(139.839 161.517)" fill="#232c44"/>
        <rect id="Rectángulo_403653" data-name="Rectángulo 403653" width="19.187" height="4.342" transform="translate(139.839 173.212)" fill="#232c44"/>
        <rect id="Rectángulo_403654" data-name="Rectángulo 403654" width="19.187" height="4.342" transform="translate(165.758 161.517)" fill="#232c44"/>
        <rect id="Rectángulo_403655" data-name="Rectángulo 403655" width="19.187" height="4.342" transform="translate(165.758 173.212)" fill="#232c44"/>
        <rect id="Rectángulo_403656" data-name="Rectángulo 403656" width="19.187" height="4.342" transform="translate(191.677 161.517)" fill="#232c44"/>
        <rect id="Rectángulo_403657" data-name="Rectángulo 403657" width="19.187" height="4.342" transform="translate(191.677 173.212)" fill="#232c44"/>
        <rect id="Rectángulo_403658" data-name="Rectángulo 403658" width="19.187" height="4.342" transform="translate(217.596 161.517)" fill="#232c44"/>
        <rect id="Rectángulo_403659" data-name="Rectángulo 403659" width="19.187" height="4.342" transform="translate(217.596 173.212)" fill="#232c44"/>
        <path id="Trazado_913609" data-name="Trazado 913609" d="M441.776,805.077H285.1a1.121,1.121,0,0,1-1.12-1.12V778.374a1.121,1.121,0,0,1,1.12-1.121H441.776a1.121,1.121,0,0,1,1.12,1.121v25.583a1.121,1.121,0,0,1-1.12,1.12" transform="translate(-201.724 -552.114)" fill="#485a7e"/>
        <rect id="Rectángulo_403660" data-name="Rectángulo 403660" width="19.187" height="4.342" transform="translate(88.001 230.181)" fill="#232c44"/>
        <rect id="Rectángulo_403661" data-name="Rectángulo 403661" width="19.187" height="4.342" transform="translate(88.001 241.875)" fill="#232c44"/>
        <rect id="Rectángulo_403662" data-name="Rectángulo 403662" width="19.187" height="4.342" transform="translate(113.92 230.181)" fill="#232c44"/>
        <rect id="Rectángulo_403663" data-name="Rectángulo 403663" width="19.187" height="4.342" transform="translate(113.92 241.875)" fill="#232c44"/>
        <rect id="Rectángulo_403664" data-name="Rectángulo 403664" width="19.187" height="4.342" transform="translate(139.839 230.181)" fill="#232c44"/>
        <rect id="Rectángulo_403665" data-name="Rectángulo 403665" width="19.187" height="4.342" transform="translate(139.839 241.875)" fill="#232c44"/>
        <rect id="Rectángulo_403666" data-name="Rectángulo 403666" width="19.187" height="4.342" transform="translate(165.758 230.181)" fill="#232c44"/>
        <rect id="Rectángulo_403667" data-name="Rectángulo 403667" width="19.187" height="4.342" transform="translate(165.758 241.875)" fill="#232c44"/>
        <rect id="Rectángulo_403668" data-name="Rectángulo 403668" width="19.187" height="4.342" transform="translate(191.677 230.181)" fill="#232c44"/>
        <rect id="Rectángulo_403669" data-name="Rectángulo 403669" width="19.187" height="4.342" transform="translate(191.677 241.875)" fill="#232c44"/>
        <rect id="Rectángulo_403670" data-name="Rectángulo 403670" width="19.187" height="4.342" transform="translate(217.596 230.181)" fill="#232c44"/>
        <rect id="Rectángulo_403671" data-name="Rectángulo 403671" width="19.187" height="4.342" transform="translate(217.596 241.875)" fill="#232c44"/>
        <path id="Trazado_913610" data-name="Trazado 913610" d="M441.776,1042.126H285.1a1.12,1.12,0,0,1-1.12-1.12v-25.583a1.121,1.121,0,0,1,1.12-1.12H441.776a1.121,1.121,0,0,1,1.12,1.12v25.583a1.12,1.12,0,0,1-1.12,1.12" transform="translate(-201.724 -720.499)" fill="#485a7e"/>
        <rect id="Rectángulo_403672" data-name="Rectángulo 403672" width="19.187" height="4.342" transform="translate(88.001 298.844)" fill="#232c44"/>
        <rect id="Rectángulo_403673" data-name="Rectángulo 403673" width="19.187" height="4.342" transform="translate(88.001 310.539)" fill="#232c44"/>
        <rect id="Rectángulo_403674" data-name="Rectángulo 403674" width="19.187" height="4.342" transform="translate(113.92 298.844)" fill="#232c44"/>
        <rect id="Rectángulo_403675" data-name="Rectángulo 403675" width="19.187" height="4.342" transform="translate(113.92 310.539)" fill="#232c44"/>
        <rect id="Rectángulo_403676" data-name="Rectángulo 403676" width="19.187" height="4.342" transform="translate(139.839 298.844)" fill="#232c44"/>
        <rect id="Rectángulo_403677" data-name="Rectángulo 403677" width="19.187" height="4.342" transform="translate(139.839 310.539)" fill="#232c44"/>
        <rect id="Rectángulo_403678" data-name="Rectángulo 403678" width="19.187" height="4.342" transform="translate(165.758 298.844)" fill="#232c44"/>
        <rect id="Rectángulo_403679" data-name="Rectángulo 403679" width="19.187" height="4.342" transform="translate(165.758 310.539)" fill="#232c44"/>
        <rect id="Rectángulo_403680" data-name="Rectángulo 403680" width="19.187" height="4.342" transform="translate(191.677 298.844)" fill="#232c44"/>
        <rect id="Rectángulo_403681" data-name="Rectángulo 403681" width="19.187" height="4.342" transform="translate(191.677 310.539)" fill="#232c44"/>
        <rect id="Rectángulo_403682" data-name="Rectángulo 403682" width="19.187" height="4.342" transform="translate(217.596 298.844)" fill="#232c44"/>
        <rect id="Rectángulo_403683" data-name="Rectángulo 403683" width="19.187" height="4.342" transform="translate(217.596 310.539)" fill="#232c44"/>
        <path id="Trazado_913611" data-name="Trazado 913611" d="M273.976,99.451a1.111,1.111,0,0,0-1.568-.2,1.1,1.1,0,0,0-.437.829c-.19.414-1.378,2.342-8.235,8.762a56.669,56.669,0,0,0-8.493,10.084v4.28a55.415,55.415,0,0,1,10.028-12.728c9.994-9.356,9.277-10.286,8.706-11.025" transform="translate(-181.309 -70.333)" fill="#ffcf69"/>
        <path id="Trazado_913612" data-name="Trazado 913612" d="M280.655,100.237c-.022.224-.572,5.546-9.535,12.493-5.6,4.336-11.619,10.812-15.092,14.745-.28.314-.549.616-.784.9v-3.406a120.238,120.238,0,0,1,14.5-14.017c8.078-6.252,8.672-10.868,8.672-10.913a1.135,1.135,0,0,1,1.233-1,1.121,1.121,0,0,1,1.008,1.2" transform="translate(-181.31 -70.346)" fill="#ffcf69"/>
        <path id="Trazado_913613" data-name="Trazado 913613" d="M277.686,115.155c-7.91,4.291-17.983,12.2-22.442,15.82v-2.891c.246-.2.516-.415.784-.627,5.1-4.045,13.568-10.454,20.593-14.274,9.669-5.255,7.07-12.594,7.048-12.661a1.119,1.119,0,1,1,2.1-.784c.034.09,3.294,9.243-8.078,15.417" transform="translate(-181.31 -70.329)" fill="#ffcf69"/>
        <path id="Trazado_913614" data-name="Trazado 913614" d="M355.768,134.943a1.459,1.459,0,0,1-.412-.06,1.121,1.121,0,0,1,.2-2.19c1.4-1.287,5.365-11.085,7.3-18.8a57.562,57.562,0,0,1,5.871-14.349,1.12,1.12,0,1,1,1.916,1.162,56.338,56.338,0,0,0-5.613,13.731c-1.35,5.392-5.854,18.794-8.451,20.277a1.624,1.624,0,0,1-.811.228" transform="translate(-251.853 -70.328)" fill="#ffcf69"/>
        <path id="Trazado_913615" data-name="Trazado 913615" d="M364.4,165.146a1.12,1.12,0,0,1-1.085-1.4c.048-.185,1.223-4.611,5.767-11.144,4.4-6.318,7.889-12.586,7.923-12.649a1.12,1.12,0,1,1,1.959,1.089c-.035.063-3.58,6.426-8.043,12.841-4.29,6.166-5.426,10.384-5.437,10.426a1.122,1.122,0,0,1-1.084.837" transform="translate(-258.051 -99.006)" fill="#ffcf69"/>
        <path id="Trazado_913616" data-name="Trazado 913616" d="M266.731,163.606a1.121,1.121,0,0,1-.75-1.953,144.049,144.049,0,0,1,14.557-11.306,42.549,42.549,0,0,0,11.023-10.47,1.121,1.121,0,1,1,1.866,1.242,44.187,44.187,0,0,1-11.653,11.1,141.489,141.489,0,0,0-14.294,11.1,1.116,1.116,0,0,1-.749.288" transform="translate(-188.673 -99.005)" fill="#ffcf69"/>
        <path id="Trazado_913617" data-name="Trazado 913617" d="M382.773,134.928a1.065,1.065,0,0,1-.162-.012,1.118,1.118,0,0,1-.948-1.263c.041-.293,1.122-7.289,10.557-18.318a17,17,0,0,0,3.9-14.9,1.121,1.121,0,0,1,2.156-.612,19.253,19.253,0,0,1-4.353,16.971c-8.946,10.458-10.031,17.114-10.041,17.181a1.124,1.124,0,0,1-1.108.956" transform="translate(-271.102 -70.329)" fill="#ffcf69"/>
        <path id="Trazado_913618" data-name="Trazado 913618" d="M390.541,165.145c-.032,0-.063,0-.095,0a1.118,1.118,0,0,1-1.023-1.2c.018-.23.518-5.719,7.279-13.2a118.173,118.173,0,0,0,9.008-10.873,1.121,1.121,0,0,1,1.854,1.26,117.446,117.446,0,0,1-9.2,11.115c-6.191,6.85-6.7,11.828-6.708,11.878a1.124,1.124,0,0,1-1.115,1.023" transform="translate(-276.621 -99.006)" fill="#ffcf69"/>
        <path id="Trazado_913619" data-name="Trazado 913619" d="M462.067,163.618a1.12,1.12,0,0,1-.905-1.78,57.315,57.315,0,0,0,5.086-9.06,71.934,71.934,0,0,0,3.967-12.513,1.12,1.12,0,1,1,2.192.462,72.815,72.815,0,0,1-4.119,12.976,58.44,58.44,0,0,1-5.315,9.454,1.12,1.12,0,0,1-.907.461" transform="translate(-327.429 -99.004)" fill="#ffcf69"/>
        <path id="Trazado_913620" data-name="Trazado 913620" d="M478.022,165.57a1.121,1.121,0,0,1-.9-1.789A98.174,98.174,0,0,0,484.865,151c3.551-7.031,3.523-10.419,3.522-10.451a1.12,1.12,0,0,1,2.239-.089c.007.155.107,3.893-3.761,11.55a98.5,98.5,0,0,1-7.944,13.112,1.116,1.116,0,0,1-.9.452" transform="translate(-338.763 -99.008)" fill="#ffcf69"/>
        <path id="Trazado_913621" data-name="Trazado 913621" d="M472.219,133.4a1.121,1.121,0,0,1-.965-1.688c.06-.1,6.017-10.251,8.757-16.717,2.651-6.257,1.471-16.806,1.46-16.912a1.12,1.12,0,0,1,2.225-.258c.053.456,1.262,11.239-1.621,18.044a187.749,187.749,0,0,1-8.89,16.979,1.119,1.119,0,0,1-.967.552" transform="translate(-334.641 -68.785)" fill="#ffcf69"/>
        <path id="Trazado_913622" data-name="Trazado 913622" d="M493.98,136.468a1.121,1.121,0,0,1-.7-1.993c.092-.074,9.139-7.452,11.531-15.822,2.423-8.481.829-18.246.812-18.343a1.121,1.121,0,0,1,2.21-.371c.07.419,1.693,10.367-.868,19.33-2.589,9.061-11.884,16.633-12.279,16.951a1.112,1.112,0,0,1-.7.248" transform="translate(-350.097 -70.327)" fill="#ffcf69"/>
        <path id="Trazado_913623" data-name="Trazado 913623" d="M586.456,165.148a1.12,1.12,0,0,1-1.025-.667,119.2,119.2,0,0,1-4.389-11.682,30.771,30.771,0,0,1-.592-12.492,1.121,1.121,0,0,1,2.208.383c-.011.062-1.052,6.256.528,11.458a119.313,119.313,0,0,0,4.294,11.427,1.12,1.12,0,0,1-1.024,1.573" transform="translate(-412.042 -99.006)" fill="#ffcf69"/>
        <path id="Trazado_913624" data-name="Trazado 913624" d="M599.812,136.47a1.121,1.121,0,0,1-1.085-.846c-.032-.127-3.239-12.806-5.035-19.262-1.9-6.828,1.8-16.253,1.957-16.651a1.121,1.121,0,0,1,2.082.828c-.036.09-3.577,9.125-1.88,15.221,1.8,6.48,5.017,19.186,5.049,19.313a1.121,1.121,0,0,1-.812,1.361,1.143,1.143,0,0,1-.276.034" transform="translate(-421.338 -70.329)" fill="#ffcf69"/>
        <path id="Trazado_913625" data-name="Trazado 913625" d="M622.227,165.57a1.116,1.116,0,0,1-.747-.286,21.351,21.351,0,0,1-4.922-8c-1.971-5.209-4.16-16.1-4.252-16.563a1.12,1.12,0,0,1,2.2-.44c.022.112,2.246,11.174,4.151,16.209a19.34,19.34,0,0,0,4.321,7.125,1.12,1.12,0,0,1-.748,1.955" transform="translate(-434.93 -99.008)" fill="#ffcf69"/>
        <path id="Trazado_913626" data-name="Trazado 913626" d="M630.9,133.4a1.119,1.119,0,0,1-.983-.58,40.02,40.02,0,0,1-3.59-10.557c-1.192-5.958-3.411-23.343-3.411-24.309a1.12,1.12,0,0,1,2.241-.016c.042.877,2.151,17.805,3.367,23.885a38.557,38.557,0,0,0,3.357,9.918,1.12,1.12,0,0,1-.981,1.659m-5.743-35.446h0Z" transform="translate(-442.486 -68.782)" fill="#ffcf69"/>
        <path id="Trazado_913627" data-name="Trazado 913627" d="M688.38,165.147a1.118,1.118,0,0,1-.543-.14c-.31-.172-7.635-4.29-11.665-11.2a27.528,27.528,0,0,1-3.934-13.336,1.1,1.1,0,0,1,1.144-1.093,1.122,1.122,0,0,1,1.1,1.143,25.775,25.775,0,0,0,3.629,12.156c3.723,6.383,10.747,10.33,10.817,10.369a1.121,1.121,0,0,1-.545,2.1" transform="translate(-477.517 -99.005)" fill="#ffcf69"/>
        <path id="Trazado_913628" data-name="Trazado 913628" d="M687.359,137.3a1.106,1.106,0,0,1-.434-.089c-.208-.088-5.129-2.281-8.61-12.866-3.349-10.187-6.037-26.055-6.064-26.214a1.121,1.121,0,0,1,2.21-.372c.026.158,2.686,15.861,5.982,25.886,3.118,9.485,7.326,11.49,7.369,11.509a1.122,1.122,0,0,1-.454,2.146" transform="translate(-477.516 -68.782)" fill="#ffcf69"/>
        <path id="Trazado_913629" data-name="Trazado 913629" d="M708.19,133.4a1.114,1.114,0,0,1-.864-.408c-.03-.036-.785-.966-6.2-8.471-5.626-7.79-4.869-25.852-4.834-26.617a1.139,1.139,0,0,1,1.17-1.068A1.121,1.121,0,0,1,698.526,98c-.008.18-.758,18.046,4.411,25.2,5.292,7.326,6.092,8.326,6.123,8.365a1.12,1.12,0,0,1-.871,1.826" transform="translate(-494.564 -68.783)" fill="#ffcf69"/>
        <path id="Trazado_913630" data-name="Trazado 913630" d="M724.951,167.7a1.092,1.092,0,0,1-.762-.308c-.248-.24-1.617-1.774-4.235-8.525-2.1-5.416-4.637-11.879-5.612-14.36a1.121,1.121,0,0,1,2.086-.82c.975,2.483,3.513,8.95,5.615,14.371,2.452,6.323,3.675,7.691,3.726,7.747a1.125,1.125,0,0,1-.818,1.9" transform="translate(-507.371 -101.561)" fill="#ffcf69"/>
        <path id="Trazado_913631" data-name="Trazado 913631" d="M777.767,137.594c-.039,0-.079,0-.12-.006-.456-.048-11.222-1.313-15.486-11.9-4.11-10.2-3.2-25.005-3.16-25.631a1.136,1.136,0,0,1,1.191-1.045,1.121,1.121,0,0,1,1.045,1.191c-.01.148-.915,14.923,3,24.648,3.751,9.313,13.245,10.464,13.647,10.509a1.121,1.121,0,0,1-.12,2.234" transform="translate(-539.069 -70.331)" fill="#ffcf69"/>
        <path id="Trazado_913632" data-name="Trazado 913632" d="M792.669,164.307a1.133,1.133,0,0,1-.221-.022c-.217-.043-5.375-1.142-10.613-7.98-5.168-6.748-6.253-15.311-6.3-15.672a1.12,1.12,0,0,1,2.225-.27c.01.083,1.064,8.329,5.851,14.579,4.731,6.176,9.229,7.136,9.274,7.146a1.12,1.12,0,0,1-.219,2.219" transform="translate(-550.89 -99.006)" fill="#ffcf69"/>
        <path id="Trazado_913633" data-name="Trazado 913633" d="M814.722,133.4c-1.682,0-5.518-3.7-10.827-10.454-8.267-10.516-8.363-24.406-8.363-24.992a1.12,1.12,0,1,1,2.241,0c0,.554.09,13.693,7.883,23.606,6.658,8.469,8.922,9.505,9.2,9.607a1.121,1.121,0,0,1-.065,2.231l-.07,0m.162-2.223h0Z" transform="translate(-565.099 -68.782)" fill="#ffcf69"/>
        <path id="Trazado_913634" data-name="Trazado 913634" d="M800.751,136.467a1.116,1.116,0,0,1-.475-.106,50.781,50.781,0,0,1-14.213-10.9c-6.9-7.491-8.357-24.527-8.416-25.248a1.12,1.12,0,0,1,1.026-1.207,1.109,1.109,0,0,1,1.207,1.026c.014.169,1.45,16.989,7.83,23.911a49.5,49.5,0,0,0,13.518,10.39,1.12,1.12,0,0,1-.478,2.134" transform="translate(-552.391 -70.325)" fill="#ffcf69"/>
        <path id="Trazado_913635" data-name="Trazado 913635" d="M271.657,346.812a84.6,84.6,0,0,1-16.414,9.647v-2.454a86.723,86.723,0,0,0,15.081-8.986c8.9-6.633,7.485-19.45,7.462-19.585a1.129,1.129,0,0,1,.986-1.243,1.114,1.114,0,0,1,1.244.986c.067.572,1.569,14.252-8.358,21.635" transform="translate(-181.309 -230.28)" fill="#de684e"/>
        <path id="Trazado_913636" data-name="Trazado 913636" d="M273.842,364.238a100.181,100.181,0,0,1-13.064,9.7c-2.342,1.378-4.168,2.364-5.535,3.048v-2.521c1.165-.6,2.622-1.412,4.392-2.454a99.267,99.267,0,0,0,12.728-9.456,1.119,1.119,0,1,1,1.479,1.681" transform="translate(-181.309 -257.34)" fill="#de684e"/>
        <path id="Trazado_913637" data-name="Trazado 913637" d="M274.055,325.9c-.3.482-7.5,11.832-14.039,16.526-2.028,1.456-3.585,2.487-4.773,3.238V343c1.053-.695,2.219-1.49,3.473-2.4,6.185-4.437,13.367-15.787,13.434-15.9a1.125,1.125,0,0,1,1.9,1.2" transform="translate(-181.309 -230.279)" fill="#de684e"/>
        <path id="Trazado_913638" data-name="Trazado 913638" d="M248.356,363.086a1.12,1.12,0,0,1-.427-2.156c.18-.074,18.2-7.571,25.914-16.369a25.227,25.227,0,0,0,5.9-19.074,1.12,1.12,0,0,1,2.21-.368,27.036,27.036,0,0,1-6.425,20.919c-8.063,9.2-25.986,16.651-26.746,16.964a1.13,1.13,0,0,1-.427.084" transform="translate(-175.621 -230.28)" fill="#de684e"/>
        <path id="Trazado_913639" data-name="Trazado 913639" d="M352.793,393.305a1.12,1.12,0,0,1-.656-2.03c.042-.031,4.367-3.228,9.062-11.546,4.7-8.334,5.318-14.1,5.323-14.161a1.12,1.12,0,0,1,2.23.212c-.023.252-.639,6.26-5.6,15.049s-9.515,12.127-9.705,12.264a1.116,1.116,0,0,1-.653.21" transform="translate(-249.806 -258.958)" fill="#de684e"/>
        <path id="Trazado_913640" data-name="Trazado 913640" d="M378.42,361.3a1.12,1.12,0,0,1-.722-1.978c.1-.086,10.248-8.684,12.1-16.215,1.891-7.7.626-20.08.614-20.2a1.119,1.119,0,0,1,1-1.231,1.1,1.1,0,0,1,1.231,1c.055.523,1.319,12.893-.666,20.972-2.024,8.243-12.391,17.027-12.831,17.4a1.117,1.117,0,0,1-.72.263" transform="translate(-268.01 -228.489)" fill="#de684e"/>
        <path id="Trazado_913641" data-name="Trazado 913641" d="M393.409,364.63a1.12,1.12,0,0,1-.763-1.941c.1-.091,9.771-9.145,12.308-16.491,2.568-7.435,2.6-20.757,2.6-20.891a1.12,1.12,0,0,1,2.241,0c0,.561-.031,13.831-2.722,21.622-2.721,7.877-12.486,17.016-12.9,17.4a1.117,1.117,0,0,1-.763.3" transform="translate(-278.658 -230.283)" fill="#de684e"/>
        <path id="Trazado_913642" data-name="Trazado 913642" d="M820.25,357.024v2.745a62,62,0,0,1-7.081-5.58,38.535,38.535,0,0,1-5.636-6.263,21.225,21.225,0,0,1-2.364-4.246c-.325-.8-.6-1.591-.863-2.386a37.019,37.019,0,0,1-1.345-5.8,38.882,38.882,0,0,1-.269-10.341,1.106,1.106,0,0,1,1.255-.964,1.132,1.132,0,0,1,.964,1.266,38.631,38.631,0,0,0,1.423,14.779c.258.863.56,1.737.908,2.61a17.293,17.293,0,0,0,1.378,2.678,33.948,33.948,0,0,0,5.837,6.813,60.629,60.629,0,0,0,4.74,3.921c.37.28.717.538,1.053.773" transform="translate(-570.03 -230.273)" fill="#de684e"/>
        <path id="Trazado_913643" data-name="Trazado 913643" d="M811.061,382.831v2.252a10.332,10.332,0,0,1-1.053-.146,22.253,22.253,0,0,1-6.027-2.061,36.226,36.226,0,0,1-5.087-3.025c-9.445-6.622-9.355-13.893-9.355-14.207a1.163,1.163,0,0,1,1.154-1.087,1.114,1.114,0,0,1,1.087,1.143c0,.258.022,5.5,6.566,10.913.56.471,1.176.941,1.837,1.4a35.35,35.35,0,0,0,5.087,3,19.387,19.387,0,0,0,5.793,1.815" transform="translate(-560.84 -258.959)" fill="#de684e"/>
        <path id="Trazado_913644" data-name="Trazado 913644" d="M802.61,346.565v2.342a53.8,53.8,0,0,1-9.389-3.776,14.029,14.029,0,0,1-2.241-1.4,24.717,24.717,0,0,1-4.314-4.224c-5.423-6.633-8.773-15.831-8.964-16.347a1.133,1.133,0,0,1,.684-1.434,1.118,1.118,0,0,1,1.434.672,69.653,69.653,0,0,0,5.5,11.305,38.543,38.543,0,0,0,3.372,4.739,18.119,18.119,0,0,0,5.523,4.672,53.14,53.14,0,0,0,8.392,3.451" transform="translate(-552.389 -228.486)" fill="#de684e"/>
        <path id="Trazado_913645" data-name="Trazado 913645" d="M790.928,391.765h-.048c-.568-.024-14.013-.7-22.818-10.745-5.375-6.135-6.789-14.8-6.847-15.169a1.12,1.12,0,0,1,2.214-.349c.014.083,1.381,8.4,6.319,14.04,8.159,9.312,21.1,9.978,21.228,9.983a1.12,1.12,0,0,1-.047,2.24" transform="translate(-540.712 -258.959)" fill="#de684e"/>
        <path id="Trazado_913646" data-name="Trazado 913646" d="M780.257,351.186a1.115,1.115,0,0,1-.42-.082c-.438-.177-10.781-4.4-15.254-9.98-4.5-5.615-5.622-17.736-5.668-18.249a1.12,1.12,0,0,1,1.016-1.215,1.1,1.1,0,0,1,1.216,1.016c.011.119,1.106,11.96,5.184,17.045,4.106,5.122,14.244,9.264,14.346,9.306a1.12,1.12,0,0,1-.42,2.159" transform="translate(-539.085 -228.484)" fill="#de684e"/>
        <path id="Trazado_913647" data-name="Trazado 913647" d="M715.634,392.466a1.115,1.115,0,0,1-.761-.3,59.122,59.122,0,0,1-9.025-11.038,133.993,133.993,0,0,1-7.589-15.012,1.121,1.121,0,1,1,2.061-.88,134.662,134.662,0,0,0,7.434,14.714,57.791,57.791,0,0,0,8.642,10.572,1.12,1.12,0,0,1-.762,1.942" transform="translate(-495.937 -258.959)" fill="#de684e"/>
        <path id="Trazado_913648" data-name="Trazado 913648" d="M696.142,361.625a1.119,1.119,0,0,1-.948-.521c-.344-.542-8.449-13.368-10.892-20.791-2.5-7.595-.125-17.386-.023-17.8a1.12,1.12,0,1,1,2.175.538c-.023.1-2.32,9.585-.023,16.56,2.355,7.159,10.573,20.161,10.656,20.292a1.12,1.12,0,0,1-.945,1.72" transform="translate(-485.277 -228.491)" fill="#de684e"/>
        <path id="Trazado_913649" data-name="Trazado 913649" d="M719.591,363.79a1.121,1.121,0,0,1-.949-.522,73.7,73.7,0,0,1-7.9-18.265c-2.563-9.575.159-18.933.486-20a1.121,1.121,0,0,1,2.2.3,1.307,1.307,0,0,1-.057.355c-.3.974-2.87,9.777-.465,18.762a72.815,72.815,0,0,0,7.632,17.648,1.12,1.12,0,0,1-.947,1.719" transform="translate(-504.095 -230.283)" fill="#de684e"/>
        <path id="Trazado_913650" data-name="Trazado 913650" d="M679.154,363.089a1.114,1.114,0,0,1-.7-.246c-.129-.1-3.236-2.647-9.607-11.955-6.509-9.513-4.837-25.051-4.764-25.708a1.121,1.121,0,0,1,2.228.252c-.018.152-1.649,15.37,4.385,24.191,6.124,8.946,9.134,11.45,9.164,11.474a1.122,1.122,0,0,1-.708,1.991" transform="translate(-471.553 -230.282)" fill="#de684e"/>
        <path id="Trazado_913651" data-name="Trazado 913651" d="M600.04,393.773a1.111,1.111,0,0,1-.739-.28c-.107-.1-2.672-2.415-4.8-8.6-2.1-6.107-1.564-18.732-1.54-19.267a1.141,1.141,0,0,1,1.168-1.069,1.121,1.121,0,0,1,1.07,1.169c-.005.127-.539,12.734,1.42,18.439,1.91,5.554,4.148,7.633,4.171,7.654a1.122,1.122,0,0,1-.753,1.953" transform="translate(-421.15 -258.959)" fill="#de684e"/>
        <path id="Trazado_913652" data-name="Trazado 913652" d="M592.743,393.776a1.122,1.122,0,0,1-1.068-.78,38.129,38.129,0,0,0-6.223-10.935,48.923,48.923,0,0,1-8.434-16.117,1.12,1.12,0,0,1,2.177-.527,47.138,47.138,0,0,0,8,15.237,39.675,39.675,0,0,1,6.614,11.663,1.122,1.122,0,0,1-1.068,1.46" transform="translate(-409.857 -258.962)" fill="#de684e"/>
        <path id="Trazado_913653" data-name="Trazado 913653" d="M614.291,363.3a1.119,1.119,0,0,1-.952-.528c-.272-.437-6.7-10.777-9.224-16.479-2.6-5.862-2.046-22.833-2.021-23.553a1.12,1.12,0,1,1,2.238.076c-.006.171-.557,17.175,1.831,22.57,2.461,5.559,9.011,16.1,9.077,16.2a1.121,1.121,0,0,1-.95,1.712" transform="translate(-427.646 -228.488)" fill="#de684e"/>
        <path id="Trazado_913654" data-name="Trazado 913654" d="M635.5,390.932a1.114,1.114,0,0,1-.853-.4,54.056,54.056,0,0,1-7.924-13.113,24.082,24.082,0,0,1-1.546-13.643,1.121,1.121,0,0,1,2.179.522,22.275,22.275,0,0,0,1.442,12.276,52.826,52.826,0,0,0,7.555,12.507,1.121,1.121,0,0,1-.853,1.846" transform="translate(-443.819 -257.798)" fill="#de684e"/>
        <path id="Trazado_913655" data-name="Trazado 913655" d="M478.02,362.2a1.12,1.12,0,0,1-.728-1.972,65.618,65.618,0,0,0,7.247-17.931,118.762,118.762,0,0,0,2.535-18.29,1.1,1.1,0,0,1,1.171-1.068,1.121,1.121,0,0,1,1.068,1.171,121.041,121.041,0,0,1-2.59,18.684c-1.679,7.372-6.868,19.154-8.542,19.395a1.136,1.136,0,0,1-.161.011" transform="translate(-338.761 -229.398)" fill="#de684e"/>
        <path id="Trazado_913656" data-name="Trazado 913656" d="M499.137,392.1a1.12,1.12,0,0,1-.963-1.692c.047-.08,4.706-7.972,6.234-13.366,1.552-5.476,2.578-11.484,2.588-11.545a1.121,1.121,0,1,1,2.21.374c-.011.061-1.056,6.185-2.642,11.781-1.608,5.678-6.265,13.565-6.462,13.9a1.12,1.12,0,0,1-.965.549" transform="translate(-353.761 -258.964)" fill="#de684e"/>
        <path id="Trazado_913657" data-name="Trazado 913657" d="M459.81,362.451a1.121,1.121,0,0,1-.957-1.7,71.74,71.74,0,0,0,7.153-17.575A110.375,110.375,0,0,0,469.06,324.1a1.088,1.088,0,0,1,.92-1.257,1.142,1.142,0,0,1,1.3.951c.152.9-.7,10.2-3.1,19.917a72.535,72.535,0,0,1-7.412,18.2,1.119,1.119,0,0,1-.96.54" transform="translate(-325.827 -229.317)" fill="#de684e"/>
        <path id="Trazado_913658" data-name="Trazado 913658" d="M703.572,601.36a1.117,1.117,0,0,1-.764-.3,45.007,45.007,0,0,1-4.753-5.47c-1.431-1.908-3.053-5.825-4.621-9.614a61.877,61.877,0,0,0-3.687-7.989c-.333-.516-.651-1.02-.964-1.514a34.131,34.131,0,0,0-7.589-9.066,17.859,17.859,0,0,0-10.264-3.929,1.12,1.12,0,0,1,.022-2.241,19.957,19.957,0,0,1,11.7,4.465,36.448,36.448,0,0,1,8.028,9.574c.309.488.622.984.952,1.492a61.539,61.539,0,0,1,3.875,8.352c1.516,3.66,3.081,7.445,4.343,9.127a43.817,43.817,0,0,0,4.49,5.175,1.121,1.121,0,0,1-.766,1.939" transform="translate(-475.8 -398.667)" fill="#75a38e"/>
        <path id="Trazado_913659" data-name="Trazado 913659" d="M795.791,571.339s-11.768,3.221-13.208,3.545-4.164-1.078-5.316-3.822-.516-10.113.675-10.985c3.565-2.612,5.548.26,6.644.558s14.433,3.9,14.433,3.9Z" transform="translate(-551.693 -397.071)" fill="#fea689"/>
        <path id="Trazado_913660" data-name="Trazado 913660" d="M722.555,601.916a1.112,1.112,0,0,1-.73-.273c-.134-.115-3.3-2.9-6.036-9.078a86.4,86.4,0,0,1-3.593-11.971c-1.165-4.592-2.37-9.342-3.582-11.5-2.426-4.317-4.79-8.3-4.814-8.344a1.121,1.121,0,1,1,1.928-1.144c.023.04,2.4,4.05,4.841,8.39,1.358,2.415,2.544,7.092,3.8,12.045a85.167,85.167,0,0,0,3.472,11.616,25.317,25.317,0,0,0,5.451,8.29,1.121,1.121,0,0,1-.736,1.966" transform="translate(-499.826 -397.122)" fill="#75a38e"/>
        <path id="Trazado_913661" data-name="Trazado 913661" d="M691.3,629.1c-2.567,0-12.976-15.751-13.08-15.91-5.458-8.318-8.2-12.726-8.227-12.77a1.12,1.12,0,1,1,1.9-1.182c.026.043,2.756,4.431,8.2,12.722,5.638,8.591,10.447,14.263,11.474,14.932a1.12,1.12,0,0,1-.268,2.208" transform="translate(-475.8 -425.288)" fill="#75a38e"/>
        <path id="Trazado_913662" data-name="Trazado 913662" d="M785.826,596.265a1.121,1.121,0,0,1-1.013-.639,123.757,123.757,0,0,1-5.806-14.451c-.645-2.2-1.4-5.516-2.209-9.021-1.277-5.566-2.726-11.876-3.9-14.427a2.162,2.162,0,0,0-1.3-1.191c-2.087-.758-5.66.543-6.864,1.107a1.12,1.12,0,0,1-.957-2.026c.528-.25,5.247-2.4,8.586-1.187a4.394,4.394,0,0,1,2.576,2.364c1.266,2.759,2.678,8.91,4.043,14.86.8,3.473,1.549,6.752,2.176,8.892a124.141,124.141,0,0,0,5.679,14.118,1.12,1.12,0,0,1-1.011,1.6" transform="translate(-542.086 -393.572)" fill="#75a38e"/>
        <path id="Trazado_913663" data-name="Trazado 913663" d="M800,557.321s-3.276-2.865-5.756-3.4-6.335-1.391-7.989-.807-3.294,4.734-3.054,6.072,2.638.83,3.781-.275l1.144-1.1s4.834,4.524,7.184,5.231,7.071.433,6.913.136S800,557.321,800,557.321" transform="translate(-556.326 -392.761)" fill="#fea689"/>
        <path id="Trazado_913664" data-name="Trazado 913664" d="M792.8,627.232a1.111,1.111,0,0,1-.39-.071c-.278-.105-1.935-.846-7.226-5.193-5.46-4.484-17.6-20.779-18.115-21.471a1.121,1.121,0,1,1,1.8-1.337c.123.167,12.49,16.766,17.739,21.077,5.039,4.14,6.554,4.809,6.616,4.835a1.13,1.13,0,0,1,.61,1.452,1.117,1.117,0,0,1-1.034.708" transform="translate(-544.722 -425.287)" fill="#75a38e"/>
        <path id="Trazado_913665" data-name="Trazado 913665" d="M776.188,629.24a1.113,1.113,0,0,1-.741-.28c-.036-.032-3.726-3.284-7.98-7.206-4.384-4.041-12.4-18.988-12.74-19.623a1.121,1.121,0,0,1,1.976-1.057c.081.152,8.176,15.246,12.283,19.032,4.236,3.905,7.905,7.141,7.943,7.173a1.121,1.121,0,0,1-.741,1.961" transform="translate(-536.019 -426.547)" fill="#75a38e"/>
        <path id="Trazado_913666" data-name="Trazado 913666" d="M630.2,632.147a1.118,1.118,0,0,1-.927-.49,33.805,33.805,0,0,1-2.909-5.53c-1.1-2.647-1.559-6.126-2.137-10.531-.142-1.081-.291-2.219-.459-3.413a32.536,32.536,0,0,0-2.382-8.95,1.121,1.121,0,0,1,2.008-1,33.947,33.947,0,0,1,2.593,9.633c.169,1.2.32,2.347.462,3.434.557,4.241,1,7.59,1.984,9.961a32.131,32.131,0,0,0,2.693,5.132,1.121,1.121,0,0,1-.925,1.751" transform="translate(-441.312 -427.353)" fill="#75a38e"/>
        <path id="Trazado_913667" data-name="Trazado 913667" d="M608.221,630.356a1.12,1.12,0,0,1-.911-.466c-.228-.317-5.62-7.84-7.732-13.423-2.146-5.673-1.559-14.57-1.534-14.946a1.108,1.108,0,0,1,1.195-1.04,1.12,1.12,0,0,1,1.042,1.195c-.007.086-.578,8.786,1.394,14,2.007,5.3,7.4,12.831,7.455,12.907a1.121,1.121,0,0,1-.908,1.775" transform="translate(-424.749 -426.542)" fill="#75a38e"/>
        <path id="Trazado_913668" data-name="Trazado 913668" d="M614.53,599.815a1.121,1.121,0,0,1-1.071-.79c-.047-.155-4.8-15.589-6.654-22.155-1.416-5.031-1.777-11.674-1.95-14.867-.034-.613-.068-1.246-.093-1.484a1.12,1.12,0,0,1,1.341-1.426c.849.213.87.606.989,2.789.169,3.112.521,9.588,1.87,14.38,1.843,6.541,6.59,21.948,6.638,22.1a1.119,1.119,0,0,1-1.071,1.451" transform="translate(-429.55 -397.122)" fill="#75a38e"/>
        <path id="Trazado_913669" data-name="Trazado 913669" d="M582.422,602.754a1.122,1.122,0,0,1-1.034-.688c-.05-.121-5.08-12.132-8.769-20.522-3.8-8.638-.865-18.593-.338-19.136l.8.781-.186,1.105.186-1.105,1.053.38c-.03.089-2.976,9.09.532,17.073,3.7,8.407,8.735,20.438,8.786,20.559a1.12,1.12,0,0,1-1.034,1.553" transform="translate(-405.394 -399.501)" fill="#75a38e"/>
        <path id="Trazado_913670" data-name="Trazado 913670" d="M315.52,1113.282a10.64,10.64,0,0,1-7.569-2.969c-10.146-9.6-5.638-38.259-4.016-46.812,4.208-22.173,1.856-25.8,1.587-26.125a1.12,1.12,0,0,1,1.093-1.946c1.366.613,4.053,4.614-.478,28.489-4.127,21.748-2.842,38.9,3.355,44.766,2.381,2.255,5.418,2.884,9.281,1.93,3.324-.823,5.285-1.989,5.993-3.566,1.226-2.731-1.038-7.032-3.9-12.477-2.894-5.5-6.5-12.345-7.6-20.108-2.806-19.782,3.154-37.623,3.41-38.372a1.12,1.12,0,0,1,2.121.722c-.061.178-6.042,18.1-3.313,37.335,1.046,7.379,4.4,13.755,7.363,19.38,3.149,5.985,5.637,10.712,3.964,14.439-1.009,2.246-3.461,3.824-7.5,4.823a15.838,15.838,0,0,1-3.79.492m-9.826-75.808h0m0,0h0m0,0h0Z" transform="translate(-214.187 -735.437)" fill="#bec1c4"/>
        <rect id="Rectángulo_403684" data-name="Rectángulo 403684" width="183.781" height="12.754" transform="translate(70.185 198.342)" fill="#485a7e"/>
        <path id="Trazado_913671" data-name="Trazado 913671" d="M272.716,1121.232a7.423,7.423,0,0,1-3.337-.874c-5.284-2.651-9.391-7.809-11.565-14.523-3.217-9.932-1.991-21.912,3.277-32.047,8.732-16.8,9.207-37.154,9.211-37.358a1.121,1.121,0,0,1,1.12-1.1h.021a1.121,1.121,0,0,1,1.1,1.141c-.015.851-.481,21.073-9.462,38.349-5,9.614-6.17,20.951-3.135,30.324,1.988,6.139,5.7,10.831,10.439,13.211,1.906.956,3.408.843,4.732-.354,6.457-5.832,5.922-33.249-1.005-51.467-8.7-22.88,5.95-30.994,6.1-31.073a1.12,1.12,0,0,1,1.056,1.976c-.536.29-13.032,7.337-5.06,28.3,6.71,17.649,8.117,46.97.412,53.927a5.756,5.756,0,0,1-3.9,1.567" transform="translate(-181.88 -735.435)" fill="#bec1c4"/>
        <path id="Trazado_913672" data-name="Trazado 913672" d="M332.881,1120.111c-3.808,0-6.73-2.631-8.692-7.827-6.357-16.838-1-63.517.836-65.009a1.12,1.12,0,0,1,1.692,1.4c-1.2,3.733-7.666,54.113,1.5,66.544a5.6,5.6,0,0,0,4.909,2.644c4.736-.192,8.165-1.59,10.484-4.273,5.624-6.5,4.181-20.291,2.652-34.887l-.013-.126c-2.232-21.31,1.382-42.115,1.419-42.323a1.12,1.12,0,0,1,2.206.391c-.036.2-3.594,20.713-1.4,41.7l.014.127c1.649,15.747,3.072,29.348-3.186,36.586-2.746,3.177-6.7,4.826-12.087,5.045-.115,0-.23.008-.342.008" transform="translate(-228.136 -735.436)" fill="#bec1c4"/>
        <path id="Trazado_913673" data-name="Trazado 913673" d="M500.044,1116.646c-3.581,0-6.369-2.959-9.885-6.688-5.111-5.423-12.112-12.851-25.514-14.887-15.394-2.337-20.846,5.149-24.828,10.616-2.01,2.757-3.6,4.936-5.994,4.981h-.071c-1.911,0-3.89-1.43-6.4-4.622-7.105-9.028-8.251-31.651-3.406-67.241.148-1.084.277-2.028.3-2.29a1.121,1.121,0,0,1,2.168-.46c.127.336.127.336-.243,3.053-5.93,43.551-1.671,59.685,2.947,65.552,1.966,2.5,3.529,3.767,4.642,3.767h.027c1.284-.023,2.581-1.8,4.224-4.059,4.079-5.6,10.24-14.053,26.976-11.512,14.165,2.151,21.472,9.9,26.808,15.565,3.188,3.383,5.662,6.089,8.37,5.982,2.159-.058,4.639-1.83,7.8-5.577,14.95-17.695-3.344-71.465-3.53-72.006a1.121,1.121,0,0,1,2.119-.731c.779,2.258,18.886,55.524,3.123,74.183-3.656,4.327-6.573,6.292-9.456,6.371l-.177,0" transform="translate(-299.056 -735.439)" fill="#bec1c4"/>
        <path id="Trazado_913674" data-name="Trazado 913674" d="M539.224,1116.515c-4.131,0-8.154-1.72-11.85-5.107-17.226-15.792-14.754-45.218-13.94-54.889.054-.64.1-1.2.136-1.668.543-7.42-1.508-18.079-1.529-18.185a1.12,1.12,0,0,1,2.2-.429c.087.449,2.128,11.062,1.563,18.778-.035.475-.082,1.042-.137,1.691-.79,9.4-3.194,38,13.222,53.048,4.729,4.335,9.792,5.565,15.051,3.656,12.16-4.411,21.913-23.811,23.976-39.255,3.089-23.121-3.024-37.108-3.087-37.245a1.121,1.121,0,0,1,2.044-.92c.264.588,6.444,14.656,3.264,38.463-2.15,16.091-12.485,36.367-25.433,41.064a16.026,16.026,0,0,1-5.481,1" transform="translate(-363.708 -735.437)" fill="#bec1c4"/>
        <path id="Trazado_913675" data-name="Trazado 913675" d="M534.857,1093.711c-8.289,0-19.682-3.2-31.406-10.371-17.181-10.5-23.584-5.338-31,.644-5.478,4.419-11.142,8.994-21.371,7.349a16.961,16.961,0,0,1-12.012-7.621c-8.172-12.487-2.449-35.163-2.2-36.123a1.12,1.12,0,0,1,2.17.56c-.059.226-5.724,22.683,1.908,34.338a14.8,14.8,0,0,0,10.489,6.633c9.251,1.487,14.281-2.58,19.609-6.88,7.4-5.97,15.045-12.14,33.574-.813,19.39,11.854,36.744,11.9,40.175,6.727,1.824-2.752-.695-6.982-6.738-11.317-10-7.172-21.711-7.2-32.044-7.233-11.046-.031-20.584-.057-23.961-9.242-6.172-16.785-2.7-24.105-2.548-24.408a1.121,1.121,0,1,1,2.007,1c-.028.059-3.14,6.9,2.645,22.638,2.839,7.721,11.235,7.745,21.864,7.774,10.669.029,22.763.063,33.344,7.654,10.3,7.385,8.535,12.514,7.3,14.376-1.855,2.8-6.094,4.318-11.806,4.318" transform="translate(-308.778 -735.436)" fill="#bec1c4"/>
        <path id="Trazado_913676" data-name="Trazado 913676" d="M513.8,1108.895a19.639,19.639,0,0,1-2.529-.163c-9.4-1.228-19.56-9.468-19.666-24.659-.185-26.246-2.583-47.282-2.607-47.491a1.12,1.12,0,1,1,2.225-.258c.024.211,2.438,21.367,2.623,47.734.1,13.849,9.251,21.346,17.717,22.452,7.453.98,17.524-2.857,21.35-16.858,7.453-27.264-5.785-52.419-5.919-52.67a1.12,1.12,0,1,1,1.974-1.059c.139.258,13.792,26.2,6.108,54.32-3.8,13.885-13.317,18.652-21.275,18.652" transform="translate(-347.348 -735.437)" fill="#bec1c4"/>
        <path id="Trazado_913677" data-name="Trazado 913677" d="M399.377,1106.5c-10.543,0-23.194-7.989-35.472-15.741-13.337-8.422-27.127-17.13-36.218-13.779-6.321,2.33-13.082,7.078-19.62,11.67-9.319,6.543-18.119,12.723-24.549,10.849-2.716-.793-4.826-2.977-6.273-6.49-7.782-18.9,22.175-44.891,23.455-45.988a1.12,1.12,0,1,1,1.459,1.7c-.3.258-30.009,26.021-22.842,43.434,1.191,2.893,2.771,4.591,4.829,5.193,5.4,1.569,13.769-4.306,22.633-10.531,6.656-4.674,13.538-9.507,20.134-11.94,10.124-3.734,23.757,4.875,38.189,13.987,13.312,8.406,27.085,17.1,37.381,15.11,5.06-.977,6.026-2.19,6.15-2.825.529-2.692-8.154-8.361-17.346-14.362-7.87-5.139-17.666-11.535-26.494-18.95-11.545-9.7-17.278-18.18-17.036-25.21a9.258,9.258,0,0,1,3.252-7.079,1.121,1.121,0,1,1,1.319,1.812,7.07,7.07,0,0,0-2.334,5.424c-.114,4.328,2.612,11.89,16.241,23.339,8.724,7.328,18.456,13.682,26.277,18.789,11.935,7.793,19.139,12.5,18.32,16.671-.433,2.2-2.877,3.618-7.925,4.592a18.559,18.559,0,0,1-3.531.326" transform="translate(-196.023 -735.441)" fill="#bec1c4"/>
        <path id="Trazado_913678" data-name="Trazado 913678" d="M511.116,1114.874c-6.68,0-12.013-1.525-15.534-7.054-8.938-14.035-.518-58.023-.154-59.889a1.12,1.12,0,1,1,2.2.427c-.086.448-8.615,44.973-.154,58.258,4.756,7.469,13.632,6.442,25.917,5.017,8.918-1.034,20.015-2.321,32.557-.585,15.662,2.165,25.759.506,30.861-5.077,4.654-5.093,5.49-13.735,2.554-26.418-6.355-27.465-8.377-42.807-8.4-42.958a1.121,1.121,0,0,1,.967-1.255,1.109,1.109,0,0,1,1.255.966c.02.151,2.031,15.4,8.358,42.741,3.114,13.456,2.105,22.757-3.085,28.435-5.636,6.169-16.372,8.063-32.82,5.785-12.257-1.695-23.2-.428-31.992.592a113.589,113.589,0,0,1-12.533,1.015" transform="translate(-349.122 -735.435)" fill="#bec1c4"/>
        <path id="Trazado_913679" data-name="Trazado 913679" d="M762.655,1110.361a1.8,1.8,0,0,1-.614-.11c-2.909-1.043-1.761-9.29,2.263-32.594.644-3.733,1.307-7.571,1.936-11.376.266-1.613.493-3.2.676-4.723q.11-.914.2-1.793a129.051,129.051,0,0,0-4.746-14.214,1.12,1.12,0,1,1,2.064-.871c.185.436,1.519,3.638,3.09,8.466.267-15.242-4.77-19.656-4.829-19.706a1.12,1.12,0,0,1,1.407-1.743c.312.248,7.358,6.147,5.3,27.717,3.533,12.9,6.521,31.44-.5,43.766-2.9,5.09-4.688,7.181-6.246,7.181m5.944-44.635c-.048.305-.1.613-.149.922-.628,3.809-1.292,7.653-1.938,11.391-2.1,12.161-4.691,27.176-3.687,29.935.493-.37,1.695-1.628,4.129-5.9,5.631-9.884,4.291-24.466,1.645-36.345" transform="translate(-540.155 -732.682)" fill="#bec1c4"/>
        <path id="Trazado_913680" data-name="Trazado 913680" d="M666.232,1134.1a6.253,6.253,0,0,1-2.57-.544c-4.957-2.209-7.585-10.693-11.223-22.435-1.584-5.115-3.381-10.912-5.6-16.852-8.78-23.507,6.122-46.77,6.273-47a1.121,1.121,0,0,1,1.878,1.224c-.145.223-14.429,22.565-6.052,45,2.241,6,4.047,11.829,5.641,16.973,3.333,10.758,5.966,19.255,9.995,21.052a5.066,5.066,0,0,0,4.321-.316c8.955-4.126.652-36.037-7.113-56.48-5.97-15.712-7.249-37.967-7.261-38.191a1.119,1.119,0,0,1,1.057-1.179,1.136,1.136,0,0,1,1.179,1.057c.012.22,1.275,22.135,7.119,37.516,2.054,5.407,19.665,53,5.958,59.312a8.634,8.634,0,0,1-3.6.871" transform="translate(-457.51 -735.441)" fill="#bec1c4"/>
        <path id="Trazado_913681" data-name="Trazado 913681" d="M448.965,1134.724a117.978,117.978,0,0,1-16.237-1.408c-15.566-2.223-24.421-6.35-24.295-11.321.1-3.934,5.732-6.886,14.7-7.7,15.216-1.387,21.2-13.911,30.256-32.869,1.262-2.643,2.579-5.4,3.984-8.254,11.112-22.585,7.079-36.24,7.038-36.376a1.12,1.12,0,0,1,2.137-.673c.094.3,1.232,4.073.8,10.813a1.121,1.121,0,0,1,1.712.771c.049.316,4.877,31.907,3.267,57.752-.758,12.177-2.357,20.642-7.97,25.212-3.365,2.74-8.087,4.058-15.385,4.058m18.118-84.994c-.742,6.24-2.809,14.481-7.7,24.427-1.4,2.847-2.714,5.6-3.973,8.23-9.05,18.944-15.588,32.632-32.074,34.136-8.238.75-12.6,3.349-12.661,5.529s4.595,6.507,22.371,9.045c16.668,2.383,25.05,1.774,29.89-2.169,4.98-4.055,6.427-12.041,7.148-23.614,1.383-22.2-2.036-48.722-3-55.584" transform="translate(-290.125 -735.441)" fill="#bec1c4"/>
        <path id="Trazado_913682" data-name="Trazado 913682" d="M310.962,882.727c-6.725,0-15.1-7.576-16.936-18.591-1.226-7.37.609-15.408,3.368-23.093a35.582,35.582,0,0,1-4.276-14.162c-1.71-21.478,6.994-28.111,7.365-28.382a1.12,1.12,0,0,1,1.328,1.8c-.128.1-8.054,6.369-6.459,26.4a32.652,32.652,0,0,0,3.1,11.506c1.541-3.953,3.261-7.777,4.857-11.325,2.5-5.555,4.657-10.352,5.321-13.828,1.991-10.426,2.034-13.628,2.034-13.659a1.121,1.121,0,0,1,1.12-1.115h0a1.119,1.119,0,0,1,1.117,1.118c0,.131-.024,3.344-2.073,14.075-.715,3.735-2.923,8.644-5.479,14.327-1.832,4.069-3.828,8.509-5.516,13.072a85.473,85.473,0,0,0,8,11.159c5.155,6.427,10.023,12.5,10.482,20.442.342,5.9-2.055,9.71-6.409,10.2a8.723,8.723,0,0,1-.95.052m-12.087-39.115c-2.293,6.829-3.693,13.819-2.639,20.157,1.834,11.028,10.369,17.215,15.426,16.679,3.125-.35,4.7-3.133,4.423-7.841-.418-7.229-5.069-13.029-9.994-19.169a98.368,98.368,0,0,1-7.216-9.826" transform="translate(-208.055 -567.051)" fill="#fff"/>
        <path id="Trazado_913683" data-name="Trazado 913683" d="M445.136,870.437c-7.712,0-17.915-5.883-26.467-15.644-7.1-8.1-11.994-8.041-15.576-8-.123,0-.245,0-.364,0-4.816,0-6.876-1.283-7.633-12.062-1.487-21.174,1.3-35.41,1.326-35.552a1.12,1.12,0,1,1,2.2.44c-.027.139-2.753,14.105-1.289,34.954.706,10.037,2.173,10.018,5.737,9.977,3.792-.04,9.509-.112,17.288,8.764,10.792,12.318,22.421,16.512,28.327,14.287,3.186-1.2,4.869-4.269,4.867-8.879,0-7.9-3.626-11.98-7.461-16.3-3.9-4.388-7.927-8.925-8.971-17.555-2.043-16.9-1.522-25.2-1.5-25.545a1.138,1.138,0,0,1,1.193-1.042,1.122,1.122,0,0,1,1.044,1.193c-.006.083-.526,8.468,1.488,25.126.958,7.935,4.752,12.205,8.421,16.336,3.944,4.44,8.023,9.031,8.027,17.785,0,5.544-2.241,9.443-6.318,10.977a12.263,12.263,0,0,1-4.335.737" transform="translate(-280.342 -567.049)" fill="#fff"/>
        <path id="Trazado_913684" data-name="Trazado 913684" d="M513.394,874.15a4.948,4.948,0,0,1-.9-.082c-2.872-.533-4.437-3.468-6.417-7.184-2.84-5.331-6.377-11.965-15.3-15.52-20.942-8.339-9.53-39.769-9.413-40.086a1.121,1.121,0,1,1,2.1.781c-.111.3-10.771,29.692,8.142,37.223,9.69,3.857,13.6,11.192,16.453,16.547,1.7,3.184,3.036,5.7,4.848,6.034,1.5.284,3.676-.833,6.643-3.4,14.23-12.335,8.471-25.492,1.18-42.149-7.477-17.084-5.236-26.769-5.138-27.172a1.121,1.121,0,1,1,2.177.534c-.022.089-2.123,9.434,5.013,25.739,7.357,16.81,13.711,31.327-1.765,44.742-3.149,2.729-5.55,4-7.624,4" transform="translate(-339.653 -567.053)" fill="#fff"/>
        <path id="Trazado_913685" data-name="Trazado 913685" d="M411.41,893.4c-6.54,0-11.071-2.248-16.014-4.7-7.39-3.665-15.767-7.824-33.891-5.787-6.376.714-11.316,1.367-15.287,1.891-14.582,1.93-15.458,2.044-19.018-4.866a74.755,74.755,0,0,0-5-8.527c-12.07-17.728-9.793-31.27-9.69-31.838a1.121,1.121,0,0,1,2.206.4c-.023.13-2.179,13.266,9.335,30.179a76.859,76.859,0,0,1,5.138,8.761c2.836,5.507,2.84,5.506,16.732,3.671,3.979-.525,8.933-1.18,15.33-1.9,18.784-2.1,27.47,2.206,35.136,6.008,7.971,3.954,14.267,7.075,29.982,1.275,29.93-11.049,22.212-47.584,22.13-47.953a1.12,1.12,0,1,1,2.188-.484c.086.386,8.2,38.82-23.541,50.539-6.5,2.4-11.537,3.33-15.741,3.33" transform="translate(-221.824 -595.731)" fill="#fff"/>
        <path id="Trazado_913686" data-name="Trazado 913686" d="M560.411,858.447c-3.443,0-6.678-1.7-9.609-6.616-7.932-13.315-3.675-19.644.44-25.763a33.057,33.057,0,0,0,4.042-7.278,36.8,36.8,0,0,0,1.21-19.112,1.12,1.12,0,0,1,2.173-.546,38.389,38.389,0,0,1-1.271,20.408,34.832,34.832,0,0,1-4.294,7.779c-4.067,6.048-7.579,11.271-.374,23.366,5.028,8.44,10.649,5.632,18.435,1.741,7.014-3.508,14.968-7.479,24.066-3.307,10.741,4.926,17.465,6.168,21.162,3.9,2.554-1.562,3.91-5.025,4.147-10.589.587-13.8.495-40.1.1-42.571a1.121,1.121,0,0,1,1.292-1.545c1.056.262,1.246.308,1.271,17.279.012,7.967-.093,19.227-.421,26.933-.271,6.366-1.977,10.423-5.216,12.4-4.45,2.723-11.625,1.56-23.266-3.778-8.128-3.727-15.566-.009-22.131,3.274-4.076,2.038-8.035,4.017-11.752,4.018m60.973-57.956h0m0,0h0Z" transform="translate(-388.089 -567.053)" fill="#fff"/>
        <path id="Trazado_913687" data-name="Trazado 913687" d="M678.879,846.985a3.437,3.437,0,0,1-.792-.092c-1.314-.314-3.011-1.524-3.636-5.517-1.155-7.385,1.28-12.36,4.318-17.224-3.319-11.041.125-24.373.3-25.033a1.12,1.12,0,0,1,2.166.573c-.038.146-3.038,11.774-.813,21.875a56.166,56.166,0,0,0,4.112-7.186c3.972-8.727,1-14.384.968-14.44a1.121,1.121,0,1,1,1.969-1.07c.146.269,3.531,6.7-.9,16.438a60.687,60.687,0,0,1-4.518,7.859q-.42.652-.829,1.29a20.281,20.281,0,0,0,1.958,4.171,14.133,14.133,0,0,1,.073,15.6c-1.273,1.772-2.86,2.756-4.378,2.756m.868-20.125c-2.4,4.107-4,8.27-3.081,14.17.327,2.094,1.053,3.471,1.941,3.682.8.191,1.913-.514,2.829-1.79,2.071-2.884,2.907-8.215-.152-13.106a21.586,21.586,0,0,1-1.537-2.956" transform="translate(-478.882 -567.054)" fill="#fff"/>
        <path id="Trazado_913688" data-name="Trazado 913688" d="M516.742,870.228c-2.752,0-6.32-1.106-10.765-3.326-10.741-5.362-24.93-4.1-38.649-2.872-10.666.952-20.741,1.849-29.435-.1-6.261-1.4-10.058-3.5-11.946-6.607-2.681-4.4-1.165-10.184.753-17.508.918-3.5,1.958-7.476,2.677-11.83,3.092-18.74,1.1-28.245,1.084-28.339a1.12,1.12,0,0,1,2.188-.481c.088.4,2.111,9.956-1.062,29.186-.735,4.455-1.789,8.481-2.72,12.032-1.783,6.809-3.192,12.186-1.007,15.774,1.551,2.548,4.9,4.323,10.522,5.586,8.356,1.874,18.259.989,28.746.055,14.033-1.25,28.541-2.546,39.848,3.1,6.358,3.173,10.77,3.915,12.757,2.14,2.458-2.193,1.871-8.722-1.651-18.383-4.978-13.656,3-37.823,3.341-38.845a1.12,1.12,0,0,1,2.125.711c-.081.243-8.07,24.447-3.36,37.366,4.025,11.042,4.366,17.853,1.038,20.823a6.475,6.475,0,0,1-4.484,1.519" transform="translate(-301.539 -567.055)" fill="#fff"/>
        <path id="Trazado_913689" data-name="Trazado 913689" d="M438.2,840.579a2.379,2.379,0,0,1-.288-.017c-1.433-.167-2.789-1.522-5.578-5.572-9.928-14.416-9.8-34.742-9.791-35.6a1.12,1.12,0,1,1,2.241.026c0,.2-.123,20.483,9.4,34.3.769,1.116,3.109,4.513,3.994,4.617.246.028.82-.5,1.338-.969,2.829-2.555,8.093-7.308,26.8-2.233,7.47,2.026,13.553,1.176,18.081-2.528,11.212-9.171,9.8-32.891,9.781-33.13a1.121,1.121,0,0,1,2.236-.147c.067,1.02,1.508,25.1-10.595,35.009-5.12,4.189-11.879,5.186-20.09,2.957-17.52-4.754-22.2-.533-24.712,1.735a4.433,4.433,0,0,1-2.812,1.547" transform="translate(-300.146 -567.053)" fill="#fff"/>
        <path id="Trazado_913690" data-name="Trazado 913690" d="M627.684,863.364c-5.391,0-9.909-3.08-12.861-8.831-10.058-19.594-.728-42.873-.326-43.855a1.121,1.121,0,0,1,2.074.849c-.1.231-9.334,23.32.245,41.982,2.873,5.6,7.194,8.186,12.493,7.508,10.594-1.369,21.9-14.649,25.2-29.605,5.117-23.181,2.839-31.607,2.815-31.689a1.121,1.121,0,0,1,2.15-.634c.1.353,2.5,8.9-2.777,32.806-3.488,15.8-15.645,29.864-27.1,31.344a15,15,0,0,1-1.913.125" transform="translate(-433.431 -567.057)" fill="#fff"/>
        <path id="Trazado_913691" data-name="Trazado 913691" d="M322.573,886.4a8.241,8.241,0,0,1-1.98-.238c-4.846-1.2-7.859-6.728-11.049-12.582-3.119-5.725-6.653-12.212-12.3-15.283-15.456-8.413,5.509-59.912,6.41-62.1a1.121,1.121,0,0,1,2.072.853c-5.917,14.388-18.785,53.088-7.41,59.28,6.223,3.386,9.925,10.182,13.192,16.178,3.076,5.644,5.731,10.518,9.62,11.479,2.176.535,4.712-.186,7.753-2.21,8.6-5.728,4.949-11.738-.109-20.058-3.97-6.53-8.469-13.932-7.332-22.635,1.633-12.491,9.373-14.338,16.858-16.125,4.563-1.089,9.282-2.215,12.922-5.723a21.567,21.567,0,0,0,6.359-20.305,1.121,1.121,0,1,1,2.156-.615,23.515,23.515,0,0,1-6.959,22.533c-4.081,3.932-9.1,5.13-13.958,6.289-7.363,1.757-13.723,3.275-15.156,14.236-1.034,7.92,3.247,14.965,7.025,21.181,5.055,8.315,9.829,16.167-.565,23.086-2.773,1.847-5.264,2.759-7.552,2.759" transform="translate(-207.121 -565.075)" fill="#fff"/>
        <path id="Trazado_913692" data-name="Trazado 913692" d="M545.486,866.523c-15.353,0-32.286-6.6-45.185-18.667-18.305-17.13-10.652-50.1-10.317-51.5a1.121,1.121,0,0,1,2.18.523c-.079.329-7.68,33.1,9.669,49.339,18.781,17.577,46.31,23.193,64.036,13.071,3.3-1.882,6.514-3.509,9.629-5.081,8.811-4.451,15.771-7.967,16.968-13.516.844-3.908-1.264-8.933-6.44-15.361C568.844,804,565.549,797.38,565.417,797.107a1.12,1.12,0,1,1,2.015-.978c.031.062,3.406,6.777,20.337,27.8,5.707,7.084,7.9,12.562,6.887,17.238-1.422,6.594-8.8,10.324-18.149,15.044-3.088,1.56-6.281,3.173-9.527,5.026a43.185,43.185,0,0,1-21.495,5.288" transform="translate(-346.728 -565.074)" fill="#fff"/>
        <path id="Trazado_913693" data-name="Trazado 913693" d="M383.591,654.79a20.035,20.035,0,0,1-10.791-3.236c-9.026-5.7-15.529-18.371-17.4-33.907-2.877-23.926-21.981-54.387-22.173-54.692a1.121,1.121,0,1,1,1.9-1.2c.195.308,19.566,31.191,22.5,55.623,1.788,14.872,7.907,26.939,16.368,32.279a17.583,17.583,0,0,0,15.448,1.9,12.737,12.737,0,0,0,8.1-7.551c3.417-8.467-.084-22.078-4.783-31.142-6.03-11.628-1.65-49.055-1.461-50.642a1.121,1.121,0,0,1,2.225.265c-.046.382-4.489,38.326,1.224,49.347,3.8,7.329,9.1,22.529,4.872,33.012a14.885,14.885,0,0,1-9.465,8.834,20.491,20.491,0,0,1-6.569,1.108" transform="translate(-236.584 -398.668)" fill="#75a38e"/>
        <path id="Trazado_913694" data-name="Trazado 913694" d="M295.762,648.491a14.964,14.964,0,0,1-3.084-.325c-7.492-1.573-12.658-8.371-12.567-16.533.073-6.454,3.234-11.878,7.655-17.032a16.133,16.133,0,0,1-5.095-8.674c-3.46-16.67,5.785-44.3,6.18-45.473a1.12,1.12,0,1,1,2.123.717c-.1.28-9.444,28.229-6.107,44.3a13.949,13.949,0,0,0,4.381,7.46c2.245-2.453,4.736-4.861,7.269-7.311,5.46-5.281,11.106-10.743,14.617-17.083,8.661-15.64,9.1-28.26,9.1-28.386a1.145,1.145,0,0,1,1.151-1.09,1.122,1.122,0,0,1,1.09,1.151c-.015.535-.461,13.3-9.384,29.41-3.673,6.633-9.441,12.212-15.02,17.608-2.481,2.4-4.92,4.758-7.109,7.148a59.36,59.36,0,0,0,8.34,4.994c7.591,4.006,15.441,8.149,11.108,18.324-2.9,6.8-8.447,10.794-14.651,10.794m-6.282-32.438c-4.13,4.823-7.063,9.833-7.128,15.606-.094,8.258,5.526,13.21,10.786,14.314,5.022,1.057,11.655-.8,15.213-9.154,3.355-7.878-1.65-11.009-10.093-15.465a59.747,59.747,0,0,1-8.778-5.3" transform="translate(-198.973 -397.124)" fill="#75a38e"/>
        <path id="Trazado_913695" data-name="Trazado 913695" d="M367.644,647.85c-1.787,0-3.683-1.025-5.757-3.1-5.555-5.564-8.658-14.824-8.515-25.406.152-11.136,3.893-21.247,10.007-27.046,11.574-10.975,13.032-18.364,13.047-18.437a1.12,1.12,0,0,1,2.207.386c-.056.325-1.513,8.11-13.711,19.677-5.686,5.392-9.166,14.907-9.309,25.451-.133,9.835,2.8,18.73,7.861,23.792,1.953,1.956,3.6,2.735,4.906,2.329,4.4-1.387,6.82-15.116,9.161-28.394.747-4.24,1.521-8.624,2.389-12.869a108.763,108.763,0,0,0,.52-41.62,1.121,1.121,0,0,1,2.184-.5,111.137,111.137,0,0,1-.509,42.573c-.861,4.215-1.631,8.583-2.376,12.809-2.793,15.838-5,28.346-10.7,30.141a4.664,4.664,0,0,1-1.408.219" transform="translate(-251.011 -398.673)" fill="#75a38e"/>
        <path id="Trazado_913696" data-name="Trazado 913696" d="M353.351,642.449c-14.093,0-32.6-14.115-34.494-26.5-2.795-18.254.894-44.187.932-44.447a1.1,1.1,0,0,1,1.269-.948,1.12,1.12,0,0,1,.947,1.269c-.036.256-3.677,25.865-.934,43.786,1.75,11.433,19.87,25,32.852,24.586,7.095-.221,11.238-4.715,11.982-13,1.319-14.663-.819-20.807-2.379-25.293s-2.688-7.729.444-15.671c5.956-15.089,6.039-25.951,6.039-26.06a1.121,1.121,0,0,1,1.12-1.119h0a1.121,1.121,0,0,1,1.12,1.12c0,.456-.07,11.363-6.194,26.881-2.828,7.167-1.919,9.781-.414,14.111,1.628,4.679,3.856,11.086,2.495,26.23-.849,9.437-5.872,14.776-14.144,15.034-.213.007-.428.01-.642.01" transform="translate(-225.754 -397.124)" fill="#75a38e"/>
        <path id="Trazado_913697" data-name="Trazado 913697" d="M429.344,642.254A17.708,17.708,0,0,1,422.47,641c-4.307-1.818-6.8-5.47-7.224-10.56-1.055-12.83,1.293-19.592,3.564-26.131,1.647-4.742,3.2-9.22,3.2-15.79,0-14.9-18.219-27.284-18.4-27.406a1.121,1.121,0,0,1,1.247-1.862c.791.531,19.4,13.169,19.4,29.269,0,6.948-1.616,11.6-3.326,16.525-2.195,6.319-4.464,12.853-3.447,25.212.35,4.265,2.323,7.185,5.862,8.68,6.531,2.758,17.6.014,25.19-6.25,3.333-2.749,8.69-8.473,7.117-15.926-2.268-10.752-6.705-11.031-11.842-11.354-3.913-.246-8.347-.525-11.043-6.232-5.73-12.129,2.9-37.646,3.268-38.726a1.121,1.121,0,0,1,2.121.727c-.088.256-8.705,25.734-3.362,37.043,2.13,4.51,5.386,4.715,9.157,4.952,5.285.332,11.274.709,13.895,13.129,1.346,6.379-1.454,12.813-7.885,18.116-6.041,4.982-13.931,7.84-20.614,7.84" transform="translate(-286.348 -397.123)" fill="#75a38e"/>
        <path id="Trazado_913698" data-name="Trazado 913698" d="M326.2,651.678a9.073,9.073,0,0,1-5.239-1.854,18.731,18.731,0,0,0-9.329-3.432c-1.814-.233-3.38-.435-4.3-1.785-1.636-2.391-.649-7.352,3.94-25.873,8.841-35.679,5.525-44.148,5.492-44.229a1.129,1.129,0,0,1,.571-1.471,1.116,1.116,0,0,1,1.467.539c.158.34,3.8,8.768-5.355,45.7-3.833,15.468-5.394,22.418-4.266,24.068.342.5,1.174.627,2.74.827a20.979,20.979,0,0,1,10.331,3.822c2.3,1.612,4.379,1.884,6.356.826,8.067-4.312,12.582-28.269,12.137-47.992-.566-25.153,2.344-38.177,2.468-38.72a1.12,1.12,0,0,1,2.184.5c-.03.13-2.971,13.335-2.411,38.17.469,20.836-4.385,45.242-13.323,50.018a7.3,7.3,0,0,1-3.46.886" transform="translate(-217.782 -398.665)" fill="#75a38e"/>
        <rect id="Rectángulo_403685" data-name="Rectángulo 403685" width="183.781" height="11.558" transform="translate(70.185 61.67)" fill="#485a7e"/>
        <rect id="Rectángulo_403686" data-name="Rectángulo 403686" width="183.781" height="13.723" transform="translate(70.185 129.251)" fill="#485a7e"/>
        <path id="Trazado_913699" data-name="Trazado 913699" d="M785.376,176.991c-1.645,3.2-7.617,3.64-10.74,4a45.321,45.321,0,0,1-9.73-.036c-2.15-.215-2.136,3.148,0,3.361a46.231,46.231,0,0,0,14.982-.837c3.263-.747,6.757-1.615,8.391-4.791.988-1.92-1.912-3.622-2.9-1.7" transform="translate(-542.201 -125.122)" fill="#232c44"/>
        <path id="Trazado_913700" data-name="Trazado 913700" d="M692.689,181.9c-2.333,2.38-7.172,2.373-10.232,2.642a65.28,65.28,0,0,1-8.893.107c-2.162-.1-2.157,3.257,0,3.361a66.153,66.153,0,0,0,12.29-.488c3.291-.454,6.791-.774,9.212-3.245,1.515-1.546-.859-3.925-2.377-2.377" transform="translate(-477.309 -128.851)" fill="#232c44"/>
        <path id="Trazado_913701" data-name="Trazado 913701" d="M593.354,178.5c-2.541,2.541-8.3,2.674-11.608,2.955a59.24,59.24,0,0,1-9.645-.055c-2.157-.169-2.146,3.193,0,3.361a60.133,60.133,0,0,0,13.291-.356c3.55-.51,7.7-.891,10.339-3.529a1.682,1.682,0,0,0-2.377-2.377" transform="translate(-405.241 -126.444)" fill="#232c44"/>
        <path id="Trazado_913702" data-name="Trazado 913702" d="M480.016,190.8c-4.8.053-9.646.3-14.444.158-3.66-.111-6.625-2.005-10.207-2.11-2.164-.063-2.162,3.3,0,3.361,3.519.1,6.546,2.067,10.207,2.11,4.81.057,9.634-.106,14.444-.159,2.161-.024,2.167-3.385,0-3.361" transform="translate(-322.312 -134.148)" fill="#232c44"/>
        <path id="Trazado_913703" data-name="Trazado 913703" d="M373.14,181.584c-3.419-.114-6.878-.089-10.288-.371-3.548-.294-6.24-2.17-9.61-2.885-2.11-.448-3.012,2.792-.894,3.241,3.207.68,5.812,2.488,9.144,2.883,3.838.454,7.787.365,11.648.493,2.164.072,2.161-3.289,0-3.361" transform="translate(-249.429 -126.644)" fill="#232c44"/>
        <path id="Trazado_913704" data-name="Trazado 913704" d="M274.408,155.406c-6.883-1.92-15.012-6-14.055-14.451.243-2.146-3.12-2.128-3.361,0-1.129,9.964,8.268,15.39,16.522,17.693a1.682,1.682,0,0,0,.893-3.241" transform="translate(-182.486 -98.987)" fill="#232c44"/>
        <path id="Trazado_913705" data-name="Trazado 913705" d="M276,378.205a12.493,12.493,0,0,1-13.2-14.457c.331-2.116-2.908-3.028-3.241-.893-1.591,10.181,6,19.162,16.445,18.712,2.155-.093,2.166-3.455,0-3.361" transform="translate(-184.224 -256.886)" fill="#232c44"/>
        <path id="Trazado_913706" data-name="Trazado 913706" d="M382.476,417.144c-7.616-.031-15.26.3-22.681-1.7a1.682,1.682,0,0,0-.894,3.241c7.714,2.077,15.653,1.788,23.575,1.821a1.682,1.682,0,0,0,0-3.361" transform="translate(-254.096 -295.06)" fill="#232c44"/>
        <path id="Trazado_913707" data-name="Trazado 913707" d="M478.247,415.48q-11.774.307-23.528-.318c-2.162-.115-2.155,3.247,0,3.361q11.761.625,23.528.318c2.159-.056,2.167-3.418,0-3.361" transform="translate(-321.855 -294.904)" fill="#232c44"/>
        <path id="Trazado_913708" data-name="Trazado 913708" d="M591.466,414.491c-6.883.757-13.768,1.715-20.707,1.463-2.163-.079-2.16,3.283,0,3.361,6.939.252,13.824-.705,20.707-1.463,2.127-.234,2.151-3.6,0-3.361" transform="translate(-404.281 -294.421)" fill="#232c44"/>
        <path id="Trazado_913709" data-name="Trazado 913709" d="M686.921,416.985c-5.66,1.515-11.088,1.266-16.905,1.182-2.164-.031-2.164,3.33,0,3.361,6.218.09,11.771.311,17.8-1.3a1.682,1.682,0,0,0-.894-3.241" transform="translate(-474.786 -296.155)" fill="#232c44"/>
        <path id="Trazado_913710" data-name="Trazado 913710" d="M796.7,385.434c-.128-2.149-3.49-2.164-3.361,0,.451,7.56-12.164,12.166-18.224,11.935-2.164-.083-2.16,3.279,0,3.361,8.1.309,22.168-5.542,21.586-15.3" transform="translate(-549.44 -272.64)" fill="#232c44"/>
        <path id="Trazado_913711" data-name="Trazado 913711" d="M594.963,649.913a125.768,125.768,0,0,1-22.923,1.115c-2.163-.089-2.159,3.273,0,3.361a130.515,130.515,0,0,0,23.817-1.235c2.133-.3,1.226-3.543-.894-3.241" transform="translate(-405.191 -461.646)" fill="#232c44"/>
        <path id="Trazado_913712" data-name="Trazado 913712" d="M920.012,508.06s-27.742,15.708-36.47,16.84c-5.2.683-34.094-1.849-47.741-3.1-1.692-.157-3.16-.291-4.3-.4-1.8-.168-2.846-.269-2.846-.269l-.2-10.184s.1,0,.28-.011c.112,0,1.367-.067,3.44-.19,1.2-.067,2.678-.157,4.358-.258,12.829-.8,37.59-2.588,44.021-4.862,8.246-2.924,29.49-18.095,29.49-18.095Z" transform="translate(-588.482 -346.307)" fill="#fea689"/>
        <path id="Trazado_913713" data-name="Trazado 913713" d="M706.435,587.077c-.685-2.764-.527-5.707-2.107-8.166a11.507,11.507,0,0,0-5.306-4.286c-2.178-.995-1.78.31-3.365,1.351-1.118.735-1.816-.722-5.516-1.079s-4.036,3.3-3.3,5.693.141,4.64,1.243,6.53a6.6,6.6,0,0,0,3.47,3.425c2.024,1.052,11.077,3.286,11.077,3.286s4.877-2.3,4.993-2.564c.349-.8-.854-2.979-1.082-3.79q-.055-.2-.1-.4" transform="translate(-487.666 -407.926)" fill="#fea689"/>
        <path id="Trazado_913714" data-name="Trazado 913714" d="M1066.457,1384.433c.2,1.056,1.033,17.7,1.033,17.7l4.724,3.271,4.818-4.913,1.768-23.11Z" transform="translate(-757.547 -978.408)" fill="#fea689"/>
        <path id="Trazado_913715" data-name="Trazado 913715" d="M1001.975,1465.521c.605.747,15.59.294,22.32.038s6.7.464,7.577-1.107a3.8,3.8,0,0,0,.229-1.481c.122-3.62-1.107-11.918-1.107-11.918s-3.351.848-5.033.423-3.806-3.122-5.372-2.288-2.557,3.209-6.064,5.743-8.312,3.776-10.812,5.557a4.728,4.728,0,0,0-2.085,3.246,2.524,2.524,0,0,0,.348,1.788" transform="translate(-711.478 -1029.303)" fill="#e3d4cf"/>
        <path id="Trazado_913716" data-name="Trazado 913716" d="M1001.779,1500.122c.436.3,15.7-.116,22.434-.372s6.7.464,7.576-1.107a3.8,3.8,0,0,0,.23-1.481l-30.474.763c-.094.794-.113,1.961.234,2.2" transform="translate(-711.396 -1063.494)" fill="#f5e9e4"/>
        <path id="Trazado_913717" data-name="Trazado 913717" d="M1049.513,1471.6a.56.56,0,0,1-.3-1.032l5.813-3.732a.561.561,0,0,1,.606.943l-5.813,3.732a.561.561,0,0,1-.3.089" transform="translate(-745.113 -1041.888)" fill="#f5e9e4"/>
        <path id="Trazado_913718" data-name="Trazado 913718" d="M1284.021,1378.726c.367,1.01,3.889,17.3,3.889,17.3l5.193,2.461,4.03-5.276-2.076-23.444Z" transform="translate(-912.091 -972.997)" fill="#fea689"/>
        <path id="Trazado_913719" data-name="Trazado 913719" d="M1228.189,1460.2c.6.748,15.59.294,22.32.038s6.7.464,7.576-1.107a3.793,3.793,0,0,0,.229-1.481c.122-3.62-1.107-11.918-1.107-11.918s-3.351.848-5.034.423-3.806-3.122-5.372-2.288-2.557,3.209-6.064,5.743-8.312,3.776-10.812,5.557a4.73,4.73,0,0,0-2.085,3.247,2.522,2.522,0,0,0,.348,1.787" transform="translate(-872.166 -1025.526)" fill="#e3d4cf"/>
        <path id="Trazado_913720" data-name="Trazado 913720" d="M1227.992,1494.805c.437.3,15.7-.117,22.434-.372s6.7.464,7.577-1.107a3.783,3.783,0,0,0,.23-1.481l-30.474.763c-.094.794-.113,1.961.233,2.2" transform="translate(-872.084 -1059.717)" fill="#f5e9e4"/>
        <path id="Trazado_913721" data-name="Trazado 913721" d="M1275.726,1466.281a.56.56,0,0,1-.3-1.032l5.813-3.731a.561.561,0,1,1,.606.943l-5.813,3.731a.56.56,0,0,1-.3.089" transform="translate(-905.801 -1038.111)" fill="#f5e9e4"/>
        <path id="Trazado_913722" data-name="Trazado 913722" d="M1210.281,761.157a214.592,214.592,0,0,1,0,31.575c-1.314,16.477.955,56.6,0,57.67s6.567,22.924,7.283,30.447,0,14.42,1.791,21,5.015,33.268,5.015,33.268a57.7,57.7,0,0,1-16.113,5.731c-9.678,1.969-11.827.627-11.827.627s-17.91-56.686-22.925-72.447-10.1-37.253-10.1-37.253,1.723-61.071,0-68.146,3.36-19.469,5.475-20.078,41.4,17.606,41.4,17.606" transform="translate(-826.167 -528.164)" fill="#232c44"/>
        <path id="Trazado_913723" data-name="Trazado 913723" d="M1044.421,754.917s-3.582,56.524-3.582,84.105,3.582,98.309,3.582,98.309,6.034,3.225,11.793,3,15.69,0,15.69,0,5.389-43.209,5.43-53.6,1.625-25.432,2.087-36.894,6.612-57.312,8.551-72.356,2.359-39.044,0-39.76-43.552,17.194-43.552,17.194" transform="translate(-739.349 -524.02)" fill="#232c44"/>
        <path id="Trazado_913724" data-name="Trazado 913724" d="M1176.771,983.92a.52.52,0,0,1-.128-.015.559.559,0,0,1-.417-.673l8.978-38.284a.56.56,0,0,1,1.09.256l-8.978,38.284a.559.559,0,0,1-.545.432" transform="translate(-835.51 -670.927)" fill="#485a7e"/>
        <path id="Trazado_913725" data-name="Trazado 913725" d="M1117.263,856.482c-1.659,0-7.066-5.539-7.529-7.35s-.94-10.8-.96-11.182a.556.556,0,0,1,.162-.425.528.528,0,0,1,.424-.164l17.576.85a.555.555,0,0,1,.4.2.563.563,0,0,1,.13.426c-.044.387-1.075,9.516-2,11.548-.965,2.109-6.7,6-8.152,6.1h-.047m-7.337-17.972c.185,3.342.568,9.07.893,10.344.4,1.544,5.411,6.4,6.434,6.508.831-.058,6.325-3.557,7.19-5.448.662-1.445,1.5-7.672,1.841-10.613Z" transform="translate(-787.606 -594.81)" fill="#485a7e"/>
        <path id="Trazado_913726" data-name="Trazado 913726" d="M1262.829,854.839c-1.721,0-7.368-5.08-7.945-6.837s-1.652-10.714-1.7-11.094a.56.56,0,0,1,.546-.627l17.593-.314a.5.5,0,0,1,.412.169.555.555,0,0,1,.157.416c-.017.39-.442,9.566-1.234,11.655-.822,2.168-6.288,6.43-7.731,6.625a.742.742,0,0,1-.1.007m-8.456-17.449c.407,3.323,1.167,9.012,1.577,10.263.5,1.513,5.821,6.03,6.848,6.067.826-.113,6.078-3.968,6.815-5.911.565-1.487.984-7.755,1.135-10.712Z" transform="translate(-890.186 -593.819)" fill="#485a7e"/>
        <path id="Trazado_913727" data-name="Trazado 913727" d="M724.179,549.806l2.226,10.1s34.326,13.448,38.115,13.668c5.8.352,11.317-.187,18.588-6.17,7.288-5.969,21.05-27.426,21.05-27.426L787.15,527.85s-13.475,23.787-21.558,26.183c-3.518,1.044-41.412-4.227-41.412-4.227" transform="translate(-514.413 -374.953)" fill="#fea689"/>
        <path id="Trazado_913728" data-name="Trazado 913728" d="M1016.5,228.279a36.628,36.628,0,0,0,6.871,6.995,56.485,56.485,0,0,0,8.887,5.648c2.62,1.367,5.9,3.481,9.044,3.021,4.555-.667,7.738-3.491,7.391-.442-.081.717.688,2.563.77,1.845.8-7.048,2.075-13.637,2.392-20.721.194-4.332-.367-9.546-4.266-12.449a8.419,8.419,0,0,0-6.185-1.653c-2.575.351-4.048-1.755-6.632-2.419a15.855,15.855,0,0,0-3.36-.642,5.915,5.915,0,0,0-4.664,1.852c-.927,1.13-1.363,1.755-2.958,2.086-2.266.47-6.068-.119-7.079,2.484-.435,1.122-.073,2.338-.227,3.491a7.658,7.658,0,0,1-1.358,3.081,5.68,5.68,0,0,0-.659,1.412c-.694,2.318.706,4.6,2.032,6.41" transform="translate(-720.485 -147.366)" fill="#6b3939"/>
        <path id="Trazado_913729" data-name="Trazado 913729" d="M1071.667,333.363l2,5.041,2.073,5.244,6.121,15.483s17.474-8.979,17.489-9.282c0-.325-10.858-26.2-10.855-26.525Z" transform="translate(-761.248 -229.67)" fill="#fea689"/>
        <path id="Trazado_913730" data-name="Trazado 913730" d="M1081.231,380.447c-.742-.341-12.709-2.832-12.709-2.832l-18.21,4.112-16.113,10.5s22.835,6.511,24.227,6.358,14.268-6.074,16.745-7.9,6.061-10.246,6.061-10.246" transform="translate(-734.632 -268.235)" fill="#fea689"/>
        <path id="Trazado_913731" data-name="Trazado 913731" d="M1059.958,268.7c-1.927,4.885-8.089,10.834-14.666,10.5-5.792-.291-9.1-4.414-10.8-8.526a10.294,10.294,0,0,1-.4-1.065c-.078-.2-.145-.414-.213-.616a102.337,102.337,0,0,1-2.723-11.888c-.067-.359-.123-.717-.179-1.087-.067-.415-.123-.829-.179-1.233-.09-.594-.168-1.188-.224-1.759-.359-3.193-.4-6.006.157-7.529,1.6-4.325,11.272-8.5,11.272-8.5s11.226-2.263,15.17,3.821,4.717,23.025,2.79,27.887" transform="translate(-731.864 -168.049)" fill="#fea689"/>
        <path id="Trazado_913732" data-name="Trazado 913732" d="M1042.758,261.807c.181,2.106,2.787,2.675,4.236,3.516a8.385,8.385,0,0,1,1.188.824c.374.316.679.71,1.075,1,1.12.82,3,.562,4.285.448a11.469,11.469,0,0,0,5.021-2.289s3.089-26.318-8.566-29.2c-5.16-1.278-11.629-.175-16.267,1.989-6.605,3.082-6.634,7.983-6.634,7.983s5.455-1.019,6.092,1.727c1.214,5.229,4.232,7.591,6.142,7.075,1.01-.273,1.467,2.914,2.6,6.44a.6.6,0,0,1,.832.491" transform="translate(-729.587 -167.327)" fill="#6b3939"/>
        <path id="Trazado_913733" data-name="Trazado 913733" d="M1063.827,302.291l2.966,6.514a.565.565,0,0,0,.873.156c2.225-2.092,3.584-5.682,1.5-8.43-1.557-2.051-3.885-.935-4.6.99a.579.579,0,0,0-.74.77" transform="translate(-755.639 -212.701)" fill="#fea689"/>
        <path id="Trazado_913734" data-name="Trazado 913734" d="M1056.465,241.561c-7.054-1.566-15.586.638-20.56,6.02-.489.529.3,1.323.792.792,4.692-5.077,12.807-7.21,19.469-5.732.7.156,1-.924.3-1.08" transform="translate(-735.736 -171.24)" fill="#522828"/>
        <path id="Trazado_913735" data-name="Trazado 913735" d="M1063.506,224.229c-1.981-2.135-5.069-3.275-7.824-4.022a.561.561,0,0,0-.3,1.08c2.572.7,5.478,1.739,7.33,3.734.491.53,1.282-.264.792-.792" transform="translate(-749.4 -156.406)" fill="#522828"/>
        <path id="Trazado_913736" data-name="Trazado 913736" d="M1089.874,226.067a8.961,8.961,0,0,0-3.211-3.793c-.64-.331-1.207.636-.565.967a8.008,8.008,0,0,1,2.809,3.391c.342.635,1.31.07.968-.565" transform="translate(-771.298 -157.842)" fill="#522828"/>
        <path id="Trazado_913737" data-name="Trazado 913737" d="M1031.787,313.444s-1.908,7.776-1.579,8.17c.542.648,4.435.49,4.435.49Z" transform="translate(-731.771 -222.652)" fill="#fea689"/>
        <path id="Trazado_913738" data-name="Trazado 913738" d="M1036.95,303.89c.319-.74,1.252-.525,1.681-.017a2.955,2.955,0,0,1,.578,1.47,1.489,1.489,0,0,1-.172.958.968.968,0,0,1-1.2.392,1.516,1.516,0,0,1-.769-.87,2.815,2.815,0,0,1-.119-1.934" transform="translate(-736.498 -215.525)" fill="#403630"/>
        <path id="Trazado_913739" data-name="Trazado 913739" d="M1037.4,293.069c-.19.594-1.109.5-1.714.538-1.132.045-2.252.213-3.372.336-.213.022-.538.079-.863.09-.09-.594-.168-1.188-.224-1.759a9.81,9.81,0,0,1,5.355-.123c.471.146.964.459.818.919" transform="translate(-732.52 -207.302)" fill="#6b3939"/>
        <path id="Trazado_913740" data-name="Trazado 913740" d="M1051.7,292.653a66.834,66.834,0,0,1,3.708,15.336,6.818,6.818,0,0,1-3.186,6.512c-1.536.636-3.16-1.522-3.16-1.522s1.515,4.779,3.51,6.249c2.753,2.028,5.914,1.435,6.878-.455s.5-2.672-1.976-13.48c-1.253-5.471-2.541-9.86-2.541-9.86Z" transform="translate(-745.194 -207.883)" fill="#6b3939"/>
        <path id="Trazado_913741" data-name="Trazado 913741" d="M1047.471,345.458a7.56,7.56,0,0,1-3.7,1.815,10.287,10.287,0,0,1-.4-1.064,6.764,6.764,0,0,0,3.429-1.647c.526-.493,1.188.415.672.9" transform="translate(-741.147 -244.655)" fill="#f2835e"/>
        <path id="Trazado_913742" data-name="Trazado 913742" d="M1087.91,507.2c-1.7,1.882-15.484-.672-20.358-1.2s-13.244-4.325-31.293-3.092-36.806,3.731-36.806,3.731-3-38.643-4.907-52.548-9.4-57.511-7.832-60.122,22.588-13.232,22.588-13.232a36.742,36.742,0,0,1,15.709-9.949c8.28-2.555,13.837.112,13.837.112,9.311,0,16.795,2.79,23.842,10.017a32.689,32.689,0,0,1,6.8,11.227c2.229,5.77,3.5,12.134,4.84,17.859.134.594.269,1.177.414,1.759a350.446,350.446,0,0,1,7.485,43.9c2.532,22.543,7.395,49.668,5.68,51.539" transform="translate(-700.75 -262.602)" fill="#ffda8a"/>
        <path id="Trazado_913743" data-name="Trazado 913743" d="M1073.493,383.128a.56.56,0,0,1-.356-.993c.337-.276,8.308-6.767,14.809-8.137a27.039,27.039,0,0,1,11.08-.284.56.56,0,0,1-.265,1.089,26.483,26.483,0,0,0-10.583.291c-6.232,1.314-14.25,7.842-14.33,7.907a.562.562,0,0,1-.356.127" transform="translate(-762.147 -265.165)" fill="#edc75f"/>
        <path id="Trazado_913744" data-name="Trazado 913744" d="M923.867,446.941a52.892,52.892,0,0,0-12.063,12.03c-4.762,7-16.946,29.691-16.946,29.691l27.73,16.106,13.081-8.4Z" transform="translate(-635.653 -317.48)" fill="#ffda8a"/>
        <path id="Trazado_913745" data-name="Trazado 913745" d="M1022.094,501.067a.56.56,0,0,1-.475-.858c.066-.1,6.519-10.5,7.331-21.29s-6.24-25.758-6.311-25.907a.56.56,0,0,1,1.011-.482c.3.624,7.251,15.387,6.418,26.472s-7.434,21.7-7.5,21.8a.561.561,0,0,1-.475.263" transform="translate(-725.636 -321.223)" fill="#edc75f"/>
        <path id="Trazado_913746" data-name="Trazado 913746" d="M1166.49,465.091a54.135,54.135,0,0,1-5.378.952c-2.734.5-30.442,5.86-41.523,8.179-.269,0-2.61-12.067-3.35-16.918,9.467-5.322,20.851-5.748,31.405-7.35,4.885-.739,9.165-2.263,14.005-2.723,2.229,5.77,3.5,12.134,4.84,17.86" transform="translate(-792.909 -317.686)" fill="#fff"/>
        <path id="Trazado_913747" data-name="Trazado 913747" d="M79.462,1434.629h107.8a1.121,1.121,0,0,1,1.12,1.12v15.307a1.12,1.12,0,0,1-1.12,1.12H80.582a1.12,1.12,0,0,1-1.12-1.12Z" transform="translate(-56.445 -1019.074)" fill="#de684e"/>
        <path id="Trazado_913748" data-name="Trazado 913748" d="M102.4,1295.229l-18.324-61.557a.973.973,0,0,0-.933-.7H4.884a.972.972,0,0,0-.683.28l-3.912,3.858a.973.973,0,0,0-.251.964l17.151,59.164a.974.974,0,0,0,.935.7h9.892s-.335-1.118-.832-2.717Z" transform="translate(0 -875.833)" fill="#de684e"/>
        <path id="Trazado_913749" data-name="Trazado 913749" d="M123.369,1298.359H50.628l-16.056-55.568h71.68Z" transform="translate(-24.558 -882.805)" fill="#232c44"/>
        <path id="Trazado_913750" data-name="Trazado 913750" d="M275.648,1457.271h20.444a1.9,1.9,0,0,1,0,3.8H275.648a1.9,1.9,0,0,1,0-3.8" transform="translate(-194.453 -1035.158)" fill="#232c44"/>
        <path id="Trazado_913751" data-name="Trazado 913751" d="M175.391,1452.654a.56.56,0,0,1-.56-.56v-14.953a.56.56,0,1,1,1.12,0v14.953a.56.56,0,0,1-.56.56" transform="translate(-124.189 -1020.461)" fill="#bf4c33"/>
        <path id="Trazado_913752" data-name="Trazado 913752" d="M76.851,1295.423a.839.839,0,0,1-.8-.577l-7.178-21.775a.84.84,0,0,1,1.6-.525l7.178,21.775a.84.84,0,0,1-.535,1.061.814.814,0,0,1-.262.042" transform="translate(-48.895 -903.529)" fill="#bec1c4"/>
        <path id="Trazado_913753" data-name="Trazado 913753" d="M90.25,1338.516h0a.925.925,0,0,0-1.168-.589l-3.557,1.172a.925.925,0,0,0-.589,1.168l.019.057a.914.914,0,0,0,.71.612,2.091,2.091,0,0,1,.742,3.729.025.025,0,0,0-.011.029l4.782,14.507a2.921,2.921,0,0,0,3.469,1.992,2.8,2.8,0,0,0,1.9-3.57l-4.858-14.738a.025.025,0,0,0-.027-.017,2.09,2.09,0,0,1-1.62-3.439.913.913,0,0,0,.207-.913" transform="translate(-60.3 -950.35)" fill="#75a38e"/>
        <path id="Trazado_913754" data-name="Trazado 913754" d="M99.525,1376.146a.563.563,0,0,1-.533-.385l-4.386-13.375a.561.561,0,1,1,1.066-.35l4.386,13.375a.562.562,0,0,1-.358.708.575.575,0,0,1-.175.027" transform="translate(-67.182 -967.234)" fill="#578c75"/>
        <path id="Trazado_913755" data-name="Trazado 913755" d="M107.741,1373.653a.563.563,0,0,1-.533-.385l-4.386-13.375a.561.561,0,1,1,1.066-.35l4.387,13.375a.562.562,0,0,1-.358.708.573.573,0,0,1-.175.027" transform="translate(-73.019 -965.463)" fill="#578c75"/>
        <path id="Trazado_913756" data-name="Trazado 913756" d="M115.731,1288.445a.56.56,0,0,1-.532-.385l-6.014-18.244a.56.56,0,0,1,1.064-.35l6.014,18.244a.559.559,0,0,1-.357.707.55.55,0,0,1-.175.028" transform="translate(-77.538 -901.477)" fill="#bec1c4"/>
        <path id="Trazado_913757" data-name="Trazado 913757" d="M126.6,1324.344h0a.775.775,0,0,0-.978-.494l-2.981.983a.775.775,0,0,0-.494.979l.016.048a.766.766,0,0,0,.595.513,1.752,1.752,0,0,1,.622,3.125.021.021,0,0,0-.01.024l4.007,12.156a2.447,2.447,0,0,0,2.906,1.669,2.344,2.344,0,0,0,1.594-2.991L127.81,1328a.021.021,0,0,0-.022-.014,1.751,1.751,0,0,1-1.357-2.882.765.765,0,0,0,.173-.765" transform="translate(-86.741 -940.356)" fill="#de684e"/>
        <path id="Trazado_913758" data-name="Trazado 913758" d="M134.7,1356.786a.563.563,0,0,1-.533-.385l-3.675-11.208a.561.561,0,0,1,1.066-.35l3.676,11.207a.563.563,0,0,1-.358.708.577.577,0,0,1-.175.027" transform="translate(-92.673 -955.022)" fill="#bf4c33"/>
        <path id="Trazado_913759" data-name="Trazado 913759" d="M141.584,1354.7a.56.56,0,0,1-.532-.385l-3.676-11.206a.56.56,0,1,1,1.064-.35l3.676,11.206a.56.56,0,0,1-.357.707.54.54,0,0,1-.175.028" transform="translate(-97.564 -953.538)" fill="#bf4c33"/>
        <path id="Trazado_913760" data-name="Trazado 913760" d="M149.214,1284.457a.39.39,0,0,1-.372-.269l-4.62-14.015a.392.392,0,0,1,.744-.245l4.619,14.015a.391.391,0,0,1-.249.494.363.363,0,0,1-.123.02" transform="translate(-102.433 -901.888)" fill="#bec1c4"/>
        <path id="Trazado_913761" data-name="Trazado 913761" d="M157.471,1311.976h0a.6.6,0,0,0-.752-.379l-2.289.755a.6.6,0,0,0-.379.752l.012.037a.587.587,0,0,0,.457.394,1.346,1.346,0,0,1,.477,2.4.016.016,0,0,0-.007.018l3.078,9.338a1.879,1.879,0,0,0,2.233,1.282,1.8,1.8,0,0,0,1.224-2.3l-3.127-9.486a.016.016,0,0,0-.017-.011,1.345,1.345,0,0,1-1.043-2.214.588.588,0,0,0,.133-.588" transform="translate(-109.407 -931.659)" fill="#ffcf69"/>
        <path id="Trazado_913762" data-name="Trazado 913762" d="M166.155,1335.813a.563.563,0,0,1-.533-.385l-2.823-8.609a.561.561,0,1,1,1.066-.35l2.823,8.609a.563.563,0,0,1-.358.708.577.577,0,0,1-.175.027" transform="translate(-115.623 -941.97)" fill="#f0b63c"/>
        <rect id="Rectángulo_403687" data-name="Rectángulo 403687" width="18.809" height="2.98" transform="translate(55.368 367.658)" fill="#bec1c4"/>
        <path id="Trazado_913763" data-name="Trazado 913763" d="M256.6,1263.431h-3.68l-1.836,3.184,1.836,3.184h3.68l1.837-3.184Zm-.864,4.676H254.1l-.821-1.42.821-1.414h1.631l.822,1.414Z" transform="translate(-178.354 -897.466)" fill="#bec1c4"/>
        <path id="Trazado_913764" data-name="Trazado 913764" d="M174.571,1269.538v-1.46l-.806-1.392.822-1.414h2.235l.822,1.414-.782,1.352v1.5h1.323l1.339-2.924-1.837-3.184h-3.679l-1.837,3.184,1.338,2.924Z" transform="translate(-122.3 -897.465)" fill="#bec1c4"/>
        <path id="Trazado_913765" data-name="Trazado 913765" d="M211.031,1273.608H194.055a.56.56,0,0,1,0-1.12h16.976a.56.56,0,0,1,0,1.12" transform="translate(-137.447 -903.898)" fill="#8b979e"/>
        <path id="Trazado_913766" data-name="Trazado 913766" d="M249.939,1385.683a2.53,2.53,0,1,0-1.589-3.2,2.529,2.529,0,0,0,1.589,3.2" transform="translate(-176.318 -980.806)" fill="#bec1c4"/>
        <path id="Trazado_913767" data-name="Trazado 913767" d="M210.356,1358.711a2.24,2.24,0,0,1-1.978-1.184,11.549,11.549,0,0,0-4.915-4.344,42.138,42.138,0,0,0-8.028-2.707,2.241,2.241,0,0,1,.922-4.386,46.022,46.022,0,0,1,9.009,3.036,15.885,15.885,0,0,1,6.97,6.3,2.241,2.241,0,0,1-1.98,3.285" transform="translate(-137.562 -956.147)" fill="#de684e"/>
        <path id="Trazado_913768" data-name="Trazado 913768" d="M197.087,1384.092a16.125,16.125,0,0,1-3.386-.358,46.1,46.1,0,0,1-9.007-3.037,2.241,2.241,0,0,1,1.92-4.049,42.21,42.21,0,0,0,8.028,2.706,11.606,11.606,0,0,0,6.543-.481,2.24,2.24,0,0,1,1.879,4.068,15.247,15.247,0,0,1-5.976,1.152" transform="translate(-130.286 -977.734)" fill="#de684e"/>
        <path id="Trazado_913769" data-name="Trazado 913769" d="M259.841,1385.97l10.645,3.588s-2.561-4.228-4.28-5.118-6.315.459-6.315.459Z" transform="translate(-184.575 -983.208)" fill="#bec1c4"/>
        <path id="Trazado_913770" data-name="Trazado 913770" d="M258.641,1389.6l10.561,3.839s-4.513,1.565-6.421,1.232-4.748-4.189-4.748-4.189Z" transform="translate(-183.291 -987.088)" fill="#bec1c4"/>
        <path id="Trazado_913771" data-name="Trazado 913771" d="M271.724,1393.533a.55.55,0,0,1-.194-.035l-7.658-2.821a.56.56,0,1,1,.387-1.05l7.658,2.821a.56.56,0,0,1-.194,1.085" transform="translate(-187.179 -987.082)" fill="#8b979e"/>
        <path id="Trazado_913772" data-name="Trazado 913772" d="M235.842,1300.417a7.15,7.15,0,1,0,8.529,5.43,7.147,7.147,0,0,0-8.529-5.43m2.322,10.494a3.6,3.6,0,1,1,2.739-4.3,3.6,3.6,0,0,1-2.739,4.3" transform="translate(-163.548 -923.617)" fill="#485a7e"/>
        <path id="Trazado_913773" data-name="Trazado 913773" d="M273.8,1315.7c-.786-2.266-.222-4.728-1.266-7a9.815,9.815,0,0,0-4.228-4.239c-.515-.2.1,1.677.615,1.874a4.989,4.989,0,0,1,1.456.857,7.143,7.143,0,0,0-.142,1.589c-.044-.084-.078-.167-.126-.25-.272-.477-1.031-.079-.757.4a9.384,9.384,0,0,1,.821,1.936q-.011.358-.022.716a.4.4,0,0,0,.317.414,38.72,38.72,0,0,0,.967,4.234c.747,2.2,2.085,3.961,2.369,6.338a.433.433,0,0,0,.51.326,7.68,7.68,0,0,1,3.362.436s-3.232-5.774-3.877-7.635" transform="translate(-190.454 -926.606)" fill="#485a7e"/>
        <path id="Trazado_913774" data-name="Trazado 913774" d="M240.663,1316.485a5.82,5.82,0,1,1,1.257-.138,5.829,5.829,0,0,1-1.257.138m0-10.515a4.655,4.655,0,0,0-1.014.112,4.692,4.692,0,1,0,1.014-.112" transform="translate(-166.82 -926.887)" fill="#232c44"/>
        <path id="Trazado_913775" data-name="Trazado 913775" d="M844,566.779l-.728,11.316c-1.692-.157-3.16-.291-4.3-.4l.672-10.655c1.2-.068,2.678-.157,4.359-.258" transform="translate(-595.955 -402.606)" fill="#232c44"/>
      </g>
    </g>
  </g>
</svg>
